<?xml version="1.0" encoding="UTF-8" standalone="no"?>
<!-- Created with Inkscape (http://www.inkscape.org/) -->

<svg
   xmlns:dc="http://purl.org/dc/elements/1.1/"
   xmlns:cc="http://creativecommons.org/ns#"
   xmlns:rdf="http://www.w3.org/1999/02/22-rdf-syntax-ns#"
   xmlns:svg="http://www.w3.org/2000/svg"
   xmlns="http://www.w3.org/2000/svg"
   xmlns:sodipodi="http://sodipodi.sourceforge.net/DTD/sodipodi-0.dtd"
   xmlns:inkscape="http://www.inkscape.org/namespaces/inkscape"
   width="3420.1101"
   height="3420.1077"
   viewBox="0 0 904.90411 904.90351"
   version="1.1"
   id="svg850"
   inkscape:version="0.92.4 (unknown)"
   sodipodi:docname="E-Summit-icon.svg">
  <defs
     id="defs844" />
  <sodipodi:namedview
     id="base"
     pagecolor="#ffffff"
     bordercolor="#666666"
     borderopacity="1.0"
     inkscape:pageopacity="0.0"
     inkscape:pageshadow="2"
     inkscape:zoom="0.049725425"
     inkscape:cx="-429.04805"
     inkscape:cy="1035.6119"
     inkscape:document-units="px"
     inkscape:current-layer="layer1"
     showgrid="false"
     showborder="false"
     units="px"
     inkscape:window-width="1920"
     inkscape:window-height="1018"
     inkscape:window-x="0"
     inkscape:window-y="30"
     inkscape:window-maximized="1"
     fit-margin-top="0"
     fit-margin-left="0"
     fit-margin-right="0"
     fit-margin-bottom="0" />
  <metadata
     id="metadata847">
    <rdf:RDF>
      <cc:Work
         rdf:about="">
        <dc:format>image/svg+xml</dc:format>
        <dc:type
           rdf:resource="http://purl.org/dc/dcmitype/StillImage" />
        <dc:title></dc:title>
      </cc:Work>
    </rdf:RDF>
  </metadata>
  <g
     inkscape:label="Layer 1"
     inkscape:groupmode="layer"
     id="layer1"
     transform="translate(2298.7995,1283.9495)">
    <flowRoot
       xml:space="preserve"
       id="flowRoot953"
       style="font-style:normal;font-variant:normal;font-weight:normal;font-stretch:normal;font-size:40px;line-height:1.25;font-family:Rustico;-inkscape-font-specification:Rustico;letter-spacing:45.32000351px;word-spacing:0px;fill:#000000;fill-opacity:1;stroke:none"
       inkscape:export-xdpi="96"
       inkscape:export-ydpi="96"><flowRegion
         id="flowRegion955"><rect
           id="rect957"
           width="3137.228"
           height="603.31311"
           x="-8567.0459"
           y="-164.54828" /></flowRegion><flowPara
         id="flowPara959" /></flowRoot>    <path
       style="color:#000000;font-style:normal;font-variant:normal;font-weight:normal;font-stretch:normal;font-size:medium;line-height:normal;font-family:sans-serif;font-variant-ligatures:normal;font-variant-position:normal;font-variant-caps:normal;font-variant-numeric:normal;font-variant-alternates:normal;font-feature-settings:normal;text-indent:0;text-align:start;text-decoration:none;text-decoration-line:none;text-decoration-style:solid;text-decoration-color:#000000;letter-spacing:normal;word-spacing:normal;text-transform:none;writing-mode:lr-tb;direction:ltr;text-orientation:mixed;dominant-baseline:auto;baseline-shift:baseline;text-anchor:start;white-space:normal;shape-padding:0;clip-rule:nonzero;display:inline;overflow:visible;visibility:visible;opacity:0.57999998;isolation:auto;mix-blend-mode:normal;color-interpolation:sRGB;color-interpolation-filters:linearRGB;solid-color:#000000;solid-opacity:1;vector-effect:none;fill:#f2f2f2;fill-opacity:1;fill-rule:nonzero;stroke:none;stroke-width:13.22916698;stroke-linecap:round;stroke-linejoin:miter;stroke-miterlimit:4;stroke-dasharray:none;stroke-dashoffset:0;stroke-opacity:1;color-rendering:auto;image-rendering:auto;shape-rendering:auto;text-rendering:auto;enable-background:accumulate"
       d="m -1846.3466,-1283.9495 c -119.9902,0 -235.0865,47.6747 -319.9324,132.5209 -84.8458,84.8463 -132.5205,199.94124 -132.5205,319.93132 0,115.39181 44.1034,226.41253 123.2254,310.34739 a 19.519407,19.519407 0 0 0 7.1863,5.66158 19.519409,19.519409 0 0 0 0.3629,0.17536 19.519407,19.519407 0 0 0 0.7517,0.29733 19.519409,19.519409 0 0 0 25.359,-10.89623 l 155.0677,-274.32548 c 5.1941,-9.18857 8.8916,-9.72976 9.7328,-9.72976 0.8414,0 4.5374,0.54119 9.7313,9.72976 l 55.6324,98.41678 -103.6133,181.62061 c -14.4966,25.4108 -19.2727,56.94391 -16.3824,87.14088 a 19.519409,19.519409 0 0 0 7.5645,16.89936 19.519407,19.519407 0 0 0 6.8784,3.56499 c 54.2678,22.14686 112.3282,33.54866 170.9562,33.5487 25.2716,-4e-5 50.4961,-2.12407 75.4105,-6.33556 a 19.519407,19.519407 0 0 0 8.1242,-2.03867 19.519409,19.519409 0 0 0 11.1432,-13.9321 c 14.2402,-32.78059 13.026,-73.55274 -4.518,-104.58918 l -110.6732,-195.78907 117.945,-206.74324 c 7.4791,-13.10996 14.175,-15.69326 18.1131,-15.69326 3.9381,0 10.634,2.5833 18.1131,15.69326 l 196.1749,343.86862 a 19.519409,19.519409 0 0 0 33.384,2.8956 c 57.944,-78.0105 89.2344,-172.6118 89.2344,-269.78767 0,-119.99008 -47.6747,-235.08502 -132.5205,-319.93132 -84.8458,-84.8462 -199.9407,-132.5209 -319.9307,-132.5209 z m 0,39.0349 c 109.6523,0 214.7928,43.5517 292.3288,121.0881 77.5359,77.5363 121.0875,182.67684 121.0875,292.32922 0,78.71337 -22.4679,155.56487 -64.4503,221.65732 l -181.4026,-317.9775 c -11.9474,-20.9422 -30.604,-35.38454 -52.0186,-35.38454 -21.4145,0 -40.0712,14.44234 -52.0186,35.38454 l -106.4067,186.51828 -44.1736,-78.14608 c -9.6103,-17.00149 -25.2337,-29.55674 -43.713,-29.55674 -18.4792,0 -34.1041,12.55525 -43.7145,29.55674 l -142.9196,252.83494 c -61.8563,-74.11274 -96.0168,-167.79256 -96.0168,-264.88696 0,-109.65238 43.5516,-214.79292 121.0876,-292.32922 77.5359,-77.5364 182.678,-121.0881 292.3304,-121.0881 z m -43.0361,582.66264 99.2143,175.51837 c 8.5835,15.18485 10.3177,44.19715 4.5836,64.15601 -20.1113,2.98845 -40.4195,4.49665 -60.7618,4.49665 -50.2767,0 -100.0957,-9.1771 -147.0229,-27.03321 -0.5096,-20.6414 3.9249,-41.74389 11.9117,-55.74368 z"
       id="path920"
       inkscape:connector-curvature="0"
       inkscape:export-xdpi="96"
       inkscape:export-ydpi="96" />
  </g>
</svg>
