<?xml version="1.0" encoding="UTF-8" standalone="no"?>
<svg
   xmlns:dc="http://purl.org/dc/elements/1.1/"
   xmlns:cc="http://creativecommons.org/ns#"
   xmlns:rdf="http://www.w3.org/1999/02/22-rdf-syntax-ns#"
   xmlns:svg="http://www.w3.org/2000/svg"
   xmlns="http://www.w3.org/2000/svg"
   xmlns:sodipodi="http://sodipodi.sourceforge.net/DTD/sodipodi-0.dtd"
   xmlns:inkscape="http://www.inkscape.org/namespaces/inkscape"
   width="267.56345mm"
   height="106.10587mm"
   viewBox="0 0 267.56345 106.10588"
   version="1.1"
   id="svg850"
   sodipodi:docname="epoch-1-plain.svg"
   inkscape:version="0.92.4 (unknown)">
  <sodipodi:namedview
     pagecolor="#ffffff"
     bordercolor="#666666"
     borderopacity="1"
     objecttolerance="10"
     gridtolerance="10"
     guidetolerance="10"
     inkscape:pageopacity="0"
     inkscape:pageshadow="2"
     inkscape:window-width="1366"
     inkscape:window-height="710"
     id="namedview11"
     showgrid="false"
     inkscape:zoom="0.37905946"
     inkscape:cx="102.02953"
     inkscape:cy="107.45931"
     inkscape:window-x="0"
     inkscape:window-y="30"
     inkscape:window-maximized="1"
     inkscape:current-layer="svg850" />
  <defs
     id="defs844" />
  <metadata
     id="metadata847">
    <rdf:RDF>
      <cc:Work
         rdf:about="">
        <dc:format>image/svg+xml</dc:format>
        <dc:type
           rdf:resource="http://purl.org/dc/dcmitype/StillImage" />
        <dc:title />
      </cc:Work>
    </rdf:RDF>
  </metadata>
  <path
     style="color:#000000;font-style:normal;font-variant:normal;font-weight:normal;font-stretch:normal;font-size:medium;line-height:normal;font-family:sans-serif;font-variant-ligatures:normal;font-variant-position:normal;font-variant-caps:normal;font-variant-numeric:normal;font-variant-alternates:normal;font-feature-settings:normal;text-indent:0;text-align:start;text-decoration:none;text-decoration-line:none;text-decoration-style:solid;text-decoration-color:#000000;letter-spacing:normal;word-spacing:normal;text-transform:none;writing-mode:lr-tb;direction:ltr;text-orientation:mixed;dominant-baseline:auto;baseline-shift:baseline;text-anchor:start;white-space:normal;shape-padding:0;clip-rule:nonzero;display:inline;overflow:visible;visibility:visible;opacity:1;isolation:auto;mix-blend-mode:normal;color-interpolation:sRGB;color-interpolation-filters:linearRGB;solid-color:#000000;solid-opacity:1;vector-effect:none;fill:#bba559;fill-opacity:1;fill-rule:nonzero;stroke:none;stroke-width:26.45833206;stroke-linecap:round;stroke-linejoin:bevel;stroke-miterlimit:4;stroke-dasharray:none;stroke-dashoffset:0;stroke-opacity:1;color-rendering:auto;image-rendering:auto;shape-rendering:auto;text-rendering:auto;enable-background:accumulate"
     d="m 94.809502,33.869471 c 10.545078,0 19.183548,8.638304 19.183548,19.183378 0,10.545082 -8.63847,19.183551 -19.183548,19.183551 -3.998728,0 -7.722489,-1.243201 -10.805708,-3.360465 V 92.843877 H 75.626776 V 53.052849 c 0,0.145325 0.0022,0.290147 0.0052,0.434729 -0.003,-0.14456 -0.0052,-0.289427 -0.0052,-0.434729 0,-10.545074 8.637644,-19.183378 19.182726,-19.183378 z m 0,8.377184 c -6.017791,0 -10.806188,4.788396 -10.806188,10.806194 0,6.017798 4.788397,10.806202 10.806188,10.806202 6.017798,0 10.807008,-4.788404 10.807008,-10.806202 0,-6.017798 -4.78921,-10.806194 -10.807008,-10.806194 z M 75.634628,53.588853 c 0.0037,0.140202 0.0092,0.280044 0.0162,0.419503 -0.0067,-0.139466 -0.0123,-0.279293 -0.0162,-0.419503 z m 0.02078,0.501639 c 0.0067,0.130391 0.01537,0.260505 0.02505,0.390222 -0.0097,-0.129747 -0.018,-0.259801 -0.02505,-0.390222 z m 0.0291,0.449286 c 0.01095,0.140592 0.02363,0.280561 0.03765,0.420321 -0.01395,-0.1397 -0.0267,-0.279789 -0.03765,-0.420321 z m 0.04793,0.519631 c 0.01463,0.138845 0.0303,0.277449 0.04793,0.415423 -0.01763,-0.137982 -0.0333,-0.276571 -0.04793,-0.415423 z m 0.05483,0.46614 c 0.01643,0.125839 0.03413,0.25122 0.05303,0.376309 -0.0189,-0.125074 -0.0366,-0.250478 -0.05303,-0.376309 z m 0.0684,0.47742 c 0.02123,0.135604 0.04373,0.270773 0.06773,0.40544 -0.02408,-0.134674 -0.04658,-0.269829 -0.06773,-0.40544 z m 0.08198,0.482497 c 0.02273,0.124399 0.0465,0.248498 0.07163,0.372064 -0.02513,-0.123581 -0.0489,-0.247657 -0.07163,-0.372064 z m 0.08458,0.436529 c 0.02685,0.129769 0.05543,0.258938 0.08492,0.387762 -0.02955,-0.128824 -0.05805,-0.257993 -0.08492,-0.387762 z m 0.113546,0.510308 c 0.02985,0.126327 0.0606,0.252248 0.09294,0.377622 -0.03233,-0.125366 -0.06308,-0.251303 -0.09294,-0.377622 z m 0.113389,0.45501 c 0.0294,0.112091 0.05985,0.223784 0.0913,0.33508 -0.03143,-0.111304 -0.06188,-0.222982 -0.0913,-0.33508 z m 0.120258,0.437173 c 0.03578,0.124152 0.07268,0.247785 0.110929,0.370909 -0.03825,-0.123139 -0.07516,-0.246735 -0.110929,-0.370909 z m 0.144792,0.478245 c 0.0345,0.108926 0.0699,0.217499 0.106354,0.325593 -0.03638,-0.108079 -0.07185,-0.216682 -0.106354,-0.325593 z m 0.134982,0.410833 c 0.03998,0.116891 0.0815,0.233107 0.123694,0.348986 -0.04223,-0.115916 -0.0837,-0.232057 -0.123694,-0.348986 z m 0.168688,0.471697 c 0.04283,0.115084 0.08643,0.229867 0.131381,0.343916 -0.04493,-0.114071 -0.08858,-0.228802 -0.131381,-0.343916 z m 0.181123,0.467445 c 0.03623,0.09005 0.07305,0.179765 0.110598,0.269146 -0.0375,-0.08938 -0.0744,-0.179091 -0.110598,-0.269146 z m 0.158375,0.383187 c 0.04785,0.111888 0.09701,0.223132 0.146922,0.333933 -0.04988,-0.110786 -0.09909,-0.22206 -0.146922,-0.333933 z m 0.206159,0.463844 c 0.04253,0.09252 0.08564,0.184611 0.129574,0.276346 -0.04395,-0.09173 -0.08709,-0.183838 -0.129574,-0.276346 z m 0.206144,0.434234 c 0.03893,0.07933 0.07835,0.158352 0.118293,0.237075 -0.03998,-0.07874 -0.0794,-0.15773 -0.118293,-0.237075 z m 0.202071,0.400685 c 0.05085,0.09783 0.102311,0.195366 0.154782,0.292216 -0.0525,-0.09689 -0.103945,-0.194353 -0.154782,-0.292216 z m 0.237892,0.443226 c 0.03668,0.0663 0.0738,0.132319 0.111259,0.198141 -0.03743,-0.06585 -0.07455,-0.131839 -0.111259,-0.198141 z m 0.194534,0.344081 c 0.0552,0.0951 0.111416,0.189478 0.168193,0.283546 -0.05678,-0.09404 -0.113014,-0.188473 -0.168193,-0.283546 z m 0.264893,0.441921 c 0.03713,0.06015 0.07463,0.120071 0.112399,0.179818 -0.03773,-0.05978 -0.07528,-0.119636 -0.112399,-0.179818 z m 0.283869,0.446016 c 0.03075,0.04695 0.06173,0.09385 0.09294,0.14054 -0.0312,-0.04673 -0.06218,-0.09355 -0.09294,-0.14054 z m 0.206317,0.309228 c 0.05265,0.07703 0.105978,0.153477 0.15968,0.229717 -0.0537,-0.07622 -0.107081,-0.152705 -0.15968,-0.229717 z m 0.304157,0.431938 c 0.0321,0.04433 0.06458,0.08846 0.09703,0.132529 -0.03248,-0.0441 -0.06495,-0.08816 -0.09703,-0.132529 z m 0.292051,0.392675 c 0.0366,0.048 0.0732,0.09587 0.110276,0.143487 -0.03705,-0.04763 -0.07365,-0.09552 -0.110276,-0.143487 z m 0.254423,0.32674 c 0.02475,0.03105 0.04988,0.06173 0.07478,0.0926 -0.0249,-0.03083 -0.05003,-0.06158 -0.07478,-0.0926 z m 0.332786,0.405598 c 0.0258,0.0306 0.0516,0.0612 0.07755,0.09162 -0.02595,-0.03045 -0.05175,-0.06105 -0.07755,-0.09162 z m 0.598991,0.678343 c 0.01597,0.01725 0.03203,0.0345 0.04808,0.05168 -0.01605,-0.01725 -0.0321,-0.03443 -0.04808,-0.05168 z m 0.367969,0.38678 c 0.01972,0.02018 0.03938,0.04043 0.05925,0.06053 -0.0198,-0.0201 -0.03945,-0.04035 -0.05925,-0.06053 z m 0.238875,0.240517 c 0.01673,0.0165 0.0336,0.03278 0.0504,0.04928 -0.0168,-0.01643 -0.03368,-0.03278 -0.0504,-0.04928 z m 0.386944,0.371562 c 0.0213,0.01988 0.0426,0.03975 0.06398,0.05955 -0.02138,-0.0198 -0.04268,-0.03968 -0.06398,-0.05955 z m 0.666726,0.595391 c 0.0099,0.0084 0.01988,0.01665 0.02978,0.02505 -0.0099,-0.0084 -0.01995,-0.01665 -0.02978,-0.02505 z m 0.41378,0.342611 c 0.01793,0.0144 0.03585,0.02895 0.05385,0.04335 -0.018,-0.0144 -0.03593,-0.02888 -0.05385,-0.04335 z m 0.696832,0.535831 c 0.01545,0.01133 0.03098,0.02258 0.04643,0.0339 -0.01545,-0.01133 -0.03105,-0.02258 -0.04643,-0.0339 z"
     id="path1210"
     inkscape:connector-curvature="0" />
  <path
     id="circle1228"
     d="m 179.17822,33.869388 c -10.54508,0 -19.18335,8.638305 -19.18335,19.183386 0,10.545082 8.63827,19.183544 19.18335,19.183544 4.83078,0 9.26061,-1.813849 12.64394,-4.792402 l -5.90878,-5.908587 c -1.84056,1.457655 -4.17655,2.32364 -6.73516,2.32364 -6.01778,0 -10.80618,-4.788397 -10.80618,-10.806195 0,-6.017798 4.7884,-10.806202 10.80618,-10.806202 2.47189,0 4.73601,0.80836 6.54637,2.177543 l 5.91854,-5.918562 c -3.35982,-2.885835 -7.71896,-4.636165 -12.46491,-4.636165 z"
     style="color:#000000;font-style:normal;font-variant:normal;font-weight:normal;font-stretch:normal;font-size:medium;line-height:normal;font-family:sans-serif;font-variant-ligatures:normal;font-variant-position:normal;font-variant-caps:normal;font-variant-numeric:normal;font-variant-alternates:normal;font-feature-settings:normal;text-indent:0;text-align:start;text-decoration:none;text-decoration-line:none;text-decoration-style:solid;text-decoration-color:#000000;letter-spacing:normal;word-spacing:normal;text-transform:none;writing-mode:lr-tb;direction:ltr;text-orientation:mixed;dominant-baseline:auto;baseline-shift:baseline;text-anchor:start;white-space:normal;shape-padding:0;clip-rule:nonzero;display:inline;overflow:visible;visibility:visible;opacity:1;isolation:auto;mix-blend-mode:normal;color-interpolation:sRGB;color-interpolation-filters:linearRGB;solid-color:#000000;solid-opacity:1;vector-effect:none;fill:#bba559;fill-opacity:1;fill-rule:nonzero;stroke:none;stroke-width:26.45833206;stroke-linecap:round;stroke-linejoin:bevel;stroke-miterlimit:4;stroke-dasharray:none;stroke-dashoffset:0;stroke-opacity:1;color-rendering:auto;image-rendering:auto;shape-rendering:auto;text-rendering:auto;enable-background:accumulate"
     inkscape:connector-curvature="0" />
  <path
     id="path1341"
     d="m 52.625853,33.869426 c -9.107639,0 -16.791891,6.444238 -18.717906,14.994873 -0.303977,1.349524 -0.465645,2.751078 -0.465645,4.188513 0,1.437397 0.161683,2.839018 0.465645,4.188513 1.925955,8.550717 9.610222,14.995038 18.717906,14.995038 2.639137,0 5.158323,-0.54199 7.45293,-1.518663 l -4.235465,-7.336279 c -1.014309,0.310458 -2.094342,0.477585 -3.217465,0.477585 -4.528266,0 -8.360128,-2.711447 -9.979781,-6.617681 h 28.697522 c 0.303947,-1.349495 0.465645,-2.751116 0.465645,-4.188513 0,-1.437428 -0.161675,-2.838989 -0.465645,-4.188513 C 69.417579,40.313672 61.733477,33.869426 52.625853,33.869426 Z m 0,8.377191 c 4.528266,0 8.359963,2.711447 9.979624,6.617682 H 42.646072 c 1.619653,-3.906235 5.451515,-6.617682 9.979781,-6.617682 z"
     style="color:#000000;font-style:normal;font-variant:normal;font-weight:normal;font-stretch:normal;font-size:medium;line-height:normal;font-family:sans-serif;font-variant-ligatures:normal;font-variant-position:normal;font-variant-caps:normal;font-variant-numeric:normal;font-variant-alternates:normal;font-feature-settings:normal;text-indent:0;text-align:start;text-decoration:none;text-decoration-line:none;text-decoration-style:solid;text-decoration-color:#000000;letter-spacing:normal;word-spacing:normal;text-transform:none;writing-mode:lr-tb;direction:ltr;text-orientation:mixed;dominant-baseline:auto;baseline-shift:baseline;text-anchor:start;white-space:normal;shape-padding:0;clip-rule:nonzero;display:inline;overflow:visible;visibility:visible;opacity:1;isolation:auto;mix-blend-mode:normal;color-interpolation:sRGB;color-interpolation-filters:linearRGB;solid-color:#000000;solid-opacity:1;vector-effect:none;fill:#bba559;fill-opacity:1;fill-rule:nonzero;stroke:none;stroke-width:26.45833206;stroke-linecap:round;stroke-linejoin:bevel;stroke-miterlimit:4;stroke-dasharray:none;stroke-dashoffset:0;stroke-opacity:1;color-rendering:auto;image-rendering:auto;shape-rendering:auto;text-rendering:auto;enable-background:accumulate"
     inkscape:connector-curvature="0" />
  <path
     id="path1347"
     d="M 195.6397,13.261992 V 72.2364 h 8.37705 V 53.053022 h 0.1142 c 0,-6.017798 4.7892,-10.806202 10.80701,-10.806202 6.0178,0 10.80618,4.788404 10.80618,10.806202 v 0 19.183378 h 8.37702 V 53.053022 c 0,-10.545082 -8.63768,-19.183551 -19.18273,-19.183551 -4.04874,0 -7.81562,1.274462 -10.92121,3.440305 V 13.261992 Z"
     style="opacity:1;fill:#bba559;fill-opacity:1;fill-rule:nonzero;stroke:none;stroke-width:26.45833015;stroke-linecap:round;stroke-linejoin:miter;stroke-miterlimit:4;stroke-dasharray:none;stroke-opacity:1"
     inkscape:connector-curvature="0" />
  <path
     id="circle1354"
     d="m 136.99419,33.869598 c -10.54508,0 -19.18347,8.638387 -19.18347,19.183461 0,10.545082 8.63839,19.183469 19.18347,19.183469 10.54508,0 19.18347,-8.638387 19.18347,-19.183469 0,-10.545074 -8.63839,-19.183461 -19.18347,-19.183461 z m 0,8.377229 c 6.0178,0 10.80624,4.788434 10.80624,10.806232 0,6.017805 -4.78844,10.80624 -10.80624,10.80624 -6.0178,0 -10.80685,-4.788435 -10.80685,-10.80624 0,-6.017798 4.78905,-10.806232 10.80685,-10.806232 z"
     style="color:#000000;font-style:normal;font-variant:normal;font-weight:normal;font-stretch:normal;font-size:medium;line-height:normal;font-family:sans-serif;font-variant-ligatures:normal;font-variant-position:normal;font-variant-caps:normal;font-variant-numeric:normal;font-variant-alternates:normal;font-feature-settings:normal;text-indent:0;text-align:start;text-decoration:none;text-decoration-line:none;text-decoration-style:solid;text-decoration-color:#000000;letter-spacing:normal;word-spacing:normal;text-transform:none;writing-mode:lr-tb;direction:ltr;text-orientation:mixed;dominant-baseline:auto;baseline-shift:baseline;text-anchor:start;white-space:normal;shape-padding:0;clip-rule:nonzero;display:inline;overflow:visible;visibility:visible;opacity:1;isolation:auto;mix-blend-mode:normal;color-interpolation:sRGB;color-interpolation-filters:linearRGB;solid-color:#000000;solid-opacity:1;vector-effect:none;fill:#bba559;fill-opacity:1;fill-rule:nonzero;stroke:none;stroke-width:26.45833206;stroke-linecap:round;stroke-linejoin:bevel;stroke-miterlimit:4;stroke-dasharray:none;stroke-dashoffset:0;stroke-opacity:1;color-rendering:auto;image-rendering:auto;shape-rendering:auto;text-rendering:auto;enable-background:accumulate"
     inkscape:connector-curvature="0" />
  <path
     id="path1364"
     d="m 136.18144,45.080063 a 1.2658756,1.2658756 0 0 0 -1.24113,1.28899 l 0.0352,7.931498 a 1.2658756,1.2658756 0 0 0 0.35648,1.12118 1.2658756,1.2658756 0 0 0 1.13859,0.365478 l 7.93632,-0.03533 a 1.2658756,1.2658756 0 1 0 -0.0114,-2.531299 l -6.89332,0.03053 -0.0304,-6.893292 a 1.2658756,1.2658756 0 0 0 -1.29055,-1.277808 z"
     style="color:#000000;font-style:normal;font-variant:normal;font-weight:normal;font-stretch:normal;font-size:medium;line-height:normal;font-family:sans-serif;font-variant-ligatures:normal;font-variant-position:normal;font-variant-caps:normal;font-variant-numeric:normal;font-variant-alternates:normal;font-feature-settings:normal;text-indent:0;text-align:start;text-decoration:none;text-decoration-line:none;text-decoration-style:solid;text-decoration-color:#000000;letter-spacing:normal;word-spacing:normal;text-transform:none;writing-mode:lr-tb;direction:ltr;text-orientation:mixed;dominant-baseline:auto;baseline-shift:baseline;text-anchor:start;white-space:normal;shape-padding:0;clip-rule:nonzero;display:inline;overflow:visible;visibility:visible;opacity:1;isolation:auto;mix-blend-mode:normal;color-interpolation:sRGB;color-interpolation-filters:linearRGB;solid-color:#000000;solid-opacity:1;vector-effect:none;fill:#bba559;fill-opacity:1;fill-rule:nonzero;stroke:none;stroke-width:13.22916508;stroke-linecap:round;stroke-linejoin:miter;stroke-miterlimit:4;stroke-dasharray:none;stroke-dashoffset:0;stroke-opacity:1;color-rendering:auto;image-rendering:auto;shape-rendering:auto;text-rendering:auto;enable-background:accumulate"
     inkscape:connector-curvature="0" />
</svg>
