<?xml version="1.0" encoding="UTF-8" standalone="no"?>
<svg
   xmlns:dc="http://purl.org/dc/elements/1.1/"
   xmlns:cc="http://creativecommons.org/ns#"
   xmlns:rdf="http://www.w3.org/1999/02/22-rdf-syntax-ns#"
   xmlns:svg="http://www.w3.org/2000/svg"
   xmlns="http://www.w3.org/2000/svg"
   xmlns:sodipodi="http://sodipodi.sourceforge.net/DTD/sodipodi-0.dtd"
   xmlns:inkscape="http://www.inkscape.org/namespaces/inkscape"
   width="267.56345mm"
   height="106.10587mm"
   viewBox="0 0 267.56345 106.10588"
   version="1.1"
   id="svg850"
   sodipodi:docname="epoch-1-plain.svg"
   inkscape:version="0.92.4 (unknown)">
  <sodipodi:namedview
     pagecolor="#ffffff"
     bordercolor="#666666"
     borderopacity="1"
     objecttolerance="10"
     gridtolerance="10"
     guidetolerance="10"
     inkscape:pageopacity="0"
     inkscape:pageshadow="2"
     inkscape:window-width="1366"
     inkscape:window-height="710"
     id="namedview11"
     showgrid="false"
     inkscape:zoom="1.8866089"
     inkscape:cx="51.832693"
     inkscape:cy="200.51504"
     inkscape:window-x="0"
     inkscape:window-y="30"
     inkscape:window-maximized="1"
     inkscape:current-layer="svg850" />
  <defs
     id="defs844" />
  <metadata
     id="metadata847">
    <rdf:RDF>
      <cc:Work
         rdf:about="">
        <dc:format>image/svg+xml</dc:format>
        <dc:type
           rdf:resource="http://purl.org/dc/dcmitype/StillImage" />
        <dc:title />
      </cc:Work>
    </rdf:RDF>
  </metadata>
  <path
     style="color:#000000;font-style:normal;font-variant:normal;font-weight:normal;font-stretch:normal;font-size:medium;line-height:normal;font-family:sans-serif;font-variant-ligatures:normal;font-variant-position:normal;font-variant-caps:normal;font-variant-numeric:normal;font-variant-alternates:normal;font-feature-settings:normal;text-indent:0;text-align:start;text-decoration:none;text-decoration-line:none;text-decoration-style:solid;text-decoration-color:#000000;letter-spacing:normal;word-spacing:normal;text-transform:none;writing-mode:lr-tb;direction:ltr;text-orientation:mixed;dominant-baseline:auto;baseline-shift:baseline;text-anchor:start;white-space:normal;shape-padding:0;clip-rule:nonzero;display:inline;overflow:visible;visibility:visible;opacity:1;isolation:auto;mix-blend-mode:normal;color-interpolation:sRGB;color-interpolation-filters:linearRGB;solid-color:#000000;solid-opacity:1;vector-effect:none;fill:#000080;fill-opacity:1;fill-rule:nonzero;stroke:none;stroke-width:26.45833206;stroke-linecap:round;stroke-linejoin:bevel;stroke-miterlimit:4;stroke-dasharray:none;stroke-dashoffset:0;stroke-opacity:1;color-rendering:auto;image-rendering:auto;shape-rendering:auto;text-rendering:auto;enable-background:accumulate"
     d="m 81.82038,27.475781 c 14.05967,0 25.57727,11.51738 25.57727,25.57704 0,14.05967 -11.5176,25.57727 -25.57727,25.57727 -5.33147,0 -10.29633,-1.65755 -14.40716,-4.48048 V 106.10587 H 56.24421 V 53.052821 c 0,0.19376 0.003,0.38685 0.007,0.57962 -0.004,-0.19274 -0.007,-0.38589 -0.007,-0.57962 0,-14.05966 11.5165,-25.57704 25.57617,-25.57704 z m 0,11.16923 c -8.02347,0 -14.4078,6.38433 -14.4078,14.40781 0,8.02348 6.38433,14.40782 14.4078,14.40782 8.02348,0 14.4089,-6.38434 14.4089,-14.40782 0,-8.02348 -6.38542,-14.40781 -14.4089,-14.40781 z m -25.5657,15.12246 c 0.005,0.18693 0.0123,0.37338 0.0216,0.55932 -0.009,-0.18595 -0.0164,-0.37238 -0.0216,-0.55932 z m 0.0277,0.66883 c 0.009,0.17385 0.0205,0.34733 0.0334,0.52028 -0.0129,-0.17299 -0.024,-0.34639 -0.0334,-0.52028 z m 0.0388,0.59903 c 0.0146,0.18745 0.0315,0.37407 0.0502,0.56041 -0.0186,-0.18626 -0.0356,-0.37304 -0.0502,-0.56041 z m 0.0639,0.69282 c 0.0195,0.18512 0.0404,0.36992 0.0639,0.55388 -0.0235,-0.18397 -0.0444,-0.36875 -0.0639,-0.55388 z m 0.0731,0.6215 c 0.0219,0.16778 0.0455,0.33495 0.0707,0.50173 -0.0252,-0.16676 -0.0488,-0.33396 -0.0707,-0.50173 z m 0.0912,0.63654 c 0.0283,0.1808 0.0583,0.36102 0.0903,0.54057 -0.0321,-0.17956 -0.0621,-0.35976 -0.0903,-0.54057 z m 0.1093,0.64331 c 0.0303,0.16586 0.062,0.33132 0.0955,0.49607 -0.0335,-0.16477 -0.0652,-0.3302 -0.0955,-0.49607 z m 0.11277,0.58202 c 0.0358,0.17302 0.0739,0.34524 0.11322,0.517 -0.0394,-0.17176 -0.0774,-0.34398 -0.11322,-0.517 z m 0.15139,0.68039 c 0.0398,0.16843 0.0808,0.33632 0.12391,0.50348 -0.0431,-0.16715 -0.0841,-0.33506 -0.12391,-0.50348 z m 0.15118,0.60666 c 0.0392,0.14945 0.0798,0.29837 0.12173,0.44676 -0.0419,-0.1484 -0.0825,-0.2973 -0.12173,-0.44676 z m 0.16034,0.58288 c 0.0477,0.16553 0.0969,0.33037 0.1479,0.49453 -0.051,-0.16418 -0.10021,-0.32897 -0.1479,-0.49453 z m 0.19305,0.63764 c 0.046,0.14523 0.0932,0.28999 0.1418,0.43411 -0.0485,-0.1441 -0.0958,-0.2889 -0.1418,-0.43411 z m 0.17997,0.54776 c 0.0533,0.15585 0.10867,0.3108 0.16492,0.4653 -0.0563,-0.15455 -0.11159,-0.3094 -0.16492,-0.4653 z m 0.22491,0.62891 c 0.0571,0.15344 0.11524,0.30648 0.17517,0.45854 -0.0599,-0.15209 -0.11811,-0.30506 -0.17517,-0.45854 z m 0.24149,0.62324 c 0.0483,0.12006 0.0974,0.23968 0.14746,0.35885 -0.05,-0.11917 -0.0992,-0.23878 -0.14746,-0.35885 z m 0.21116,0.5109 c 0.0638,0.14918 0.12935,0.2975 0.19589,0.44523 -0.0665,-0.14771 -0.13212,-0.29607 -0.19589,-0.44523 z m 0.27487,0.61844 c 0.0567,0.12335 0.11419,0.24614 0.17276,0.36845 -0.0586,-0.1223 -0.11611,-0.24511 -0.17276,-0.36845 z m 0.27485,0.57896 c 0.0519,0.10577 0.10446,0.21113 0.15772,0.31609 -0.0533,-0.10498 -0.10586,-0.2103 -0.15772,-0.31609 z m 0.26942,0.53423 c 0.0678,0.13044 0.13641,0.26048 0.20637,0.38961 -0.07,-0.12918 -0.13859,-0.25913 -0.20637,-0.38961 z m 0.31718,0.59095 c 0.0489,0.0884 0.0984,0.17642 0.14834,0.26418 -0.0499,-0.0878 -0.0994,-0.17578 -0.14834,-0.26418 z m 0.25937,0.45876 c 0.0736,0.1268 0.14855,0.25263 0.22425,0.37805 -0.0757,-0.12538 -0.15068,-0.25129 -0.22425,-0.37805 z m 0.35318,0.58921 c 0.0495,0.0802 0.0995,0.16009 0.14986,0.23975 -0.0503,-0.0797 -0.10037,-0.15951 -0.14986,-0.23975 z m 0.37848,0.59467 c 0.041,0.0626 0.0823,0.12513 0.12391,0.18738 -0.0416,-0.0623 -0.0829,-0.12473 -0.12391,-0.18738 z m 0.27508,0.41229 c 0.0702,0.10271 0.1413,0.20463 0.2129,0.30628 -0.0716,-0.10162 -0.14277,-0.2036 -0.2129,-0.30628 z m 0.40553,0.5759 c 0.0428,0.0591 0.0861,0.11795 0.12937,0.1767 -0.0433,-0.0588 -0.0866,-0.11754 -0.12937,-0.1767 z m 0.38939,0.52355 c 0.0488,0.064 0.0976,0.12783 0.14703,0.19131 -0.0494,-0.0635 -0.0982,-0.12735 -0.14703,-0.19131 z m 0.33922,0.43564 c 0.033,0.0414 0.0665,0.0823 0.0997,0.12346 -0.0332,-0.0411 -0.0667,-0.0821 -0.0997,-0.12346 z m 0.4437,0.54078 c 0.0344,0.0408 0.0688,0.0816 0.1034,0.12216 -0.0346,-0.0406 -0.069,-0.0814 -0.1034,-0.12216 z m 0.79863,0.90443 c 0.0213,0.023 0.0427,0.046 0.0641,0.0689 -0.0214,-0.023 -0.0428,-0.0459 -0.0641,-0.0689 z m 0.49061,0.51569 c 0.0263,0.0269 0.0525,0.0539 0.079,0.0807 -0.0264,-0.0268 -0.0526,-0.0538 -0.079,-0.0807 z m 0.31849,0.32068 c 0.0223,0.022 0.0448,0.0437 0.0672,0.0657 -0.0224,-0.0219 -0.0449,-0.0437 -0.0672,-0.0657 z m 0.51591,0.4954 c 0.0284,0.0265 0.0568,0.053 0.0853,0.0794 -0.0285,-0.0264 -0.0569,-0.0529 -0.0853,-0.0794 z m 0.88894,0.79383 c 0.0132,0.0112 0.0265,0.0222 0.0397,0.0334 -0.0132,-0.0112 -0.0266,-0.0222 -0.0397,-0.0334 z m 0.55169,0.4568 c 0.0239,0.0192 0.0478,0.0386 0.0718,0.0578 -0.024,-0.0192 -0.0479,-0.0385 -0.0718,-0.0578 z m 0.92908,0.71442 c 0.0206,0.0151 0.0413,0.0301 0.0619,0.0452 -0.0206,-0.0151 -0.0414,-0.0301 -0.0619,-0.0452 z"
     id="path1210" />
  <path
     id="circle1228"
     d="m 194.3085,27.475671 c -14.05967,0 -25.57701,11.51738 -25.57701,25.57705 0,14.05967 11.51734,25.57726 25.57701,25.57726 6.44083,0 12.34709,-2.41839 16.85805,-6.38967 l -7.87812,-7.87787 c -2.454,1.94348 -5.56856,3.09809 -8.97993,3.09809 -8.02346,0 -14.40779,-6.38433 -14.40779,-14.40781 0,-8.02348 6.38433,-14.40782 14.40779,-14.40782 3.29575,0 6.31448,1.07778 8.72821,2.9033 l 7.89115,-7.89117 c -4.47962,-3.84766 -10.29163,-6.18136 -16.61936,-6.18136 z"
     style="color:#000000;font-style:normal;font-variant:normal;font-weight:normal;font-stretch:normal;font-size:medium;line-height:normal;font-family:sans-serif;font-variant-ligatures:normal;font-variant-position:normal;font-variant-caps:normal;font-variant-numeric:normal;font-variant-alternates:normal;font-feature-settings:normal;text-indent:0;text-align:start;text-decoration:none;text-decoration-line:none;text-decoration-style:solid;text-decoration-color:#000000;letter-spacing:normal;word-spacing:normal;text-transform:none;writing-mode:lr-tb;direction:ltr;text-orientation:mixed;dominant-baseline:auto;baseline-shift:baseline;text-anchor:start;white-space:normal;shape-padding:0;clip-rule:nonzero;display:inline;overflow:visible;visibility:visible;opacity:1;isolation:auto;mix-blend-mode:normal;color-interpolation:sRGB;color-interpolation-filters:linearRGB;solid-color:#000000;solid-opacity:1;vector-effect:none;fill:#000080;fill-opacity:1;fill-rule:nonzero;stroke:none;stroke-width:26.45833206;stroke-linecap:round;stroke-linejoin:bevel;stroke-miterlimit:4;stroke-dasharray:none;stroke-dashoffset:0;stroke-opacity:1;color-rendering:auto;image-rendering:auto;shape-rendering:auto;text-rendering:auto;enable-background:accumulate" />
  <path
     id="path1341"
     d="m 25.57727,27.475721 c -12.14314,0 -22.38849,8.59205 -24.95643,19.99254 C 0.21555,49.267571 0,51.136251 0,53.052771 c 0,1.91647 0.21557,3.78524 0.62084,5.58451 2.56786,11.4006 12.81323,19.99276 24.95643,19.99276 3.51874,0 6.87755,-0.72263 9.93693,-2.02482 l -5.64711,-9.7814 c -1.35237,0.41393 -2.79237,0.63676 -4.28982,0.63676 -6.0375,0 -11.14649,-3.61515 -13.30596,-8.8233 h 38.26217 c 0.40525,-1.79927 0.62084,-3.66804 0.62084,-5.58451 0,-1.91651 -0.21556,-3.7852 -0.62084,-5.58451 -2.56794,-11.40048 -12.81309,-19.99254 -24.95621,-19.99254 z m 0,11.16924 c 6.0375,0 11.14627,3.61515 13.30575,8.8233 H 12.27131 c 2.15947,-5.20815 7.26846,-8.8233 13.30596,-8.8233 z"
     style="color:#000000;font-style:normal;font-variant:normal;font-weight:normal;font-stretch:normal;font-size:medium;line-height:normal;font-family:sans-serif;font-variant-ligatures:normal;font-variant-position:normal;font-variant-caps:normal;font-variant-numeric:normal;font-variant-alternates:normal;font-feature-settings:normal;text-indent:0;text-align:start;text-decoration:none;text-decoration-line:none;text-decoration-style:solid;text-decoration-color:#000000;letter-spacing:normal;word-spacing:normal;text-transform:none;writing-mode:lr-tb;direction:ltr;text-orientation:mixed;dominant-baseline:auto;baseline-shift:baseline;text-anchor:start;white-space:normal;shape-padding:0;clip-rule:nonzero;display:inline;overflow:visible;visibility:visible;opacity:1;isolation:auto;mix-blend-mode:normal;color-interpolation:sRGB;color-interpolation-filters:linearRGB;solid-color:#000000;solid-opacity:1;vector-effect:none;fill:#000080;fill-opacity:1;fill-rule:nonzero;stroke:none;stroke-width:26.45833206;stroke-linecap:round;stroke-linejoin:bevel;stroke-miterlimit:4;stroke-dasharray:none;stroke-dashoffset:0;stroke-opacity:1;color-rendering:auto;image-rendering:auto;shape-rendering:auto;text-rendering:auto;enable-background:accumulate" />
  <path
     id="path1347"
     d="m 216.25645,0 v 78.630091 h 11.16905 v -25.57704 h 0.15226 c 0,-8.02348 6.3854,-14.40782 14.4089,-14.40782 8.02349,0 14.40779,6.38434 14.40779,14.40782 v 0 25.57704 h 11.16901 v -25.57704 c 0,-14.05967 -11.51655,-25.57727 -25.57617,-25.57727 -5.39815,0 -10.42051,1.69923 -14.56116,4.58693 V 0 Z"
     style="opacity:1;fill:#000080;fill-opacity:1;fill-rule:nonzero;stroke:none;stroke-width:26.45833015;stroke-linecap:round;stroke-linejoin:miter;stroke-miterlimit:4;stroke-dasharray:none;stroke-opacity:1" />
  <path
     id="circle1354"
     d="m 138.06488,27.475951 c -14.05967,0 -25.57716,11.51749 -25.57716,25.57715 0,14.05967 11.51749,25.57716 25.57716,25.57716 14.05967,0 25.57716,-11.51749 25.57716,-25.57716 0,-14.05966 -11.51749,-25.57715 -25.57716,-25.57715 z m 0,11.16929 c 8.02348,0 14.40787,6.38438 14.40787,14.40786 0,8.02349 -6.38439,14.40787 -14.40787,14.40787 -8.02348,0 -14.40869,-6.38438 -14.40869,-14.40787 0,-8.02348 6.38521,-14.40786 14.40869,-14.40786 z"
     style="color:#000000;font-style:normal;font-variant:normal;font-weight:normal;font-stretch:normal;font-size:medium;line-height:normal;font-family:sans-serif;font-variant-ligatures:normal;font-variant-position:normal;font-variant-caps:normal;font-variant-numeric:normal;font-variant-alternates:normal;font-feature-settings:normal;text-indent:0;text-align:start;text-decoration:none;text-decoration-line:none;text-decoration-style:solid;text-decoration-color:#000000;letter-spacing:normal;word-spacing:normal;text-transform:none;writing-mode:lr-tb;direction:ltr;text-orientation:mixed;dominant-baseline:auto;baseline-shift:baseline;text-anchor:start;white-space:normal;shape-padding:0;clip-rule:nonzero;display:inline;overflow:visible;visibility:visible;opacity:1;isolation:auto;mix-blend-mode:normal;color-interpolation:sRGB;color-interpolation-filters:linearRGB;solid-color:#000000;solid-opacity:1;vector-effect:none;fill:#000080;fill-opacity:1;fill-rule:nonzero;stroke:none;stroke-width:26.45833397;stroke-linecap:round;stroke-linejoin:bevel;stroke-miterlimit:4;stroke-dasharray:none;stroke-dashoffset:0;stroke-opacity:1;color-rendering:auto;image-rendering:auto;shape-rendering:auto;text-rendering:auto;enable-background:accumulate" />
  <path
     id="path1364"
     d="m 136.98125,42.422771 a 1.6877815,1.6877815 0 0 0 -1.65479,1.7186 l 0.0469,10.575 a 1.6877815,1.6877815 0 0 0 0.47529,1.49486 1.6877815,1.6877815 0 0 0 1.51808,0.48729 l 10.58142,-0.0471 a 1.6877815,1.6877815 0 1 0 -0.0152,-3.37496 l -9.1908,0.0407 -0.0405,-9.19077 a 1.6877815,1.6877815 0 0 0 -1.72067,-1.70369 z"
     style="color:#000000;font-style:normal;font-variant:normal;font-weight:normal;font-stretch:normal;font-size:medium;line-height:normal;font-family:sans-serif;font-variant-ligatures:normal;font-variant-position:normal;font-variant-caps:normal;font-variant-numeric:normal;font-variant-alternates:normal;font-feature-settings:normal;text-indent:0;text-align:start;text-decoration:none;text-decoration-line:none;text-decoration-style:solid;text-decoration-color:#000000;letter-spacing:normal;word-spacing:normal;text-transform:none;writing-mode:lr-tb;direction:ltr;text-orientation:mixed;dominant-baseline:auto;baseline-shift:baseline;text-anchor:start;white-space:normal;shape-padding:0;clip-rule:nonzero;display:inline;overflow:visible;visibility:visible;opacity:1;isolation:auto;mix-blend-mode:normal;color-interpolation:sRGB;color-interpolation-filters:linearRGB;solid-color:#000000;solid-opacity:1;vector-effect:none;fill:#000080;fill-opacity:1;fill-rule:nonzero;stroke:none;stroke-width:13.22916508;stroke-linecap:round;stroke-linejoin:miter;stroke-miterlimit:4;stroke-dasharray:none;stroke-dashoffset:0;stroke-opacity:1;color-rendering:auto;image-rendering:auto;shape-rendering:auto;text-rendering:auto;enable-background:accumulate" />
</svg>
