<?xml version="1.0" encoding="utf-8"?>
<svg>
<g opacity=".5"><path d="M640.5 40.4l-6.2-2.9c-.6-2.6-2-5.3-4-7.5-2.8-2.9-5.9-3.7-7.6-1.9-2.4 2.6-.8 9.1 3.1 13.3 2.7 2.9 5.8 3.7 7.5 2 .7-.7 1.1-1.8 1.2-3l6.2 3.1c.7.3 1.2-.1 1.1-.9.1-.9-.6-1.8-1.3-2.2z" opacity=".4" fill="#f8f8f5"></path><ellipse transform="rotate(-29.53 627.91 35.558)" cx="627.9" cy="35.6" rx="3.5" ry="6.3" fill="#549cea"></ellipse></g><ellipse transform="rotate(-28.261 634.483 128.355)" cx="634.4" cy="128.4" rx="12.9" ry="5.7" opacity=".6" fill="#f8f8f5"></ellipse><path d="M633.2 130.4l4.3-1.8-.2-2.3m-2.5-.1l-4.3 1.8.2 2.2" opacity=".5" fill="none" stroke="#0071bf" stroke-width=".914" stroke-miterlimit="10"></path><ellipse transform="rotate(-36.822 224.704 240.962)" cx="224.7" cy="241" rx="14.8" ry="23.9" opacity=".6" fill="#d3edff"></ellipse><path d="M221.3 227.1l-7.9 12.3c-.2.3 0 1 .4 1.4l2.4 2.4c.4.5 1 .5 1.2.2s0-1-.4-1.4l-1.6-1.6 2.7-4.4 14.1 14.2-.1.4c-.2.3 0 1 .4 1.4.4.5 1 .5 1.2.2l2-3.1c.2-.3 0-1-.4-1.4-.4-.5-1-.5-1.2-.2l-.6.4-14.1-14.2 3.2-4.4 1.6 1.6c.4.5 1 .5 1.2.2.2-.3 0-1-.4-1.4l-2.4-2.4c-.5-.5-1.1-.5-1.3-.2z" fill="#1bbfb3"></path><path d="M213.1 220.4s9.3-4.1 21.6 9.2c0 0 6.6 6.9 8.4 17.1 0 0-1.2-14.4-12.9-23-11.9-8.7-17.1-3.3-17.1-3.3z" fill="#f8f8f5"></path><g fill="#f8f8f5"><path d="M296.6 39.2c-8 0-9.9 6.5-4.3 14.5s16.6 14.5 24.6 14.5 9.9-6.5 4.3-14.5-16.6-14.5-24.6-14.5zm16.5 23.7c-5 0-12-4.1-15.5-9.1s-2.3-9.1 2.7-9.1 12 4.1 15.5 9.1 2.3 9.1-2.7 9.1z" opacity=".4"></path><path d="M297.7 59.7l3.2-2s7.2 6.4 14.1 4.8l5 5.3c-.1 0-8.9 3-22.3-8.1z" opacity=".8"></path><path d="M296.2 39.5l3.7 5.2s-10.9.9.8 12.8l-3.1 2s-8.9-6.4-8.8-15.8c0 0 1.3-5.1 7.4-4.2z" opacity=".3"></path></g><path fill="#549cea" d="M191.2 114.4l-30.3 32.1 19.7 28.3 30.4.8-14.9-21.2 20.9-22.1z"></path><path d="M160.9 146.5l19.7 28.3 30.5.7-1.9 2.6h-27c-1.7 0-3.2-.8-4.2-2.2l-18.7-27.4c-1.2-1.8-1-4.2.5-5.7l29.6-30.5 1.9 2-30.4 32.2z" fill="#014272"></path><path d="M160.9 146.5l35.8 8.1 14 20.6c.1.2 0 .4-.2.4l-26.8-.2c-3.4.1-3.9-1-5-2.7l-17.8-26.2z" fill="#0c76c3"></path><path d="M243.8 36.7L226.3 51s-1.7-6-9.5-3.1c-7.8 2.8 1.9 12.4 8.5 7.4l15.8-12.9 6 13.1-12.4 10s-5.2-6.6-10.2-2.5c-5 4 4.2 11.7 9.8 6.3L251.8 55l-8-18.3z" opacity=".3" fill="#f8f8f5"></path><ellipse transform="rotate(-49.209 155.782 85.762)" cx="155.8" cy="85.8" rx="15.7" ry="9.7" opacity=".6" fill="#d3edff"></ellipse><path fill="none" d="M163.5 79.5h-2.7l-1.3 3.3 2.7-.1zm-1.9 4.6l-2.7.1-1.2 3h2.7zm-10.2 4.7c.1.3.2.7.3 1l.4-1h-.7zm2.5-4.5l-2.7.1-.2.5c0 .9.1 1.7.2 2.6h1.5l1.2-3.2zm2 4.4l-2.6.1-1.1 2.6.3.6h2.1l1.3-3.3zm3.9-.1l-2.7.1-1.3 3.2 2.7-.1zm-4-8.9H153l-1.2 3.2h2.7zm3.8-.1H157l-1.3 3.2h2.6zm-1.9 4.6l-2.6.1-1.2 3h2.6z"></path><path d="M164.7 78l-11.7.3c-.3 0-.7.3-.9.7l-.4 1.1-5.1 12.6c-.2.4 0 .7.3.7l6.4-.1 5.2-.1c.3 0 .7-.3.9-.7l5.5-13.7c.2-.5.1-.8-.2-.8zM153 79.7l2.7-.1-1.3 3.2-2.7.1 1.3-3.2zm-1.8 4.7l2.7-.1-1.2 3.1H150l1-2.6.2-.4zm-.4 7.6l-2.7.1 1.3-3.2h2.7l-.4 1-.9 2.1zm3.8-.1H152l.2-.6 1.1-2.6 2.6-.1-1.3 3.3zm1.9-4.6l-2.6.1 1.2-3.1 2.6-.1-1.2 3.1zm1.8-4.5l-2.6.1 1.3-3.2 2.6-.1-1.3 3.2zm.2 9l-2.7.1 1.3-3.2 2.7-.1-1.3 3.2zm1.9-4.6l-2.7.1 1.2-3.1 2.7-.1-1.2 3.1zm1.8-4.5l-2.7.1 1.3-3.2 2.7-.1-1.3 3.2z" fill="#549cea"></path><path d="M150.4 77.4s8.5-7.3 15.1-2.7c0 0 3.6 2.3 2.4 9.1 0 0 2.7-10.4-4.6-11.6-7.3-1.3-12.9 5.2-12.9 5.2z" fill="#99d7ff"></path><path opacity=".3" fill="#f8f8f5" d="M304.4 91.9l8.3 3.3-1.3-8.8z"></path><path opacity=".4" fill="#f8f8f5" d="M345.7 36.5v-3.8l-3.3-1.8-3.2 1.8v3.8l3.2 1.8z"></path><ellipse cx="230.1" cy="273.7" rx="14.6" ry="5.3" opacity=".3" fill="#003868"></ellipse><path d="M244.7 103.3s-12.4 25.1 21.8 41.8l18.9-22.3s-25.9-5.9-19-36.2l-21.7 16.7z" opacity=".5" fill="#f8f8f5"></path><path d="M252 122.1s1.4 5.3 7.2 8.1V129s-4.6-2.5-6.4-7.5l-.8.6zm1.7-6s2.2 7.5 7.8 10.4l.6-.9s-5.7-4.4-7.6-10.6l-.8 1.1zm5.7-6.6s2.2 7.5 7.8 10.4l.6-.9s-5.7-4.4-7.6-10.6l-.8 1.1zm-3.8 1.5s1.7 8 8.9 12.2l.7-1.1s-6.6-5.1-8.8-12.2l-.8 1.1zm-12.1 12.3s-1.4-11.4 5.6-14.8c0 0-1.1-9.6 6-13.4 0 0-19.5 4.6-11.6 28.2zm18.4 10.5l10.3-11.9 1.1.7-10.2 11.9zm2.2 2.2l10.2-11.9 1.2.7-10.3 11.9z" fill="#549cea"></path><path d="M266.4 86.5s-8.5 28.6 19.2 36.6c.1 0-29.5-2.4-19.2-36.6z" fill="#f8f8f5"></path><path fill="#014272" d="M171.4 154.1l7.2 10.9 21.8 1.6-5.9-8.5zm19.8-38.7l25.8 16.9-1.1-2.3-26.6-17.6"></path><path opacity=".3" fill="#f8f8f5" d="M189.8 119.3l23 14.2-17.1 19.1-30.3-7.3z"></path><path d="M283.2 205.5c.5 1.3-.1 2.7-1.4 3.3l-16 6.8-2.4-4.6 16.4-6.9c1.3-.6 2.9 0 3.4 1.4zm-21.8 5.9l2.6 5.1-6.5-.2z" opacity=".5" fill="#f8f8f5"></path><path d="M156.6 125.3s-9.6 2.1-8.2 12.3l-8.9-4.1s6.2-15.8 15.1-15.1l2 6.9z" opacity=".5" fill="#0c76c3"></path><path fill="#f8f8f5" d="M217 132.3l-20.3 22.2.7-.1 20.1-21.9-1.6-2.5z"></path><g opacity=".4"><ellipse transform="rotate(-15.981 681.526 61.871)" cx="681.4" cy="61.9" rx="12.1" ry="5.9" opacity=".6" fill="#d3edff"></ellipse><path d="M686 59.4c-.3.1-.5.3-.5.5l1.5 3.5c.1.2.4.2.7.1.3-.1.5-.3.5-.5l-1.5-3.5c-.1-.2-.4-.2-.7-.1zm-4.2 3.2c-.3.1-.5.3-.5.5l.8 1.8c.1.2.4.2.7.1.3-.1.5-.3.5-.5l-.8-1.8c-.1-.1-.4-.2-.7-.1zm-5 1.7c.3-.1.5-.3.5-.5l-1.5-3.4c-.1-.2-.4-.2-.7-.1s-.5.3-.5.5l1.5 3.4c.1.2.4.2.7.1zm2.2 0l-3.8 1.2c-.3.1-.5.3-.5.5.1.2.4.2.7.1l1.3-.4.4.9c.1.2.4.2.7.1.3-.1.5-.3.5-.5l-.4-.9 1.3-.4c.3-.1.5-.3.5-.5-.1-.2-.4-.2-.7-.1zm4.2-3.3l-1.3.4-1.1-2.6c-.1-.2-.4-.2-.7-.1s-.5.3-.5.5l1.1 2.6-1.3.4c-.3.1-.5.3-.5.5.1.2.4.2.7.1l3.8-1.2c.3-.1.5-.3.5-.5s-.4-.2-.7-.1zm4.2-3.3l-1.3.4-.4-.9c-.1-.2-.4-.2-.7-.1s-.5.3-.5.5l.4.9-1.3.4c-.3.1-.5.3-.5.5.1.2.4.2.7.1l3.8-1.2c.3-.1.5-.3.5-.5s-.4-.2-.7-.1z" fill="#549cea"></path></g><path opacity=".5" fill="#0c76c3" d="M596.4 156v-3.2l-2.8-1.7-2.8 1.7v3.2l2.8 1.6z"></path><g opacity=".3"><ellipse transform="matrix(.09216 -.9957 .9957 .09216 753.675 956.256)" cx="901.3" cy="64.8" rx="18.5" ry="11.7" fill="#99d7ff"></ellipse><g fill="#002c55"><path d="M903.9 65.4l-2.9-4.7 3-4.4 2.8 4.6z"></path><path d="M899.1 68l7.4.7-7.4-12.3z"></path></g><path fill="none" stroke="#002c55" stroke-width="1.583" stroke-miterlimit="10" d="M894 65.8l6.3 10.4"></path><path d="M895.9 49.3s4.2-6.2 11.1-2.1c6.1 3.6 8.4 15.1 4.7 24.5 0 .1-.1.2-.1.4 0 0 3.7-11.9-.8-18.3-4.4-6.3-7.3-8.1-14.9-4.5z" fill="#f8f8f5"></path></g><path d="M925.8 228.1c3.8-7.5 5.4-18.7-.5-34.8l-31.2 3.2s15.7 23.8-12.2 42.2l20 2.2c9.8 1 19.4-3.9 23.9-12.8z" opacity=".6" fill="#f8f8f5"></path><path d="M927 227.3s-7.4 9.9-15.3 7.3c0 0-8.2 6.1-14.6 5.9-.1 0 21.8 5.7 29.9-13.2z" fill="#18a093"></path><path fill="#1bbfb3" d="M921.6 205.4l-16.8 1.7-.4-1.4 16.8-1.7zm-.9-3.3l-16.8 1.7-.4-1.4 16.8-1.7zm1 13.4l-16.9.7-.3-1.5 16.9-.6zm-.5-3.3l-16.8.7-.4-1.4 16.9-.7zm-1.9 12.7l-16.8.6-.3-1.5 16.8-.5zm1.4-3.2l-16.8.5-.4-1.4 16.9-.5z"></path><g opacity=".6" fill="none" stroke-miterlimit="10"><ellipse transform="rotate(-78.854 913.241 271.05)" cx="913.2" cy="271" rx="9.3" ry="15.1" stroke="#003868" stroke-width="1.827"></ellipse><path d="M914.1 268l-1.8 6m5.9-1.8l-9.9-2.3" stroke="#002c55" stroke-width="2.284" stroke-linecap="round" stroke-linejoin="bevel"></path></g><ellipse transform="rotate(-81.466 914.065 295.434)" cx="914" cy="295.4" rx="4.5" ry="12" opacity=".2" fill="#003868"></ellipse><ellipse transform="rotate(-59.463 956.59 232.704)" cx="956.6" cy="232.7" rx="17.5" ry="11" opacity=".4" fill="#d3edff"></ellipse><path fill="#1bbfb3" d="M956.5 227.1l-4.2 11.4 9.2-4.9z"></path><path d="M937.9 91.7l18 18.9s-5.9 3.1-1.6 12.1 12.6-4.5 6.2-11.7l-16.2-17s12.5-8.5 15.5 8.9l2.4-1.6c-.1 0-2.9-24.5-24.3-9.6z" opacity=".3" fill="#f8f8f5"></path><path d="M937.9 91.7s11-11.2 19.8-1.7c0 0-8.9-5.7-19.8 1.7z" opacity=".4" fill="#fff"></path><path fill="#f8f8f5" d="M942.6 68l2-8.7-8.5 2.6z"></path><path opacity=".3" fill="#f8f8f5" d="M914.6 108.9v-2.8l-2.4-1.4-2.4 1.4v2.8l2.4 1.4zM840.2 148h-3.9l2.3-3.1-1.2-3.7 3.7 1.3 3.2-2.4-.1 4 3.2 2.2-3.8 1.2-1.2 3.7zM667.9 130.8l7.1-5.3-8.1-3.5z"></path><path d="M495.7 341.2l10.7-11c1.5-1.6 4.1-1.7 5.8-.2l22.1 19.2c1.9 1.6 1.9 4.5.1 6.2l-9.8 9.4c-1.5 1.4-3.8 1.6-5.4.3l-22.9-17.6c-2.2-1.6-2.4-4.5-.6-6.3z" opacity=".4" fill="#003868"></path><g><path d="M492 319.7l23.6 32.8c2.2 3.2 6.1 3.6 8.6 1.1l13.2-13.3c2.6-2.6 2.8-7.3.4-10.4l-23.7-30.8c-2.1-2.8-5.6-3.2-8.1-1.1l-13.1 11.3c-2.7 2.4-3.2 7.1-.9 10.4z" fill="#0071bf"></path><path fill="#1bbfb3" d="M493.9 316.4l23.7 33.8 18.5-18.3-24.1-31.3z"></path><path opacity=".5" fill="#f8f8f5" d="M513.4 336.8l12.3-11.3 1 1.5-12.1 11.6zm3.2 4.7l12.2-11.4 1 1.5-12.1 11.7z"></path><g fill="#f8f8f5"><path d="M509.7 310c-4.1.7-6.8 5.3-6.1 10.2.7 4.9 4.7 8.3 8.8 7.6 4.1-.7 6.8-5.3 6.1-10.2s-4.7-8.4-8.8-7.6zm2.2 14.4c-2.6.4-5-1.7-5.5-4.8s1.3-5.9 3.8-6.4c2.6-.4 5 1.7 5.5 4.8.5 3.1-1.2 6-3.8 6.4z" opacity=".4"></path><path d="M505 323.7l2.2-1.7s2 3.6 5.9 2l1.1 3.2s-5.3 2.8-9.2-3.5z"></path><path d="M509.7 310l.5 3.3s-6 1.6-3.1 8.8l-2.2 1.7s-3-3.6-.3-10.2c0-.1 2.1-3.7 5.1-3.6z" opacity=".3"></path></g></g>
</svg>