<?xml version="1.0" encoding="UTF-8"?>
<svg viewBox="0 0 88 18" version="1.1" xmlns="http://www.w3.org/2000/svg" xmlns:xlink="http://www.w3.org/1999/xlink">
    <!-- Generator: Sketch 55.2 (78181) - https://sketchapp.com -->
    <title>Embibe_Logo</title>
    <desc>Created with Sketch.</desc>
    <g id="Final" stroke="none" stroke-width="1" fill="none" fill-rule="evenodd">
        <g id="table" transform="translate(-84.000000, -867.000000)">
            <g id="nav-/-web-/-left" transform="translate(-1.000000, 0.000000)">
                <g id="Group" transform="translate(17.000000, 857.000000)">
                    <g id="Embibe_Logo" transform="translate(68.000000, 10.000000)">
                        <path d="M30.6006202,15.2092549 L23.1610341,15.2092549 C22.9351031,15.2092549 22.7526203,15.0267721 22.7526203,14.8008411 L22.7526203,3.62594476 C22.7526203,3.4012551 22.9351031,3.21753097 23.1610341,3.21753097 L30.541034,3.21753097 C30.7657236,3.21753097 30.9494477,3.4012551 30.9494477,3.62594476 L30.9494477,3.79477234 C30.9494477,4.01946199 30.7657236,4.20318612 30.541034,4.20318612 L24.2050341,4.20318612 C23.9803444,4.20318612 23.7966203,4.38566888 23.7966203,4.61159991 L23.7966203,8.27366881 C23.7966203,8.49959984 23.9803444,8.6820826 24.2050341,8.6820826 L30.334965,8.6820826 C30.560896,8.6820826 30.7433788,8.86580673 30.7433788,9.09049639 L30.7433788,9.25063431 C30.7433788,9.47656535 30.560896,9.6590481 30.334965,9.6590481 L24.2050341,9.6590481 C23.9803444,9.6590481 23.7966203,9.84153086 23.7966203,10.0674619 L23.7966203,13.8164273 C23.7966203,14.041117 23.9803444,14.2235997 24.2050341,14.2235997 L30.6006202,14.2235997 C30.8265512,14.2235997 31.009034,14.4073239 31.009034,14.6332549 L31.009034,14.8008411 C31.009034,15.0267721 30.8265512,15.2092549 30.6006202,15.2092549" id="Fill-1" fill="#929090"></path>
                        <path d="M45.7480544,15.2092549 L45.5196406,15.2092549 C45.294951,15.2092549 45.1112268,15.0267721 45.1112268,14.8008411 L45.1112268,4.93932404 C45.1112268,4.80897922 44.9361923,4.76925508 44.8790889,4.88594473 L40.6497097,13.5582204 C40.5814338,13.6984963 40.4386752,13.7878756 40.2822614,13.7878756 L39.6876407,13.7878756 C39.5312269,13.7878756 39.3897097,13.6984963 39.3201924,13.5594618 L35.0908132,4.93435853 C35.0337097,4.81766887 34.8586753,4.85863439 34.8586753,4.98773784 L34.8586753,14.8008411 C34.8586753,15.0267721 34.6761925,15.2092549 34.4502615,15.2092549 L34.2218477,15.2092549 C33.997158,15.2092549 33.8134339,15.0267721 33.8134339,14.8008411 L33.8134339,3.62594476 C33.8134339,3.4012551 33.997158,3.21753097 34.2218477,3.21753097 L35.1355028,3.21753097 C35.2919166,3.21753097 35.4334339,3.3056689 35.5017097,3.44594476 L39.623089,11.8178067 C39.7720545,12.1219446 40.2065372,12.1219446 40.3555028,11.8178067 L44.4681923,3.44594476 C44.5364682,3.30691028 44.6792268,3.21753097 44.8343992,3.21753097 L45.7480544,3.21753097 C45.9739854,3.21753097 46.1564682,3.4012551 46.1564682,3.62594476 L46.1564682,14.8008411 C46.1564682,15.0267721 45.9739854,15.2092549 45.7480544,15.2092549" id="Fill-3" fill="#929090"></path>
                        <path d="M51.1329095,9.99881361 L51.1329095,13.8160549 C51.1329095,14.041986 51.3153922,14.2244687 51.5413233,14.2244687 L54.875668,14.2244687 C56.8283577,14.2244687 58.1131852,13.6422618 58.1131852,11.9030894 C58.1131852,10.1639171 56.8283577,9.59039983 54.875668,9.59039983 L51.5413233,9.59039983 C51.3153922,9.59039983 51.1329095,9.77288258 51.1329095,9.99881361 L51.1329095,9.99881361 Z M51.1329095,4.6112275 L51.1329095,8.20502054 C51.1329095,8.43095157 51.3153922,8.61343433 51.5413233,8.61343433 L54.695668,8.61343433 C56.5291852,8.61343433 57.873599,8.10819295 57.873599,6.40377919 C57.873599,4.71674474 56.5204956,4.20281371 54.6869784,4.20281371 L51.5413233,4.20281371 C51.3153922,4.20281371 51.1329095,4.38529647 51.1329095,4.6112275 L51.1329095,4.6112275 Z M54.721737,3.21839993 C57.2144266,3.21839993 58.9610473,4.09977923 58.9610473,6.32681367 C58.9610473,7.55577917 58.3689094,8.40239985 57.4291852,8.83936536 C57.2690473,8.91384811 57.2702887,9.14350328 57.4341507,9.21177914 C58.5079438,9.65743431 59.2105645,10.5549515 59.2105645,11.9378481 C59.2105645,14.2244687 57.5222887,15.2088825 54.9191163,15.2088825 L50.4960819,15.2088825 C50.2701509,15.2088825 50.0876681,15.0263997 50.0876681,14.8004687 L50.0876681,3.62681372 C50.0876681,3.40088269 50.2701509,3.21839993 50.4960819,3.21839993 L54.721737,3.21839993 Z" id="Fill-5" fill="#929090"></path>
                        <path d="M63.0497782,15.2092549 L62.8213644,15.2092549 C62.5954334,15.2092549 62.4129507,15.0267721 62.4129507,14.8008411 L62.4129507,3.62594476 C62.4129507,3.4012551 62.5954334,3.21753097 62.8213644,3.21753097 L63.0497782,3.21753097 C63.2757093,3.21753097 63.458192,3.4012551 63.458192,3.62594476 L63.458192,14.8008411 C63.458192,15.0267721 63.2757093,15.2092549 63.0497782,15.2092549" id="Fill-7" fill="#929090"></path>
                        <path d="M68.4346333,9.99881361 L68.4346333,13.8160549 C68.4346333,14.041986 68.6171161,14.2244687 68.8430471,14.2244687 L72.1773919,14.2244687 C74.1300815,14.2244687 75.4149091,13.6422618 75.4149091,11.9030894 C75.4149091,10.1639171 74.1300815,9.59039983 72.1773919,9.59039983 L68.8430471,9.59039983 C68.6171161,9.59039983 68.4346333,9.77288258 68.4346333,9.99881361 L68.4346333,9.99881361 Z M68.4346333,4.6112275 L68.4346333,8.20502054 C68.4346333,8.43095157 68.6171161,8.61343433 68.8430471,8.61343433 L71.9973919,8.61343433 C73.8309091,8.61343433 75.1753229,8.10819295 75.1753229,6.40377919 C75.1753229,4.71674474 73.8222194,4.20281371 71.9887022,4.20281371 L68.8430471,4.20281371 C68.6171161,4.20281371 68.4346333,4.38529647 68.4346333,4.6112275 L68.4346333,4.6112275 Z M72.0234608,3.21839993 C74.5161505,3.21839993 76.2627711,4.09977923 76.2627711,6.32681367 C76.2627711,7.55577917 75.6706332,8.40239985 74.7309091,8.83936536 C74.5707711,8.91384811 74.5720125,9.14350328 74.7358746,9.21177914 C75.8096677,9.65743431 76.5122884,10.5549515 76.5122884,11.9378481 C76.5122884,14.2244687 74.8240125,15.2088825 72.2208401,15.2088825 L67.7978057,15.2088825 C67.5718747,15.2088825 67.389392,15.0263997 67.389392,14.8004687 L67.389392,3.62681372 C67.389392,3.40088269 67.5718747,3.21839993 67.7978057,3.21839993 L72.0234608,3.21839993 Z" id="Fill-9" fill="#929090"></path>
                        <g id="Group-13" transform="translate(79.448275, 2.914759)">
                            <polygon id="Clip-12" points="8.5233102 12.2944963 8.5233102 0.302772409 0.267144823 0.302772409 0.267144823 12.2944963 8.5233102 12.2944963"></polygon>
                            <path d="M8.11514469,12.2944963 L0.675558609,12.2944963 C0.449627579,12.2944963 0.267144823,12.1120136 0.267144823,11.8860826 L0.267144823,0.711186195 C0.267144823,0.486496543 0.449627579,0.302772409 0.675558609,0.302772409 L8.05555848,0.302772409 C8.28024813,0.302772409 8.46397227,0.486496543 8.46397227,0.711186195 L8.46397227,0.880013778 C8.46397227,1.10470343 8.28024813,1.28842756 8.05555848,1.28842756 L1.71955859,1.28842756 C1.49486894,1.28842756 1.31114481,1.47091032 1.31114481,1.69684135 L1.31114481,5.35891025 C1.31114481,5.58484128 1.49486894,5.76732404 1.71955859,5.76732404 L7.84948952,5.76732404 C8.07542055,5.76732404 8.25790331,5.95104817 8.25790331,6.17573783 L8.25790331,6.33587575 C8.25790331,6.56180678 8.07542055,6.74428954 7.84948952,6.74428954 L1.71955859,6.74428954 C1.49486894,6.74428954 1.31114481,6.9267723 1.31114481,7.15270333 L1.31114481,10.9016688 C1.31114481,11.1263584 1.49486894,11.3088412 1.71955859,11.3088412 L8.11514469,11.3088412 C8.34107572,11.3088412 8.52355848,11.4925653 8.52355848,11.7184964 L8.52355848,11.8860826 C8.52355848,12.1120136 8.34107572,12.2944963 8.11514469,12.2944963" id="Fill-11" fill="#929090"></path>
                        </g>
                        <path d="M8.60313089,17.81131 C3.861062,17.81131 0.00285517237,13.9531032 0.00285517237,9.21103432 C0.00285517237,8.49351709 0.58382068,7.9113102 1.30133791,7.9113102 C2.01885514,7.9113102 2.60106202,8.49351709 2.60106202,9.21103432 C2.60106202,12.5205515 5.2936137,15.2131032 8.60313089,15.2131032 C9.32064812,15.2131032 9.902855,15.7953101 9.902855,16.5128273 C9.902855,17.2291031 9.32064812,17.81131 8.60313089,17.81131" id="Fill-14" fill="#9F9E9E"></path>
                        <path d="M1.87597238,13.3433377 C1.36824825,13.3433377 0.886593088,13.0441653 0.678041368,12.5476136 C-0.681268954,9.3150619 0.0399724131,5.62195851 2.51528272,3.13919994 C3.02176547,2.63023443 3.84355856,2.62899305 4.35128268,3.1354758 C4.86024819,3.64195855 4.86148957,4.46499302 4.35500682,4.97271715 C2.62700685,6.70692401 2.12424824,9.28402742 3.07266202,11.540855 C3.35073098,12.2012687 3.04038616,12.9634756 2.37873099,13.2415446 C2.21486893,13.3110618 2.04355859,13.3433377 1.87597238,13.3433377" id="Fill-16" fill="#E7587F"></path>
                        <g id="Group-20" transform="translate(1.241379, 0.432000)">
                            <polygon id="Clip-19" points="11.4896685 0.188689652 0.893698703 0.188689652 0.893698703 4.92231716 11.4896685 4.92231716 11.4896685 0.188689652"></polygon>
                            <path d="M2.19264824,4.92231716 C1.85995859,4.92231716 1.52726894,4.79569647 1.27278619,4.54121372 C0.766303435,4.03348959 0.767544815,3.21045512 1.27526894,2.70397237 C2.50795858,1.47252411 4.06216545,0.654455161 5.77030335,0.335420684 C7.43499298,0.0250758616 9.13816536,0.207558617 10.694855,0.864248261 C11.3565102,1.14231722 11.6656136,1.90452411 11.3875446,2.56617927 C11.1082343,3.22659305 10.3472688,3.53693787 9.68561363,3.25886891 C7.42630332,2.306731 4.84547578,2.81073099 3.11002753,4.5424551 C2.85678616,4.79569647 2.52533789,4.92231716 2.19264824,4.92231716" id="Fill-18" fill="#F6B429"></path>
                        </g>
                        <path d="M14.3985101,10.5182067 L6.51947575,10.5182067 C5.80195852,10.5182067 5.21975164,9.93599982 5.21975164,9.21972397 C5.21975164,8.50220674 5.80195852,7.91999985 6.51947575,7.91999985 L14.2110618,7.91999985 C14.4258204,7.91999985 14.4531308,7.77227572 14.430786,7.68910331 C13.9590618,5.88910334 12.6643032,4.39324129 10.938786,3.67075855 C10.2771309,3.39393097 9.96554466,2.63172408 10.2423722,1.97006892 C10.5191998,1.30841376 11.2801653,0.996827559 11.9418205,1.27365514 C14.4779584,2.33627581 16.3673377,4.56455164 16.9954756,7.23599987 C17.1829238,8.03172399 16.9991997,8.85475846 16.4939583,9.49779293 C15.9862342,10.1420688 15.2252687,10.5132412 14.4059584,10.5182067 L14.3985101,10.5182067 Z" id="Fill-21" fill="#53B6E7"></path>
                    </g>
                </g>
            </g>
        </g>
    </g>
</svg>