<?xml version="1.0" encoding="utf-8"?>
<!-- Generator: Adobe Illustrator 23.0.2, SVG Export Plug-In . SVG Version: 6.00 Build 0)  -->
<svg version="1.1" id="Layer_1" xmlns="http://www.w3.org/2000/svg" xmlns:xlink="http://www.w3.org/1999/xlink" x="0px" y="0px"
	 viewBox="0 0 228 101.6" style="enable-background:new 0 0 228 101.6;" xml:space="preserve">
<style type="text/css">
	.st0{fill:#1295C9;}
	.st1{fill-rule:evenodd;clip-rule:evenodd;fill:#666666;}
	.st2{fill:#666666;}
</style>
<g id="background">
</g>
<g id="content">
	<g>
		<g>
			<path class="st0" d="M155.9,26.1l7.1,5.5l0,7.5l5.8-3.8l5.6,3.9l12.5-19.6L155.9,26.1z M166.4,33.4l-2,3.4l0-5.8l18.6-9
				L166.4,33.4z"/>
			<path class="st0" d="M25.9,46.8h3.2v16.1h-3.2V46.8z"/>
			<path class="st0" d="M32.3,62.9V46.8h1.1l10.1,10.1V46.8h3.2v16.1h-1.2l-10-10v10H32.3z"/>
			<path class="st0" d="M63.1,46.8v3h-5.4v13.1h-3.2V49.8h-5.4v-3H63.1z"/>
			<path class="st0" d="M65.4,62.9V46.8l11.8,0v3h-8.6v3.4h6.4v3h-6.4v3.7h8.6v3C77.2,62.9,65.4,62.9,65.4,62.9z"/>
			<path class="st0" d="M90.1,55.9l4,7h-3.7l-3.8-6.6h-2.9v6.6h-3.2V46.8h7c3.8,0,5.6,1.5,5.6,4.6C93.1,53.8,92.1,55.3,90.1,55.9z
				 M83.7,53.3h4.5c1.3,0,2-0.6,2-1.8c0-1.1-0.7-1.6-2-1.7h-4.5V53.3z"/>
			<path class="st0" d="M95.8,62.9V46.8h1.1L107,56.9V46.8h3.2v16.1H109l-10-10v10H95.8z"/>
		</g>
		<g>
			<path class="st1" d="M138.7,44.9c7.7-1.1,14.9-3.8,22.4-6.3C158.8,40.5,141.5,45.3,138.7,44.9z"/>
			<polygon class="st1" points="168.8,35.3 163,39.1 166.4,33.4 			"/>
			<path class="st2" d="M122.2,47.4c0.8,0.4,1.6,0.9,2.3,1.6l-2.1,2.1c-0.7-0.9-1.7-1.3-3-1.3s-2.1,0.3-2.5,0.9
				c-0.4,0.6-0.4,1.1,0,1.5s1.2,0.8,2.5,1c1.4,0.1,2.6,0.6,3.7,1.3s1.7,2,1.7,3.6c0,1.3-0.6,2.4-1.8,3.3s-2.6,1.4-4.1,1.4
				c-1.5,0-2.7-0.2-3.7-0.6s-1.9-1-2.6-1.7l2.2-2.1c0.7,0.9,1.9,1.4,3.6,1.5c1.4,0,2.3-0.3,2.7-0.9s0.3-1.2,0-1.8s-1.2-1-2.7-1.1
				c-1.3-0.1-2.5-0.5-3.5-1.2c-1.1-0.6-1.6-1.8-1.6-3.3c0-1.4,0.6-2.6,1.8-3.4s2.5-1.3,3.8-1.3C120.2,46.8,121.4,47,122.2,47.4z"/>
			<path class="st2" d="M127.6,62.9V46.8h3.2v6.4h7.5v-6.4h3.2v16.1l-3.2,0v-6.6h-7.5v6.6H127.6z"/>
			<path class="st2" d="M144.1,62.9l6.4-16.1h3.2l6.4,16.1l-3.4,0l-1-2.5h-7.3l-1,2.5C147.6,62.9,144.1,62.9,144.1,62.9z
				 M152.3,51.1l-2.4,6.1h4.8L152.3,51.1z"/>
			<path class="st2" d="M165.8,46.8v13.1h8.6v3h-11.8V46.8H165.8z"/>
			<path class="st2" d="M176.2,62.9l6.4-16.1h3.2l6.4,16.1l-3.4,0l-1-2.5h-7.3l-1,2.5C179.6,62.9,176.2,62.9,176.2,62.9z
				 M184.3,51.1l-2.4,6.1h4.8L184.3,51.1z"/>
		</g>
	</g>
</g>
</svg>
