<svg viewBox="0 0 307 64" xmlns="http://www.w3.org/2000/svg"><path fill="#191918" d="M1 41V1h8.876v32H30v8H1m47 0V1h29.717v7.83H56.612v8.113h18.573v7.83H56.612v8.397H78V41H48m66.885-30.505l-5.264 12.88h10.528l-5.264-12.88zM126.887 40l-3.622-8.908h-16.756L102.887 40H94l16.982-40h8.036L136 40h-9.113zm53.74 1l-19.076-25.426V41H153V1h7.985l18.46 24.627V1H188v40h-7.373M238 41h9V1h-9zm58.634 0l-19.078-25.426V41H269V1h7.986l18.462 24.627V1H304v40h-7.366"/><path fill="#DA322A" d="M238 60.564h66V58h-66z"/></svg>