<svg width="237" height="48" xmlns="http://www.w3.org/2000/svg"><defs><linearGradient x1="687.77%" y1="-483.43%" x2="7514.88%" y2="-5324.97%" id="a"><stop stop-color="#52BCE8" offset="0%"/><stop stop-color="#50B6E3" offset="13.72%"/><stop stop-color="#4AA4D3" offset="32.37%"/><stop stop-color="#3F88BA" offset="53.84%"/><stop stop-color="#316097" offset="77.23%"/><stop stop-color="#21336E" offset="100%"/></linearGradient><linearGradient x1="-22521.56%" y1="42388.59%" x2="-22392.97%" y2="42388.59%" id="b"><stop stop-color="#52BCE8" offset="0%"/><stop stop-color="#50B6E3" offset="13.72%"/><stop stop-color="#4AA4D3" offset="32.37%"/><stop stop-color="#3F88BA" offset="53.84%"/><stop stop-color="#316097" offset="77.23%"/><stop stop-color="#21336E" offset="100%"/></linearGradient><linearGradient x1="-22521.56%" y1="42433.21%" x2="-22392.99%" y2="42433.21%" id="c"><stop stop-color="#52BCE8" offset="0%"/><stop stop-color="#50B6E3" offset="13.72%"/><stop stop-color="#4AA4D3" offset="32.37%"/><stop stop-color="#3F88BA" offset="53.84%"/><stop stop-color="#316097" offset="77.23%"/><stop stop-color="#21336E" offset="100%"/></linearGradient><linearGradient x1="-22521.55%" y1="42413.29%" x2="-22393.03%" y2="42413.29%" id="d"><stop stop-color="#52BCE8" offset="0%"/><stop stop-color="#50B6E3" offset="13.72%"/><stop stop-color="#4AA4D3" offset="32.37%"/><stop stop-color="#3F88BA" offset="53.84%"/><stop stop-color="#316097" offset="77.23%"/><stop stop-color="#21336E" offset="100%"/></linearGradient><linearGradient x1="11.48%" y1="50%" x2="103.65%" y2="50%" id="e"><stop stop-color="#1885C8" offset="0%"/><stop stop-color="#197FC1" offset="13.24%"/><stop stop-color="#1A70AD" offset="32.6%"/><stop stop-color="#1C578D" offset="55.73%"/><stop stop-color="#1F3461" offset="81.53%"/><stop stop-color="#22183D" offset="99.92%"/><stop stop-color="#22183D" offset="100%"/></linearGradient></defs><g fill="none" fill-rule="evenodd"><path d="M49.92 11.03l-.31.15c-1.08.76-1.34 1.74-1.24 1.82l2.02-1.15c2.86-1.2 7-2.63 8.37-2.82-.05 0-5.56.3-8.84 2m17.77-.48c-2.38-.48-4.83-.6-7.25-.34-5.62.58-8.32 1.4-9.68 1.94l-3.01 1.07-.72.77 2.2-.2 2.38-.91c.87-.3 1.85-.59 3.02-.86 5.52-1.32 14.24-1.14 13.06-1.47m18.13 11.3c-.16-1.86-.52-3.7-1.07-5.49l-.36-1.02a25.77 25.77 0 0 0-2.78-5.25C80.15 8.16 78.58 6 72.22 4.15c6.05 1.47 6.5 2.22 7.29 2.75l-.93-.9C73.98 2.6 66.75.99 59.6 2.33 64.06.88 71.39 1.06 75.97 3.9 71.13.87 67.6.48 64.16.2c-.53-.03-1.14-.06-1.83-.06-6.17 0-13.63 3.1-17.47 6.6-.34.3-.63.58-.88.84-1.19 1.39-.4 2.34.17 2.66.2.11-.04 2.15.14 2.27.62.41 2.8-2.14 3.79-2.58a36.03 36.03 0 0 1 21.3-2.36c7.83 2.2 11.2 5.9 11.4 6.19.22.28 1.52 1.6 1.49 2.14a.27.27 0 0 1-.29.03 6.4 6.4 0 0 1-.62-.59.4.4 0 0 1-.11-.07 18.34 18.34 0 0 0-4.43-2.9c-2.4-1.02-5.15-1.3-7.51-1.94 2.7 1.07 5.54 1.4 8.07 2.84 3.02 1.7 5.19 4.74 5.22 4.76 2.04 2.67 2.99 6.02 2.66 9.36 0 .08.02.16.01.24l.01.05v.02c-.07.68-.19 1.37-.34 2.04-.09.38-.22.8-.36 1.3l.03-.03a22.6 22.6 0 0 0 1.21-9.16M73.72 10l.26.01c.1-.18-1.26-.7-1.76-.82-.69-.21-1.39-.38-2.1-.51.02 0-.23.09 1.25.57.37.12.11.5 2.34.75" fill="#F2940A" fill-rule="nonzero"/><path d="M80.97 21.63c-.17-.08-.34-.14-.5-.2l.5.2" fill="#232E66" fill-rule="nonzero"/><path d="M85.26 27.39c.33-3.34-.62-6.69-2.66-9.36-.03-.02-2.2-3.06-5.22-4.76-2.53-1.44-5.37-1.77-8.07-2.84 2.36.64 5.12.92 7.5 1.94a18.31 18.31 0 0 1 4.44 2.9l.1.07c.2.21.41.4.63.6.1.04.2.03.29-.04.03-.54-1.27-1.86-1.48-2.14-.22-.29-3.11-4.7-10.95-6.91-9.84-1.9-18.2 1.49-21.76 3.08-1 .51-1.5 2.4-1.22 2.63.23.2 1.24-.32 2.75-1.38l.3-.15c3.29-1.7 8.8-2 8.85-2-1.37.2-5.5 1.61-8.37 2.82l-1.2.5-.67.66 2.24-.86c1.36-.54 4.06-1.36 9.68-1.94 2.42-.26 4.87-.14 7.25.34 1.18.33-7.54.15-13.06 1.47-1.17.27-2.15.56-3.02.86l-3.47 1c.36.37 2.25 2.76 2.78 3.44l.94.54c.1.11.9.4.98.52l1.1-.52c.18.23-1 .8-.85 1 .24.28.95-1 2.16-1.76 7.03-3.6 12.54-3.7 15.15-3.64.46.03.91.1 1.36.22.39.2-2.87.35-2.08.59.7.2 2.51-.27 2.7-.3.07 0 .14-.01.2-.04a.48.48 0 0 1 .23-.03c.7-.01 1.38.02 2.07.1 1.87.45.12.69-.53.54a4.83 4.83 0 0 0-.97.02c-.24.06-.72.11-.95.17-.35.08-1.02.17-1.36.23-.2.03-2.4-.03-2.06.26.08.01 1.7.1 1.95.23.27.03.53.03.8.02.19-.03.38-.04.57-.03.1 0 .2-.03.28-.09.13-.06.27-.1.42-.08.12 0 .32.06.28.15-.35.84-.95.75-2.04.67-.63-.06-1.27-.07-1.9-.03-1.27.1-2.61.67-2.84.47-.16-.13 1.48-.77 1.03-.86-.74-.12-6.5 1.93-6.81 2.73h.03c-.05.12.02.15.13.19.3.06 1.51-.38 1.81-.4.36.02.47-.17.82-.17.27 0 1.23-.48 1.5-.48.5 0 .7.25 1.21.14.41-.1.93-.04 1.33-.18.4-.11.79-.27 1.18-.37.1-.03.19-.05.28-.09l.4-.07c.1 0 .77.28.73.36.9.52 1.14.94 1.9.98h.31l.53-.1.69-.12a4.8 4.8 0 0 1 1 0c.3 0 .59.1.88.14.35.05-.06.28-.19.35a7.8 7.8 0 0 1-1.31.65c-.28.14-.58.2-.89.2-.16 0-.33.02-.49.07-.1.04-.2.07-.32.09l-.3-.01a3.54 3.54 0 0 0-.43 0l-.17.05-.14-.01c-.1-.01-.2 0-.3.03a.56.56 0 0 1-.23.08h-.12a.66.66 0 0 0-.32.03 1.94 1.94 0 0 1-.86.12c-.02.02-2.05.14-2.07.16-.16.07-.33.13-.5.18-.35.17-.72.32-1.09.46-.09.03-.14.01-.22.03l-.71.2-.31.24c-.14.1-.3.16-.46.2-.13.02-.25.07-.38.09a.6.6 0 0 0-.27.17c-.09.06-.2.04-.29.09-.18.1-2.67.93-2.86 1.03l-.24.1c-.12.06-.23.14-.34.22a.55.55 0 0 0-.05.4h-.02.02v.05c.22.06.45.07.67.02.08 0 .17-.02.25-.05.12-.03.22-.03.34-.04a2.14 2.14 0 0 0 .7-.28c2.69-.6 7.16-2.46 11.6-2.76.05 0 4.68-.2 7.79 1.24.92.43 5.23 2.84 3.5 9.72v.06h-.01l.13-.35.01-.05-.02.02c.14-.48.27-.91.36-1.3a19.68 19.68 0 0 0 .34-2.03v-.07c0-.08-.03-.16-.02-.24M70.13 8.68c.7.13 1.4.3 2.09.51.5.13 1.86.64 1.76.82l-.27-.01c-2.23-.25-1.97-.63-2.34-.75-1.48-.48-1.23-.57-1.24-.57m-1.53 9.65l.2-.1c-.85.02-1.7.18-2.5.46-.45.16-.87.38-1.26.65-.1.18.13.29.17.3.67.13.71-.09 3.39-1.3" fill="#FAD50A" fill-rule="nonzero"/><path d="M73.47 30.59a.9.9 0 0 1 .86.04c.82-1.04 1.68-1.44 2.42-2.56l.7-1.1c.62-1.12.68-2.2.9-3.04l-.14.24c-.05.05-.34 1.33-1.01 1.33-.22 0-.76-.1-.69-.36-.5 1.73-2.03 2.5-2.69 3.93.66.31-.43 1.02-.35 1.52z"/><path d="M50.8 35.76a.2.2 0 0 1 .04 0l.03-.01a.3.3 0 0 0-.06.01z" fill="url(#a)" fill-rule="nonzero"/><path d="M78.15 39.35a142.47 142.47 0 0 1-3.5 2.3c-3.72 2.36-7.66 4.41-12.24 5.2-.4.07-.8.12-1.21.17h-.01c3.53-.28 5.55-.54 8.91-2.15 2.97-1.43 6.46-4.17 8.05-5.52z" fill="url(#b)" fill-rule="nonzero"/><path d="M48.57 37.75c.29.2.59.37.9.53 2.55 1.36 6.26 2.08 4.46 1.25-3.78-2.13-1.04-.72 2.27.06a24.37 24.37 0 0 0 7.44.64c3.93-1.52 7.27-3.7 9.14-5.77-.37.25-.76.47-1.16.66-.05.02-3.81 1.1 1.1-2.43 3.71-2.66 6.35-6.2 7.34-10.68.07-.22.18-.43.32-.62l.39.15c-.3 1.43-.63 2.63-1.04 4.03.37-.46.58-.6.94-1.05-.85 3.28-2.87 5.48-5.07 7.91-.59.66.86-.04-.4 1.32.3-.33.23-.15.47-.03 1-1.26 2.62-1.33 3.53-2.7 2.37-3.62 3.2-5.63 3.77-7.9l.05.06v-.03a7.45 7.45 0 0 0-1.96-1.51 10.11 10.11 0 0 0-3.29-.98 36.1 36.1 0 0 0-.65-.1c-1.59 3.77-1.81 6.39-5.32 8.47-3.9 2.54-1.46 1.89-1.42 1.87.3-.12.59-.28.86-.46-1.5 2.42-4.15 3.96-7.3 4.65-.07.23-1.16.2-1.35.36-.15.21-.39.34-.65.35.11.33-.65.45-.87.75-.3.4.26.57-.41.6l-.54-.28c-2.42 0-3.42-.73-4.2-1.42l-1.61.04c-.26.19-1.09.18-1.66.42a.69.69 0 0 1-.37-.13c-.24-.12-.51-.24-.62 0-.13.28-.63.02-.84-.02-.12.06-.9.41-.72.44-.9-.15-.59.13-1.44.42l-.82.03c-.2.06-.1.58.73 1.1zm25.25-8.68c.66-1.43 2.19-2.2 2.69-3.93-.07.26.47.36.69.36.67 0 .96-1.28 1-1.33l.16-.24c-.23.84-.29 1.92-.91 3.05l-.7 1.09c-.74 1.12-1.6 1.52-2.42 2.56a.9.9 0 0 0-.86-.04c-.08-.5 1-1.2.35-1.52z" fill="url(#c)" fill-rule="nonzero"/><path d="M68.2 42.5a565.9 565.9 0 0 0-5.08 1.35c-1.8.5-3.74 1.2-9.21.69h-.1c-.78.1-1.58.13-2.38.07-.78-.05-2.17-.27-2.15-.26.03 0 .3.11.53.2h-.02s.7-.1 3.16.4c.97.2 1.93.25 2.93.37h.06c.73.1 1.47.12 2.2.1 1.81-.1 3.6-.4 5.33-.9 2.88-.82 4.98-1.9 4.72-2.01z" fill="url(#d)" fill-rule="nonzero"/><path d="M84.87 27.84l-.01-.12-.03-.36v-.11a9.15 9.15 0 0 0-.06-.36l-.01-.09a8.58 8.58 0 0 0-.08-.4l-.05-.21-.05-.18a15 15 0 0 0-.11-.37l-.1-.24a5.99 5.99 0 0 0-.14-.35c0-.02 0-.04-.02-.06l-.13-.27a7.07 7.07 0 0 0-1.11-1.6c-.58 2.27-1.4 4.28-3.77 7.9-.91 1.37-2.53 1.44-3.53 2.7-.24-.12-.17-.3-.48.03 1.27-1.36-.18-.66.41-1.32 2.2-2.43 4.22-4.63 5.07-7.91-.36.45-.57.59-.94 1.05.41-1.4.73-2.6 1.04-4.03l-.39-.15c-.14.19-.25.4-.32.62-1 4.48-3.63 8.02-7.34 10.68-4.91 3.52-1.15 2.45-1.1 2.43.4-.19.8-.4 1.16-.66-1.87 2.08-5.2 4.25-9.14 5.77-6.64 2.56-14.97 3.26-20.82-1.5 1.28 1.29 2.7 2.45 4.21 3.45-.88-.15-1.5-.83-2.34-1.1.02.04 2.02 2.65 8.02 3.34l1.2.12c5.47.5 7.41-.2 9.2-.7a760.7 760.7 0 0 1 5.08-1.33c.26.1-1.84 1.19-4.72 2-1.73.5-3.52.81-5.32.9-.74.03-1.48 0-2.2-.08h-.07c-1-.13-1.96-.18-2.93-.38-2.47-.5-3.16-.4-3.16-.4s.37.2 3.77 1.42c-.21.08-1.22.21-5.4-1.58.04.03 5.01 2.4 7.85 2.68 2.14.21 4.29.14 6.4-.22 4.58-.79 8.52-2.84 12.24-5.2 1.31-.82 2.6-1.69 3.87-2.54l-.02.1.27.04c-.05.14-.05.14-.75.98 1.52-1.23 2.3-3.15 3.93-4.31-.12.3-.27.59-.46.85l-.15.22a22.09 22.09 0 0 1-2.83 3.35l-.1.1-.32.28a27.6 27.6 0 0 1-12.6 6.63c.43-.05.87-.14 1.3-.26-.77.22-.8.24-1.12.35l1.25-.24c-.61.3-1.32.44-3.03.8 6.16-1.07 11.28-3.68 15.03-7.58.17-.17 1.18-1.26 1.51-1.66a20.11 20.11 0 0 0 3.63-6.04c.17-.47.32-.95.43-1.45.04-.14.08-.28.1-.42.16-.92.17-.92.24-1.46v-.03a11.12 11.12 0 0 0 .05-1.03v-.1l-.01-.4z" fill="url(#e)" fill-rule="nonzero"/><path d="M62.68 33.8a3.88 3.88 0 0 1-1.4-1.49c-.13-.2-.24-.43-.35-.64l-.14-.24a6.11 6.11 0 0 0-.77-1.12l-.28-.3-.24-.27a.94.94 0 0 1-.14-.22c-1.24-3.17-1.53-4.96-1.98-8.1-.23-1.63-1.22-2.94-2.83-4.9l-.67-.84-.5-.66c-.4-.52-.84-1.01-1.3-1.48l-1.55-1.31-1.72-1.45a33.4 33.4 0 0 0-2.56-1.92 6.7 6.7 0 0 0-3.8-1.22 5.27 5.27 0 0 0-2.69.67c-.92.66-1.91 1.22-2.96 1.66-.7.3-1.43.53-2.35.83l-.95.32c-.87.3-1.66.8-2.31 1.45l-.36.35a8.5 8.5 0 0 1-.37.35c-.16.16-.35.3-.55.39-.26.07-.52.11-.79.12l-.58.03-.42.02c-1.2.07-2.16.74-2.78 1.25-.33.27-.62.54-.92.8l-.13.13c-.28.26-.57.5-.88.72-.85.55-1.65.63-2.54.72-.48.04-.95.1-1.42.2-.6.12-1.18.31-1.74.58-.72.35-1.42.77-2.08 1.24l-1.03.74-.88.64c-1.33.93-2.47 1.55-3.7 1.55-1.22 0-2.09-.71-2.2-1.82-.11-.97.39-1.95 1.4-2.77l.55-.45c.41-.33.8-.64 1.14-.94.48-.4.91-.83 1.3-1.3a3.6 3.6 0 0 0 .62-3.33c-.3-1.18-1.2-1.98-2.76-2.44A13 13 0 0 0 8.42 9l-.18-.04a3.71 3.71 0 0 1-.44-.07 2.03 2.03 0 0 1-.36-.09 30.21 30.21 0 0 1-3.06-1.85l-.15-.1-.1.15c-.34.48-.6.86-.8 2.54-.22 1.85 1.3 4.11 3.93 4.52.15.02.27.13.3.28.04.14 0 .3-.12.38-2.78 2.19-3.37 3.13-3.51 5.58a5.5 5.5 0 0 0 1.46 4.1 6.21 6.21 0 0 0 4.67 1.8 10.92 10.92 0 0 0 1.68-.14c.2 0 .36.15.37.34.14 1.71.44 3.1.83 3.71.1.16.07.36-.06.48-.16.14-.35.24-.55.31a7.1 7.1 0 0 1-2.38.38c-.56 0-.98.39-1.31 1.21-.11.27-.2.56-.28.83l-.03.08-.13.39c-.03.1-.07.19-.12.28-.13.22-.3.43-.5.6a.37.37 0 0 1-.25.09h-.07a.38.38 0 0 1-.26-.2 1.87 1.87 0 0 0-1.28-.92h-.07a3.47 3.47 0 0 0-2.87 2.07.37.37 0 0 1-.3.23l-.07.01c-.61.02-1.15.42-1.35.99-.1.26-.16.52-.2.8l-.05.18c-.03.2-.07.43-.13.63-.04.16-.1.32-.19.47l-.12.22-.1.15c-.17.32-.21.7-.1 1.05.08.26.27.46.52.57.26.13.54.23.83.3.42.1.85.17 1.29.19.08 0 .16-.03.24-.07l.17-.12a.38.38 0 0 1 .3-.08l.28.05.8.16h.04l.75.15.3.06.2.01c1.17-.06 1.66-.51 1.99-.95.09-.12.18-.26.26-.4l.13-.22.1-.17c.1-.16.19-.31.3-.46.06-.1.18-.15.3-.15l.1.01.38.09.62.07h.23c1.11 0 1.94-.61 2.62-1.2l.23-.19.3-.26c.17-.14.33-.27.51-.38.26-.2.57-.32.9-.33h.06a31.66 31.66 0 0 1 3.2.37c.5-.03 1-.16 1.45-.39.47-.22.93-.47 1.38-.75.12-.08.25-.14.38-.2l.04-.01.44-.21a3 3 0 0 0 1.02-.8c.27-.4.5-.83.7-1.27l.28-.57.48-.98c.07-.13.2-.2.34-.2h.1c.58-.02 1.15-.08 1.71-.17l.7-.1c.52-.09.95-.16 1.28-.17.08 0 .3.01.59.04l.67.04a32.24 32.24 0 0 0 3.02.04 5.6 5.6 0 0 0 1.65-.34c.1 0 .2.04.26.1.18.19.38.37.58.55.12.1.16.25.11.4a.37.37 0 0 1-.32.25l-.22.02a1.4 1.4 0 0 0-.89.41.36.36 0 0 1-.3.14.42.42 0 0 1-.14-.02 1.2 1.2 0 0 0-.47-.1h-.48c-.6 0-1.2.03-1.8.12-.36.04-.7.15-1 .3a.79.79 0 0 0-.46.74c.04.7 1.03 2.6 1.7 3.27.32.2.69.3 1.06.27h.19c.14 0 .26.07.33.2.69 1.35 1.88 2.27 2.97 2.27h.07c1.04-.05 3.84-1.06 5.8-1.99l.08-.02.2-.04.4-.05.2-.02c.43-.03.86-.13 1.28-.3.33-.16.81-.78 1.22-1.58.06-.12.2-.2.33-.2h.03c.16.02.28.12.33.27.04.15.1.3.17.43.34.63.94.95 1.78.94h.14c.6-.05 1.2-.18 1.77-.4l.31-.1c.44-.16.89-.29 1.35-.38a3.4 3.4 0 0 1 .8-.04l.53.04.36.02c.17.02.35.03.54.03.44.01.87-.07 1.27-.25.43-.19.83-.42 1.2-.7l.1-.08a.4.4 0 0 1 .22-.07c.09 0 .17.04.24.1a6.95 6.95 0 0 0 4.65 1.74h.24c.46.02.91-.17 1.22-.52.16-.2.2-.47.14-.71a.37.37 0 0 1 .3-.47c.33-.05.65-.19.91-.4a1 1 0 0 0 .34-.68c0-.15-.06-.3-.17-.4-.34-.3-.73-.54-1.14-.73m-16.54-2.88c-.25.32-.63.41-.98 1.03-.7-.28-.82-1.2-.95-1.6.56-.1 1.87-.35 2.56-.45-.27.3-.48.64-.63 1.02" fill="#FFF" fill-rule="nonzero"/><path d="M61.78 34.24c-1.28-.75-1.79-2.16-2.58-3.27-.28-.4-.77-.67-1.03-1.07-.92-2.5-1.7-5-1.95-7.85a8.31 8.31 0 0 0-.72-2.1c-1.16-1.87-2.66-3.58-4.1-5.3l-.41-.42-5.07-4.2c-.63-.43-1.31-.8-2.03-1.08a5.13 5.13 0 0 0-3.56.13c-1.09.58-2.07 1.41-3.22 1.8-1.66.75-3.54.9-4.97 2.18-.84.72-1.54 1.85-2.78 1.66a5.3 5.3 0 0 0-3.67 1.31c-.94.85-1.83 1.86-3.05 2.1-1.07.45-2.37.23-3.46.64-1.72.43-3.1 1.8-4.56 2.85-1.47.85-2.88 1.77-4.72 1.73-1.24-.1-2.3-.9-2.73-2.07a3.45 3.45 0 0 1 1.08-3.59c1.09-1.3 2.82-2.07 3.67-3.57.45-.9.37-2-.21-2.82-1.14-1.17-2.76-1.21-4.23-1.57-.94-.26-1.67-.98-2.5-1.43-.3.48-.44 1.05-.39 1.62a3.88 3.88 0 0 0 2.48 3.03c.75.32 1.6.09 2.37.25.24.1.4.3.45.54 0 .22-.1.42-.25.58-1.2 1-2.46 1.96-3.46 3.2-1.07 1.15-1.19 3.18-.63 4.63a4.98 4.98 0 0 0 4.01 2.97c1.22.2 2.3-.13 3.42-.37a.4.4 0 0 1 .27.24c.11.98-.04 1.85.18 2.75.2.76.46 1.5.77 2.22a.97.97 0 0 1-.2.8c-.6.43-1.25.8-1.94 1.09l-1.66.1-.32.15c-.62.73-.64 1.48-1.02 2.3-.51.84-1.45 1.25-2.24 1.74a5.3 5.3 0 0 1-.9 1.16c-.28.22-.62.35-.98.36-.57.66-.7 1.58-.85 2.48.94.09 1.92.6 2.84.09.79-.37.96-1.33 1.55-1.91.47-.51 1.18-.13 1.74-.02.83.04 1.43-.56 2.13-.84.49-.32.89-.88 1.4-1.2.99-.47 2.35-.21 3.38-.02.8.2 1.63.1 2.37-.23.66-.41 1.28-.93 2.02-1.1.66-.34.99-1.09 1.26-1.7.22-.58.77-1.03.73-1.7-.17-.14-.37-.47-.62-.44-.32.44-.56.91-.92 1.35-1.54 2.1-2.76 2.3-5.89 2.3a7.29 7.29 0 0 0-6.02 2.45.3.3 0 0 1-.34-.07c0-.3.09-.61.26-.87 1.42-2.03 3.65-2.5 6-2.55a9.06 9.06 0 0 0 3.58-.86 5.43 5.43 0 0 0 2.56-2.78c.27-1.34.38-2.8.72-4.08.11-.14.29-.2.46-.18.18.02.33.13.4.29-.24 1.32-.67 2.88-.15 4.16 1.02 1.35 2.92.62 4.31.55 1.34-.08 2.68-.06 4 .07.69-.02 1.2.15 1.73-.28.15-.25.2-.53.16-.81-.04-.39-.36-.62 0-.94a.48.48 0 0 1 .51.08c.2.53.28 1.1.62 1.58a8.18 8.18 0 0 0 2.63 2.05c.9.62 1.64 1.49 1.7 2.58.01.56-.5.94-.93 1.2-.72.41-1.54.61-2.37.57-1.13-.55-1.43-1.74-2.18-2.62-.38-.43-.96-.5-1.53-.47-.6.03-1.21.12-1.8.28a.6.6 0 0 0-.17.52c.39.7.81 1.38 1.24 2.08.5.3 1.18-.17 1.6.36.37.57.6 1.22 1.16 1.65.56.5 1.35.65 2.05.39 1.6-.45 3.15-1.06 4.63-1.8h.5c.59-.06 1.25-.03 1.67-.48.46-.65.87-1.34 1.22-2.05.36-.49.2-1.23.04-1.77a10.12 10.12 0 0 1-1.52-2.93c-.36-.1-.68-.32-1.09-.3-.19.09-.46.05-.57.26l1.69 3.33c.14.3.2.64.17.97a4.36 4.36 0 0 1-1.17 1.9c-.1.06-.24.12-.32-.02.19-.73.53-1.52.49-2.35l-1.65-2.97c-.2-.4-.53-.77-.51-1.24.02-.2.16-.38.36-.45.72-.23 1.6-.2 2.15-.77.73-1.13.88-2.24 1.07-3.59.07-.13.2-.22.34-.25.14.01.27.1.34.21a5.54 5.54 0 0 1-.94 4.12.36.36 0 0 0 .07.45c.81.25 1.67 0 2.35-.37.83-.03 1.66-.13 2.47-.32.1.04.16.12.18.21a4.08 4.08 0 0 0-.99 2.03c-.64.67-1.55 1.25-1.62 2.2.11.48.52.03.8.08.12.01.21.12.2.25l-.63.94c-.34.55.06 1.2.06 1.72.2.42.65.68 1.11.65.97-.04 1.82-.41 2.67-.71A5.8 5.8 0 0 1 53 35.8c1-.06 1.75-.73 2.5-1.39.4.05.78.25 1.04.58a5.49 5.49 0 0 0 4.34 1.72l.14-.08a.25.25 0 0 0-.06-.38l-1-.52c-.7-.45-1.58-1.04-1.82-1.83a9.6 9.6 0 0 0-1.02-2.16c-.15-.34-.5-.62-.64-.96a.16.16 0 0 1 .15-.09c1.1.38 1.77 1.48 2.28 2.46.82 1.13 1.99 2.1 3.52 1.84l.13-.11a.21.21 0 0 0 0-.26l-.77-.38zM45.01 19.2l-.05-.01v.02l-.02.01c-.07.08-.2.1-.28.03l-.02-.02-.01-.03c-.15-.88-.38-1.75-.7-2.59l-.2-.34-.08-.1-.17-.25a.8.8 0 0 1-.09-.85l.02-.03c.18-.14.41-.18.62-.1l.03.02c.32.26.59.59.77.97.22.56.34 1.17.33 1.78 0 .5-.07 1-.2 1.48l.05.01zm8.15 14.08h-.02c-.43.14-.88.19-1.33.16h-.03l-.09-.04-.1-.06a.21.21 0 0 1-.07-.24A2.09 2.09 0 0 1 53 31.76h.1l.16.03c.12.03.22.14.23.27.02.1.02.22.02.33.03.34-.1.67-.35.9zm2.61-5.83l-.06.18-.06.19a.42.42 0 0 1-.3.3.25.25 0 0 1-.24-.04.26.26 0 0 1-.1-.22l-.01-.19-.07-.66a1.8 1.8 0 0 0-.28-.74 33.05 33.05 0 0 1-.62-.7 1.08 1.08 0 0 0-.7-.38c-.21.08-.4.2-.54.38l-.22.28-.2.27a.2.2 0 0 1-.24.05l-.03-.01a.98.98 0 0 1-.08-.4c0-.19.05-.37.12-.54l.18-.36.2-.41.02-.04c.09-.1.15-.22.18-.34l.06-.14.11-.3a.56.56 0 0 1 .83-.32c.26.15.48.37.62.64l.1.16.12.2.25.32c.7.77 1.03 1.5 1.03 2.25 0 .2-.03.39-.07.57z" fill="#DB0A40" fill-rule="nonzero"/><path d="M5.1 36.66a4.32 4.32 0 0 0 1.44-1.74 1.44 1.44 0 0 0-.5-.57.54.54 0 0 0-.46.02c-.47.39-.96.74-1.47 1.05-.22.15-.13.47-.18.7 0 .22.26.37.39.5.25.1.53.12.79.04m-2.24.06c-.38.17-.66.49-.79.88-.1.68.04 1.32-.49 1.82-.02.13-.15.28-.02.4.48.19.98.32 1.5.4.25-.83.44-1.75.74-2.47v-.22c-.26-.31-.51-.72-.94-.8m32.38-2.3c.43.47.4 1.2.9 1.56.62.07 1.24-.12 1.7-.53.28-.24-.12-.54-.17-.82-.28-.4-.08-1.22-.76-1.23-.68.09-1.37.13-2.06.13l-.19.13c-.13.4.47.4.58.76" fill="#DB0A40" fill-rule="nonzero"/><g fill="#D2003C"><path d="M204.48 31.72c0 1.8 1.53 3.26 3.43 3.26 1.89 0 3.42-1.46 3.42-3.26V20.89h5.92v11.98c0 4.05-4.2 7.33-9.36 7.33-5.18 0-9.37-3.28-9.37-7.33V20.89h5.96v10.83zm26.21 7.81h6V8.03h-6zm-10.14 0h6V8.03h-6zM110.78 14.64h-3.26v24.89h-6.38V9.48h10.97c5 0 9.04 3.97 9.04 8.87a8.91 8.91 0 0 1-6.89 8.62l8.82 12.56h-7.52l-6.38-9.84V22.5h1.48c2.36 0 4.27-1.76 4.27-3.93a4 4 0 0 0-4.15-3.93"/><path d="M128.7 27.98a3.67 3.67 0 1 1 7.33 0h-7.33zm13.24 3.46c.04-.41.06-.83.05-1.26.1-6.5-4.2-10.06-9.68-10.06a9.98 9.98 0 0 0-9.91 10.04 9.99 9.99 0 0 0 9.91 10.04c4.18 0 7.44-1.89 9.12-4.85l-4.87-2.25a4.1 4.1 0 0 1-3.76 2.28c-2.33 0-4.06-1.72-4.08-3.74v-.2h13.22zm13.56 3.49c-2.43 0-4.4-2.16-4.4-4.83 0-2.66 1.97-4.82 4.4-4.82 2.44 0 4.4 2.16 4.4 4.82 0 2.67-1.96 4.83-4.4 4.83zm10.32 4.6l-.01-31.5h-5.98v14.9a8.54 8.54 0 0 0-6.03-2.53c-4.95 0-8.97 4.4-8.97 9.82s4.02 9.82 8.97 9.82c2.34 0 4.46-1 6.06-2.6v2.09h5.96zm20.34-5.22h-5.74V14.64h4c1.76 0 3.18 1.6 3.18 3.37a3.18 3.18 0 0 1-3.18 3.18h-2.08v5.4h3.82a3.75 3.75 0 0 1 3.74 3.85c-.08 2.2-1.43 3.73-3.74 3.87m5.02-11.14a7.98 7.98 0 0 0 2.65-5.84c0-2.04-.79-3.92-2.17-5.4-1.43-1.57-3.96-2.45-7.38-2.45h-10.26v30.05h13.25c5.07-.08 9.16-3.92 9.16-8.62 0-3.42-1.2-5.86-5.25-7.74"/></g></g></svg>