<svg width="185" height="80" viewBox="0 0 185 80" xmlns="http://www.w3.org/2000/svg"><title>aug-fest-logo-white-backdrop@3x</title><defs><linearGradient x1="43.93%" y1="16.671%" x2="5.511%" y2="83.064%" id="a"><stop stop-color="#FF9191" offset="0%"/><stop stop-color="#F48180" offset="20%"/><stop stop-color="#E9716F" offset="40%"/><stop stop-color="#DE605E" offset="60%"/><stop stop-color="#D2504E" offset="80%"/><stop stop-color="#C63E3E" offset="100%"/></linearGradient></defs><g fill="none" fill-rule="evenodd"><path d="M21.122 6.275c-.66 5.363-1.31 10.737-1.948 16.122-.446 2.154.856 4.282 2.961 4.84 8.453 1.814 17.424 3.972 26.648 5.908 2.95.601 5.272-1.991 4.81-5.351l-2.961-22.91c-.363-2.981.903-5.195 2.829-4.84 1.915.357 3.94 3.05 4.524 5.875l13.538 67.136c.594 2.827-1.64 5.786-5.03 6.41-3.39.622-6.45-1.458-6.813-4.451l-3.5-27.137c-.327-2.582-2.251-4.662-4.778-5.163-9.807-1.547-19.416-3.66-28.551-5.786a5.382 5.382 0 0 0-4.095 1.008A5.496 5.496 0 0 0 16.61 41.6a3134.247 3134.247 0 0 1-4.546 30.631c-.396 2.77-3.445 4.317-6.802 3.338h-.067c-3.39-1.046-5.624-4.106-5.03-6.676L13.704 8.156c.594-2.548 2.608-5.196 4.524-5.808h.066c1.882-.657 3.17 1.124 2.828 3.927zm3.824 40.77a1.9 1.9 0 0 1 .63-3.745l21.156 3.56a1.9 1.9 0 0 1-.63 3.746l-21.156-3.56z" fill="url(#a)" fill-rule="nonzero"/><g fill="#4A4A4A"><path d="M82.128 25.57v.679h1.653v5.623h.793v-5.623h1.658v-.68zM87.82 27.669c.292-.378.664-.567 1.117-.567.828 0 1.248.552 1.26 1.657v3.113h-.763v-3.078c0-.366-.06-.627-.184-.781-.122-.155-.306-.232-.551-.232a.777.777 0 0 0-.513.19 1.37 1.37 0 0 0-.366.498v3.403h-.766v-6.649h.766v2.446zM92.923 27.76c-.317 0-.552.109-.705.326-.153.218-.24.556-.26 1.015h1.844v-.104c-.02-.444-.1-.761-.24-.952-.14-.19-.353-.285-.639-.285m.087 4.198c-.583 0-1.03-.174-1.342-.522-.312-.347-.47-.857-.476-1.53v-.566c0-.699.152-1.247.457-1.643.304-.397.729-.595 1.274-.595.548 0 .958.174 1.23.523.27.35.41.894.415 1.632v.502h-2.615v.108c0 .503.095.868.284 1.096.189.228.461.341.816.341.225 0 .424-.042.596-.127.17-.085.332-.22.482-.405l.398.485c-.332.467-.838.7-1.52.7M75.611 39.846c1.487.18 2.973.358 4.459.536l-2.332-8.652-2.127 8.116zm5.5 3.965l-6.5-.134-1.22 4.66h-4.863l7.115-22.768H79.849l7.162 22.768H82.1l-.99-4.526zM94.937 46.973c-.809 1.093-1.892 1.64-3.251 1.64-1.369 0-2.407-.47-3.114-1.413-.707-.94-1.06-2.311-1.06-4.112v-9.657h3.898v9.754c.019 1.451.5 2.177 1.447 2.177.89 0 1.533-.386 1.928-1.158V33.431h3.927v14.906h-3.665l-.11-1.364zM104.182 44.418c.245.412.572.632.572.632.309.208.688.311 1.136.311.799 0 1.391-.289 1.777-.868v-7.122c-.404-.634-.987-.95-1.75-.95-.77 0-1.343.316-1.714.95-.372.634-.558 1.653-.558 3.058-.008.15-.128 2.87.537 3.989zm-4.436-3.989c0-2.442.44-4.265 1.322-5.469.882-1.203 2.117-1.804 3.706-1.804 1.35 0 2.393.532 3.127 1.598l.152-1.323h3.513v14.906c0 1.901-.533 3.354-1.598 4.36-1.066 1.006-2.595 1.509-4.588 1.509-.817 0-1.676-.164-2.576-.49-.9-.326-1.57-.741-2.011-1.246l1.308-2.7c.368.386.846.7 1.433.943.588.244 1.144.365 1.667.365.873 0 1.5-.208 1.88-.627.382-.417.577-1.09.586-2.018v-1.28c-.744.973-1.713 1.46-2.906 1.46-1.59 0-2.818-.618-3.686-1.853-.868-1.235-1.31-2.978-1.329-5.228v-1.103zM120.026 46.973c-.809 1.093-1.892 1.64-3.251 1.64-1.369 0-2.407-.47-3.114-1.413-.707-.94-1.06-2.311-1.06-4.112v-9.657h3.898v9.754c.019 1.451.5 2.177 1.446 2.177.892 0 1.534-.386 1.93-1.158V33.431h3.926v14.906h-3.665l-.11-1.364zM131.662 44.342c0-.33-.159-.636-.476-.916-.316-.28-1.021-.66-2.114-1.137-1.608-.652-2.712-1.327-3.313-2.025-.602-.698-.903-1.566-.903-2.604 0-1.303.47-2.38 1.412-3.23.942-.85 2.188-1.274 3.74-1.274 1.635 0 2.944.422 3.927 1.267.982.845 1.474 1.98 1.474 3.403h-3.9c0-1.213-.504-1.819-1.514-1.819-.414 0-.754.13-1.02.386-.266.257-.4.615-.4 1.075 0 .33.148.622.442.874.293.253.987.614 2.08 1.082 1.588.588 2.712 1.242 3.368 1.963.657.721.985 1.656.985 2.803 0 1.332-.5 2.402-1.502 3.21-1 .808-2.314 1.212-3.94 1.212-1.093 0-2.057-.213-2.893-.64a4.858 4.858 0 0 1-1.962-1.784 4.593 4.593 0 0 1-.71-2.466h3.706c.018.68.176 1.19.475 1.53.299.34.788.509 1.467.509 1.047 0 1.57-.473 1.57-1.419M139.991 29.767v3.664h1.998v2.921h-1.998v7.41c0 .588.08.992.241 1.213.16.221.47.331.93.331.377 0 .684-.032.923-.096l-.028 3.03a6.077 6.077 0 0 1-2.149.373c-2.516 0-3.788-1.444-3.815-4.331V29.767h3.898zM154.212 39.17l-5.474-.03v9.59h-4.05V25.222h11.103v3.956h-7.053V35.2l5.674-.014-.2 3.985M158.386 39.857h3.899v-.361c-.019-.899-.166-1.58-.441-2.043-.276-.463-.753-.695-1.433-.695s-1.173.245-1.48.736c-.308.492-.49 1.279-.545 2.363m2.452 9.148c-2.002 0-3.563-.597-4.684-1.791-1.12-1.194-1.68-2.902-1.68-5.125v-1.185c0-2.35.514-4.165 1.542-5.441 1.03-1.277 2.503-1.915 4.423-1.915 1.873 0 3.283.598 4.229 1.795.946 1.197 1.428 2.969 1.447 5.316v1.912h-7.756c.054 1.117.298 1.933.73 2.45.431.516 1.097.774 1.997.774 1.304 0 2.393-.455 3.265-1.364l1.53 2.356c-.478.66-1.172 1.196-2.081 1.604a7.138 7.138 0 0 1-2.962.614M173.975 44.734c0-.33-.158-.636-.475-.916-.317-.28-1.022-.66-2.115-1.137-1.607-.652-2.711-1.327-3.313-2.025-.602-.698-.902-1.565-.902-2.603 0-1.304.47-2.381 1.412-3.23.941-.85 2.188-1.275 3.74-1.275 1.635 0 2.944.422 3.926 1.267.983.845 1.474 1.98 1.474 3.403h-3.898c0-1.213-.506-1.819-1.516-1.819-.413 0-.753.13-1.019.386-.266.257-.4.615-.4 1.075 0 .33.147.622.441.874.294.253.988.614 2.08 1.082 1.59.588 2.712 1.242 3.368 1.963.657.721.986 1.656.986 2.803 0 1.332-.5 2.402-1.502 3.21-1.001.808-2.314 1.212-3.94 1.212-1.093 0-2.057-.213-2.893-.64a4.858 4.858 0 0 1-1.963-1.784 4.593 4.593 0 0 1-.71-2.466h3.706c.019.68.177 1.19.476 1.53.298.34.787.509 1.467.509 1.047 0 1.57-.473 1.57-1.419M182.305 30.159v3.665h1.997v2.92h-1.997v7.41c0 .588.08.993.24 1.214.161.22.471.33.93.33.377 0 .685-.032.924-.096l-.028 3.03a6.077 6.077 0 0 1-2.149.373c-2.516 0-3.788-1.444-3.816-4.331V30.159h3.899z"/></g></g></svg>