<svg xmlns="http://www.w3.org/2000/svg" xmlns:xlink="http://www.w3.org/1999/xlink" viewBox="0 0 1000 1000"><path d="M1000 0H0c37.1 8.7 73.8 19.1 108 35.8 46 22.5 87.9 57.8 108.9 105.5 49.5 113-19.9 289.5 37.8 426.6 38.6 91.7 127.5 151.4 219.3 184.3s189.5 44.1 283.4 69.7c92.1 25.2 184.7 67.8 242.6 145.3V0z" fill="#ffd2d8"></path><path d="M584.7 97.1c-11.5-14-30.3-21.2-48.2-18.9-6.5.8-13.5 2.9-19.5.2-6.2-2.7-9.4-9.5-12.2-15.7-5-10.7-10.8-21.5-20.3-28.5-9.2-6.7-21-9-32.4-8.4-11.4.6-22.4 3.9-33.2 7.5C365.2 51.6 344.3 69 331 71.6c-6.5 1.3-14 .1-18.6-4.7-4.9-5.1-6.6-13.9-13.3-16-3.5-1.1-7.2.1-10.6 1.4-28.6 10.5-55.4 25.7-79.1 44.8h375.3zm368.9 194.3c-5.1-8.8-11.2-17.9-20.8-20.8-12.1-3.6-25.9 4-37.4-1.4-10.1-4.7-13.4-17-17.9-27.2-1.4-3.1-3.2-6.2-6.2-7.6-4-1.8-8.6-.1-12.5 1.9-19.9 10.2-36.3 26.1-55.6 37.2-4.2 2.4-9.9 4.4-13.4 1.1-2.6-2.4-2.4-6.5-2.4-10s-.8-7.8-4-9.2c-2.2-.9-4.7-.2-6.9.7-22.5 8.9-39.6 28.4-63 35.2h240.1z" fill="#fff"></path><path d="M1000 393.1c-16.5-10.3-33.1-20.3-50.6-28-64.7-28.4-139.4-23.8-208.2-7.5-68.8 16.3-134.6 43.6-203.4 59.8-56.4 13.2-114.5 18.8-172.4 16.6v63.2H1000V393.1z" fill="#ffc7ce"></path><path d="M196.4 497.1l-.1 6.8c0 236.5 390.9 282.8 390.9 282.8 323.7 46.2 412.3 177.1 412.3 177.1h.5V497.1H196.4z" fill="#ff5759"></path><path d="M1000 964.5l-.5-.8S949.2 889.4 785.9 833c1.5-1 2.8-1.7 4.5-2.7 2.2-1.2 2.9-5.1 5.1-6.2 2.2-1.1 3-5.5 5.2-6.5 2.3-1 6.5 2.3 8.8 1.3 2.2-1.1 2.1-6.8 4.3-7.9 2.2-1.1 4.5-1.4 6.7-2.7 2.1-1.3 6 .5 8-.9s2.4-4.9 4.4-6.3c1.9-1.5 7.3 1.3 9.2-.3 1.9-1.6 4.8-2.2 6.6-3.9s-.4-7.5 1.2-9.3c1.7-1.8 4.6-2.4 6.2-4.2 1.6-1.9 4.9-2.4 6.4-4.4 1.5-1.9 3.1-3.8 4.6-5.7 1.4-1.9.6-5.5 2-7.5s6.1-1.6 7.5-3.6c1.4-2 1.1-5 2.5-7s2-4.5 3.4-6.4c1.5-1.9 4.9-2.1 6.4-3.9 1.6-1.8 2.4-4 4.1-5.7 1.7-1.7 2.1-4.6 3.9-6.2 1.9-1.5.7-7.6 2.7-8.9 2-1.3 7 2.4 9.3 1.4 2.1-.9 3.6-3.2 5.7-3.9 2.1-.7 5.6 4 7.8 3.5s3.9-2.4 6.1-2.8c2.2-.4 3.1-7.9 5.4-8.3 2.2-.4 5 2.5 7.2 2.1 2.2-.4 5.1 1.9 7.3 1.3 2.2-.6 2.8-6 4.9-6.8 2.1-.8 7.2 4.7 9.2 3.6 2-1.1 4.2-3.1 6-4.5 1.8-1.4 3.8-3.7 5.2-5.4 1.6-1.9 1.9-5.3 2.9-7.4 1.1-2.1-2-6-1.2-8.3.7-2.3 1.6-4.3 2-6.7.5-2.3 2-4.4 2.4-6.8.4-2.4-2.7-5.3-2.4-7.6.4-2.4 1.6-4.8 2.1-7.1.5-2.4 3.9-4.2 4.6-6.5.7-2.3 3.6-3.7 4.6-5.8 1-2.2-2.6-7.3-1.3-9.2 1.4-2 4.2-3.4 5.8-5.2 1.7-1.7 3.5-3.9 5.4-5.3l1.5-1.2v337.3z" fill="#f44446"></path><path fill="#ffabb5" d="M196.6 487.3l-.2 9.8H1000v-9.8z"></path><path d="M582.8 194c9.6 1.3 17.2-6.8 17-15.9-2.4-1.5-5.2-2.4-7.9-1.9-6.6 1.5-9.6 10.1-9.1 17.8z" fill="#ff99a5"></path><path d="M540.8 123.8c5.1 10.9 18.7 13.4 28 7-.1-3.5-1-7.1-3.4-9.5-5.9-5.8-16.9-3.2-24.6 2.5z" fill="#ff7686"></path><path d="M228.9 20.3c.1 6.5 1.7 13.5 5.8 18.5s11.1 8.2 18.7 7.7c.2-4-.1-8-1.5-11.7-3.2-8.6-12.3-15.4-23-14.5zM828.5 297c.1 6.5 1.7 13.5 5.8 18.5s11.1 8.2 18.7 7.7c.2-4-.1-8-1.5-11.7-3.1-8.6-12.3-15.4-23-14.5z" fill="#ff99a5"></path><defs><path id="a" d="M548.9.2h450.9v392.7H548.9z"></path></defs><clipPath id="b"><use xlink:href="#a" overflow="visible"></use></clipPath><g clip-path="url(#b)"><path d="M570 13.4c3.9 2.6 9.9 2.3 13.3 5.1 3.6 3 6.5 6.9 9.4 10.2 3.1 3.4 6.7 6.7 9.2 10.4 2.7 3.8 4.8 8.1 6.9 12 2.2 4 1.8 9.3 3.6 13.5 1.8 4.2 2.7 8.7 4.2 12.9 1.5 4.3 6.2 7.6 7.5 11.9 1.4 4.4-.5 9.7.8 14 1.3 4.4 4.4 8.3 5.8 12.5 1.5 4.4 2.9 8.8 4.6 12.8 1.9 4.3 3 8.9 5.4 12.7 2.4 3.9 7.3 5.7 10.6 8.9 3.1 3.1 4.9 8.2 9.1 10.6 3.7 2.1 8.2 4 12.9 5.4 4 1.2 8.8 1.5 13.7 2.1 4.2.5 8.8 1.9 13.7 1.9 4.9 0 9.8-2.2 14.7-2.7 4.8-.5 9.9-.2 14.7-1 4.8-.8 9.6-2 14.5-2.9 4.8-.9 9.3-3.9 14.1-4.7 4.9-.8 10-.1 14.8-.6 5-.5 9.9-1.8 14.7-1.8 4.9 0 9.8-.4 14.1.3 4.9.7 9.6 2 13.8 3.4 4.6 1.6 8.9 4 12.7 6.3 4 2.5 8 5.3 11.4 8.5 3.3 3.2 5.6 7.6 8.3 11.4 2.7 3.7 4.8 7.8 7.1 12 2.2 4 3.9 8.3 5.7 12.6 1.8 4.2 4.7 8 6.4 12.4 1.6 4.3 1.8 9.2 3.3 13.6 1.5 4.4 1.3 9.3 2.8 13.7 1.5 4.4 6.3 7.6 7.9 11.9 1.6 4.4 3.7 8.4 5.5 12.7 1.8 4.3 1.7 9.4 3.8 13.5 2.1 4.1 3.3 9 5.9 12.8 2.6 3.9 7.5 6 10.5 9.5s6.2 6.7 9.8 9.7c3.5 2.9 6.5 6.6 10.6 9 3.9 2.2 8.6 3.1 13.1 4.8 4.2 1.5 8.1 4.9 12.8 5.9 4.3.9 9.2-.1 14.1.4 4.4.4 9 2.2 13.8 2.2 4.7 0 9.4-.1 13.8-.6 4.6-.5 8.7-3.8 13.1-4.7 4.5-1 9.7.7 14-.7 4.4-1.4 7.6-6 11.8-7.6 4.3-1.7 9.5-1 13.6-2.9 4.2-1.9 8.2-4 12.4-5.9 4.1-1.9 8.6-3.1 12.8-4.9 4.2-1.9 7.9-4.7 12.1-6.4 4.2-1.7 8.6-2.7 13-4.1 4.3-1.4 8.7-2 13.2-3 4.4-1 8.4-3.9 13.1-4.4 4.4-.5 9-2.3 13.7-2.3 4.6 0 8.8 3.8 13.1 4.2 4.5.5 9.2-1 13.4-.2 4.4.9 8.7 2.1 12.9 3.3 4.3 1.2 8.8 1.7 13 3.2 4.2 1.4 7.3 5.9 11.4 7.5 4.2 1.5 9.6-.6 13.8.8 4.2 1.5 7.4 5.7 11.7 7 4.2 1.3 8.8 1.1 13.2 2.1 4.3.9 8.4 3.3 12.9 3.8 4.3.5 8.8 0 13.4 0 4.5 0 9.4 1.1 14 .5 4.5-.6 8.8-3.1 13.3-4.4 4.4-1.2 8.1-4.5 12.4-6.3 4.2-1.7 9.5-1.4 13.5-3.6s8.5-4.1 12.3-6.7c3.7-2.6 6.6-6.7 10-9.8 3.4-3.1 5.1-7.8 8.1-11.3 3-3.5 5.7-6.9 8.2-10.8 2.5-3.8 7.7-6.3 9.6-10.5 1.9-4.1.1-9.7 1.4-14.2 1.3-4.3 2.2-8.6 2.8-13.3.6-4.4 2.7-8.8 2.7-13.5 0-5 .1-10.1-.5-15s-2.5-9.7-3.4-14.6c-1-4.9-3.2-9.4-4.4-14.3-1.1-4.8-.8-10-1.9-14.9-1.1-4.8-.9-10-1.9-14.9-.9-4.9-1.9-9.7-2.5-14.7-.6-4.9-2.1-9.8-2.1-14.8 0-4.6.2-9.2.7-13.7.6-4.5 1.4-9.1 2.5-13.5s3.8-8.4 5.3-12.7c1.4-4.3 1.8-9 3.5-13.3 1.7-4.2 2.8-8.7 4.6-12.9 1.8-4.2 5.4-7.7 7.1-11.8 1.8-4.2 3.3-8.6 5-12.8 1.7-4.3 1.3-9.3 2.8-13.6 1.5-4.3 3.1-8.5 4.2-13 1.1-4.4 3.8-8.6 4.4-13.1.6-4.5.9-9.2.9-13.8 0-4.8-2.3-9.2-3.1-13.7-.8-4.7-1.4-9.2-2.9-13.5-1.6-4.4-2.2-9.3-4.5-13.3-2.3-4.1-6.7-6.7-9.6-10.4-2.8-3.7-6.2-6.6-9.5-10-3.3-3.2-6.4-6.4-10.2-9.3-3.6-2.8-7-5.9-11-8.4-3.9-2.4-7-6.5-11.2-8.6-4.1-2.1-9.3-2.1-13.6-3.9-4.3-1.8-8.6-3.3-13.1-4.8-4.4-1.5-8.8-2.8-13.4-4-4.5-1.2-9.1-1.8-13.7-2.7-4.6-.9-9-2.4-13.6-2.9-4.7-.6-9.1-4-13.7-4.3-4.7-.3-9.5.6-14.1.6s-9.3.5-13.8.7c-4.6.2-9.3-.5-13.8-.1-4.6.4-8.8 4.1-13.4 4.7-4.6.6-9.3-.5-13.8.3-4.6.8-8.8 3.1-13.2 4-4.5.9-8.8 2.4-13.3 3.5s-10-1.8-14.4-.6c-4.5 1.2-8.6 3.4-13 4.8s-8.7 3.1-13 4.6c-4.4 1.5-8.2 4.5-12.5 6-4.3 1.6-9 2.1-13.3 3.8-4.3 1.7-7.9 5.1-12.1 6.8-4.3 1.7-9.7.5-13.9 2.2-4.3 1.8-8.2 4.2-12.4 6-4.3 1.8-9 2.4-13.2 4.1-4.3 1.8-7.5 5.9-11.8 7.6-4.3 1.7-9.4 1.2-13.7 2.8-4.3 1.6-7.2 6.9-11.5 8.5-4.3 1.6-9.9-.4-14.2 1-4.4 1.4-8.4 3.7-12.8 5-4.4 1.3-8.8 2.5-13.3 3.6s-8.6 3.9-13.1 4.7c-4.5.8-9.3.3-13.8.9-4.5.6-9.2-.9-13.8-.6-4.5.3-9 2.8-13.6 2.8s-9.3-.8-13.9-1c-4.6-.3-9.3.3-14-.2-4.6-.5-8.8-4-13.4-4.7-4.6-.7-9.5 1-14.1.1-4.5-.8-8.6-4-13.2-5-4.5-1-9.2-1.2-13.7-2.3-4.5-1.1-8.7-3.2-13.2-4.4-4.5-1.2-9.1-1.9-13.6-3.1-4.5-1.2-9-2-13.5-3.3-4.5-1.3-9.3-1.1-13.8-2.4-4.5-1.3-8.4-4.4-12.9-5.7-4.5-1.3-9.4-.8-13.9-2s-8.5-4.1-13-5.3c-4.5-1.2-9.1-1.9-13.6-3s-9.5-.2-14-1.1c-4.5-1-9.1-1.6-13.7-2.5-4.6-.8-8.7-4.5-13.3-5.1-4.6-.7-9.5 1.2-14.1.7s-9.2-.6-13.8-.9c-4.6-.3-9.2.3-13.9.3-4.6 0-9.3-.9-14.3-.6-4.7.3-9.2 2.2-14 2.8-4.7.6-9.6 0-14.2.9-4.7.9-9.8.5-14.3 1.8-4.7 1.4-8.2 5.6-12.4 7.5-4.5 2-9.3 2.8-13.1 5.4-4.1 2.8-6.7 6.6-9.7 10.1-3.1 3.6-8.1 6.2-9.8 10.8-1.5 4.3-2.1 9.4-2.1 14.5 0 4.5 3.5 8.5 4.8 13.1 1.2 4.3-.4 9.8 1.8 14 2.1 4 4.7 8.1 7.6 11.8 2.8 3.5 5.9 7.4 9.3 10.5 3.3 2.4 7.4 5.1 11.3 7.7z" fill="#e32426"></path><path d="M1055.1 431.1c10.8-45.2 46.5-57.7 63.1-95.9 19.2-44.2-.8-80.5 38-122.8l-1.1-9.3c-40.4 40.7-21.9 77.7-42.8 121.2-18.1 37.5-54.3 48.6-66.8 93.4-7.8 31.2 4.8 32.6 9.6 13.4z" fill="#012143"></path><path d="M1129.3 278.7c-10 96.5-56.9 75.7-76.1 144.2-.8 2.9-1.4 7.4-2.9 11-1.4 3.5-6.7 2.7-7-1.1-.2-2.5.5-5.5.7-8.5-4.5 24.7 5.9 26.9 10.4 9.1 10.8-45.2 47.2-60 63.7-98.2 8.8-20 9.5-38.4 11.2-56.5z" fill="#195378"></path><path d="M737.4 75.6c2.7 5.9 7.1 11.7 12.9 14.5 5.8 2.9 13.5 3 20.2-.7-1.4-3.7-3.4-7.2-6.2-10.1-6.4-6.4-17.5-8.8-26.9-3.7z" fill="#ff5759"></path><g fill="#012143"><path d="M828.7 119.2c49.3 30.1 45.7 67.6 68.9 88.9 27.1 24.9 100.5 6.5 111.3 89.3l-8.8 15.7c-5.9-83.3-80.7-69.9-106.3-96.4-21.8-22.6-16-59.9-63.5-92.9"></path><path d="M884.5 190.8c-3.2-26.1 7.3-49.2 23-70.1l-1.4-1.3c-15.9 17.6-25.6 41.6-28.6 64.8l7 6.6z"></path></g><path d="M1334.3 110.6c-.4-4.8-.1-9.6-.6-14.2-.6-4.7-4.7-8.9-5.4-13.5-.8-4.7-1.1-9.4-2.1-13.9-1-4.7-2.7-9.1-3.9-13.5-1.2-4.6-.5-9.7-1.9-14.1-1.5-4.5-3.8-8.7-5.6-13-1.8-4.4-5.4-7.9-7.4-12.1-2-4.3-1.4-9.9-3.6-14-2.3-4.1-5.6-7.7-8.2-11.6-2.6-4-4.6-8.3-7.4-12.1-2.8-3.8-5.2-8-8.3-11.6-3.1-3.6-6.6-6.9-9.8-10.3-3.3-3.4-7.1-6.3-10.6-9.5s-7.1-6.2-10.8-9.1c-3.6-2.9-7.6-5.6-11.5-8.3-3.8-2.7-8.4-4.4-12.4-6.9-3.9-2.5-6.7-7-10.9-9.4-4.1-2.3-8.9-3.4-13.1-5.5-4.2-2.1-8.4-4.2-12.7-6.2-4.2-1.9-8.8-3.4-13.2-5.2-4.3-1.8-8.4-4.2-12.9-5.8-4.4-1.6-9.6-.8-14.1-2.3-3.7-1.2-6.9-4.2-10.4-5.9-1.3.5-2.5 1-3.8 1.4-4.4 1.4-8.7 3.1-13 4.6-4.4 1.5-8.2 4.5-12.5 6-4.3 1.6-9 2.1-13.3 3.8-4.3 1.7-7.9 5.1-12.1 6.8-4.3 1.7-9.7.5-13.9 2.2-4.3 1.8-8.2 4.2-12.4 6-4.3 1.8-9 2.4-13.2 4.1-4.3 1.8-7.5 5.9-11.8 7.6-4.3 1.7-9.4 1.2-13.7 2.8-4.3 1.6-7.2 6.9-11.5 8.5-4.3 1.6-9.9-.4-14.2 1-4.4 1.4-8.4 3.7-12.8 5-4.4 1.3-8.8 2.5-13.3 3.6s-8.6 3.9-13.1 4.7c-4.5.8-9.3.3-13.8.9-4.5.6-9.2-.9-13.8-.6-4.5.3-9 2.8-13.6 2.8s-9.3-.8-13.9-1c-4.6-.3-9.3.3-14-.2-4.6-.5-8.8-4-13.4-4.7-4.6-.7-9.5 1-14.1.1-4.5-.8-8.6-4-13.2-5-4.5-1-9.2-1.2-13.7-2.3-4.5-1.1-8.7-3.2-13.2-4.4-4.5-1.2-9.1-1.9-13.6-3.1-4.5-1.2-9-2-13.5-3.3-4.5-1.3-9.3-1.1-13.8-2.4-4.5-1.3-8.4-4.4-12.9-5.7-4.5-1.3-9.4-.8-13.9-2s-8.5-4.1-13-5.3c-4.5-1.2-9.1-1.9-13.6-3s-9.5-.2-14-1.1c-4.5-1-9.1-1.6-13.7-2.5-4.6-.8-8.7-4.5-13.3-5.1-4.6-.7-9.5 1.2-14.1.7s-9.2-.6-13.8-.9c-4.6-.3-9.2.3-13.9.3-4.6 0-9.3-.9-14.3-.6-4.7.3-9.2 2.2-14 2.8-4.7.6-9.6 0-14.2.9-4.7.9-9.8.5-14.3 1.8-4.7 1.4-8.2 5.6-12.4 7.5-4.5 2-9.3 2.8-13.1 5.4-4.1 2.8-6.7 6.6-9.7 10.1-3.1 3.6-8.1 6.2-9.8 10.8-1.5 4.3-2.1 9.4-2.1 14.5 0 4.5 3.5 8.5 4.8 13.1 1.2 4.3-.4 9.8 1.8 14 2.1 4 4.7 8.1 7.6 11.8 2.8 3.5 5.9 7.4 9.3 10.5 3.3 3 7.4 5.7 11.3 8.3 3.9 2.6 9.9 2.3 13.3 5.1 3.6 3 6.5 6.9 9.4 10.2 3.1 3.4 6.7 6.7 9.2 10.4 2.7 3.8 4.8 8.1 6.9 12 2.2 4 1.8 9.3 3.6 13.5 1.8 4.2 2.7 8.7 4.2 12.9 1.5 4.3 6.2 7.6 7.5 11.9 1.4 4.4-.5 9.7.8 14 1.3 4.4 4.4 8.3 5.8 12.5 1.5 4.4 2.9 8.8 4.6 12.8 1.9 4.3 3 8.9 5.4 12.7 1.8 2.8 4.9 4.6 7.7 6.6-1-1.9-1.9-3.9-3-6.3-1.8-3.9-5.8-7.7-6.7-12.8-.7-4.2 2.7-9.2 2.7-14.4 0-4.3-2.1-9.5-1.2-14.8.8-4.7 1.2-9.8 2.7-14.7 1.4-4.8 3.4-9.6 5.4-13.9 2.2-4.8 5.6-8.8 8.4-12.3 3-3.9 6.6-7.2 10.3-10.2 3.8-3.1 7-7.5 11.2-9.7 4.5-2.3 10.5-.2 15-1.5 5-1.4 9.3-5 13.7-5 4.9 0 9.1 2.4 13.3 3.3 4.7 1 10.1-.6 14.1 1.3 4.1 2 6.3 7.3 9.8 10.1 3.5 2.8 6.1 6.3 9.2 9.8 3 3.3 7.9 5.1 10.7 8.8 2.7 3.6 3.8 8.4 6.4 12.2 2.5 3.7 4.7 7.8 7.3 11.6 2.6 3.7 7.6 5.7 10.3 9.3 2.7 3.6 4.4 8 7.5 11.4 3 3.4 6.8 5.8 10.3 8.8 3.4 3 6.8 5.5 10.7 8 3.7 2.4 6.2 7.4 10.5 9.3 4 1.7 8.8 2.4 13.4 3.6 4.2 1.1 8.7 2.1 13.5 2.7 4.3.5 8.9 1.4 13.7 1.4 4.6 0 9.4-1.2 14.1-1.5 4.6-.3 9.5.5 14.1 0s9.1-2.6 13.8-3.2c4.7-.6 9.4-.4 14-.9 4.7-.6 9.3-1.2 13.9-1.5 4.7-.4 9.3-.9 13.9-.9 4.9 0 9.7-2.6 14-2 4.8.7 9.5 2.1 13.6 3.4 4.5 1.5 8.4 4.5 12.2 6.8 4 2.3 8.8 4 12.2 7 3.4 3 6.2 7.1 9.1 10.6 2.9 3.5 5.3 7.5 7.9 11.4 2.5 3.8 6.3 6.9 8.6 11 2.3 3.9 1 9.9 3.3 14 2.2 4 6.4 6.9 8.6 11 2.2 4 4.4 8 6.7 12 2.3 3.9 2.7 9.2 5.2 13.1 2.5 3.8 6.6 6.6 9.4 10.3 2.7 3.6 5.9 7 9.1 10.4 3 3.4 7.6 5.1 11.1 8.3 3.3 3 4.2 9.2 8 12 3.6 2.6 9.1 2.8 13.2 5.2 3.9 2.2 7.9 4.2 12.3 6.1 4.1 1.8 7.8 4.7 12.4 6.2 4.2 1.4 8.9 1.8 13.5 2.9 4.3 1.1 8.9 1.4 13.6 2.2 1.7.3 3.4.8 5.1 1.3 1.4-.1 2.9 0 4.2.2 2.6.5 5.2 1.2 7.8 1.9 3.3-.2 6.8-1 10.3-.8 4.4.2 9-.6 13.7-.6 4.9 0 9.7 2.7 14.3 2.3 4.9-.4 9.7-.7 14.3-1.4 4.9-.8 9.2-3.3 13.7-4.4 4.7-1.2 9.3-2.4 13.7-4 4.6-1.7 8.2-4.9 12.4-7 4.3-2.2 9-3.4 12.8-6.1 3.9-2.8 8-5.3 11.5-8.5s6.2-7.2 9.3-10.9c3-3.6 7.9-6 10.6-10.1 2.6-4 3.9-8.9 6-13.2 2.1-4.2 4.7-8.4 6.5-12.9 1.7-4.4.3-9.9 1.7-14.5 1.3-4.5 4.1-8.7 5.1-13.4 1-4.6 3.1-9.1 3.8-13.9.7-4.6 1.5-9.4 1.9-14.3.4-4.7-1-9.6-.8-14.4.2-4.7-1.6-9.5-1.6-14.3 0-4.8.5-9.4.3-14.1-.2-5.1 2.7-10 2.3-14.6z" fill="#ff5759"></path><path d="M633.3 57c11.5-3.4 22 6.3 23.5 17.3-2.6 2.2-5.9 3.9-9.3 3.7-8.3-.4-13.4-11.6-14.2-21z" fill="#e32426"></path><path d="M631.2 55.1c8.6-4.5 18.5.6 21.3 9.3-1.7 2.2-4.1 4-6.8 4.4-6.7.8-12.4-6.3-14.5-13.7z" fill="#ff5759"></path></g><g clip-path="url(#b)"><path d="M826.7 202.9c7.4 9.8 20.5 10.3 27.5 2.9-.9-3.3-2.6-6.7-5.5-8.7-6.9-4.8-16.4-.7-22 5.8z" fill="#e32426"></path></g><path d="M1122.1-165.4c-3.9-4.8-5.1-12.4-9.4-16.7-4.3-4.4-11.6-6-16.3-9.9-4.7-3.9-11.7-4.9-16.7-8.5-5-3.6-8.1-10-13.3-13.2-5.2-3.2-12.1-3.6-17.6-6.5-5.4-2.9-11-5.3-16.6-7.9-5.6-2.6-11.6-3.9-17.3-6.2-5.7-2.3-9.8-8.6-15.6-10.8-5.8-2.1-12.2-2.4-18.1-4.4-5.8-2-12.2-2.3-18-4.1-5.9-1.8-10.5-7.8-16.4-9.5-5.9-1.7-11.7-3.8-17.6-5.4-5.9-1.6-13.5 2.9-19.4 1.3-5.9-1.6-10.7-7.4-16.6-8.9-5.9-1.5-13 1.8-18.9.4-6-1.4-10.3-10.2-16.2-11.5-6-1.3-12.7.9-18.7-.2-6-1.2-11.7-4.1-17.7-5.1s-12.7 1.9-18.7 1c-6.1-.9-11.2-8.8-17.3-9.5-6.1-.7-12.5 1.3-18.6.8-6.1-.5-12.2-2.6-18.3-2.9-6.1-.4-12.6 8.2-18.7 8.1-6.1-.2-12.1-6.8-18.3-6.8-6.1.1-12.3.9-18.4 1.2-6.1.3-12.2.9-18.3 1.4-6.1.5-11.8 4.5-17.9 5.2-6.1.8-13-4.3-19.1-3.3-6 1-10.6 9.8-16.6 11.1-6 1.3-12.2.8-18.1 2.4-5.9 1.5-13.7-3.2-19.5-1.4-5.8 1.8-11.2 5.6-17 7.7-5.8 2.1-8.6 11.3-14.3 13.7-5.6 2.4-12.4 1.8-17.9 4.5-5.5 2.7-14-.1-19.3 2.9-5.3 3-10.8 6.4-15.9 9.6-5.1 3.3-7.2 11.3-12.2 14.9-4.7 3.4-8.2 8.5-12.7 12.4-4.5 3.9-11.3 5.4-15.2 9.8-4 4.5-4.7 11.3-7.8 16.2-3.2 5.1-5.8 9.8-7.7 15.4-1.9 5.6-.6 10.9-.9 16.9-.4 7.1-7.3 14.5-5.6 21.4 1.6 6.8 2.8 14.6 5.4 21.1 2.2 5.5 10.7 8.2 13.3 13.5 2.7 5.3-.2 13.8 2.9 18.9 3.1 5 8 9.2 11.5 14 3.5 4.8 13 4.7 16.8 9.2 3.8 4.5 2.8 13.5 6.9 17.6 4.2 4.2 12 4.4 16.5 8.2 4.5 3.8 4.4 13.8 9.2 17.2 4.8 3.5 12.7 2.4 17.8 5.5 2.3-.6.7-2.2 1.2-4.5 1.5-5.7 3.2-11.5 5.9-17.1 2.6-5.4 8.2-8.9 11.7-13.8 3.5-5 8.2-8.1 12.5-12.2 4.4-4.3 8.2-7.8 13.2-10.9 5.2-3.2 7.4-13.9 13.1-15.4 5.8-1.5 13.2 1.9 19.3 2.5 5.7.6 10.8 6.7 16.6 7.4 5.7.7 11.4.9 17.1 1.9 5.7 1 11.9-1.3 17.6 0 5.7 1.3 12.6-1.8 18.1-.1 5.6 1.7 10.7 5.4 16 7.5 5.4 2.2 9.2 7.8 14.2 10.6 5.2 2.9 11.2 4.5 15.8 8.2 4.6 3.7 12.2 4.8 16.3 9.1 4 4.3 6.7 10.4 10.3 15.2 3.6 4.7.4 14 3.6 19.1 3.2 5 7.4 9.2 10.3 14.3 2.9 5.2 12.2 7 14.9 12.2 3 5.7 4 12.5 6.9 18.3 3 5.8 6.1 11.3 9.5 16.8 3.4 5.6 7.2 10.3 11.5 15.2 4.3 4.8 8.5 8.8 14 12.4 4.8 3.1 7.5 10.6 12.8 12.4 5.3 1.8 12-1.2 17.6-.5 5.5.7 11.1 7.2 16.8 7.1 5.6-.1 10.6-10.2 16.2-10.9 5.6-.6 11.3.4 16.8-.5 5.5-1 11.7 1.4 17.3.4 5.6-1 10.4-7 16-7.7 5.6-.8 11.8 2.9 17.4 2.7 5.7-.2 11 2.7 16.6 3.3 5.6.6 11.5-1.6 17 0 5.7 1.7 13.2.2 18.3 2.9 5.2 2.8 6.8 11.5 11.5 15s11.1 4.9 15.5 8.7c4.4 3.9 7.9 8.7 12.2 12.7 4.3 4 11.8 4.4 16.2 8.2 4.3 3.7 7.9 8.4 12 12.4 4 4 4.9 11.1 8.7 15.2 3.9 4.1 8.9 7.1 12.7 11.2 3.9 4.1 8.8 7.1 12.7 11.2 3.9 4 8.8 6.8 13 10.7 4.1 3.8 7.6 8 12.1 11.5 4.4 3.5 4 13.6 8.7 16.8 4.6 3.2 12.2 2.2 17 5 4.9 2.8 9.5 6.2 14.6 8.6 5.1 2.4 11.4 1.9 16.7 3.8 5.3 1.9 10.4 4 15.8 5.4 5.4 1.4 10.2 7.3 15.8 8.1 5.6.7 11.5 2.6 17.1 2.7 5.6.1 11.7-.9 17.2-1.4 5.6-.5 10.9-4.3 16.4-5.4 5.5-1.1 11.2-1.9 16.5-3.5 5.4-1.6 10-5.4 15.3-7.4 5.2-2 12.2-.4 17.2-2.8s9-7.3 13.9-10.1 6-11.4 10.6-14.5c5-3.4 11.1-4.9 15.9-8.7 4.8-3.7 10.9-5.7 15.4-9.8 4.5-4.1 12.2-5 16.4-9.4 4.2-4.4 8.2-9.3 12.1-14 3.9-4.6 1.2-14.5 4.8-19.4 3.6-4.9 12.5-6.1 15.8-11.2 3.3-5.1 4.3-11.7 7.2-17s3-12 5.6-17.5c2.6-5.5 11.2-8.4 13.4-14.1 2.2-5.7 4-11.7 5.9-17.5 1.8-5.8 3.1-12 4.5-17.9 1.4-5.9 3.9-11.8 5-17.8 1-6-4.2-12.9-3.5-19 .6-6 3.3-11.9 3.5-18 .2-5.9.5-16.3-4.8-18.8" clip-path="url(#b)" fill="#ff8895"></path><g clip-path="url(#b)"><path d="M860 33.2c-4.6 4.6-8.5 10.7-9.2 17.1-.7 6.5 1.8 13.7 7.6 18.8 3-2.6 5.6-5.7 7.4-9.3 3.8-8.3 2.3-19.6-5.8-26.6z" fill="#ff5759"></path></g><g clip-path="url(#b)"><path d="M897.7 78.1c3.6 12.2 16.2 17.5 25.6 12.9.3-3.6-.1-7.4-2.2-10.4-4.9-7.2-15.6-6.8-23.4-2.5z" fill="#ff5759"></path></g><g clip-path="url(#b)"><path d="M958.8 96.4c12.7-1.4 20.1-12.8 17.3-22.9-3.4-.9-9.6 1.2-12.5 4-6.2 6.2-7.7 10.4-4.8 18.9z" fill="#ff8895"></path></g><g clip-path="url(#b)"><path d="M835.8 79.4c-2.2-6.1-6.1-12.2-11.6-15.6-5.6-3.4-13.2-4.1-20.2-1.1 1.1 3.8 2.8 7.5 5.3 10.6 5.9 7 16.7 10.5 26.5 6.1z" fill="#ff5759"></path></g><g clip-path="url(#b)"><path d="M835.7 79.3c-4-5.1-9.5-9.8-15.8-11.3-6.3-1.5-13.8.1-19.6 5.1 2.2 3.3 4.9 6.3 8.3 8.5 7.6 4.9 19 4.9 27.1-2.3z" fill="#ff8895"></path></g><g clip-path="url(#b)"><path d="M705.4 22.1c-.5 11.7 8.8 19.9 18.3 18.8 1.3-3 2.1-6.5 1.2-9.7-2.1-7.7-11.4-10.5-19.5-9.1z" fill="#e32426"></path></g><path d="M908.3 888.7v-521h-26.8v506.1c9.6 4.9 18.5 9.9 26.8 14.9z" fill="#256085"></path><path d="M196.3 503.9c0 236.5 390.9 282.8 390.9 282.8 146.7 21 245.1 59.3 308.8 94.9V376L199.7 259.9l-3.4 244z" fill="#01294d"></path><path d="M506.7 288.2c-3.2-1.7-17.8-2.7-20.9-2-5.4 1.2-11.3 8.8-17.8 16-1.5 1.7-3.5 3.2-2.8 5.8.3 1.1 1.1 2.1 2 2.9 3.4 3 8.3 3.3 12.8 3.1 2.4-.1 4.2-.6 6.1-2.2 4.6-3.9 6.9-10.6 14.2-6.7 7.4 4 15.3 17.4 21.8 11.9 2.7-2.3 4.2-6.5 3.3-10-.5-1.9-2.2-2.9-3.5-4.2-7.7-7.7-12.6-13.3-15.2-14.6z" fill="#bfe9ff"></path><path d="M520 306.1c1.9.9 3.8 1.8 5.8 2.7 0-.6-.1-1.3-.2-1.9-.5-1.9-2.2-2.9-3.5-4.2-4-4-7.9-8-12-12-1-1-2.1-2-3.3-2.6-3.1-1.7-17.7-2.6-20.8-2 4.7 3.2 17.3 11.9 34 20z" fill="#fff"></path><path d="M218.7 193c-10 21.6-18.9 50.2-18.9 76.3 0 26.7 9.4 52.4 35.9 52.4 37.9 0 61.8-47.8 61.8-83.5 0-38.1-27.7-57.1-49.5-57.1-7.4 0-22.3 3.9-29.3 11.9" fill="#003a60"></path><g fill="#326c91"><path d="M892.8 597.2c-5.2 5.5-7.5 8.4-16.5 17.5-12.6 12.7-12.3 13.1-24.9 25.8-12.6 12.7-13.7 11.6-26.3 24.3-12.6 12.7-11.5 13.8-24.1 26.5-12.6 12.7-13.4 11.9-26 24.6-12.6 12.7-12.1 13.3-24.7 26s-12.3 13-24.9 25.7c-12.6 12.7-12.9 12.5-25.5 25.2-6.1 6.1-9.2 9.3-12.2 12.5 12.6 2.9 24.7 5.9 36.4 9 5.2-6 7.4-8.7 16-18.5 11.7-13.4 11.5-13.6 23.2-27s13-12.3 24.7-25.7c11.7-13.4 10.9-14.1 22.7-27.4 11.7-13.4 12.1-13.1 23.8-26.4 11.7-13.4 12-13.2 23.7-26.5 11.7-13.4 11.3-13.8 23-27.1 5.6-6.3 8.6-9.6 11.4-12.7v-25.8zm0-28.1c-1.9 1.6-4 3.4-6.8 5.8-13.5 11.6-13.1 12-26.5 23.6-13.5 11.6-14 11-27.4 22.6-13.5 11.6-12.8 12.4-26.2 24-13.5 11.6-13.8 11.2-27.2 22.8-13.5 11.6-13.4 11.6-26.9 23.2-13.5 11.6-13.6 11.4-27.1 23-13.5 11.6-13.1 12-26.6 23.5-13.5 11.6-12.8 12.3-26.3 23.9-13.5 11.6-14.3 10.6-27.7 22.2-5.8 5-9.1 7.8-12 10.4 16.9 3 33.1 6.3 48.6 9.7 2.6-2.9 5.5-6 10.9-11.4 12.5-12.4 13.8-11 26.3-23.4 12.5-12.4 12.6-12.3 25.1-24.7 12.5-12.4 12.4-12.5 24.9-24.8 12.5-12.4 12.5-12.4 25-24.7 12.5-12.4 12.4-12.4 24.9-24.8 12.5-12.4 12.3-12.6 24.8-24.9 12.5-12.4 11.4-13.4 23.9-25.8 12.5-12.4 13.3-11.6 25.8-23.9l.5-.5v-25.8zm0 54.8c-10.5 12.1-11.1 12.4-22.3 25.3-11.6 13.4-10.7 14.3-22.3 27.7-11.6 13.4-11.6 13.4-23.3 26.9-11.6 13.4-11.2 13.8-22.9 27.2-11.6 13.4-12.9 12.4-24.5 25.8s-9.8 15-21.4 28.4c-11.6 13.4-13 12.2-24.7 25.6-1.4 1.6-2.6 3-3.7 4.3 10.3 2.8 20.3 5.7 29.9 8.6 2.5-2.9 5.2-6.2 9.8-12 10.9-14 11.4-13.6 22.3-27.5 10.9-14 10.7-14.2 21.6-28.1l21.8-28c10.9-14 9.6-15 20.4-29 10.9-14 11.5-13.5 22.4-27.5 8.8-11.3 10.7-13.3 16.9-21.1v-26.6zm0-82.4c-10.1 7.4-11.2 9.1-24 18.2-14.4 10.3-14.3 10.4-28.7 20.7-14.4 10.3-14.3 10.5-28.7 20.8l-28.8 20.6c-14.4 10.3-14.8 9.7-29.2 20-14.4 10.3-14.8 9.7-29.2 20-14.4 10.3-14.5 10.1-28.9 20.4-14.4 10.3-13.5 11.5-27.9 21.8-14.4 10.3-14.9 9.6-29.3 19.9-14.4 10.3-14.1 10.7-28.5 21s-14.7 9.9-29.1 20.2c-12.8 9.2-14.8 9.5-25.2 16.7 19.9 3.6 31.9 5.1 31.9 5.1 13 1.9 25.6 3.8 37.8 6 .8-.7 1.6-1.4 2.6-2.2 13.6-11.5 13.6-11.6 27.3-23.1 13.6-11.5 14.1-11 27.8-22.5 13.6-11.5 12.6-12.7 26.3-24.2 13.6-11.5 14.4-10.6 28.1-22.1 13.6-11.5 14-11.1 27.6-22.7 13.6-11.5 13.6-11.6 27.3-23.1 13.6-11.5 12.5-12.9 26.1-24.4 13.6-11.5 14.9-10.1 28.5-21.6 13.6-11.5 12.5-12.8 26.2-24.4 10.8-9.1 13-11.1 20.2-17.2v-23.9zm0-27.3c-9.8 5.4-12 6.1-25 13.5-15.3 8.7-15.1 9-30.5 17.7-15.3 8.7-15.7 8.1-31 16.8-15.3 8.7-15.4 8.6-30.7 17.3-15.3 8.7-14.7 9.8-30 18.4-15.3 8.7-15.9 7.6-31.3 16.3-15.3 8.7-14.5 10.1-29.8 18.8-15.3 8.7-15.9 7.7-31.2 16.4-15.3 8.7-14.9 9.4-30.2 18.1-15.3 8.7-15.9 7.6-31.3 16.3-15.3 8.7-14.8 9.6-30.1 18.3-15.3 8.7-15.9 7.6-31.2 16.3-15.3 8.7-14.7 9.8-30 18.5s-15.2 8.9-30.5 17.6c-3.4 1.9-6.1 3.3-8.3 4.5 32.2 9.7 61.5 16.4 83.7 20.7 2.3-1.7 5.1-3.7 8.9-6.3 14.5-10.1 15.5-8.6 30-18.7s14-10.8 28.4-20.9c14.5-10.1 14.9-9.4 29.4-19.5 14.5-10.1 14.6-9.9 29.1-20 14.5-10.1 14.3-10.4 28.7-20.5 14.5-10.1 14-10.8 28.5-20.9 14.5-10.1 15.1-9.2 29.6-19.2s14.3-10.4 28.7-20.4c14.5-10.1 14.2-10.5 28.7-20.5 14.5-10.1 14.9-9.4 29.4-19.5 14.5-10.1 14.5-10 29-20.1 10.6-7.3 13-10 19.1-14.8v-24.2zm0-27.6c-6.3 2.5-10 3.9-21.1 8.5-16.4 6.9-16.7 6.4-33.1 13.3-16.4 6.9-16.3 7.3-32.7 14.2-16.4 6.9-16.6 6.5-33.1 13.4-16.4 6.9-16.3 7.2-32.8 14.1-16.4 6.9-16.3 7.2-32.8 14.1-16.4 6.9-16.3 7.2-32.8 14.1-16.4 6.9-16.7 6.4-33.1 13.3-16.4 6.9-16.5 6.8-32.9 13.7-16.4 6.9-16.2 7.4-32.7 14.3-16.4 6.9-16.2 7.5-32.6 14.4-16.4 6.9-16.8 6-33.3 12.9-16.4 6.9-16.3 7.3-32.7 14.2-16.4 6.9-16.9 5.8-33.4 12.7-16.4 6.9-16.5 6.8-32.9 13.7-16.4 6.9-16.1 7.8-32.5 14.7-15 6.3-16.4 6.7-29.1 12 33.1 17.4 67.9 30.9 100.3 41.2 9.6-5.7 10.9-7.9 24.1-15.2 15.5-8.5 16.3-6.9 31.8-15.3 15.5-8.5 14.6-10 30.1-18.5 15.5-8.5 15.4-8.6 30.8-17.1 15.5-8.5 15.8-7.8 31.3-16.3s15.7-8 31.2-16.5 15.3-8.8 30.7-17.3c15.5-8.5 15.8-7.9 31.2-16.4 15.5-8.5 15.5-8.4 30.9-16.9 15.5-8.5 14.9-9.5 30.3-18 15.5-8.5 16-7.4 31.5-15.9s14.7-9.9 30.1-18.4c15.5-8.5 16-7.5 31.4-16 15.5-8.5 15-9.2 30.5-17.7 8.7-4.8 12.7-6.5 17.3-8.7v-24.6zm0 333.1V762c-2.5 5.3-4.2 9.2-9.3 18.9-8.3 15.7-6.8 16.5-15.2 32.3-8.3 15.7-9.1 15.4-17.4 31.1-2.8 5.3-4.7 8.7-6.4 11.6 4 1.8 7.9 3.5 11.8 5.3 7.6-15.4 9-14.4 16.8-30 5.6-11.3 6.3-15.5 10.4-21.7-2.1 6.8-2.1 11-7.6 22-7.8 15.9-8.8 15.5-16.5 31.2 6.8 3.2 13.3 6.4 19.5 9.6 3.3-5.9 5.9-9.1 10.7-20.1 1.3-2.9 2.3-5.3 3.2-7.4v-20.7c-1.4 3.1-3.1 6.8-5.7 12.6-4.9 10.6-7.8 13.8-11.3 19.2.6-1.2 1.2-2.5 1.9-3.9 7.4-16.2 7.6-16.1 15.1-32.3z"></path><path d="M892.8 676.3v-24.7c-1 1.3-2.1 2.7-3.3 4.3-10.8 14.1-8.9 15.5-19.7 29.6-10.8 14.1-12.4 12.8-23.2 26.9-10.8 14.1-11.4 13.6-22.2 27.7-10.8 14.1-9.2 15.3-20 29.4-10.8 14.1-11.6 13.5-22.4 27.6-10.8 14.1-11.7 13.4-22.5 27.4 8.4 2.6 16.4 5.2 24.3 7.9 1.5-2.6 3.5-5.7 6.4-10 10.2-14.5 10.7-14.1 20.9-28.7 10.2-14.5 11.3-13.7 21.5-28.3 10.2-14.5 9-15.3 19.2-29.9 10.2-14.5 11.9-13.4 22-27.9.5-.7.9-1.4 1.4-2-2.9 5-4.8 8.8-11 17.8-10.1 14.6-10.9 14-20.9 28.6-10.1 14.6-9.6 14.9-19.7 29.5s-9 15.3-19.1 29.9c-8.4 12.1-10.4 13.7-16.6 22.3 6.3 2.2 12.4 4.4 18.4 6.7 1.4-2.1 3-4.7 5.1-7.9 9.5-15 11.5-13.8 21-28.8s7.4-16.4 16.9-31.4c7.7-12.2 10.7-13.5 16.6-21.6-2.6 4.7-4.5 8.6-10.1 17.4-9.4 15-10.2 14.5-19.6 29.4-9.4 15-9.2 15.1-18.6 30.1-4.2 6.7-6.4 10.5-8.3 13.9 12 4.6 23.3 9.2 33.9 13.9 2.9-6.7 3.8-10.5 9.7-21.5 8.4-15.7 9.4-15.1 17.8-30.7 8.4-15.7 8.5-15.6 16.9-31.2 2.3-4.2 3.9-7.3 5.3-9.9v-25.5c-2.2 3.5-4.5 7.2-8.5 14.2l-17.6 30.6c-6.1 10.6-8.3 13.7-11.9 19.6 1.4-2.6 3.1-5.7 5.6-9.9 8.9-15.3 9.2-15.2 18.1-30.5 7.9-13.6 8.2-15.4 14.3-26.3v-55.1c-2.4 3.5-5 7.2-9.8 14.2-.9 1.3-1.7 2.5-2.5 3.6 3.4-6.1 4.7-9.8 11.7-19.8.1-.3.3-.6.5-.9zm0-217.9c-12.3 3.1-14.2 2.7-29.3 6.8-16.9 4.6-16.6 5.8-33.5 10.4-16.9 4.6-16.8 4.8-33.7 9.4-16.9 4.6-17.3 3.2-34.2 7.8-16.9 4.6-16.5 6.1-33.4 10.7s-17.1 3.9-34 8.5-17 4.1-33.9 8.7-16.8 5-33.7 9.6c-16.9 4.6-17.1 4-34 8.6s-16.8 5.1-33.7 9.7c-16.9 4.6-16.8 4.9-33.7 9.5-16.9 4.6-16.9 4.5-33.8 9.1s-17.1 4-34 8.6-17 4.3-33.9 8.9c-16.9 4.6-16.8 5.1-33.7 9.7-16.9 4.6-16.7 5.5-33.6 10.1-16.9 4.6-17.2 3.4-34.1 8-16.9 4.6-16.9 4.7-33.8 9.3-16.9 4.6-17 4.2-33.9 8.8-4.5 1.2-7.8 2.1-10.5 2.9 24.5 29.3 56.4 53.3 90.8 72.9 2-.8 4.3-1.8 7.1-2.9 16.4-6.6 16.2-7.1 32.5-13.6 16.4-6.6 17-5 33.4-11.6s16-7.4 32.4-13.9c16.4-6.6 16.7-5.8 33-12.4s16.4-6.4 32.8-12.9c16.4-6.6 16.2-6.9 32.6-13.5 16.4-6.6 16.1-7.3 32.4-13.9 16.4-6.6 16.8-5.6 33.1-12.1 16.4-6.6 16.2-6.9 32.6-13.5 16.4-6.6 16.2-7 32.5-13.6 16.4-6.6 16.6-5.9 33-12.5s16.4-6.5 32.7-13.1c16.4-6.6 15.8-7.9 32.2-14.4 16.4-6.6 16.4-6.4 32.8-13s16.8-5.5 33.1-12.1c16.4-6.6 16.4-6.5 32.8-13 14.1-5.7 15.9-6.9 26.5-11.3v-24.7zm-694.6-87c1.5 0 3.1.1 4.9.2 17.8.7 17.8.6 35.7 1.3 17.8.7 17.8 2.4 35.6 3.1 17.8.7 17.9-.2 35.7.5 17.8.7 17.8.8 35.6 1.5s17.8.2 35.7.9c17.8.7 17.8 1.8 35.6 2.5s17.8 1.2 35.6 1.9 17.9-.9 35.7-.2c17.8.7 17.8.6 35.7 1.3 17.8.7 17.8 1.2 35.6 2 17.8.7 17.8 1.3 35.6 2s17.8.2 35.7.9c17.8.7 17.8.6 35.7 1.3 17.8.7 17.8.6 35.7 1.3 17.8.7 17.8 1.4 35.6 2.1 17.8.7 17.8.2 35.7.9 17.8.7 17.8 1.7 35.6 2.5 17.8.7 17.8.2 35.7.9 17.8.7 17.8 1.1 35.6 1.8 5.5.2 9.3.3 12.4.4v-26.3c-2.6-.5-5.7-1.1-9.9-1.8-17.2-2.9-17.5-1.1-34.8-4-17.2-2.9-17-4.4-34.2-7.3-17.2-2.9-17.3-2.3-34.6-5.2-17.2-2.9-17.2-3.3-34.4-6.2-17.2-2.9-17.2-3.2-34.4-6.1-17.2-2.9-17.3-2.6-34.5-5.5s-17.2-3.2-34.4-6.1c-17.2-2.9-17.5-1.6-34.7-4.6-17.2-2.9-17-4.4-34.2-7.3-17.2-2.9-17.2-2.9-34.5-5.8-17.2-2.9-17.3-2.8-34.5-5.7-17.2-2.9-17.3-2.5-34.5-5.4-17.2-2.9-17.3-2.3-34.6-5.2-17.2-2.9-17.2-3.1-34.4-6s-17-4.1-34.3-7c-17.2-2.9-17.3-2.4-34.6-5.3-17.2-2.9-17.1-3.7-34.3-6.6-17.2-2.9-17.3-2.8-34.5-5.7-17.2-2.9-17.3-2.7-34.5-5.7-14.8-2.5-17-2-28.3-3.7l-1.6 113.4zM892.8 431c-7.1.7-10.9.7-23.1 2.3-17.6 2.2-17.5 3.1-35.2 5.3-17.6 2.2-17.6 2.1-35.3 4.3-17.6 2.2-17.6 2.4-35.2 4.6-17.6 2.2-17.6 2.2-35.3 4.4-17.6 2.2-17.8.7-35.4 2.9-17.6 2.2-17.5 3.6-35.1 5.8-17.6 2.2-17.7 1.4-35.4 3.6-17.6 2.2-17.6 2.4-35.2 4.6-17.6 2.2-17.6 2.8-35.2 5s-17.7 1.4-35.3 3.6c-17.6 2.2-17.6 2.4-35.2 4.6-17.6 2.2-17.7 1.8-35.3 4-17.6 2.2-17.5 3.4-35.1 5.6-17.6 2.2-17.6 2.2-35.3 4.4-17.6 2.2-17.7 1.9-35.3 4.1-17.6 2.2-17.8 1-35.4 3.2s-17.5 3.2-35.1 5.4-17.6 2.6-35.2 4.8c-17.6 2.2-17.8.5-35.5 2.7-1.1.1-2 .3-3 .4 2.5 41.2 17.1 76.4 39.4 106.4 6.9-2.1 10.3-3.6 22.3-6.7 17-4.3 17-4.5 34-8.8 17-4.3 17.1-4.2 34.1-8.5s17-4.3 34.1-8.6c17-4.3 17.4-2.9 34.5-7.2 17-4.3 17-4.5 34-8.9 17-4.3 17-4.4 34.1-8.8 17-4.3 16.9-5 33.9-9.4 17-4.3 17-4.5 34-8.8 17-4.3 17.2-3.8 34.2-8.1 17-4.3 17-4.5 34.1-8.8 17-4.3 16.8-5.1 33.9-9.5 17-4.3 17-4.6 34-9 17-4.3 17.2-3.5 34.3-7.9 17-4.3 17.2-3.6 34.3-7.9 17-4.3 16.7-5.6 33.8-10 17-4.3 17.3-3.4 34.3-7.8 17-4.3 17.2-3.9 34.2-8.2 17-4.3 16.7-5.6 33.8-9.9 11-2.8 14.9-3.8 20.8-5.3V431zm0 417.1c-3.1 5.9-5.4 9.2-10.1 20.1-.8 1.9-1.5 3.5-2.2 5 3.6 1.9 7.1 3.7 10.5 5.6.7-2.2 1.2-4 1.7-5.8v-24.9zM873 402.9c-17.7-.4-17.7-1.3-35.4-1.7l-35.4-.8c-17.7-.4-17.7.2-35.4-.2s-17.7-.1-35.4-.5-17.7 0-35.4-.4-17.7-.7-35.4-1.1c-17.7-.4-17.7-1.4-35.4-1.8-17.7-.4-17.7.2-35.4-.2s-17.7-1.3-35.4-1.7c-17.7-.4-17.7.8-35.4.4s-17.7-.2-35.4-.6c-17.7-.4-17.7-.1-35.4-.5s-17.7-1.5-35.4-1.9c-17.7-.4-17.7-1-35.4-1.4-17.7-.4-17.7.4-35.4 0s-17.7-1-35.4-1.4c-17.7-.4-17.7.9-35.4.5s-17.7-1.1-35.4-1.5l-35.4-.8c-1 0-1.9 0-2.8-.1L196 503.1c1.4-.1 2.9-.3 4.6-.5 17.7-1.9 17.5-3.3 35.2-5.2 17.7-1.9 17.7-1.8 35.4-3.7 17.7-1.9 17.8-1.1 35.5-3l35.4-3.8c17.7-1.9 17.6-2.8 35.3-4.7 17.7-1.9 17.7-1.4 35.4-3.3s17.6-2.9 35.3-4.8c17.7-1.9 17.8-.7 35.5-2.6 17.7-1.9 17.6-2.5 35.3-4.4 17.7-1.9 17.7-1.6 35.4-3.5s17.8-1.3 35.4-3.2c17.7-1.9 17.6-2.4 35.3-4.3 17.7-1.9 17.7-1.8 35.4-3.7 17.7-1.9 17.6-2.4 35.3-4.3 17.7-1.9 17.7-1.7 35.4-3.6 17.7-1.9 17.6-2.9 35.3-4.8 17.7-1.9 17.7-1.4 35.4-3.3l35.4-3.8c17.7-1.9 17.6-2.3 35.3-4.2 10.3-1.1 14.6-1.5 19.9-1.9v-23.9c-4.9.4-9.2.6-19.4.3z"></path></g><path d="M892.8 569.1c-1.9 1.6-4 3.4-6.8 5.8-13.5 11.6-13.1 12-26.5 23.6-6.2 5.4-9.7 8.1-12.9 10.7-9.9 45-36.5 54.1-56.9 84.3-2.2 3.2-4.4 6.8-6.5 10.8 2.4-2.4 5.3-5.2 9.7-9.6 12.5-12.4 12.4-12.4 24.9-24.8 12.5-12.4 12.3-12.6 24.8-24.9 12.5-12.4 11.4-13.4 23.9-25.8 12.5-12.4 13.3-11.6 25.8-23.9l.5-.5v-25.7zm0 28.1c-5.2 5.5-7.5 8.4-16.5 17.5-12.6 12.7-12.3 13.1-24.9 25.8-12.6 12.7-13.7 11.6-26.3 24.3-12.6 12.7-11.5 13.8-24.1 26.5-10.8 10.9-12.9 11.9-21.2 19.9-7 15-13 34.3-16.6 57.9l.3-.3c11.7-13.4 13-12.3 24.7-25.7 11.7-13.4 10.9-14.1 22.7-27.4 11.7-13.4 12.1-13.1 23.8-26.4 11.7-13.4 12-13.2 23.7-26.5 11.7-13.4 11.3-13.8 23-27.1 5.6-6.3 8.6-9.6 11.4-12.7v-25.8zm0 26.7c-10.5 12.1-11.1 12.4-22.3 25.3-11.6 13.4-10.7 14.3-22.3 27.7-11.6 13.4-11.6 13.4-23.3 26.9-11.6 13.4-11.2 13.8-22.9 27.2-11.6 13.4-12.9 12.4-24.5 25.8-9.2 10.6-10 13.8-15.7 21.3-.3 2.5-.6 4.9-.8 7.5-1.1 12.2-1.6 24.9-2.6 37.1 2.2-2.6 4.9-5.8 8.8-10.9 10.9-14 11.4-13.6 22.3-27.5 10.9-14 10.7-14.2 21.6-28.1l21.8-28c10.9-14 9.6-15 20.4-29 10.9-14 11.5-13.5 22.4-27.5 8.8-11.3 10.7-13.3 16.9-21.1v-26.7zm-17.7-224.1c1.6.1 3.3.1 5.3.2 5.5.2 9.3.3 12.4.4v-26.3c-2.3-.4-4.9-.9-8.2-1.5-1 3.9-2.1 7.6-3.3 11.1-2 5.7-4 11-6.2 16.1zm17.7 141.7c-10.1 7.4-11.2 9.1-24 18.2-9.8 7-12.9 9.3-18.4 13.3-.2 8-.7 15.9-1.7 23.4-.5 3.5-1 6.8-1.6 10 12.9-11 12.1-12.5 25.5-23.8 10.8-9.1 13-11.1 20.2-17.2v-23.9zm0-138.7c-5.1.1-9.3.3-19 .1-3.9 9-7.9 17.6-11.5 26.9 2.8-.3 6.1-.7 10.6-1.2 10.3-1.1 14.6-1.5 19.9-1.9v-23.9zm-24.5 410.5c-8.3 15.7-9.1 15.4-17.4 31.1-2.8 5.3-4.7 8.7-6.4 11.6 4 1.8 7.9 3.5 11.8 5.3 7.6-15.4 9-14.4 16.8-30 5.6-11.3 6.3-15.5 10.4-21.7-2.1 6.8-2.1 11-7.6 22-7.8 15.9-8.8 15.5-16.5 31.2 6.8 3.2 13.3 6.4 19.5 9.6 3.3-5.9 5.9-9.1 10.7-20.1 1.3-2.9 2.3-5.3 3.2-7.4v-20.7c-1.4 3.1-3.1 6.8-5.7 12.6-4.9 10.6-7.8 13.8-11.3 19.2.6-1.2 1.2-2.5 1.9-3.9 7.5-16.2 7.7-16.2 15.1-32.3v-57.7c-2.5 5.3-4.2 9.2-9.3 18.9-8.4 15.7-6.9 16.5-15.2 32.3zm24.5 34.8c-3.1 5.9-5.4 9.2-10.1 20.1-.8 1.9-1.5 3.5-2.2 5 3.6 1.9 7.1 3.7 10.5 5.6.7-2.2 1.2-4 1.7-5.8v-24.9zm-109.1-15.8c1.5-2.6 3.5-5.7 6.4-10 10.2-14.5 10.7-14.1 20.9-28.7 10.2-14.5 11.3-13.7 21.5-28.3 10.2-14.5 9-15.3 19.2-29.9 10.2-14.5 11.9-13.4 22-27.9.5-.7.9-1.4 1.4-2-2.9 5-4.8 8.8-11 17.8-10.1 14.6-10.9 14-20.9 28.6-10.1 14.6-9.6 14.9-19.7 29.5s-9 15.3-19.1 29.9c-8.4 12.1-10.4 13.7-16.6 22.3 6.3 2.2 12.4 4.4 18.4 6.7 1.4-2.1 3-4.7 5.1-7.9 9.5-15 11.5-13.8 21-28.8s7.4-16.4 16.9-31.4c7.7-12.2 10.7-13.5 16.6-21.6-2.6 4.7-4.5 8.6-10.1 17.4-9.4 15-10.2 14.5-19.6 29.4-9.4 15-9.2 15.1-18.6 30.1-4.2 6.7-6.4 10.5-8.3 13.9 12 4.6 23.3 9.2 33.9 13.9 2.9-6.7 3.8-10.5 9.7-21.5 8.4-15.7 9.4-15.1 17.8-30.7 8.4-15.7 8.5-15.6 16.9-31.2 2.3-4.2 3.9-7.3 5.3-9.9v-25.5c-2.2 3.5-4.5 7.2-8.5 14.2l-17.6 30.6c-6.1 10.6-8.3 13.7-11.9 19.6 1.4-2.6 3.1-5.7 5.6-9.9 8.9-15.3 9.2-15.2 18.1-30.5 7.9-13.6 8.2-15.4 14.3-26.3v-55.1c-2.4 3.5-5 7.2-9.8 14.2-.9 1.3-1.7 2.5-2.5 3.6 3.4-6.1 4.7-9.8 11.7-19.8l.6-.9v-24.7c-1 1.3-2.1 2.7-3.3 4.3-10.8 14.1-8.9 15.5-19.7 29.6-10.8 14.1-12.4 12.8-23.2 26.9-10.8 14.1-11.4 13.6-22.2 27.7-10.8 14.1-9.2 15.3-20 29.4-10.8 14.1-11.6 13.5-22.4 27.6-10.8 14.1-11.7 13.4-22.5 27.4 8.3 2.6 16.4 5.3 24.2 7.9zM892.8 431c-7.1.7-10.9.7-23.1 2.3-3.7.5-6.6.9-9.1 1.2-3.3 9.3-6.3 19.4-8.3 31.6 5.3-1.7 9.3-3.2 19.6-5.9 11-2.8 14.9-3.8 20.8-5.3V431zm0 83.2c-9.8 5.4-12 6.1-25 13.5-9.3 5.3-12.9 7.5-17.7 10.3.3 10.5.6 21 .4 31.1 9-6.2 10.9-7.5 23.1-16 10.6-7.3 13-10 19.1-14.8v-24.1zM892.8 458.4c-12.3 3.1-14.2 2.7-29.3 6.8-5.1 1.4-8.7 2.5-11.6 3.4-.5 3.6-1 7.4-1.4 11.4-.6 6.8-.9 13.8-1 20.9 4.2-1.7 8.3-3.3 16.7-6.7 14.1-5.7 15.9-6.9 26.5-11.3v-24.5zM892.8 486.6c-6.3 2.5-10 3.9-21.1 8.5-11.8 4.9-15.2 6.1-22.3 8.8-.1 10.1.2 20.5.5 30.8 10.6-6 11.9-7.5 25.5-14.9 8.7-4.8 12.7-6.5 17.3-8.7v-24.5z" fill="#256085"></path><g><path d="M573.7 421.8c.1.2.2.5.2.8-.1-.3-.2-.6-.2-.8zM453.9 726.2c7.2 3.4 12.4 4.8 20.1 6.8 7.2 1.6 14.6 2.6 22 3.4-1.3 4-1.2 4.6.5 5.1 5 1.6 10.4 2.2 15.7 2.7 23.8 2.6 23.8 3.7 26.2-2.1 2.3.5 15 3.3 17 4.2 4.7 2.1 3.7 12.6 4.3 23.9-1.7 2.2-2.8 5.3-2.3 11 0 .3 0 .5.1.8 18.6 3.3 29.8 4.7 29.8 4.7 2.6.4 5.2.8 7.8 1.1-.2-14.2-.8-28.1-1.5-41.1-1.3-18.7-1.3-32.3-8-44.1-4.4-7.4-10.4-14.5-16.4-20.6-6.3-6.3-12.2-10.8-12.5-11-3.5-2.7-13.7-9.8-17.2-12.1-30.8-13.9-15.4-87.9-15.4-87.9-1.9-33.4 5.3-56.9 7.9-73 2.1-12.5 3-25.3 3.3-37.9.2-5.6 2.2-11 2.6-16.6.4-5.6-.1-11.4-1.5-16.9-.7-2.8-1.7-5.6-1.6-8.5.1-2.9 1.3-4.6 3.3-6.6 1.1-1.1 1.9-1.1 1.7-2.9-.4-3.9-5.9-6.5-6.5-10.3-1.1-7.8-2.9-14.7-7.1-21.2-12.5-19-35.6-18.1-46.9-2.7-8.7 11.8-5.4 22.8-6.9 53.3-1.1.4-2.7 1.7-6.3 2.4-3.5.6-2.6 1-4.6 2-6.7 4.6-7.1 4.7-9.1 8.2-.5.5-1 1-1.5 1.6-5.4 5.7-11.1 7.7-12.9 12.5-2.9 7.6 1.4 14.3 6.9 19.6-25.3 59.9-27.4 88.4-29.1 141.5-.9 29.1-2.4 65.7 13 89.4 2 2.9 13.9 15.9 25.1 21.3z" fill="#01294d"></path><path d="M510.8 607.9c-13.3-11.3-16.2-23.1-18.3-39.6-2.5-19.3-4.5-60.9-.1-78.5 7.5-29.6 33.7-34.4 53.6-26.2 9.6 4 11.6 8.5 12.3 17.5 1.6 18.6-.9 37.3-2.8 55.8-2.2 20.3.8 22.5 7.8 38 7 15.6 9.1 33.4 5.9 50.2-1 5.3-2.9 11-7.6 13.8-4.7 2.8-10.9 1.5-15.6-1.4-4.6-2.9-8.2-7.2-12.1-11-7.1-6.9-15.6-12.2-23.1-18.6zM199.5 278.5c5.8 3.4 12.4 5.6 18.9 7.2 92.6 24 131.6 19.7 144.8 25.3 4.4 1.9 3.6 2.9 2.6 8.1-6.2 34.2-14.7 77.8-23.3 119-5.7.6-5.3 7.9-3.2 12.3.2 0 .4.1.5.1-11.4 53.4-9.6 41.5-13.8 56.8-1.5 5.6-2.4 8.5 1.3 13 .6.8 1.3 1.5 2.1 2.2.7.6 1.5 1.3 2.4 1.9.8.6 1.8 1.2 2.6 1.7.7.4 1.7.9 2.7 1.4.7.4 1.7.8 2.8 1.2.9.4 1.9.8 2.8 1.1 3.6 1.4 7.3 2.8 10.5 4.5 13.1 6.9 22.3 20.8 36.6 25 4.2 1.3 13.7 2.5 17.6 1.3 1.9-.6 3.7-1.9 4.3-3.8 1.9-5.9-6.1-9-21.3-27.7-8.1-10-15.6-21.3-20.7-33.3-4.1-9.7-4-20.6 0-30.3.7-1.7 1.4-3.4 2.2-5.1 3.7 1.4 5.9-5 5.9-8.9 0-1-.3-2-.9-2.9 6.4-14.9 13.1-30.1 18.7-45 11.8-31.2 29.6-61.1 32.9-94.7.5-5 .5-9-.4-12.7l-228.4-38.7-.2 21z" fill="#01294d"></path><path d="M522.8 450.3c19.9-8 39.9-16 59.8-24.1 9.4-3.8 18.9-7.7 27.6-12.9 9.3-5.6 17.6-12.7 25.9-19.8 13-11.2 26.1-22.3 39.1-33.5 6.3-5.4 13.5-11.2 21.9-10.9 3.6.1 7.6 2 8.3 5.5.7 3.4-1.9 6.6-4.4 9.1-17.1 17.4-34.3 34.8-51.4 52.2-6.1 6.2-12.2 12.4-18.9 18.1-10 8.5-21.1 15.7-32.2 22.9-21.5 13.9-43 27.9-64.6 41.8" fill="#01294d"></path><path d="M494.9 307.3c5.8 13.6 11.1 26.2 16.2 40.1 5.9 16.1 6.2 21.4 2.1 38.7-6.4 27.5-12.9 54.9-19.9 82.2-2.6 10.3-5.3 21.2-2 31.3 3.3 10.1 15.3 18 24.7 13.1 6.8-3.6 9.4-11.8 11.3-19.3 19.9-77.8 20.4-78.2 20.7-86 .3-7.5-1.3-14.9-3.1-22.2-6.4-25.9-14.5-50.1-24.8-74.7l-25.2-3.2z" fill="#01294d"></path></g><g><path d="M627.3 240.1c-14.5 26.2-29.2 53-35.4 82.3-.7 3.4-1.3 7-.6 10.5 1.5 7.4 11.4 11.2 17.8 6.2 2.4-1.9 4.1-4.5 5.8-7 10.8-16.3 21-33 30.6-50.1 6.5-11.6 10.1-24.7 9.2-38-.8-12.3-10.1-19.8-19.8-12.5-5.1 3.8-7.6 8.6-7.6 8.6z" fill="#195378"></path><path d="M637.6 251.2c0 7.3-.4 15.4-4.1 21.7-3.1 5.2-8.3 9-10.7 14.5-2 4.7-1.6 10.1-2.3 15.1-1.3 9.3-6.3 17.6-11.8 25.2-3.2 4.4-6.7 8.7-9.8 13.1 3.3 1 7.2.6 10.2-1.8 2.4-1.9 4.1-4.5 5.8-7 7.4-11.2 14.5-22.6 21.4-34.2.7-3 1.3-6 1.9-9.1 2-12.3 2.8-25.2-.6-37.5z" fill="#4a85a9"></path><path d="M743 361.4c14.5-87 16.1-94.5 14-114-.9-8.6-10.3-15-17.8-19.6-15.8-9.7-34.2-15.3-52.8-16.1-15.7-.7-52.1 11-56.6 26-2.1 7 3.2 31.8 11.2 104.1l102 19.6z" fill="#195378"></path><path d="M739.6 239.6c2.2-3.3 8.1-6.1 10.7-3.8 3.1 2.9 5.3 5.1 7.2 8 9 13.6 12.8 29.9 15.7 46 2 10.7 3.7 21.4 5.1 32.2.5 3.9 1 7.8.5 11.7-1.3 10.1-9.3 13-15.7 7.4-2.5-2.2-4.2-5.3-5.8-8.2-13.8-26-32.6-68-17.7-93.3" fill="#195378"></path><path d="M771.6 343.7c3.6-.8 6.5-4.2 7.2-10 .5-3.9 0-7.8-.5-11.7-1.4-10.8-3.1-21.5-5.1-32.2-3-16-6.7-32.4-15.7-46-1.6-2.4-3.4-4.4-5.8-6.7-3.6-3.7-8.3-6.8-12.5-9.4-11.5-7.1-24.4-12-37.7-14.4l-3.8 13.7s8.2.3 28.7 3.9c6 1.1 12.6 3 15.3 8.5 1.9 3.9 2.7 16.3 4.5 20.3 2.5 5.5 8.7 8.1 12.8 12.6 4.1 4.4 5.9 10.5 7.3 16.3 4.3 18.1 6.1 36.7 5.3 55.1zm-146.7-99.2c8.5-9.9 16.9-11.9 29.6-14 19.9-3.3 29.8-2.9 30.4-2.5l.9-16.3c-15.1-.3-47.5 9.9-54.9 23.5-2.4 2.7-3.6 5-3.6 5-.8 1.4-1.6 2.8-2.4 4.3z" fill="#4a85a9"></path><path d="M676.8 232.1c-2.5-2.2-3.9-5.1-4.8-9.4-1.1-5.3-1.5-12.7-2.5-23.9-.5-5.1.2-9.5 3.6-13.6 5.3-6.3 15.3-9.6 24.5-7.2 10 2.7 9 9.5 9.5 15 .5 5.7 1.4 17.9 1.4 17.9-1.1.3-13.5 16.3-13.5 16.3l-10.2.9-8 4z" fill="#88c4e7"></path><path d="M708.6 210.9s-.9-12.2-1.4-17.9c-.4-5.4.4-12-8.7-14.8 6.3 18.3 1.9 31 1.8 42.5 3.4-4.5 7.6-9.6 8.3-9.8z" fill="#fff"></path><path d="M684.9 228l8.7 13.1s13-7.7 15.9-26l-1.2-8.2c0 .1-3.4 13.6-23.4 21.1z" fill="#fff"></path><path d="M678.2 240.3l6.7-12.3s-12.3-2.1-13.4-17.3l-.9.4s-3.4 14.2 7.6 29.2z" fill="#fff"></path><path d="M662.4 157.8c-6.8 18.8-2.7 36.6 5 55.1 1.4 3.2 2.8 6.5 5.1 9.2 5 5.9 12 6.8 18.2 1.7 11.8-9.8 31.4-58.2 7.7-74-9.5-6.4-31.2-4.8-36 8z" fill="#95d0f3"></path><path d="M698.4 149.8c-.4-.3-.8-.5-1.3-.8-4.4 3.6-8.2 7.9-8.2 13.4-.1 3.9 1.9 7.6 3.5 11.2 8.2 18.5 5.3 31.5 4.3 42.9 10.9-17.1 21.5-53.4 1.7-66.7z" fill="#fff"></path><path d="M704.1 198.5c-.5 1.7 3.6 3.7 7.7-8.4.8-2.3 2.2-7.1.4-8.7-.8-.7-2.1-.6-3.1-.1-.9.6-1.6 1.5-2.2 2.4l-2.8 14.8z" fill="#fff"></path><path d="M663.7 161.9c-2.4 6-1.6 9.6-2.3 13.3-.4 2.5-1.5 5.1-1.8 10.4-3-11.5-.9-23 .9-25.6.3-.5.6-.5 1.1-.3 1.4.4 1.7.5 2 .8.2.2.3.6.2.9" fill="#01183a"></path><path d="M655 164.3c1.1-1.3 3-1.8 4.6-1.3 1.8.6 2.9 1.7 4.9 1.7 28.6-.3 23.7-.9 36.8-8.5 1.8-1 2.9-2.5 1.7-4.5-2-3.5-5.9-5.4-9.7-6.5-21.6-6.1-38.4 10.6-38.8 19.5" fill="#01183a"></path><path d="M692.7 164.3c1.1.3 2.2.2 3.3.6 3.6 1.2 4.4 5.5 4.9 8.9.9 6.3.3 5 3.1 7.2.3.2.6.5.8.8.2.5.2.6-.2 6.3 1.8-.6 2-.6 2.1-.8.3-.4.5-4 1.1-5.1.7-1.3 2.2-1.5 2.4-6.1.4-7-1.8-19.3-7.4-22.8-3.8 4.4-5.6 6.9-10.1 11z" fill="#003256"></path><path d="M669.8 201.6c2.9.2 5.7 0 8.6-.5.9-.2.5-1.6-.4-1.4-2.7.4-5.4.6-8.2.4-.9 0-.9 1.4 0 1.5z" fill="#88c4e7"></path><path d="M683.9 228.6c3.7 38 2 76.6 2.1 114.7 0 1 1.5 1 1.5 0-.1-38.1 1.6-76.7-2.1-114.7-.1-.9-1.6-.9-1.5 0z" fill="#003c62"></path><path d="M696.7 146.5c1.3.7 2.3 2.4 1.7 3.7-.3.5-.7.9-1.2 1.3-5.5 4-9.8 2.8-11.9 3.7-1 .4-1.8 1.4-1.7 2.4.1.7.6 1.5-1.2 2.7-4.7 3.2-10.7 3.8-16.3 4.3 26.9-.3 22.5-1 35.3-8.5 1.8-1 2.9-2.5 1.7-4.5-2-3.5-5.9-5.4-9.7-6.5l-.9-.3c1.4.4 2.9 1 4.2 1.7z" fill="#003256"></path><path d="M658.8 186.9c.1-.4 5.4-.3 6.1-.4 1 0 2-.1 3-.1 1.6 0 2.5-.6 2.6 1.4.1 1 .5 2.8.1 3.7-.1.4-1 .6-1.7.9-2.5.8-5.6 1.2-8.2 1-1.3-.1-1.3-.6-1.5-1.9-.3-1.6-.3-3.3-.3-4.9 0-1-1.5-1-1.5 0 0 2.4-.5 7.9 2.8 8.2 2 .2 4.3-.2 6.3-.5 1.5-.2 3.7-.5 5-1.5.7-.6.7-1.2.7-2.1 0-1.5.4-4.6-.9-5.6-.7-.5-1.7-.3-2.4-.3-1.7 0-3.4.1-5.1.2-1.6.1-5.6-.5-6.3 1.4-.4 1 1 1.4 1.3.5zm18-.6c.2 1.6.1 4.1 1 5.5 1.4 2 5.6 1.4 7.5 1.5 2.2 0 6.8.6 8.5-1.3 1.7-1.9.7-5.8.4-8 0-.4-.3-.7-.7-.7-4.2-.2-8.3-.1-12.5.2-2.3.2-4 .2-4.3 2.7-.1.9 1.4.9 1.5 0 .3-2.5 13.4-1.5 15.3-1.4l-.7-.7c.3 2.2 1.3 6.2-1.2 7.5-1.7.9-5.6.3-7.5.3-1.5-.1-4.5.1-5.2-1.3-.6-1.1-.5-3.3-.7-4.5-.2-1.1-1.6-.7-1.4.2z" fill="#003c62"></path><path d="M671.7 187.7c1.5-1.1 3.5-1.1 5.2-.5.9.3 1.3-1.1.4-1.4-2-.7-4.6-.7-6.4.7-.7.5 0 1.8.8 1.2zm22.5-2.9c2.4-1.3 4.8-2.4 7.3-3.4 2.2-.9 5.6-2.8 7.8-1.1.8.6 1.5-.7.7-1.3-2.2-1.6-4.6-.7-6.9.2-3.4 1.2-6.6 2.7-9.8 4.4-.7.3 0 1.6.9 1.2z" fill="#003c62"></path><path d="M707.4 189.2c.5-1.9 1-6.6 3.5-7 1.3.2 1.7 1.2 1.7 2.4 0 1.9-2.4 9.7-3.4 9.7-.2 0-2.5-.7-2.5-2.3 0-.9.4-1.9.7-2.8z" fill="#bfe9ff"></path><g fill="#fff"><circle cx="680.9" cy="248.6" r="1.9"></circle><circle cx="681.6" cy="276" r="1.9"></circle><circle cx="681.8" cy="302.8" r="1.9"></circle></g></g><g><path d="M699.5 294.2c-2.4 4-5 7.7-8 11.3-1.8 2.2-2.6 3.9-.4 5.6 2.3 1.9 6.8 4.3 9 2.3.9-.8 1-2.1 1.2-3.3.1-1.2.3-2.4.4-3.6l-2.2-12.3z" fill="#95d0f3"></path><path d="M556.1 635.6c6.6-8 7.8-17.7 11.8-28.6l-18.7-69.7c-1.4-.4-2.8-.4-4.3-.1-13.1 2.9-18.6 18.7-18.6 32.1 0 17.7 8.8 20.7 12.1 32 2.6 9 .2 32 15.5 36.3.8-.6 1.6-1.2 2.2-2z" fill="#003a60"></path><path d="M572.7 625.3l-4.9-18.2c-4 10.9-5.1 20.6-11.8 28.6-.6.7-1.4 1.4-2.2 2.1 1.6.4 3.4.7 5.4.7 7.6-.1 10.9-6.2 13.5-13.2z" fill="#7cb7da"></path><path d="M587.5 578.1l2.2 3c.4-.8.9-1.7 1.4-2.6L571 546.3c-1.3 5.9-2.8 12.1-4.3 18.8-.2.8-.4 1.5-.6 2.3-2.7-3.3-4.4-7.3-5.9-11.3-2.2-6-3.9-16.6-11.1-18.8-5.6-1.7-12.6 3.6-15.6 8.8-4.8 8.1-8 26-.5 40.5 2.3 4.5 5.6 8.7 7.1 13.5 2.2 7.1.6 15.2 3.6 22 2.6 5.7 7.5 10.4 13.6 11.7 10.4-14.2 5.9-33.7 30.2-55.7z" fill="#326c91"></path><path d="M568.2 632.2c3-2.2 4.3-6 5.4-9.5 2.3-7 4.6-14.1 7-21.1.8-2.4 1.3-4.7 1.4-7.1 1.7-2.5 4.4-7.3 7.7-13.4l-2.2-3c-24.3 21.9-19.8 41.4-30.1 55.7.3.1.6.1 1 .2 3.4.6 7.1.2 9.8-1.8z" fill="#b0e3ff"></path><path d="M644.3 424.6c-3.3-3.1-6.7-6.3-10.9-8.1-9.2-4.1-20.5-.5-27.6 6.6-13.1 13-14.3 22.8-17.3 35.9-25.1 109.2-25.4 108-24.9 116 .4 6 2.2 11.8 5.4 16.9.2.3.3.5.5.8 1.5 2.2 3.2 4.2 5.3 5.6 2.2 1.4 4.8 2.3 7.4 1.9 4.2-.6 6.3-4.5 8.2-7.9 9.5-17.3 32.2-75.1 39.7-91.2.2-.3.3-.7.5-1 14.8 20.4 30.3 40.1 46.6 59.3 12.7 8.6 28.8 13 44.3 14.2 12.2.9 25.5-.2 34.9-8 1.1-8.8-.8-18.3-4.1-26.1-12.4-30.7-83.8-92.2-108-114.9z" fill="#01294d"></path><path d="M544.5 565.2c4.6-4.1 9.9-7 15.9-8.7 1.8-.5 1.1-3.4-.8-2.9-6.4 1.8-12.2 5-17.2 9.5-1.4 1.3.7 3.4 2.1 2.1zm1.9 4.7c4.6-4.3 10.2-6.8 16-9.1 1.8-.7 1-3.6-.8-2.9-6.2 2.5-12.3 5.2-17.3 9.8-1.4 1.4.7 3.5 2.1 2.2zm2.4 4.6c4.5-4.1 9.6-7.3 15.3-9.7 1.7-.7 1-3.6-.8-2.9-6.1 2.5-11.7 6-16.6 10.4-1.4 1.4.7 3.5 2.1 2.2zm1.9 4.1c4.9-4.1 10.4-7.5 16.3-10.1 1.7-.8.2-3.3-1.5-2.6-6.1 2.7-11.7 6.2-16.9 10.6-1.4 1.3.7 3.4 2.1 2.1zm2.2 4.2c2.6-2.1 5.2-4.1 8.1-5.8 1.3-.8 2.5-1.5 3.8-2.2l1.8-.9c.6-.4.9-.5-.1-.1-.6-.7-1.1-1.4-1.7-2.2v.1c.7-.2 1.4-.4 2-.5-1.6-1.1-3.1 1.5-1.5 2.6.6.4 1.7.1 2-.5v-.1c.5-1-.4-2.7-1.7-2.2-2.2.8-4.6 2.4-6.6 3.7-2.9 1.8-5.6 3.8-8.2 6-1.4 1.3.7 3.4 2.1 2.1z" fill="#dcf4ff"></path><path d="M568.1 603.3c-7.5 0-17.6 6.8-25.9 13.5.3 1.8.8 3.6 1.5 5.3 2.6 5.7 7.5 10.4 13.6 11.7 6.1-8.5 7-18.9 11.8-30.5h-1z" fill="#01294d"></path><path d="M568.2 632.2c3-2.2 4.3-6 5.4-9.5 1.6-4.7 3.1-9.4 4.7-14.1-1.7-3.1-4.6-4.9-9-5.2-4.8 11.6-5.7 22-11.8 30.5.3.1.6.1 1 .2 3.3.5 7 .1 9.7-1.9z" fill="#326c91"></path><path d="M558.8 551.7c-1.8-5.8-4-12.7-9.7-14.3-5.6-1.7-12.6 3.6-15.6 8.8-3.9 6.7-6.8 19.8-3.6 32.3 5.5-6.5 7.8-20.1 28.9-26.8z" fill="#01294d"></path><path d="M584.1 867c-1.3 2.1-3.1 5.1-3.1 7.8 0 7.5 16.1 12 23.7 12 21.2 0 19.9-18.9 33.6-30.6 4.7-4 15.8-10.6 15.8-20.5 0-5.8-4.6-10-11.7-10-3.3 0-7.1.8-10.7 2.5l-21.6 35-26 3.8z" fill="#003a60"></path><path d="M631.6 828.1l-21.6 35-25.9 3.9c-1.3 2.1-3.1 5.1-3.1 7.8 0 7.5 16.1 12 23.7 12 21.2 0 19.9-18.9 33.6-30.6 1.3-1.1 3-2.3 4.8-3.8-.3-8.8-1-17.8-1.4-26.7-3.2.1-6.7.8-10.1 2.4z" fill="#003a60"></path><path d="M654 835.6c0-5.8-4.6-10-11.7-10h-.7c.4 9 1 17.9 1.4 26.7 5-3.9 11-9.4 11-16.7z" fill="#7cb7da"></path><path d="M660.1 706.3c4.3 1 9.4.1 8.5 11.7-3.3 39.6-2.7 40.5-5.6 43-2 1.7-5.7 1.7-8.2 1.3-1.2-.2-1.4-.6-1.4-1.5-.9-12 .6-24 2.1-35.9 2.1-16.2 2.5-18.1 4.3-18.6m76.3-79.9c2.9 7.2 3.6 7.7 1.2 9.8-5.1 4.4-10.8 8.1-16.4 11.9-24.6 16.3-26.6 18.7-28.9 14.9-1-1.6-7.3-12.3-7.2-14.2.1-.9.8-1.7 1.5-2.3 10.8-10 26.6-24.7 40.2-28.8 2.1-.6 3-.4 4.5 1.6 1.8 2.3 3.4 4.8 4.8 7.4" fill="#01294d"></path><path d="M645 775.4l-21.4-2.3c0 8.9-.1 17.8-.1 26.6v2c-16.9 41.1-21.3 50.5-24.2 53.8-5 5.7-13.4 7.1-16.1 10.2-2.1 2.5-1.8 6.4-.1 9.1 4.4 6.8 22 12.8 32.4 5.3 6.8-4.8 12.8-18.1 22.8-27.9 1.4-1.4 2.9-2.7 4.3-4-.6-12.6-1.6-25.5-1.6-38.3.2-10.6 1.4-22.8 4-34.5z" fill="#326c91"></path><path d="M652.2 835.1c1.2-5.1-.4-10.4-1-15.5-.9-7.1-.1-14.3.9-21.3 1.2-5.9 2.2-12.8 3.3-21.7l-10.4-1.1c-2.6 11.8-3.8 24-3.8 34.5 0 12.9 1 25.7 1.6 38.3 4.2-3.9 8.2-7.9 9.4-13.2z" fill="#b0e3ff"></path><path d="M719.9 496.4l-12.4-12.5c-.4 3.8-.9 7.8-1.5 11.9-2.7 17.5-.8 35.6 3.2 52.8 2.1 8.7-2.2 10-8.4 15.8-6.6 6.1-12.9 12.5-19 19.1-16.1 16-30.5 33.8-42.8 52.9-13.4 20.8-16.2 31.2-18.3 57.7-2.1 25.8-3.2 51.7-3.4 77.6 0 7.4.9 16.5 7.7 19.6 3.5 1.5 12.7 2.8 17.5 2.9 3.8.1 7.5-.4 11.3-1 8.2-1.3 8.3-22.3 12.3-92.1.4-7.6-.8-18.4 5.7-23.6 24-19.2 41-30.7 53.8-39 28.1-17.6 55.9-35.7 71.4-65 5.1-9.7 8.3-19.8 10.2-30.3-38.1 5.1-67.6-27.1-87.3-46.8z" fill="#003a60"></path><path d="M719.9 496.4l-12.4-12.5c-.4 3.8-.9 7.8-1.5 11.9-2.7 17.5-.8 35.6 3.2 52.8 2.1 8.7-2.2 10-8.4 15.8-1.4 1.3-2.9 2.7-4.3 4.1 8.1 2.7 16.7 4.3 25.2 4.9 12.5.9 26.1-.2 35.5-8.4 8.2-7.2 11.7-18.9 9.8-29.7-19.3-10-35-26.8-47.1-38.9zm-28.7 77.2c-3.2 3.2-6.4 6.5-9.5 9.9-16.1 16-30.5 33.8-42.8 52.9-13.4 20.8-16.2 31.2-18.3 57.7-2.1 25.8-3.2 51.7-3.4 77.6 0 7.4.9 16.5 7.7 19.6 2.3 1 6.9 1.9 11.2 2.4-1.5-8.7-3.5-17.5-2.4-26.2 2.1-18 16.5-34.3 12.8-52-1.3-6.4-5-12.3-5.6-18.8-1.1-11.4 7.4-21.7 17.2-27.6 7-4.1 15.4-7.4 18.9-14.7 4-8.4-.4-19.1 3.7-27.5 5.9-12.2 19.4-5.3 35-11.2 10.4-3.9 18.4-12.1 25-21 0 .1-27.5.6-49.5-21.1z" fill="#01294d"></path><path d="M690.4 574.3c6.6 7.5 13.8 15.1 23.3 18.2 19.2 6.2 26.9 2.3 26.9 2.3l19.7-10.9-67.1-10.2-2.8.6z" fill="#003a60"></path><g fill="#7cb7da"><path d="M657 669.8c-6.9 4.4-12.9 10.9-15.2 18.4.3.1.6 0 .9 0 .5-.1 1-.4 1.5-.8 7.4-5.2 12.2-12 12.8-17.6zm83.7-75c-.9 1.2-1.7 2.3-2.6 3.5 1.9.8 3.8 1.3 5.7.8 4.1-1.1 9.8-8.4 7.2-14-2.7-5.8-10.8-5.5-15.5-9.1-7.8-6.1-4.4-18.9-5.9-24.7-.6-2.4-2.1-4.6-4.3-5.6-3-1.3-6.5.2-9.3 1.9-1.7 1-3.4 2.2-4.6 3.9-3.1 4.5-3.8 22.3-8.6 29.7-.3.4-.6.8-.9 1.3 19.4 12.6 38.8 12.3 38.8 12.3z"></path><path d="M792.3 561.5c-4.1-.3-8.2.7-12.3 1-14.9 1.1-13.8-9.7-16.3-15.9-1.9-4.8-6.7-8.7-11.9-8.2-6.4.7-10.3 7.4-12.1 13.6-1.4 4.6-2.1 10 .7 13.9 4.9 6.7 16.2 4.2 22.4 9.8 2.8 2.6 4.1 6.5 3.8 10.3-1 13.5-14.7 13.5-7.3 29.7 15.1-11.6 28.5-25 37.5-42.1 1.5-2.9 2.9-5.9 4.1-8.8-2.4-1.8-5.4-3-8.6-3.3zm-77.7-47.1c3.5.4 7.1 2.2 8.3 5.5 1.2 3.4-.4 7.8 2.2 10.3 1.8 1.7 4.8 1.5 6.9.3 2.2-1.2 3.7-3.3 5.4-5.1 2-2.2 4.3-4.2 6.7-6-9.2-7.8-17.3-16.2-24.2-23l-12.4-12.5c-.4 3.8-.9 7.8-1.5 11.9-1 6.1-1.3 12.3-1.3 18.5 3.6.2 7-.2 9.9.1zm-69.4 261.9c-2.6 3.8-3.2 11-6.2 17.7 1.3.1 2.5.2 3.4.2 3.8.1 7.5-.4 11.3-1 4.1-.6 6.1-6.2 7.7-20.2-1.3-.5-2.5-1.1-3.9-1.4-4.6-.9-9.7.9-12.3 4.7zm89.7-168.9c-1.6-.4-3.1-.6-4.7-.8-4.3 3.9-9 7.1-14.5 9.1-15.5 5.9-29.1-1-35 11.2-1 2.1-1.5 4.4-1.7 6.7 1 .6 1.9 1.5 2.5 2.5 2.7 4.2 1.3 13.3 16.4 11.1 6.8-1 14.1-3.1 21.5-4.6 2.1-1.4 4.1-2.7 6-4 9.1-5.7 18.3-11.5 26.9-17.7-4.1-6.4-10.1-11.6-17.4-13.5zm-88.3 95.9c-.5 2.2-.7 5-1.3 7.9.5 1.4.9 2.8 1.2 4.2 3.7 17.7-10.7 34.1-12.8 52-.5 4.1-.3 8.1.1 12.2 5.6-12.5 2.6-30.1 8.8-36.7 1.5-1.6 3.8-2.6 6-2 2.2.6 3.5 2.7 5 4.4 2.5 2.9 5.8 5.2 9.5 6.6.7-11.3 1.5-25.3 2.5-42.6-4.4-.8-7.8-2.4-8.7-3.5-3-3.6 4.4-11.5 9.5-14.6.3-4.9 1.3-9.8 4.7-13-1.4.3-2.9.8-4.2 1.3-10.3 4-18.1 13.2-20.3 23.8zm29.9-40.7c-1.3-.5-2.6-1.4-3.9-2.5-2 1.8-4.4 3.3-6.8 4.7 2 4.1 4.9 7.5 11.9 8.1 4.9-3.9 9.6-7.4 13.9-10.6-7.4 1.5-11.3 1.8-15.1.3z"></path></g><path d="M765.4 552.5c-.6-2.1-1-4.2-1.7-5.9-1.9-4.8-6.7-8.7-11.9-8.2-6.4.7-10.3 7.4-12.1 13.6-1.4 4.6-2.1 10 .7 13.9 1.8 2.5 4.5 3.7 7.5 4.6 3.3-1.3 6.4-3.1 9.1-5.5 3.9-3.3 6.7-7.7 8.4-12.5zm-35.7-1.3c-.6-2.4-2.1-4.6-4.3-5.6-3-1.3-6.5.2-9.3 1.9-1.7 1-3.4 2.2-4.6 3.9-2.1 3-3.1 12-5 19.9 5 1.1 10.1 1.8 15.1 2.2 3.8.3 7.8.4 11.7.1-4.9-6.6-2.3-17.3-3.6-22.4z" fill="#003a60"></path><path d="M596.2 857.2c1.4 2.9 3.1 5.6 5 8.2 1.1 1.5 3.7 0 2.6-1.5-2-2.6-3.6-5.3-5-8.2-.8-1.7-3.4-.2-2.6 1.5zm4.3-4.6c2.1 2.6 4.2 5.1 6.4 7.5 1.3 1.4 3.4-.7 2.1-2.1-2.2-2.4-4.3-5-6.4-7.5-1.2-1.5-3.2.6-2.1 2.1zm3.3-5.5c2.8 2.7 5.8 5.2 9 7.3 1.6 1.1 3.1-1.5 1.5-2.6-3-2-5.8-4.3-8.4-6.8-1.4-1.3-3.5.8-2.1 2.1zm2.5-6.6c3.1 2.5 6.4 4.8 9.8 6.9 1.6 1 3.1-1.6 1.5-2.6-3.2-1.9-6.3-4.1-9.2-6.4-1.4-1.2-3.5.9-2.1 2.1zm3-6.1c3.3 1.9 6.6 3.7 10.1 5.2 1.7.8 3.2-1.8 1.5-2.6-3.5-1.5-6.8-3.3-10.1-5.2-1.7-.9-3.2 1.7-1.5 2.6zm2.7-6l10.5 5.7c1.7.9 3.2-1.6 1.5-2.6l-10.5-5.7c-1.7-.8-3.2 1.7-1.5 2.6zm2.9-6.2c3 2 6.1 3.7 9.4 5.1 1.7.7 3.2-1.8 1.5-2.6-3.3-1.4-6.4-3.1-9.4-5.1-1.6-1.1-3.1 1.5-1.5 2.6zm2.2-6c4 2.2 8.1 3.9 12.4 5.3 1.8.6 2.6-2.3.8-2.9-4.1-1.3-7.9-3-11.7-5-1.7-.9-3.2 1.7-1.5 2.6z" fill="#dcf4ff"></path><path d="M761.9 342.3c-.9-11.7-1.4-23.4-1.6-34.8-.1-6.8 1.4-18.8-3.7-28.4-11.5-22.1-43.4-23.3-55.3 4.1-6.4 14.9-6.3 43.4-2.9 52.4 1.4 3.6 4 7.2 7.7 8.3 4.4 1.3 9.5.7 14-.4.1 1.4.2 2.8.3 4.3.3 5.5.6 11 5.9 14 8.4 4.8 22.6.6 31.3-5.1 7.4-5 4.9-6.1 4.3-14.4z" fill="#95d0f3"></path><path d="M698.2 294.2c1.1.3 4.2 1 7.2 2.2-.1-.9-.6-1.8-1.4-2.2-1.1-.6-2.8-1.4-5.4-2.1-.3-.1-.5.1-.6.4l-.2 1.3c.1.1.2.3.4.4z" fill="#01183a"></path><path d="M724.5 315.9c.5.3 1.2.2 1.7-.1 1.4-.9 4.2-6.4 5-9 3.1-10.4-4.2-17.6-9-8l2.3 17.1z" fill="#95d0f3"></path><path d="M723.7 296.3c4.3-3 8.6 3.3 6.2 11.7-.6 2.1-2.5 5.9-3.9 7.9.1 0 .2-.1.3-.2 1.4-.9 4.2-6.4 5-9 2.7-9.3-2.9-16-7.6-10.4z" fill="#cdeeff"></path><path d="M756.6 279.1c-10.3-19.8-37-22.8-50.9-3.6 10.4 7.9 3.4 10.8 5.1 14.8.3.8 1 1.4 1.6 2.1 2.9 3.1 4.1 7.8 4.1 12.1h3.4c.2-2.9.6-5.8 2.2-8.2 3.3-5.2 8.5-4.7 10.8 1.6 1.7 4.7-.1 9.9.6 14.8s5.2 12.1 7.6 13.9c3.3 2.5 13.5 3.6 17.1 2.8 1-.2 2-.6 3-1.1-.4-7-.6-14-.7-20.9-.4-6.7 1.1-18.7-3.9-28.3z" fill="#01183a"></path><path d="M756.6 279.1c-7.8-14.9-24.7-20.3-38.6-13.9 3-1.1 6.4-1.3 9.5-.5 15.4 4.3 9.4 24 10.9 40.4.7 8 3.2 15.6 6.1 23.1 4.4 1.3 10.8 1.8 13.5 1.2 1-.2 2-.6 3-1.1-.4-7-.6-14-.7-20.9-.2-6.7 1.3-18.7-3.7-28.3z" fill="#e32426"></path><path d="M630.7 500c-.2.3-.3.7-.5 1-7.6 16.1-30.2 73.9-39.7 91.2-1.9 3.4-4 7.3-8.2 7.9-2.6.4-5.2-.4-7.4-1.9s-3.9-3.5-5.3-5.6c-.2-.2-.3-.5-.5-.8-3.2-5.1-5-10.9-5.4-16.9-.5-8-.1-6.8 24.9-116 3-13.1 4.1-22.9 17.3-35.9 7.1-7.1 18.4-10.6 27.6-6.6 4.2 1.8 7.6 5 10.9 8.1 24.2 22.7 95.6 84.2 108.2 114.7 4.6 11.2 6.6 25.8.8 37-3.5 6.7-7.6 9.7-13.4 13.5-7.6 5-17 5.6-26.1 2.7-9.5-3.1-16.7-10.7-23.3-18.2-21.3-23.6-41.3-48.4-59.9-74.2z" fill="#003a60"></path><path d="M748 570.5c-.1 0-.2-.1-.3-.1 2.4.7 4.9 1.1 7.4 1.7.7-2.1 1.2-4.4 1.5-6.6-2.7 2.1-5.5 3.7-8.6 5zm-18.3-19.3c-.6-2.4-2.1-4.6-4.3-5.6-3-1.3-6.5.2-9.3 1.9-1.7 1-3.4 2.2-4.6 3.9-3.1 4.5-3.8 22.3-8.6 29.7-.7 1.2-1.7 2.3-2.7 3.2 13.8 12.1 29.5 12.3 39.7 5.5 3.7-2.4 6.6-4.5 9.2-7.4-3.6-3.2-9.7-3.5-13.5-6.5-7.9-6.1-4.4-18.9-5.9-24.7z" fill="#7cb7da"></path><path d="M644.3 424.6c-3.3-3.1-6.7-6.3-10.9-8.1-9.2-4.1-20.5-.5-27.6 6.6-13.1 13-14.3 22.8-17.3 35.9-25.1 109.2-25.4 108-24.9 116 .4 6 2.2 11.8 5.4 16.9.2.3.3.5.5.8 1.5 2.2 3.2 4.2 5.3 5.6 2.2 1.4 4.8 2.3 7.4 1.9 4.2-.6 6.3-4.5 8.2-7.9 9.5-17.3 32.2-75.1 39.7-91.2.2-.3.3-.7.5-1 14.8 20.4 30.3 40.1 46.6 59.3 12.7 8.6 28.8 13 44.3 14.2 12.2.9 25.5-.2 34.9-8 1.1-8.8-.8-18.3-4.1-26.1-12.4-30.7-83.8-92.2-108-114.9z" fill="#01294d"></path><path d="M644.3 424.6c-3.3-3.1-6.7-6.3-10.9-8.1-8.3-3.7-18.4-1.1-25.5 4.7 26-13.8 32.1 20.6 44.8 34.5 7.4 8.1 18.9 10 26.7 17.7 14.7 14.3 16 42 60.3 45.9-25.1-32.3-75.8-76.3-95.4-94.7zM630.6 500c-3-3.1-5.9-5.5-9.8-5.5-13.7 0-10.2 30.4-15.1 40.8-4.4 9.4-12 17.1-16 26.7-3.2 8-2.2 17.3-6.6 24.8-4.3 7.3-6.7 5.4-10.5 9.5.7.6 1.4 1.2 2.2 1.8 2.2 1.4 4.8 2.3 7.4 1.9 4.2-.6 6.3-4.5 8.2-7.9 9.5-17.3 32.2-75.1 39.7-91.2.2-.2.4-.5.5-.9z" fill="#003a60"></path><path d="M719.9 496.4c19.7 19.6 49.2 51.8 87.2 46.9 3.3-18.3 2.9-37.5 2.3-56.4-1.4-47.2-3.2-67-20.4-111.2-5.9-15.2-12.6-30.5-23.8-42.2-9.3-9.7-21.6-16.2-34.7-19-12.6-2.7-27.9-5-33.6 9.5-2.4 6.1-2.3 12.9-2.2 19.5.4 19.5.7 39.2 4.3 58.3 3.3 17.5 12.3 42.5 8.4 81.9l12.5 12.7z" fill="#fff"></path><path d="M766.9 535.3c-.1-.7-.2-1.3-.4-2-2.1-8.8-7.3-16.7-8-25.7-1.8-23.2 26.7-40 26.3-63.2-.2-11-7-20.8-15.2-28.1s-17.7-12.9-26.1-20.1c-8.3-7.2-15.5-16.6-16.4-27.5-1.1-13.8 7.9-27.9 3.3-41-2.7-7.9-9.8-11.9-17.7-14.5-.4-.1-.8-.3-1.2-.4-6.3.8-11.8 3.9-14.7 11.3-2.4 6.1-2.3 12.9-2.2 19.5.4 19.5.7 39.2 4.3 58.3 3.3 17.5 12.3 42.5 8.4 81.9l12.4 12.5c12.3 12.2 28 29 47.2 39z" fill="#88c4e7"></path><path d="M650.4 318.3l-.1-.2c-40.9 8.2-35.7 9.1-43.2 9.9-4.7.5-10.4-2.1-15-3.3-55.5-14.9-65.4-21-72-20.8-7.5.2-10.4 7-6 12.7 1.9 2.5 4.7 4.2 7.4 5.8 60.3 36 60.4 36.5 66.7 38.7 12.9 4.6 45.9 3.4 75.6 1-17.6-3.2-22.8-34.6-13.4-43.8z" fill="#bfe9ff"></path><path d="M650.3 318.2c-40.9 8.2-35.7 9.1-43.2 9.9-4.7.5-10.4-2.1-15-3.3-55.5-14.9-65.4-21-72-20.8-1.2 0-2.3.2-3.2.6 1 .5 2.1 1.1 3.2 1.6 27.2 13.3 64.1 26.6 82.2 26.6 2.2 0 22.4-3.6 45.2-9.4.7-2 1.8-3.7 3.1-5l-.3-.2z" fill="#fff"></path><path d="M714.9 311.3c-15.2-2-30.6.3-45.5 3.2-7.3 1.4-13.6 2.6-19.1 3.7l.1.2c-9.4 9.2-4.2 40.5 13.4 43.8 21-1.6 40.4-3.8 50.1-4.8 5.6-.6 11.4-1.3 16.3-4 14.4-8.2 27.6-36.6-15.3-42.1z" fill="#fff"></path><path d="M730.5 327.7c-2.7-7.9-9.8-11.9-17.7-14.5-5.6-1.9-11.6-2.4-17.6-2.4-8.7.6-17.4 2-25.9 3.6-7.3 1.4-13.6 2.6-19.1 3.7l.1.2c-9.4 9.2-4.2 40.5 13.4 43.8 21-1.6 39.9-2.2 49.6-3.3 5.1-.5 10.8-2.7 15.4-4.9 2-8.8 4.8-17.7 1.8-26.2z" fill="#88c4e7"></path><path d="M685.3 311.8c-5.4.7-10.7 1.6-15.9 2.6-7.3 1.4-13.6 2.6-19.1 3.7l.1.2c-1.3 1.3-2.3 3-3.1 5 12.8-3.2 26.3-7.1 38-11.5z" fill="#fff"></path><path d="M759.8 326.2c-1.4.7-1.5 5.1 2.3 7.6 1.5 1 3.2 1.5 4.4 2.7 3.4 3.5.7 10.2 6.2 12.4 3 1.2 6.1-.5 7.4-3.1 1.7-3.2.5-6.1-1.2-8.9-1.7-2.9-2-3-8-7-1.8-.9-1-1.2-4.2-1.7-4.6-.7-5.6-2.6-6.9-2z" fill="#95d0f3"></path><path d="M773.7 335.9c1-.9 2.6-.7 3.7-.1 1.2.7 2 1.7 2.9 2.7 4.7 4.9 9.5 6.3 11 10.6 2.5 6.9-1.6 13.7-6.7 19.1-.8.8-3.9 4-4.9 3.8-.9-.1-1-1.3-3.8-12.7-.5-2.2-1.1-4.4-1.1-6.7 0-3.4 1.2-6.9-.2-10-.5-1-1.2-2-1.6-3-.4-1.2-.1-3 .7-3.7z" fill="#95d0f3"></path><path d="M779 352c1.3-.8 2.3-1.5 2.8-3 .9-2.9-.2-5.3-2-6.3-1-.5-2.1-.6-3.2-.6-4.4.2-4.2 2-7.6 5-3.3 3-8.3 6.6-9.5 9.4-.7 1.6-.5 4.1.9 4.5.9.3 1.7-.4 2.5-.8 2.1-1.2 7-2.7 16.1-8.2z" fill="#95d0f3"></path><path d="M772.5 355.4c-3.3 1.7-11.1 5.7-12.5 8.9-.9 2 .1 3.9 1.2 4.1.3.1.7 0 1-.1 6.6-1.8 12.6-5.2 18.5-8.5.9-.5 1.9-1.1 2.4-1.9 1.1-1.7.7-4.1-1.3-5.6-2-1.6-3.3-.3-9.3 3.1" fill="#95d0f3"></path><path d="M776.5 362.1c-1.1.6-9 4.5-9.9 5.5-1.4 1.5-.8 3.9.6 4.4 2 .7 12.3-3.8 13.9-5.2 3.3-2.8 0-7.8-4.6-4.7" fill="#95d0f3"></path><path d="M776.4 369.2c-4.7 2.9-5.7 3.3-6 4.4-.2.8.3 1.6.9 2.2.7.6 1.2.6 2.1.4 4.9-1.4 8.2-5.5 8.2-6.7 0-.6-.4-1.2-1-1.5-1.2-.5-3.2.6-4.2 1.2" fill="#95d0f3"></path><path d="M672.6 541.6c.3-1.2-.6-2.4-1.8-2.9-2.1-.9-6.1.5-10.6 0 2.7 3.4 5.5 6.8 8.3 10.1.9-1.8 2.3-4.4 3.4-6 .3-.4.6-.8.7-1.2zm57.1 9.6c-.6-2.4-2.1-4.6-4.3-5.6-3-1.3-6.5.2-9.3 1.9-1.7 1-3.4 2.2-4.6 3.9-2.1 3-3.1 12-5 19.9 5 1.1 10.1 1.8 15.1 2.2 3.8.3 7.8.4 11.7.1-4.9-6.6-2.3-17.3-3.6-22.4zm22.3-12.8h-.2c-6.4.7-10.3 7.4-12.1 13.6-1.4 4.6-2.1 10 .7 13.9 1.8 2.5 4.5 3.7 7.5 4.6 3.1-1.2 6-2.9 8.5-5 1.1-8.8-.8-18.3-4.1-26.1 0-.4-.1-.7-.3-1zm-183 53.4c6.2-2.9 7.1-3.4 8.4-4.7 2.1-2.1 3-5.4 2.2-8.3-.6-2.4-2.3-4.3-2.9-6.7-2.7-9.4 10.6-18.7 5.4-27.8-2.2-4-7.7-5.4-11.4-8.2-7.4 32.2-7.5 33.5-7.1 38.8.4 6 2.2 11.9 5.4 16.9z" fill="#003a60"></path><path d="M604.4 538c-2.2-3.7-2.8-8.4-2.6-12.8.2-4.6.7-10.3-3-13-3.4-2.5-8.3-.8-12.3-2.2-3.4-1.2-5.8-4.5-6.7-8.1-.3-1-.4-2-.5-3-1.8 7.7-3.4 14.6-4.8 20.6.7 1.1 1.6 2.1 2.5 3 4.8 4.3 13.8 5.9 16.3 15.4 2.6 10.2-6.9 22-6.1 28.1.1.9.4 1.7.8 2.5.4-2.2 1-4.3 1.8-6.4 3.6-8.7 10.2-15.8 14.6-24.1zm31-53.1c-1.5-.8-3.3-.3-4.9.1-5.7 1.3-13-.1-15.1-5.6-.7-1.9-.7-4-1.1-6.1-2-10-13.8-2.9-17.5 2.2-1.7 2.3-2.4 5.1-3.2 7.9-.9 3.5-5.2 17.6 1.9 18 1.1.1 2.1-.4 3.1-.8 4.4-1.9 10.1-3 13.6.3l.3.3c1.7-4 4.2-6.6 8.3-6.6 3.9 0 6.7 2.4 9.8 5.5.5-1.2 1.1-2.4 1.9-3.4 1.4-1.9 3.2-3.4 4.2-5.5.9-2.2.7-5.2-1.3-6.3z" fill="#003a60"></path><path d="M591.1 591c5-9.4 13.1-28.5 20.9-47.1-1.8-.6-3.5-1.5-4.9-2.8-1.1-.9-1.9-2-2.6-3.2-4.5 8.2-11.1 15.4-14.6 24.1-.8 2.1-1.4 4.2-1.8 6.4.3.7.7 1.3 1 2 4.6 9 .6 15.8 2 20.6zm29.8-96.4c-4 0-6.6 2.6-8.3 6.6 4 4.2 2.1 11.4 5.5 16 .9 1.3 2.5 2.2 4 2.5 3.4-8 6.2-14.7 8.1-18.7l.3-.6c.1-.1.1-.3.2-.4-3.1-3-6-5.4-9.8-5.4z" fill="#7cb7da"></path><path d="M607.9 421.1c-.6.5-1.2 1-1.8 1.6.4 1.7-.1 3.7-.4 5.5-.8 5.5 1.9 11.2.9 16.7-1.4 8.3-10.1 12.9-15.6 9.9-.5-.3-1-.6-1.4-1-.4 1.7-.7 3.4-1.1 5.1-.5 2.1-1 4.2-1.4 6.2 2.8 1.3 6.1 1.6 8.9.1 1.7-.9 3.1-2.3 4.6-3.5 7.5-6.1 16.9-7.7 19.8-6.7 2.6.8 4.1 3.7 4.4 6.5.2 2.7-.5 5.5-1 8.2-.7 3.8.4 5 3.7 6 2.4.8 4.8 1.5 7.3 1.4 2.5-.1 5.1-1.2 6.3-3.3 2.5-4.4-1.7-9.4-2.8-14.3-1.2-5.1 1.2-12.3 4.7-19-8-14.3-16.5-29.2-35.1-19.4zm85.4 72c-4.1 6-7.1 11.2-2 15.7 8.7 7.7 17.3 4.9 23.3 5.6 3.5.4 7.1 2.2 8.3 5.5 1.2 3.4-.4 7.8 2.2 10.3 1.8 1.7 4.8 1.5 6.9.3 3.5-2 5.2-6.2 12.1-11.1-30.9-1.5-42.5-13.8-50.8-26.3z" fill="#003a60"></path><path d="M652.7 455.6c-1.1-1.2-2.2-2.6-3.3-4.1-1 8.8 1.7 19.2 9.7 30 2.3 3.1 4.8 6.1 5.6 9.8s-1.1 8.3-4.9 9c-2.5.4-5-1-7.4-1.8-4.9-1.5-10.7 0-14.3 3.7-1.2 1.2-2.1 2.7-2.7 4.3 2.4 3.3 4.9 6.6 7.4 9.9 2.4-8.6 9.5-12.5 12.9-1.3 6.1 20.2 7.9 15.2 22.9 13.1 2.1-.3 4.3-.5 6.4 0 5.8 1.4 7 7.2 2.4 11.8-2.1 2-4.8 3.4-7 5.3-3.1 2.7-5.3 6.4-6.1 10.5 1 1.2 2 2.3 3 3.5 1.3.9 2.7 1.8 4.1 2.6 0-1.6.2-3.2.7-4.8 1.9-5.6 7.3-9.2 11.7-13.2s8.3-10.1 6-15.6c-2.3-5.4-9.1-7-14.9-7.5-5.9-.5-12.6-1.2-15.9-6-2.7-4-2-9.6.4-13.7 4.2-7.3 12.8-11.5 17-18.7-2.1-3.3-4.4-6.4-7.1-9-7.6-7.8-19.2-9.7-26.6-17.8z" fill="#003a60"></path><path d="M644.3 424.6c-3.3-3.1-6.7-6.3-10.9-8.1-8.3-3.7-18.3-1.1-25.5 4.6 18.6-9.9 27 5.1 35 19.4 2.1-4 4.5-7.8 6.8-10.9-2-1.8-3.8-3.5-5.4-5zm45.7 42.2c-12.2-11.5-24-22.3-33.5-30.9-3.8 4.1-6.4 9.5-7.1 15.6 1 1.5 2.1 2.9 3.3 4.1 7.4 8.1 18.9 10 26.7 17.7 2.7 2.6 4.9 5.7 7.1 9 .6-1 1.1-2.1 1.5-3.2 1.4-3.9 1.3-8.3 2-12.3z" fill="#7cb7da"></path><path d="M719.9 496.5c-5.7-6.1-11.9-12.2-18.1-18.3-1.5 5.4-5.3 10.3-8.5 14.9 8.3 12.5 19.9 24.8 50.7 26.4-9.2-7.8-17.2-16.2-24.1-23z" opacity=".35" fill="#b0e3ff"></path><path d="M661.1 455.6c-.9-.9-1.7-2-2.5-3.1-3 3.4-5.9 6.9-8.6 10.5-2.8 3.8-12.1 13-7.8 17.6.3.1 9 9.9 32.6 33.1.9.9 2.1 2.5 3.5 2.6 2.1.1 4.3-2.7 7.1-5.4 2.1-2 10.5-10 17.1-16.6-5.1-7.5-8.8-15.3-14.6-21-7.9-7.7-19.4-9.6-26.8-17.7z" fill="#012143"></path><path d="M710.1 482.9c-9.6-14.6-24.4-26-37.7-36.6-2.8-2.2-4.4-3.6-8.2.3-1.9 1.9-3.7 3.9-5.5 5.9.8 1.1 1.6 2.1 2.5 3.1 7.4 8.1 18.9 10 26.7 17.7 5.8 5.7 9.5 13.4 14.6 21 4.5-4.6 8.2-8.5 8.3-9.3.1-.8-.3-1.5-.7-2.1z" fill="#012143"></path><path d="M710.1 482.9c-9.6-14.6-24.4-26-37.7-36.6-2.8-2.2-4.4-3.6-8.2.3-1.9 1.9-3.7 3.9-5.5 5.9.8 1.1 1.6 2.1 2.5 3.1 7.4 8.1 18.9 10 26.7 17.7 5.8 5.7 9.5 13.4 14.6 21 4.5-4.6 8.2-8.5 8.3-9.3.1-.8-.3-1.5-.7-2.1z" fill="#003a60"></path><path d="M680.5 511.6c-23.6-23.1-32.3-32.9-32.6-33.1-4.3-4.5 5-13.8 7.8-17.6 4.4-5.8 9.1-11.2 14.1-16.4l.1-.1c-1.6-.8-3.2-.6-5.8 2.1-5.1 5.2-9.8 10.6-14.1 16.4-2.8 3.8-12.1 13-7.8 17.6.3.1 9 9.9 32.6 33.1.9.9 2.1 2.5 3.5 2.6 1.3.1 2.7-1.1 4.3-2.6-.8-.5-1.5-1.4-2.1-2z" fill="#01183a"></path><path d="M661.1 455.6c-.9-.9-1.7-2-2.5-3.1-3 3.3-5.8 6.8-8.5 10.3 1.3 5.9 4.2 12.2 9 18.7 2.3 3.1 4.8 6.1 5.6 9.8.7 3.3-.8 7.4-3.8 8.6 2 2 4.2 4.2 6.6 6.5.3-1.9 1-3.8 2-5.5 4.8-8.4 15.3-12.7 18.6-22 .5-1.4.8-3 1-4.5-.4-.4-.8-.9-1.3-1.3-7.8-7.5-19.3-9.4-26.7-17.5zm27.3 52.5c3.6-3.4 9.3-9 14.1-13.8-2.9-4.3-5.3-8.6-8-12.6-4.2 10.4-12.2 19.8-6.1 26.4z" fill="#003a60"></path><path d="M691 461.6c-6.1-5.4-12.5-10.5-18.6-15.3-2.8-2.2-4.4-3.6-8.2.3-1.9 1.9-3.7 3.9-5.5 5.9.8 1.1 1.6 2.1 2.5 3.1 7.4 8.1 18.9 10 26.7 17.7.4.4.8.9 1.3 1.3.4-2.6.5-5.2.9-7.8.1-1.8.5-3.5.9-5.2z" fill="#003a60"></path><path d="M691 461.6c-6.1-5.4-12.5-10.5-18.6-15.3-2.8-2.2-4.4-3.6-8.2.3-1.9 1.9-3.7 3.9-5.5 5.9.8 1.1 1.6 2.1 2.5 3.1 7.4 8.1 18.9 10 26.7 17.7.4.4.8.9 1.3 1.3.4-2.6.5-5.2.9-7.8.1-1.8.5-3.5.9-5.2z" fill="#7cb7da"></path><path d="M710.1 482.9c-3.9-5.9-8.7-11.3-13.8-16.4 1.4 5.2.2 10.3-1.7 15.2 2.6 4 5.1 8.3 8 12.6 4.5-4.6 8.2-8.5 8.3-9.3 0-.8-.4-1.5-.8-2.1z" fill="#003a60"></path><path d="M710.1 482.9c-3.9-5.9-8.7-11.3-13.8-16.4 1.4 5.2.2 10.3-1.7 15.2 2.6 4 5.1 8.3 8 12.6 4.5-4.6 8.2-8.5 8.3-9.3 0-.8-.4-1.5-.8-2.1z" fill="#7cb7da"></path><path d="M655.7 461c4.4-5.8 9.1-11.2 14.1-16.4l.1-.1c-1.6-.8-3.2-.6-5.8 2.1-5 5.1-9.7 10.5-14 16.2.3 1.2.6 2.5 1 3.7 1.8-2.2 3.6-4.2 4.6-5.5zm8.8 34.7c-.6 1.9-1.8 3.5-3.5 4.2 2 2 4.2 4.2 6.6 6.5.3-1.9 1-3.8 2-5.5 0-.1.1-.1.1-.2-2-1.7-3.7-3.4-5.2-5z" fill="#01183a"></path><path d="M585.3 479.7c-1.8-.6-3 1.7-3.6 3.4-4.4 13.5-8.1 27.8-10.9 41.7-1.2 6.1-.2 7.9 3.3 10.7 4.1 3.3 8.6 6.2 13.3 8.6 3.6 1.8 4.8.8 5.8-1.6 5.5-12.4 10-25.3 13.6-38.4 1.3-4.7.5-6.2-2.2-8.4-6.3-5.1-13.7-9.2-18.6-15.7 0 .2-.1-.1-.7-.3z" fill="#012143"></path><path d="M604.6 495.9c-.7-.6-1.5-1.2-2.2-1.7l-.1.5c-4 16.7-9.3 33.1-15.7 49.1.3.1.5.3.8.4 3.6 1.8 4.8.8 5.8-1.6 5.5-12.4 10-25.3 13.6-38.4 1.3-4.7.5-6.1-2.2-8.3z" fill="#256085"></path><path d="M577.1 522.6c4.8 4.3 13.8 5.9 16.3 15.4.3 1.1.4 2.2.4 3.4 3-7 5.8-14.2 8.2-21.4-.1-3.1-.8-6-3.2-7.7-3.4-2.5-8.3-.8-12.3-2.2-3.4-1.2-5.8-4.5-6.7-8.1-.3-1-.4-2-.5-3-.2-1.6-.7-3-1.2-4-2 6.9-3.8 13.9-5.4 20.9.9 2.5 2.3 4.9 4.4 6.7z" fill="#003a60"></path><path d="M635.9 854.8c.8-.9 1.7-1.8 2.6-2.7 1.4-1.4 2.9-2.7 4.3-4-.4-8.2-.9-16.5-1.3-24.8-3.1 6.3-5.2 15.7-5.6 31.5z" fill="#01294d"></path><path d="M652.2 835.1c1.2-5.1-.4-10.4-1-15.5-.3-2.4-.4-4.7-.4-7.1-3.4 2.7-6.7 5.7-9.3 10.9.3 8.3.9 16.6 1.3 24.8 4.2-3.8 8.2-7.8 9.4-13.1z" fill="#003a60"></path><path d="M615.7 880.1l1.5-1.2c-5.5-5.1-15.6-5.5-22.2-19.8-4.5 2.9-9.6 4.3-11.6 6.6-2.1 2.5-1.8 6.4-.1 9.1 4.3 6.7 21.9 12.8 32.4 5.3z" fill="#01294d"></path><g fill="#003a60"><path d="M733.8 596.3c1.4.6 2.8 1.3 4.3 1.9.9-1.1 1.8-2.3 2.6-3.5 0 0-2.4 1.2-7.8 1.2.3.2.6.3.9.4zm-20.1-3.8c-5.1-1.6-9.5-4.6-13.6-8.2-2.1 1.9-4.8 3-7.6 2.8-3.7-.2-6.6-2.6-9.1-5.4-.6.6-1.2 1.2-1.7 1.8-2.2 2.2-4.3 4.3-6.4 6.6.5 2.8 1.1 5.6 1.7 8.3 6.1 24.6 24.8-1.3 45.5-3.6-2.6-.5-5.5-1.3-8.8-2.3z"></path><path d="M730.2 606.7c-15.8-1.2-30.7 10.9-46.5 12.2-4 .3-6.2-.4-8.5-3.8-4.6-6.7-3.9-14.8-5.7-18.6-11.2 12.5-21.5 25.9-30.6 40-3.2 5-5.8 9.4-7.9 13.5.4.2.8.3 1.2.5 2.7.8 5.6.1 8.4-.4 6.9-1.3 15-1 19.7 4.3 2.6 2.9 3.7 7 5.5 10.5 2.5-1.4 4.8-2.9 6.8-4.7-8.4-7.5-13.1-26.4.5-27.9 2-.2 4.2.3 5.9 1.4.2-2.3.7-4.6 1.7-6.7 5.9-12.2 19.4-5.3 35-11.2 5.4-2.1 10.2-5.3 14.5-9.1zm-96.5 160.8c2.1-18 16.5-34.3 12.8-52-.3-1.4-.7-2.8-1.2-4.2-1 5-3.2 10.3-9.6 13.8-3.7 2-8 2.8-11.5 5.2-2.7 1.8-4.7 4.4-6.2 7.3-.4 11.4-.7 22.8-.8 34.1 0 6.7.8 14.8 5.9 18.6 2.5-.9 4.8-2.4 6.6-4.4 1.7-1.9 3.1-4 4.1-6.3-.4-4-.6-8.1-.1-12.1zM631 687c-2.7-2.6-5.7-5-9.1-6.2-.5 4-.9 8.4-1.3 13.4-.4 4.5-.7 9-1 13.5 1.5 1.7 3.5 3 5.7 3.7 6.3 1.7 8.8-4.9 9.8-11.4 1-7.2-.5-9.6-4.1-13zm14.9-26.9c-2.2-.1-4.6-.1-6.4 1.2-3.5 2.4-6.6 9.1-4.2 16.6.8 3.1 3.3 9.7 6.4 10.3 2.3-7.5 8.3-14 15.2-18.4.6-5.2-2.6-9.2-11-9.7z"></path></g><path d="M673 505.9c-.7-.9-.9-1.4.2-2.7 13.4-16.2 30.4-28.9 32.1-29.1.9-.1 1.7.7 2.3 1.4 1.5 1.8 2.8 3.6 4 5.6 1.3 2.1 1.1 3-.4 4.8-11.2 13.3-30.3 29.8-31.4 30.2-.9.4-1.7.2-2.2 0-.4-.2.2-.2.6-1 1-2.1-1-4-5.2-9.2z" fill="#012143"></path><path d="M711.2 485.9c1.5-1.8 1.7-2.7.4-4.8-1.2-2-2.6-3.8-4-5.6-.6-.7-1.4-1.5-2.3-1.4-.7.1-3.6 2-7.8 5.3-3.8 11-12.9 21-7.5 28 6.6-6 15.1-14.2 21.2-21.5z" fill="#003a60"></path><path d="M601.5 503c-2.7 4.3-2.6 4.3-3.6 4.3-1.6-.1-3-.8-4.4-1.6-2.7-1.6-4.2-3-14.3-11.7-1.9-1.6-1.5-2.1-1-3.7 1-3 2.2-6 3.6-8.9.5-1 1.1-2.1 2.2-2.2 1.2-.1 2.1 1 2.8 2 5.3 7 16.7 11.9 19.8 16.1.4.5 1.1 1.6.8 2.2-.6-.3-.9-.5-1.6-.4-1.9.4-3.2 2.2-4.3 3.9z" fill="#01294d"></path><path d="M598.7 500.6c2.7-1.2 6-2 8.9-1.7-.2-.6-.6-1.2-.8-1.5-2.1-3-8.5-6.3-14-10.6-1.3 5.4-2.8 14.3 2.8 14.7 1 0 2.1-.5 3.1-.9z" fill="#003a60"></path><path d="M606 499.2c.7-.1 1 .1 1.6.4.3-.6-.5-1.7-.8-2.2-.9-1.2-2.4-2.4-4.3-3.8l-.1 1.1c-1 4-2 8-3.1 12 .4-.6 1.1-1.6 2.4-3.7.9-1.7 2.2-3.5 4.3-3.8z" fill="#01294d"></path><g><path d="M606.2 496.6c-.1-.1-.2-.2-.3-.4l-.2-.2c-.1-.1-.3-.2-.4-.4l-.2-.2c-.2-.2-.4-.3-.5-.5l-.2-.2c-.2-.1-.4-.3-.6-.4l-.3-.3c-.1-.1-.3-.2-.4-.3s-.3-.2-.4-.3l-.1-.1-.1 1.1c-.4 1.7-.8 3.4-1.3 5.1 2.1-.7 4.4-1.1 6.5-.9-.1-.4-.4-.9-.6-1.2-.1-.1-.1-.2-.2-.3-.1-.2-.3-.3-.4-.5-.2.1-.3.1-.3 0z" fill="#003a60"></path></g><g><path d="M598.8 512.2c-.3-.2-.7-.4-1.1-.6-2.1 7.1-4.4 14.1-6.9 21.1 1.1 1.4 1.9 3.2 2.5 5.3.3 1.1.4 2.2.4 3.4 3-7 5.8-14.2 8.2-21.4 0-3.1-.7-6-3.1-7.8z" fill="#7cb7da"></path></g><circle cx="681.8" cy="502.4" r="2.3" fill="#6fabce"></circle><ellipse transform="rotate(-73.896 595.158 500.08)" cx="595.2" cy="500.1" rx="2.3" ry="1.6" fill="#6fabce"></ellipse><ellipse transform="rotate(-73.896 582.571 490.682)" cx="582.6" cy="490.7" rx="2.3" ry="1.6" fill="#6fabce"></ellipse><circle cx="702.9" cy="482.7" r="2.3" fill="#6fabce"></circle><g><path d="M491.4 306.2c1.6-.5 2.9-.7 4.1-.7 6.1 0 22.2 18 30.8 18 2.8 0 4.4-2.6 4.4-5 0-8.3-29.4-22.2-38-22.2-4.2 0-6 2.3-6 5.6 0 2.3 1.2 4.4 3.5 4.4.3.1.7 0 1.2-.1z" fill="#bfe9ff"></path></g></g><g><path d="M503 116.8c-1.9-1.1-4.2 6.4-8.3 8.7-.6.4-1.4.7-1.7 1.3-.8 1.4-2.6 2.5-.3 3.7 1.6.8 6.1 2.4 7.9 2.2.7-.1 1.4-.2 1.8-.7 1.2-1.4-1-7.1.5-14.4l.1-.8z" fill="#195378"></path><path d="M438.9 106.1c-.7-31.4 19.7-45.5 37.5-48.3 13.8-2.1 25.2 6.4 30.2 15.2 3.3 5.8 5.4 12.4 4.9 19.1-1 13.5-11 31.8-18.5 42.9-4.7 6.9-14.2 16.4-22 17.3-17.5 1.8-31.3-13.1-32.1-46.2z" fill="#195378"></path><path d="M493.7 60.7c-5-2.6-10.9-3.9-17.3-2.9-17.8 2.7-38.2 16.9-37.5 48.3.4 16 3.8 27.7 9.1 35.4 7.5-5.3 13.5-12.7 15.7-21.5 1.9-7.2 1.2-14.8 1.5-22.2 1.2-29.2 16.3-38.5 28.5-37.1z" fill="#003a60"></path><path d="M506.7 73c-5-8.8-16.5-17.3-30.2-15.2-17.8 2.7-38.2 16.9-37.5 48.3.1 3.1.3 6 .5 8.7 2 .7 4.4.5 6.4-.3 4.9-1.9 10.1-8.5 12.9-12.9 2.1-3.2 3.9-6.6 6.5-9.4 4.7-4.8 10.2-4.9 12.2-3.4 3.1 2.4.2 5.4 3.8 12.2 1.4-3.5 3.9-7.4 7.1-9.4 4.5-2.8 10.9-.7 14.3-6.8.7-1.2.5-4 1.5-4.8.8-.7 3.2-.8 5.4-.8-.8-2.1-1.8-4.2-2.9-6.2z" fill="#003a60"></path><path d="M465.3 92.2c.1-.2.3-.3.4-.4 2.7-24.5 16.6-32.4 27.9-31.1-5-2.6-10.9-3.9-17.3-2.9-17.8 2.7-38.2 16.9-37.5 48.3.1 3.1.3 6 .5 8.7 2 .7 4.4.5 6.4-.3 4.9-1.9 10.1-8.5 12.9-12.9 2.3-3.2 4.1-6.6 6.7-9.4z" fill="#01294d"></path><path d="M436.5 109.1c-.2-9-.5-20.6 1.8-29.2 4.4-16.6 15.9-27.9 33.3-28 10-.1 20.5 4.1 27 9.1 10.3 7.9 11.1 18.3 11.1 18.4-20-4.8-16.1-1.7-23.7 2.1-8 4-16.6.1-23.9 1.3-6.7 1.1-12.3 6.3-15.1 12.4-2.1 4.1-3.9 12.7-10.5 13.9" fill="#01294d"></path><path d="M500.9 62.9c-.7-.7-1.5-1.4-2.4-2-6.5-5-16.9-9.2-27-9.1-17.3.1-28.9 11.4-33.3 28-2.3 8.7-2 20.3-1.8 29.2 6.6-1.2 8.4-9.8 10.4-14 2.9-6.2 8.4-11.4 15.1-12.4 1.8-.3 3.6-.3 5.5-.1 6.2-21.8 23.2-25.1 33.5-19.6z" fill="#01183a"></path><path d="M435.6 61.4c4.5 4.8 9.3 6.9 13.7 6.9 9.1 0 16.6-8.5 16.6-18.1 0-10.3-8.9-19.3-17.1-19.3-9.3 0-17.4 10-17.4 19.8 0 3.8 1.3 7.6 4.2 10.7z" fill="#01294d"></path><path d="M405.6 187.8c13.9.5 19.7 1.3 32.4-5.8 31.1-17.3 39.5-46.3 29.8-66.6-4.4-9.3-12.6-16.4-21.5-21.6-21.3-12.3-46.9-13.9-70.8-10.4-30.5 4.5-61.1 20-86.9 36.4-26.6 16.9-50 39-66 66.3-5.6 9.6-10.4 20-11.6 31.1s1.6 23 9.3 31c7 7.3 17.1 10.6 26.8 12.3 21 3.6 47.8 2.6 62.6-12.7 5-5.2 20.2-28.1 24.1-34.1 3.2-4.9 6.8-9.8 20.4-16.3 15.8-7.6 33.9-10.2 51.4-9.6z" fill="#fc2222" opacity=".44"></path><path d="M439.7 386.2c11.8-31.2 29.6-61.1 32.9-94.7 1.2-12.2-.3-18.5-12.5-29.7-41.3-38.1-99.2-58.4-154.2-69.7-8.6-1.8-43.1.1-51.1 2.4-16.5 4.7-27.1 15.7-28.6 33.3-.5 5.9.2 12 2.7 17.4 6.4 14.1 20.1 19.5 33.4 22.9 92.6 23.9 131.6 19.7 144.8 25.3 4.4 1.9 3.6 2.9 2.6 8.1-6.5 35.7-15.5 81.7-24.5 124.5l33.8 9.1c7.2-16.1 14.5-32.6 20.7-48.9z" fill="#fff"></path><path d="M427 283c-19.8-14-37.3-5.5-53.2-13.5-14.2-7.1-18.6-23.1-44.4-30.4-8-2.2-16.3-2.9-24.3-5.2-17.8-5.2-25.6-17-20.4-35.9.6-2.2 1.3-4.3 2.2-6.4-12.6.4-27.2 1.6-32 3-16.5 4.7-27.1 15.7-28.6 33.3-.5 5.9.2 12 2.7 17.4 6.4 14.1 20.1 19.5 33.4 22.9 92.6 23.9 131.6 19.7 144.8 25.3 4.4 1.9 3.6 2.9 2.6 8.1-6.5 35.7-15.5 81.7-24.5 124.5l16.4 4.4c5.6-10.3 11.5-20.4 15.9-31.3 2.7-6.5 4.8-13.4 5-20.4.4-12.3-5-24.6-3-36.8 3.7-21.4 31.5-41.9 7.4-59z" fill="#88c4e7"></path><path d="M372.5 482c-.8 2.6-1.6 5.2-2.3 7.9-1.2 4.4-2.4 7.8.5 11.9 6.1 8.7 17.8 10.6 26.7 15.2 13.1 6.9 22.3 20.8 36.6 25 4.2 1.3 13.7 2.5 17.6 1.3 1.9-.6 3.7-1.9 4.3-3.8 1.1-3.4-1.8-6.8-4.4-9.3-15-14.7-29.4-32.4-37.5-51.7-4.1-9.7-4-20.6 0-30.3 1.8-4.2 3.6-8.5 5.4-12.8l-33.8-9.1c-3 14.5-6.1 28.5-9.1 41.7-1.3 4.7-2.6 9.4-4 14z" fill="#195378"></path><path d="M401.8 430.6l-16.4-4.4c-3 14.5-6.1 28.5-9.1 41.7-1.1 4.8-2.4 9.5-3.8 14.1-.8 2.6-1.6 5.2-2.3 7.9-1.2 4.4-2.4 7.8.5 11.9 4.8 6.9 13.2 9.5 20.8 12.6-1.2-2.3-2.5-4.5-3.5-6.8-8-17.7-4.1-38.5 3.6-56.3 2.9-7.2 6.5-13.9 10.2-20.7z" fill="#003a60"></path><path d="M451.3 530.2c-14.6-14.3-28.7-31.5-36.9-50.2-3.9 1.6-7 5-10.9 6.8-7.7 3.4-16.7-.1-20-7.8-1.7-3.9-1.6-8.4-3.5-12.2-.6-1.2-1.6-2.3-2.8-2.7-.3 1.3-.6 2.6-.9 4-1.1 4.8-2.4 9.5-3.8 14.1-.8 2.6-1.6 5.2-2.3 7.9-1.2 4.4-2.4 7.8.5 11.9 6.1 8.7 17.8 10.6 26.7 15.2 13.1 6.9 22.3 20.8 36.6 25 4.2 1.3 13.7 2.5 17.6 1.3 1.9-.6 3.7-1.9 4.3-3.8.9-3.7-2-7-4.6-9.5z" fill="#e6e6e6"></path><path d="M387.9 507.5c-4-8.8-5-18.4-4.1-28l-.3-.6c-1.7-3.9-1.6-8.4-3.5-12.2-.6-1.2-1.6-2.3-2.8-2.7-.3 1.3-.6 2.6-.9 4-1.1 4.8-2.4 9.5-3.8 14.1-.8 2.6-1.6 5.2-2.3 7.9-1.2 4.4-2.4 7.8.5 11.9 4.8 6.9 13.2 9.5 20.8 12.6-1.3-2.4-2.6-4.6-3.6-7z" fill="#88c4e7"></path><path d="M383.4 433c23.2 3.2 31.2 10.2 33.5 10.2 3.1 0 4.9-5.6 4.9-9.1 0-9.6-26.3-13.4-34.5-13.4-7 0-5.8 8.5-3.9 12.3z" fill="#ff8895"></path><path d="M387.4 420.7c-7.1 0-5.9 8.6-4 12.3 6.1.9 11.2 2 15.4 3.2 2.3-4.3 4.7-8.6 7-12.9-7.1-1.8-14.7-2.6-18.4-2.6zm58.8-326.9c-21.3-12.3-46.9-13.9-70.8-10.4-30.5 4.5-61.1 20-86.9 36.4-26.6 16.9-50 39-66 66.3-3.5 6-6.7 12.3-8.9 19-4.8 12.3-9 26-11.5 39.8 11 8.3 24.1 12 37.2 12 51.6 0 57.4-62.1 106.6-54.7h.3c-.2-.1-.4-.1-.6-.2 2.3-1.4 5.1-3 8.5-4.6 15.9-7.6 34-10.1 51.5-9.5 13.9.5 19.7 1.3 32.4-5.8 31.1-17.3 39.5-46.3 29.8-66.6-4.5-9.4-12.7-16.6-21.6-21.7z" fill="#e32426"></path><ellipse transform="rotate(-5.902 329.125 138.195)" cx="329.1" cy="138.1" rx="11.8" ry="11.8" fill="#88c4e7"></ellipse><ellipse transform="rotate(-5.902 341.192 172.577)" cx="341.2" cy="172.5" rx="11.8" ry="11.8" fill="#fff"></ellipse><path d="M346.2 202.1c-.2-.1-.4-.1-.6-.2 2-1.2 4.3-2.5 7.1-3.9-3.1.2-6 1.6-8 3.9.4.1.8.1 1.2.2h.3z" fill="#fff"></path><circle cx="396.6" cy="120.9" r="11.8" fill="#88c4e7"></circle><path d="M392.5 185.4c1.6-6.3-2.2-12.7-8.5-14.3-6.3-1.6-12.7 2.2-14.3 8.5-1 4.2.3 8.4 3.1 11.2 6.1-1.5 12.4-2.4 18.7-2.8.4-.8.7-1.7 1-2.6z" fill="#fff"></path><ellipse transform="rotate(-40.392 408.805 158.207)" cx="408.8" cy="158.2" rx="11.8" ry="11.8" fill="#fff"></ellipse><path d="M316.5 188.3c-6.3-1.6-12.7 2.2-14.3 8.5-1.6 6.2 2.1 12.5 8.2 14.2 4.4-3.2 9.1-5.9 14.4-7.5l.3-.9c1.5-6.3-2.3-12.7-8.6-14.3z" fill="#fff"></path><path d="M314 112.2c6.3 1.6 12.7-2.2 14.3-8.5.5-2 .5-4 0-5.8-7 3.2-13.9 6.7-20.6 10.3 1.6 2 3.7 3.4 6.3 4zm-52.9 127.7c-6.3-1.6-12.7 2.2-14.3 8.5-.7 2.7-.4 5.5.7 7.8 8.5-1.2 15.7-4.2 22-8.2-1.1-3.8-4.2-7.1-8.4-8.1z" fill="#88c4e7"></path><path d="M430.4 185.6c-1.6-2.1-3.9-3.8-6.6-4.5-5.7-1.4-11.5 1.6-13.7 6.8 8.1.4 13.4.4 20.3-2.3z" fill="#fff"></path><circle cx="369" cy="148.2" r="11.8" fill="#fff"></circle><ellipse transform="rotate(-46.945 356.733 110.864)" cx="356.7" cy="110.9" rx="11.8" ry="11.8" fill="#88c4e7"></ellipse><circle cx="301.3" cy="162.4" r="11.8" fill="#fff"></circle><ellipse transform="rotate(-5.73 246.092 214.065)" cx="246" cy="214" rx="11.8" ry="11.8" fill="#88c4e7"></ellipse><path d="M459.7 164.1c-1.3-3.5-4.3-6.3-8.1-7.3-6.3-1.6-12.7 2.2-14.3 8.5-1.4 5.4 1.3 10.9 6.1 13.4 6.6-4.3 12-9.3 16.3-14.6zm-186.8-8.8c1.6-6.3-2.2-12.7-8.5-14.3-1.3-.3-2.6-.4-3.9-.3-3.7 3.2-7.2 6.6-10.6 10-.9 5.9 2.9 11.6 8.8 13.1 6.2 1.6 12.6-2.2 14.2-8.5zm-55.4 51.5c.8-3.1.2-6.3-1.3-8.9-1 2.3-1.9 4.6-2.7 7-1.3 3.3-2.5 6.7-3.7 10.1 3.7-1.1 6.7-4.1 7.7-8.2z" fill="#88c4e7"></path><ellipse transform="rotate(-78.124 273.73 189.68)" cx="273.7" cy="189.7" rx="11.8" ry="11.8" fill="#88c4e7"></ellipse><path d="M229.8 244.1c1.6-6.3-2.2-12.7-8.5-14.3-6.3-1.6-12.7 2.2-14.3 8.5-1.1 4.5.5 9 3.8 11.8 2.1 1 4.2 2 6.3 2.7 5.7.8 11.2-2.9 12.7-8.7z" fill="#88c4e7"></path><path d="M297.5 222.6c-.6-4.7-4-8.7-8.8-9.9-6.3-1.6-12.7 2.2-14.3 8.5-1.6 6.3 2.2 12.7 8.5 14.3.5.1 1.1.2 1.6.3 4.5-4.4 8.7-8.9 13-13.2z" fill="#fff"></path><path d="M231 191.1c6.3 1.6 12.7-2.2 14.3-8.5 1.6-6.3-2.2-12.7-8.5-14.3-.7-.2-1.3-.3-2-.3-4.1 5.4-8 11-11.5 16.8 1.4 3 4.2 5.4 7.7 6.3zm46.5-64c-.4 5.6 3.2 10.9 8.9 12.3 6.3 1.6 12.7-2.2 14.3-8.5 1.5-6-1.9-12.1-7.7-14-1.5.9-3.1 1.9-4.6 2.9-3.7 2.3-7.3 4.8-10.9 7.3zm187.4 11c-1.1 4.3.4 8.6 3.4 11.5 2.6-6.5 3.6-13.1 3.3-19.4-3.3 1.5-5.8 4.3-6.7 7.9z" fill="#88c4e7"></path><ellipse transform="rotate(-10.101 436.328 130.931)" cx="436.4" cy="131" rx="11.8" ry="11.8" fill="#88c4e7"></ellipse><path d="M412.9 93.7c-1.6 6.3 2.2 12.7 8.5 14.3 6.3 1.6 12.7-2.2 14.3-8.5 1.2-4.8-.7-9.6-4.4-12.3-2.6-.9-5.2-1.6-7.9-2.3-4.8.3-9.2 3.7-10.5 8.8zm-37.5-10.3c-.8.1-1.5.2-2.3.4-1.5 6.3 2.3 12.6 8.6 14.2 6.3 1.6 12.7-2.2 14.3-8.5.7-2.7.4-5.3-.7-7.6-6.7-.1-13.4.5-19.9 1.5z" fill="#88c4e7"></path><path d="M444.3 102.1c6.1.6 12 2.1 17.7 4.5-4.4-5.2-9.9-9.4-15.8-12.8-21.3-12.3-46.9-13.9-70.8-10.4-30.5 4.5-61.1 20-86.9 36.4-26.6 16.9-50 39-66 66.3-3.5 6-6.7 12.3-8.9 19-4.8 12.3-9 26-11.5 39.8 11 8.3 24.1 12 37.2 12 25.1 0 39.4-14.7 53.1-29-8.4-6.4-11.3-16.3-7.6-29.8 5.3-19.4 21-35.6 40.2-41.5 6.2-1.9 12.6-2.8 19.2-3.6h.3c.3 0 .7-.1 1-.1 13.1-1.6 25.8-1.9 38.4 2.6 9.1 3.3 18.8 9.1 32.5 4.6 8-2.6 13.8-7.9 26.1-7.7l-31-37.6c7.8-8.5 16.5-14.3 32.8-12.7z" fill="#195378"></path><path d="M272.9 155.3c1.6-6.3-2.2-12.7-8.5-14.3-1.3-.3-2.6-.4-3.9-.3-3.7 3.2-7.2 6.6-10.6 10-.9 5.9 2.9 11.6 8.8 13.1 6.2 1.6 12.6-2.2 14.2-8.5z" fill="#e32426"></path><ellipse transform="rotate(-5.73 246.092 214.065)" cx="246" cy="214" rx="11.8" ry="11.8" fill="#e32426"></ellipse><path d="M313.1 161.7c-.3-5-3.8-9.4-8.9-10.7-6.3-1.6-12.7 2.2-14.3 8.5-1.6 6.2 2.1 12.5 8.3 14.2 4.3-4.7 9.4-8.8 14.9-12zM231 191.1c6.3 1.6 12.7-2.2 14.3-8.5 1.6-6.3-2.2-12.7-8.5-14.3-.7-.2-1.3-.3-2-.3-4.1 5.4-8 11-11.5 16.8 1.4 3 4.2 5.4 7.7 6.3z" fill="#e32426"></path><ellipse transform="rotate(-78.124 273.73 189.68)" cx="273.7" cy="189.7" rx="11.8" ry="11.8" fill="#e32426"></ellipse><path d="M261.1 239.9c-6.3-1.6-12.7 2.2-14.3 8.5-.7 2.7-.4 5.5.7 7.8 8.5-1.2 15.7-4.2 22-8.2-1.1-3.8-4.2-7.1-8.4-8.1zm22.3-27.4c-4.3.9-7.9 4.1-9 8.7-1.6 6.3 2.2 12.7 8.5 14.3.5.1 1.1.2 1.6.3 2.7-2.6 5.2-5.3 7.8-7.9-5-3.9-8-9-8.9-15.4zM314 112.2c6.3 1.6 12.7-2.2 14.3-8.5.5-2 .5-4 0-5.8-7 3.2-13.9 6.7-20.6 10.3 1.6 2 3.7 3.4 6.3 4z" fill="#e32426"></path><ellipse transform="rotate(-5.73 329.276 138.118)" cx="329.1" cy="138.1" rx="11.8" ry="11.8" fill="#e32426"></ellipse><path d="M412.9 93.7c-1.4 5.7 1.5 11.5 6.8 13.7 4.2-2.8 9-4.8 15.1-5.4.4-.8.8-1.7 1-2.6 1.2-4.8-.7-9.6-4.4-12.3-2.6-.9-5.2-1.6-7.9-2.3-4.9.4-9.3 3.8-10.6 8.9zm-37.5-10.3c-.8.1-1.5.2-2.3.4-1.5 6.3 2.3 12.6 8.6 14.2 6.3 1.6 12.7-2.2 14.3-8.5.7-2.7.4-5.3-.7-7.6-6.7-.1-13.4.5-19.9 1.5zm-97.9 43.7c-.4 5.6 3.2 10.9 8.9 12.3 6.3 1.6 12.7-2.2 14.3-8.5 1.5-6-1.9-12.1-7.7-14-1.5.9-3.1 1.9-4.6 2.9-3.7 2.3-7.3 4.8-10.9 7.3zm-60 79.7c.8-3.1.2-6.3-1.3-8.9-1 2.3-1.9 4.6-2.7 7-1.3 3.3-2.5 6.7-3.7 10.1 3.7-1.1 6.7-4.1 7.7-8.2zm12.3 37.3c1.6-6.3-2.2-12.7-8.5-14.3-6.3-1.6-12.7 2.2-14.3 8.5-1.1 4.5.5 9 3.8 11.8 2.1 1 4.2 2 6.3 2.7 5.7.8 11.2-2.9 12.7-8.7zm142-107.4c-6.3-1.6-12.7 2.2-14.3 8.5-.6 2.2-.5 4.4.2 6.4 7.3-.2 14.4.3 21.6 2.2.5-.9.9-1.8 1.1-2.8 1.6-6.3-2.2-12.7-8.6-14.3z" fill="#e32426"></path><path d="M433.5 142.4c.3.1.7.2 1 .2l-9.9-12c-.1 5.4 3.5 10.4 8.9 11.8z" fill="#01294d"></path><path d="M416.3 159.9c1.5-.5 2.9-1.1 4.2-1.7 0-5.3-3.6-10.1-8.9-11.4-6.3-1.6-12.7 2.2-14.3 8.5-.4 1.6-.5 3.3-.2 4.9 5.7 1.5 11.9 2.1 19.2-.3z" fill="#e32426"></path><ellipse transform="rotate(-46.945 356.733 110.864)" cx="356.7" cy="110.9" rx="11.8" ry="11.8" fill="#e32426"></ellipse><circle cx="396.6" cy="120.9" r="11.8" fill="#e32426"></circle><g><path d="M519.3 238.4c-27.1-35.3-27.1-85.1-51.2-122.6-25.2-39.3-52.5-27.5-57.1-10.1-2.4 9-2.4 20.4 9 39 17.1 26.5 34.1 53.1 51.2 79.6 11.8 18.3 16.4 27.4 26.9 39.4l25.6-19.9c-1.6-1.9-3.1-3.7-4.4-5.4z" fill="#e32426"></path><path d="M475.9 228.5c-.7-.2-1.4-.3-2.2-.3 4 6.4 7.2 11.6 10.2 16.2.2-.5.4-1 .5-1.6 1.6-6.3-2.2-12.7-8.5-14.3z" fill="#4a85a9"></path><ellipse transform="rotate(-46.633 436.415 130.952)" cx="436.4" cy="131" rx="11.8" ry="11.8" fill="#fff"></ellipse><path d="M472.2 205.5c1.6-6.3-2.2-12.7-8.5-14.3-4.3-1.1-8.7.4-11.5 3.4 4.1 6.4 8.2 12.8 12.4 19.2 3.5-1.2 6.5-4.3 7.6-8.3z" fill="#195378"></path><path d="M460.1 171.1c1.6-6.3-2.2-12.7-8.5-14.3-6.3-1.6-12.7 2.2-14.3 8.5-.6 2.2-.4 4.4.2 6.4 1.1 1.7 2.2 3.5 3.4 5.2 1.4 1.2 3.1 2.2 5 2.7 6.2 1.7 12.6-2.2 14.2-8.5zm39.8 29.8c-5 .3-9.5 3.8-10.8 8.9-1.6 6.3 2.2 12.7 8.5 14.3 4 1 8.1-.2 10.9-2.8-3.3-6.5-6.1-13.4-8.6-20.4zm-86.7-100.5c1.2 3.6 4.3 6.6 8.3 7.6 6.3 1.6 12.7-2.2 14.3-8.5.9-3.6.1-7.2-2-9.9-9.2-.6-16.7 4.1-20.6 10.8zm102.5 138.1c-6.3-1.6-12.7 2.2-14.3 8.5-1.1 4.3.3 8.6 3.3 11.4l18.4-14.3c-1.5-2.6-4.1-4.7-7.4-5.6zm-50.8-100.4c-1.6 6.3 2.2 12.7 8.5 14.3 3.8 1 7.7-.1 10.5-2.5-2.4-7.1-5.1-14-8.4-20.7-4.9.4-9.4 3.8-10.6 8.9zm12.2 37.3c-1.6 6.3 2.2 12.7 8.5 14.3 3.6.9 7.2.1 9.9-2-2.2-7-4.2-14.1-6.4-21.2-5.4-.3-10.6 3.3-12 8.9zm-22.4-75.8c-.9 1.2-1.6 2.6-2 4.2-1.6 6.3 2.2 12.7 8.5 14.3 2.7.7 5.4.4 7.8-.7-.3-.5-.6-1-1-1.5-4.3-7-8.8-12.3-13.3-16.3z" fill="#fff"></path><path d="M471.2 224.3c11.8 18.3 16.4 27.4 26.9 39.4l11.2-8.7c-8.8-8.2-19.2-14.8-26.6-24.3-12.7-16.2-14.5-38.2-21.8-57.4-12.9-34.1-31.8-39.8-40.8-56.3-4.6-8.4-4.9-19.5 2.9-25.4l-3.3 1.9c-4.3 3-7.4 7.4-8.7 12.3-2.4 9-2.4 20.4 9 39 17.1 26.4 34.1 52.9 51.2 79.5z" fill="#195378"></path><path d="M416.9 105.7c-.2-5.4 1.5-10.7 6.1-14.2l-3.3 1.9c-2.7 1.9-4.9 4.3-6.5 7 .7 2 2 3.9 3.7 5.3zm35.2 88.9c4.1 6.4 8.2 12.8 12.4 19.2 2.9-1 5.4-3.1 6.8-5.9-1.7-5-3.1-10.2-4.5-15.3-1-.6-2-1-3.2-1.3-4.3-1.2-8.7.3-11.5 3.3zm23.8 33.9c-.7-.2-1.4-.3-2.2-.3 4 6.4 7.2 11.6 10.2 16.2.2-.5.4-1 .5-1.6 1.6-6.3-2.2-12.7-8.5-14.3z" fill="#e32426"></path><path d="M504.7 258.5l4.6-3.6c-2.6-2.4-5.3-4.7-8.1-7-.7 4 .7 8 3.5 10.6z" fill="#4a85a9"></path><path d="M437.2 165.4c-.6 2.2-.4 4.4.2 6.4 1.1 1.7 2.2 3.5 3.4 5.2 1.4 1.2 3.1 2.2 5 2.7 6.3 1.6 12.7-2.2 14.3-8.5-2.1-5.2-4.3-9.7-6.6-13.7-.6-.3-1.3-.5-1.9-.7-6.4-1.6-12.8 2.3-14.4 8.6zm-11.1-40.1c-.5.9-.8 1.8-1.1 2.8-1.6 6.3 2.2 12.7 8.5 14.3 2.9.7 5.8.3 8.2-.9-5.6-6.3-11.1-11-15.6-16.2z" fill="#e32426"></path><path d="M636.6 330.6c-4.4.5-7.3-.1-9.6-.3-8.4-.7-17 2.3-25.3 1.2-2.5-1.2-4.6-3.1-6.9-4.6-1.1-.7-2.3-1.2-3.4-1.6-29.2-45.1-53.5-65.6-67.6-81.6l-25.6 19.9c11.2 12.8 29.2 29 70 63.5 5.7 4.8 10.7 10.4 15 16.5.1.2.3.4.5.6 20.2 24.2 16.7 21.3 28.9 22.1 6.7.4 14.4 4.2 20.8.3.6-.4 1-1 1.1-1.7.2-1.6-1.5-2.3-2.7-3.1-2.7-1.7-7.9-8.5-9.9-16.9-.2-.7-.3-1.3-.4-1.9v-.3c.4-2.6 2.3-5 4.7-6 3.9-1.6 10 .1 12.6-3.8.9-1.3.4-2.6-2.2-2.3z" fill="#195378"></path><g><path d="M612.5 366.4c6.1.4 13.2 3.6 19.2 1.1-9.3-5.8-13.3-18.4-23.2-23.4-4.2-2.1-9.1-2.6-13.3-4.6-5.8-2.7-10.1-7.8-14.7-12.3-11.7-11.3-26.6-18.8-38-30.4-11.7-11.9-19.1-27.5-30.8-39.5-.8-.8-1.6-1.6-2.4-2.3l-11.2 8.7c11.2 12.8 29.2 29 70 63.5 5.7 4.8 10.7 10.4 15 16.5.1.2.3.4.5.6 20.3 24.2 16.7 21.3 28.9 22.1z" fill="#003a60"></path></g></g><g><path d="M505.6 269.5c5.9-7.6 14.2-14.7 22.5-19.4 1.8-1 2-3.5.5-4.8l-7.1-6.4c-1.2-1.1-2.9-1.3-4.3-.5-8.3 4.8-16.6 11.9-23.1 19.1-1.6 1.8-1.6 4.6.1 6.3l5.6 6c1.7 1.6 4.4 1.5 5.8-.3z" fill="#88c4e7"></path></g><g><path d="M511.7 257.3c-2.9-2.9-5.9-5.6-9.1-8.2-3 2.7-5.9 5.5-8.5 8.4-1.6 1.8-1.6 4.6.1 6.3l5.6 6c1.6 1.7 4.3 1.5 5.7-.3 2.5-3.3 5.5-6.5 8.8-9.4-.8-1-1.7-1.9-2.6-2.8z" fill="#3e799d"></path></g><g><path d="M459.1 64.6c4-7.8.8-14.8-4.3-16.6-4.7-1.7-10.5 1.1-13.6-1.7-4.4-3.9.8-14.2 6.2-15.4-8.7 1-16 10.5-16 19.7 0 3.8 1.2 7.6 4.1 10.7 4.5 4.8 9.3 6.9 13.7 6.9 3.8 0 7.2-1.3 9.9-3.6z" fill="#01183a"></path></g><g><path d="M470.2 108.1c-5.4.1-2.8-18.5 2.1-21.4 3.3-2 7.4 1.2 6.2 4.9l-8.3 16.5z" fill="#195378"></path></g><g><path d="M417.3 484.9c-4.4 3.7-8.5 7.6-12.4 11.8-1.3 1.4.8 3.5 2.1 2.1 3.9-4.2 8-8.2 12.4-11.8 1.4-1.3-.7-3.4-2.1-2.1z" fill="#003a60"></path></g><g><path d="M420.7 490.9c-4 3.6-7.9 7.3-11.6 11.3-1.3 1.4.8 3.5 2.1 2.1 3.7-3.9 7.6-7.7 11.6-11.3 1.4-1.2-.7-3.3-2.1-2.1z" fill="#003a60"></path></g><g><path d="M424.3 496.9c-3.9 3.4-7.5 7-11.1 10.7-1.3 1.4.8 3.5 2.1 2.1 3.5-3.7 7.2-7.3 11.1-10.7 1.4-1.3-.7-3.4-2.1-2.1z" fill="#003a60"></path></g><g><path d="M428 501.8c-3.5 3.3-7 6.8-10.3 10.3-1.3 1.4.8 3.5 2.1 2.1 3.3-3.6 6.7-7 10.3-10.3 1.4-1.4-.7-3.4-2.1-2.1z" fill="#003a60"></path></g><g><path d="M431.5 507.1c-3 3-5.9 6-8.9 9.1.8.6 1.6 1.2 2.3 1.8.1-.1.1-.2.2-.3 1.2-1.5-1.4-3-2.6-1.5-.1.1-.1.2-.2.3-1 1.4 1.2 3 2.3 1.8 3-3 5.9-6 8.9-9.1 1.4-1.4-.7-3.5-2-2.1z" fill="#003a60"></path></g></g></svg>