<svg xmlns="http://www.w3.org/2000/svg" xmlns:xlink="http://www.w3.org/1999/xlink" enable-background="new 0 0 1000 437.4" viewBox="0 0 1000 437.4"><defs><path id="a" d="M1000 307.8C858 371 797.3 400.3 727.7 417.6c-57.6 14.3-118.9 18.3-175.9 1.7C451.2 390 394 312.4 315.9 299.3c-75.4-12.7-147.2 37-222.7 32.8C55.5 330 16.1 311.5 0 276.5V-.7h999.8l.2 308.5z"></path></defs><clipPath id="b"><use overflow="visible" xlink:href="#a"></use></clipPath><path fill="#abe184" d="M0-68.3h1000v342.9H0z" clip-path="url(#b)"></path><circle cx="418.5" cy="70.9" r="373.8" fill="#abe184" clip-path="url(#b)"></circle><circle cx="418.5" cy="70.9" r="110.9" fill="#c4eaa9" clip-path="url(#b)"></circle><g fill="none" stroke="#b8e697" stroke-miterlimit="10" stroke-width="16" clip-path="url(#b)"><path stroke-linecap="round" d="M330.1-46.7c24.6-18.6 55.3-29.6 88.5-29.6 81.3 0 147.2 65.9 147.2 147.2 0 9.5-.9 18.9-2.6 27.9"></path><path stroke-linecap="round" d="M556.1 123.5c-21.1 55.3-74.7 94.6-137.5 94.6-81.3 0-147.2-65.9-147.2-147.2 0-41.5 17.2-79 44.8-105.7"></path><path stroke-linecap="round" d="M283.5 70.9c0-74.6 60.5-135.1 135.1-135.1 45.5 0 85.7 22.5 110.2 56.9"></path><path stroke-linecap="round" d="M544.4 21.9c5.9 15.2 9.2 31.7 9.2 49 0 74.6-60.5 135.1-135.1 135.1-59.4 0-109.9-38.4-127.9-91.7"></path><path d="M367.8-41.1c15.5-7 32.7-10.9 50.8-10.9 67.9 0 123 55.1 123 123 0 18.8-4.2 36.6-11.7 52.5"></path><path d="M519.8 140.7c-22.2 32.1-59.3 53.2-101.3 53.2-67.9 0-123-55.1-123-123 0-42.9 22-80.7 55.3-102.7"></path><circle cx="418.5" cy="70.9" r="110.9"></circle></g><g fill="none" stroke="#def3cf" stroke-linecap="round" stroke-miterlimit="10" stroke-width="20" clip-path="url(#b)"><circle cx="418.5" cy="70.9" r="22.7"></circle><path d="M387.9 58.8c4.8-12.2 16.7-20.8 30.7-20.8 18.2 0 33 14.8 33 33s-14.8 33-33 33c-14.5 0-26.8-9.4-31.2-22.4"></path><path d="M436.7 110.1c-5.5 2.6-11.7 4-18.2 4-23.9 0-43.2-19.3-43.2-43.2s19.3-43.2 43.2-43.2c23.9 0 43.2 19.3 43.2 43.2 0 4.6-.7 9-2 13.2"></path><path d="M451.5 98.9c-1.5 1.7-3.1 3.3-4.8 4.8"></path><path d="M418.5 124.4c-29.5 0-53.4-23.9-53.4-53.4 0-28 21.6-51 49.1-53.3 1.4-.1 2.9-.2 4.4-.2"></path><path d="M443.5 23.7c16.9 9 28.5 26.8 28.5 47.3 0 19-9.9 35.7-24.9 45.2"></path></g><circle cx="418.5" cy="70.9" r="22.7" fill="#def3cf" clip-path="url(#b)"></circle><circle cx="418.5" cy="70.9" r="7" fill="#fff" clip-path="url(#b)"></circle><g clip-path="url(#b)"><path fill="#fff" d="M419.7 106.7c7.3-.3 14.6-2.9 20.4-7.4 5.8-4.5 10.2-10.8 12.3-17.7.5-1.7.9-3.5 1.2-5.3.3-1.8.4-3.6.3-5.4l-.1-1.4v-.7l-.1-.7-.1-1.4-.2-1.3-.1-.7c0-.2-.1-.4-.1-.7l-.3-1.3c-.1-.4-.2-.9-.4-1.3-.1-.4-.2-.9-.4-1.3-2.3-6.9-6.8-13-12.6-17.3l-.6.8c5.6 4.2 9.8 10.2 11.9 16.9.1.4.3.8.4 1.3.1.4.2.8.3 1.3l.3 1.3c0 .2.1.4.1.6l.1.6.2 1.3.1 1.3.1.6v2c0 1.7-.1 3.5-.4 5.2-.3 1.7-.7 3.4-1.2 5.1-2.1 6.6-6.4 12.5-11.9 16.6-5.5 4.2-12.3 6.5-19.2 6.6-.6 0-1.1.6-1.1 1.2-.1.7.5 1.2 1.1 1.2z"></path></g><g clip-path="url(#b)"><path fill="#fff" d="M418.1 35.2c-6.1.2-12.2 2-17.4 5.1-5.2 3.2-9.5 7.7-12.5 12.9l.9.5c3-5 7.4-9.1 12.4-12 5-2.8 10.8-4.3 16.5-4.2.3 0 .5-.5.5-1.2 0-.6-.2-1.1-.4-1.1z"></path></g><g clip-path="url(#b)"><path fill="#fff" d="M382.8 71.5c.1 1.9.3 3.8.7 5.7.1.9.4 1.9.7 2.8l.2.7.2.7.5 1.4c.1.5.3.9.5 1.3l.6 1.3.3.6.3.6.7 1.3 1.5 2.4.8 1.2c.3.4.5.8.9 1.1 4.7 5.9 11.4 10.2 18.6 12.1l.3-1c-7-2.1-13.2-6.4-17.6-12.2-.3-.3-.5-.7-.8-1.1l-.8-1.1c-.5-.8-.9-1.6-1.4-2.3l-.6-1.2-.3-.6-.3-.6-.5-1.3c-.2-.4-.3-.8-.5-1.3l-.4-1.3-.2-.6-.1-.7c-.2-.9-.4-1.7-.5-2.6-.3-1.8-.5-3.5-.5-5.3 0-.3-.5-.6-1.2-.6-.6 0-1.1.3-1.1.6z"></path></g><g clip-path="url(#b)"><path fill="#e1ffa2" d="M452.6 113.5c6.3-5.2 11.4-11.8 14.8-19.1 3.4-7.3 5.1-15.4 5-23.5h-1c-.1 7.9-2 15.7-5.5 22.7s-8.6 13.2-14.7 18c-.3.2-.2.8.3 1.3.3.6.9.9 1.1.6z"></path></g><g clip-path="url(#b)"><path fill="#fff" d="M467.8 47.5c-4.2-8.3-10.5-15.4-18.2-20.6l-.6.9c7.2 5.4 13 12.6 16.6 20.7.1.2.6.1 1.2-.2.7-.3 1.1-.6 1-.8z"></path></g><g clip-path="url(#b)"><path fill="#e1ffa2" d="M425.6 16.8c-2.1-.3-4.2-.4-6.3-.4h-1.6l-1.6.1c-.5 0-1 .1-1.6.1l-1.6.1c-4.2.5-8.3 1.4-12.3 2.8-1 .3-2 .7-2.9 1.1-.5.2-1 .4-1.4.6l-1.4.7c-1.9 1-3.7 2-5.5 3.1-3.5 2.3-6.8 4.9-9.7 8-2.9 3-5.5 6.4-7.6 10-2.1 3.6-3.8 7.4-5.1 11.4-.2.5-.3 1-.4 1.5l-.4 1.5-.3 1.5-.3 1.5-.3 1.5c0 .3-.1.5-.1.8l-.1.8-.2 1.6c-.1.5-.1 1-.1 1.6 0 .5-.1 1-.1 1.6V73c.1 2.1.3 4.2.6 6.2l1-.2c-.3-2-.5-4.1-.5-6.1v-4.6c0-.5.1-1 .1-1.5s.1-1 .1-1.5l.2-1.5.1-.8c0-.3.1-.5.1-.8l.3-1.5.3-1.5.4-1.5.4-1.5c.1-.5.3-1 .4-1.5 1.3-3.9 3-7.6 5.1-11.1 2.1-3.5 4.7-6.7 7.5-9.6 2.8-2.9 6.1-5.4 9.5-7.6 1.7-1.1 3.5-2 5.3-2.9l1.4-.6c.5-.2.9-.4 1.4-.6.9-.4 1.9-.8 2.8-1.1 3.8-1.3 7.8-2.1 11.8-2.5l1.5-.1c.5 0 1-.1 1.5-.1h3c2 0 4 .2 6 .5.7.1 1.4-.3 1.5-1 .4-.5-.1-1.1-.9-1.2z"></path></g><g clip-path="url(#b)"><path fill="#fff" d="M371.3 98.2l1.3 2.1 1.4 2 .7 1 .8 1c.5.6 1 1.3 1.6 1.9l1.7 1.8c.3.3.5.6.8.9l.9.9.9.9c.3.3.6.6.9.8l1.9 1.6c2.6 2 5.3 3.9 8.2 5.4 1.4.8 2.9 1.5 4.4 2.2.7.3 1.5.6 2.3.9l1.1.4c.4.1.8.3 1.2.4 12.4 4.1 26.3 3.5 38.2-1.7l-.4-1c-11.8 4.9-25.3 5.3-37.3 1.1-.4-.1-.8-.2-1.1-.4l-1.1-.4c-.7-.3-1.5-.6-2.2-.9-1.4-.7-2.9-1.3-4.2-2.2-2.8-1.5-5.3-3.4-7.8-5.4l-1.8-1.6c-.3-.2-.6-.5-.9-.8l-.8-.8-.8-.8c-.3-.3-.5-.6-.8-.9l-1.6-1.8c-.5-.6-1-1.2-1.5-1.9l-.7-.9-.7-1-1.3-2-1.2-2c-.3-.5-1-.6-1.6-.3-.6.3-.8 1-.5 1.5z"></path></g><g clip-path="url(#b)"><path fill="#fff" d="M485.2 39.7c-8.1-17.2-23.2-31-41-37.4l-1.7-.6-1.7-.5-.8-.3-.9-.2-1.7-.5-1.7-.4-.9-.2-.8-.3-1.8-.3-1.7-.3c-4.7-.8-9.4-1-14.1-.9-9.4.3-18.8 2.5-27.4 6.4l.4 1c8.5-3.7 17.7-5.7 27-6 4.6-.1 9.3.2 13.8 1l1.7.3 1.7.4.8.2.8.2 1.7.4 1.7.5.8.2.8.3 1.6.5 1.6.6c17.3 6.5 31.8 20.1 39.5 36.8.3.7 1.1 1.1 1.7.9.8-.2 1-1 .6-1.8z"></path></g><g clip-path="url(#b)"><path fill="#fff" d="M368 17.5c-3.2 3.1-6.2 6.4-8.8 10-2.6 3.6-4.9 7.4-6.8 11.4-1.9 4-3.5 8.2-4.6 12.5-1.1 4.3-1.9 8.7-2.2 13.1l-.1 1.7-.1.8v.8c0 1.1-.1 2.2-.1 3.3 0 1.1 0 2.2.1 3.3l.1 1.7.1.8.1.8c.4 4.4 1.3 8.8 2.5 13 .1.3.1.5.2.8l.3.8.5 1.6c.4 1 .7 2.1 1.1 3.1l.6 1.5.6 1.5c.5 1 .9 2 1.4 3 2 3.9 4.3 7.7 6.9 11.2l.8-.6c-2.6-3.5-4.8-7.3-6.7-11.2-.5-1-.9-2-1.4-3l-.6-1.5-.6-1.5c-.4-1-.7-2-1.1-3.1l-.5-1.6-.2-.8c-.1-.3-.1-.5-.2-.8-1.1-4.2-1.9-8.5-2.3-12.8l-.1-.8v-.8l-.1-1.6c-.1-1.1 0-2.2-.1-3.2 0-1.1.1-2.2.1-3.2v-.8l.1-.8.1-1.6c.4-4.3 1.2-8.6 2.3-12.7 1.2-4.2 2.8-8.2 4.7-12.1 1.9-3.9 4.2-7.6 6.7-11 2.6-3.5 5.5-6.7 8.6-9.6.5-.5.6-1.3.2-1.8-.1-.4-1-.4-1.5.2z"></path></g><g clip-path="url(#b)"><path fill="#fff" d="M398.4 141.8c5.5 1.5 11.1 2.4 16.8 2.6 5.7.2 11.3-.2 16.9-1.3 1.4-.2 2.8-.6 4.1-.9.7-.1 1.4-.4 2-.6l2-.6c.7-.2 1.3-.5 2-.7l1-.3.5-.2.5-.2 2-.8c.3-.1.7-.3 1-.4l1-.4c5.1-2.3 10-5.2 14.5-8.6 4.5-3.4 8.6-7.4 12.2-11.7 3.6-4.4 6.6-9.1 9.1-14.2 2.5-5 4.4-10.4 5.6-15.9 1.3-5.5 1.9-11.1 1.9-16.7h-1c0 5.5-.7 11.1-2 16.4-1.3 5.4-3.2 10.6-5.7 15.5s-5.5 9.6-9.1 13.8c-3.6 4.2-7.6 8-12 11.3-4.4 3.3-9.2 6.1-14.3 8.3l-.9.4c-.3.1-.6.3-1 .4l-1.9.7-.5.2-.5.2-1 .3c-.7.2-1.3.4-2 .6l-2 .6c-.7.2-1.3.4-2 .5-1.3.3-2.7.6-4 .8-5.4 1-10.9 1.3-16.4 1.1-5.5-.3-10.9-1.2-16.2-2.7-.9-.3-1.8 0-2 .6-.2.8.4 1.6 1.4 1.9z"></path></g><g clip-path="url(#b)"><path fill="#fff" d="M472.2-4.3c-5.2-3.7-10.9-6.9-16.8-9.4-3-1.2-6-2.4-9-3.3-3.1-1-6.2-1.7-9.3-2.4-6.3-1.2-12.7-1.9-19.1-1.8-6.4.1-12.8.8-19 2.2-12.5 2.8-24.4 8.2-34.7 15.8C354 4.3 345.4 14 339 25.1l.9.5c6.4-10.9 15-20.4 25.2-27.8 10.2-7.4 21.9-12.6 34.2-15.2 6.1-1.3 12.4-1.9 18.7-2 6.3 0 12.5.7 18.7 1.9 3.1.7 6.1 1.4 9.1 2.4 3 .9 5.9 2.1 8.8 3.3 5.7 2.6 11.2 5.6 16.3 9.3.9.6 1.9.7 2.3.2s-.1-1.4-1-2z"></path></g><g clip-path="url(#b)"><path fill="#def3cf" d="M327.1 57.1c-2.2 15.8-.2 32.1 5.7 46.8l1-.4c-5.4-14.7-6.9-30.8-4.4-46.1.1-.3-.4-.7-1.1-.8-.6-.1-1.1.1-1.2.5z"></path></g><g clip-path="url(#b)"><path fill="#d5ff79" d="M471.5 146.7c2.5-1.8 5-3.7 7.3-5.7s4.6-4.2 6.7-6.4c4.3-4.5 8-9.5 11.3-14.7 6.5-10.5 10.9-22.4 12.7-34.6.9-6.1 1.2-12.3.9-18.5-.3-6.2-1.2-12.3-2.8-18.3-1.5-6-3.7-11.8-6.4-17.3s-6-10.8-9.7-15.7l-.8.6c3.6 4.9 6.8 10.1 9.4 15.6 2.6 5.5 4.7 11.2 6.1 17.1 1.4 5.9 2.3 11.9 2.6 18 .2 6.1-.1 12.2-1.1 18.1-1.9 12-6.3 23.5-12.8 33.8-3.3 5.1-7 9.9-11.2 14.3-2.1 2.2-4.3 4.3-6.6 6.2-2.3 2-4.7 3.8-7.2 5.5-.9.6-1.3 1.5-.9 2.1.6.6 1.6.5 2.5-.1z"></path></g><g fill="#fff" clip-path="url(#b)"><path d="M448.7 178.2c11.6-3.3 22.6-8.5 32.4-15.3 9.9-6.8 18.6-15.2 25.8-24.8 7.2-9.6 12.8-20.3 16.6-31.7 3.8-11.4 5.6-23.3 5.6-35.3h-1c-.1 11.8-2 23.6-5.9 34.8-3.8 11.2-9.5 21.7-16.6 31.1-7.2 9.4-15.9 17.6-25.6 24.2-9.8 6.6-20.6 11.6-31.9 14.7-1 .3-1.7 1-1.5 1.7.1.6 1.1.8 2.1.6z"></path><path d="M524.6 37.5c-2.4-7.5-5.6-14.7-9.5-21.6-2-3.4-4.1-6.7-6.4-9.9-1.1-1.6-2.4-3.1-3.6-4.7-.3-.4-.6-.8-.9-1.1l-1-1.1c-.6-.7-1.3-1.5-1.9-2.2l-2-2.2-2.1-2.1c-1.4-1.4-2.8-2.7-4.3-4.1-3-2.6-6-5.1-9.2-7.4-1.6-1.2-3.2-2.2-4.9-3.3-.8-.5-1.7-1-2.5-1.5l-1.3-.8c-.4-.3-.9-.5-1.3-.7l-2.6-1.4c-.9-.5-1.7-.9-2.6-1.3l-1.3-.7c-.4-.2-.9-.4-1.3-.6l-2.7-1.2c-3.6-1.5-7.3-3-11-4.1-1.9-.6-3.8-1.1-5.7-1.6-.5-.1-1-.2-1.4-.4l-1.4-.3-1.4-.3-.7-.2-.7-.1c-1.9-.4-3.9-.7-5.8-1-1-.1-1.9-.3-2.9-.4l-2.9-.3c-.5 0-1-.1-1.5-.1l-1.5-.1-2.9-.2-2.9-.1h-3c-7.8.1-15.7 1-23.3 2.8-7.6 1.8-15.1 4.3-22.2 7.7l.4.9c7-3.3 14.4-5.7 22-7.4 7.6-1.7 15.3-2.5 23.1-2.6h3l2.9.1 2.9.2 1.4.1c.5 0 1 .1 1.4.1l2.9.3c1 .1 1.9.3 2.9.4 1.9.3 3.8.7 5.7 1l.7.1.7.2 1.4.3 1.4.3c.5.1.9.2 1.4.4 1.9.5 3.7 1 5.6 1.6 3.7 1.1 7.3 2.6 10.8 4.1l2.6 1.2c.4.2.9.4 1.3.6l1.3.7c.9.4 1.7.9 2.6 1.3l2.5 1.4c.4.2.8.5 1.3.7l1.2.8c.8.5 1.6 1 2.5 1.5 1.6 1.1 3.2 2.1 4.8 3.3 3.1 2.2 6.1 4.7 9 7.3 1.4 1.3 2.8 2.6 4.2 4 .7.7 1.4 1.4 2 2.1l2 2.1c.7.7 1.3 1.5 1.9 2.2l.9 1.1c.3.4.6.7.9 1.1 1.2 1.5 2.4 3 3.5 4.6 2.3 3.1 4.3 6.4 6.2 9.7 3.8 6.7 6.9 13.8 9.2 21.2.4 1.3 1.2 2.2 1.9 2 .4.1.6-1.1.2-2.4z"></path></g><g clip-path="url(#b)"><path fill="#fff" d="M473.1-47.3c-13.7-6.3-28.4-10.1-43.4-11.3-15-1.2-30.1.2-44.6 4.1-14.5 3.9-28.2 10.4-40.5 19S321.6-16.2 313-4l.8.6c8.6-12.1 19.4-22.6 31.6-31 12.2-8.4 25.8-14.7 40.2-18.4 14.3-3.7 29.3-5 44-3.7 14.7 1.3 29.2 5.2 42.6 11.4 1.2.6 2.4.5 2.7-.1.1-.6-.6-1.5-1.8-2.1z"></path></g><g clip-path="url(#b)"><path fill="#fff" d="M290.3 48.7c-1.1 6.4-1.7 12.8-1.8 19.2-.1 6.4.2 12.9 1.1 19.3.8 6.4 2.1 12.7 3.9 18.9 1.8 6.2 4 12.2 6.6 18.1 5.4 11.7 12.4 22.6 20.9 32.2 8.5 9.6 18.4 17.9 29.3 24.7l.5-.9c-10.8-6.8-20.5-15.1-28.8-24.7-8.4-9.6-15.2-20.4-20.4-32-2.6-5.8-4.7-11.8-6.4-17.9-1.7-6.1-2.9-12.3-3.7-18.6-.8-6.3-1-12.6-.9-19 .2-6.3.8-12.6 1.9-18.9.2-1.1-.2-2.1-.8-2.2-.6-.1-1.2.7-1.4 1.8z"></path></g><g clip-path="url(#b)"><path fill="#fff" d="M539.3 119.7c4.7-11.8 7.7-24.3 8.7-36.9.3-3.2.4-6.3.5-9.5v-2.4l-.1-2.4c-.1-1.6-.1-3.2-.2-4.7-.3-3.2-.4-6.3-.9-9.4-.3-3.1-1-6.2-1.5-9.4-.3-1.5-.7-3.1-1.1-4.6-.2-.8-.3-1.5-.6-2.3l-.7-2.3-.7-2.3-.3-1.1c-.1-.4-.3-.7-.4-1.1l-1.5-4.5c-.1-.4-.3-.7-.4-1.1l-.4-1.1-.9-2.2c-.3-.7-.6-1.5-.9-2.2l-1-2.2-1-2.2-.5-1.1c-.2-.4-.4-.7-.5-1.1l-2.2-4.2c-3.1-5.5-6.5-10.9-10.2-15.9-3.8-5-8-9.8-12.4-14.3l-.7.7c4.4 4.5 8.5 9.2 12.2 14.3 3.7 5.1 7 10.4 10 15.9l2.1 4.2c.2.3.4.7.5 1l.5 1.1 1 2.1 1 2.1c.3.7.6 1.5.9 2.2l.8 2.2.4 1.1c.1.4.3.7.4 1.1l1.5 4.4c.1.4.3.7.4 1.1l.3 1.1.6 2.3.6 2.3c.2.8.4 1.5.5 2.3.3 1.5.7 3 1 4.6.5 3.1 1.1 6.1 1.4 9.3.4 3.1.6 6.2.8 9.3.1 1.6.1 3.1.1 4.7v4.6c-.1 3.1-.2 6.2-.6 9.3-1.2 12.4-4.2 24.6-8.9 36.2-.4 1-.3 2.1.3 2.3.8.4 1.6-.2 2.1-1.3z"></path></g><g clip-path="url(#b)"><path fill="#fff" d="M545.7-5.5c-6.6-10.9-14.6-20.9-23.8-29.7-9.1-8.8-19.4-16.5-30.5-22.7-11.1-6.2-23-11-35.2-14.2-12.3-3.2-25-4.7-37.7-4.7v1c12.6.1 25.2 1.7 37.3 5 12.1 3.2 23.9 8.1 34.8 14.3 10.9 6.2 21 13.9 29.9 22.7 8.9 8.8 16.8 18.7 23.2 29.5.6.9 1.5 1.4 2.1 1.1s.5-1.4-.1-2.3z"></path></g><g clip-path="url(#b)"><path fill="#fff" d="M358.2-64.7c-19.5 8.8-37 21.9-51 38-7 8-13.1 16.8-18.2 26.2-5.1 9.3-9.2 19.2-12.2 29.5l1 .3C280.9 19.2 285 9.4 290.2.2c5.2-9.2 11.3-17.9 18.3-25.7 14-15.8 31.4-28.5 50.7-36.9.8-.4 1.3-1.2 1.1-1.8-.3-.7-1.2-.9-2.1-.5z"></path></g><g clip-path="url(#b)"><path fill="#fff" d="M272.3 45.7c-3.9 24.3-1.8 49.5 6.3 72.7l1-.3c-7.6-23.1-9.3-48.1-5-71.9.1-.5-.4-1-1-1.2-.6-.2-1.2.2-1.3.7z"></path></g><g clip-path="url(#b)"><path fill="#d5ff79" d="M253.6 104.3l.5 2.3c.1.4.2.8.2 1.2l.3 1.2 1.1 4.6.3 1.2c.1.4.2.8.3 1.1l.7 2.3.7 2.3c.2.8.4 1.5.7 2.3l1.6 4.5.4 1.1.2.6.2.6.9 2.2c.6 1.5 1.1 3 1.8 4.4l1.9 4.3c.3.7.6 1.5 1 2.2l1.1 2.1 2.1 4.3 2.3 4.2 1.2 2.1 1.2 2 2.5 4.1 2.7 4 1.3 2c.5.6.9 1.3 1.4 1.9l2.8 3.8c1 1.2 2 2.5 3 3.7l1.5 1.9c.5.6 1 1.2 1.6 1.8l3.1 3.6c1.1 1.2 2.2 2.3 3.3 3.4l1.6 1.7 1.7 1.7 3.4 3.3c1.2 1.1 2.4 2.1 3.6 3.2l1.8 1.6 1.8 1.5 3.7 3c.3.3.6.5.9.7l1 .7 1.9 1.4 1.9 1.4.5.4.5.3 1 .7 3.9 2.7c5.4 3.4 10.8 6.7 16.5 9.4 22.7 11.4 48 17.4 73.3 17.6 12.7.1 25.3-1.2 37.7-3.9 12.4-2.7 24.4-6.9 35.9-12.3l-.4-.9c-11.4 5.4-23.4 9.4-35.7 12.1-12.3 2.6-24.9 3.9-37.4 3.7-25.1-.3-50.2-6.4-72.6-17.7-5.6-2.8-11-6-16.3-9.4l-3.9-2.7-1-.7-.5-.3-.5-.4-1.9-1.4-1.9-1.4-.9-.7c-.3-.2-.6-.5-.9-.7l-3.6-3-1.8-1.5-1.8-1.6c-1.2-1-2.4-2.1-3.5-3.1l-3.4-3.3c-.6-.6-1.1-1.1-1.7-1.6l-1.6-1.7c-1.1-1.1-2.2-2.3-3.2-3.4l-3.1-3.5-1.5-1.8-1.5-1.8c-1-1.2-2-2.4-2.9-3.7l-2.8-3.8c-.5-.6-.9-1.3-1.4-1.9l-1.3-2-2.6-3.9-2.4-4-1.2-2-1.1-2.1-2.3-4.1-2.1-4.2-1-2.1c-.3-.7-.6-1.4-1-2.1l-1.9-4.3c-.6-1.4-1.1-2.9-1.7-4.4l-.9-2.2-.2-.5-.2-.6-.4-1.1-1.5-4.4c-.3-.7-.5-1.5-.7-2.2l-.7-2.3-.7-2.3c-.1-.4-.2-.8-.3-1.1l-.2-1.6-1.1-4.6-.3-1.1c-.1-.4-.2-.8-.2-1.2l-.5-2.3c-.4-2.2-1.3-3.8-2-3.7-.6.1-.7 2-.3 4.2z"></path></g><g clip-path="url(#b)"><path fill="#fff" d="M551.2 174.2c10.3-13.4 18.5-28.3 24.4-44.1 5.8-15.8 9.3-32.5 10.1-49.3l-1-.1c-1.1 16.7-4.7 33.2-10.7 48.7-6 15.6-14.3 30.2-24.7 43.3-.4.6-.4 1.4.1 1.8.6.5 1.4.3 1.8-.3z"></path></g><g clip-path="url(#b)"><path fill="#def3cf" d="M584.6 44.7c-2.4-15.2-7-30-13.4-43.9-6.5-13.9-14.9-26.9-24.9-38.6-10-11.6-21.6-21.9-34.3-30.4-12.7-8.5-26.7-15.3-41.2-20l-.3 1c14.4 4.8 28.2 11.6 40.8 20.2 12.6 8.5 24 18.8 33.8 30.4 9.8 11.6 18 24.5 24.3 38.3 6.3 13.8 10.7 28.5 12.9 43.5.2 1.3.9 2.3 1.6 2.2.6-.2.9-1.4.7-2.7z"></path></g><g clip-path="url(#b)"><path fill="#d5ff79" d="M415.4-97.2c-19.1.4-38.1 4-55.9 10.7-17.8 6.7-34.5 16.5-49 28.9-14.5 12.3-27 27.1-36.6 43.5-9.6 16.4-16.4 34.5-20 53.1l1 .2c3.6-18.5 10.5-36.4 20.1-52.6 9.6-16.2 22-30.8 36.5-42.9 14.5-12.1 31-21.7 48.6-28.2 17.6-6.6 36.4-10 55.2-10.3 1.7 0 3-.6 3-1.3.2-.7-1.2-1.2-2.9-1.1z"></path></g><g clip-path="url(#b)"><path fill="#fff" d="M235.4 36.3c-2.2 11.7-3.2 23.7-3.1 35.6.1 11.9 1.3 23.8 3.7 35.5 2.3 11.7 5.8 23.1 10.3 34.2 4.6 11 10.2 21.6 16.7 31.5 13.1 19.9 30.1 37.1 49.6 50.7l.9.6.9.6 1.9 1.2c1.2.8 2.5 1.6 3.7 2.4l3.8 2.3c1.3.8 2.5 1.6 3.9 2.2l3.9 2.1c.7.3 1.3.7 2 1l2 1 4 2c.7.3 1.3.6 2 .9l2 .9c10.9 4.8 22.2 8.5 33.8 11.1l.2-1c-11.5-2.7-22.8-6.4-33.6-11.2l-2-.9c-.7-.3-1.4-.6-2-.9l-4-2-2-1c-.7-.3-1.3-.7-1.9-1.1l-3.9-2.1c-1.3-.7-2.6-1.5-3.8-2.2l-3.8-2.3c-1.2-.8-2.5-1.6-3.7-2.4l-1.8-1.2-.9-.6-.9-.6c-19.3-13.6-36.1-30.7-49-50.5-6.4-9.9-12-20.4-16.4-31.3-4.4-10.9-7.8-22.3-10-33.8-2.3-11.6-3.4-23.3-3.5-35.1-.1-11.8 1-23.6 3.3-35.1.4-2 .2-3.8-.4-3.9-.7-.2-1.6 1.3-1.9 3.4z"></path></g><g clip-path="url(#b)"><path fill="#fff" d="M454.1 254c15.7-3.1 31.1-8.2 45.5-15.3 14.4-7 27.9-15.9 40-26.4 12.1-10.5 22.9-22.5 32-35.7 9.1-13.2 16.4-27.5 21.8-42.6l-1-.4c-5.5 14.9-12.9 29.1-21.9 42.2-9.1 13-19.8 24.9-31.9 35.2-12.1 10.3-25.5 19-39.8 25.8-14.3 6.9-29.5 11.8-45 14.8-1.4.3-2.4 1-2.3 1.7 0 .7 1.2 1 2.6.7z"></path></g><g clip-path="url(#b)"><path fill="#fff" d="M601 109.6c6.5-31.8 4.5-65.3-5.7-96l-1 .3c9.7 30.7 11.2 63.8 4.4 95.2-.1.7.3 1.4.9 1.5.6.1 1.2-.3 1.4-1z"></path></g><g clip-path="url(#b)"><path fill="#fff" d="M544.4-66.6c-9.8-8.9-20.5-16.8-31.9-23.4-11.4-6.6-23.5-12.1-36.1-16.1-12.6-4.1-25.6-6.8-38.7-8.1-6.6-.7-13.2-1-19.8-.9l-4.9.1c-1.6.1-3.3.2-4.9.2l-1.2.1-1.2.1-2.5.2c-.8.1-1.6.1-2.5.2l-2.5.3c-6.6.7-13.1 1.8-19.5 3.2-6.4 1.4-12.8 3.2-19.1 5.3-6.3 2.1-12.4 4.5-18.4 7.3-6 2.8-11.8 5.9-17.5 9.2-5.7 3.4-11.1 7.1-16.4 11l-3.9 3-3.8 3.1-3.7 3.2c-1.2 1.1-2.4 2.2-3.7 3.3-9.6 9-18.3 19-25.9 29.8l.9.6c7.6-10.7 16.2-20.6 25.8-29.5l3.6-3.3 3.7-3.2 3.8-3.1 3.9-3c5.3-3.9 10.7-7.5 16.3-10.9 5.6-3.3 11.4-6.4 17.4-9.1 6-2.7 12.1-5.1 18.3-7.1 6.2-2.1 12.5-3.8 18.9-5.2 6.4-1.4 12.9-2.4 19.4-3.1l2.4-.3c.8-.1 1.6-.1 2.4-.2l2.4-.2 1.2-.1 1.2-.1c1.6-.1 3.3-.2 4.9-.2l4.9-.1c6.5 0 13.1.3 19.6 1 13 1.4 25.8 4.1 38.3 8.2 12.4 4.1 24.4 9.5 35.6 16.1 11.3 6.6 21.8 14.4 31.4 23.3 1.7 1.6 3.4 2.5 3.9 2 .6-.3-.4-2-2.1-3.6z"></path></g><g clip-path="url(#b)"><path fill="#def3cf" d="M623.8 69.2c-.1-11-1.2-22-3-32.9-1.9-10.8-4.7-21.5-8.3-31.9-7.2-20.8-17.9-40.3-31.3-57.7l-.8.6c13.2 17.4 23.6 37 30.5 57.6 3.5 10.3 6.1 20.9 7.9 31.7 1.8 10.8 2.7 21.7 2.7 32.5 0 1 .6 1.7 1.2 1.7.6.1 1.1-.7 1.1-1.6z"></path></g><g clip-path="url(#b)"><path fill="#fff" d="M565.9-71.9l-2.6-2.6c-.9-.9-1.7-1.7-2.6-2.5l-1.3-1.3c-.4-.4-.9-.8-1.3-1.2l-2.7-2.5-2.7-2.4-1.4-1.2-1.4-1.2c-.9-.8-1.9-1.6-2.8-2.3l-2.9-2.2c-3.8-3-7.8-5.8-11.8-8.5-2-1.4-4.1-2.6-6.1-3.9-1-.6-2.1-1.2-3.1-1.9l-1.6-.9-1.6-.9c-16.9-9.6-35.1-16.7-54-21.2l-3.5-.8-3.6-.7-1.8-.4-1.8-.3-3.6-.6-3.6-.5-1.8-.3-1.8-.2-3.6-.4-3.6-.3-1.8-.2c-.6-.1-1.2-.1-1.8-.1l-3.6-.2c-1.2-.1-2.4-.1-3.6-.1-1.2 0-2.4-.1-3.6-.1h-9l-1.8.1c-1.2 0-2.4.1-3.6.1-19.4 1-38.6 4.7-56.9 11.1-18.3 6.4-35.7 15.4-51.5 26.7-3.9 2.8-7.8 5.8-11.5 8.9-3.7 3.1-7.4 6.3-10.9 9.6-3.5 3.4-6.9 6.8-10.2 10.4-3.3 3.6-6.4 7.3-9.4 11.1-12 15.2-21.8 32.1-29.1 50.1-7.4 17.7-12.1 36.7-14 56l1 .1c1.9-19.2 6.6-38 13.9-55.9 7.3-17.8 17.1-34.6 29-49.7 3-3.8 6.1-7.4 9.4-11 3.3-3.5 6.6-7 10.1-10.3 3.5-3.3 7.1-6.5 10.8-9.5 3.7-3.1 7.5-6 11.5-8.8 15.7-11.1 32.9-20 51.1-26.3 18.2-6.3 37.2-9.9 56.4-10.9 1.2-.1 2.4-.1 3.6-.1l1.8-.1h5.4l3.6.1c1.2 0 2.4.1 3.6.1 1.2.1 2.4.1 3.6.2l3.6.2c.6 0 1.2.1 1.8.1l1.8.2 3.6.3 3.6.4 1.8.2 1.8.3 3.6.5 3.5.6 1.8.3 1.8.4 3.5.7 3.5.8c18.7 4.5 36.7 11.6 53.4 21.1l1.6.9 1.5.9c1 .6 2.1 1.2 3.1 1.9 2 1.3 4.1 2.6 6 3.9 4 2.7 7.9 5.5 11.7 8.4l2.8 2.2c.9.8 1.8 1.5 2.8 2.3l1.4 1.2 1.4 1.2 2.7 2.4 2.6 2.4c.4.4.9.8 1.3 1.2l1.3 1.3c.9.8 1.7 1.7 2.6 2.5l2.5 2.6 1.7 1.7c.5.5 1.1.9 1.5 1.3.9.7 1.6 1 1.9.8.2-.2 0-.9-.6-1.9-.3-.5-.7-1-1.2-1.6-.4-.6-1-1.2-1.6-1.8z"></path></g><g clip-path="url(#b)"><path fill="#def3cf" d="M219.4 120.7c2.9 11.7 6.9 23.1 11.8 34.1s10.9 21.5 17.6 31.4c13.6 19.9 30.7 37.3 50.2 51.3 19.5 14 41.6 24.6 64.8 30.9 11.6 3.2 23.5 5.4 35.4 6.5.4 0 .7.1 1.1.1l1.1.1 2.2.1 4.5.3 1.1.1h3.4l4.5.1c6 .1 12-.2 18-.7 24-1.9 47.6-8.2 69.3-18.3 10.9-5.1 21.3-11.1 31.2-18 9.8-6.9 19.1-14.7 27.5-23.2 17-17 30.9-37 41-58.8 10.1-21.8 16.2-45.4 18.1-69.3l-1-.1c-2 23.8-8.1 47.2-18.2 68.9-10.1 21.6-24 41.5-40.9 58.3-8.4 8.4-17.6 16.1-27.4 22.9-9.8 6.8-20.2 12.8-31 17.8-21.6 10-45.1 16.2-68.8 18-5.9.5-11.9.7-17.9.6l-4.5-.1-2.2-.1h-1.1l-1.1-.1-4.5-.3-2.2-.2-1.1-.1c-.4 0-.7-.1-1.1-.1-11.9-1.1-23.6-3.3-35.1-6.5-23-6.4-44.7-16.9-64.1-30.8-19.3-13.9-36.2-31.2-49.6-50.9-6.7-9.8-12.5-20.3-17.4-31.1-4.8-10.9-8.7-22.2-11.6-33.7-1-4.1-2.2-7.3-2.9-7.2-.3.5-.1 4 .9 8.1z"></path></g><g clip-path="url(#b)"><path fill="#fff" d="M610.8-42.8c-9.9-16.6-21.9-31.8-35.7-45.3-13.8-13.5-29.3-25.2-46-34.7-16.7-9.5-34.7-16.8-53.4-21.7-18.6-4.9-37.9-7.3-57.1-7.2v1c19.1.1 38.3 2.6 56.8 7.5s36.3 12.3 52.9 21.8 31.9 21.2 45.5 34.6c13.6 13.4 25.4 28.6 35.1 45.1.9 1.4 2 2.4 2.6 2 .4-.2.1-1.7-.7-3.1z"></path></g><g clip-path="url(#b)"><path fill="#fff" d="M353.7-142.8c-15 4.6-29.6 10.8-43.3 18.5-13.7 7.7-26.6 16.8-38.4 27.1-11.8 10.4-22.5 21.9-31.9 34.5-9.4 12.6-17.4 26.1-23.9 40.4l.9.4c6.6-14.1 14.7-27.6 24.1-40 9.4-12.4 20.1-23.9 31.9-34.1 11.8-10.2 24.6-19.1 38.3-26.6 13.6-7.5 28.1-13.5 43-18 1.3-.4 2.2-1.2 2-1.9-.1-.6-1.4-.8-2.7-.3z"></path></g><g clip-path="url(#b)"><path fill="#def3cf" d="M196.9 43c-.7 5.4-1.1 10.8-1.4 16.3-.3 5.4-.3 10.9-.2 16.3.2 10.9 1.3 21.7 3.1 32.4 3.6 21.4 10.5 42.3 20.2 61.8 4.8 9.7 10.4 19.1 16.6 28 6.2 8.9 13.1 17.4 20.5 25.3 14.9 15.8 32.1 29.4 50.8 40.4l.5-.9c-18.6-11-35.6-24.6-50.3-40.4-7.3-7.9-14.1-16.3-20.2-25.2-6.1-8.9-11.6-18.2-16.4-27.9-9.5-19.4-16.2-40.1-19.7-61.3-1.7-10.6-2.7-21.4-2.9-32.1-.1-5.4 0-10.8.3-16.1.3-5.4.8-10.7 1.5-16.1.2-1.9-.1-3.5-.7-3.6-.7-.2-1.5 1.2-1.7 3.1z"></path></g><g clip-path="url(#b)"><path fill="#d5ff79" d="M459.3-167.8c-8.7-1.4-17.4-2.4-26.2-2.9s-17.5-.5-26.3-.1-17.5 1.3-26.2 2.7c-8.7 1.4-17.3 3.2-25.7 5.5-8.5 2.3-16.8 5.1-25 8.3l-3 1.2c-1 .4-2 .8-3 1.3l-3 1.3-1.5.7-1.5.7-3 1.4-3 1.4c-2 .9-3.9 2-5.9 3-7.8 4.1-15.3 8.6-22.6 13.5-7.3 4.9-14.2 10.2-20.9 15.9-6.7 5.7-13.1 11.7-19.1 18.1-6 6.4-11.7 13-17 20-10.6 13.9-19.7 29-27.1 44.9-3.7 8-7 16.1-9.7 24.4-2.8 8.3-5.2 16.7-7 25.3-3.8 17.1-5.6 34.6-5.6 52.1h1c0-17.4 1.9-34.9 5.7-51.9 1.9-8.5 4.3-16.9 7-25.2 2.8-8.3 6.1-16.3 9.7-24.2 7.4-15.8 16.5-30.7 27.1-44.6 5.3-6.9 11-13.5 17-19.8 6-6.3 12.4-12.2 19-17.9 6.7-5.6 13.6-10.8 20.8-15.7 7.2-4.8 14.7-9.3 22.4-13.3 1.9-1 3.9-2 5.8-2.9l2.9-1.4 3-1.4 1.5-.7 1.5-.7 3-1.3 3-1.2 3-1.2c8.1-3.2 16.4-5.9 24.8-8.2 8.4-2.3 16.9-4.1 25.5-5.4 8.6-1.3 17.3-2.2 25.9-2.6 8.7-.4 17.4-.3 26.1.2 8.7.5 17.3 1.5 25.9 3 3 .5 5.6.5 5.7-.2.5-.6-1.9-1.6-5-2.1z"></path></g><g clip-path="url(#b)"><path fill="#fff" d="M198.7 172.4c15.1 32.5 37.5 61.6 65 84.5 6.9 5.7 14.1 11 21.6 16l5.7 3.6c.5.3 1 .6 1.4.9l1.4.9 2.9 1.7 1.4.9.7.4c.2.1.5.3.7.4l2.9 1.6c2 1.1 3.9 2.2 5.9 3.1l6 3 6.1 2.8 1.5.7 1.5.6 3.1 1.3 3.1 1.3c.5.2 1 .4 1.6.6l1.6.6c8.4 3.2 16.9 5.8 25.6 8 8.7 2.3 17.5 3.9 26.3 5.1 8.9 1.3 17.8 1.9 26.7 2.2l6.7.1 6.7-.1 3.4-.1 3.3-.2 6.7-.4 6.7-.7 3.3-.4 3.3-.5c2.2-.3 4.4-.6 6.6-1l6.6-1.2 1.6-.3c.5-.1 1.1-.2 1.6-.3l3.3-.8 3.3-.8c1.1-.3 2.2-.5 3.3-.8l6.5-1.8 1.6-.4c.5-.2 1.1-.3 1.6-.5l3.2-1 3.2-1c.5-.2 1.1-.3 1.6-.5l1.6-.6 6.3-2.3.8-.3c.3-.1.5-.2.8-.3l1.6-.6 3.1-1.3 3.1-1.3c1-.4 2-.9 3.1-1.4l6.1-2.8 6-3 1.5-.8.7-.4.7-.4 2.9-1.6 2.9-1.6 1.5-.8c.5-.3 1-.6 1.4-.9l5.7-3.5c.5-.3 1-.6 1.4-.9l1.4-.9 2.8-1.8 2.8-1.8c.5-.3.9-.6 1.4-1l1.4-1 5.5-3.9-.6-.8-5.4 3.9-1.4 1c-.5.3-.9.6-1.4.9l-2.8 1.8-2.8 1.8-1.4.9c-.5.3-.9.6-1.4.9l-5.7 3.4c-.5.3-.9.6-1.4.8l-1.5.8-2.9 1.6-2.9 1.6-.4.7-.7.4-1.5.7-6 3-6.1 2.7c-1 .4-2 .9-3 1.4l-3.1 1.2-3.1 1.2-1.5.6c-.3.1-.5.2-.8.3l-.8.3-6.3 2.2-1.6.6c-.5.2-1.1.3-1.6.5l-3.2 1-3.2 1c-.5.2-1.1.3-1.6.5l-1.6.4-6.4 1.7c-1.1.3-2.2.5-3.2.8l-3.3.7-3.3.7c-.5.1-1.1.2-1.6.3l-1.6.3-6.6 1.2c-2.2.3-4.4.6-6.6 1l-3.3.5-3.3.3-6.6.7-6.7.4-3.3.2-3.3.1-6.7.1-6.7-.1c-8.9-.3-17.8-.9-26.6-2.2-8.8-1.3-17.5-2.9-26.1-5.2-8.6-2.2-17.1-4.8-25.4-8.1l-1.6-.6c-.5-.2-1-.4-1.6-.6l-3.1-1.3-3.1-1.3-1.5-.6-1.5-.7-6.1-2.8-6-3c-2-1-3.9-2.1-5.9-3.1l-2.9-1.6c-.2-.1-.5-.3-.7-.4l-.7-.4-1.4-.9-2.9-1.7-1.4-.9c-.5-.3-1-.6-1.4-.9l-5.6-3.6c-7.4-4.9-14.5-10.2-21.3-15.9-27.3-22.8-49.4-51.7-64.2-83.9-1.3-2.9-2.8-5-3.4-4.7-.6.4 0 3 1.3 5.9z"></path></g><g clip-path="url(#b)"><path fill="#def3cf" d="M659.6 47.3c-2.1-21.7-7.3-43.2-15.2-63.5l-1.5-3.8c-.3-.6-.5-1.3-.8-1.9l-.8-1.9-1.6-3.8-1.7-3.7-.9-1.9-.9-1.8-1.8-3.7c-.6-1.2-1.3-2.4-1.9-3.6-.6-1.2-1.3-2.4-2-3.6-5.3-9.5-11.2-18.7-17.8-27.5l-2.5-3.3-2.5-3.2-1.3-1.6-1.3-1.6-2.6-3.1c-3.6-4.1-7.2-8.2-11.1-12-1.9-2-3.9-3.8-5.8-5.7l-.7-.7-.8-.7-1.5-1.4-1.6-1.3c-.5-.5-1-.9-1.5-1.4-2.1-1.8-4.1-3.6-6.2-5.3-1.1-.9-2.1-1.7-3.2-2.6l-3.2-2.5c-.5-.4-1.1-.8-1.6-1.3l-1.6-1.2-3.3-2.4-3.3-2.4-1.7-1.2-1.7-1.1-3.4-2.3c-1.1-.7-2.3-1.5-3.5-2.2-2.3-1.5-4.7-2.8-7-4.2-9.4-5.5-19.3-10.2-29.3-14.4l-.4 1c10 4.2 19.8 9 29.1 14.5 2.3 1.4 4.7 2.8 6.9 4.2 1.1.7 2.3 1.4 3.4 2.2l3.4 2.3 1.7 1.1 1.7 1.2 3.3 2.4 3.3 2.4 1.6 1.2c.5.4 1.1.8 1.6 1.3l3.2 2.5c1.1.8 2.1 1.7 3.1 2.6 2.1 1.7 4.1 3.5 6.1 5.3.5.4 1 .9 1.5 1.4l1.5 1.4 1.5 1.4.7.7.7.7c1.9 1.9 3.9 3.8 5.8 5.7 3.8 3.9 7.4 7.9 10.9 12l2.6 3.1 1.3 1.6 1.3 1.6 2.5 3.2 2.4 3.3c6.5 8.7 12.3 17.9 17.5 27.3.7 1.2 1.3 2.4 1.9 3.6.6 1.2 1.3 2.4 1.9 3.6l1.8 3.6.9 1.8.8 1.8 1.7 3.7 1.6 3.7.8 1.9c.3.6.5 1.3.8 1.9l1.5 3.8c7.8 20.2 12.7 41.5 14.7 63 .2 1.9.8 3.4 1.5 3.4s1.1-1.6 1-3.6z"></path></g><g clip-path="url(#b)"><path fill="#fff" d="M522.6 310.7c20.7-9 40.1-20.8 57.8-34.8 17.6-14 33.5-30.3 47-48.3 13.5-18 24.6-37.8 33-58.7 8.4-20.9 14.1-42.8 16.9-65.1l-1-.1c-2.9 22.2-8.6 44-17.1 64.8-8.5 20.7-19.6 40.3-33.1 58.2-13.5 17.8-29.3 33.9-46.9 47.7-17.6 13.8-36.9 25.4-57.4 34.2-1.8.8-3.1 1.9-2.8 2.5.1.6 1.8.4 3.6-.4z"></path></g><g clip-path="url(#b)"><path fill="#d5ff79" d="M676.5 28.7c-4.6-28-13.8-55.1-27.1-80.1-13.3-25-30.7-47.7-51.3-67.2-20.6-19.4-44.3-35.5-70-47.3-25.7-11.8-53.3-19.4-81.4-22.4l-.1 1c28 3.1 55.4 10.7 80.9 22.6 25.5 11.9 49 27.9 69.4 47.3 20.4 19.4 37.6 42 50.7 66.9 13.1 24.8 22.2 51.8 26.6 79.5.4 2.4 1.2 4.4 1.9 4.3.6-.1.8-2.2.4-4.6z"></path></g><path fill="#d5ff79" d="M360.6-184c-18.1 4.1-35.7 10.2-52.5 18.1-16.8 7.9-32.7 17.6-47.4 28.8-14.7 11.2-28.2 24-40.2 38.1-12 14.1-22.5 29.4-31.3 45.7l.9.5c8.8-16.2 19.4-31.4 31.4-45.3 12-13.9 25.5-26.6 40.2-37.7 14.7-11.1 30.5-20.6 47.2-28.3 16.7-7.7 34.2-13.7 52.1-17.7 1.6-.4 2.8-1.2 2.6-1.8.1-.5-1.4-.8-3-.4z" clip-path="url(#b)"></path><path fill="#fff" d="M221.6 269.8c11.9 11.8 24.9 22.5 38.8 32 6.9 4.7 14.1 9.2 21.4 13.2 7.3 4.1 14.8 7.8 22.5 11.3 7.7 3.4 15.5 6.5 23.4 9.2 7.9 2.7 16 5 24.1 7 16.3 3.9 32.9 6.5 49.7 7.4 33.5 2 67.3-2 99.3-11.9 16-5 31.6-11.3 46.4-19.1 14.8-7.8 29-16.8 42.2-27.1l-.6-.8c-13.2 10.2-27.3 19.2-42.1 26.8-14.8 7.7-30.3 14-46.2 18.8-31.9 9.8-65.5 13.6-98.8 11.5-16.6-1-33.2-3.6-49.3-7.5-8.1-2-16.1-4.3-23.9-7.1-7.9-2.7-15.6-5.8-23.2-9.2-7.6-3.4-15-7.2-22.3-11.3-7.3-4.1-14.3-8.5-21.2-13.2-13.7-9.5-26.5-20.1-38.4-31.8-2.1-2.1-4.1-3.4-4.6-2.9-.6.5.7 2.6 2.8 4.7z" clip-path="url(#b)"></path><g clip-path="url(#b)"><path fill="#fff" d="M697.5 93.7c1.8-25.2.2-50.6-4.7-75.3l-1 .2c4.5 24.7 5.6 50 3.3 74.9 0 .6.4 1 1.1 1.1.7.1 1.3-.3 1.3-.9z"></path></g><g clip-path="url(#b)"><path fill="#fff" d="M122.3 111.9c4.4 31.7 14 62.8 28.2 91.4 14.2 28.7 33.1 55 55.7 77.7 22.5 22.7 48.7 41.8 77.3 56.2 28.5 14.5 59.4 24.2 91.1 28.8l.2-1c-31.5-4.7-62.2-14.6-90.6-29-28.4-14.5-54.4-33.5-76.7-56.2-22.4-22.7-41-48.9-55.1-77.4-14.1-28.5-23.4-59.3-27.7-90.8-.4-2.8-1.2-5-1.8-4.9-.8 0-1 2.4-.6 5.2z"></path></g><g clip-path="url(#b)"><path fill="#fff" d="M497.8 359.4c26.4-7.3 51.8-18.3 75.3-32.5 23.4-14.2 44.9-31.7 63.5-51.7 18.7-20 34.6-42.6 47.2-67 12.6-24.3 21.7-50.4 27.1-77.2l-1-.2c-5.5 26.7-14.7 52.6-27.3 76.8-12.6 24.2-28.5 46.6-47.2 66.4-18.7 19.8-40 37.1-63.4 51.2-23.3 14.1-48.6 24.9-74.8 32-2.3.6-4.1 1.7-3.9 2.3.1.5 2.1.5 4.5-.1z"></path></g><g clip-path="url(#b)"><path fill="#d5ff79" d="M717.5 67.1c-.4-24.5-3.7-48.9-10-72.5-3.2-11.8-7-23.4-11.6-34.8-4.6-11.3-9.9-22.4-15.8-33.1-6-10.7-12.6-21-19.7-30.9-7.2-9.9-15-19.3-23.3-28.2-8.4-8.9-17.3-17.3-26.6-25.2-9.4-7.8-19.2-15.1-29.5-21.7l-.6.9c10.2 6.7 19.9 14 29.3 21.8 9.3 7.9 18.1 16.3 26.4 25.2 8.2 8.9 16 18.4 23.1 28.2 7.1 9.9 13.6 20.2 19.5 30.8 5.8 10.7 11 21.7 15.6 32.9 4.5 11.3 8.3 22.9 11.4 34.6 6.2 23.5 9.4 47.8 9.6 72 0 2.1.6 3.9 1.2 3.9.5 0 1-1.8 1-3.9z"></path></g><g clip-path="url(#b)"><path fill="#fff" d="M477.8-222.2c-9.8-1.9-19.6-3.4-29.5-4.4-9.9-1-19.9-1.4-29.8-1.4-19.9 0-39.8 2-59.3 6-9.8 2-19.4 4.4-28.9 7.4s-18.9 6.4-28 10.3c-9.2 3.9-18.1 8.2-26.8 13-8.7 4.8-17.2 10-25.4 15.6-16.4 11.3-31.7 24.1-45.5 38.4-6.9 7.1-13.5 14.6-19.7 22.4-6.2 7.8-12 15.9-17.3 24.2l-1 1.6-1 1.6-2 3.2c-.7 1.1-1.3 2.1-1.9 3.2-.6 1.1-1.3 2.1-1.9 3.2l-1.8 3.2-1.8 3.3c-1.2 2.2-2.4 4.4-3.5 6.6-4.5 8.9-8.6 17.9-12.2 27.2-7.2 18.5-12.5 37.8-15.9 57.3l1 .2c3.4-19.5 8.8-38.7 16-57.1 3.6-9.2 7.7-18.2 12.2-27 1.1-2.2 2.3-4.4 3.5-6.6.6-1.1 1.2-2.2 1.8-3.2l1.8-3.2c.6-1.1 1.3-2.1 1.9-3.2.6-1.1 1.3-2.1 1.9-3.2l2-3.1 1-1.6 1-1.6c5.4-8.3 11.2-16.3 17.3-24.1 6.2-7.7 12.7-15.1 19.6-22.2 13.8-14.2 29.1-26.9 45.4-38.1 8.2-5.6 16.6-10.7 25.3-15.5 8.7-4.7 17.6-9 26.7-12.9 9.1-3.8 18.4-7.2 27.9-10.1 9.4-2.9 19-5.3 28.7-7.3 19.4-3.9 39.1-5.8 58.9-5.8 9.9 0 19.8.5 29.6 1.5s19.6 2.5 29.3 4.4c.9.2 1.7.3 2.4.4.8.1 1.4.2 2 .2 1.2 0 1.9-.1 2-.4.1-.3-.6-.8-1.6-1.2-.5-.2-1.2-.5-1.9-.7-.8-.1-1.6-.3-2.5-.5z"></path></g><g clip-path="url(#b)"><path fill="#def3cf" d="M102.4 105.5c2.1 19.3 6 38.4 11.6 57s12.9 36.7 21.8 53.9c17.8 34.5 42 65.7 71 91.5 14.5 12.9 30.1 24.5 46.7 34.6 16.6 10.1 34.1 18.6 52.2 25.5 18.1 6.9 36.9 12.1 56 15.5 19.1 3.4 38.5 5.1 57.9 5 38.8-.1 77.6-7.4 113.7-21.4 18.1-7 35.5-15.7 52-25.9s32-21.9 46.4-34.9c28.7-26 52.6-57.4 70.1-92 8.8-17.3 15.9-35.4 21.4-54 5.4-18.6 9.2-37.7 11.1-57l-1-.1c-2 19.2-5.7 38.2-11.1 56.8-5.4 18.5-12.6 36.5-21.4 53.8-17.5 34.4-41.3 65.6-70 91.5-14.3 12.9-29.8 24.6-46.2 34.7-16.4 10.1-33.8 18.8-51.8 25.7-36 13.9-74.6 21.1-113.2 21.2-19.3 0-38.6-1.7-57.6-5.1-19-3.4-37.6-8.6-55.7-15.5-18-6.9-35.4-15.4-51.9-25.4-16.5-10-32-21.6-46.4-34.5-28.7-25.7-52.7-56.7-70.4-91-8.8-17.1-16.1-35.1-21.6-53.6s-9.3-37.4-11.4-56.6c-.2-1.7-.4-3.3-.6-4.8-.2-1.5-.4-2.8-.6-3.9-.4-2.2-.8-3.6-1.1-3.5-.3 0-.5 1.4-.5 3.7 0 1.1 0 2.5.1 4 .2 1.5.3 3.1.5 4.8z"></path></g><g clip-path="url(#b)"><path fill="#fff" d="M82 70.5c0 20 1.7 40 5.2 59.7 3.5 19.7 8.8 39 15.8 57.8.9 2.3 1.8 4.7 2.7 7l2.8 6.9 3 6.9c1 2.3 2.1 4.5 3.2 6.8 4.3 9 9 17.8 14.1 26.4 10.2 17.2 21.9 33.5 35 48.6 13.1 15.1 27.5 29.1 43 41.6 7.8 6.3 15.8 12.2 24.1 17.8 8.3 5.6 16.8 10.8 25.6 15.6 17.5 9.6 35.9 17.7 54.8 24.1 18.9 6.4 38.5 11 58.2 13.9l3.7.5c1.2.2 2.5.4 3.7.5l7.4.8 7.5.7c.6.1 1.2.1 1.9.1l1.9.1 3.7.2 1.9.1 1.9.1 3.7.1c1.2 0 2.5.1 3.7.1h14.8l3.7-.1c20-.6 39.9-3 59.4-7.2s38.7-10.1 57.2-17.6c18.5-7.6 36.3-16.8 53.1-27.6 16.8-10.7 32.7-23 47.4-36.5 14.6-13.6 28.1-28.4 40.2-44.3 12-15.9 22.7-32.9 31.7-50.7 9-17.8 16.5-36.4 22.2-55.5l-1-.3c-5.7 19-13.2 37.6-22.2 55.3-9 17.7-19.7 34.6-31.7 50.5-12 15.8-25.5 30.6-40.1 44.1-14.6 13.5-30.5 25.6-47.2 36.3-16.8 10.7-34.5 19.8-52.9 27.4-18.4 7.5-37.5 13.4-56.9 17.5s-39.3 6.5-59.1 7.1l-3.7.1h-14.8c-1.2 0-2.5-.1-3.7-.1l-3.7-.1-1.9-.1-1.9-.1-3.7-.2-1.9-.1c-.6 0-1.2-.1-1.9-.1l-7.4-.7-7.4-.8c-1.2-.1-2.5-.3-3.7-.5l-3.7-.5c-19.7-2.9-39.1-7.5-57.9-13.9-18.8-6.4-37.1-14.4-54.5-24-8.7-4.8-17.2-10-25.4-15.5-8.2-5.6-16.2-11.5-23.9-17.8-15.4-12.5-29.7-26.4-42.7-41.5-13-15-24.6-31.3-34.7-48.4-5.1-8.5-9.7-17.3-14-26.3-1-2.3-2.1-4.5-3.1-6.8l-3-6.8-2.8-6.9c-.9-2.3-1.8-4.6-2.7-7-6.9-18.6-12.1-37.9-15.6-57.4a346.6 346.6 0 0 1-5.1-59.3c.1-7-.3-12.7-.9-12.8-.6 0-1.3 5.7-1.4 12.8z"></path></g><g clip-path="url(#b)"><path fill="#fff" d="M80.9 182.9c12.8 38.7 32.4 75 57.5 107 12.6 16 26.5 30.9 41.6 44.6 7.5 6.8 15.4 13.3 23.5 19.5 8.1 6.1 16.5 12 25.1 17.4 17.2 10.9 35.3 20.3 54.1 28.1 18.8 7.8 38.3 13.9 58.1 18.3 19.9 4.4 40.1 7.1 60.4 8.1 2.5.2 5.1.2 7.6.3l1.9.1H424c1.3 0 2.5 0 3.8-.1l3.8-.1c10.2-.4 20.3-1.2 30.4-2.4 40.4-5 79.9-16.9 116.2-35.3 18.1-9.2 35.5-19.9 51.8-32 16.3-12.1 31.6-25.7 45.6-40.4s26.8-30.6 38.1-47.5 21.1-34.8 29.4-53.3c4.1-9.3 7.8-18.8 11.2-28.4l2.4-7.2 2.2-7.3 2.1-7.3c.7-2.5 1.3-4.9 1.9-7.4 4.9-19.7 8.1-39.9 9.6-60.1l-1-.1c-1.5 20.2-4.8 40.3-9.7 59.9-.6 2.4-1.3 4.9-1.9 7.3l-2.1 7.3-2.3 7.3-2.4 7.2c-3.3 9.6-7 19-11.2 28.2-8.2 18.5-18.1 36.3-29.3 53.1-11.3 16.8-24 32.6-38 47.3-14 14.6-29.2 28.1-45.5 40.2-16.3 12-33.6 22.7-51.6 31.8-36.1 18.3-75.5 30.1-115.7 35-10 1.2-20.1 2-30.3 2.4l-3.8.1c-1.3 0-2.5 0-3.8.1h-13.3l-1.9-.1c-2.5-.1-5.1-.1-7.6-.3-20.2-1-40.3-3.7-60.1-8.1-19.7-4.4-39.1-10.5-57.8-18.3-18.7-7.8-36.7-17.1-53.8-28-8.5-5.4-16.9-11.2-24.9-17.3-8-6.1-15.8-12.6-23.3-19.4-15-13.6-28.8-28.5-41.3-44.4-24.9-31.9-44.3-68-57-106.4-.6-1.7-1.1-3.3-1.6-4.8s-1-2.8-1.4-3.9c-.9-2.2-1.6-3.5-1.9-3.4-.3.1-.2 1.6.3 3.9.2 1.2.5 2.5 1 4 .5 1.4 1 3.1 1.6 4.8z"></path></g><g clip-path="url(#b)"><path fill="#abe184" d="M774.2 70.2c-.3-18.8-2-37.6-5.2-56.1l-1 .2c2.8 18.5 4 37.3 3.8 55.9 0 .4.5.7 1.2.7s1.2-.3 1.2-.7z"></path></g><g clip-path="url(#b)"><path fill="#def3cf" d="M762.4-20.3c-5.7-21.6-13.5-42.6-23.2-62.7-.6-1.3-1.2-2.5-1.8-3.8l-1.9-3.7c-1.3-2.5-2.6-4.9-3.9-7.4l-2-3.7-1-1.8-.5-.9-.5-.9-2.1-3.6-1.1-1.8-1.1-1.8c-5.8-9.5-12-18.8-18.6-27.8-6.6-9-13.7-17.6-21.1-25.9-7.4-8.3-15.3-16.3-23.5-23.8-8.2-7.6-16.7-14.8-25.6-21.5-8.9-6.8-18-13.1-27.5-19.1-18.9-11.8-38.9-21.8-59.7-29.9-20.8-8.1-42.4-14.1-64.3-18.1-11-2-22-3.5-33.1-4.5-11.1-1-22.3-1.4-33.4-1.3-22.3.1-44.6 2.4-66.4 6.7-21.9 4.3-43.3 10.7-64 19-20.7 8.3-40.6 18.6-59.3 30.7-37.5 24.1-70.4 55.4-96.4 91.5-13 18.1-24.3 37.4-33.7 57.6-9.6 20.1-17 41.2-22.5 62.8-2.7 10.8-4.9 21.7-6.6 32.7-1.7 11-2.8 22.1-3.5 33.2-.2 2.8-.3 5.6-.4 8.3 0 1.4-.1 2.8-.1 4.2l-.1 4.2-.1 4.2V75c0 2.8.1 5.6.2 8.3.4 11.1 1.3 22.2 2.7 33.3l1-.1c-1.4-11-2.3-22.1-2.7-33.2-.1-2.8-.2-5.5-.2-8.3v-4.2l.1-4.2.1-4.2c0-1.4.1-2.8.1-4.2.1-2.8.2-5.5.4-8.3.6-11.1 1.8-22.1 3.5-33.1s3.9-21.9 6.6-32.6c5.4-21.5 12.9-42.5 22.3-62.6s20.7-39.3 33.7-57.3c26-36 58.7-67.1 96.1-91.1 18.7-12 38.5-22.2 59.1-30.5s42-14.6 63.7-18.8c21.8-4.2 43.9-6.5 66.1-6.5 11.1-.1 22.2.4 33.2 1.3 11 1 22 2.5 33 4.5 21.8 4 43.3 10.1 63.9 18.1 20.7 8.1 40.6 18.1 59.4 29.8 9.4 5.9 18.5 12.2 27.3 19 8.8 6.7 17.3 13.9 25.4 21.4 8.1 7.5 15.9 15.5 23.3 23.7 7.4 8.3 14.4 16.9 21 25.8 6.6 8.9 12.7 18.1 18.5 27.6l1.1 1.8 1 1.8 2.1 3.6.5.9.5.9 1 1.8 2 3.6c1.3 2.5 2.6 4.9 3.9 7.4l1.9 3.7c.6 1.2 1.2 2.5 1.8 3.7 9.6 20 17.3 40.9 23 62.3.5 1.9 1 3.7 1.5 5.3.2.8.5 1.6.7 2.3.2.7.4 1.4.6 2 .8 2.5 1.4 3.9 1.8 3.9.3-.1.2-1.7-.1-4.3-.1-.6-.2-1.3-.3-2.1-.1-.8-.3-1.5-.5-2.4-.4-1.4-.9-3.2-1.3-5.1z"></path></g><g clip-path="url(#b)"><path fill="#fff" d="M47.9 124.2c3 21.2 7.9 42.1 14.5 62.4 6.6 20.3 15 40.1 25 59s21.6 36.9 34.7 53.9c13.1 16.9 27.6 32.7 43.4 47.2 31.5 28.9 68 52.4 107.4 69 19.7 8.3 40.1 14.9 60.9 19.7 10.4 2.4 20.9 4.4 31.5 5.9 10.6 1.5 21.2 2.5 31.9 3.1 21.3 1.2 42.8.6 64-1.9 21.2-2.4 42.3-6.7 62.8-12.7 41-12.1 79.9-31.2 114.4-56.5 34.5-25.2 64.7-56.3 88.8-91.6 12-17.6 22.6-36.3 31.4-55.7 8.9-19.4 16.1-39.6 21.4-60.3l-1-.3c-5.4 20.6-12.6 40.7-21.5 60.1s-19.4 38-31.4 55.5c-24 35.2-54.2 66.1-88.6 91.1-34.4 25.1-73.2 44.1-114 56.1-20.4 6-41.4 10.2-62.5 12.6-21.1 2.4-42.5 3-63.7 1.8-10.6-.6-21.2-1.6-31.7-3.1s-21-3.5-31.4-5.9c-20.7-4.8-41-11.4-60.6-19.7-39.2-16.6-75.4-40-106.7-68.8a375.1 375.1 0 0 1-43.1-46.9c-13-16.8-24.5-34.8-34.4-53.6-9.9-18.8-18.2-38.5-24.8-58.7-6.6-20.2-11.3-41-14.3-62.1-.3-1.9-.6-3.6-.8-5.2-.2-1.6-.5-3.1-.8-4.3-.5-2.4-1-3.9-1.3-3.9-.3 0-.4 1.6-.4 4.1 0 1.2.1 2.7.3 4.4.1 1.7.4 3.4.6 5.3z"></path></g><g clip-path="url(#b)"><path fill="#fff" d="M803.1-10.4c-4.6-21.6-11-42.9-19.1-63.4-8.2-20.5-18.1-40.4-29.5-59.2-23-37.7-52.4-71.5-86.5-99.6-17.1-14-35.3-26.6-54.5-37.6-19.2-11-39.3-20.3-60-27.9-20.7-7.6-42.1-13.4-63.9-17.3-21.7-3.9-43.8-6-65.9-6.3-22.1-.3-44.2 1.3-66 4.7-21.8 3.4-43.3 8.7-64.3 15.7-20.9 7-41.2 15.9-60.7 26.3-19.4 10.5-38 22.6-55.4 36.2-34.8 27.2-65 60.2-88.9 97.3-12 18.5-22.3 38.1-31 58.4-8.7 20.3-15.6 41.3-20.7 62.8l1 .2C43-41.5 49.9-62.5 58.6-82.7c8.7-20.2 19-39.7 31-58.2 23.9-37 54-69.8 88.7-96.9 17.4-13.5 35.8-25.6 55.2-36 19.4-10.4 39.6-19.2 60.5-26.2 20.8-7 42.3-12.2 64-15.6 21.7-3.4 43.7-4.9 65.7-4.6 22 .3 43.9 2.4 65.6 6.4 21.6 4 42.9 9.8 63.5 17.3 20.6 7.6 40.6 16.9 59.7 27.8 19.1 10.9 37.2 23.5 54.2 37.4 33.9 27.9 63.1 61.6 86 99.1 11.4 18.8 21.2 38.5 29.3 58.9 8.1 20.4 14.4 41.5 18.9 63 .4 1.9.8 3.7 1.2 5.3.4 1.6.7 3.1 1.1 4.4.7 2.5 1.3 4 1.6 3.9.3-.1.3-1.7.1-4.2-.1-1.3-.3-2.8-.6-4.5-.4-1.3-.8-3.1-1.2-5z"></path></g><g clip-path="url(#b)"><path fill="#fff" d="M27.6 108.3c2.3 24 6.7 47.7 13.4 70.8 6.6 23.1 15.4 45.6 26.2 67.2 10.8 21.5 23.5 42 38.1 61.2 14.5 19.2 30.8 37 48.6 53.2 17.8 16.2 37 30.8 57.4 43.5s42 23.5 64.4 32.3c44.8 17.5 92.9 26.6 140.9 26.8 24 .1 48.1-2 71.8-6.2 23.7-4.3 46.9-10.7 69.4-19.3 22.5-8.5 44.1-19.2 64.7-31.7 20.5-12.5 39.9-26.9 57.8-43 35.8-32.1 65.7-70.7 87.5-113.5 10.9-21.4 19.9-43.8 26.7-66.8 6.8-23 11.5-46.7 14-70.6l-1-.1c-2.5 23.8-7.2 47.4-14 70.4-6.8 23-15.8 45.3-26.7 66.6-21.9 42.6-51.7 81.1-87.4 113.1-17.8 16-37.2 30.3-57.6 42.8-20.5 12.5-42.1 23-64.4 31.5-22.4 8.5-45.6 14.9-69.1 19.1-23.6 4.2-47.5 6.3-71.5 6.1-47.9-.2-95.7-9.3-140.3-26.8-22.3-8.7-43.8-19.5-64.1-32.2-20.3-12.7-39.4-27.2-57.1-43.4-17.7-16.2-33.8-33.9-48.3-53-14.4-19.1-27.1-39.5-37.8-60.9-10.7-21.4-19.4-43.8-25.9-66.8-6.6-23-11-46.6-13.2-70.4-.2-2.1-.4-4.1-.6-5.9-.2-1.8-.4-3.5-.6-4.8-.4-2.8-.8-4.5-1.1-4.4-.3 0-.5 1.8-.5 4.5 0 1.4 0 3.1.1 4.9-.1 1.7 0 3.7.2 5.8z"></path></g><g clip-path="url(#b)"><path fill="#fff" d="M792.6 70.7c-.2-6.6-.6-13.1-1.2-19.6l-1 .1c.1 6.5.1 13.1-.1 19.6 0 .1.5.3 1.2.3.6-.2 1.1-.3 1.1-.4z"></path></g><g clip-path="url(#b)"><path fill="#fff" d="M19.7 174.9c5.8 22.3 13.5 44.1 23 65.1 9.5 21 20.7 41.2 33.6 60.4 25.7 38.3 57.9 72.2 94.8 99.9 18.4 13.9 38 26.2 58.5 36.7 20.5 10.6 41.8 19.4 63.8 26.4s44.5 12.1 67.3 15.3c22.8 3.2 45.9 4.5 68.9 3.8 46.1-1.2 91.9-10.2 135-26.6 21.5-8.2 42.4-18.2 62.2-29.9 19.9-11.7 38.7-25 56.3-39.9 35.3-29.6 65.5-65.2 89.1-104.8 11.8-19.8 21.9-40.6 30.2-62 8.3-21.5 14.8-43.7 19.3-66.2l-1-.2c-4.6 22.5-11.1 44.6-19.4 66-8.3 21.4-18.4 42.1-30.2 61.8-23.5 39.4-53.7 74.9-88.9 104.4-17.6 14.8-36.4 28-56.2 39.7-19.8 11.6-40.6 21.6-62 29.7-42.9 16.3-88.6 25.2-134.5 26.3-22.9.6-45.9-.7-68.6-3.9-22.7-3.2-45.2-8.3-67-15.3-21.9-7-43.1-15.8-63.5-26.4-20.4-10.6-39.8-22.8-58.2-36.6-36.6-27.6-68.6-61.4-94.2-99.5-12.8-19-24-39.2-33.4-60.1-9.4-20.9-17-42.6-22.8-64.8-.5-2-1-3.8-1.5-5.5-.5-1.7-.9-3.2-1.3-4.5-.8-2.5-1.5-4.1-1.8-4-.3.1-.2 1.7.2 4.4.2 1.3.5 2.9.8 4.6.5 1.8 1 3.7 1.5 5.7z"></path></g><g clip-path="url(#b)"><path fill="#fff" d="M826.7 128c2.4-18.9 3.5-38 3.3-57.1h-1c-.2 19-1.7 38-4.6 56.8-.1.4.4.8 1.1.9.6.1 1.2-.2 1.2-.6z"></path></g><g clip-path="url(#b)"><path fill="#def3cf" d="M-6 144.7c9.4 55.1 30 108.1 59.7 155.4 14.9 23.6 32.1 45.8 51.2 66.1 9.6 10.2 19.6 19.8 30.2 29 10.5 9.2 21.5 17.9 32.8 26 11.3 8.1 23.1 15.7 35.2 22.7 12.1 7 24.5 13.4 37.2 19.1 25.4 11.5 51.9 20.6 79.1 27 54.4 12.8 111.2 14.8 166.3 6.2 27.6-4.3 54.7-11.4 80.9-21 26.2-9.6 51.4-21.8 75.3-36.3 23.8-14.5 46.2-31.3 66.8-50.2 20.6-18.8 39.3-39.6 55.9-62.1 16.6-22.4 31-46.5 42.9-71.7 11.9-25.2 21.4-51.6 28.2-78.6 6.8-27 11-54.8 12.4-82.6.2-3.5.3-7 .4-10.4v-5.2l.1-5.2c.1-7-.1-13.9-.4-20.9-.6-13.9-1.9-27.8-3.8-41.6l-1 .1c1.9 13.8 3.2 27.6 3.8 41.5.3 6.9.4 13.9.4 20.9l-.1 5.2v5.2c-.1 3.5-.3 6.9-.4 10.4-1.4 27.8-5.6 55.4-12.4 82.4-6.8 27-16.3 53.3-28.2 78.4-11.9 25.1-26.3 49.1-42.9 71.4-16.5 22.3-35.3 43.1-55.8 61.8-20.5 18.7-42.9 35.5-66.6 49.9-23.8 14.4-48.9 26.6-75 36.1-26.1 9.6-53.2 16.5-80.6 20.8-54.9 8.5-111.5 6.5-165.6-6.3-27-6.4-53.5-15.5-78.7-27-12.6-5.8-25-12.1-37-19.1-12-7-23.7-14.5-35-22.6-11.3-8.1-22.2-16.7-32.6-25.9-10.5-9.1-20.5-18.8-30-28.9-19-20.2-36.1-42.3-50.9-65.8C26 251.9 5.7 199-3.7 144.3c-.4-2.4-.8-4.7-1.2-6.8l-.6-3c-.2-.9-.3-1.8-.5-2.6-.7-3.2-1.2-5.1-1.6-5.1-.3 0-.3 2.1-.1 5.3.1.8.1 1.7.2 2.6.1.9.2 2 .3 3 .5 2.2.8 4.5 1.2 7z"></path></g><g clip-path="url(#b)"><path fill="#fff" d="M838.1-27.5c-6.1-26.2-14.7-51.7-25.7-76.3-5.5-12.3-11.5-24.3-18.1-36-.8-1.5-1.7-2.9-2.5-4.4l-2.5-4.4c-1.7-2.9-3.5-5.7-5.2-8.6l-2.7-4.2-1.4-2.1c-.4-.7-.9-1.4-1.4-2.1l-2.8-4.2-1.4-2.1c-.5-.7-1-1.4-1.4-2.1-15.3-22.1-32.7-42.7-51.8-61.6-19.1-18.8-40-35.9-62.3-50.9-11.1-7.5-22.6-14.5-34.4-20.9-11.8-6.4-23.9-12.3-36.2-17.6-12.3-5.3-24.9-10-37.7-14.1-12.8-4.1-25.8-7.6-38.9-10.5-26.2-5.8-53-9-79.8-9.8-26.8-.8-53.8.9-80.3 5-53.1 8.3-104.5 26.8-150.7 54-46.3 27.2-87.4 63.2-120.6 105.4-16.6 21.1-31.2 43.8-43.6 67.6-12.5 23.8-22.6 48.8-30.3 74.5C2.5-40-.7-27-3.3-13.8-5.9-.7-8 12.6-9.3 26c-1.4 13.3-2.1 26.8-2.3 40.2l-.1 5v5c0 3.4.1 6.7.2 10.1.2 6.7.6 13.4 1.2 20.1l1-.1c-.5-6.7-.9-13.4-1.2-20-.1-3.3-.2-6.7-.2-10v-5l.1-5c.2-13.4.9-26.8 2.3-40.1s3.4-26.6 6-39.7C.3-26.6 3.6-39.6 7.4-52.4c7.7-25.6 17.8-50.5 30.2-74.3C50-150.4 64.5-173 81.1-194c33.1-42 74.1-77.8 120.3-104.9 46.1-27.1 97.4-45.5 150.2-53.7 26.4-4.1 53.2-5.7 80-4.9 26.7.8 53.4 4.1 79.5 9.9 13.1 2.9 26 6.4 38.7 10.5 12.7 4.1 25.3 8.8 37.5 14.1 12.3 5.3 24.3 11.1 36 17.5s23.2 13.3 34.3 20.8c22.2 15 42.9 32 61.9 50.8 19 18.8 36.2 39.4 51.5 61.3.5.7 1 1.4 1.4 2.1l1.4 2.1 2.8 4.2c.5.7.9 1.4 1.4 2.1l1.3 2.1 2.7 4.2c1.7 2.9 3.5 5.7 5.2 8.6l2.5 4.3c.8 1.4 1.7 2.9 2.5 4.4 6.5 11.7 12.5 23.6 17.9 35.8 11 24.2 19.6 49.7 25.7 75.7.5 2.3 1.1 4.5 1.6 6.5.3 1 .5 1.9.7 2.8.2.9.4 1.7.6 2.5.8 3 1.5 4.8 1.8 4.8.3-.1.2-2-.2-5.1-.1-.8-.2-1.6-.4-2.5-.1-.9-.3-1.9-.5-2.9-.3-2.1-.8-4.3-1.3-6.6z"></path></g><g clip-path="url(#b)"><path fill="#def3cf" d="M-45.2 220.5c9.2 28.7 21.2 56.4 35.6 82.9C-6 310-2.2 316.5 1.6 323l.7 1.2.7 1.2 1.5 2.4 3 4.8 3.1 4.7 1.5 2.4c.5.8 1 1.6 1.6 2.3 8.4 12.5 17.4 24.6 26.9 36.3 4.7 5.9 9.6 11.5 14.6 17.2.6.7 1.2 1.4 1.9 2.1l1.9 2.1 3.8 4.2 3.9 4.1 1.9 2 1 1 1 1c10.5 10.7 21.6 21 33.1 30.7 22.9 19.5 47.7 36.8 73.8 51.7 6.5 3.7 13.2 7.3 19.9 10.7l1.3.6 1.3.6 2.5 1.2 5.1 2.5 5.1 2.4 2.6 1.2c.9.4 1.7.8 2.6 1.2 13.7 6.2 27.7 11.8 41.9 16.7 14.2 4.9 28.7 9.1 43.3 12.7 14.6 3.6 29.4 6.4 44.3 8.6 29.8 4.3 59.9 6 90 4.8 30.1-1.1 60-5 89.4-11.7 29.3-6.7 58.1-16.1 85.7-28.1s54.1-26.5 79-43.4c49.8-33.7 93.3-76.8 127.6-126.2 17.1-24.7 32-51 44.3-78.5 12.3-27.4 22-56.1 29-85.3 7-29.3 11.2-59.2 12.7-89.2l.4-11.3c.1-3.8.1-7.5.2-11.3 0-7.5-.1-15-.5-22.6-.6-15-2-30-4-44.9-2-14.9-4.7-29.7-8.1-44.4-3.4-14.7-7.5-29.1-12.2-43.4-9.5-28.5-21.6-56.2-36.3-82.5-14.6-26.3-31.6-51.2-50.8-74.4-19.2-23.2-40.5-44.5-63.6-63.8-23.1-19.2-48-36.3-74.2-51-26.2-14.7-53.9-26.9-82.4-36.5-3.6-1.2-7.1-2.3-10.7-3.5l-10.8-3.2-10.9-2.9c-3.6-.9-7.3-1.8-11-2.7-14.6-3.4-29.4-6.1-44.3-8.2-14.9-2-29.9-3.4-44.9-4.1l-5.6-.2c-1.9-.1-3.8-.2-5.6-.2l-11.3-.1-11.3.1c-3.8.1-7.5.3-11.3.4-30 1.4-59.9 5.6-89.2 12.5-29.3 6.9-57.9 16.5-85.3 28.8-27.5 12.2-53.8 27-78.5 44.1-24.7 17.1-47.9 36.4-69.1 57.8-21.2 21.3-40.4 44.6-57.3 69.5C-.4-178-15-151.5-27.1-124c-12 27.5-21.5 56.2-28.2 85.5C-62-9.2-66 20.7-67.2 50.7h1c1.2-30 5.2-59.8 11.9-89 6.7-29.2 16.2-57.8 28.2-85.3s26.6-53.8 43.5-78.6c16.9-24.8 36.1-48 57.2-69.3 21.1-21.3 44.2-40.6 68.9-57.6 24.7-17 51-31.7 78.4-43.9 27.4-12.2 55.9-21.8 85.1-28.6 29.2-6.9 59-11 89-12.4 3.7-.1 7.5-.3 11.2-.4l11.2-.1 11.2.1c1.9 0 3.7.1 5.6.2l5.6.2c15 .7 29.9 2 44.8 4.1 14.8 2 29.6 4.8 44.2 8.2 3.6.9 7.3 1.8 10.9 2.7l10.9 2.9 10.8 3.2c3.6 1.1 7.1 2.3 10.7 3.5 28.4 9.5 55.9 21.7 82.1 36.4 26.2 14.6 51 31.7 74 50.9s44.3 40.5 63.4 63.6 36.1 48 50.6 74.2c14.5 26.2 26.6 53.8 36.1 82.2 4.7 14.2 8.8 28.7 12.2 43.3 3.4 14.6 6 29.4 8 44.2 2 14.9 3.3 29.8 3.9 44.8.3 7.5.4 15 .4 22.5-.1 3.7-.1 7.5-.2 11.2l-.4 11.2c-1.5 29.9-5.7 59.7-12.7 88.9-7 29.1-16.6 57.7-28.9 85-12.3 27.3-27.1 53.5-44.2 78.1-34.2 49.2-77.5 92.1-127.1 125.7-24.8 16.8-51.2 31.3-78.7 43.2-27.5 11.9-56.1 21.3-85.3 27.9-29.2 6.7-59.1 10.5-89 11.6-29.9 1.1-60-.5-89.6-4.8-14.8-2.2-29.5-5-44.1-8.6-14.6-3.6-28.9-7.8-43.1-12.7-14.2-4.9-28.1-10.4-41.7-16.6-.9-.4-1.7-.8-2.6-1.2l-2.5-1.2-5.1-2.4-5-2.5-2.5-1.2-1.3-.6-1.2-.6c-6.7-3.4-13.3-7-19.8-10.7-26-14.9-50.7-32.1-73.5-51.5-11.4-9.7-22.4-19.9-32.9-30.6l-1-1-1-1-1.9-2-3.9-4.1-3.8-4.1-1.9-2.1c-.6-.7-1.3-1.4-1.9-2.1-5-5.6-9.9-11.3-14.6-17.1-9.4-11.6-18.4-23.7-26.7-36.1-.5-.8-1-1.6-1.6-2.3l-1.5-2.4-3.1-4.7-3-4.8-1.5-2.4-.7-1.2-.7-1.2c-3.9-6.4-7.6-12.9-11.2-19.5-14.3-26.3-26.2-53.9-35.3-82.5-.8-2.5-1.6-5-2.4-7.4-.7-2.4-1.4-4.7-2.1-6.9-.3-1.1-.7-2.2-1-3.2-.3-1-.6-2.1-.9-3-.6-2-1.1-3.8-1.6-5.4-.3-.8-.5-1.6-.7-2.4-.2-.8-.4-1.5-.6-2.1-.4-1.3-.7-2.5-1-3.4-.6-1.9-1-2.9-1.2-2.8-.2 0-.1 1.1.3 3 .2 1 .4 2.1.7 3.5.1.7.3 1.4.4 2.2.2.8.3 1.6.5 2.4.4 1.7.9 3.6 1.3 5.5.2 1 .5 2 .8 3.1.3 1.1.6 2.1.9 3.2.6 2.2 1.3 4.5 2 7s1.5 5 2.3 7.5z"></path></g><g clip-path="url(#b)"><path fill="#fff" d="M-120.9 134.1c3.9 33.4 10.9 66.4 20.9 98.5 10 32.1 23 63.2 38.8 92.9 15.8 29.7 34.4 57.9 55.4 84.1 21 26.2 44.4 50.5 69.9 72.5 25.5 21.9 52.9 41.5 82 58.4s59.7 31.1 91.4 42.2c31.7 11.2 64.4 19.4 97.6 24.5 33.2 5.1 66.9 7.1 100.5 6.1 16.8-.5 33.6-1.8 50.2-3.9 16.7-2.1 33.2-4.9 49.6-8.5 32.8-7.2 64.9-17.5 95.8-30.7 30.9-13.2 60.5-29.3 88.5-48 27.9-18.7 54.1-40 78.1-63.4 24-23.5 45.8-49.2 65.1-76.7 19.3-27.5 36-56.8 49.9-87.4 13.9-30.6 24.9-62.5 32.8-95.1 7.9-32.6 12.8-66 14.6-99.5l-1-.1c-1.8 33.5-6.7 66.8-14.6 99.3-7.9 32.6-18.9 64.4-32.8 94.9a547.67 547.67 0 0 1-49.8 87.1c-19.3 27.4-41.1 53.1-65 76.5-24 23.4-50.1 44.6-77.9 63.2-27.9 18.6-57.4 34.6-88.3 47.8-30.8 13.1-62.9 23.4-95.6 30.6-16.4 3.6-32.9 6.4-49.5 8.5-16.6 2-33.3 3.3-50.1 3.8-33.5 1-67-1-100.1-6.1-33.1-5.1-65.7-13.3-97.3-24.5-31.6-11.2-62.1-25.3-91-42.2-28.9-16.8-56.3-36.4-81.6-58.3-25.3-21.9-48.7-46.1-69.5-72.3-20.9-26.2-39.4-54.3-55.1-83.8-15.9-29.5-28.8-60.6-38.8-92.5-9.9-32-16.9-64.9-20.7-98.1-.3-2.9-.7-5.7-1-8.3-.3-2.5-.6-4.8-.9-6.8-.6-3.8-1.1-6.2-1.4-6.2-.3 0-.4 2.4-.3 6.3.1 1.9.2 4.3.3 6.8.3 2.7.6 5.5.9 8.4z"></path></g><g clip-path="url(#b)"><path fill="#fff" d="M958.7 14.4c-3.6-34.2-10.4-68-20.3-100.9-10-32.9-23.1-64.8-39.1-95.2-32-60.8-75.7-115.4-128-160-26.2-22.4-54.4-42.3-84.3-59.3s-61.3-31.2-93.9-42.2c-32.5-11-66.1-18.9-100.1-23.6-34-4.7-68.5-6.1-102.8-4.3-34.3 1.8-68.4 6.8-101.8 15-33.3 8.2-65.9 19.6-97.1 34-31.2 14.4-61 31.8-88.9 51.8-27.9 20-53.9 42.7-77.5 67.6-23.6 24.9-44.9 52-63.4 81-18.5 28.9-34.3 59.6-47 91.5-12.7 31.9-22.4 65-28.8 98.7-6.4 33.7-9.6 68-9.6 102.4h1c0-34.3 3.3-68.5 9.7-102.2 6.4-33.6 16.1-66.7 28.8-98.5 12.7-31.8 28.5-62.4 47-91.2 18.5-28.8 39.8-55.9 63.4-80.7 23.6-24.8 49.5-47.4 77.4-67.4 27.8-20 57.6-37.3 88.7-51.6 31.1-14.3 63.6-25.7 96.8-33.9 33.3-8.2 67.3-13.2 101.5-14.9 34.2-1.7 68.6-.3 102.5 4.4 33.9 4.7 67.4 12.6 99.8 23.6 32.4 11 63.8 25.1 93.5 42.1 29.7 17 57.8 36.8 83.8 59 52 44.5 95.5 98.9 127.4 159.5 15.9 30.3 29 62.1 38.9 94.8 9.9 32.8 16.6 66.5 20.2 100.5.3 3 .6 5.9.9 8.5.3 2.6.5 5 .8 6.9.5 3.9 1 6.4 1.3 6.4.3 0 .4-2.5.4-6.5 0-2-.1-4.4-.3-7-.4-2.4-.6-5.3-.9-8.3z"></path></g><path fill="#2d480c" d="M429 186.4l85.7-28c1-.3 1.9-.7 2.7-1.2l16.1-9.5c1.3-.8 2.9-1.1 4.4-.9l191.4 24.9h71v14.7H429z"></path><path fill="#abe184" d="M302.7 185.9h338.9v72.8H302.7z"></path><path fill="#d1efbc" d="M441.6 186.6c-.8.1-2.2.2-2.1.4.1.1 1.3.2 2.2.3 1.3.1 1.9.4 1.3.6-.6.2-2.2.4-2.2.7 0 .3 1.8.5 2.4.8.6.3-.2.6-1.4 1-1.3.3-3.1.6-4.7 1-1 .2-1.9.5-1.8.8.2.5 3.3.8 4.5 1.4 1.2.5.4 1.3-1.1 1.9-1.7.7-4.2 1.5-6 2.4-1.3.6-2.3 1.3-1.8 2 1 1.3 6.4 1.8 10.3 2.8 5.5 1.4 8.9 4.4 7.3 7.8-2.5 5.5-16.5 11.8-19.7 23h122c-13.5-3.9-24.9-7.8-33.6-11.8-23.2-10.7-14.5-17-28.1-21.2-6.1-1.9-15.9-3-17.1-4.5-.7-.8 1.9-1.3 3.8-1.7 1.7-.4 2.6-1.1-.1-1.6-.9-.2-2-.3-3.1-.4-3.3-.3-6.7-.7-8.1-1.2-2-.7 1.6-1.3-.4-1.8-1.2-.3-3.9-.5-6.1-.7-.6-.1-1.2-.1-1.5-.2-.6-.1-.3-.3.2-.4.5-.1 1.2-.2 1.6-.3.8-.2.1-.5-1.6-.7-1.1-.1-2.4-.2-3.3-.3-.9-.1-1-.3-.6-.4.4-.1 1.3-.2 2.4-.3h-15.3c1.9.2 2.9.4 1.7.6z"></path><path fill="#0c2f00" d="M202.6 169l118-39.8c6.4-2.2 13.4-1.5 19.3 1.9l52.4 30.4c2.7 1.5 5.6 2.6 8.7 3l30.9 4.2c1.1.2 2.3.4 3.4.7l42.3 12.8c1.9.6 3.9.9 5.9.9h180.2l6 3.3H194.8l7.8-17.4z"></path><path fill="#e4ffc7" d="M454.9 216.7h-16.7c-.6 0-1.3-.2-1.5-.5-.2-.3.2-.5.9-.5h16.2c.6 0 1.4.2 1.7.5.3.3 0 .5-.6.5z"></path><path fill="#e4ffc7" d="M510.3 216.7h-12.5c-.6 0-1.7-.2-2.3-.5-.6-.3-.6-.5.1-.5h12.1c.6 0 1.7.2 2.4.5.8.3.9.5.2.5z"></path><path fill="#e4ffc7" d="M478.1 207h-12.3c-.5 0-1.1-.1-1.4-.3-.3-.2-.1-.3.4-.3h12.1c.5 0 1.1.1 1.5.3.2.2.1.3-.3.3z"></path><path fill="#b0e105" d="M421.3 200.6h-9.4c-.4 0-.6-.1-.6-.2s.3-.2.7-.2h9.3c.4 0 .7.1.7.2s-.3.2-.7.2z"></path><path fill="#e4ffc7" d="M442 195.5h-7.2c-.3 0-.6 0-.6-.1-.1-.1.1-.1.4-.1h7.1c.3 0 .6 0 .7.1 0 0-.2.1-.4.1z"></path><path fill="#e4ffc7" d="M454.7 200.6h-7.2c-.4 0-.8-.1-.9-.2-.1-.1.1-.2.4-.2h7.1c.4 0 .8.1 1 .2.1.1-.1.2-.4.2z"></path><path fill="#e4ffc7" d="M467 195.5h-7.2c-.3 0-.6 0-.8-.1-.1-.1 0-.1.2-.1h7.1c.3 0 .6 0 .8.1.3 0 .2.1-.1.1z"></path><path fill="#e4ffc7" d="M445.9 189.8h-4.8 5c.1-.1 0 0-.2 0z"></path><path fill="#e4ffc7" d="M448.9 188.8h-4.4 4.4z"></path><path fill="#e4ffc7" d="M449.3 187.2h-3.8 3.8c.2 0 .2 0 0 0z"></path><path fill="#e4ffc7" d="M456.1 187.2h-3.8 3.4c.2-.1.4-.1.4 0 .1 0 .1 0 0 0z"></path><path fill="none" d="M302.7 185.9h338.9v1.2H302.7z"></path><path fill="#e4ffc7" d="M517.1 215.7h-3.4c-.6 0-.5.2.2.5s1.9.5 2.5.5h3.5c.6 0 .5-.2-.3-.5-.7-.3-1.9-.5-2.5-.5z"></path><path fill="#e4ffc7" d="M491.9 200.2H480c-.4 0-.4.1-.2.2.3.1.8.2 1.2.2h12.1c.4 0 .4-.1.1-.2-.3-.1-.9-.2-1.3-.2z"></path><path fill="#e4ffc7" d="M454.7 192H451c-.2 0-.3 0-.2.1.1 0 .3.1.6.1h3.7c.2 0 .3 0 .2-.1-.1 0-.4-.1-.6-.1z"></path><path fill="#e4ffc7" d="M441.6 192h.8c.2 0 .4 0 .5.1.1 0-.1.1-.3.1h-.8c-.2 0-.5 0-.5-.1-.1 0 .1-.1.3-.1z"></path><path fill="#e4ffc7" d="M459.5 189.8h-5.1 5.3c.1-.1 0 0-.2 0z"></path><path fill="#e4ffc7" d="M451.7 188h-1.4c-.3 0-.6 0-.7-.1-.1 0 0-.1.3-.1h1.4c.3 0 .6 0 .7.1.1.1-.1.1-.3.1z"></path><path fill="#b0e105" d="M479.7 195.3h-2.2c-.3 0-.3 0-.1.1.2.1.6.1.9.1h2.3c.3 0 .3 0 .1-.1-.3-.1-.7-.1-1-.1z"></path><path fill="#b0e105" d="M469.8 190.7h-1.4c-.3 0-.4 0-.2.1.2 0 .6.1.9.1h1.4c.3 0 .4 0 .2-.1s-.6-.1-.9-.1z"></path><path fill="#b0e105" d="M426.3 195.3h.7c.3 0 .5 0 .6.1 0 .1-.2.1-.4.1h-.7c-.3 0-.5 0-.6-.1-.1-.1.1-.1.4-.1z"></path><path fill="#b0e105" d="M505.3 202.8h-3.7c-.4 0-1-.1-1.3-.2-.4-.1-.4-.2 0-.2h3.6c.4 0 1 .1 1.3.2.4.1.4.2.1.2z"></path><path fill="#b0e105" d="M511.5 195.3h-5.1c-.3 0-.3 0 0 .1s.8.1 1 .1h5.2c.3 0 .2 0-.1-.1-.2-.1-.7-.1-1-.1z"></path><path fill="#b0e105" d="M391 191.4h-2.4c-.5 0-.8-.1-.6-.1.2-.1.7-.1 1.2-.1h2.4c.5 0 .8.1.6.1-.2 0-.7.1-1.2.1z"></path><path fill="#b0e105" d="M479.4 188.1h-2.1c-.4 0-.4 0-.2.1.3 0 .8.1 1.1.1h2.1c.4 0 .4 0 .2-.1s-.8-.1-1.1-.1z"></path><path fill="#b0e105" d="M432.6 188.7h.7-.7z"></path><defs><path id="c" d="M1000 307.8C858 371 797.3 400.3 727.7 417.6c-57.6 14.3-118.9 18.3-175.9 1.7C451.2 390 394 312.4 315.9 299.3c-75.4-12.7-147.2 37-222.7 32.8C55.5 330 16.1 311.5 0 276.5V-.7h999.8l.2 308.5z"></path></defs><clipPath id="d"><use overflow="visible" xlink:href="#c"></use></clipPath><g clip-path="url(#d)"><path fill="#6c8119" d="M290.1 254.7l209.5-31.2c10.9-1.6 21.6-4.5 31.9-8.7L652 165.9 820.7 69c10-5.7 21.8-7.7 33.1-5.4l161.4 32.8v294.1H-9.4V240.3l299.5 14.4z"></path></g><g clip-path="url(#d)"><path fill="#2d480c" d="M854.3 134.4c-59.8 29.2-114.5 58.7-171.3 82.4-14.8 6.2-29.6 11.7-34 11.5-5-.2 5.9-7.7 15.9-14.2 38.2-24.9 72.6-47.2 103.7-67.5 8-5.2 15.9-10.3 17.3-12.6 1.4-2.2-4.7-1-18 4.6-29.6 12.3-121.7 59.4-134.7 63.1-4 1.1-.6-1.5 3.4-4.2 17.4-12 45.6-28.5 54-35.6 13.1-11.2-84.2 40.2-110.4 51.2-9.3 3.9-7.8 1.9-.9-2.4 11-6.9 64.6-36.2 51.8-31.2-1.6.6-3.2 1.4-4.8 2.1-4.3 2-8.6 4.1-12.9 6.2-9.6 4.6-19.2 9.2-28.8 13.9-4.9 2.4-9.9 4.7-14.8 7.1-5.1 2.5-10.2 4.7-15.9 5.1-1.2.1-2.5.1-3.6-.5-.5-.3-1-.8-1-1.4 0-.6.4-1 .8-1.4 3.2-3 6.8-5.6 10.6-7.8l-29.2 11.9c-10.2 4.2-20.9 7.1-31.9 8.7l-91 13.5-12.9 22H758c98-72.1 146-119.9 154.2-144.8 3.2-9.2-48.7 15.8-57.9 20.3z"></path></g><g clip-path="url(#d)"><defs><path id="e" d="M1015.2 199.7c-33.5 11.9-61.6 22.8-90.7 26.3-25.5 3.1-52.4.1-74.3-13.3-20.4-12.4-44.2-19.1-68.1-19.2-38.4-.2-74.6 16.1-111.9 25.1-7 1.7-15.1 3-21-1.3-11.7-8.6-4-31.4-42.7-28-29.3 2.6-58 11.1-84 25V29.4h492.7v170.3z"></path></defs><clipPath id="f"><use overflow="visible" xlink:href="#e"></use></clipPath><g clip-path="url(#f)"><path fill="#82ab0a" d="M290.1 254.7l209.5-31.2c10.9-1.6 21.6-4.5 31.9-8.7L652 165.9 820.7 69c10-5.7 21.8-7.7 33.1-5.4l161.4 32.8v294.1H-9.4V240.3l299.5 14.4z"></path></g><g clip-path="url(#f)"><path fill="#6c8119" d="M854.3 134.4c-59.8 29.2-114.5 58.7-171.3 82.4-14.8 6.2-29.6 11.7-34 11.5-5-.2 5.9-7.7 15.9-14.2 38.2-24.9 72.6-47.2 103.7-67.5 8-5.2 15.9-10.3 17.3-12.6 1.4-2.2-4.7-1-18 4.6-29.6 12.3-121.7 59.4-134.7 63.1-4 1.1-.6-1.5 3.4-4.2 17.4-12 45.6-28.5 54-35.6 13.1-11.2-84.2 40.2-110.4 51.2-9.3 3.9-7.8 1.9-.9-2.4 11-6.9 64.6-36.2 51.8-31.2-1.6.6-3.2 1.4-4.8 2.1-4.3 2-8.6 4.1-12.9 6.2-9.6 4.6-19.2 9.2-28.8 13.9-4.9 2.4-9.9 4.7-14.8 7.1-5.1 2.5-10.2 4.7-15.9 5.1-1.2.1-2.5.1-3.6-.5-.5-.3-1-.8-1-1.4 0-.6.4-1 .8-1.4 3.2-3 6.8-5.6 10.6-7.8l-29.2 11.9c-10.2 4.2-20.9 7.1-31.9 8.7l-91 13.5-12.9 22H758c98-72.1 146-119.9 154.2-144.8 3.2-9.2-48.7 15.8-57.9 20.3z"></path></g></g><g clip-path="url(#d)"><path fill="#42711c" d="M-55.8 164.4l220.1-92c9.3-3.9 20.1-1.8 27.3 5.2l73.4 71.7c4.5 4.4 10.4 7.3 16.7 8.3l34.4 5.1c5.3.8 10.4 2.8 14.9 5.9l101 69.7c6.3 4.4 13.7 6.9 21.4 7.4l181.8 10.6L1000 197v193.6H-55.8V164.4z"></path></g><g clip-path="url(#d)"><path fill="#2d480c" d="M440.5 247.3c.6.5.1.3-1-.2-1-.5-2.4-1.3-3.7-2-17.7-10.2-34.1-20.4-51-30-1-.6-2.1-1.2-2.8-1.5-.5-.2-.6-.2-.5-.1.4.4 2 1.5 3.6 2.5 14.4 9.1 31.8 19.7 47.8 30.2 1.6 1.1 3.5 2.3 3.4 2.5-.2.2-3-1.3-5.3-2.6-21.5-12.3-37.1-21.8-66.5-38.4-.7-.4-1.5-.9-2.3-1.2-1.3-.6-2.1-.9-2.2-.8-.1.1.5.6 1.2 1.1 2.5 1.9 6.6 4.5 10.7 7 13.1 8.3 26.7 17.1 41 26.6 4.4 2.9 10 6.6 13.6 9.3 4 3.1 1 1.9-4.2-1.1-24.5-14.1-46-27.9-67.7-40.9-4.7-2.8-9.6-5.7-14.9-8.6-3-1.7-7.2-3.8-8.9-4.3-1.4-.4-.4.5.8 1.4 8.6 6.7 22.4 15.8 36.5 25.4 15.7 10.6 32.9 22.7 47.1 34.8.8.7 1.7 1.5 1.9 1.9.3.9-2.4-.2-4.9-1.5-6-3-12.5-6.8-18.6-10.5-31.8-19.3-57.4-36.6-84.6-53.2-4.7-2.9-9.9-6-15.8-9.1-5.6-3-12.9-5.7-12.8-4.6.1.9 1.3 2.4 2.8 4 15.9 17.1 53.9 46.1 87.6 83.4 1 1.1 2.1 2.4 2.1 3.3.1 1.8-4.3 1-8.2-.4-6.7-2.4-13.7-6.1-19.3-10.1l-10 1.7 66.4 50.9 178.2-1.3 73.9-49.9-195.3-8c-6.2-.4-12.5-2.3-18.1-5.7z"></path></g><g clip-path="url(#d)"><defs><path id="g" d="M-21.3 171.3c12.3 12.2 25 24.3 40.1 32.7 15.1 8.5 33.1 13 49.9 8.9 17.1-4.2 31.6-16.9 49.2-19 19.8-2.4 38.4 9.2 54.5 20.9s33.3 24.5 53.2 25.2c31.3 1 54.7-27.5 83.6-39.5 5.5-2.3 11.4-4 17.2-3.2 7.6 1 13.9 6 20.4 10 22 13.8 49.8 18 74.9 11.5 24.3-6.3 45.9-22.1 70.9-25.1v-158H-21.3v135.6z"></path></defs><clipPath id="h"><use overflow="visible" xlink:href="#g"></use></clipPath><g clip-path="url(#h)"><path fill="#82ab0a" d="M-55.8 164.4l220.1-92c9.3-3.9 20.1-1.8 27.3 5.2l73.4 71.7c4.5 4.4 10.4 7.3 16.7 8.3l34.4 5.1c5.3.8 10.4 2.8 14.9 5.9L441.7 245l193.5 11.2 364.8-59.3v193.6H-55.8V164.4z"></path></g><g clip-path="url(#h)"><path fill="#6c8119" d="M440.5 247.3c.6.5.1.3-1-.2-1-.5-2.4-1.3-3.7-2-17.7-10.2-34.1-20.4-51-30-1-.6-2.1-1.2-2.8-1.5-.5-.2-.6-.2-.5-.1.4.4 2 1.5 3.6 2.5 14.4 9.1 31.8 19.7 47.8 30.2 1.6 1.1 3.5 2.3 3.4 2.5-.2.2-3-1.3-5.3-2.6-21.5-12.3-37.1-21.8-66.5-38.4-.7-.4-1.5-.9-2.3-1.2-1.3-.6-2.1-.9-2.2-.8-.1.1.5.6 1.2 1.1 2.5 1.9 6.6 4.5 10.7 7 13.1 8.3 26.7 17.1 41 26.6 4.4 2.9 10 6.6 13.6 9.3 4 3.1 1 1.9-4.2-1.1-24.5-14.1-46-27.9-67.7-40.9-4.7-2.8-9.6-5.7-14.9-8.6-3-1.7-7.2-3.8-8.9-4.3-1.4-.4-.4.5.8 1.4 8.6 6.7 22.4 15.8 36.5 25.4 15.7 10.6 32.9 22.7 47.1 34.8.8.7 1.7 1.5 1.9 1.9.3.9-2.4-.2-4.9-1.5-6-3-12.5-6.8-18.6-10.5-31.8-19.3-57.4-36.6-84.6-53.2-4.7-2.9-9.9-6-15.8-9.1-5.6-3-12.9-5.7-12.8-4.6.1.9 1.3 2.4 2.8 4 15.9 17.1 53.9 46.1 87.6 83.4 1 1.1 2.1 2.4 2.1 3.3.1 1.8-4.3 1-8.2-.4-6.7-2.4-13.7-6.1-19.3-10.1l-10 1.7 66.4 50.9 47-59.6-8.3-5.3z"></path></g></g><path fill="#2d480c" d="M464.7 256c8 3.2 15.2 7.7 22.7 13.7 4.8 3.9 9.9 8.3 15.6 13.3 1.3 1.2 3.2-.5 1.9-1.7-8.9-7.6-16.5-14-23.9-18.8-3.3-2.1-6.6-4-10.1-5.6-3.2-1.4-7.2-2.5-9.2-4.2-2.2-1.8-1.2-4.5 2-6.4l-1.7-.1c-2.3 1.5-3.6 3.3-3.5 5 .3 2.1 3 3.5 6.2 4.8z" clip-path="url(#d)"></path><g clip-path="url(#d)"><path fill="#345611" d="M-9.4 44.7c0 .6 104.8 37.4 151.5 53.7 14.4 5.1 27.3 13.8 37.3 25.3l40.5 46.7 80.3 43.5c3.6 1.9 6.9 4.2 10.1 6.7l147.2 119H-9.4V44.7z"></path><path fill="#2d480c" d="M343.2 247.3c-51.2-23.9-91.9-42.4-96.3-44.1-2.8-1.1-4.4-1.5-4.2-1 .8 1.8 21.1 12 27.1 15.2 37.2 19.7 51.3 31.4-52.1-20.5-6.6-3.3-15.6-7.6-19.5-8.6-11.8-3.1 48.9 31.2 69.5 45.3 20.8 14.2 13.3 14.4-12.9 3.1-34.6-15-58.2-29.3-130.8-64.8-2-1-4.1-2-6.3-2.8-6.8-2.5-6.9-.7-4.5 1.5 10.9 10.2 28.2 23.9 52.8 41.3 25.8 18.3 61.7 42.3 83.4 67.5 4.2 4.8 8 10.1 6 12.3-3.2 3.6-18.5-2.3-31.9-8.7-96.7-45.8-142.9-94-216.2-125.5-3.8-1.6-7.9-3.3-12.5-4.6-1.4-.4-2.8-.7-4.1-1v66.8c11.7 23.4 24.9 52.2 30.5 86.3 1.6 9.9 1.7 22.2-1.9 34.7h208.9l184.6-36-69.6-56.4z"></path></g><g clip-path="url(#d)"><defs><path id="i" d="M-21.3 171.3c12.3 12.2 25 24.3 40.1 32.7 15.1 8.5 33.1 13 49.9 8.9 17.1-4.2 20.2-13.2 37.7-15.3 19.8-2.4 38.4 9.2 54.5 20.9s33.3 24.5 53.2 25.2c31.3 1 66.2-31.3 95.1-43.3 5.5-2.3 11.4-4 17.2-3.2 7.6 1 13.9 6 20.4 10 22 13.8 49.8 18 74.9 11.5 24.3-6.3 45.9-22.1 70.9-25.1V34.1H-21.3v137.2z"></path></defs><clipPath id="j"><use overflow="visible" xlink:href="#i"></use></clipPath><g clip-path="url(#j)"><path fill="#6c8119" d="M-9.4 44.7c0 .6 102.5 36.6 149.9 53.2 15.4 5.4 29.2 14.7 39.9 27.1l32.8 37.9c4.4 5 9.6 9.2 15.4 12.4l71 38.4c3.9 2.1 7.6 4.6 11 7.3l146.7 118.6H-9.4V44.7z"></path></g><g clip-path="url(#j)"><path fill="#345611" d="M343.2 247.3c-51.2-23.9-91.9-42.4-96.3-44.1-2.8-1.1-4.4-1.5-4.2-1 .8 1.8 21.1 12 27.1 15.2 37.2 19.7 51.3 31.4-52.1-20.5-6.6-3.3-15.6-7.6-19.5-8.6-11.8-3.1 48.9 31.2 69.5 45.3 20.8 14.2 13.3 14.4-12.9 3.1-34.6-15-58.2-29.3-130.8-64.8-2-1-4.1-2-6.3-2.8-6.8-2.5-6.9-.7-4.5 1.5 10.9 10.2 28.2 23.9 52.8 41.3 25.8 18.3 61.7 42.3 83.4 67.5 4.2 4.8 8 10.1 6 12.3-3.2 3.6-18.5-2.3-31.9-8.7-96.7-45.8-142.9-94-216.2-125.5-3.8-1.6-7.9-3.3-12.5-4.6-1.4-.4-2.8-.7-4.1-1v66.8c11.7 23.4 24.9 52.2 30.5 86.3 1.6 9.9 1.7 22.2-1.9 34.7h208.9l184.6-36-69.6-56.4z"></path></g></g><path fill="#0c2f00" d="M646.4 254.5l15.4-63.4 15.4 57z" clip-path="url(#d)"></path><path fill="#263907" d="M646.4 254.5l15.4-63.4-8.5 58.2z" clip-path="url(#d)"></path><path fill="#0c2f00" d="M629.1 278.3l14.8-61L660 272z" clip-path="url(#d)"></path><path fill="#263907" d="M629.1 278.3l14.8-61-4.9 54.8z" clip-path="url(#d)"></path><path fill="#0c2f00" d="M670 252.5l15.4-56.5 15.5 50.2z" clip-path="url(#d)"></path><path fill="#263907" d="M670 252.5l15.4-56.5-6.9 50.7z" clip-path="url(#d)"></path><path fill="#0c2f00" d="M691.1 238.7l15.5-56.5 15.4 50.2z" clip-path="url(#d)"></path><path fill="#263907" d="M691.1 238.7l15.5-56.5-5.7 52.2z" clip-path="url(#d)"></path><path fill="#0c2f00" d="M711.5 238.4l13.7-56.6 13.6 49.9z" clip-path="url(#d)"></path><path fill="#263907" d="M711.5 238.4l13.7-56.6-6.7 50.6z" clip-path="url(#d)"></path><path fill="#0c2f00" d="M724.2 237.3l14.5-53.5 12.9 46.8z" clip-path="url(#d)"></path><path fill="#345611" d="M270.5 309.2l106.9-20.4c15.6-3 31.4-4.9 47.3-5.7l113.8-5.6c40.4-2 80-12.4 116.2-30.4L851.4 149c16-8 30.9-18.1 44.2-30.1l118-106v392.3H65.2l182.4-88.4c7.3-3.5 15-6.1 22.9-7.6z" clip-path="url(#d)"></path><path fill="#82ab0a" d="M538.5 277.4l-82.7 4.1c15.2 28.8 29.4 58.8 36.5 96.2h334.9c-78.8-47.6-158.6-99.1-227.4-110-20 5.5-40.5 8.7-61.3 9.7z" clip-path="url(#d)"></path><path fill="#0c2f00" d="M543.9 309.4h-5.2l-22.1-23.6h3.3z" clip-path="url(#d)"></path><path fill="#0c2f00" d="M549.8 309.4h-11.1l32.3 34.5h14z" clip-path="url(#d)"></path><path fill="#0c2f00" d="M661.8 333.1h-9l-45.6-29.8h7.2z" clip-path="url(#d)"></path><path fill="none" stroke="#0c2f00" stroke-linecap="round" stroke-miterlimit="10" stroke-width="2" d="M599.8 303.3l44.7 28.3" clip-path="url(#d)"></path><path fill="#0c2f00" d="M668.4 328.1h-11.1l-28.5-17.5 2.6-4.3z" clip-path="url(#d)"></path><path fill="#0c2f00" d="M549.7 309.4h-5.2l-26.4-27.8h3.1z" clip-path="url(#d)"></path><g clip-path="url(#d)"><path fill="#2d480c" d="M1012.1 236.1c-153.7 23.1-303.9 64.4-453.7 105.7C375.5 392.1 192.6 442.5 9.7 492.9h1002.4V236.1z"></path></g><path fill="#6c8119" d="M1012.1 492.9V336.7c-75.4-19.4-158.8-36-253.6-48.3-67 16.8-133.6 35.1-200.1 53.4-3.3.9-6.5 1.8-9.8 2.7 41.5 47 76.9 96.4 105.4 148.4h358.1z" clip-path="url(#d)"></path><path fill="none" d="M1064.9 419.2H956.8L762.1 324h62.2z" clip-path="url(#d)"></path><path fill="#0c2f00" d="M750.5 499.7c.6.6-110-87.4-180.4-105.3-71.6-18.2-146-18.7-218.6-30.9-17.4-2.9-35-6.7-50.6-14.9-18.1-9.5-32.7-24.7-50.4-34.8-37.4-21.4-83.8-18.4-124.6-32.3C77.2 264.8 39.1 225-9.4 208v210.7" clip-path="url(#d)"></path><path fill="none" stroke="#263907" stroke-miterlimit="10" stroke-width="2" d="M601.8 240.3l-2 63" clip-path="url(#d)"></path><path fill="none" d="M503.2 357.3H476L431.4 313h19.3z" clip-path="url(#d)"></path><g clip-path="url(#d)"><path fill="#b9ee00" d="M1013.9-44.4c-1.6 3.6-3.1 7.3-4.7 10.9-.6 1.3-1.1 2.7-1.6 4.1-1.8 5.2-2.2 10.7-3.3 16-.2 1.2-.8 2.6-2 2.6-.7 0-1.3-.5-1.6-1.2-.3-.6-.3-1.4-.3-2.1-.2-8 .6-16.1 2.2-24 1.1-5.5 2.7-11.1 2-16.7"></path></g><g clip-path="url(#d)"><path fill="#b9ee00" d="M626.9 305.3c.5 0 1.1.5 1.6.2.3-.2.3-.7.3-1 0-.5-.1-1-.2-1.5-.1.2-.2.4-.4.5-.7.5-1.8-.2-3.1 1.2-.4.4-.4 1.2-.2 1.7.1.2.3.4.4.6.5-.8.8-1.7 1.6-1.7z"></path><path fill="#42711c" d="M627.5 308.9c.2.3.3.6.5.9.7 1.2 2.5 1.3 3.3.1.8-1.1.9-4.8.8-6.2 0-.5-.1-1-.3-1.5-.6-1.5-2.2-1.3-2.8-.2-.1.3-.2.6-.4.8.1.5.2 1 .2 1.5 0 .4 0 .8-.3 1-.5.3-1-.2-1.6-.2-.8 0-1.1.9-1.6 1.6.7.9 1.7 1.4 2.2 2.2z"></path><path fill="#829413" d="M628.5 305.5c.3-.2.3-.7.3-1-.2-2.1-1.1-4.2-1.1-6.3 0-1.2.3-2.5.4-3.7.1-1.8-.3-3.6-1.1-5.2-.6-1.1-1.4-2.2-1.5-3.4-.3-2.2 1.5-4.2 1.3-6.5-.1-1.4-1-2.7-1.5-4.1-.8-2.4 0-5.3 2-6.9l5.1-4.6c-.4-.8-1-1.2-2-1.5-5.4-1.6-9.3 2.4-8.2 5.8.2 9.1 1.8 18.1 3.5 27.1 1.1 5.8 1.5 8.8 2.1 10.4.2 0 .5.1.7-.1z"></path><path fill="#0c2f00" d="M629.3 307.3c.5.2 1.2.2 1.6-.1.6-.4.8-1.2.9-1.9.8-5.9-1.1-11.8-1.2-17.8 0-1.5.1-3 .1-4.5 0-2-.1-4 .2-6 .3-2.1 1-4.1 1.5-6.1s.8-4.2.2-6.3l-.3-.9-5.1 4.6c-2 1.6-2.8 4.5-2 6.9.5 1.4 1.4 2.6 1.5 4.1.2 2.2-1.6 4.3-1.3 6.5.2 1.3 1 2.3 1.5 3.4.8 1.6 1.2 3.4 1.1 5.2-.1 1.2-.4 2.5-.4 3.7 0 2.1.9 4.2 1.1 6.3 0 .4 0 .8-.3 1-.2.1-.5.1-.8 0 .5 1.1 1 1.6 1.7 1.9z"></path><path fill="#42711c" d="M612 302.4c-.5.4-1.2.4-1.8.4-1 .1-2 .2-3 .5.3.4.7.7 1.1.9.4.2.7.3 1.1.4.5.1 1 .1 1.5.2.7.2 1.3.6 1.9.8.7.2 1.5.2 1.9-.4.2-.3.2-.8.2-1.2 0-.5.1-1 .2-1.5.2-1 .5-2 0-2.9-.3-.5-.7-.9-1.3-1-.5-.1-.9 0-1.3.3.1 1.3.4 2.8-.5 3.5z"></path><path fill="#b9ee00" d="M611.8 300.2c-.8.5-1.8.7-2.7.7-.5 0-1-.1-1.5.1-.6.3-.9 1.1-.7 1.8l.3.6c1-.3 2-.4 3-.5.6 0 1.3 0 1.8-.4 1-.7.6-2.3.6-3.5-.1 0-.1.1-.2.2l-.6 1z"></path><path fill="#0c2f00" d="M621.7 267.7c-1.6-.1-3.4-.2-4.9-.8-.3 1.3-.4 2.6 0 3.9.5 1.7 2 3 2.3 4.8.4 2.4-1.4 4.5-3.2 6.1-.6.6-1.3 1.1-1.5 1.9-.2.6-.2 1.1-.1 1.7.2 2.2.8 4.4.4 6.5-.4 2.4-2.1 4.5-2.1 6.9 0 1.2.4 2.7-.5 3.4.8 1 2.2 1 3.1-.2 1.6-2.3 3.6-17.1 3.9-18.4.7-2.5 3.4-7.7 5.1-11.9 1.7 0 3.4-.3 4.8-1.1s2.7-2.1 3-3.7c-3.4.8-6.9 1-10.3.9z"></path><path fill="#829413" d="M612.5 298.9c-.1-2.4 1.6-4.5 2.1-6.9.4-2.2-.2-4.4-.4-6.5 0-.6-.1-1.2.1-1.7.3-.8.9-1.4 1.5-1.9 1.8-1.6 3.6-3.7 3.2-6.1-.3-1.7-1.7-3.1-2.3-4.8-.4-1.3-.3-2.6 0-3.9-.5-.2-1-.4-1.4-.6-.1.7-.1 1.3-.3 1.9-3.5 14.9-4.2 31.3-3.4 33.4.1.3.2.5.4.7.9-1 .5-2.4.5-3.6z"></path><path fill="#e4ffc7" d="M601.9 248.5c.8.6 1.2 1.5 1.9 2.8.4-.2.6-.6.6-1s0-.8-.1-1.2l-.1-.5c-1.4-2.3-1.4-2.2-1.5-2.3-.6-.6-2.3-.7-2.5-.6-.1 0-.2.4-.3.9-.1 1 1.5 1.6 2 1.9z"></path><path fill="#c7f73d" d="M600 248.3c0 .1.4 1 .5 1.1.4.6 1.2.8 1.6 1.4.2.3.3.5 1 .5.2 0 .5 0 .7-.1-.7-1.2-1.1-2.2-1.9-2.8-.5-.4-2.1-.9-2-2-.1.6-.1 1.3.1 1.9z"></path><path fill="#e4ffc7" d="M619.8 235.7c-.2-.3-.5-.4-.8-.7-.5-.5-.3-1.4.1-2 .6-1 2.2-1.9 1.9-3.1-.3-.8-1.5-1.1-1.6-1.9-.1-.4.2-1 .7-1.5-1.7.9-3.2 4.6-3 5.6.2.9.3.1.3 2.1 0 1.4.3 2.7.6 4.1.1.5.2 1 .6 1.3.2.2.5.3.7.4.2.1.4.1.6.1-.1-.3-.2-.6-.3-1-.1-1.4.9-2.5.2-3.4z"></path><path fill="#c7f73d" d="M625.3 235.3l.2-.2c.7-1.8.7-3.9 0-5.7-.3-.9-.9-1.8-1.7-2.3-.7-.4-2.5-.8-3.3-.6-.1 0-.2.1-.4.1-.5.4-.8 1.1-.7 1.5.1.8 1.3 1.1 1.6 1.9.4 1.1-1.2 2.1-1.9 3.1-.4.6-.6 1.5-.1 2 .2.2.6.4.8.7.6.8-.3 2-.2 3.6 0 .4.1.7.3 1 2.3.1 4.2-2.8 5.4-5.1z"></path><path fill="#b9ee00" d="M621 230c-.3-.8-1.5-1.1-1.6-1.9-.1-.6.5-1.4 1.2-1.8-2.1.5-3.6 3-4 5.2 0 .2.1.4.3.6.3.2.7.4 1.1.5.4.2.8.3 1.2.4.6-1 2.2-1.9 1.8-3z"></path><path fill="#0c2f00" d="M625.8 233.4c.3 0 .5-.3.5-.6 0-1.7-.5-4-1.6-5.1-.8-.8-2.2-1.6-3.5-1.6-.2 0-.4 0-.6.1-.7.4-1.3 1.3-1.2 1.8.1.8 1.3 1.1 1.6 1.9.4 1.1-1.1 2.1-1.8 3 2.1.7 4.4.9 6.6.5z"></path><path fill="#b9ee00" d="M622.3 223c-1 .2-1.7.8-1.6 2 0 1 .8 1.7 1.7 1.8 1.2.1 2.2-1 2.1-2.2-.1-1.2-.9-1.6-1.9-1.6h-.3z"></path><path fill="#b9ee00" d="M627.1 240.8c-.2-2.7-1.9-3.6-3.2-3.2h-.2c-2.6.6-5.2 1.2-6.6 2-3.1 1.9-7.7 10.6-9.3 13.8-1.2-1.3-2.2-2.7-3.1-4.1-.2-.3-.4-.7-.8-.9-.6-.3-1.3 0-1.7.5 1.3 1.4 1.8 4.1 5.5 7.6 1.4 1.3 1.1-1.1 3.8-3.7.7-.7 1.5-1.3 2.2-2 2-2.3.7-6.6 2.8-8.8.6-.6 2.9-.3 3.7-.1 1.2.3 2.1 2.7 2.2 4 .6-.2 1.1-.3 1.7-.5.9-.3 1.9-.9 2.4-1.7.6-.9.7-1.9.6-2.9z"></path><path fill="#829413" d="M631.8 252.5c.8-3.1 2.1-6.2 1.3-9.3-.6-2.3-2.4-4.2-4.6-5-4.6-1.8-9.3.7-11.9 3.8-.1.6-.1 1.3-.1 1.9.2 2 1 3.9.8 5.8-.1 1.4-.7 2.7-.9 4.1-.3 2.7 1.3 5.3 1.3 8 0 1.7-.6 3.4-1 5.1 1.5.5 3.3.7 4.9.8 3.4.1 6.9-.1 10.3-.7v-.2c.2-1.2-.2-2.5-.4-3.7-.6-3.5-.6-7.1.3-10.6z"></path><path fill="#b9ee00" d="M616.5 253.8c.1-1.4.7-2.7.9-4.1.2-2-.6-3.9-.8-5.8-.1-.6 0-1.2.1-1.9-1.4 1.7-2.1 3.5-1.9 5l.1.3c0 3.6-.1 7.2.2 10.7.1 1.7.6 5.4.4 8.3.5.3.9.5 1.4.6.4-1.7 1-3.4 1-5.1-.2-2.7-1.7-5.3-1.4-8z"></path><path fill="#829413" d="M620.2 241.9c-.8-.2-3.1-.4-3.7.1-2.2 2.2-.8 6.5-2.8 8.8-.6.7-1.5 1.3-2.2 2-2.7 2.6-2.4 5-3.8 3.7-3.7-3.6-4.2-6.2-5.5-7.6-.2.2-.3.5-.3.7-.2.9.2 1.8.7 2.6 1.3 2.4 3.1 4.5 5.1 6.4.6.5.9.5 1.4 0 4.1-4 6.5-10.4 12.2-12.4l1.2-.3c-.1-1.4-1-3.7-2.3-4z"></path><path fill="#0c2f00" d="M624.5 242.7c-1.3-1.7-3.1-3.1-5-4-.7.2-1.4.5-1.9.7 1.7.6 3.9 2.9 4.9 4.1.6-.3 1.3-.6 2-.8z"></path><path fill="#0c2f00" d="M615.1 259c.1.8.2 1.9.3 3 1.8-.9 3.5-2 5.2-3.2l-1-3c-2.5 1.9-3.8 2.7-4.5 3.2z"></path><path fill="#96bf48" d="M623.5 268.6c1.1-1.7.2-4.1.3-6.2.1-1.1.4-2.2.7-3.3.4-1.6.4-3.3.2-5-.2-1.9-.8-3.8-.3-5.6.5-1.8 2.2-3.3 2.1-5.2-.1-1.1-.7-2-.8-3.1-.2-1.2.3-2.5.2-3.7-.2-1.8-1.2-3.1-2.7-2-1.1 1-2.3 2.7-4 5.4-.5.9-.9 2.1-.9 3.1v20.9c0 3.1.5 5.3 3.5 6.2.6-.4 1.3-.8 1.7-1.5z"></path><path fill="#6c8119" d="M635 267.4c.4-1.1 1.5-17 1.5-24.1 0-2.7 0-2.3-3.1-8.7-.7-1.4-.9-1.4-5-1.7-2.1-.1-3.4-.2-5.2 1.4 1.5-1.1 2.5.2 2.7 2 .1 1.2-.4 2.5-.2 3.7.1 1.1.8 2 .8 3.1.1 1.9-1.5 3.4-2.1 5.2-.5 1.8.1 3.8.3 5.6.2 1.7.1 3.4-.2 5-.2 1.1-.6 2.1-.7 3.3-.1 2.1.8 4.5-.3 6.2-.4.7-1.1 1.1-1.8 1.3.8.2 1.8.4 3 .4 3.4.4 9.1.4 10.3-2.7z"></path><path fill="#42711c" d="M625.9 236.5c-.2-1.8-1.2-3.1-2.7-2-1.1 1-2.3 2.7-4 5.4v.2c1.6-2.1 5-2.1 6.3-.8.1.1.1.2.2.2 0-1.1.3-2.1.2-3z"></path><path fill="#0c2f00" d="M634.3 244.4c.2 0 .3 0 .5-.1.3-.2 1-2 1.1-4.3-.4-1-1.2-2.5-2.5-5.2-.7-1.4-.9-1.4-5-1.7-2.1-.1-3.4-.2-5.2 1.4 1.5-1.1 2.5.2 2.7 2 .1 1-.2 1.9-.2 2.9 1.1 1.4 1.9 4.8 2.1 5 .4.2 5.8 0 6.5 0z"></path><path fill="#e4ffc7" d="M604 248.4c-.7-2.3-1.2-3.8-1.7-3.6-.6.2-.4 1.7-.2 2.3"></path><path fill="#0c2f00" d="M623.2 223.1c.2.4 0 1.2-.1 1.4-.2.2-.5.4-.5.6 0 .3.5.6-.1 1-.2.2-.6.3-.9.2-.2 0-.4-.2-.6-.3.3.5.8.8 1.4.8 1.2.1 2.2-1 2.1-2.2-.1-.9-.6-1.4-1.3-1.5z"></path></g><g clip-path="url(#d)"><path fill="#96bf48" d="M628.7 243.3c0 2.3 0 2.2.1 2.2.1.2.6.1.7.1.2-.2.1-2.2 0-2.3h-.8"></path></g><g clip-path="url(#d)"><path fill="#96bf48" d="M633.5 243.3c0 2.3 0 2.2.1 2.2.1.2.6.1.7.1.2-.2.1-2.2 0-2.3h-.8"></path></g><g clip-path="url(#d)"><path fill="none" stroke="#263907" stroke-miterlimit="10" d="M527.8 251.7l4 18.7"></path><path fill="#e4ffc7" d="M527.8 256.3c.2-.2.4-.5.7-.6.2-.1.4-.1.5-.1.1 0 .2 0 .2.1.1 0 .1.1.2.2.1.3.1.7.1 1 0 .2 0 .5-.2.7-.2.2-.4.2-.7.2-.2-.1-.5-.2-.7-.3"></path><g fill="#0c2f00"><path d="M523 279.5c.2-.1.4-.3.5-.4.7-.7 0-1.6-1.1-1.6 0 .8 0 1.7.2 2.5.1-.2.2-.3.4-.5z"></path><path d="M520.3 278.3c.2 1.5.1 2.3.9 2.4h.2c-.1-.9-.1-1.9-.2-2.8l-.9.4z"></path><path d="M521.4 277.8l-.1.1c.1.9.1 1.9.2 2.8.6 0 .9-.3 1.2-.7-.2-.8-.2-1.6-.2-2.5-.4 0-.8.1-1.1.3z"></path></g><path fill="#0c2f00" d="M516.8 282.8c-.5.2-1 .5-1 1 0 .4.1.7.8 2.4.2.5.5.8 1.5.4.4-.2.5-.3.6-.7.1-.5.4-2.4.1-2.9-.3-.6-1.1-.5-1.7-.4"></path><path fill="#b9ee00" d="M520.3 273.4c0-1.3.7-2.5.5-3.8-.2-1.2-1-2.1-1.9-2.9v-.2c-.1.7-.1 1.4-.1 2.2.1 3.1.8 6.2 1.3 9.3.1.7.4 1.5 1 1.7h.2c-.1-1.2 0-2.4-.3-3.5-.2-.9-.7-1.8-.7-2.8z"></path><path fill="#b9ee00" d="M523 262.9c-.2.7-.5 1.4-.6 2.2-.2 1 0 2-.1 3-.1 2.1-.8 4.2-.5 6.3.1.9.4 1.7.5 2.6.1.8.1 1.6.2 2.4.1-.1.1-.2.2-.3.3-.7.2-1.2 0-6.1-.3-5.6 1.4-8.2 1.5-12.7 0-.4-.3-.8-.6-1.1 0 1.2-.2 2.4-.6 3.7z"></path><path fill="#b9ee00" d="M522.1 258.8c-.2.1-.4.2-.6.4.3-.2.5-.3.8-.5 0 0-.1 0-.2.1z"></path><path fill="#0c2f00" d="M518.5 263.2l.4 3.4c.3-3.5 1.5-6.3 2.6-7.4-1.4.9-2.5 2.3-3 4z"></path><path fill="#0c2f00" d="M523.5 259.1v-.4c0-.1 0-.2-.1-.3-.1-.1-.3-.1-.5 0l-.6.3c.4 0 .9.1 1.2.4z"></path><path fill="#0c2f00" d="M522.5 279.3c-.1-.8-.1-1.6-.2-2.4-.1-.9-.4-1.7-.5-2.6-.3-2.1.5-4.2.5-6.3 0-1-.1-2 .1-3 .1-.7.4-1.5.6-2.2.4-1.2.5-2.5.5-3.8-.4-.3-.8-.4-1.2-.4-.3.1-.5.3-.8.5-1.1 1.1-2.3 3.9-2.6 7.4v.2c.8.8 1.7 1.8 1.9 2.9.2 1.3-.5 2.5-.5 3.8 0 1 .5 1.9.7 2.8.3 1.2.3 2.4.3 3.5.5.2.9-.1 1.2-.4z"></path><path fill="#e4ffc7" d="M521.4 244.2c.1.7.5 1.8-.8 2.2-.9.3-1.2-.3-1.3-.4-.3-.2-1 .2-1.5.1-.7 0-.9-.8-1-1.4-1.1-5.4 3.3-6.8 4.1-4 .3.6.3 1 .5 3.5z"></path><path fill="#96bf48" d="M516.3 241.8c.3 2.2 4.4 2.3 5.1.3.1-.3.1-.6 0-.9 0-.3-.1-.7-.2-1-.1-.3-.1-.6-.3-.8-.2-.2-.4-.4-.6-.5-.8-.4-1.9-.4-2.6.1-.4.3-.7.8-.9 1.2-.2.6-.3 1.1-.5 1.6"></path><path fill="#b9ee00" d="M519.6 237.3c-.6 0-1.1.5-1.1 1 0 .6.5 1 1 1 .6 0 1.1-.5 1.1-1.1 0-.4-.3-.8-1-.9.1.1 0 0 0 0z"></path><path fill="#c7f73d" d="M516.2 245.8c.8-4 8.2-3.7 7.7-1.3-.2.9-.5 1-1.1.9-2.1-.1-4.2.2-6.2.7-.2 0-.3.1-.4-.1"></path><path fill="#42711c" d="M516.7 259.2c-.1-1.1-.8-2.2-.8-3.3 0-.7.3-1.4.4-2.2.2-1.3-.1-2.5-.2-3.8v-.2l-.9.4c-.4 6.8-.5 10.1-.6 11.9.5-.4 1.2-.7 1.9-1 .1-.7.2-1.3.2-1.8z"></path><path fill="#42711c" d="M523.2 258.1l-.1 1.3c.1-.4.1-.9.1-1.3z"></path><path fill="#0c2f00" d="M522.9 255.2c-.5-2.5-1.5-4.9-1.7-7.5l-5.1 1.9v.2c.1 1.3.4 2.6.2 3.8-.1.7-.4 1.4-.4 2.2 0 1.1.7 2.2.8 3.3 0 .6-.1 1.1-.2 1.7.6-.2 1.3-.4 2-.5 1.5-.3 3.1-.4 4.6-.3 0-.2.1-.4.1-.7l.1-1.3c-.1-.9-.2-1.9-.4-2.8z"></path><path fill="none" d="M517 284.7s.1-.1 0 0c0-.1 0-.1 0 0 0-.1 0-.1 0 0z"></path><path fill="#b9ee00" d="M517 284.6c.6-2.3-.4-4.8-.1-7.2.1-.8.4-1.6.3-2.4 0-1.3-.7-2.5-.6-3.7.1-1.8 1.7-3.4 1.3-5.2-.3-1.2-1.3-2.1-1.6-3.3-.1-.6 0-1.3.1-2-.7.2-1.4.6-1.9 1-.1 3.5.3 1 .7 7.9.2 2.8.3 5.6.5 8.4.1 1.7.2 3.5.6 5.2.1.4.3.8.5 1.2.1 0 .2 0 .2.1z"></path><path fill="#0c2f00" d="M517 284.6c0-.1-.1-.2-.2-.2l.2.2z"></path><path fill="#0c2f00" d="M516.3 262.8c.2 1.2 1.3 2.1 1.6 3.3.4 1.8-1.2 3.4-1.3 5.2-.1 1.3.6 2.5.6 3.7 0 .8-.2 1.6-.3 2.4-.3 2.4.7 4.9.1 7.3.2.2.4.3.7.3.4 0 .8-.4 1-.8.2-.4.2-.9.2-1.3.9-20 .4-15.9 3.1-20.2.5-.8.8-1.6 1-2.5-1.5 0-3.1 0-4.6.3-.7.1-1.4.3-2 .5-.1.5-.2 1.2-.1 1.8z"></path><path fill="#42711c" d="M519.5 244.8c-1 .1-3.4.3-4.5 1.3-.4.4-.7.9-.9 1.5-.5 1.2-.7 2.5-1 3.8-.5 2.7-1.1 5.4-1.6 8.1-.1.7-.3 1.4-.1 2.1 0 .1.1.3.2.4.7-1.4 1.7-3.1 2-4.9.1-.5.1-1.1.2-1.6.2-.9.9-1.6 1.1-2.5.4-1.4-.1-2.9.3-3.9.2-.4.5-.7.8-.9.4-.3.8-.7 1.3-.9l1.7-.7c.7.9 1 2.1 1.1 3.2.2-.1.4-.2.6-.4 1.2-1.1.9-4.9-1.2-4.6z"></path><path fill="#0c2f00" d="M517.1 247.3c-.5.3-.9.6-1.3.9-.3.3-.6.6-.8.9-.4 1 .1 2.6-.3 3.9-.3.9-.9 1.6-1.1 2.5-.1.5-.1 1-.2 1.6-.2 1.7-1.3 3.4-2 4.9.1.1.1.2.2.2.2.1.5 0 .7-.2s.3-.4.4-.6c1.1-2.3 2.2-4.6 2.7-7.1.1-.6.2-1.1.4-1.6.8-1.7 2.7-2.1 4-2.8-.1-1.1-.5-2.3-1.1-3.2l-1.6.6z"></path><path fill="#0c2f00" d="M526.6 256.2c-.3-.2-.6-.4-.7-.7-.1-.3-.1-.6-.1-.8 0-.4 0-.8-.1-1.2-.1-.4-.3-.7-.4-1-.3-.7-.2-1.5-.3-2.3-.1-.6-1.4-2.1-2.3-3l-.8.7c.4 2.5 1.2 4.9 2.3 7.2.8 1.7 1.3 2.1 3.2 2.9.3.1.7.3 1 .2.3-.1.5-.4.5-.7-.1 0-.2-.1-.3-.1-.8-.4-1.4-.8-2-1.2z"></path><path fill="#42711c" d="M528.8 256.8c-.3-1-1.6-1.3-2-2.1-.6-1-1.2-6.8-3-8.6l-1.2 1c.9.9 2.2 2.4 2.3 3 .1.8.1 1.6.3 2.3.1.3.3.7.4 1 .1.4.1.8.1 1.2 0 .3 0 .6.1.8.1.3.4.5.7.7.6.4 1.2.8 1.9 1.1.1 0 .2.1.3.1.2-.1.2-.4.1-.5z"></path><path fill="#829413" d="M520.2 259.8c0-.5-.1-1-.2-1.4-.3-2.1.1-4.4-.4-6.5-.2-.7-.5-1.4-.5-2.1-.1-.8 0-1.5 0-2.3 0-.8-.2-1.6-.7-2.1-.4-.3-.9-.4-1.3-.3-.5.5-.7 1.2-.7 2-.1 4.4.4 8.7 1.4 13 .1.5.3 1 .7 1.2.2.1.4.1.6.1l.6-.3c.3-.3.5-.8.5-1.3z"></path><path fill="#42711c" d="M519.3 261.4c1.5-.1 3.1-.2 4.6-.4.1 0 .3 0 .4-.1.1-.1.2-.3.2-.5.2-.9.3-1.9.4-2.8v-2.1l-.3-9c0-.3 0-.6-.1-.8-.1-.4-.5-.7-.8-1-1-.7-2.3-.7-3.5-.7-1 0-1.9.2-2.8.7-.2.1-.3.2-.5.4.4-.1 1 0 1.3.3.6.5.7 1.3.7 2.1s-.1 1.5 0 2.3c.1.7.4 1.4.5 2.1.5 2.1.1 4.3.4 6.5.1.5.2 1 .2 1.4 0 .5-.2 1-.6 1.3l-.6.3h.5z"></path><path fill="#42711c" d="M519.1 247.5c0-.8-.2-1.6-.7-2.1-.4-.4-1.1-.5-1.5-.3-.3.4-.5.9-.5 1.4.1-.4.6-.5.9-.3s.6.5.7.8c.8 1.6.3 2 .9 2.2.1 0 .1 0 .2.1-.1-.6 0-1.2 0-1.8z"></path><path fill="#0c2f00" d="M523.3 249.1c.6-.1.7-.3.8-.7.2-.9.4-2.8-.2-3.5-1.2-1.5-6.2-1.2-7.1.3.5-.2 1.1-.1 1.5.3.6.5.7 1.3.7 2.1 0 .6-.1 1.2-.1 1.8 1.2.2 2.5 0 4.4-.3z"></path><path fill="#96bf48" d="M521.5 248.7c.1.3.3.7.5 1 .5 0 .5 0 .6-.1.1-.3.2-.7.2-1.1-.4 0-.7 0-1.1.1l-.2.1"></path></g><g clip-path="url(#d)"><path fill="#2d480c" d="M875.8 148.7c6-9.4 14.6-19.2 23.8-25.6 18.6-12.9 21.4 3.4 31 6.4 3.9 1.2 8.2 0 11.9-1.8 19.8-9.9 28.6-35.3 49.4-43.5 10.3-4.1 23.9-2 29.6 7.5 3.1 5.1 3.4 11.4 4.9 17.2 1.5 5.8 5.1 11.9 11 12.9 6.4 1.1 12.8-4.4 20.9-4.8 3.8-.2 8 1.1 10.3 4.2 3.3 4.5 2.5 12 7.4 14.6 2.7 1.4 5.9.7 8.9.4 10.5-1.1 21.4 3.7 27.6 12.3H875.8"></path></g><path fill="#0b201b" d="M97.4 279.6c-.8-.1-1.7-.2-2.5-.2-6.4-.3-13.5 1.1-17.6 6.1-3.6 4.4-4 10.6-2.5 16.1l4.2.3c2.3.1 4.6-.1 6.8-.9 4.1-1.6 6.7-5.7 8.5-9.7 1.5-3.8 2.8-7.7 3.1-11.7z" clip-path="url(#d)"></path><path fill="#0b201b" d="M213 327.6c-.9.3-1.8.8-2.6 1.3-9.5 6-13.1 17.1-5.3 23.5 2.6-1.2 5.5-2.9 7.5-5.1 3.9-4.5 5.4-12.7.4-19.7z" clip-path="url(#d)"></path><path fill="#0b201b" d="M-40.6 270.1c12.7-16.4 33.2-26.4 53.9-26.5 6.2 0 12.5.8 18.3 3.2 31.7 13.3 31.1 64.6 62.1 79.5 15.5 7.5 33.7 3.1 50.8.5 17-2.6 37.1-2.1 47.9 11.3 10.1 12.5 9.7 33.9 24.5 40.2 4.7 2 9.9 1.9 14.9 2.4 27.9 2.8 51.7 28.2 52.6 56.2h-325V270.1z" clip-path="url(#d)"></path><path fill="#0c2f00" d="M148.4 332.6c3.9-1.2 8.2-.8 12.2 0 3 .6 5.9 1.4 8.9 1.9-7.3 3.7-14.6 7.3-21.9 10.9-1.3.6-2.6 1.2-3.9 1.9-.9-1-1.6-2.2-2.1-3.4-.4-1.2-.7-2.5-.5-3.7.4-3.7 3.7-6.5 7.3-7.6z" clip-path="url(#d)"></path><path fill="#0c2f00" d="M156.7 267.8h5.7v28.1h-5.7z" clip-path="url(#d)"></path><g clip-path="url(#d)"><path fill="#82ab0a" d="M161.9 144.2c-6.9-4.4-19.5 1.9-18.7 20.2.2 5.6 1.7 11.1 2.5 16.7 1.5 10.4.7 21.2-2.4 31.3-2 6.7-5 13.1-7 19.8-3.1 10.4-3.7 22.1 1.5 31.6 6.4 11.5 21.6 17.3 34 13 3.3-1.1 6.5-3 8.4-6 1.2-1.9 1.8-4.2 2.2-6.4 1.5-7.6 1.4-15.5-.3-23.1-1.4-6.2-3.8-12.2-5.6-18.4-7.2-25.3-3-55.6-7.2-68.5-1.3-4.1-3.7-7.9-7.4-10.2"></path><path fill="#263907" d="M169.7 232.1c-3.2-7.5-7-15-8.8-22.8-2.2-9.6-1.5-19.5-.1-29.3 1.2-8.3 2.7-17.3-2.2-24.6-.8-1.2-2-2.5-3.7-2.6-2.5-.2-4.2 2-5 4-4.2 10-2 20.9-.9 31.4 1.9 17 .9 34.4-5.4 50.6-2.8 7.2-6.7 14.4-5.8 21.9.2 2 .8 3.9 1.7 5.8 5.6 7.6 15.3 12 24.7 11.6 2.3-1 4.3-2.5 5.8-4.2 2.4-2.8 3.8-6.1 4.6-9.5 2.6-10.7-.6-21.9-4.9-32.3z"></path></g><g clip-path="url(#d)"><path fill="#2d480c" d="M67.8 103.8c6-9.4 14.6-19.2 23.8-25.6 18.6-12.9 21.4 3.4 31 6.4 3.9 1.2 8.2 0 11.9-1.8 19.8-9.9 28.6-35.3 49.4-43.5 10.3-4.1 23.9-2 29.6 7.5 3.1 5.1 3.4 11.4 4.9 17.2s5.1 11.9 11 12.9c6.4 1.1 12.8-4.4 20.9-4.8 3.8-.2 8 1.1 10.3 4.2 3.3 4.5 2.5 12 7.4 14.6 2.7 1.4 5.9.7 8.9.4 10.5-1.1 21.4 3.7 27.6 12.3H67.8"></path><path fill="#263907" d="M-37.7 74.6c7.1 16 19.3 30.1 35.4 37 16 6.9 35.9 5.7 49.6-5.2 8.3-6.6 13.8-15.9 20.7-23.9s16.4-15.1 27-14.4c6.9.5 13.1 4.3 19.6 6.8 16.9 6.6 37 4.2 51.9-6 7.4-5.1 14.4-12.3 23.4-12.8 4.1-.2 8.1 1 12.1 1.8 26.6 5.1 60.4-7.8 84.8-50.6 5.5-9.7 10.1-19.9 13.6-30.5h-339l.9 97.8z"></path><path fill="#263907" d="M288 41.3c-.4-.4-.8-.9-1.2-1.3-3.3-3.2-7.7-5.8-12.3-5-4 .7-7.1 3.8-8.9 7.4l2.1 2.1c1.2 1.1 2.5 2.2 4.1 2.7 3 1.1 6.2.1 9.1-1.2 2.6-1.2 5.1-2.7 7.1-4.7z"></path><path fill="#2d480c" d="M49.3 16.9c0-.8-.1-1.6-.2-2.5-.9-6.3-3.5-13-9.1-16.1-4.9-2.7-11-2-16.1.4.1 1.4.3 2.8.5 4.1.4 2.2.9 4.5 2.1 6.5 2.3 3.7 6.8 5.5 11 6.5 3.8 1.1 7.9 1.6 11.8 1.1z"></path><path fill="#263907" d="M215.4 66.3c-3.9.1-7.8-.2-11.7-.7.9 1.3 1.8 2.5 2.9 3.6 2.7 2.9 6.2 5.4 10.2 5.8 1.9.2 3.8-.1 5.6-.7 5.3-1.7 9.5-6.2 11-11.5-5.7 2.4-11.8 3.4-18 3.5z"></path><g fill="#0b201b"><path d="M-11.6 71.8c26-22.1 57.2-38 90.4-46.2 13.5-3.3 27.5-5.3 41.2-3.3s27.2 8.6 35.3 19.9c7 9.7 9.5 21.8 13.7 33s11.1 22.6 22.5 26.3c12.9 4.2 30.9-2.6 44.8-7.1 7.2-2.3 14.7-4.5 22.1-3.1 7.6 1.4 14.2 6.5 19 12.6s8 13.3 11.1 20.4H-11.6V71.8z"></path><path d="M83.4 177.4l-94.9 61.4v16.1l101.8-72 20.4-76.7-4.7.2z"></path><path d="M36.5 209.5l25-44.5L49 123h3.2l14.5 42-22.3 42.2z"></path><path d="M91.3 170.5l60.9-21.9 36-30-2.6-.7-36.1 26.3-58.2 18.9z"></path><path d="M184.3 155.5c-.4-1-.9-1.9-1.4-2.8-6.4-10.1-17.9-12.4-24.2-2.3 1.3 2.8 3.1 6 5.5 7.9 4.7 3.8 13.1 4.1 20.1-2.8z"></path><path d="M38 155.2c-3.3-2.5-5.4-6.1-7.2-9.9-1.3-2.8-2.4-5.6-3.7-8.3 7.3 3.7 14.5 7.4 21.7 11.3 1.3.7 2.5 1.4 3.8 2-.3 1.3-.8 2.6-1.5 3.7s-1.6 2-2.7 2.6c-3.2 1.9-7.4.9-10.4-1.4z"></path></g><path fill="#263907" d="M83.2 65.9c4.1-.4 7.8-2.4 11.2-4.7 2.5-1.7 4.9-3.6 7.5-5.2-8.1-.6-16.3-1.1-24.4-1.5-1.4-.1-2.9-.1-4.3-.3-.4 1.3-.7 2.6-.6 4 .1 1.3.3 2.5 1 3.6 1.7 3.2 5.9 4.5 9.6 4.1z"></path><path fill="#0b201b" d="M177.9 13.9c-.6-.1-1.2-.1-1.7-.1-4.5 0-9.5 1.1-12.2 4.8-2.4 3.2-2.5 7.5-1.3 11.4 1 .1 2 .1 2.9.1 1.6 0 3.3-.2 4.7-.8 2.8-1.3 4.5-4.2 5.7-7.1 1-2.6 1.8-5.5 1.9-8.3z"></path></g><g clip-path="url(#d)"><path fill="#2d480c" d="M1079.8-4.5c-12.1 18.7-29.2 38.4-47.5 51.1-37.1 25.8-42.7-6.9-61.8-12.9-7.8-2.4-16.4 0-23.7 3.7-39.6 19.7-57.1 70.4-98.7 86.8-20.6 8.1-47.7 3.9-59.1-15-6.2-10.3-6.8-22.8-9.8-34.4-3-11.6-10.2-23.8-22.1-25.8-12.9-2.1-25.5 8.9-41.8 9.5-7.7.3-15.9-2.3-20.5-8.5-6.6-9-4.9-24-14.8-29.3-5.3-2.8-11.7-1.4-17.7-.7-20.9 2.3-42.8-7.5-55.1-24.6l472.6.1"></path><path fill="#263907" d="M1009.7 88.4c-20.3 2.2-41.4-7.2-53.4-23.8-7.4-10.2-11.6-23-21.2-31.1-14.6-12.3-37-9.5-54.1-1.1-12.9 6.4-26.5 15.8-40.4 12-14.3-3.9-21.9-20.1-35.5-25.8-13.5-5.6-28.8.4-41.7 7.1-5.4 2.8-10.8 5.7-16.7 6.9-11.5 2.3-23.6-2.4-32.7-9.9S698.2 5.4 691.7-4.4h317.7l.3 92.8z"></path><path fill="#0b201b" d="M1114.7 109.3c-8.7-1.6-16.1-3.9-21.1-9.5-8.9-10-2.9-25.3-27.8-30.5-12.3-2.6-23.8-.4-36 1.1-10.3 1.3-17.6 1.9-22.2-6-4-6.7-3.2-14.5-3.2-21.8 0-7.4-1.2-15.4-8-20.7-9.4-7.4-25.6-6.1-37.7-1.6-18.2 6.7-31.9 19.1-42 32.5-5.1 6.8-10.4 14.5-20.1 16.9-3.6.9-7.4.9-11.2 1.2-12.8 1.2-24.5 6.6-33.6 13.6s-15.6 15.8-21.1 24.7h284"></path><path fill="#0b201b" d="M920.5 105.9l28.1 55.9 84.3 57.5 2.2-8.8-83.6-51.4-29-59.6z"></path><path fill="#0b201b" d="M864.1 105.8l25.7 31.1 51.4 7.2-1.1-5.9-48.2-4.3-26.8-30.3z"></path><path fill="#263907" d="M887 55.4c-1.3.5-2.6 1.1-3.8 1.8.1.2.1.4.2.6 1.2 3.1 3.3 5.8 6.1 7.6 2.8 1.7 6.4 2.3 9.5 1.2 1.1-.4 2-.9 3-1.5.3-.2.5-.3.8-.5l-1.2-2.1c-1.7-3-4-6-7.2-7.2-2.5-.9-5.1-.7-7.4.1z"></path><path fill="#263907" d="M948.4 117.3c-.2 1-.3 2.1-.4 3.1.2 0 .3.1.5.1 2.4.4 5 .2 7.2-.9s4-3.1 4.5-5.5c.2-.8.2-1.7.2-2.5v-.7c-.6 0-1.2-.1-1.8-.1-2.6-.1-5.4.1-7.5 1.8-1.4 1.2-2.3 2.9-2.7 4.7z"></path><path fill="#263907" d="M981.9 85.6c-1.4.3-2.7.7-4 1.2 0 .2.1.4.1.6.8 3.2 2.4 6.2 5 8.3 2.5 2.1 6 3.2 9.2 2.5 1.1-.2 2.1-.6 3.2-1.1.3-.1.6-.3.8-.4-.3-.8-.6-1.5-.9-2.3-1.3-3.2-3.1-6.5-6.2-8.1-2.2-1.1-4.8-1.2-7.2-.7z"></path><path fill="#2d480c" d="M772.9 84.7c-.7-.1-1.5-.2-2.3-.2 0 .1 0 .2-.1.3-.2 1.8 0 3.6.9 5.2s2.4 2.8 4.1 3.1c.6.1 1.2.1 1.8.1.2 0 .3 0 .5-.1v-1.3c0-1.9-.3-3.9-1.5-5.3-.8-1-2.1-1.5-3.4-1.8z"></path><path fill="#2d480c" d="M677.1 28.5c-.7.2-1.4.5-2.1.9 0 .1.1.2.1.3.6 1.7 1.7 3.2 3.1 4.2 1.5 1 3.4 1.4 5.1.8.6-.2 1.1-.5 1.6-.8.1-.1.3-.2.4-.3l-.6-1.2c-.9-1.7-2-3.3-3.8-4-1.1-.4-2.5-.3-3.8.1z"></path><path fill="#263907" d="M734.3 48.9c.5 0 1 .1 1.5.1 3.8 0 8-1 10.2-4 2-2.7 2.1-6.3 1.1-9.6-.8 0-1.6-.1-2.5-.1-1.4 0-2.7.1-4 .7-2.4 1.1-3.8 3.5-4.8 5.9-.8 2.3-1.4 4.7-1.5 7z"></path><path fill="#0b201b" d="M912.1 114.4c-.3.4-.6.9-.8 1.4-2 3.7-3.3 8.2-1.5 12.1 1.5 3.3 5 5.4 8.7 6.1.5-.8.9-1.6 1.4-2.4.7-1.3 1.3-2.7 1.4-4.2.2-2.9-1.4-5.5-3.2-7.8-1.8-2-3.8-3.9-6-5.2z"></path><path fill="#0b201b" d="M843.5 32.9c-3.2-.8-6.3-1.9-9.3-3.2.4 1.2.9 2.4 1.5 3.6 1.5 3 3.8 5.7 6.9 7 1.5.6 3.1.8 4.7.7 4.6-.2 9.1-2.9 11.5-6.8-5.1.5-10.3 0-15.3-1.3z"></path><path fill="#0b201b" d="M870.9 139.4c-3.6.1-7.2-.2-10.8-.6.8 1.2 1.7 2.3 2.7 3.3 2.5 2.7 5.8 5 9.4 5.3 1.7.2 3.5-.1 5.2-.6 4.9-1.6 8.8-5.7 10.2-10.7-5.3 2.2-11 3.1-16.7 3.3z"></path><path fill="#2d480c" d="M616.2 14.1c2.1-.6 4.2-1 6.3-1.3-.6-.6-1.3-1.1-2-1.5-1.8-1.2-4-2-6.2-1.7-1 .2-2 .6-2.9 1.1-2.6 1.6-4.2 4.6-4.3 7.6 2.8-1.9 5.9-3.3 9.1-4.2z"></path><path fill="#263907" d="M940.1 36.8c2.3-2.1 5.4-3.3 8.5-4.1 2.3-.6 4.6-1 6.8-1.7-3.8 5-7.7 10-11.6 14.9-.7.9-1.4 1.7-2.1 2.6-1-.4-1.8-1-2.6-1.7-.7-.7-1.3-1.5-1.6-2.4-.9-2.6.5-5.7 2.6-7.6z"></path></g><path fill="none" stroke="#96bf48" stroke-miterlimit="10" stroke-width="13.138" d="M737.3 203.7l-27.4 218.4"></path><path fill="#b9ee00" d="M699.7 414.8c6.5-7.2 13-14.5 19.5-21.7 2-2.2 4-4.4 6.3-6.1 2.1-1.6 4.5-2.7 6.8-3.8 4.4-2.1 8.9-4.1 13.3-6.1 7.6-3.4 15.7-6.8 23.9-6 3.2.3 6.3 1.1 9.2 2.2 5.2 1.9 10.1 4.4 14.7 7.6 2.5 1.7 5 3.7 7.8 4.9 2 .9 4.2 1.4 6.3 2.2 3.5 1.5 6.6 4.2 8.5 7.6.2.4.4.8.3 1.3-.1.4-.4.6-.7.9-5.5 4.3-11.1 8.5-16.6 12.8-2.2 1.7-4.3 3.3-6.8 4.4-4.2 1.9-9 2-13.6 2.1-4.7.1-9.3.1-13.9-.6-3.6-.6-7.1-1.7-10.7-2.4-16.7-3.5-34 .5-51 2.6-1.6.2-4-.3-3.7-1.9"></path><path fill="#0c2f00" d="M807.8 387.9c-2.1-.9-4.3-1.4-6.3-2.2-2.8-1.2-5.3-3.2-7.8-4.9-4.6-3.1-9.5-5.7-14.7-7.6-3-1.1-6.1-2-9.2-2.2-8.3-.7-16.3 2.7-23.9 6-3.2 1.4-6.3 2.8-9.4 4.3 4.9-1.5 10-2.7 15.1-3.4 1.7-.2 3.9-.1 4.5 1.5.2.6.1 1.2.1 1.8-.5 4.2-1 8.4-1.6 12.6-.2 1.3-.3 2.7.3 3.9.5 1 1.5 1.6 2.5 2.1 3.6 1.7 7.7 1.6 11.6 1.9 3.9.3 8.2 1.2 10.7 4.2 1.9 2.2 2.6 5.3 4.7 7.3 1.7 1.6 3.9 2.3 6.3 2.5.6-.2 1.3-.4 1.9-.7 2.5-1.1 4.7-2.8 6.8-4.4 5.5-4.3 11.1-8.5 16.6-12.8.3-.2.6-.5.7-.9.1-.4-.1-.9-.3-1.3-2.1-3.5-5.1-6.1-8.6-7.7z"></path><path fill="#b9ee00" d="M725.7 422.5c-1.4-.9-1-3-.5-4.6.6-2.6.7-5.6-1.1-7.6-1.4-1.6-3.7-2.1-5.8-1.9-1.7.2-3.3.8-4.9 1.5-3.7 3.2-7.2 6.8-10.4 10.6-.4.4-.7.9-.9 1.5-.1.6.1 1.2.7 1.4v-.5c.1.3.2.5.3.8 7.4 2.2 15.2 2.4 22.9 2.6 1.5 0 3.1.1 4.5-.5.6-.2 1.2-.6 1.7-.9-1.4-1-3-1.6-4.6-1.9-.7-.1-1.4-.1-1.9-.5z"></path><path fill="#0c2f00" d="M740.8 417.6c.6-.6 1.3-1.2 1.5-2 .2-1.2-.8-2.1-1.7-2.9-3.2-2.8-6.5-5.6-10.3-7.6-2.7-1.4-5.9-2.4-8.7-1.3-.8.3-1.6.9-2.3 1.4-2 1.5-4 3-5.9 4.7 1.6-.7 3.2-1.3 4.9-1.5 2.1-.2 4.4.3 5.8 1.9 1.8 2 1.7 5 1.1 7.6-.4 1.6-.8 3.7.5 4.6.5.4 1.2.4 1.9.5 1.7.2 3.3.9 4.6 1.9.6-.4 1.3-1 1.8-1.5 2.3-1.9 4.5-3.8 6.8-5.8z"></path><path fill="#b9ee00" d="M942.2 368.1c-1.8.2-3.5.6-5 1.6-1.2.8-2.1 1.8-3 2.9-3.2 3.7-6.3 7.4-9.3 11.3-1.1 1.3-2.2 3-1.7 4.6.3.1.7.2 1 .4 1.3-1.5 3.3-2.5 5.3-2.9 2.7-.6 5.4-.5 8.1-.8 2.5-.3 4.9-1.1 7.2-2.2.6-.3 1.1-.6 1.5-1.1 1.2-1.7-.9-4.2 0-6.1.7-1.3 2.3-1.5 3.8-1.7 3.4-.4 6.7-1.4 9.8-2.9-2.7-1-5.5-1.6-8.4-2.1-3-.7-6.2-1.3-9.3-1z"></path><path fill="#42711c" d="M946.4 375.7c-1 1.9 1.2 4.4 0 6.1-.3.5-.9.8-1.5 1.1-2.3 1.1-4.7 1.8-7.2 2.2-2.7.4-5.5.2-8.1.8-2 .4-4 1.4-5.3 2.9l1.8.6 1.3-.3c4.2-.3 8.4-.5 12.6-.8 4-.2 8.1-.5 12.1.2 1.6.3 3.2.7 4.8.5 1.7-.2 3.3-1.1 4.8-1.9 1.8-1 3.6-2 5.5-3.1.6-.3 1.2-.7 1.6-1.3.3-.6.3-1.4.2-2-.6-3.7-3.4-6.8-6.7-8.5-.8-.4-1.6-.8-2.4-1.1-3.1 1.5-6.4 2.5-9.8 2.9-1.4.2-3 .4-3.7 1.7z"></path><path fill="#b9ee00" d="M839.6 129.4c9.9.3 19.6 2.9 28.4 7.4 10.8 5.7 12.8 10.8 13.4 21.5.8 14.2.9 28.4 1 42.7.1 11.4-.3 14.8-3.8 24-2.7 7.3-5.7 14.4-9 21.4-.7 1.5-1.5 2.2-3 1.2-2.1-1.4-3.2-3.9-4-6.2-5.5-14.9-7.3-31.1-5.1-46.8.7-5.2 1.8-10.6.4-15.6-2.3-8.2-10.7-13.2-15-20.6-4.9-8.3-4.3-19.3-3.3-29"></path><path fill="#0c2f00" d="M874.2 387.3l.1.3c0-.2 0-.4-.1-.3z"></path><path fill="#829413" d="M857.3 367.2c-1.9-6.7-7.1-12.7-6.9-19.7.2-7.5 6.6-14 5.9-21.5-.6-6.9-6.9-11.9-9.3-18.4-5.5-14.7 10-30.5 6.1-45.7-1.7-6.6-6.8-11.7-12.4-15.6v-7.9c-3.5 0-7.1-.1-10.6-.4v12c8.7 45.6 17.3 91.5 17.9 137.8 2.5 2.3 6 3.6 9.5 3.9 1.1-16.7 1.2-19.8-.2-24.5z"></path><path fill="#b9ee00" d="M840.8 423.7c3.1-1.1 6.5-1 9.8-1.4 4-.5 4.9-2.2 5.2-6.3.7-10.3 1.3-18.2 1.7-24.2-3.5-.3-6.9-1.6-9.5-3.9.1 6.4 0 12.8-.3 19.3-.1 2-.1 4.1.2 6.1-2.9 3.4-7.8.9-11.8 3.8-.9.9-1.8 1.9-2.4 3-1.7 3.2-.2 5.6 2.5 7.3 1.1-1.7 2.8-3 4.6-3.7z"></path><path fill="#0c2f00" d="M853.1 262c3.9 15.2-11.6 31-6.1 45.7 2.4 6.5 8.7 11.5 9.3 18.4.6 7.5-5.7 14-5.9 21.5-.2 7 4.9 12.9 6.9 19.7 1.4 4.7 1.3 7.8.2 24.5.8.1 1.6.1 2.3.1 3.4-.1 6.7-.9 9.9-2 .1-1.1.2-2.3.2-3.5.8-17.8-4-35.5-4.1-53.4-.1-30.6 13.6-60.9 8.2-91.1-.5-2.5-1-5-1.7-7.5-10.3 2.6-21 3.9-31.7 4v7.9c5.7 3.9 10.9 9.1 12.5 15.7z"></path><path fill="#42711c" d="M851.8 431.5c3.1 1.3 5.8 3.8 9.1 4 2.6.1 5.6-1.4 6.8-2.9 1-1.2 1.4-2.8 1.5-4.4.6-7.1-2.7-10.1-2.5-18.1.3-1.3.5-2.6.7-4 .9-5.4 1.8-10.8 2.3-16.3-3.2 1.1-6.5 2-9.9 2-.8 0-1.6 0-2.3-.1-.4 6.1-1 13.9-1.7 24.2-.3 4.1-1.2 5.8-5.2 6.3-3.3.4-6.7.3-9.8 1.4-1.8.7-3.5 2-4.5 3.6 1.8 1.1 4.2 1.8 6.6 2.2 3 .7 6.1.9 8.9 2.1z"></path><path fill="#e4ffc7" d="M822.6 111.4c-.2-4.1 3.1-7.4 5.1-11 .5-.9 1-2 1-3.1 0-1.7-1-3.3-1.7-4.9-1.5-3.5-1.1-7.7 1-10.9.7-1 1.5-2 2.5-2.7-1.9.2-3.7.5-5.5 1.1-1.3.4-2.6 1-3.7 1.9-1.7 1.4-2.7 3.4-3.4 5.5-1.9 5.2-2.2 10.9-2.9 18-.8 8.3 2.1 7.6 3.5 15.9.4 2.2.6 4.7 2.3 6 1.8 1.4 4.3 1 6.5 1.4-.3-3.4-.6-6.8-1.9-9.9-1.1-2.5-2.7-4.7-2.8-7.3z"></path><path fill="#c7f73d" d="M857.5 136.1c-2.1-2.6-4-5.4-5.7-8.3-1.1-1.9-2.1-3.8-2.6-6-.9-4.2.6-8.5 1.6-12.7.9-3.9 1.3-8 1.3-12 0-2.9-.3-5.9-1.3-8.6-1-2.8-2.7-5.3-5.1-7-2.3-1.6-5.1-2.2-7.8-2.6-2.5-.3-5-.4-7.5-.2-1 .8-1.8 1.7-2.5 2.7-2.1 3.2-2.5 7.4-1 10.9.7 1.6 1.7 3.2 1.7 4.9 0 1.1-.5 2.1-1 3.1-2 3.6-5.3 6.9-5.1 11 .1 2.6 1.7 4.8 2.7 7.2 1.3 3.1 1.7 6.5 1.9 9.9.3 0 .6.1.9.2l29.5 7.5z"></path><path fill="#96bf48" d="M823 113.4c-1.5 1.8-2.9 3.7-4.4 5.5-.3.4-.6.7-.8 1.2-.3.7-.2 1.5-.1 2.2.3 2.4.7 4.8 1.2 7.2.1.7.3 1.5.6 2.1.1.2.2.4.4.5.2.1.4.2.6.2 1.7.1 3.4 0 5.1-.3.3-.1.6-.1.8-.3.4-.3.5-.7.6-1.2.1-.4.2-.8.2-1.2-.3-3.7-.6-7.3-2-10.7-.6-1.8-1.7-3.4-2.2-5.2z"></path><path fill="#0c2f00" d="M827.5 125.4c-.1-1.6-.3-3.2-.1-4.9.2-1.6.7-3.2 1.3-4.8.9-2.2 2-4.3 3.2-6.4l-5.7-.2c-1.1 1.4-2.2 2.8-3.2 4.1.5 1.8 1.6 3.5 2.3 5.2 1.4 3.4 1.7 7 2 10.7.2-1.1.2-2.4.2-3.7z"></path><path fill="#42711c" d="M850.4 112.2c.8-.4 1-.6 1.2-1.2 2.8-7.3 2.9-15.7.3-23.1-.9-2.6-1.8-4.2-4.7-6.1-4.1-2.8-9.1-4.1-14.1-4-.5 0-.9 0-1.4.1-1.5.9-2.8 2.1-3.7 3.6-2.1 3.2-2.5 7.4-1 10.9.7 1.6 1.7 3.2 1.7 4.9 0 1.1-.5 2.1-1 3.1-1.5 2.7-3.8 5.3-4.7 8.2 7.6 6.5 18.3 7.9 27.4 3.6z"></path><path fill="#b9ee00" d="M828.7 97.4c0-1.7-1-3.3-1.7-4.9-1.5-3.5-1.1-7.7 1-10.9.9-1.5 2.2-2.7 3.7-3.6-2 .1-4.1.3-6.1.9-4.1 1.3-7.7 4.5-9.3 8.5-.8 2-1.2 4.1-1.5 6.2-.2 1.3 0 2.7.4 4 1.8 4.6 4.5 8.3 7.8 11.1.9-2.9 3.2-5.4 4.7-8.2.5-1 .9-2.1 1-3.1z"></path><path fill="#42711c" d="M860.5 136.4c2.5-4.4 3.9-9.4 3.8-14.5-.2-23.7-35.8-1.4-49.2 12.4l45.4 2.1z"></path><path fill="#b9ee00" d="M813 204.5c.7-8.4 5.2-16.2 5.7-24.6.5-7.1-1.9-14-3.7-21l-9.4.4c.3 14.1.7 28.2 1 42.3.1 5.6.3 11.3-.8 16.7-1 4.9-2.9 9.6-5 14.1 5.4 1.7 10.8 3 16.4 4 .2-10.4-5.1-21.2-4.2-31.9z"></path><path fill="#e4ffc7" d="M751.3 401.5h.2c-.2-.2-.3-.3-.2 0z"></path><path fill="#e4ffc7" d="M752.1 401.6v-.1h-.7c.3.2.6.5.7.1z"></path><path fill="#42711c" d="M846.9 238.3v-3.1c-.3-5.6-1.7-11-2.6-16.5-3.5-20.2-.6-40.8 2.2-61.1l-31.5 1.3c1.8 7 4.2 13.8 3.7 21-.5 8.4-5 16.2-5.7 24.6-.9 10.7 4.4 21.6 4.1 32 9.9 1.7 19.9 2.3 29.8 1.8z"></path><path fill="#e4ffc7" d="M762.2 344.5l.6-.3c.1-.1.1-.2.2-.2-.2.1-.5.3-.8.5z"></path><path fill="#0c2f00" d="M827.6 213.3l-2.5-9.2c-1.7 1-11.8 6.5-18.7 9.9-.1 1.5-.3 2.9-.6 4.3-.3 1.5-.7 3-1.1 4.5 7.7-2.9 15.4-6.1 22.9-9.5z"></path><path fill="#b9ee00" d="M872.4 234.4c-2.3-8.8-5.3-17.4-5.8-26.4-.3-6.5.6-13 1.6-19.4 1.5-9.7 2.9-19.3 4.4-29l-42.5-1.6v80c14.2 1.1 28.5-.1 42.3-3.6z"></path><path fill="#0c2f00" d="M871.8 149.2c-.2-5.1-2.5-10.1-6.3-13.6l-.1-.1c-2.4-1.1-4.9-2.1-7.5-3 .6.3 1.1.8 1.6 1.2 3.8 3.5 6.1 8.5 6.3 13.6l6 1.9z"></path><path fill="#e4ffc7" d="M752.1 401.6v-.1h-.7c.3.2.6.5.7.1z"></path><path fill="#e4ffc7" d="M751.3 401.5h.2c-.2-.2-.3-.3-.2 0z"></path><path fill="#42711c" d="M828.4 164.3c4.7-.6 10-1.4 14.8-.8 3.8.4 6.9.3 9.8-2.8 4.8-5.1 5.9-16.8.8-24.3-6.7-10-21.2-6.8-31.3-5.1-1.2.2-2.4.4-3.5.7-5 4.6-6.6 13.2-5.5 20.3.9 5.7 2.9 11.4 4.1 17 3.5-3.6 6.1-4.4 10.8-5z"></path><path fill="#0c2f00" d="M838.7 137.3c-1.8-4.1-6.4-7-12.6-6.7l-3.6.6c-1.1.2-2.1.4-3 .6 6.5-.6 11.4 2.4 13.2 6.6.5 1.2.8 2.6 1.1 3.9l5.9-1.2c-.2-1.2-.5-2.5-1-3.8z"></path><path fill="#829413" d="M778.6 343.6c-1.9-8.1-4.5-18.9-7.9-33.2-1-4.1-1.9-8.7.3-12.3 2.8-4.7 9.3-5.7 12.6-10 2.2-2.9 2.5-6.9 3.7-10.4 4.8-14.1 23.5-19.7 28.5-33.7.9-2.5 1.2-5 1.3-7.5-5.5-1-11-2.3-16.4-4-.8 1.7-1.7 3.3-2.5 5-31.1 60.4-38.4 56.3-33.1 76.5 3.2 12 5.6 21.4 7.5 28.7 2 .7 4 1 6 .9z"></path><path fill="#e4ffc7" d="M752.1 401.6v-.1h-.7c.3.2.6.5.7.1z"></path><path fill="#e4ffc7" d="M751.3 401.5h.2c-.2-.2-.3-.3-.2 0z"></path><path fill="#0c2f00" d="M787.4 277.7c-1.2 3.5-1.5 7.4-3.7 10.4-3.3 4.3-9.9 5.4-12.6 10-2.1 3.6-1.2 8.2-.3 12.3 3.4 14.4 5.9 25.1 7.9 33.2 2.6-.1 5.3-.6 7.8-1.3 2.1-.6 4.1-1.3 6.1-2-.8-9.7-1.5-19.3-2.3-29-.3-4.2.1-5.4 3.1-8.2 10.2-9.7 20.4-19.4 31.2-28.3 4.4-3.6 9-7.2 12.7-11.6 5.8-6.9 9.2-15.8 9.5-24.9-9.9.5-20-.1-29.8-1.8-.1 2.5-.4 5.1-1.3 7.5-4.8 14-23.5 19.6-28.3 33.7z"></path><path fill="#b9ee00" d="M779 374.2c1.5-.7 3-1.6 3.8-3 1.6-2.7 1.5-3.7-4.2-27.5-2.1 0-4.1-.2-5.9-1 1.4 5.3 2.5 9.6 3.4 13.1.1.4.1.8.2 1.2 1.5 6.3 2.1 8.7-4.1 12.1-8.6 4.7-12.8 5.1-15.1 6.8-2.1 1.6-2.4 4-.7 5.7 1.4-1.3 2.9-2.4 4.7-3.1 5.7-2.5 12.3-1.8 17.9-4.3z"></path><path fill="#42711c" d="M759 383c2.3.8 4.8.9 7.2.9 10.1 0 14.1-1.5 17.5-1 2.7.4 3.7 1.4 7.9.6 4.6-.8 5.5-3 4.9-7.6 0-1.8-1.6-9.7-1.9-11.2l-.3-1.5c.1-.9.1-1.7 0-2.5-.5-6.8-1.1-13.7-1.6-20.5-2 .8-4.1 1.4-6.1 2-2.5.7-5.2 1.3-7.8 1.3 5.7 23.9 5.8 24.8 4.2 27.5-.9 1.4-2.3 2.4-3.8 3-5.6 2.5-12.2 1.8-17.8 4.2-1.7.8-3.3 1.8-4.7 3.1.4.8 1.3 1.3 2.3 1.7z"></path><path fill="#96bf48" d="M837.3 239.2c.9-10.2 1.8-20.4 2.6-30.6 1.5-17.6-.7-17.4-1.3-26-.8-11.1 4.8-25-3-34.6-3.4-4.7-9-5.8-9.9-7.5-.6.7-1.2 1.4-1.6 2.3-.5 6.1-.7 12.2-.4 18.3.2 4 .5 8 .5 12 0 3.9-.3 7.7-.6 11.6-1.1 15.8-1.7 31.7-1.8 47.5 0 1.8 0 3.7.8 5.3.8 1.6 2.4 2.7 3.9 3.7 1.7 1.2 3.5 2.4 5.2 3.6.8.5 1.6 1.1 2.5 1.4 1.3-.7 2.7-2.3 3.1-7z"></path><path fill="#829413" d="M837.8 246.6c10.5-.2 21.1-.5 31.2-3.6 1.5-.5 3.1-1 4.3-2 2.7-2.2 3.4-5.9 3.9-9.3.4-3.5.8-7 .9-10.6.2-4.2.2-8.4.2-12.6 0-16.4 0-32.7.1-49.1 0-4.2-.1-8.6-2.3-12.1-1.2-1.9-3-3.4-4.8-4.9-1.8-1.4-3.5-2.8-5.6-3.9-3.4-1.7-7.2-2.2-10.9-2.5-6.1-.6-12.3-.9-18.4 0-4 .5-8 1.7-10.7 4.4 1 1.7 6.5 2.8 9.9 7.5 7.8 9.6 2.2 23.5 3 34.6.7 8.6 2.8 8.4 1.3 26-.9 10.2-1.7 20.4-2.6 30.6-.4 4.7-1.8 6.3-3.2 7.1.1 0 .1.1.2.1 1.1.4 2.3.4 3.5.3z"></path><path fill="#96bf48" d="M840.3 73.1c-4 1.3-6.6 4.3-6.4 8.6.2 3.9 4 7 8.1 7 5 .1 9-4 8.7-9.3-.3-3.7-2.6-6.3-6.5-6.7-1.4-.1-2.7 0-3.9.4z"></path><path fill="#42711c" d="M833.2 142.8c2.4 2 3.9 4.8 5.4 7.5 7.3 13.6 7.2 15 13.1 16.6 6.1 1.6 18.2 2.2 22.2 1 2.2-.7 4.2-2.1 5-4.2.5-1.3.5-2.7.5-4.1-.1-7.6-1.4-13-7-17.4-5.6-4.5-11.2-6-17.4-6.6-5.1-.5-10.3-.8-15.4-.1-2.5.3-5 .9-7.4 1.7-1.3.4-2.6.9-3.9 1.4-1.1.4-2.6.8-3.4 1.7-.1.2-.5.8-.2 1 .2.1.9-.3 1.1-.4.8-.2 1.7-.3 2.6-.2 1.7.1 3.4.9 4.8 2.1z"></path><path fill="#0c2f00" d="M853.5 163.5c.2 2.9.4 5.9.5 8.7 1 .5 2.8.2 2.9 0 .3-.3-.4-8.4-.6-8.5 0-.1.2 0-2.8-.2"></path><path fill="#0c2f00" d="M872.3 163.1c.2 2.9.4 5.9.5 8.7 1 .5 2.8.2 2.9 0 .3-.3-.4-8.4-.6-8.5.1-.1.2 0-2.8-.2"></path><path fill="#c7f73d" d="M746.4 212.6c-2.1-.9-3.3-3-5.1-4.3-2-1.4-4.8-1.7-7.1-.8-1.7.7-3 2-3.8 3.6.5.8 1.1 1.4 1.8 1.9 2.6 1.8 2.3-2.6 4.2-3.5 2.2-1 3.4 1.8 8.3 6.6.8.7 1.1 1 2.3 1 2 .1 4-.3 5.8-1.2l.6-.3c-.3-1.3-.6-2.5-.8-3.8-2 1.1-4.2 1.6-6.2.8z"></path><path fill="#e4ffc7" d="M734.2 207.6c2.3-1 5.1-.7 7.1.8 1.8 1.3 3 3.4 5.1 4.3 2 .8 4.2.3 6.2-.6-.4-2.5-.6-5.1-.4-7.7v-.1c-1 .3-2 .4-2.9 0-1.6-.8-1.9-2.4-6.8-8.5-.7-.9-1.2-1.2-2.4-1.2-2.6.2-6 2.4-7.4 4.1-1.6 1.9-3.1 6.6-3.3 8.2-.1 1.5.3 3.1 1.1 4.4.7-1.7 2-3 3.7-3.7z"></path><path fill="#42711c" d="M808.8 158.1c-2.3 4.4-3.4 9.3-4.9 14.1-1.5 4.8-3.3 9.5-5.1 14.1-1.1 2.7-2.2 5.5-4.2 7.7-2.7 3-6.8 4.3-10.7 5.1s-8 1-11.9 2.1c-6.5 2-11.9 6.6-17.8 9.9-.5.3-1.1.6-1.6.8.2 1.3.5 2.6.8 3.8 1.9-.9 3.8-1.7 5.8-2.3.1 0 .2-.1.3-.1 35.5-11.3 35.3-9.9 40.3-17.8 9.4-14.7 14-22.2 17.8-26.3-1.2-5.7-3.2-11.3-4.1-17 0-.2-.1-.4-.1-.6-1.8 2-3.4 4.2-4.6 6.5z"></path><path fill="#b9ee00" d="M819.1 132c-10.8 2.5-13.5 6.9-16.4 13.3-7.8 17.2-13.8 38-15.9 40.4-2.2 2.5-29.1 14.6-33.2 17.8-.4.2-.9.5-1.4.6v.1c-.1 2.6 0 5.2.4 7.7.6-.3 1.1-.5 1.6-.8 5.9-3.3 11.3-7.9 17.8-9.9 3.8-1.2 7.9-1.4 11.9-2.1s8-2.1 10.7-5.1c2-2.2 3.1-5 4.2-7.7 1.8-4.7 3.6-9.3 5.1-14.1 1.4-4.8 2.6-9.7 4.9-14.1 1.3-2.4 2.9-4.5 4.7-6.4-.9-7 .8-15.2 5.6-19.7z"></path><path fill="#e4ffc7" d="M855.1 192.2c0 2.5-2 5-4.4 5.6-2.5.6-4.4-1-4.4-3.6 0-2.5 2-5 4.4-5.6s4.4 1 4.4 3.6z"></path><path fill="#e4ffc7" d="M870.7 204.6l-10.2-1.2c-.5-.1-.9-.5-.9-1v-3.8c0-.5.4-.8.9-.8l10.2 1.2c.5.1.9.5.9 1v3.8c-.1.5-.4.9-.9.8z"></path><path fill="#96bf48" d="M846.3 213c0 7.5-.4 15.5-1.3 23 0 .4-.1.9.1 1.2.2.3.5.4.8.5.4.1.7.3 1.1.4.2.1.4.1.6.1.4-.1.5-.6.6-1 1.1-7.1 1.5-14.4 1.4-21.6 0-.8-.1-1.7-.8-2.1-.8-.4-1.8 0-2.5-.5"></path><path fill="#42711c" d="M846.3 212.8c8.2.5 17-.4 25.2.6.3 0 .5.1.7.2.5.3.6 1.1.6 1.7 0 1.9-.7 4.1-2.5 4.9-.7.3-1.5.4-2.3.4-4.4.3-8.9.3-13.3.2-1.1 0-2.4-.1-3.2-.9-1.1-1-.9-2.8-1.5-4.1-.6-1.4-2.2-2.6-3.8-2.6v-.4z"></path><path fill="#21e700" d="M-2924-208.2h178.2V-30H-2924z"></path></svg>