<?xml version="1.0" encoding="utf-8"?>
<!-- Generator: Adobe Illustrator 19.0.0, SVG Export Plug-In . SVG Version: 6.00 Build 0)  -->
<svg version="1.1" id="Layer_1" xmlns="http://www.w3.org/2000/svg" xmlns:xlink="http://www.w3.org/1999/xlink" x="0px" y="0px"
	 viewBox="0 0 1303.8 452.97" style="enable-background:new 0 0 1303.8 452.97;" xml:space="preserve">
<style type="text/css">
	.st0{fill:#549CEA;}
	.st1{opacity:0.5;fill:#0C76C3;enable-background:new    ;}
	.st2{fill:#1BBFB3;}
	.st3{opacity:0.4;fill:#003868;enable-background:new    ;}
	.st4{opacity:0.6;fill:#002C55;enable-background:new    ;}
	.st5{fill:#0C76C3;}
	.st6{fill:#188BD1;}
	.st7{opacity:0.3;fill:#003868;enable-background:new    ;}
	.st8{fill:#003868;}
	.st9{opacity:0.5;fill:#549CEA;enable-background:new    ;}
	.st10{fill:#0071BF;}
	.st11{fill:#29CEC2;}
	.st12{fill:#F8F8F5;}
	.st13{fill:#054C90;}
	.st14{fill:#D43129;}
	.st15{opacity:0.5;fill:#F8F8F5;enable-background:new    ;}
	.st16{fill:#F9CFCF;}
	.st17{opacity:0.7;fill:#003868;enable-background:new    ;}
	.st18{opacity:0.5;fill:#003868;enable-background:new    ;}
	.st19{opacity:0.6;fill:#003868;enable-background:new    ;}
	.st20{opacity:0.6;fill:#001C36;enable-background:new    ;}
	.st21{opacity:0.8;fill:#001C36;enable-background:new    ;}
	.st22{fill:#88C4F2;}
	.st23{fill:#21BFB7;}
	.st24{opacity:0.5;fill:#001C36;enable-background:new    ;}
	.st25{opacity:0.4;fill:#F8F8F5;enable-background:new    ;}
	.st26{fill:#014272;}
	.st27{fill:#002C55;}
	.st28{opacity:0.3;fill:#002C55;enable-background:new    ;}
	.st29{opacity:0.4;fill:#002C55;enable-background:new    ;}
	.st30{opacity:0.5;fill:#D43129;enable-background:new    ;}
	.st31{fill:#001C36;}
	.st32{opacity:0.5;fill:#002C55;enable-background:new    ;}
	.st33{fill:#99D7FF;}
	.st34{fill:#FFFFFF;}
	.st35{fill:#0096FF;}
	.st36{opacity:0.3;fill:#549CEA;enable-background:new    ;}
	.st37{opacity:0.4;fill:#549CEA;enable-background:new    ;}
	.st38{fill:#2B7FE2;}
	.st39{opacity:0.5;fill:#0071BF;enable-background:new    ;}
	.st40{fill:#71CCF4;}
	.st41{opacity:0.4;fill:#001C36;enable-background:new    ;}
	.st42{opacity:0.2;fill:#001C36;enable-background:new    ;}
	.st43{fill:#6CC3FF;}
	.st44{opacity:0.3;fill:#001C36;enable-background:new    ;}
	.st45{fill:none;}
	.st46{fill:none;stroke:#001C36;stroke-width:0.914;stroke-miterlimit:10;}
	.st47{fill:none;stroke:#001C36;stroke-width:0.914;stroke-linecap:round;stroke-miterlimit:10;}
	.st48{opacity:0.5;}
	.st49{opacity:0.6;fill:#F8F8F5;enable-background:new    ;}
	.st50{opacity:0.5;fill:none;stroke:#0071BF;stroke-width:0.914;stroke-miterlimit:10;enable-background:new    ;}
	.st51{opacity:0.6;fill:#D3EDFF;enable-background:new    ;}
	.st52{opacity:0.8;fill:#F8F8F5;enable-background:new    ;}
	.st53{opacity:0.3;fill:#F8F8F5;enable-background:new    ;}
	.st54{opacity:0.4;}
	.st55{opacity:0.3;}
	.st56{fill:none;stroke:#002C55;stroke-width:1.583;stroke-miterlimit:10;}
	.st57{fill:#18A093;}
	.st58{opacity:0.6;}
	.st59{fill:none;stroke:#003868;stroke-width:1.827;stroke-miterlimit:10;}
	.st60{fill:none;stroke:#002C55;stroke-width:2.284;stroke-linecap:round;stroke-linejoin:bevel;stroke-miterlimit:10;}
	.st61{opacity:0.2;fill:#003868;enable-background:new    ;}
	.st62{opacity:0.4;fill:#D3EDFF;enable-background:new    ;}
	.st63{opacity:0.4;fill:#FFFFFF;enable-background:new    ;}
</style>
<path class="st0" d="M1000,0H0v268.7c16.6,35,56,53.6,93.7,55.7c75.6,4.2,147.6-45.6,223.1-32.9C395,304.6,453.5,378.6,553,411.6
	c52.9,17.5,119.7,14.5,177.4,0.2c69.7-17.3,127.2-48.6,269.5-111.8L1000,0z"/>
<path class="st1" d="M924,188.9c0,0,13.7-22.6,22.6-16.4c8.9,6.2,25.4,17.8,31.5,4.1c6.2-13.7,21.8-10.3,21.8-10.3v46.6l-79.4-15.1
	L924,188.9L924,188.9z M0,209.6l119.5-37.2c-7.7-13.1-26.2-5.9-33.8-2.4s-6.7-10.8-15.5-16.1s-17.8,11.7-17.8,11.7
	s-8.7,17.7-22.7-13.8C22.5,136,0,150.2,0,150.2V209.6z"/>
<path class="st2" d="M0.1,273.1c14,25.4,39.6,39,47.5,43.3l8.9,4c87.8,22.5,121.3-19.2,217.1-27.2c124-10.3,167.3,113,330.7,130
	c151,15.7,381.2-113.5,395.7-121.4V200.7L0,205.4L0.1,273.1L0.1,273.1z"/>
<path class="st1" d="M714.6,220.3c0,0,8.7-13.4,13.4-7.6l4.6,5.8c0,0,1.7-5.8,7-2.3l5.2,3.5L714.6,220.3z"/>
<path class="st2" d="M0,204c0,0,140.6-49,223-36.4s134.5,24.8,195.2,24.8S685,137.6,794.5,160s205.4,42.5,205.4,42.5L0,210.3V204z"
	/>
<g>
	<path class="st3" d="M416.6,254.6C416.5,254.7,416.6,254.7,416.6,254.6z"/>
	<path class="st3" d="M867.1,365.9c-3-2.1-7.1-7.8-13.7-11.3c-19.6-10.4-32-30.7-32-52.9c0-18.1-2.8-35.7-25-41.6
		c-45.9-12.3-194.6-15.8-194.6-15.8l0.2,0.2c-21.8-1-50.6-2.4-61.3-3.2c-12.7-1.1-40.1-7.6-51.1-4.7c-5.1,1.4-14.3,8-19.4,6.6
		c-12.8-3.4-32.1-7.4-44.3-6.9c0,0-0.3,0-0.8,0.1c-12.2-0.2-26,2-29.6,4.7c-4.5-1-10.8-1-15.8-0.7c-12.1,0.7-15.8,2.5-15.8,2.5
		l-3.4,1.4c-29.2,6.5-46.2,6.7-50.6,9.8c-4.4,3-8.9,38.4-8.9,38.4l22.4,3.9c-1.4-19.9,33.8-34.5,40.5-35.1c6.5-0.5,8.1-5.6,14.6-5.6
		c5.4,0,4.5-0.2,5.5-0.7c4.2,0.8,13,0.2,13,0.2l19.5-0.7l-0.4-0.8c1.4-0.1,19.5-1.3,45.2,8.5c-3,1.9-2.6,9.5-2.6,11.8
		c0,8.1,21.2,16.2,38.4,14.4c25.4-2.7,32.9-7.7,32.9-15.8c0-1.9,8.7-8,15.5-8.2c15-2.2,42.6-2.9,51.6,2.5c56.8,12.6,68,5.9,63.2-3.3
		c28.5,3.6,79.8,2.2,108.8,12.2c16.9,5.8,25.8,30.3,29.3,46.4c1.2,5.5-3.6,10.4-9.2,9.4c-33-6.4-46.6-1.3-41.3,15.6
		c2.9,9.4,23.7,12.4,27.4,27.4c6.2,24.7-52.8,10.9-52.8,10.9l-0.2-0.4c-47.1-16.9-82.5-32.9-149.2-31.1
		c-84.6,2.2-163.3-18.7-198-37.4l72,47.1c0,0,7.9,3.1,24,6.7c16.7,3.8,33.9,5.4,51,5c9.8-0.3,22.3,0.2,33.2,3.4
		c33.6,9.6,22.2,28.5,52.3,30.7c11.7,0.8,23-3.7,31.4-11.9c6.4-6.3,19.7-10.8,45.8,6c7.7,4.9,14.6,12.4,40.7,9.6
		C772.1,406.6,867.1,365.9,867.1,365.9L867.1,365.9z"/>
</g>
<path class="st2" d="M347.7,267.7c0,0,37.9-27.4,113.3-6.4l-7,13.6"/>
<path class="st4" d="M84.3,184v20.8h-4.4v-19.1C79.9,185.7,84.3,183.2,84.3,184z"/>
<path class="st5" d="M68.8,188.6c0,0-9.1-19.9-0.8-32.4s2.8-39.7,15.8-39.1c15.8,0.8,17.4,54.8,15,64
	C95.7,192.3,81.3,203.5,68.8,188.6z"/>
<ellipse class="st1" cx="80.9" cy="205.3" rx="16.2" ry="2.8"/>
<path class="st4" d="M242.5,173.4v7.9h-1.7V174C240.9,174,242.5,173.1,242.5,173.4z"/>
<path class="st6" d="M236.6,174.5c0,0-3.5-7.6-0.3-12.4c3.2-4.8,1.1-14.6,6-14.9c5.6-0.3,10.4,19.7,5.7,24.4
	C245,174.9,241.4,180.2,236.6,174.5z"/>
<ellipse class="st1" cx="241" cy="181.5" rx="6.2" ry="1.2"/>
<path class="st7" d="M81.5,118.3c0,0-8.1,10.6-1.2,24.9c6.9,14.3,6.9,55.5-3.7,50.5s-14.3-24.9-8.7-34.3c5.6-9.3,6.2-28.7,6.2-28.7
	S72.2,117.1,81.5,118.3z"/>
<path class="st1" d="M96.8,203.8c0,0,9.3-14.3,14.3-8.1l5,6.2c0,0,1.9-6.2,7.5-2.5l5.6,3.7L96.8,203.8L96.8,203.8z M193.5,200.3
	c0,0,4.5-7,7-3.9l2.4,3c0,0,0.9-3,3.6-1.2l2.7,1.8L193.5,200.3L193.5,200.3z M267.1,175c0,0,6.1-24.1,9.2-17.9
	c3.1,6.2,5.2,20.2,5.2,20.2L267.1,175L267.1,175z M281.6,177.4c0,0,4.4-18,6.7-13.4s3.8,15,3.8,15L281.6,177.4z M370.3,207
	c0,0,9.3-14.2,14.2-8.1l5,6.2c0,0,2.1-6.6,7.4-2.5c6.7,5.1,7.3,5.8,5.6,3.7L370.3,207L370.3,207z M787.6,183.6c0,0,5.8-8.9,8.9-5
	l3.1,3.9c0,0,1.2-3.9,4.6-1.5l3.5,2.3L787.6,183.6z M815,163.3c0,0,5.3-21.2,8.2-15.4s4.8,18.8,4.8,18.8L815,163.3L815,163.3z"/>
<ellipse class="st3" cx="314.9" cy="363.5" rx="24.7" ry="7"/>
<path class="st8" d="M631.4,82.3c3.5-0.9,7.6-1.5,10.6,0.4c14,8.9,17.6,4.7,31.7,2.1c27.8-5.1,43.2-28.2,65-28.7
	c21.8-0.4,56.9-18,92.8,15.4L842,90c0,0,5.5,3.7,5,11c-0.4,7.3-1.4,7.7-7.8,6.4c-6.4-1.3-7.3-7.5-7.3-7.5s-2.1,5-3.4,4.3
	c-2.9-1.5,3.9-7.3,1.7-10.7c-3.5-5.5-24.3-28.1-50.4-28.1c0,0,38.4,65.3,11.9,92.7s-23.9,29.5-23.9,29.5s14.7,49.8,13,59.6
	c0,0,10.5,29.7-10.5,24.2c-10.5-2.7,4.1-12.3-1.2-24.4c-5.6-12.8,0-1.7,0-1.7s-12-29.1-21.4-39.8s8.9-52,8.9-52s-35.6,5.9-67.9,4.5
	l-59.1,26.1c0,0-2,1.9-10.1,2.7c-13.2,1.4-22.5-5.8-18.3-11c4.3-5.1,22.5-2,22.5-2s46.2-26.5,53-29.5s74-18.4,74-18.4
	s1-35.3-27.6-46.4c0,0-13.1,24.6-79.7,17.8C643.4,97.3,617.7,89.6,631.4,82.3L631.4,82.3z"/>
<path class="st9" d="M826.9,71.6c0,0,12.3,5.9,18,22.3l-0.4,0.5c-1.9,2.4-2.9,2.4-5.5,0.7h0.3c0,0-6.1-20.7-15.2-21.9L826.9,71.6
	L826.9,71.6z"/>
<path class="st10" d="M750.7,126c0,0,10.7,10.7,28.2,6.4s21.4-14.1,21.4-14.1s7.7,16.7-3,32.9s-29.5,36.3-29.5,36.3
	s10.7,16.5,14.3,57.3c0,0,1.9,6.4-13.1,2.1c0,0-6.4-16.7-14.1-28.7s-15-19.2-11.1-32.9c3.8-13.7,7.7-31,7.7-31s-33.8,4.6-62.8,3.6
	L630.9,184c0,0-10.7-4.7-4.2-12.4c0,0,47.9-28.7,52.2-29.1S745.1,125.1,750.7,126z"/>
<path class="st11" d="M679.4,81.3c0,0-3,14.8,8.9,16.9c0,0,26.2-5.2,35.7-17.2c0,0,23.2,13.5,26.6,46.9c0,0,16.4,14.2,44.6-2.9
	c0,0,6.4-3,5.9-4.6c0,0-5.5-38.6-18.3-53.2c0,0,26.6,3.1,38.9,15c0,0,1.4-9.7,13.8-10.5c0,0-22.1-29.4-86.6-20.9
	c0,0-11.9,4.4-17.4,4.9c-3.8,0.3-23,11.6-37.3,21.7C689,81.1,679.4,81.3,679.4,81.3L679.4,81.3z"/>
<path class="st12" d="M751.1,52.5c0,0,70.4-13.6,84.1,19.3C835.1,71.9,813.2,45.2,751.1,52.5z"/>
<path class="st8" d="M702.8,46.4c0,0,15,20.4,22.5,22.1c9.6,2.2,14.3-9,17.3-12.7c3.9-5,14.9-8.8,14.9-8.8s-15.3,2.7-26-4.1
	S704.9,37.4,702.8,46.4z"/>
<path class="st1" d="M710.1,45.7C710.1,45.7,710,45.7,710.1,45.7C709.8,45.8,708.8,46.3,710.1,45.7z M708.8,45.6l-0.4-0.2
	C708.4,45.4,708.7,45.5,708.8,45.6z"/>
<path class="st8" d="M735.4,61.8c0,0,4.7,5.5,10.2,4.2c5.6-1.3,2.4-16.3,2.4-16.3s-10.9-10-11.1,8.7 M627.4,86.2
	c0,0-0.6,4.6,1.5,10.4c1.3,3.7,4.9,4.9,7.5,4.6c1.8-0.2,5.9,0.2,3.2-1.9s-5.6-4.3-2.4-9.4"/>
<path class="st13" d="M758.4,69.9c0,0,2.7,17.1,26,20.6c-3.3,2.7-5.1,6.9-4.8,11.2v0.5c0,0-20.6-6.9-29.5-32.2"/>
<path class="st14" d="M706.6,51.2c0,0-13.9-7.8-1.8-23.1c8.2-10.5,26.9,1.3,41.1,1.7c14.1,0.4,23.1-6.4,35.9-3.4
	s20.5,16.2,20.5,16.2s-22.3,5-33.4,6.7c-11.1,1.7-14.3,1.8-28.4-2s-26.4-9.1-30.5-5.4C707.7,44,700.2,40.5,706.6,51.2L706.6,51.2z"
	/>
<circle class="st15" cx="692.7" cy="89.1" r="3.1"/>
<circle class="st3" cx="749.1" cy="89.8" r="3.1"/>
<circle class="st3" cx="764.9" cy="71.3" r="3.1"/>
<circle class="st15" cx="752.3" cy="57.6" r="3.1"/>
<circle class="st15" cx="752.3" cy="57.9" r="3.1"/>
<circle class="st15" cx="751.9" cy="112.2" r="3.1"/>
<circle class="st3" cx="793.6" cy="98.9" r="3.1"/>
<circle class="st3" cx="783.4" cy="119.7" r="5.9"/>
<circle class="st3" cx="763.6" cy="102.5" r="3.4"/>
<circle class="st7" cx="814.5" cy="69.7" r="4.2"/>
<path class="st15" d="M741.2,83.2c0,4.2-1.9,8.1-5.7,6.4c-1.6-0.7-5.6-3.9-7.5-7.5c-1.9-3.7,1.5-6.4,5.7-6.4
	C737.8,75.6,741.2,79,741.2,83.2z"/>
<circle class="st15" cx="763.9" cy="118.8" r="4.1"/>
<circle class="st15" cx="709.5" cy="75.8" r="4.1"/>
<path class="st12" d="M783.2,67.6c0,0,20.8,16.4,18.1,53.4l-2.7,2.1C798.6,123.1,801.7,98.5,783.2,67.6L783.2,67.6z M802,123.1
	c0,0,6.6,9.5-5.4,30C796.6,153.1,804.7,136.8,802,123.1z"/>
<path class="st16" d="M858.2,234.1c0,0,6.9,8.9,2.7,23.3c-4.1,14.4,11,21,11,21s-17.4-5.3-13.3-21
	C862.7,241.6,858.2,234.1,858.2,234.1L858.2,234.1z"/>
<path class="st17" d="M755.6,196c-6.1-9.8,3.2-35.2,23.3-63c1-1.4-7.3,2.3-17.8-0.5V132c0,0-6.4-1.9-6.4-1.8
	c-4.6,1.5-34.2,9.5-47.8,15.1c-10.4,4.2-18.4,12.8-18.4,12.8c61.2,0.8,63-3.7,63-3.7h0.5c-2.7,8.4-5.7,22.3-8.1,31
	c-4.2,15.4,7.5,27.9,7.5,27.9c19.8,33.1,18,35.3,18,35.3l5.9,0.1C775.8,232.5,763.4,208.5,755.6,196L755.6,196z"/>
<path class="st14" d="M721.2,24.4c0,0,24,5.5,30.8,0.2s16.2-7.5,26.5-4.6c0,0-12.8-0.9-22.6,6.4c-9.2,6.9-16.2,6.8-28.3,1.1"/>
<path class="st18" d="M708.1,43.4c0,0,0.5-9.1,13.4-5.3c5.3,1.6,24.1,6.1,33.2,5.8s33.8-5.2,38.7-1.2l-16.8,6.7
	c0,0-15.1,4.6-29.5-0.3C739.8,46.6,715.4,40.7,708.1,43.4L708.1,43.4z"/>
<path class="st0" d="M794.3,33.5c0,0-13.1-6.1-24.1-2.7c0,0,15.8-4.9,24.7-0.9"/>
<path class="st8" d="M821.1,85c0,0-2.7-9.4,1.8-14c4.1-4.2,9.3-4.4,11-0.8C834,70.1,821.1,77.4,821.1,85z"/>
<path class="st11" d="M803.6,71.7l12.6,10c1,0.7,1.9,1.5,2.8,2.4c1.6,1.5,2.8,1.9,5.5,2.7c0-0.6-0.4-1.2-0.9-1.5
	c-1.2-0.7-3.3-2.8-3.9-9.8"/>
<path class="st8" d="M833,68.5c0,0,5.5,4.9,1.5,8.2l-7.4-2.5"/>
<path class="st11" d="M767.7,133.3c-11.9,0-27.9-7.9-22.4-11.4c7.6-4.9-2.7-20.7-2.7-20.7S757.2,133.4,767.7,133.3"/>
<path class="st16" d="M704.8,28.1c0,0,2.8-6.5,12.8-4.4s17.4,2.4,28.9,2.4c0,0-9.4,2.1-28.3-0.9C718.2,25.3,708.6,23.3,704.8,28.1z"
	/>
<path class="st8" d="M821.9,72.4c0,0-5.1,10.3,2.6,14.4l5.2-7.3 M628.4,89.5c0,0-1.8,0.2-3.7,3.7s0-6.6,4.3-9.4"/>
<circle class="st15" cx="780.3" cy="77.6" r="4.1"/>
<path class="st15" d="M705.5,94.4c-1.1-2-0.3-4.5,1.7-5.6s4.5-0.3,5.6,1.7"/>
<circle class="st15" cx="791.6" cy="66.3" r="2.7"/>
<path class="st15" d="M807,56.6c-0.7,2.2-3,3.4-5.1,2.7c-2.2-0.7-3.4-3-2.7-5.1"/>
<path class="st8" d="M839.6,46.2c2.2-3.3,4.7-2.7,3.1-6.6c-1.3-3.3-3.8-4.6-5.3-5.2c-10.7-1.5-36.4-3.9-50.1,4.4
	c-17.6,10.6-27,29-51.5,23.1c0,0-1.2,12.4,18.9,9.8s23.4-17.2,48-22c24-4.6,41.6,2.6,42.4,2.9C844.7,52.4,837.6,49.4,839.6,46.2
	L839.6,46.2z"/>
<path class="st1" d="M787.5,49.2c0,0,27.9-13.6,54.5-5.5c0,0,2.3-1.8,0-4.2C842,39.6,824.2,32.3,787.5,49.2z"/>
<path class="st0" d="M739.5,61.6c0,0,11.3,7,23.1-5.1C762.6,56.5,755.1,64,739.5,61.6z"/>
<path class="st19" d="M765.4,104.5c-2.8-8.2,0.2-12.1-3.4-20.1c-10.7-23.8-25.7-21.5-26.2-24.1c0,0-5.6,16.8-19.7,1.7l1.6,0.3
	l-0.9,0.2c0.7,7.7-1.7,19.2-7.8,23.9c-5.6,4.4-17.6,9.5-24.4,9.9c-1.1,0.1,2.3,0.8,2.7,1.8L689,98c0,0,18.9-0.8,32.9-14.8l-0.2-0.5
	c1.1,0.9,1.4-1.7,2.8-1.1c11.3,5.2,30.5,29.4,26.2,46.7c0,0,14.2,10.1,32.9,2.7C783.5,131.1,770.9,120.7,765.4,104.5L765.4,104.5z"
	/>
<path class="st8" d="M734.2,63.1c0,0,4-4.3,13.6-1.5l1.2-11l-14-4C734.9,46.6,742.9,53,734.2,63.1z M832.6,99.4c0,0-4.6,17.1-3,16.7
	c0.9-0.2,5-9.8,5-9.8s-3.5,13-1.6,13.2c1.6,0.2,5.1-11.9,5-12.1c0,0-1.2,8.8-0.2,10.1c0.9,1.2,5.5-10.5,5.5-10.5s-2.3,8.2-1.8,8.7
	c0.6,0.6,5.5-8.2,5.7-15.8 M416.7,43.1l9.1,4.4c0,0,24.9-19.5,49.9-12.5s38.2,9,38.2,9s47-3.9,66.9,3.5s49.7,24.8,52.8,27.1
	s12.8,8.9,14.3,14.3c1.6,5.5,4.7,8.4-2.3,5.3s-2.2,1.5-2.2,1.5S632.1,80.8,628.9,80c-3.1-0.8,2.7,3.1,2.7,3.1s-8.4,2.5-8.4-5.7
	c0,0-51-15.2-58-12.1c-7,3.1-1.6,0.4-1.6,0.4s35.4,28.8,39.7,52.6c0,0-13.2,19.5-27.3,18.7c0,0-14,47.1-26.1,57.7
	c-12.1,10.5-46.4,46-47.1,51c-0.8,5.1-0.7,16.5-1.6,23c-1.1,8.3,3.7,12.1-8.4,10.6c-15.6-1.9-4.7-27.8-2.1-38.3
	c0.3-1.1,0.3-2.3,0.1-3.5c-0.9-4.4,0.5-9,3.6-12.3c7.6-7.8,21.4-22.6,25.9-31.3c6.2-12.1,13.2-14.8,14-16.7s6.2-51.4,6.2-51.4
	L487,151.1c0,0,7,4.3,10.1,15.9c2,7.5,5.2,14.6,10.5,18.8c2.2,1.7,2.1,2.8,0.1,4.9c-2.8,2.9-10.4,9.2-14.3,10.4
	c-6.6,1.9-17.1,2.1-12.5-6.8c0,0,3.7,2.9,9.1-1.8c5.5-4.7,2.3-5.1,2.3-5.1s-37.1-28.1-38.3-35.5c-1.2-7.4,37.5-40.1,37.5-40.1
	l-2.7-2.3l-27.8,8.1c0,0,3.2-6.6,9.5-14c6.2-7.4,9.3-17.9,9.3-17.9S477.2,74,485,67s18.7-9.6,18.7-9.6s-33.9-12.8-42.1-11.6
	s-27.2,10-33.1,10s-14.4-2.3-22.2-10.1S416.7,43.1,416.7,43.1L416.7,43.1z"/>
<path class="st20" d="M535.3,177.1c0,0-2.7,9.3-4.3,13.4c-1.6,4-31.1,45-31.1,45l-2.3-12.5c0,0,16.1-18.2,20.2-25.5
	C521.7,190.2,532.8,176.6,535.3,177.1z"/>
<path class="st21" d="M533.2,115.1c0,0,12.3-5.5,5.5,29.2c-1.1,5.7,3.2,8.2,9.1,11.4c4.9,2.6,13.4-1.3,18.9-2.3l4.4-0.8l8.6-22.2
	l-18.2-31.3l-31.3-19.2l2,21.2C532.2,101.1,533.2,115.1,533.2,115.1z"/>
<path class="st21" d="M549.2,120.6c0,0-56.5,26.2-67.6,34.3c-13.1,9.6-3.4,21.1-3.4,21.1s-27.3-17.2-23.7-26.8
	c3.5-9.6,64.7-68.2,64.7-68.2S544.1,112.5,549.2,120.6z"/>
<path class="st12" d="M443.6,51.2l-10.4,3.4c-4.5,1.5-9.3,1.6-13.8,0.4c-6.4-1.7-14.8-5-16.3-10.6c-2.5-9.2,22.4,1.7,22.4,1.7
	s19.1-10.9,30.1-11.5C455.6,34.6,443.6,36.5,443.6,51.2L443.6,51.2z"/>
<path class="st12" d="M403.1,45.1c0,0-5-8.2-2.9-8.2s4,4,4,4s-3.7-7.3-1.2-6.4c2.4,0.9,5.2,5.8,5.2,5.8s-2.7-7.6,0-5.8
	s8.6,8.7,8.6,8.7s3.6-2.5,8.8,3.1 M497.2,108.9c0,0,18.6-9.1,19-9.5c4.1-4.1,12.4-17.7,6.2-15.2c-3.2,1.3-12.4,2-16.2,4
	c-3.8,2.1-9,12.2-9.7,16.5L497.2,108.9z"/>
<path class="st22" d="M496.5,105.1l0.7,3.8c0,0,2.7-1.3,6-3C500.4,106.3,497,105.3,496.5,105.1z M510.9,102.1
	c-1.8-0.5-3.4-0.7-3.7,0.7c-0.1,0.6-0.4,1.1-0.7,1.5C508,103.6,509.5,102.8,510.9,102.1L510.9,102.1z"/>
<path class="st12" d="M649.1,97.5c-2.9,0.9-6-0.3-7.6-2.8c-2.2-3.3-1.5-3.7-5.6-6c-6.3-3.5-0.8-0.9-0.8-0.9
	c-8.7-4-12.9-7.3-12.9-7.3l-8.1-4.3c-3.1-11.1,6.8-12,6.8-12s7.4,4.9,12.9,8.6c3.4,2.3,7,5.8,10.5,8.5c1.5,1.2,3.2,3.2,4.8,5.1
	c0,0,7.5,9.4,6.6,10.9s-7.2-4.3-7.2-4.3L649.1,97.5L649.1,97.5z"/>
<path class="st22" d="M615.6,68.5c0,0,20.3,9.7,23.8,18l-5.9,1.1c0,0-12.5-8.3-19.8-11.7"/>
<path class="st8" d="M627.4,86.2c0,0,0-0.1,0.1-0.2c0.5-1.3,5-9.9,24.2,1.2c0,0,4.3,2,11.4,0.8l4,9.7H651c0,0-11.3-10.8-17.2-8.4"/>
<path class="st9" d="M647.8,85.6c0,0,5.2,2,11.1,1.8c4.2-0.1,20.1-4.1,20.1-4.1s-0.3,4.6,0.3,6.4c0,0-16.3,2.6-22.7,2
	s-13.7-9.4-18.9-10.1C637.8,81.6,644.5,81.9,647.8,85.6L647.8,85.6z"/>
<path class="st14" d="M479.4,80.1c0,0-0.6,16.2,2,21.4c3,6,5.8,8.1,5.8,8.1s-25.9,6.6-27.1,9.5c0,0,7.5-16.4,11.7-21
	C475.9,93.6,479,90.4,479.4,80.1z M528.9,75.2c-1.7,2.3-1.5,5.4,0.5,7.4c4.9,4.8,12.6,12.7,18.7,20.5c8.1,10.3,23.5,37,23.5,37
	s31.9-5.3,31.7-21.7c-0.1-16.4-38.2-53-38.2-53s36.7,3.8,48.8,11c0,0-0.4-10.2,6.8-12.3c0,0-30.5-18.5-48.4-22.5
	c-18.4-4-33.9-0.2-48-0.4c-5.3-0.1-13-3.8-19.7-5.7c-14.5-4.2-39.7-2.1-51.9-1.6c0,0-10.6,2.9-9.1,18.9c0,0,28.5-3.9,58.1,4.7
	c0,0,13.3-9.6,23.3-2.9c3.7,2.5,5.8,6.7,6,11.2C531.1,68.9,530.8,72.7,528.9,75.2z"/>
<path class="st23" d="M529.9,87.5c0,0,12.9,8.7,0,22.4c-10.1,10.7-34.7,14.4-40.3,23.3c-1.2,1.8-3.6,2.4-5.5,1.5l-0.4-0.2
	c-2.2-1.1-3-3.8-1.9-5.9c2.2-4.1,6.9-10.2,15.3-11.9c13.3-2.7,32.9-14.1,33.8-18.6c0.7-3.7-0.2-5.7-1.4-6.9
	C528.6,90.2,528.7,88.4,529.9,87.5z"/>
<path class="st8" d="M506.6,90.6c9.3-2.6,18-6,15.3,0.1v0.1l-1.6,6.5c-0.1,0.5,0.4,1,0.9,0.8c2.7-0.8,9-2.6,9.4-7.7
	c0.2-2.8-2.2-6.8-6.3-11.2c-2.5-2.7-11.9-0.3-15.6,0.8c-0.6,0.2-1.1-0.4-0.8-1c0.8-1.5,2.3-4.1,5.3-6.6c10.8-9.4,0,0,0,0
	s-2-15.1-9.5-15.2c-7.2,0-27.8,10.9-26.7,25.4c0,0.4,0.1,0.8,0.1,1.3c1.3,9.3,2.1,11.2,2.4,11.3c0.3,0.1,0.5,0.2,0.5,0.5
	c0.8,4.1,4.3,18.2,12.4,17.1h0.2c0.4-0.2,2.6-1.1,4.2-3.6c0.1-0.2,0.1-0.4,0.1-0.6c-0.4-1.1-2.5-5.7,4.2-8.1
	C501.2,100.5,501.3,92.1,506.6,90.6L506.6,90.6z"/>
<path class="st12" d="M503.2,57.3c0,0,6.4,2.4,8.9,6.7c3.5,5.9-3.8,11.5-5.7,14.3l1.3,4.5c0,0,9.1-4.1,14.9-6.7
	c2.2-1,5.8-8,4.9-12.3c-0.8-3.5-2.1-6.5-10.6-8.3C517,55.5,510.3,56.7,503.2,57.3L503.2,57.3z"/>
<path class="st22" d="M527.6,64l-17.7,10.2c-1.3,1.7-2.8,3.1-3.4,4.2l1.3,4.5c0,0,9.1-4.1,14.9-6.7C524.9,75.2,528.4,68.3,527.6,64z
	"/>
<path class="st12" d="M498.4,108l3.9-0.7c2-0.4,3.8-1.7,4.6-3.6l0.2-0.4c0,0,8.5,2,9.1,0.8c0.6-1.2-2-8.2-0.4-9.4"/>
<path class="st2" d="M497.5,222.9c0,0-4.4,20.7,8.7,16.2c0,0-5.3,3.8-5.3,11.2c0,0-2.3,1.1-5.1-1.7c-3.3-3.3-1.1-21.1-1.1-21.1
	L497.5,222.9L497.5,222.9z"/>
<path class="st18" d="M444.4,44.1c0,0,51.4-1.8,67.4,9.6l-10,3.9c0,0-31.1-8.9-58.1-4.7C443.6,52.9,442.9,47.9,444.4,44.1z
	 M616,67.9c0,0-31.6-15.1-46.2-14.8c-22,0.4-39.3,9.1-39.3,9.1l-0.1,0.4c-0.8,0.4,0.4-0.3-0.4,0.2c0,0,28.5,5.7,34.8,21.7
	c6,15.3,9.6,39.8,32,42.8c1.2,0.2,2.4-0.3,3.2-1.1c2.1-2.3,8.7-7.5-4.4-26.2c-11.3-16.1-25.7-30.1-28.9-33.9
	c18.8-0.1,47.4,10.5,47.4,10.5L616,67.9z M482.5,84c0,0-16.6,26.7-6.4,27.3s13.6-3.3,13.6-3.3"/>
<path class="st8" d="M515.8,100.3c0,0-0.5-8.2,7.6-9.9l-0.9,1.3C522.3,95.8,519.6,99.3,515.8,100.3L515.8,100.3z"/>
<path class="st22" d="M407.3,43.9c-0.9,0.2-4.2,1.1-4.2,1.1c3.7,8.6,20.2,11.6,26.2,10.7c0.2,0,0.4-0.1,0.6-0.1l13.7-4.4
	c-0.5-1.8,0.8-8.3,0.8-8.3s-6.7,1.8-17.1,7c-7,3.5-17.4-5.8-17.4-5.8S413.3,43,407.3,43.9"/>
<path class="st12" d="M636.3,95c0,0-3.8-3.8,0.2-6.5s8.4-0.5,11.1,4.7c2.7,5.2,3.7,5.8,1.5,6.1C646.9,99.6,637.2,100.8,636.3,95z"/>
<path class="st12" d="M635.8,94.4c0,0,2.1,5.8,4.3,6.1c2.1,0.3,14.1,2.2,9.7-3.5"/>
<path class="st8" d="M636.3,96.4c0,0-2-6.2,0.2-4.8c1.2,0.8,2.8,5.2,2.8,5.2s-2.6-7.3-1.3-7.8c1.5-0.7,4.4,7,4.4,7s-2.8-8.7-1.3-8.1
	c1.5,0.7,4.1,6.5,4.1,6.5s-2.7-5.4-0.4-5.2c3.4,0.2,5,7.8,5,7.8s-3-10.4-5.9-10.9c-2.8-0.4-11.3-0.2-10.9,2.4
	C633.4,91.2,636.3,96.4,636.3,96.4L636.3,96.4z"/>
<path class="st20" d="M498.5,234c0,0-3.5,7.4-3.5,12.7s-4.5,26,0,32.1c0,0-10.1,1.1-9.8-10.1c0.2-6.9,2.5-16.4,4.2-22.5
	c1-3.5,1.4-7.1,1.3-10.8c-0.1-2.8,0.2-6.2,2.2-8.4c3.7-4.2,5.8-5.8,5.8-5.8L498.5,234L498.5,234z"/>
<path class="st22" d="M507.4,85c0,0-4.7,0.7-5.4-2.9c-0.6-3.3,12.1-9.3,10.8-0.5"/>
<path class="st8" d="M501,87.7c0,0,14.6-10.4,21.3-9.7l5.2,5.2l-23.9,5.9"/>
<path class="st24" d="M512,110.9c0,0,17.9-4.9,15.8,3c0,0,18.9-18.8,1.7-30.5l-0.3,7.7C529.2,91.1,519.9,106.6,512,110.9z"/>
<path class="st25" d="M496.8,110c0,0-5.2,5.8-9.8,0C487,110,490.4,113.5,496.8,110z"/>
<path class="st0" d="M496.3,110c0,0-7.9,9.3-15.7-10.8C480.6,99.1,488.3,121.7,496.3,110z"/>
<path class="st16" d="M545.5,40.2c0,0,19.4-4.1,37.7,4.8C583.2,45,568.8,38.4,545.5,40.2z"/>
<path class="st8" d="M646,88l5.6,8.2l-1.2,2.7c0,0-2.4-7.9-5.5-9.4 M493.7,187.9c0,0-5.2,4.3-12.8,6.7c-7.6,2.4,2.7,17.5,18.6,3.7
	C509,190.1,495,191.9,493.7,187.9L493.7,187.9z"/>
<path class="st2" d="M493.7,187.9l-8.5,5.5c0,0,1.1,4,4,4c7.3,0,9.7-4.9,9.7-4.9S493.4,190.4,493.7,187.9z"/>
<path class="st22" d="M420,40.8c7.3,6.6,4.3,4.9,4.6,6.1c0.1,0.3-1.5,0.6-1.7,0.9c-0.7,1.2-2.2,1.7-3.6,1.2
	c-7.1-2.5-9.3-0.3-9.9,1.3c-0.2,0.5-0.9,0.6-1.3,0.1c-2-2.7-7.9-9.5-6.9-11.2C402.4,37.2,417,38.1,420,40.8z"/>
<path class="st26" d="M463.9,194c0,0-9.5-9.7-6.3-11.5c1.8-1,7.5,10.3,13.9,8.9c1.9-0.4-1.1-7.1,0.9-6.2c2.1,0.9,9.3,7.7,10.6,12
	C484.4,201.6,465.7,198.3,463.9,194z"/>
<g>
	<path class="st27" d="M889.1,129c-13-13.5-28.8-24.5-34.5-28.1c-2.7-2.1-4.3-7.6-5-11.2c-0.9-5.2-4.1,4.7-2.7,7.5
		c0,0-2,2.8-4.2,0.5s-7.4-9.6-6.6-6.4c0.8,2.9,4.2,8.2,4.7,8.8c-0.4-0.5-4.5-6.6-7.3-7.4c-3.1-0.9,4.7,7.9,4.7,7.9s-6.6-5.7-7.1-3.2
		c-0.3,1.8,7.2,6.3,7.2,6.3s-7-2.4-5.9-0.7c2.2,3.8,13,6.2,18.6,6.5c7.3,6.2,16.9,18.6,24.6,24.1c6.7,4.8-1.1,29.6-1.1,29.6l4.3,1.2
		C892.1,195.8,896.8,136.9,889.1,129L889.1,129z M783.4,280.8c0,0-3.7,11.6-15.2,16.8c-11.5,5.1-32.8,14.4-32.8,14.4
		s-6.4,3-10.3,4.2c-3.8,1.3-15.4,0.9-19.7-1.3s-7.3-9.7,4.3-10.9c7-0.8,13.1-1.6,17-2.2c2.6-0.4,5-1.5,7-3.2
		c6.6-5.8,22.4-19.7,27.8-24.7"/>
	<path class="st14" d="M873.2,196.9c0,0-11.7-4.7-16.9,10.7c-5.1,15.4,4.3,27.4,4.7,39.3c0.4,12-11.1,20,10.9,31.4
		c16.9,8.7,25.1,14.9,14.8,31.4c0,0-4.7,10.3-32.9,9.4s-38.5,6.6-56.4-6.4c-23.7-17.1-42.8-33.2-42.8-33.2s25.7-29.7,30-38.7
		s32.2-10.1,45.2-29c9.4-13.7,4-24.8,7.4-29.1c6.8-8.6,21.9-12,34.3-8.6c0,0-22.3-1.2-19.3,7.3s29.7-0.3,29.7-0.3l-7.3,15.7"/>
	<path class="st28" d="M864.1,299.9c0,0-13.6-10.5-21.9-17.1s-3.9-20.1-3.9-20.1s5.3,17.9,20.1,21.4c14.9,3.5,16.9,16.2,16.9,16.2
		S870.2,292.4,864.1,299.9L864.1,299.9z"/>
	<path class="st29" d="M875.9,184c0,0,0.7,9.7-8.9,19.3s-22.2,44.3-32.9,48c-17.8,6.2-8.2,32.2,6.9,40.4
		c33.4,18.2-15.8,30.8-32.2,24c-16.4-6.9-30.4-14.7-39.3-24.9c0,0,17.8-46,28.2-52.2c12.1-7.3,29.7-8.9,35.6-27
		c6.5-19.8-2.5-31.1,11.9-33.8C859.6,175,875.9,184,875.9,184L875.9,184z"/>
	<path class="st30" d="M765.2,268.2c0,0,33.8,33.3,51.2,35.6c17.4,2.3,29.4-14.2,47.3-19.7c15.2-4.7,21,1.9,21,1.9l-10.2-6.4
		c0,0-4.6-2.3-17.4,3.2s-26.5,20.6-40.2,18.3c-13.7-2.3-51.2-34.7-51.2-34.7L765.2,268.2L765.2,268.2z"/>
	<path class="st30" d="M771.6,262.2c0,0,31.4,28.7,45.4,30.6c14,2,21.3-12.9,35.7-17.6s15.3,1.6,15.3,1.6l-7-5.5c0,0-4.4-2-14.7,2.7
		S829,291.8,818,289.8S772.6,260,772.6,260L771.6,262.2L771.6,262.2z"/>
	<path class="st30" d="M778.9,250.4c0,0,20.1,23.3,35.3,29.7c11.2,4.7,19.6-12.2,31.9-16.9c12.4-4.7,9.5,2.7,9.5,2.7l-0.5-7.8
		c0,0-6.2-2-15,2.7s-14.8,17.7-24.3,15.7s-35.3-28.9-35.3-28.9L778.9,250.4L778.9,250.4z"/>
	<path class="st27" d="M872.3,195.4c0,0,0.6,8.7-9.8,25.7s-25.5,53-108.6,41.4c0,0-4.4-0.5-7.5-1.5c-4.7-1.7-13.3-8.9-10.2-10.8
		c5-3.2,15,0.6,15,0.6s3.1-5,20.5,2.2c12.8,5.3,58.3-11.3,58.3-11.3s11.8-18.4,15.1-25c3.3-6.5,6.7-19.5,23.7-21.2L872.3,195.4z
		 M825.5,319.9c0,0,28.4,22.5,36.1,39.1c0,0,6.7-12,12.7-9.5c0,0-10.3-9.4-15-18.8s-11.5-16.2-11.5-16.2l-1.7-1.4L825.5,319.9z"/>
	<path class="st27" d="M871.7,348.8c0,0-10.3,4.3-11.1,11.5c-0.9,7.3-2.6,18-5.1,18.8c-2.6,0.9-13.3,1.3-11.5,3.8
		c1.7,2.6,10.3,6,19.2,4.7c9-1.3,9-7.7,12.4-14.1s7.7-13.7,6-17.5S871.7,348.8,871.7,348.8L871.7,348.8z"/>
	<path class="st14" d="M874.7,183.4l9.4,1.4c-3.3,27.5-18.8,32.3-18.8,32.3l3.7-8.3c0.5-3,1.3-3.7,0.9-5.5c-1.9-8.5-9.2-5.8-9.2-5.8
		S877.5,194.3,874.7,183.4L874.7,183.4z"/>
	<path class="st27" d="M842.8,314.5c0,0,7.8-2.4,12.5-8.4c7.6-9.5,22.6-18,30.5-9.4c7.5,8.2-6.6,23.4-33,23.4
		C852.7,320,845.3,314.5,842.8,314.5z"/>
	<ellipse class="st3" cx="863.5" cy="384.1" rx="24.7" ry="7"/>
	<path class="st13" d="M718.1,303.1c0,0-10.8,1.6-8.1,7.1c2.3,4.6,16.4,4.6,23.8,1.8c0,0-12.3,11-26.5,6.9S697.1,302.2,718.1,303.1z
		 M874.4,349.5c0,0-6.4,3.7-8.7,12.3c-2.3,8.7-4.1,16.9-9.1,16.4s-15.3,1.6-12.7,4.7s21.8,13.1,28.2-1l7.8-16.9
		c0,0,6.9-9.1,0.5-11.9l-6.1-3.5L874.4,349.5z"/>
	<path class="st12" d="M897.3,133.9c0,0,0.9-5.3,6.6-2.3C903.9,131.6,901.6,130.4,897.3,133.9z M916.2,129.9c0,0,2.6-3.4,5.2-0.2
		C921.4,129.7,920.8,128.9,916.2,129.9z"/>
	<path class="st5" d="M772.3,252.7c-0.1,0.5,0.5,0.9,0.9,0.5c0.8-1,2.3-1.8,5.1-0.7c6.2,2.6,4.8,13.5-5.7,11.9c0,0,0.7,1.4,4.1,1.6
		s10.7-0.1,8.5-9.6C783.3,248.7,773.6,248.1,772.3,252.7L772.3,252.7z"/>
	<path class="st31" d="M856.8,388.8c0,0,8,0.9,10.5-4.1s8.5-25.8,11.4-27.4c3-1.6,5.3-2.7,3.9,1.8c-1.4,4.6-10.5,22.8-10.5,22.8
		S870.3,391.5,856.8,388.8L856.8,388.8z"/>
	<path class="st24" d="M847.3,384.2c0,0,0.4-3.3,4.8-2.8c4.3,0.4,9.1,1.7,11.9-7.4c2.8-9.1,5.2-18.7,10.2-17.4c5,1.3,3.9,5,3.9,5
		s-8.7,26.7-12.6,26.7S857.7,392.3,847.3,384.2L847.3,384.2z"/>
	<path class="st9" d="M869.9,203.1c0,0,0,6.1-7.3,18S846,250,827.9,256.7c0,0,25.1-13.7,39.7-53.9
		C867.6,202.8,868.9,198,869.9,203.1L869.9,203.1z"/>
	<path class="st12" d="M718.4,303.1c0,0-11.8-1.7-19.3,6.5C699.1,309.6,703.6,299.5,718.4,303.1z"/>
	<path class="st0" d="M845.2,93.6c0,0,4.6,2.8,0,14.7C845.2,108.3,847.5,95.9,845.2,93.6z"/>
	<path class="st9" d="M866.2,108.4c0,0,18.4,13.1,23.8,21.3l-5.2,2.5C884.8,132.2,883.9,127.3,866.2,108.4z"/>
	<path class="st12" d="M773.6,250.8c0,0,5.9-4.1,10.7,3.2C784.3,254,779.6,248.5,773.6,250.8z"/>
	<path class="st27" d="M752.1,263.1c0,0-11.6-3.5-9.5-6.3c1.7-2.3,6.8,2.7,10.8,0.7s5.6-2.4,10.5-0.1s5.3,5.1,5.3,5.1
		S763,267.1,752.1,263.1L752.1,263.1z M885.7,131.7c0,0-5,0.8-8.3,4.2s-3,4.6-5.1,5.4c-2,0.9-6.2,0.6-6.3,1.9
		c-0.1,1.3,0.7,2.3,0.4,2.9c-0.3,0.6-1.1,1.2-2.3,0.7c-1.3-0.5-1.3,1.9-0.9,2.9l0.3,1c0,0-2-0.6-2.3,1s0.9,1.7,0.5,2.6
		c-0.5,0.9-3.4,2-1.3,4.8c2.2,2.8,8.4,2.3,9.1,4.9c0.8,2.6,0.8,3.9,0.6,6c-0.3,3.1-8.8,6-8.8,6l5.6,3.4c0,0,12.4-0.8,14.6,1.6
		c2.2,2.3,2.1,3.2,2.1,3.2s1.1-6.2,4.2-9.3c3.1-3.1,3.6-5.5,5.8-5.1s1.7,2.8,2.8,2.2c0,0,0.9,3.2,2.9,2.2c2-0.9,0.8-0.6,0.8-0.6
		s2.4,3.1,3.8,1c0.6-0.9,1.6-0.9,2.6-0.7c1.5,0.4,3.2,0,4.3-1.1l0.1-0.1c0.5-0.4,0.8-0.7,1.2-0.9c1.3-0.7,3.8,0.7,5.3,0.8
		c2.2,0.1,4-1.8,5.1-3.3c1.9-2.6,0.9-3.9,0.9-3.9s3.2-1.4,2.3-2.8c-0.9-1.3-0.9-0.8-0.9-0.8s3.1,0.4,4.3-1.2
		c2.2-3.1-0.6-3.8-1.4-3.4c0,0,2.4-0.7,1.2-3.5c-1.2-2.9-2.9-2.1-2.9-2.1s6.1-4.3,1.6-8.2c-1.1-0.9-2.6-1.1-3.9-0.6
		c0,0,1.4-0.5-1.5-1.4c0,0,2.5-1.7,2.4-4.3c-0.1-2.9-2.3-1.9-2.3-1.9s1.5-0.9-0.8-2c0,0,3.6-2.9-0.1-6c-3.7-3.2-4.3-0.4-4.3-0.4
		v-1.1c0,0-8.7,1.3-11.5,0.5c-2.7-0.8-3.9,0.8-3.9,0.8s0.4-0.9-1.3-0.9c-1.7-0.1-1.9,0.9-1.9,0.9s-0.5-1.8-2.6-0.7s-2.6,2-2.6,2
		s-0.3-1.9-1.2-0.4c-0.8,1.4-0.9,1.9-0.9,1.9L885.7,131.7L885.7,131.7z"/>
	<path class="st27" d="M869.9,173.9c0,0-25.6,0.9-18,8.8s14.6-0.3,25,2.4c4.1,1.1,7,4.6,7.6-5.2"/>
	<path class="st11" d="M890,129.7c0,0-10.7,16.8,3,38.1l0.6,1.9l-3.4,2.3c0,0-17.4-20.1-7.3-39.9C883,132.2,885.4,130.1,890,129.7
		L890,129.7z"/>
	<path class="st1" d="M913.1,149.8c0,0,4-1.5,4.9,1.5s-0.9,3.7-0.9,3.7s4-1.2,4.3,1.5s-1.8,5.5-1.8,5.5s2.1,5.2-4.3,4.3
		c0,0,4.3-1.2,0.9-3.7c0,0,5.8-4.9,2.1-5.5s-5.2-0.9-5.2-0.9S917.7,151.1,913.1,149.8L913.1,149.8z M901.8,150.8
		c0,0,5.5,1.2,2.7,4.9c0,0,5.2-0.9,4.9,3c0,0-1.8-1.5-4.9-0.9C904.6,157.8,904.9,151.4,901.8,150.8z"/>
	<path class="st9" d="M890.3,172.1c0,0-6.4,6.1-6.4,13.7c0,0,1.5,2.1-5.2-0.3c0,0,5.2-15.2,10.1-15.5L890.3,172.1L890.3,172.1z"/>
	<path class="st27" d="M895.4,128.2c0,0,9.6-6.9,13.7-5.2c1.4,0.6,0.9,3,0.9,3s3-3.7,4.3-2.1s0.6,4,0.6,4"/>
	<path class="st32" d="M888.1,154.4l-10.1,2.4c0,0-1.8-21,4.9-24.7c0,0,4.9-3.7,9.7-2.1C892.7,130.1,885.7,148.6,888.1,154.4
		L888.1,154.4z"/>
	<path class="st9" d="M911.3,130.4c0,0,4.9,0.9,2.7,5.5c0,0,4.3,0,4.3,2.7c0,0-0.3-4.3-1.5-4.3C916.8,134.3,913.4,127.9,911.3,130.4
		z M880.8,136.6c0,0-4.1,1.4-6.2,4.1c-2.1,2.7-6.9,1.6-6.9,1.6s-2.1,0.2-0.2,0c1.8-0.2,4.8,0,6.6-2.3s5.5-6.2,8-6.6"/>
	<path class="st12" d="M923.4,165.5c0,0,2.2,5.1-6.1,7.2C917.4,172.7,924,170,923.4,165.5z M923.4,165.5c0,0,2.8-0.1,2.3-2.8
		C925.7,162.8,924.9,165.5,923.4,165.5z M883.1,191.4c0,0,0.5,17.4-17.8,25.6C865.3,217,878.5,211.5,883.1,191.4z"/>
</g>
<g>
	<path class="st31" d="M466,190.5c0,0-6.9-8.5-4.3-10.7c2.5-2.3,6.1-1.8,7.7,1.1s3.7,4.1,8.1,4.3c4.3,0.2,7.3,2.7,7.3,2.7l-6.6,2.5
		C478.1,190.5,472.2,193.9,466,190.5L466,190.5z"/>
	<path class="st26" d="M484.3,187.8c0,0,11.9,12.3,36.6,18.6c24.7,6.3,34.6,3.8,34.6,3.8s67.4-3.9,78.7-2.6
		c17.7,2.1,31,7.5,43.6,8.6c11.6,0.9,68,33.8,68,33.8s9.2,0.7,10,2.8c0.9,2.1,12.3,14.4-17.7,2.9c0,0-72.7-24.7-80.4-28.8l-33.4,3
		c0,0,12.7,19.5,29,28.9c16.2,9.4,16,8.4,19.8,12.5c7.8,8.7,15.3,47.9,17.1,58.2c0.3,1.5,1.1,2.8,2.3,3.6
		c3.5,2.4,11.3,9.2,17.9,25.4c5.9,14.6,17.9,24.8,21.9,27.9c4.1,3.1-4.9,14-6.2,19.1s-7.6,5-14,5s-16.6-3.5-14-6.5
		s13.9-5.3,13.9-5.3l3.4-6.4c0,0-6-11.5-13.7-17.5s-23.1-23.5-26.9-26.9c-3.8-3.4-30.6-44.1-30.6-44.1l-54.5,25.7l5,2.7
		c7.7,4.1,13.8,10.1,18.9,17.4c0.9,1.2,1.8,2.4,2.8,3.5l1.8,2l14.5,13.3c0,0-13.4,4.3-17.1,2.7c-10.3-4.5-58.2-28.8-54.1-44.6
		c1.5-5.9,46.2-47.9,46.2-47.9S592,253.3,578.4,243c-12.4-9.4-34.3-15.9-50.1-18.4s-29.2-2.8-53.1-28.8L484.3,187.8L484.3,187.8z"/>
	<path class="st23" d="M623.7,173.9c0,0-24.4-8.5-24.4-0.4s25,13.9,31.4,17.1C630.7,190.5,620.5,177.1,623.7,173.9L623.7,173.9z"/>
	<path class="st31" d="M562.1,172.4c0,0-13.4,4.4-10.3,18.4c2.4,11,10.3,19.7,30.8,20.5c20.5,0.9,44.5-10.3,67.1-20.5
		c22.7-10.3,44.7-11.8,48.5-7.2c3.9,4.7-7.3,11-7.3,11s19.4-5.9,10-19.2c-7.3-10.3-47.8-0.9-47.8-0.9s4.8-4.9,15-8.1
		c15-4.7,16.2-1.3,16.2-1.3s0-6-10.3-4.7s-19.2,10.3-32.5,11.5C628.4,173.3,571.9,165.1,562.1,172.4z"/>
	<path class="st12" d="M533.5,227.9c15.5,2.2,29.8,3.3,43.5,17c4.1,4.1,8.3,6.3,12.1,10.2c0.5,0.5,0.9,1,1.4,1.6l16.7,22.5
		c0,0,38.4,1.8,51.8-17.4L624.4,230l37.9-0.5c11.3,2.9,24.3,10.1,35.4,13.2c0,0-1.4-16.9,4.1-16.4c0,0-14.7-9.3-31.2-11.9
		c-10.6-1.7-37.8-10.9-52-7.7c0,0-60.9,3.2-71.8,1.9l-24-1.1c0,0-0.4,13.6,6.4,18C532,227.4,532.7,227.7,533.5,227.9L533.5,227.9z"
		/>
	<path class="st27" d="M622.8,278.6c0,0-44.2,40.5-48.3,48s2.5,21,2.5,21s-16.9-13.5-15.5-21.1c2-11,46-47,46-47
		S606.7,279.7,622.8,278.6z"/>
	<path class="st26" d="M599.7,362.8l17.7,9.5c4.6,2.6,9.5,6.2,11.2,11.2c0,0-3,13.3-13.3,15.9s6.4,9.7,14.4,3.4
		c8.4-6.7,12.7-15.7,17.5-18.9c8.2-5.4-4.7-9-17.9-18.3"/>
	<path class="st27" d="M658.1,292.3c0,0,6.8,40.6,21.9,45.9c26.7,9.4,33.6,50,33.6,50s-24-28.1-33.6-35.6s-36-49-36-49L658.1,292.3z
		"/>
	<path class="st33" d="M618.4,222.5c0,0,35.6-6.2,48.7-1.4c13,4.8,30.4,14.4,30.4,14.4l0.3,8.1c0,0-30.2-13.9-36.9-14
		c-8.6-0.1-36.5,0.2-36.5,0.2L618.4,222.5z"/>
	<path class="st34" d="M628,385.4c0,0,6.4,0.8,9.1-2.3c2.7-3,4.6-9.7,4.6-9.7s8.2,3.4,8.2,8.2c0,4.9-11.6,9.4-14.3,14.9
		s-16.4,13.4-23.8,7.6c0,0-3.2-4.8,2.7-5.8C624.1,396.8,627.7,386.6,628,385.4L628,385.4z M715.4,392.4l-1.8,2.7
		c-1.8,2.7-4.8,4.6-8,5.1c-3.9,0.6-8.4,1.8-7.5,4c1.5,3.7,7.9,4.6,12.8,1.6c4.9-3,13.2-14.4,16.8-16.4c4.9-2.7,5.8-1.8,5.8-1.8
		l-4.2-4.2c-0.8-0.8-2-1-3-0.4C723.1,384.5,716.6,388.6,715.4,392.4L715.4,392.4z"/>
	<path class="st8" d="M611.9,404.2c0,0,10.1,1.2,15.8-2.1c11.9-6.9,21-24.1,21-24.1s3,2.1,0,6.7s-10.3,9.9-13.1,13.4
		C630.8,404.2,612.7,411.2,611.9,404.2z"/>
	<path class="st33" d="M605.8,278.2c8.3,9.7,35.2-3.2,35.2-3.2s4.1-5-11-11c-15.1-5.9-20.1-1.8-28.1-19.7s-24.9-18.2-39-19.2
		s-40.2-6.9-40.2-6.9s5,10.1,16,11c0,0,23.3,0,35.6,13.7S603.1,275,605.8,278.2z M701.3,401.1c0,0,7,5.8,10.7-2.3
		c5.9-12.8,12.5-20.3,15.6-9.6c1.9,6.6-16.3,25.1-29.1,16.4C698.5,405.7,698.5,400.7,701.3,401.1z M640.1,376.9
		c0,0-7.8,20.6-19.6,22.8c-11.9,2.3-5.8-1.4-5.8-1.4s14-5.9,14-16.4L640.1,376.9L640.1,376.9z"/>
	<path class="st0" d="M701.7,225.9L732,242l-32.6-13.9c-0.5-0.2,0.6-1.3,1.1-1.5L701.7,225.9L701.7,225.9z M495.7,196.2
		c0,0,7,5.1,27,11.2v2.3C522.7,209.7,502.1,207.6,495.7,196.2z"/>
	<path class="st35" d="M741.2,248.8c0,0,15.5,1.2,16,5.6C757.2,254.5,748.9,249.6,741.2,248.8z"/>
	<path class="st36" d="M574.6,176.3c0,0,7.3-8.2,25.7-3.8s40.9,7.3,47.5,1.9c0,0-13.9,9.9-32.9,4.9c0,0,12.8,7.3,29.2,2.4
		c0,0-12.3,11-33,3.7C590.3,178.2,588.8,174.3,574.6,176.3L574.6,176.3z"/>
	<path class="st31" d="M649.8,190.8c0,0,18.2-10.8,34.2-2.6c0,0-18.7-1.8-35.2,7.8c-12,7-33.8,7.8-33.8,7.8L649.8,190.8z"/>
	<path class="st26" d="M573.8,207.9l-8.2-9.2l15.1,5.5l10.9,3.2L573.8,207.9z M697.7,236.1c0,0-1.3,7.5,0.3,7.4s2.9-1,2.9-1
		S697.4,237.4,697.7,236.1z"/>
	<path class="st27" d="M747.6,249.6c0,0-0.6-2.5,0.5-3.2c2.7-2,4.4,5.6,3.5,6.7C750.1,254.8,748,250.7,747.6,249.6z M742.8,248.2
		c-0.3-1.5,1.2-2.8,2.5-2.2c0.4,0.2,0.8,0.5,1,1c1.1,2.1,0.8,5.8-0.8,5C744.4,251.4,743.2,250.5,742.8,248.2z M739.4,245.9
		c0,0,0.8-1.8,2.1-0.6c1.4,1.2,1.1,4.9-0.5,4.3C739.5,249,738.1,246.5,739.4,245.9z"/>
	<path class="st31" d="M474.9,187.1l3.4,4c1.6,1.8,4.4,2.1,6.1,0.5c1-0.9,1.4-2.2-0.2-3.8c0,0-3-3.2-6.9-2.5"/>
	<path class="st26" d="M739.5,256l4.7,4.6c0,0-0.2,1.2,1.4,2.4c2.6,2.1,24.9,6.5,11.9-9"/>
	<path class="st26" d="M744.2,260.6c0,0,1.8,5.1,3.7,4.6c1.8-0.5,1.8-1.1,1.8-1.1s0.9,3,3,2.1l2.1-0.9c0,0,5,3,6.6-1.6"/>
	<path class="st20" d="M483.1,196.8c0,0,5.5,10.4,7.6,10.7c2.8,0.4-0.3-4-0.3-4s5.2,6.7,5.8,3.4c0.6-3.4-0.6-4.6-0.6-4.6
		s9.1,4,7.6,1.8c-1.5-2.1-10.4-9.4-10.4-9.4"/>
</g>
<path class="st27" d="M752.1,263.1c0,0-11.6-3.5-9.5-6.3c1.7-2.3,6.8,2.7,10.8,0.7s5.6-2.4,10.5-0.1s5.3,5.1,5.3,5.1
	S763,267.1,752.1,263.1L752.1,263.1z"/>
<g>
	<path class="st14" d="M373.4,134c0,0,13.3,25.3,29,12.6c14.7-11.9,26.4-24.1,45.2-17c2.3,0.9,3.8,3.1,3.8,5.5v1.6
		c0,4-4,6.9-7.8,5.5c-7.6-2.7-19.2-4.5-27.6,4.5c-13.6,14.5-32.6,14.3-43.4-3.4L373.4,134L373.4,134z"/>
	<path class="st12" d="M370.3,101.8c0,0,10.9-7.7,12.8-16.7s1.3-14.7,11.5-17.9c10.3-3.2,23.1-1,30.1,13.5c7.4,15.3-5.7,24-5.7,24
		l-4.9,1.1v0.2c-3.7,5.5-4.3,5.6-7,7.5l-8.7,5.8l-2.6,1.3C395.9,120.3,385,99.2,370.3,101.8L370.3,101.8z"/>
	<path class="st37" d="M401.6,116c4.7-4.1,8.4-9.1,10.8-14.8l0.1-0.3l9.4-8.5c0,0-19.3-7.9-21-3c-6.4,18-23.1,13.7-23.1,13.7
		S395.2,116.5,401.6,116L401.6,116z"/>
	<path class="st12" d="M337.3,70.5c0,0,3.1-9.5,7.5-12.5c4.5-3.1,10-11.5,39.2-18l3.4-1.4c0,0,8.2-4.7,16.3-4.1
		c5.4,0.4,4.8,1.8,4.8,1.8s8.7,7.9,0.4,7.8c-8.3,0-9,4.4-9,4.4s1.9,3.1,6.7,2.1c4.8-1,6.5-1,6.5-1s-2.1,5.5-8.6,5.5
		s-9.1-4.4-15.5-3.9c-6.7,0.6-25.3,7.6-30.8,21.4 M416.9,155.7l6.1,7.4c0,0,24.3,6.4,45.5,19.2c0,0,0.5,0.1,2.6,1
		c6.7,3.1,14.8-4,21.2,7.3c0,0,1.9,2.5-1.4,3.7s-7.2,5.3-19.6-2.5c0,0-29.6-1-49.5-11.6c-19.8-10.6-17.6-14.6-17.6-14.6
		S413.9,155.6,416.9,155.7L416.9,155.7z"/>
	<path class="st12" d="M489,186.4c0,0,12.6,7.7,12.8,8.7c0.3,1.4-9.9-3.2-9.9-3.2s7.4,8.3,5.9,8.8c-1.3,0.5-9.2-7.2-9.2-7.2
		s6.3,7.9,5,8.2c-2.7,0.7-7.5-6.4-7.5-6.4s4,6.7,1.6,5.9c-1.4-0.5-6.1-6.2-6.1-6.2"/>
	<path class="st22" d="M421.2,169.7c0,0,27.9,14.2,42.5,15.3c18.3,1.4,22.8,10.1,24.7,14.6c1.2,3,2,4.3-0.3,3.4
		c-2.3-0.9-5.6-7-8.1-8.1c-8.5-3.9-10.3-2.5-10.3-2.5s-42.5-3.7-52.5-15.5c-10.1-11.9-0.2-1.7-0.2-1.7L421.2,169.7L421.2,169.7z"/>
	<path class="st8" d="M362.4,93l15.8,12.4c0,0,27.1,3.4,32.5,24.4c0,0-0.4,28.3,11.1,27.4c0,0,4.7,1.3,8.2,7.7
		c0,0-10.4,4.8-10.4,16.2c0,0-9.3-1.3-12.4-7.9L382,142.6c0,0-27,9.5-27,25s3.4,24.3,3.4,24.3s16.3,20.6-0.8,31.3
		c-1.9,1.2-2.8,3.5-2.2,5.7c2.1,7.7,6.7,25.2,7.7,35.9c0,0,28.4,14.2,43.2,38.5c0,0,11.4,11.4,18.2,14.6c0,0,0.8-0.9,11.6,7.9
		l9.7,7.6c0,0,3.7-0.4,11.2,1.6c7.4,2,20.3,12.2,10.8,17.6s-33.7,0.7-47.3-18.9c0,0-53.4-27.1-75-56.1l-18.2-25
		c0,0-5.5,7.4-16.9,17.6l6.1,49.3c0,0-2.7,2.7,0.7,8.1c0,0,5.4,5.4,4.7,14.9c0,0,2.7,17.6,0,21.6c-2.7,4.1-24.3,6.1-23-2
		c0,0,3.4-0.7,4.7-5.4c1.4-4.7,1.4-16.9-0.7-23.6c-2-6.8-2.7-13.5-2.7-13.5l-4.7,5.4c0,0-10.1-62.1-7.4-68.2
		c2.7-6.1,21.8-34.1,21.8-34.1s-5.9-17.2-8-25.3s-9.1-58.4,22-87.4c0,0,7.2-5.1,9.2-13.9l0.1-9.2c0-4.5,0.7-9,1.9-13.4
		c1.8-6.1,4.4-14.1,6.5-15c0,0,12.7,0.8,18.8,10.3c0,0-2,7.5-3.8,10C355,81.4,358.6,92.6,362.4,93L362.4,93z"/>
	<path class="st33" d="M316.2,319.1c0,0,0,5.5,1.1,8.6c0,0-6.4-6.6-14.2,5.4l-2.7-13.5C300.4,319.6,311.6,313.9,316.2,319.1
		L316.2,319.1z"/>
	<path class="st8" d="M390.6,109.7c-9.4-4.7-15.5-14.6-23.5-16.7c-14.5-3.8-26.1,0-26.1,0l28.7,25.2L390.6,109.7z M335.5,66.5
		c0,0,19.7,1.7,23.9,10.7l1.3-8.6c0,0-6-11.5-18.8-10.3C341.9,58.4,335.9,63.6,335.5,66.5z"/>
	<path class="st38" d="M321.9,335.6c0,0-0.2-9.6-6.4-10.3c0,0-11.1,0.6-12.4,7.8c0,0,3.5,21.3-4.7,22.1c-8.2,0.8-0.7,9.1-0.7,9.1
		s2.1,2.7,6.9,1.4c3.4-1,4.1-25.4,8.9-27.4C318.2,336.2,321.9,335.6,321.9,335.6L321.9,335.6z"/>
	<path class="st8" d="M298.8,365.2c0,0,7,2.1,8.7-6.2c1.8-9.1-1.1-26.7,10.5-26.7c6.2,0,6.9,8.7,6.9,13.1c0,1.4-1,2.6-2.4,2.9
		c0,0,3.4,13.7-1.8,17.4C320.7,365.7,310.5,371.4,298.8,365.2L298.8,365.2z"/>
	<path class="st31" d="M300.6,319.1c0,0-5.8,2.4-5,5.9s6.1,3,6.1,3L300.6,319.1z"/>
	<path class="st33" d="M410.9,327.4l7.9,4.3c0,0-1.5-12.8,6.7-13.7l-7.6-4.6C417.9,313.4,409.1,316.1,410.9,327.4L410.9,327.4z"/>
	<path class="st8" d="M377.7,306.1l33.2,27.1c0,0-2.1-7.6,0.6-13.7"/>
	<path class="st31" d="M410.9,333.2l3-3.7c0,0-5.8-4.6-1.8-11.9C412.1,317.7,408.5,323.8,410.9,333.2z"/>
	<path class="st38" d="M436.5,324.7c0,0-3.7-7-11-6.7s-10.4,8.5-7.9,13.7s15.2,13.7,15.2,13.7s-12.9-7.1-7.3-18
		C430.1,318.6,436.5,324.7,436.5,324.7L436.5,324.7z"/>
	<path class="st38" d="M433.4,321c0,0,22.2,11.6,25.3,14C461.8,337.5,442.6,335.6,433.4,321z"/>
	<path class="st20" d="M426,338.3c-2.4-3.3-3.4-7.4-2.6-11.4c0.7-3.3,2.6-6.4,7.4-5.4c9.6,2.1,3.7,10.1,21.6,11.5
		c6.1,0.5,22.6,7.8,18,16.4C465.1,359.1,440.1,357.7,426,338.3z"/>
	<path class="st39" d="M360.9,93.7c0,0-57.6,16.9-52.1,94.6l1.7,2.3c0,0-6.7-74.4,56.6-97.5"/>
	<path class="st39" d="M324.9,192.8c0,0,4.4-72.2,49.8-95.4l1.6,1.6c0,0-43.3,21.5-48.8,94.6L324.9,192.8z M390.9,125.5
		c0,0,0.4,29.3,23.2,42.6l-2.3,2.7c0,0-18.2-12.3-25.5-41.5L390.9,125.5L390.9,125.5z M401.2,122.9c0,0,1.5,27.9,18.2,39.3l-4.1,1.4
		c0,0-15.6-15.6-17.9-40.3L401.2,122.9L401.2,122.9z M352.7,68.6c0,0-9.6,13-4.6,22.5l3.1-0.4c0,0-5-9.9,4.2-20.6L352.7,68.6z"/>
	<path class="st39" d="M409.3,126.7c0,0-7.1-8.8-24.1,4.6c-16.3,12.9-24.3,16-30.2,27.9c-6.4,13.1-3.4,32.9-3.4,32.9l-2.3,0.8
		c0,0-3.1-25.6,5.3-39s17.2-14.9,26-22.9s21.8-13.8,27.9-7.6C408.5,123.2,410,123.6,409.3,126.7L409.3,126.7z"/>
	<path class="st39" d="M340.5,194.3c0,0-2.3-25.6,4.9-41.6s26.1-34.5,32.5-37.8c8-4.2,16.4-5.7,20.3-1.5c0,0-5.7-5.1-11.5-5.3
		c-9.9-0.4-21.4,13.4-27.5,19.5c-6.1,6.1-26.4,27.9-21,66.1L340.5,194.3L340.5,194.3z"/>
	<path class="st31" d="M300.7,187.4c0,0-1.9,4.6,1.9,6.9c0,0,32.9,9.2,47,3.4s7.6-11.8,7.6-11.8S355,204.6,300.7,187.4L300.7,187.4z
		"/>
	<path class="st8" d="M349.8,193.2l0.4,6.1l2.8,0.2l-1.8-7.5L349.8,193.2z M342.4,193.9l0.8,7.7l2.2-0.6l-1.4-6.4L342.4,193.9z
		 M309.8,189.8l0.8,8l-2.6-0.7l-0.8-7.3H309.8z"/>
	<path class="st12" d="M407.5,50.6c0,0,2.9-2.3,5.6-1s-5.1,4.9-5.1,4.9S409.1,53,407.5,50.6z"/>
	<path class="st8" d="M407.4,87.9l9.4,17.8c0.9,1.7,0.5,3.8-0.9,5c-1.6,1.4-2.5,2.4-5.1-0.3l-1.8,1.7c0,0,5,6.6,10.2-2
		c0.5-1.1,1-2.4,0.4-3.5L409,85.3c0,0-3.9-3.5-9.1,0C399.9,85.3,405.4,82.2,407.4,87.9z"/>
	<path class="st31" d="M424.9,75.8c4.8,3.8,14.7,13.2,14.6,26c0,0-8.3-11.9-13.5-6.5c0,0-9.6-4.4-29.1-1.8c-12.4,1.6-15.6-4-15.6-4
		l-0.2-2.1c0,0-1.1-13,7.8-18.4c8.4-5.2,23.5-7.1,32.1,3C422.1,73.4,423.5,74.7,424.9,75.8L424.9,75.8z"/>
	<path class="st31" d="M423.4,75.5c0,0,19.8,12.2,19.5,25c0,0-7.1-13.7-15.9-12.5 M335.5,66.5c0,0,19.6-7.9,23.9,10.7l-1.5,0.1
		c0,0-5.6-15.9-21.1-9.3C336.8,68,335.5,66.5,335.5,66.5z M411.2,177.2c0,0,5.2-14.5,13-19.2C424.1,158,412.7,157.6,411.2,177.2z"/>
	<path class="st40" d="M389.7,108.6c0,0,18.4,8.2,19.6,19s3.6,25.5,9.8,31.2l1.7-1.4c0,0-10.2-9.1-9.8-28.4
		C411,129,409.5,115.5,389.7,108.6L389.7,108.6z"/>
	<path class="st10" d="M419.4,162.2l5.5,5l5.2-2.3c0,0-3.3-7.3-5.9-6.9L419.4,162.2L419.4,162.2z M357.9,77.3c0,0-4.1,7.8,2.6,13.7
		c0,0-12.2-0.4-4.1-17.4C356.4,73.6,357.9,77.3,357.9,77.3z M357.5,71.4l1.9,5.8l2-7.9l-1.8-2.5L357.5,71.4z"/>
	<path class="st40" d="M358.1,187.2c0,0-6-22,2-30.4c0,0-9.5,5.3-5.1,32.3"/>
	<path class="st21" d="M371.7,95.3c0,0-54.8,35-47.7,88c4.8,36.2,17.8,47.5,20.5,73.9c0.7,7.1,6.4,22.4,20.1,24.8
		c16.1,2.8,21.9,16.2,29,25.2c9.7,12.3,17.9,12.3,17.9,12.3l-1,13.2c0,0-30.1-18.7-65.1-55.2c-12-12.5-20.5-30.1-30.9-48.2
		c-40.3-69.7,9.3-136.7,43.7-138.8C358.2,90.5,367.5,91.1,371.7,95.3z"/>
	<path class="st21" d="M316.2,233c0,0-25.7,25.5-21.3,31.7c3.2,4.5,6,8.8,4.9,22.7c-1.2,14.4,9.1,28.1,9.1,28.1s-12.2,3.9-12.6,8.3
		c-0.4,4.3-10.4-58.6-8-67s22.1-35.1,22.1-35.1L316.2,233L316.2,233z M352.6,62.7c0,0-14,14.6-5.9,32.8l-16.6,11.2l3.2-10.7
		c0,0,0-30.6,11.2-37.7C344.5,58.3,351.2,58.5,352.6,62.7L352.6,62.7z"/>
	<path class="st12" d="M403.7,34.5c0,0,3.9-0.7,11.6,0.4c0,0,0.8,0.4,0,0.8s-7.6,1.1-7.6,1.1s12,0,13.4,1.2s-5.4,2.2-5.4,2.2
		s7,0.2,6.6,2.8c-0.2,1.3-5.4-0.8-5.4-0.8s6.8,1.3,5,4.2c-1,1.7-10.7-3.7-20.2-2.7"/>
	<path class="st22" d="M360.5,68.4c0,0,13.5-17.2,32.1-16.9c0,0,7.6,4.6,13.1,3.7c2.7-0.5,3.3-1.4,3.2-2.3c-0.1-0.9-1.1-1.5-2-1.3
		c-1.9,0.4-5.7,0.8-7.7-2.8c0,0,2.3-7.4,17.5-3.3c0,0,2.5,1.5,3.4-0.6c0,0-5.3-4.5-13.8-4.5s-15.2,4.6-23.1,5.8S360,54.7,357,63.9
		L360.5,68.4z"/>
	<path class="st12" d="M392.9,95.3c0,0,7.3-12.9,11-9.1c4.1,4.3-1.8,9.4-1.8,9.4"/>
	<path class="st31" d="M382,78.6c0,0,0.3,10.4-3.7,15.2l7.2,3.1c2.1,0.9,4.5,0.6,6.4-0.8l6.8-9"/>
	<path class="st33" d="M355.1,226.9c0,0,6.5,18.8,8.1,37.9c0,0,6.8,0.5,16.5,10.2l-16.8-9.8C362.9,265.2,358.3,242.5,355.1,226.9
		L355.1,226.9z"/>
	<path class="st41" d="M411.5,319.5l12.5,5.3c0,0-0.9,20.6,16,25.1c0,0-19.6-8.4-22.4-19.8l-5.9-0.8
		C411.7,329.4,408.2,320.6,411.5,319.5L411.5,319.5z"/>
	<path class="st42" d="M308.8,315.5c0,0,1.4,13.9,4.6,20.3l-2.7,10.5c0,0-5.9-18.3-7.8-28.3L308.8,315.5z"/>
	<path class="st43" d="M405.2,74.6c-5.4,0.2-14.6-3-13.5-6.7c1.2-4,6.8-5.1,12.2-5.3s10.8,1.4,12.9,5.6
		C418.5,71.5,410.6,74.4,405.2,74.6z"/>
	<path class="st10" d="M414.5,65.4c0,0,1.3,0.4,1.2,1.7c-0.4,3.8-4.3,5.3-9.9,5.9c-3.3,0.4-8.4-1.2-10.7-3c-2.1-1.7-2.5-4.1-0.6-5.8
		c0,0-2.6,4.7,8.4,6.6C410.4,72.2,414.9,67.4,414.5,65.4z"/>
</g>
<ellipse class="st19" cx="400.5" cy="69.9" rx="9.9" ry="5.3"/>
<path class="st26" d="M463.9,194c0,0-9.5-9.7-6.3-11.5c1.8-1,7.5,10.3,13.9,8.9c1.9-0.4-1.1-7.1,0.9-6.2c2.1,0.9,9.3,7.7,10.6,12
	C484.4,201.6,465.7,198.3,463.9,194z"/>
<path class="st8" d="M831.9,93l-2.1,8.5l3.4-3.9c0,0-2.5,10.3-1.1,10.1c0.1,0,0.2,0,0.3-0.1c4.2-0.8,8.5,0,12.2,2.1
	c0,0,2.3-11,0.2-15.8s-3.9-5-3.9-5S832.2,87.5,831.9,93L831.9,93z"/>
<path class="st11" d="M830.2,93.5c0,0-0.4-6,6.3-6.2c6.6-0.2,7.8,5,7.8,5s1.4-8.5-8.5-8c-10,0.5-8.9,10.1-5.5,9.6L830.2,93.5z"/>
<path class="st9" d="M837,88.6c0,0,7.6,1.4,8.8,17.5C845.8,106.1,850.1,87.3,837,88.6z"/>
<path class="st12" d="M752.5,249.6c0,0,5.9-3.4,19.3,3.4C771.8,253,764.2,248.2,752.5,249.6z"/>
<path class="st44" d="M721.8,308.4c0,0-24.2,2.7-20.1,6.9c4.1,4.1,21.5,7.3,37.9-6.9"/>
<path class="st14" d="M818.2,320.6c0,0,25.5,0.3,34-9.7c8.8-10.5,11.5-12.3,11-12l-5,0.8c0,0-6.1,15.2-32.3,18.4"/>
<path class="st12" d="M501,57.6c0,0,9.1,1,11.2,6.4l11-6.2C523.1,57.8,513.8,50.9,501,57.6z"/>
<path class="st22" d="M507.1,102.8c-0.6,2.8-3.4,3.3-6.1,3.2l-2.7,2.1l3.9-0.7c2-0.4,3.8-1.7,4.6-3.6l0.2-0.4c0,0,8.5,2,9.1,0.8
	c0.1-0.2,0.1-0.5,0.1-0.9C515.1,104.4,507.8,99.8,507.1,102.8L507.1,102.8z"/>
<path class="st37" d="M397.9,95.9c0,0,2.7-7.8,5.3-6.6s1.8,3.2-1.6,6.4"/>
<path class="st12" d="M433.3,83.4c0,0,9.4,9.6,10.1,16.9C443.4,100.3,445.2,94.1,433.3,83.4z"/>
<path class="st18" d="M748.3,56l23.5-4.3l2.4-3.4c0,0-12.8,3.4-25,0.9C737.1,46.9,748.3,56,748.3,56z"/>
<path class="st12" d="M873.5,349.9c0,0,11.9,1.8,9.1,9.1C882.6,359.1,883,354.2,873.5,349.9z"/>
<path class="st27" d="M583,316.1c0,0-10.3,10.7,3.9,26.2c11.5,12.6,43.9,17.1,45.5,41.8l-4.3,1.2c0,0-5.3-12.2-24.1-20.4
	c-18.7-8.2-39.3-23.8-38.8-35.6"/>
<path class="st0" d="M551.4,189.1c0,0,1.4-16.4,18.7-20.1C570.2,169,551.4,169.3,551.4,189.1z M620,171.3c0,0,25.6,3.7,34.7-3.2
	C654.7,168.1,641,172.7,620,171.3z"/>
<path class="st2" d="M646,191.4c0,0,27.9-10.1,35.6-10.1C681.6,181.4,659.7,182.3,646,191.4z"/>
<path class="st12" d="M659,261.7c0,0,18.7,2,24.2,35.8C683.2,297.6,678.6,271.2,659,261.7z"/>
<path class="st9" d="M734.6,46c0,0-12.2-4.7-21.2-4.7c0,0-3.2-0.6-4.9,1.7l2,6.8c0.4,1.2,1.2,2.3,2.3,2.9l0.2,0.1l1,2.2
	c0.3,1.3,2.6,7.8,3.6,8c0.6,0.1,0.9-0.2,1.3-0.4c0.7-0.4,0.8-1.1,1.1-0.6c0.6,0.9,1.7,2.6,1.7,2.6s1,0,1.9,1.1
	c1,1.2,1.1,3.2,4.1,2.9c4.2-0.4,6.9-6,8.6-11.1C738.2,51.8,734.6,46,734.6,46L734.6,46z"/>
<g>
	<path class="st8" d="M734.6,46c0,0-5.4-2.1-11.6-3.5c0.5,0.2,0.9,0.5,1.4,0.7c1.3,0.7,2.7,1.4,3.8,2.4c1.2,1,2.2,2.2,2.6,3.7
		c0.3,1.2,0.3,2.5,1,3.5c0.5,0.7,1.2,1.1,1.8,1.6c1.1,1,1.8,2.5,2,4c0,0.2,0.1,0.5,0.1,0.7l0.6-1.8C738.2,51.8,734.6,46,734.6,46
		L734.6,46z"/>
</g>
<path class="st45" d="M710.9,41.1c0,0,9.4-0.6,20.7,8.5c5.9,4.7,15.5,7.3,15.5,7.3l0.6-7.3C747.8,49.7,718.5,38.4,710.9,41.1z"/>
<g>
	<path class="st46" d="M715.2,53.6c-0.3-0.6-0.1-1.4,0.6-1.8l4.5-2.2c1.8-0.8,3-1,4.6,0.9c1.4,1.8,0.7,4.4-0.9,5.1
		c-4.4,1.9-6.6,0.3-7.8-0.9C715.7,54.5,715.4,54.1,715.2,53.6L715.2,53.6z M710.7,54.3l-3.2,1.5c-3.2,2.2,0.6,6.1,4.4,5.6
		c3.8-0.5,2.1-5,1.7-5.9C713.2,54.3,711.9,53.7,710.7,54.3z"/>
</g>
<path class="st8" d="M721,63.9l0.6,0.2c0,0,0.5-0.8,1.6-1.1c4.1-1.1,3.2-2.3,4.1-3.4c0,3.6-3.9,6.9-5.6,6.1"/>
<path class="st8" d="M724.8,66.3c-0.6,0.4-1.4,0.3-2.5,0.1l-0.4-0.6c0,0,0.5,0.6,2.3-2l2.7-2.5l-0.7,2.8
	C726,65,725.5,65.8,724.8,66.3L724.8,66.3z"/>
<path class="st47" d="M723.6,49.5l7.9-5.9"/>
<path class="st46" d="M715.2,53.6c0,0-1.8-0.1-2.1,1"/>
<path class="st31" d="M405,91.3l-3,4.3l1.5,1.8c0,0,2.1-5,4.9-4.8c2.7,0.2,2-3.5,2-3.5L405,91.3z"/>
<g class="st48">
	<path class="st25" d="M596.5,127.4l-6.2-2.9c-0.6-2.6-2-5.3-4-7.5c-2.8-2.9-5.9-3.7-7.6-1.9c-2.4,2.6-0.8,9.1,3.1,13.3
		c2.7,2.9,5.8,3.7,7.5,2c0.7-0.7,1.1-1.8,1.2-3l6.2,3.1c0.7,0.3,1.2-0.1,1.1-0.9C597.9,128.7,597.2,127.8,596.5,127.4z"/>
	
		<ellipse transform="matrix(-0.4929 -0.8701 0.8701 -0.4929 765.0515 691.0954)" class="st0" cx="583.92" cy="122.6" rx="6.3" ry="3.5"/>
</g>
<ellipse transform="matrix(-0.4735 -0.8808 0.8808 -0.4735 680.2396 837.4912)" class="st49" cx="590.43" cy="215.43" rx="5.7" ry="12.9"/>
<path class="st50" d="M589.2,217.4l4.3-1.8l-0.2-2.3 M590.8,213.2l-4.3,1.8l0.2,2.2"/>
<ellipse transform="matrix(-0.5993 -0.8005 0.8005 -0.5993 26.4765 669.2417)" class="st51" cx="180.72" cy="327.99" rx="23.9" ry="14.8"/>
<path class="st2" d="M177.3,314.1l-7.9,12.3c-0.2,0.3,0,1,0.4,1.4l2.4,2.4c0.4,0.5,1,0.5,1.2,0.2s0-1-0.4-1.4l-1.6-1.6l2.7-4.4
	l14.1,14.2l-0.1,0.4c-0.2,0.3,0,1,0.4,1.4c0.4,0.5,1,0.5,1.2,0.2l2-3.1c0.2-0.3,0-1-0.4-1.4c-0.4-0.5-1-0.5-1.2-0.2l-0.6,0.4
	l-14.1-14.2l3.2-4.4l1.6,1.6c0.4,0.5,1,0.5,1.2,0.2c0.2-0.3,0-1-0.4-1.4l-2.4-2.4C178.1,313.8,177.5,313.8,177.3,314.1L177.3,314.1z
	"/>
<path class="st12" d="M169.1,307.4c0,0,9.3-4.1,21.6,9.2c0,0,6.6,6.9,8.4,17.1c0,0-1.2-14.4-12.9-23
	C174.3,302,169.1,307.4,169.1,307.4z"/>
<g>
	<path class="st25" d="M252.6,126.2c-8,0-9.9,6.5-4.3,14.5s16.6,14.5,24.6,14.5s9.9-6.5,4.3-14.5S260.6,126.2,252.6,126.2z
		 M269.1,149.9c-5,0-12-4.1-15.5-9.1s-2.3-9.1,2.7-9.1s12,4.1,15.5,9.1S274.1,149.9,269.1,149.9z"/>
	<path class="st52" d="M253.7,146.7l3.2-2c0,0,7.2,6.4,14.1,4.8l5,5.3C275.9,154.8,267.1,157.8,253.7,146.7L253.7,146.7z"/>
	<path class="st53" d="M252.2,126.5l3.7,5.2c0,0-10.9,0.9,0.8,12.8l-3.1,2c0,0-8.9-6.4-8.8-15.8
		C244.8,130.7,246.1,125.6,252.2,126.5z"/>
</g>
<path class="st0" d="M147.2,201.4l-30.3,32.1l19.7,28.3l30.4,0.8l-14.9-21.2l20.9-22.1L147.2,201.4z"/>
<path class="st26" d="M116.9,233.5l19.7,28.3l30.5,0.7l-1.9,2.6h-27c-1.7,0-3.2-0.8-4.2-2.2l-18.7-27.4c-1.2-1.8-1-4.2,0.5-5.7
	l29.6-30.5l1.9,2L116.9,233.5L116.9,233.5z"/>
<path class="st5" d="M116.9,233.5l35.8,8.1l14,20.6c0.1,0.2,0,0.4-0.2,0.4l-26.8-0.2c-3.4,0.1-3.9-1-5-2.7L116.9,233.5L116.9,233.5z
	"/>
<path class="st53" d="M199.8,123.7L182.3,138c0,0-1.7-6-9.5-3.1c-7.8,2.8,1.9,12.4,8.5,7.4l15.8-12.9l6,13.1l-12.4,10
	c0,0-5.2-6.6-10.2-2.5c-5,4,4.2,11.7,9.8,6.3l17.5-14.3L199.8,123.7z"/>
<ellipse transform="matrix(-0.7571 -0.6533 0.6533 -0.7571 83.6101 376.6332)" class="st51" cx="111.82" cy="172.77" rx="9.7" ry="15.7"/>
<path class="st45" d="M119.5,166.5h-2.7l-1.3,3.3l2.7-0.1L119.5,166.5z M117.6,171.1l-2.7,0.1l-1.2,3h2.7L117.6,171.1z M107.4,175.8
	c0.1,0.3,0.2,0.7,0.3,1l0.4-1H107.4z M109.9,171.3l-2.7,0.1l-0.2,0.5c0,0.9,0.1,1.7,0.2,2.6h1.5L109.9,171.3z M111.9,175.7l-2.6,0.1
	l-1.1,2.6l0.3,0.6h2.1C110.6,179,111.9,175.7,111.9,175.7z M115.8,175.6l-2.7,0.1l-1.3,3.2l2.7-0.1L115.8,175.6z M111.8,166.7H109
	l-1.2,3.2h2.7L111.8,166.7z M115.6,166.6H113l-1.3,3.2h2.6L115.6,166.6z M113.7,171.2l-2.6,0.1l-1.2,3h2.6L113.7,171.2z"/>
<path class="st0" d="M120.7,165l-11.7,0.3c-0.3,0-0.7,0.3-0.9,0.7l-0.4,1.1l-5.1,12.6c-0.2,0.4,0,0.7,0.3,0.7l6.4-0.1l5.2-0.1
	c0.3,0,0.7-0.3,0.9-0.7l5.5-13.7C121.1,165.3,121,165,120.7,165z M109,166.7l2.7-0.1l-1.3,3.2l-2.7,0.1L109,166.7z M107.2,171.4
	l2.7-0.1l-1.2,3.1H106l1-2.6L107.2,171.4z M106.8,179l-2.7,0.1l1.3-3.2h2.7l-0.4,1L106.8,179L106.8,179z M110.6,178.9H108l0.2-0.6
	l1.1-2.6l2.6-0.1C111.9,175.6,110.6,178.9,110.6,178.9z M112.5,174.3l-2.6,0.1l1.2-3.1l2.6-0.1L112.5,174.3z M114.3,169.8l-2.6,0.1
	l1.3-3.2l2.6-0.1L114.3,169.8z M114.5,178.8l-2.7,0.1l1.3-3.2l2.7-0.1L114.5,178.8z M116.4,174.2l-2.7,0.1l1.2-3.1l2.7-0.1
	L116.4,174.2z M118.2,169.7l-2.7,0.1l1.3-3.2l2.7-0.1L118.2,169.7z"/>
<path class="st33" d="M106.4,164.4c0,0,8.5-7.3,15.1-2.7c0,0,3.6,2.3,2.4,9.1c0,0,2.7-10.4-4.6-11.6
	C112,157.9,106.4,164.4,106.4,164.4z"/>
<path class="st53" d="M260.4,178.9l8.3,3.3l-1.3-8.8L260.4,178.9z"/>
<path class="st25" d="M301.7,123.5v-3.8l-3.3-1.8l-3.2,1.8v3.8l3.2,1.8L301.7,123.5z"/>
<ellipse class="st7" cx="186.1" cy="360.7" rx="14.6" ry="5.3"/>
<path class="st15" d="M200.7,190.3c0,0-12.4,25.1,21.8,41.8l18.9-22.3c0,0-25.9-5.9-19-36.2L200.7,190.3z"/>
<path class="st0" d="M208,209.1c0,0,1.4,5.3,7.2,8.1V216c0,0-4.6-2.5-6.4-7.5L208,209.1L208,209.1z M209.7,203.1
	c0,0,2.2,7.5,7.8,10.4l0.6-0.9c0,0-5.7-4.4-7.6-10.6L209.7,203.1z M215.4,196.5c0,0,2.2,7.5,7.8,10.4l0.6-0.9c0,0-5.7-4.4-7.6-10.6
	L215.4,196.5z M211.6,198c0,0,1.7,8,8.9,12.2l0.7-1.1c0,0-6.6-5.1-8.8-12.2L211.6,198L211.6,198z M199.5,210.3
	c0,0-1.4-11.4,5.6-14.8c0,0-1.1-9.6,6-13.4C211.1,182.1,191.6,186.7,199.5,210.3z M217.9,220.8l10.3-11.9l1.1,0.7l-10.2,11.9
	L217.9,220.8z M220.1,223l10.2-11.9l1.2,0.7l-10.3,11.9L220.1,223z"/>
<path class="st12" d="M222.4,173.5c0,0-8.5,28.6,19.2,36.6C241.7,210.1,212.1,207.7,222.4,173.5z"/>
<path class="st26" d="M127.4,241.1l7.2,10.9l21.8,1.6l-5.9-8.5L127.4,241.1z M147.2,202.4l25.8,16.9l-1.1-2.3l-26.6-17.6"/>
<path class="st53" d="M145.8,206.3l23,14.2l-17.1,19.1l-30.3-7.3L145.8,206.3z"/>
<path class="st15" d="M239.2,292.5c0.5,1.3-0.1,2.7-1.4,3.3l-16,6.8l-2.4-4.6l16.4-6.9C237.1,290.5,238.7,291.1,239.2,292.5z
	 M217.4,298.4l2.6,5.1l-6.5-0.2L217.4,298.4z"/>
<path class="st1" d="M112.6,212.3c0,0-9.6,2.1-8.2,12.3l-8.9-4.1c0,0,6.2-15.8,15.1-15.1L112.6,212.3L112.6,212.3z"/>
<path class="st12" d="M173,219.3l-20.3,22.2l0.7-0.1l20.1-21.9l-1.6-2.5L173,219.3z"/>
<g class="st54">
	
		<ellipse transform="matrix(-0.2753 -0.9614 0.9614 -0.2753 669.7267 802.7166)" class="st51" cx="637.41" cy="148.93" rx="5.9" ry="12.1"/>
	<path class="st0" d="M642,146.4c-0.3,0.1-0.5,0.3-0.5,0.5l1.5,3.5c0.1,0.2,0.4,0.2,0.7,0.1s0.5-0.3,0.5-0.5l-1.5-3.5
		C642.6,146.3,642.3,146.3,642,146.4z M637.8,149.6c-0.3,0.1-0.5,0.3-0.5,0.5l0.8,1.8c0.1,0.2,0.4,0.2,0.7,0.1s0.5-0.3,0.5-0.5
		l-0.8-1.8C638.4,149.6,638.1,149.5,637.8,149.6z M632.8,151.3c0.3-0.1,0.5-0.3,0.5-0.5l-1.5-3.4c-0.1-0.2-0.4-0.2-0.7-0.1
		s-0.5,0.3-0.5,0.5l1.5,3.4C632.2,151.4,632.5,151.4,632.8,151.3z M635,151.3l-3.8,1.2c-0.3,0.1-0.5,0.3-0.5,0.5
		c0.1,0.2,0.4,0.2,0.7,0.1l1.3-0.4l0.4,0.9c0.1,0.2,0.4,0.2,0.7,0.1s0.5-0.3,0.5-0.5l-0.4-0.9l1.3-0.4c0.3-0.1,0.5-0.3,0.5-0.5
		C635.6,151.2,635.3,151.2,635,151.3z M639.2,148l-1.3,0.4l-1.1-2.6c-0.1-0.2-0.4-0.2-0.7-0.1s-0.5,0.3-0.5,0.5l1.1,2.6l-1.3,0.4
		c-0.3,0.1-0.5,0.3-0.5,0.5c0.1,0.2,0.4,0.2,0.7,0.1l3.8-1.2c0.3-0.1,0.5-0.3,0.5-0.5S639.5,147.9,639.2,148z M643.4,144.7l-1.3,0.4
		l-0.4-0.9c-0.1-0.2-0.4-0.2-0.7-0.1s-0.5,0.3-0.5,0.5l0.4,0.9l-1.3,0.4c-0.3,0.1-0.5,0.3-0.5,0.5c0.1,0.2,0.4,0.2,0.7,0.1l3.8-1.2
		c0.3-0.1,0.5-0.3,0.5-0.5S643.7,144.6,643.4,144.7z"/>
</g>
<path class="st1" d="M552.4,243v-3.2l-2.8-1.7l-2.8,1.7v3.2l2.8,1.6L552.4,243z"/>
<g class="st55">
	
		<ellipse transform="matrix(-0.9957 -0.0922 0.0922 -0.9957 1696.8809 381.9696)" class="st33" cx="857.26" cy="151.8" rx="11.7" ry="18.5"/>
	<g>
		<path class="st27" d="M859.9,152.4l-2.9-4.7l3-4.4l2.8,4.6L859.9,152.4z"/>
		<path class="st27" d="M855.1,155l7.4,0.7l-7.4-12.3V155z"/>
	</g>
	<path class="st56" d="M850,152.8l6.3,10.4"/>
	<path class="st12" d="M851.9,136.3c0,0,4.2-6.2,11.1-2.1c6.1,3.6,8.4,15.1,4.7,24.5c0,0.1-0.1,0.2-0.1,0.4c0,0,3.7-11.9-0.8-18.3
		C862.4,134.5,859.5,132.7,851.9,136.3z"/>
</g>
<path class="st49" d="M881.8,315.1c3.8-7.5,5.4-18.7-0.5-34.8l-31.2,3.2c0,0,15.7,23.8-12.2,42.2l20,2.2
	C867.7,328.9,877.3,324,881.8,315.1L881.8,315.1z"/>
<path class="st57" d="M883,314.3c0,0-7.4,9.9-15.3,7.3c0,0-8.2,6.1-14.6,5.9C853,327.5,874.9,333.2,883,314.3L883,314.3z"/>
<path class="st2" d="M877.6,292.4l-16.8,1.7l-0.4-1.4l16.8-1.7L877.6,292.4z M876.7,289.1l-16.8,1.7l-0.4-1.4l16.8-1.7L876.7,289.1z
	 M877.7,302.5l-16.9,0.7l-0.3-1.5l16.9-0.6L877.7,302.5z M877.2,299.2l-16.8,0.7l-0.4-1.4l16.9-0.7L877.2,299.2z M875.3,311.9
	l-16.8,0.6l-0.3-1.5l16.8-0.5L875.3,311.9z M876.7,308.7l-16.8,0.5l-0.4-1.4l16.9-0.5L876.7,308.7z"/>
<g class="st58">
	
		<ellipse transform="matrix(-0.9811 -0.1933 0.1933 -0.9811 1652.7528 877.4289)" class="st59" cx="869.18" cy="358.08" rx="15.1" ry="9.3"/>
	<path class="st60" d="M870.1,355l-1.8,6 M874.2,359.2l-9.9-2.3"/>
</g>
<ellipse transform="matrix(-0.9889 -0.1484 0.1484 -0.9889 1673.65 889.8594)" class="st61" cx="870.02" cy="382.49" rx="12" ry="4.5"/>
<ellipse transform="matrix(-0.8613 -0.5081 0.5081 -0.8613 1536.1735 1058.7286)" class="st62" cx="912.59" cy="319.69" rx="11" ry="17.5"/>
<path class="st2" d="M912.5,314.1l-4.2,11.4l9.2-4.9L912.5,314.1z"/>
<path class="st53" d="M893.9,178.7l18,18.9c0,0-5.9,3.1-1.6,12.1s12.6-4.5,6.2-11.7l-16.2-17c0,0,12.5-8.5,15.5,8.9l2.4-1.6
	C918.1,188.3,915.3,163.8,893.9,178.7L893.9,178.7z"/>
<path class="st63" d="M893.9,178.7c0,0,11-11.2,19.8-1.7C913.7,177,904.8,171.3,893.9,178.7z"/>
<path class="st12" d="M898.6,155l2-8.7l-8.5,2.6L898.6,155z"/>
<path class="st53" d="M870.6,195.9v-2.8l-2.4-1.4l-2.4,1.4v2.8l2.4,1.4L870.6,195.9z M796.2,235h-3.9l2.3-3.1l-1.2-3.7l3.7,1.3
	l3.2-2.4l-0.1,4l3.2,2.2l-3.8,1.2l-1.2,3.7L796.2,235z M623.9,217.8l7.1-5.3l-8.1-3.5L623.9,217.8z"/>
<path class="st3" d="M451.7,428.2l10.7-11c1.5-1.6,4.1-1.7,5.8-0.2l22.1,19.2c1.9,1.6,1.9,4.5,0.1,6.2l-9.8,9.4
	c-1.5,1.4-3.8,1.6-5.4,0.3l-22.9-17.6C450.1,432.9,449.9,430,451.7,428.2L451.7,428.2z"/>
<g>
	<path class="st10" d="M448,406.7l23.6,32.8c2.2,3.2,6.1,3.6,8.6,1.1l13.2-13.3c2.6-2.6,2.8-7.3,0.4-10.4l-23.7-30.8
		c-2.1-2.8-5.6-3.2-8.1-1.1l-13.1,11.3C446.2,398.7,445.7,403.4,448,406.7L448,406.7z"/>
	<path class="st2" d="M449.9,403.4l23.7,33.8l18.5-18.3L468,387.6L449.9,403.4z"/>
	<path class="st15" d="M469.4,423.8l12.3-11.3l1,1.5l-12.1,11.6L469.4,423.8z M472.6,428.5l12.2-11.4l1,1.5l-12.1,11.7L472.6,428.5z
		"/>
	<g>
		<path class="st25" d="M465.7,397c-4.1,0.7-6.8,5.3-6.1,10.2c0.7,4.9,4.7,8.3,8.8,7.6c4.1-0.7,6.8-5.3,6.1-10.2
			S469.8,396.2,465.7,397z M467.9,411.4c-2.6,0.4-5-1.7-5.5-4.8s1.3-5.9,3.8-6.4c2.6-0.4,5,1.7,5.5,4.8
			C472.2,408.1,470.5,411,467.9,411.4z"/>
		<path class="st12" d="M461,410.7l2.2-1.7c0,0,2,3.6,5.9,2l1.1,3.2C470.2,414.2,464.9,417,461,410.7z"/>
		<path class="st53" d="M465.7,397l0.5,3.3c0,0-6,1.6-3.1,8.8l-2.2,1.7c0,0-3-3.6-0.3-10.2C460.6,400.5,462.7,396.9,465.7,397
			L465.7,397z"/>
	</g>
</g>
<path class="st2" d="M999.8,202.31l441.1,1.7v45.81c0,0-118,130.99-223,49.89c0,0-74-99.9-218,1.9"/>
<polyline class="st0" points="993.65,0 1441,0 1441,204.2 993.55,202.5 "/>
<path class="st1" d="M993.22,203.53c0,0,9.3-14.3,14.3-8.1l5,6.2c0,0,1.9-6.2,7.5-2.5l5.6,3.7L993.22,203.53L993.22,203.53z"/>
<path class="st1" d="M1127,224.41c0,0,4.5-7,7-3.9l2.4,3c0,0,0.9-3,3.6-1.2l2.7,1.8L1127,224.41L1127,224.41z"/>
<path class="st1" d="M1198.48,203.71c0,0,6.1-24.1,9.2-17.9c3.1,6.2,5.2,20.2,5.2,20.2L1198.48,203.71L1198.48,203.71z"/>
<path class="st1" d="M1212.88,203.58c0,0,4.4-18,6.7-13.4c2.3,4.6,3.8,15,3.8,15L1212.88,203.58z"/>
<path class="st1" d="M1303.8,231.11c0,0,9.3-14.2,14.2-8.1l5,6.2c0,0,2.1-6.6,7.4-2.5c6.7,5.1,7.3,5.8,5.6,3.7L1303.8,231.11
	L1303.8,231.11z"/>
<path class="st1" d="M1721.1,207.71c0,0,5.8-8.9,8.9-5l3.1,3.9c0,0,1.2-3.9,4.6-1.5l3.5,2.3L1721.1,207.71z"/>
<path class="st1" d="M1748.5,187.41c0,0,5.3-21.2,8.2-15.4c2.9,5.8,4.8,18.8,4.8,18.8L1748.5,187.41L1748.5,187.41z"/>
<path class="st4" d="M1069.3,209.2V230h-4.4v-19.1C1064.9,210.9,1069.3,208.4,1069.3,209.2z"/>
<path class="st5" d="M1053.8,213.8c0,0-9.1-19.9-0.8-32.4s2.8-39.7,15.8-39.1c15.8,0.8,17.4,54.8,15,64
	C1080.7,217.5,1066.3,228.7,1053.8,213.8z"/>
<ellipse class="st1" cx="1065.9" cy="230.5" rx="16.2" ry="2.8"/>
<path class="st7" d="M1066.5,143.5c0,0-8.1,10.6-1.2,24.9c6.9,14.3,6.9,55.5-3.7,50.5s-14.3-24.9-8.7-34.3
	c5.6-9.3,6.2-28.7,6.2-28.7S1057.2,142.3,1066.5,143.5z"/>
<path class="st15" d="M980.32,250.09c0,0,9.81-26.22-25.9-39.39l-16.56,24.09c0,0,26.36,3.26,22.55,34.1L980.32,250.09z"/>
<path class="st0" d="M971.16,232.13c0,0-1.93-5.13-7.98-7.33l0.12,1.19c0,0,4.83,2.02,7.12,6.82L971.16,232.13L971.16,232.13z
	 M970.08,238.27c0,0-2.94-7.24-8.81-9.56l-0.51,0.96c0,0,6.11,3.8,8.63,9.78L970.08,238.27z M965.07,245.41c0,0-2.94-7.24-8.81-9.56
	l-0.51,0.96c0,0,6.11,3.8,8.63,9.78L965.07,245.41z M968.7,243.53c0,0-2.5-7.79-10.08-11.24l-0.59,1.16c0,0,7.08,4.41,9.98,11.25
	L968.7,243.53L968.7,243.53z M979.5,230.08c0,0,2.54,11.2-4.08,15.29c0,0,2.06,9.44-4.62,13.94
	C970.8,259.3,989.74,252.76,979.5,230.08z M960.14,221.48l-9.05,12.88l-1.16-0.59l8.95-12.87L960.14,221.48z M957.72,219.52
	l-8.95,12.87l-1.26-0.58l9.05-12.88L957.72,219.52z"/>
<g>
	<path class="st10" d="M992.59,91.58l-36.33,17.68c-3.53,1.62-4.58,5.4-2.55,8.29l10.86,15.27c2.12,3,6.72,4,10.18,2.16l34.38-18.12
		c3.12-1.59,4.1-4.97,2.46-7.8l-8.91-14.83C1000.78,91.16,996.24,89.87,992.59,91.58L992.59,91.58z"/>
	<path class="st2" d="M995.52,94.01l-37.34,17.61l14.89,21.34l34.94-18.43L995.52,94.01z"/>
	<path class="st15" d="M972.11,109.76l9.05,14.04l-1.65,0.73l-9.38-13.89L972.11,109.76z M966.93,112.12l9.16,13.96l-1.65,0.73
		l-9.47-13.91L966.93,112.12z"/>
	<g>
		<path class="st25" d="M999.15,110.67c0.01-4.16-4.07-7.6-9.02-7.74c-4.95-0.14-8.98,3.22-8.98,7.38c-0.01,4.16,4.07,7.6,9.02,7.74
			C995.11,118.19,999.24,114.85,999.15,110.67z M984.58,110.39c0.05-2.63,2.52-4.64,5.66-4.6c3.14,0.03,5.59,2.28,5.66,4.83
			c-0.05,2.63-2.52,4.64-5.66,4.6C987.1,115.19,984.53,113.02,984.58,110.39z"/>
		<path class="st12" d="M986.44,103.71l1.3,2.46c0,0-3.89,1.36-2.97,5.47l-3.34,0.54C981.43,112.18,979.57,106.48,986.44,103.71z"/>
		<path class="st53" d="M999.15,110.67l-3.34-0.07c0,0-0.56-6.18-8.15-4.55l-1.3-2.46c0,0,4.06-2.34,10.1,1.44
			C996.56,105.05,999.75,107.73,999.15,110.67L999.15,110.67z"/>
	</g>
</g>
<path class="st1" d="M1195.15,201.17l125.16,0.25c-3.43-14.8-23.24-13.47-31.53-12.4c-8.3,1.07-3.16-12.31-9.97-20
	s-20.48,5.84-20.48,5.84s-13.6,14.29-17.53-19.96c-2.14-17.23-27.86-10.41-27.86-10.41L1195.15,201.17z"/>
</svg>
