<?xml version="1.0" encoding="utf-8"?>
<!-- Generator: Adobe Illustrator 19.0.0, SVG Export Plug-In . SVG Version: 6.00 Build 0)  -->
<svg version="1.1" id="Layer_1" xmlns="http://www.w3.org/2000/svg" xmlns:xlink="http://www.w3.org/1999/xlink" x="0px" y="0px"
	 viewBox="0 0 722.4 395.06" style="enable-background:new 0 0 722.4 395.06;" xml:space="preserve">
<style type="text/css">
	.st0{fill:#549CEA;}
	.st1{opacity:0.5;fill:#0C76C3;enable-background:new    ;}
	.st2{fill:#1BBFB3;}
	.st3{opacity:0.4;fill:#003868;enable-background:new    ;}
	.st4{opacity:0.6;fill:#002C55;enable-background:new    ;}
	.st5{fill:#0C76C3;}
	.st6{fill:#188BD1;}
	.st7{opacity:0.3;fill:#003868;enable-background:new    ;}
	.st8{fill:#003868;}
	.st9{opacity:0.5;fill:#549CEA;enable-background:new    ;}
	.st10{fill:#0071BF;}
	.st11{fill:#29CEC2;}
	.st12{fill:#F8F8F5;}
	.st13{fill:#054C90;}
	.st14{fill:#D43129;}
	.st15{opacity:0.5;fill:#F8F8F5;enable-background:new    ;}
	.st16{fill:#F9CFCF;}
	.st17{opacity:0.7;fill:#003868;enable-background:new    ;}
	.st18{opacity:0.5;fill:#003868;enable-background:new    ;}
	.st19{opacity:0.6;fill:#003868;enable-background:new    ;}
	.st20{opacity:0.6;fill:#001C36;enable-background:new    ;}
	.st21{opacity:0.8;fill:#001C36;enable-background:new    ;}
	.st22{fill:#88C4F2;}
	.st23{fill:#21BFB7;}
	.st24{opacity:0.5;fill:#001C36;enable-background:new    ;}
	.st25{opacity:0.4;fill:#F8F8F5;enable-background:new    ;}
	.st26{fill:#014272;}
	.st27{fill:#002C55;}
	.st28{opacity:0.3;fill:#002C55;enable-background:new    ;}
	.st29{opacity:0.4;fill:#002C55;enable-background:new    ;}
	.st30{opacity:0.5;fill:#D43129;enable-background:new    ;}
	.st31{fill:#001C36;}
	.st32{opacity:0.5;fill:#002C55;enable-background:new    ;}
	.st33{fill:#99D7FF;}
	.st34{fill:#FFFFFF;}
	.st35{fill:#0096FF;}
	.st36{opacity:0.3;fill:#549CEA;enable-background:new    ;}
	.st37{opacity:0.4;fill:#549CEA;enable-background:new    ;}
	.st38{fill:#2B7FE2;}
	.st39{opacity:0.5;fill:#0071BF;enable-background:new    ;}
	.st40{fill:#71CCF4;}
	.st41{opacity:0.4;fill:#001C36;enable-background:new    ;}
	.st42{opacity:0.2;fill:#001C36;enable-background:new    ;}
	.st43{fill:#6CC3FF;}
	.st44{opacity:0.3;fill:#001C36;enable-background:new    ;}
	.st45{fill:none;}
	.st46{fill:none;stroke:#001C36;stroke-width:0.914;stroke-miterlimit:10;}
	.st47{fill:none;stroke:#001C36;stroke-width:0.914;stroke-linecap:round;stroke-miterlimit:10;}
	.st48{opacity:0.5;}
	.st49{opacity:0.6;fill:#F8F8F5;enable-background:new    ;}
	.st50{opacity:0.5;fill:none;stroke:#0071BF;stroke-width:0.914;stroke-miterlimit:10;enable-background:new    ;}
	.st51{opacity:0.6;fill:#D3EDFF;enable-background:new    ;}
	.st52{opacity:0.8;fill:#F8F8F5;enable-background:new    ;}
	.st53{opacity:0.3;fill:#F8F8F5;enable-background:new    ;}
	.st54{opacity:0.4;}
	.st55{opacity:0.3;}
	.st56{fill:none;stroke:#002C55;stroke-width:1.583;stroke-miterlimit:10;}
	.st57{fill:#18A093;}
	.st58{opacity:0.6;}
	.st59{fill:none;stroke:#003868;stroke-width:1.827;stroke-miterlimit:10;}
	.st60{fill:none;stroke:#002C55;stroke-width:2.284;stroke-linecap:round;stroke-linejoin:bevel;stroke-miterlimit:10;}
	.st61{opacity:0.2;fill:#003868;enable-background:new    ;}
	.st62{opacity:0.4;fill:#D3EDFF;enable-background:new    ;}
	.st63{opacity:0.4;fill:#FFFFFF;enable-background:new    ;}
</style>
<path id="XMLID_308_" class="st0" d="M748.4-76.84h-1000v268.7c16.6,35,56,53.6,93.7,55.7c75.6,4.2,147.6-45.6,223.1-32.9
	c78.2,13.1,136.7,87.1,236.2,120.1c52.9,17.5,119.7,14.5,177.4,0.2c69.7-17.3,127.2-48.6,269.5-111.8L748.4-76.84z"/>
<path id="XMLID_305_" class="st1" d="M674.1,174.46c0,0,13.7-22.6,22.6-16.4c8.9,6.2,25.4,17.8,31.5,4.1
	c6.2-13.7,21.8-10.3,21.8-10.3v46.6l-79.4-15.1L674.1,174.46L674.1,174.46z M-249.9,195.16l119.5-37.2c-7.7-13.1-26.2-5.9-33.8-2.4
	s-6.7-10.8-15.5-16.1s-17.8,11.7-17.8,11.7s-8.7,17.7-22.7-13.8c-7.2-15.8-29.7-1.6-29.7-1.6V195.16z"/>
<path id="XMLID_304_" class="st2" d="M-249.71,198.16c14,25.4,39.6,39,47.5,43.3l8.9,4c87.8,22.5,121.3-19.2,217.1-27.2
	c124-10.3,167.3,113,330.7,130c151,15.7,381.2-113.5,395.7-121.4v-101.1l-1000,4.7L-249.71,198.16L-249.71,198.16z"/>
<path id="XMLID_303_" class="st1" d="M464.69,205.86c0,0,8.7-13.4,13.4-7.6l4.6,5.8c0,0,1.7-5.8,7-2.3l5.2,3.5L464.69,205.86z"/>
<path id="XMLID_302_" class="st2" d="M-249.9,189.56c0,0,140.6-49,223-36.4s134.5,24.8,195.2,24.8s266.8-54.8,376.3-32.4
	s205.4,42.5,205.4,42.5l-999.9,7.8V189.56z"/>
<g id="XMLID_299_">
	<path id="XMLID_301_" class="st3" d="M166.7,240.16C166.6,240.26,166.7,240.26,166.7,240.16z"/>
	<path id="XMLID_300_" class="st3" d="M617.2,351.46c-3-2.1-7.1-7.8-13.7-11.3c-19.6-10.4-32-30.7-32-52.9c0-18.1-2.8-35.7-25-41.6
		c-45.9-12.3-194.6-15.8-194.6-15.8l0.2,0.2c-21.8-1-50.6-2.4-61.3-3.2c-12.7-1.1-40.1-7.6-51.1-4.7c-5.1,1.4-14.3,8-19.4,6.6
		c-12.8-3.4-32.1-7.4-44.3-6.9c0,0-0.3,0-0.8,0.1c-12.2-0.2-26,2-29.6,4.7c-4.5-1-10.8-1-15.8-0.7c-12.1,0.7-15.8,2.5-15.8,2.5
		l-3.4,1.4c-29.2,6.5-46.2,6.7-50.6,9.8c-4.4,3-8.9,38.4-8.9,38.4l22.4,3.9c-1.4-19.9,33.8-34.5,40.5-35.1c6.5-0.5,8.1-5.6,14.6-5.6
		c5.4,0,4.5-0.2,5.5-0.7c4.2,0.8,13,0.2,13,0.2l19.5-0.7l-0.4-0.8c1.4-0.1,19.5-1.3,45.2,8.5c-3,1.9-2.6,9.5-2.6,11.8
		c0,8.1,21.2,16.2,38.4,14.4c25.4-2.7,32.9-7.7,32.9-15.8c0-1.9,8.7-8,15.5-8.2c15-2.2,42.6-2.9,51.6,2.5c56.8,12.6,68,5.9,63.2-3.3
		c28.5,3.6,79.8,2.2,108.8,12.2c16.9,5.8,25.8,30.3,29.3,46.4c1.2,5.5-3.6,10.4-9.2,9.4c-33-6.4-46.6-1.3-41.3,15.6
		c2.9,9.4,23.7,12.4,27.4,27.4c6.2,24.7-52.8,10.9-52.8,10.9l-0.2-0.4c-47.1-16.9-82.5-32.9-149.2-31.1
		c-84.6,2.2-163.3-18.7-198-37.4l72,47.1c0,0,7.9,3.1,24,6.7c16.7,3.8,33.9,5.4,51,5c9.8-0.3,22.3,0.2,33.2,3.4
		c33.6,9.6,22.2,28.5,52.3,30.7c11.7,0.8,23-3.7,31.4-11.9c6.4-6.3,19.7-10.8,45.8,6c7.7,4.9,14.6,12.4,40.7,9.6
		C522.2,392.16,617.2,351.46,617.2,351.46L617.2,351.46z"/>
</g>
<path id="XMLID_298_" class="st2" d="M97.8,253.26c0,0,37.9-27.4,113.3-6.4l-7,13.6"/>
<path id="XMLID_297_" class="st4" d="M-165.6,169.56v20.8h-4.4v-19.1C-170,171.26-165.6,168.76-165.6,169.56z"/>
<path id="XMLID_296_" class="st5" d="M-181.1,174.16c0,0-9.1-19.9-0.8-32.4c8.3-12.5,2.8-39.7,15.8-39.1c15.8,0.8,17.4,54.8,15,64
	C-154.2,177.86-168.6,189.06-181.1,174.16z"/>
<ellipse id="XMLID_295_" class="st1" cx="-169" cy="190.86" rx="16.2" ry="2.8"/>
<path id="XMLID_294_" class="st4" d="M-7.4,158.96v7.9h-1.7v-7.3C-9,159.56-7.4,158.66-7.4,158.96z"/>
<path id="XMLID_293_" class="st6" d="M-13.3,160.06c0,0-3.5-7.6-0.3-12.4c3.2-4.8,1.1-14.6,6-14.9c5.6-0.3,10.4,19.7,5.7,24.4
	C-4.9,160.46-8.5,165.76-13.3,160.06z"/>
<ellipse id="XMLID_292_" class="st1" cx="-8.9" cy="167.06" rx="6.2" ry="1.2"/>
<path id="XMLID_291_" class="st7" d="M-168.4,103.86c0,0-8.1,10.6-1.2,24.9c6.9,14.3,6.9,55.5-3.7,50.5c-10.6-5-14.3-24.9-8.7-34.3
	c5.6-9.3,6.2-28.7,6.2-28.7S-177.7,102.66-168.4,103.86z"/>
<path id="XMLID_283_" class="st1" d="M-153.1,189.36c0,0,9.3-14.3,14.3-8.1l5,6.2c0,0,1.9-6.2,7.5-2.5l5.6,3.7L-153.1,189.36
	L-153.1,189.36z M-56.4,185.86c0,0,4.5-7,7-3.9l2.4,3c0,0,0.9-3,3.6-1.2l2.7,1.8L-56.4,185.86L-56.4,185.86z M17.2,160.56
	c0,0,6.1-24.1,9.2-17.9c3.1,6.2,5.2,20.2,5.2,20.2L17.2,160.56L17.2,160.56z M31.7,162.96c0,0,4.4-18,6.7-13.4s3.8,15,3.8,15
	L31.7,162.96z M120.39,192.56c0,0,9.3-14.2,14.2-8.1l5,6.2c0,0,2.1-6.6,7.4-2.5c6.7,5.1,7.3,5.8,5.6,3.7L120.39,192.56
	L120.39,192.56z M537.7,169.16c0,0,5.8-8.9,8.9-5l3.1,3.9c0,0,1.2-3.9,4.6-1.5l3.5,2.3L537.7,169.16z M565.1,148.86
	c0,0,5.3-21.2,8.2-15.4c2.9,5.8,4.8,18.8,4.8,18.8L565.1,148.86L565.1,148.86z"/>
<ellipse id="XMLID_282_" class="st3" cx="65" cy="349.06" rx="24.7" ry="7"/>
<path id="XMLID_281_" class="st8" d="M381.5,67.86c3.5-0.9,7.6-1.5,10.6,0.4c14,8.9,17.6,4.7,31.7,2.1c27.8-5.1,43.2-28.2,65-28.7
	c21.8-0.4,56.9-18,92.8,15.4l10.5,18.5c0,0,5.5,3.7,5,11c-0.4,7.3-1.4,7.7-7.8,6.4c-6.4-1.3-7.3-7.5-7.3-7.5s-2.1,5-3.4,4.3
	c-2.9-1.5,3.9-7.3,1.7-10.7c-3.5-5.5-24.3-28.1-50.4-28.1c0,0,38.4,65.3,11.9,92.7s-23.9,29.5-23.9,29.5s14.7,49.8,13,59.6
	c0,0,10.5,29.7-10.5,24.2c-10.5-2.7,4.1-12.3-1.2-24.4c-5.6-12.8,0-1.7,0-1.7s-12-29.1-21.4-39.8s8.9-52,8.9-52s-35.6,5.9-67.9,4.5
	l-59.1,26.1c0,0-2,1.9-10.1,2.7c-13.2,1.4-22.5-5.8-18.3-11c4.3-5.1,22.5-2,22.5-2s46.2-26.5,53-29.5c6.8-3,74-18.4,74-18.4
	s1-35.3-27.6-46.4c0,0-13.1,24.6-79.7,17.8C393.5,82.86,367.8,75.16,381.5,67.86L381.5,67.86z"/>
<path id="XMLID_280_" class="st9" d="M577,57.16c0,0,12.3,5.9,18,22.3l-0.4,0.5c-1.9,2.4-2.9,2.4-5.5,0.7h0.3
	c0,0-6.1-20.7-15.2-21.9L577,57.16L577,57.16z"/>
<path id="XMLID_279_" class="st10" d="M500.8,111.56c0,0,10.7,10.7,28.2,6.4c17.5-4.3,21.4-14.1,21.4-14.1s7.7,16.7-3,32.9
	s-29.5,36.3-29.5,36.3s10.7,16.5,14.3,57.3c0,0,1.9,6.4-13.1,2.1c0,0-6.4-16.7-14.1-28.7c-7.7-12-15-19.2-11.1-32.9
	c3.8-13.7,7.7-31,7.7-31s-33.8,4.6-62.8,3.6l-57.8,26.1c0,0-10.7-4.7-4.2-12.4c0,0,47.9-28.7,52.2-29.1
	C433.3,127.66,495.2,110.66,500.8,111.56z"/>
<path id="XMLID_278_" class="st11" d="M429.5,66.86c0,0-3,14.8,8.9,16.9c0,0,26.2-5.2,35.7-17.2c0,0,23.2,13.5,26.6,46.9
	c0,0,16.4,14.2,44.6-2.9c0,0,6.4-3,5.9-4.6c0,0-5.5-38.6-18.3-53.2c0,0,26.6,3.1,38.9,15c0,0,1.4-9.7,13.8-10.5
	c0,0-22.1-29.4-86.6-20.9c0,0-11.9,4.4-17.4,4.9c-3.8,0.3-23,11.6-37.3,21.7C439.1,66.66,429.5,66.86,429.5,66.86L429.5,66.86z"/>
<path id="XMLID_277_" class="st12" d="M501.19,38.06c0,0,70.4-13.6,84.1,19.3C585.2,57.46,563.29,30.76,501.19,38.06z"/>
<path id="XMLID_276_" class="st8" d="M452.89,31.96c0,0,15,20.4,22.5,22.1c9.6,2.2,14.3-9,17.3-12.7c3.9-5,14.9-8.8,14.9-8.8
	s-15.3,2.7-26-4.1S455,22.96,452.89,31.96z"/>
<path id="XMLID_273_" class="st1" d="M460.19,31.26C460.19,31.26,460.1,31.26,460.19,31.26C459.89,31.36,458.89,31.86,460.19,31.26z
	 M458.89,31.16l-0.4-0.2C458.49,30.96,458.79,31.06,458.89,31.16z"/>
<path id="XMLID_270_" class="st8" d="M485.5,47.36c0,0,4.7,5.5,10.2,4.2c5.6-1.3,2.4-16.3,2.4-16.3s-10.9-10-11.1,8.7 M377.5,71.76
	c0,0-0.6,4.6,1.5,10.4c1.3,3.7,4.9,4.9,7.5,4.6c1.8-0.2,5.9,0.2,3.2-1.9s-5.6-4.3-2.4-9.4"/>
<path id="XMLID_269_" class="st13" d="M508.5,55.46c0,0,2.7,17.1,26,20.6c-3.3,2.7-5.1,6.9-4.8,11.2v0.5c0,0-20.6-6.9-29.5-32.2"/>
<path id="XMLID_268_" class="st14" d="M456.69,36.76c0,0-13.9-7.8-1.8-23.1c8.2-10.5,26.9,1.3,41.1,1.7c14.1,0.4,23.1-6.4,35.9-3.4
	s20.5,16.2,20.5,16.2s-22.3,5-33.4,6.7c-11.1,1.7-14.3,1.8-28.4-2s-26.4-9.1-30.5-5.4C457.79,29.56,450.29,26.06,456.69,36.76
	L456.69,36.76z"/>
<circle id="XMLID_267_" class="st15" cx="442.8" cy="74.66" r="3.1"/>
<circle id="XMLID_266_" class="st3" cx="499.19" cy="75.36" r="3.1"/>
<circle id="XMLID_265_" class="st3" cx="515" cy="56.86" r="3.1"/>
<circle id="XMLID_264_" class="st15" cx="502.39" cy="43.16" r="3.1"/>
<circle id="XMLID_263_" class="st15" cx="502.39" cy="43.46" r="3.1"/>
<circle id="XMLID_262_" class="st15" cx="502" cy="97.76" r="3.1"/>
<circle id="XMLID_261_" class="st3" cx="543.7" cy="84.46" r="3.1"/>
<circle id="XMLID_260_" class="st3" cx="533.5" cy="105.26" r="5.9"/>
<circle id="XMLID_259_" class="st3" cx="513.7" cy="88.06" r="3.4"/>
<circle id="XMLID_258_" class="st7" cx="564.6" cy="55.26" r="4.2"/>
<path id="XMLID_257_" class="st15" d="M491.3,68.76c0,4.2-1.9,8.1-5.7,6.4c-1.6-0.7-5.6-3.9-7.5-7.5c-1.9-3.7,1.5-6.4,5.7-6.4
	C487.89,61.16,491.3,64.56,491.3,68.76z"/>
<circle id="XMLID_256_" class="st15" cx="514" cy="104.36" r="4.1"/>
<circle id="XMLID_255_" class="st15" cx="459.6" cy="61.36" r="4.1"/>
<path id="XMLID_252_" class="st12" d="M533.3,53.16c0,0,20.8,16.4,18.1,53.4l-2.7,2.1C548.7,108.66,551.79,84.06,533.3,53.16
	L533.3,53.16z M552.1,108.66c0,0,6.6,9.5-5.4,30C546.7,138.66,554.79,122.36,552.1,108.66z"/>
<path id="XMLID_251_" class="st16" d="M608.3,219.66c0,0,6.9,8.9,2.7,23.3c-4.1,14.4,11,21,11,21s-17.4-5.3-13.3-21
	C612.8,227.16,608.3,219.66,608.3,219.66L608.3,219.66z"/>
<path id="XMLID_250_" class="st17" d="M505.69,181.56c-6.1-9.8,3.2-35.2,23.3-63c1-1.4-7.3,2.3-17.8-0.5v-0.5c0,0-6.4-1.9-6.4-1.8
	c-4.6,1.5-34.2,9.5-47.8,15.1c-10.4,4.2-18.4,12.8-18.4,12.8c61.2,0.8,63-3.7,63-3.7h0.5c-2.7,8.4-5.7,22.3-8.1,31
	c-4.2,15.4,7.5,27.9,7.5,27.9c19.8,33.1,18,35.3,18,35.3l5.9,0.1C525.9,218.06,513.49,194.06,505.69,181.56L505.69,181.56z"/>
<path id="XMLID_249_" class="st14" d="M471.3,9.96c0,0,24,5.5,30.8,0.2s16.2-7.5,26.5-4.6c0,0-12.8-0.9-22.6,6.4
	c-9.2,6.9-16.2,6.8-28.3,1.1"/>
<path id="XMLID_248_" class="st18" d="M458.19,28.96c0,0,0.5-9.1,13.4-5.3c5.3,1.6,24.1,6.1,33.2,5.8c9.1-0.3,33.8-5.2,38.7-1.2
	l-16.8,6.7c0,0-15.1,4.6-29.5-0.3C489.9,32.16,465.5,26.26,458.19,28.96L458.19,28.96z"/>
<path id="XMLID_247_" class="st0" d="M544.4,19.06c0,0-13.1-6.1-24.1-2.7c0,0,15.8-4.9,24.7-0.9"/>
<path id="XMLID_246_" class="st8" d="M571.2,70.56c0,0-2.7-9.4,1.8-14c4.1-4.2,9.3-4.4,11-0.8C584.09,55.66,571.2,62.96,571.2,70.56
	z"/>
<path id="XMLID_245_" class="st11" d="M553.7,57.26l12.6,10c1,0.7,1.9,1.5,2.8,2.4c1.6,1.5,2.8,1.9,5.5,2.7c0-0.6-0.4-1.2-0.9-1.5
	c-1.2-0.7-3.3-2.8-3.9-9.8"/>
<path id="XMLID_244_" class="st8" d="M583.1,54.06c0,0,5.5,4.9,1.5,8.2l-7.4-2.5"/>
<path id="XMLID_243_" class="st11" d="M517.8,118.86c-11.9,0-27.9-7.9-22.4-11.4c7.6-4.9-2.7-20.7-2.7-20.7
	S507.29,118.96,517.8,118.86"/>
<path id="XMLID_242_" class="st16" d="M454.89,13.66c0,0,2.8-6.5,12.8-4.4s17.4,2.4,28.9,2.4c0,0-9.4,2.1-28.3-0.9
	C468.3,10.86,458.7,8.86,454.89,13.66z"/>
<path id="XMLID_239_" class="st8" d="M572,57.96c0,0-5.1,10.3,2.6,14.4l5.2-7.3 M378.5,75.06c0,0-1.8,0.2-3.7,3.7s0-6.6,4.3-9.4"/>
<circle id="XMLID_238_" class="st15" cx="530.4" cy="63.16" r="4.1"/>
<path id="XMLID_237_" class="st15" d="M455.6,79.96c-1.1-2-0.3-4.5,1.7-5.6s4.5-0.3,5.6,1.7"/>
<circle id="XMLID_236_" class="st15" cx="541.7" cy="51.86" r="2.7"/>
<path id="XMLID_235_" class="st15" d="M557.1,42.16c-0.7,2.2-3,3.4-5.1,2.7c-2.2-0.7-3.4-3-2.7-5.1"/>
<path id="XMLID_234_" class="st8" d="M589.7,31.76c2.2-3.3,4.7-2.7,3.1-6.6c-1.3-3.3-3.8-4.6-5.3-5.2c-10.7-1.5-36.4-3.9-50.1,4.4
	c-17.6,10.6-27,29-51.5,23.1c0,0-1.2,12.4,18.9,9.8c20.1-2.6,23.4-17.2,48-22c24-4.6,41.6,2.6,42.4,2.9
	C594.8,37.96,587.7,34.96,589.7,31.76L589.7,31.76z"/>
<path id="XMLID_233_" class="st1" d="M537.6,34.76c0,0,27.9-13.6,54.5-5.5c0,0,2.3-1.8,0-4.2C592.1,25.16,574.3,17.86,537.6,34.76z"
	/>
<path id="XMLID_232_" class="st0" d="M489.6,47.16c0,0,11.3,7,23.1-5.1C512.7,42.06,505.19,49.56,489.6,47.16z"/>
<path id="XMLID_231_" class="st19" d="M515.5,90.06c-2.8-8.2,0.2-12.1-3.4-20.1c-10.7-23.8-25.7-21.5-26.2-24.1
	c0,0-5.6,16.8-19.7,1.7l1.6,0.3l-0.9,0.2c0.7,7.7-1.7,19.2-7.8,23.9c-5.6,4.4-17.6,9.5-24.4,9.9c-1.1,0.1,2.3,0.8,2.7,1.8l1.7-0.1
	c0,0,18.9-0.8,32.9-14.8l-0.2-0.5c1.1,0.9,1.4-1.7,2.8-1.1c11.3,5.2,30.5,29.4,26.2,46.7c0,0,14.2,10.1,32.9,2.7
	C533.6,116.66,520.99,106.26,515.5,90.06L515.5,90.06z"/>
<path id="XMLID_227_" class="st8" d="M484.3,48.66c0,0,4-4.3,13.6-1.5l1.2-11l-14-4C485,32.16,493,38.56,484.3,48.66z M582.7,84.96
	c0,0-4.6,17.1-3,16.7c0.9-0.2,5-9.8,5-9.8s-3.5,13-1.6,13.2c1.6,0.2,5.1-11.9,5-12.1c0,0-1.2,8.8-0.2,10.1
	c0.9,1.2,5.5-10.5,5.5-10.5s-2.3,8.2-1.8,8.7c0.6,0.6,5.5-8.2,5.7-15.8 M166.8,28.66l9.1,4.4c0,0,24.9-19.5,49.9-12.5s38.2,9,38.2,9
	s47-3.9,66.9,3.5s49.7,24.8,52.8,27.1s12.8,8.9,14.3,14.3c1.6,5.5,4.7,8.4-2.3,5.3s-2.2,1.5-2.2,1.5s-11.3-14.9-14.5-15.7
	c-3.1-0.8,2.7,3.1,2.7,3.1s-8.4,2.5-8.4-5.7c0,0-51-15.2-58-12.1c-7,3.1-1.6,0.4-1.6,0.4s35.4,28.8,39.7,52.6
	c0,0-13.2,19.5-27.3,18.7c0,0-14,47.1-26.1,57.7c-12.1,10.5-46.4,46-47.1,51c-0.8,5.1-0.7,16.5-1.6,23c-1.1,8.3,3.7,12.1-8.4,10.6
	c-15.6-1.9-4.7-27.8-2.1-38.3c0.3-1.1,0.3-2.3,0.1-3.5c-0.9-4.4,0.5-9,3.6-12.3c7.6-7.8,21.4-22.6,25.9-31.3
	c6.2-12.1,13.2-14.8,14-16.7s6.2-51.4,6.2-51.4l-53.5,25.3c0,0,7,4.3,10.1,15.9c2,7.5,5.2,14.6,10.5,18.8c2.2,1.7,2.1,2.8,0.1,4.9
	c-2.8,2.9-10.4,9.2-14.3,10.4c-6.6,1.9-17.1,2.1-12.5-6.8c0,0,3.7,2.9,9.1-1.8c5.5-4.7,2.3-5.1,2.3-5.1s-37.1-28.1-38.3-35.5
	c-1.2-7.4,37.5-40.1,37.5-40.1l-2.7-2.3l-27.8,8.1c0,0,3.2-6.6,9.5-14c6.2-7.4,9.3-17.9,9.3-17.9s-2.6-11.7,5.2-18.7
	s18.7-9.6,18.7-9.6s-33.9-12.8-42.1-11.6c-8.2,1.2-27.2,10-33.1,10s-14.4-2.3-22.2-10.1S166.79,28.66,166.8,28.66L166.8,28.66z"/>
<path id="XMLID_226_" class="st20" d="M285.39,162.66c0,0-2.7,9.3-4.3,13.4c-1.6,4-31.1,45-31.1,45l-2.3-12.5
	c0,0,16.1-18.2,20.2-25.5C271.8,175.76,282.89,162.16,285.39,162.66z"/>
<path id="XMLID_225_" class="st21" d="M283.3,100.66c0,0,12.3-5.5,5.5,29.2c-1.1,5.7,3.2,8.2,9.1,11.4c4.9,2.6,13.4-1.3,18.9-2.3
	l4.4-0.8l8.6-22.2l-18.2-31.3l-31.3-19.2l2,21.2C282.3,86.66,283.3,100.66,283.3,100.66z"/>
<path id="XMLID_224_" class="st21" d="M299.3,106.16c0,0-56.5,26.2-67.6,34.3c-13.1,9.6-3.4,21.1-3.4,21.1s-27.3-17.2-23.7-26.8
	c3.5-9.6,64.7-68.2,64.7-68.2S294.2,98.06,299.3,106.16z"/>
<path id="XMLID_223_" class="st12" d="M193.7,36.76l-10.4,3.4c-4.5,1.5-9.3,1.6-13.8,0.4c-6.4-1.7-14.8-5-16.3-10.6
	c-2.5-9.2,22.4,1.7,22.4,1.7s19.1-10.9,30.1-11.5C205.7,20.16,193.7,22.06,193.7,36.76L193.7,36.76z"/>
<path id="XMLID_220_" class="st12" d="M153.2,30.66c0,0-5-8.2-2.9-8.2s4,4,4,4s-3.7-7.3-1.2-6.4c2.4,0.9,5.2,5.8,5.2,5.8
	s-2.7-7.6,0-5.8s8.6,8.7,8.6,8.7s3.6-2.5,8.8,3.1 M247.3,94.46c0,0,18.6-9.1,19-9.5c4.1-4.1,12.4-17.7,6.2-15.2
	c-3.2,1.3-12.4,2-16.2,4c-3.8,2.1-9,12.2-9.7,16.5L247.3,94.46z"/>
<path id="XMLID_217_" class="st22" d="M246.6,90.66l0.7,3.8c0,0,2.7-1.3,6-3C250.5,91.86,247.1,90.86,246.6,90.66z M260.99,87.66
	c-1.8-0.5-3.4-0.7-3.7,0.7c-0.1,0.6-0.4,1.1-0.7,1.5C258.09,89.16,259.59,88.36,260.99,87.66L260.99,87.66z"/>
<path id="XMLID_216_" class="st12" d="M399.19,83.06c-2.9,0.9-6-0.3-7.6-2.8c-2.2-3.3-1.5-3.7-5.6-6c-6.3-3.5-0.8-0.9-0.8-0.9
	c-8.7-4-12.9-7.3-12.9-7.3l-8.1-4.3c-3.1-11.1,6.8-12,6.8-12s7.4,4.9,12.9,8.6c3.4,2.3,7,5.8,10.5,8.5c1.5,1.2,3.2,3.2,4.8,5.1
	c0,0,7.5,9.4,6.6,10.9s-7.2-4.3-7.2-4.3L399.19,83.06L399.19,83.06z"/>
<path id="XMLID_215_" class="st22" d="M365.69,54.06c0,0,20.3,9.7,23.8,18l-5.9,1.1c0,0-12.5-8.3-19.8-11.7"/>
<path id="XMLID_214_" class="st8" d="M377.5,71.76c0,0,0-0.1,0.1-0.2c0.5-1.3,5-9.9,24.2,1.2c0,0,4.3,2,11.4,0.8l4,9.7h-16.1
	c0,0-11.3-10.8-17.2-8.4"/>
<path id="XMLID_213_" class="st9" d="M397.89,71.16c0,0,5.2,2,11.1,1.8c4.2-0.1,20.1-4.1,20.1-4.1s-0.3,4.6,0.3,6.4
	c0,0-16.3,2.6-22.7,2s-13.7-9.4-18.9-10.1C387.89,67.16,394.59,67.46,397.89,71.16L397.89,71.16z"/>
<path id="XMLID_210_" class="st14" d="M229.49,65.66c0,0-0.6,16.2,2,21.4c3,6,5.8,8.1,5.8,8.1s-25.9,6.6-27.1,9.5
	c0,0,7.5-16.4,11.7-21C225.99,79.16,229.1,75.96,229.49,65.66z M279,60.76c-1.7,2.3-1.5,5.4,0.5,7.4c4.9,4.8,12.6,12.7,18.7,20.5
	c8.1,10.3,23.5,37,23.5,37s31.9-5.3,31.7-21.7c-0.1-16.4-38.2-53-38.2-53s36.7,3.8,48.8,11c0,0-0.4-10.2,6.8-12.3
	c0,0-30.5-18.5-48.4-22.5c-18.4-4-33.9-0.2-48-0.4c-5.3-0.1-13-3.8-19.7-5.7c-14.5-4.2-39.7-2.1-51.9-1.6c0,0-10.6,2.9-9.1,18.9
	c0,0,28.5-3.9,58.1,4.7c0,0,13.3-9.6,23.3-2.9c3.7,2.5,5.8,6.7,6,11.2C281.19,54.46,280.89,58.26,279,60.76z"/>
<path id="XMLID_209_" class="st23" d="M280,73.06c0,0,12.9,8.7,0,22.4c-10.1,10.7-34.7,14.4-40.3,23.3c-1.2,1.8-3.6,2.4-5.5,1.5
	l-0.4-0.2c-2.2-1.1-3-3.8-1.9-5.9c2.2-4.1,6.9-10.2,15.3-11.9c13.3-2.7,32.9-14.1,33.8-18.6c0.7-3.7-0.2-5.7-1.4-6.9
	C278.69,75.76,278.8,73.96,280,73.06z"/>
<path id="XMLID_208_" class="st8" d="M256.7,76.16c9.3-2.6,18-6,15.3,0.1v0.1l-1.6,6.5c-0.1,0.5,0.4,1,0.9,0.8
	c2.7-0.8,9-2.6,9.4-7.7c0.2-2.8-2.2-6.8-6.3-11.2c-2.5-2.7-11.9-0.3-15.6,0.8c-0.6,0.2-1.1-0.4-0.8-1c0.8-1.5,2.3-4.1,5.3-6.6
	c10.8-9.4,0,0,0,0s-2-15.1-9.5-15.2c-7.2,0-27.8,10.9-26.7,25.4c0,0.4,0.1,0.8,0.1,1.3c1.3,9.3,2.1,11.2,2.4,11.3
	c0.3,0.1,0.5,0.2,0.5,0.5c0.8,4.1,4.3,18.2,12.4,17.1h0.2c0.4-0.2,2.6-1.1,4.2-3.6c0.1-0.2,0.1-0.4,0.1-0.6
	c-0.4-1.1-2.5-5.7,4.2-8.1C251.3,86.06,251.4,77.66,256.7,76.16L256.7,76.16z"/>
<path id="XMLID_207_" class="st12" d="M253.3,42.86c0,0,6.4,2.4,8.9,6.7c3.5,5.9-3.8,11.5-5.7,14.3l1.3,4.5c0,0,9.1-4.1,14.9-6.7
	c2.2-1,5.8-8,4.9-12.3c-0.8-3.5-2.1-6.5-10.6-8.3C267.1,41.06,260.4,42.26,253.3,42.86L253.3,42.86z"/>
<path id="XMLID_206_" class="st22" d="M277.69,49.56l-17.7,10.2c-1.3,1.7-2.8,3.1-3.4,4.2l1.3,4.5c0,0,9.1-4.1,14.9-6.7
	C274.99,60.76,278.49,53.86,277.69,49.56z"/>
<path id="XMLID_205_" class="st12" d="M248.49,93.56l3.9-0.7c2-0.4,3.8-1.7,4.6-3.6l0.2-0.4c0,0,8.5,2,9.1,0.8
	c0.6-1.2-2-8.2-0.4-9.4"/>
<path id="XMLID_204_" class="st2" d="M247.6,208.46c0,0-4.4,20.7,8.7,16.2c0,0-5.3,3.8-5.3,11.2c0,0-2.3,1.1-5.1-1.7
	c-3.3-3.3-1.1-21.1-1.1-21.1L247.6,208.46L247.6,208.46z"/>
<path id="XMLID_200_" class="st18" d="M194.49,29.66c0,0,51.4-1.8,67.4,9.6l-10,3.9c0,0-31.1-8.9-58.1-4.7
	C193.69,38.46,192.99,33.46,194.49,29.66z M366.1,53.46c0,0-31.6-15.1-46.2-14.8c-22,0.4-39.3,9.1-39.3,9.1l-0.1,0.4
	c-0.8,0.4,0.4-0.3-0.4,0.2c0,0,28.5,5.7,34.8,21.7c6,15.3,9.6,39.8,32,42.8c1.2,0.2,2.4-0.3,3.2-1.1c2.1-2.3,8.7-7.5-4.4-26.2
	c-11.3-16.1-25.7-30.1-28.9-33.9c18.8-0.1,47.4,10.5,47.4,10.5L366.1,53.46z M232.6,69.56c0,0-16.6,26.7-6.4,27.3s13.6-3.3,13.6-3.3
	"/>
<path id="XMLID_199_" class="st8" d="M265.89,85.86c0,0-0.5-8.2,7.6-9.9l-0.9,1.3C272.39,81.36,269.69,84.86,265.89,85.86
	L265.89,85.86z"/>
<path id="XMLID_198_" class="st22" d="M157.39,29.46c-0.9,0.2-4.2,1.1-4.2,1.1c3.7,8.6,20.2,11.6,26.2,10.7c0.2,0,0.4-0.1,0.6-0.1
	l13.7-4.4c-0.5-1.8,0.8-8.3,0.8-8.3s-6.7,1.8-17.1,7c-7,3.5-17.4-5.8-17.4-5.8S163.39,28.56,157.39,29.46"/>
<path id="XMLID_197_" class="st12" d="M386.39,80.56c0,0-3.8-3.8,0.2-6.5s8.4-0.5,11.1,4.7c2.7,5.2,3.7,5.8,1.5,6.1
	C396.99,85.16,387.29,86.36,386.39,80.56z"/>
<path id="XMLID_196_" class="st12" d="M385.89,79.96c0,0,2.1,5.8,4.3,6.1c2.1,0.3,14.1,2.2,9.7-3.5"/>
<path id="XMLID_195_" class="st8" d="M386.39,81.96c0,0-2-6.2,0.2-4.8c1.2,0.8,2.8,5.2,2.8,5.2s-2.6-7.3-1.3-7.8
	c1.5-0.7,4.4,7,4.4,7s-2.8-8.7-1.3-8.1c1.5,0.7,4.1,6.5,4.1,6.5s-2.7-5.4-0.4-5.2c3.4,0.2,5,7.8,5,7.8s-3-10.4-5.9-10.9
	c-2.8-0.4-11.3-0.2-10.9,2.4C383.49,76.76,386.39,81.96,386.39,81.96L386.39,81.96z"/>
<path id="XMLID_194_" class="st20" d="M248.6,219.56c0,0-3.5,7.4-3.5,12.7s-4.5,26,0,32.1c0,0-10.1,1.1-9.8-10.1
	c0.2-6.9,2.5-16.4,4.2-22.5c1-3.5,1.4-7.1,1.3-10.8c-0.1-2.8,0.2-6.2,2.2-8.4c3.7-4.2,5.8-5.8,5.8-5.8L248.6,219.56L248.6,219.56z"
	/>
<path id="XMLID_193_" class="st22" d="M257.49,70.56c0,0-4.7,0.7-5.4-2.9c-0.6-3.3,12.1-9.3,10.8-0.5"/>
<path id="XMLID_192_" class="st8" d="M251.1,73.26c0,0,14.6-10.4,21.3-9.7l5.2,5.2l-23.9,5.9"/>
<path id="XMLID_191_" class="st24" d="M262.1,96.46c0,0,17.9-4.9,15.8,3c0,0,18.9-18.8,1.7-30.5l-0.3,7.7
	C279.3,76.66,270,92.16,262.1,96.46z"/>
<path id="XMLID_190_" class="st25" d="M246.89,95.56c0,0-5.2,5.8-9.8,0C237.1,95.56,240.49,99.06,246.89,95.56z"/>
<path id="XMLID_189_" class="st0" d="M246.39,95.56c0,0-7.9,9.3-15.7-10.8C230.69,84.66,238.39,107.26,246.39,95.56z"/>
<path id="XMLID_188_" class="st16" d="M295.6,25.76c0,0,19.4-4.1,37.7,4.8C333.3,30.56,318.89,23.96,295.6,25.76z"/>
<path id="XMLID_185_" class="st8" d="M396.1,73.56l5.6,8.2l-1.2,2.7c0,0-2.4-7.9-5.5-9.4 M243.79,173.46c0,0-5.2,4.3-12.8,6.7
	c-7.6,2.4,2.7,17.5,18.6,3.7C259.09,175.66,245.09,177.46,243.79,173.46L243.79,173.46z"/>
<path id="XMLID_184_" class="st2" d="M243.8,173.46l-8.5,5.5c0,0,1.1,4,4,4c7.3,0,9.7-4.9,9.7-4.9S243.5,175.96,243.8,173.46z"/>
<path id="XMLID_183_" class="st22" d="M170.1,26.36c7.3,6.6,4.3,4.9,4.6,6.1c0.1,0.3-1.5,0.6-1.7,0.9c-0.7,1.2-2.2,1.7-3.6,1.2
	c-7.1-2.5-9.3-0.3-9.9,1.3c-0.2,0.5-0.9,0.6-1.3,0.1c-2-2.7-7.9-9.5-6.9-11.2C152.5,22.76,167.1,23.66,170.1,26.36z"/>
<path id="XMLID_182_" class="st26" d="M213.99,179.56c0,0-9.5-9.7-6.3-11.5c1.8-1,7.5,10.3,13.9,8.9c1.9-0.4-1.1-7.1,0.9-6.2
	c2.1,0.9,9.3,7.7,10.6,12C234.49,187.16,215.8,183.86,213.99,179.56z"/>
<g id="XMLID_133_">
	<path id="XMLID_179_" class="st27" d="M639.2,114.56c-13-13.5-28.8-24.5-34.5-28.1c-2.7-2.1-4.3-7.6-5-11.2
		c-0.9-5.2-4.1,4.7-2.7,7.5c0,0-2,2.8-4.2,0.5s-7.4-9.6-6.6-6.4c0.8,2.9,4.2,8.2,4.7,8.8c-0.4-0.5-4.5-6.6-7.3-7.4
		c-3.1-0.9,4.7,7.9,4.7,7.9s-6.6-5.7-7.1-3.2c-0.3,1.8,7.2,6.3,7.2,6.3s-7-2.4-5.9-0.7c2.2,3.8,13,6.2,18.6,6.5
		c7.3,6.2,16.9,18.6,24.6,24.1c6.7,4.8-1.1,29.6-1.1,29.6l4.3,1.2C642.2,181.36,646.9,122.46,639.2,114.56L639.2,114.56z
		 M533.5,266.36c0,0-3.7,11.6-15.2,16.8c-11.5,5.1-32.8,14.4-32.8,14.4s-6.4,3-10.3,4.2c-3.8,1.3-15.4,0.9-19.7-1.3
		s-7.3-9.7,4.3-10.9c7-0.8,13.1-1.6,17-2.2c2.6-0.4,5-1.5,7-3.2c6.6-5.8,22.4-19.7,27.8-24.7"/>
	<path id="XMLID_178_" class="st14" d="M623.3,182.46c0,0-11.7-4.7-16.9,10.7c-5.1,15.4,4.3,27.4,4.7,39.3c0.4,12-11.1,20,10.9,31.4
		c16.9,8.7,25.1,14.9,14.8,31.4c0,0-4.7,10.3-32.9,9.4s-38.5,6.6-56.4-6.4c-23.7-17.1-42.8-33.2-42.8-33.2s25.7-29.7,30-38.7
		s32.2-10.1,45.2-29c9.4-13.7,4-24.8,7.4-29.1c6.8-8.6,21.9-12,34.3-8.6c0,0-22.3-1.2-19.3,7.3s29.7-0.3,29.7-0.3l-7.3,15.7"/>
	<path id="XMLID_177_" class="st28" d="M614.2,285.46c0,0-13.6-10.5-21.9-17.1s-3.9-20.1-3.9-20.1s5.3,17.9,20.1,21.4
		c14.9,3.5,16.9,16.2,16.9,16.2S620.29,277.96,614.2,285.46L614.2,285.46z"/>
	<path id="XMLID_176_" class="st29" d="M626,169.56c0,0,0.7,9.7-8.9,19.3s-22.2,44.3-32.9,48c-17.8,6.2-8.2,32.2,6.9,40.4
		c33.4,18.2-15.8,30.8-32.2,24c-16.4-6.9-30.4-14.7-39.3-24.9c0,0,17.8-46,28.2-52.2c12.1-7.3,29.7-8.9,35.6-27
		c6.5-19.8-2.5-31.1,11.9-33.8C609.7,160.56,626,169.56,626,169.56L626,169.56z"/>
	<path id="XMLID_175_" class="st30" d="M515.3,253.76c0,0,33.8,33.3,51.2,35.6c17.4,2.3,29.4-14.2,47.3-19.7c15.2-4.7,21,1.9,21,1.9
		l-10.2-6.4c0,0-4.6-2.3-17.4,3.2s-26.5,20.6-40.2,18.3c-13.7-2.3-51.2-34.7-51.2-34.7L515.3,253.76L515.3,253.76z"/>
	<path id="XMLID_174_" class="st30" d="M521.7,247.76c0,0,31.4,28.7,45.4,30.6c14,2,21.3-12.9,35.7-17.6s15.3,1.6,15.3,1.6l-7-5.5
		c0,0-4.4-2-14.7,2.7s-17.3,17.8-28.3,15.8s-45.4-29.8-45.4-29.8L521.7,247.76L521.7,247.76z"/>
	<path id="XMLID_173_" class="st30" d="M529,235.96c0,0,20.1,23.3,35.3,29.7c11.2,4.7,19.6-12.2,31.9-16.9c12.4-4.7,9.5,2.7,9.5,2.7
		l-0.5-7.8c0,0-6.2-2-15,2.7s-14.8,17.7-24.3,15.7s-35.3-28.9-35.3-28.9L529,235.96L529,235.96z"/>
	<path id="XMLID_170_" class="st27" d="M622.4,180.96c0,0,0.6,8.7-9.8,25.7s-25.5,53-108.6,41.4c0,0-4.4-0.5-7.5-1.5
		c-4.7-1.7-13.3-8.9-10.2-10.8c5-3.2,15,0.6,15,0.6s3.1-5,20.5,2.2c12.8,5.3,58.3-11.3,58.3-11.3s11.8-18.4,15.1-25
		c3.3-6.5,6.7-19.5,23.7-21.2L622.4,180.96z M575.6,305.46c0,0,28.4,22.5,36.1,39.1c0,0,6.7-12,12.7-9.5c0,0-10.3-9.4-15-18.8
		s-11.5-16.2-11.5-16.2l-1.7-1.4L575.6,305.46z"/>
	<path id="XMLID_169_" class="st27" d="M621.8,334.36c0,0-10.3,4.3-11.1,11.5c-0.9,7.3-2.6,18-5.1,18.8c-2.6,0.9-13.3,1.3-11.5,3.8
		c1.7,2.6,10.3,6,19.2,4.7c9-1.3,9-7.7,12.4-14.1s7.7-13.7,6-17.5S621.8,334.36,621.8,334.36L621.8,334.36z"/>
	<path id="XMLID_168_" class="st14" d="M624.8,168.96l9.4,1.4c-3.3,27.5-18.8,32.3-18.8,32.3l3.7-8.3c0.5-3,1.3-3.7,0.9-5.5
		c-1.9-8.5-9.2-5.8-9.2-5.8S627.6,179.86,624.8,168.96L624.8,168.96z"/>
	<path id="XMLID_167_" class="st27" d="M592.9,300.06c0,0,7.8-2.4,12.5-8.4c7.6-9.5,22.6-18,30.5-9.4c7.5,8.2-6.6,23.4-33,23.4
		C602.8,305.56,595.4,300.06,592.9,300.06z"/>
	<ellipse id="XMLID_166_" class="st3" cx="613.6" cy="369.66" rx="24.7" ry="7"/>
	<path id="XMLID_163_" class="st13" d="M468.19,288.66c0,0-10.8,1.6-8.1,7.1c2.3,4.6,16.4,4.6,23.8,1.8c0,0-12.3,11-26.5,6.9
		S447.19,287.76,468.19,288.66z M624.49,335.06c0,0-6.4,3.7-8.7,12.3c-2.3,8.7-4.1,16.9-9.1,16.4s-15.3,1.6-12.7,4.7
		s21.8,13.1,28.2-1l7.8-16.9c0,0,6.9-9.1,0.5-11.9l-6.1-3.5L624.49,335.06z"/>
	<path id="XMLID_160_" class="st12" d="M647.4,119.46c0,0,0.9-5.3,6.6-2.3C653.99,117.16,651.7,115.96,647.4,119.46z M666.3,115.46
		c0,0,2.6-3.4,5.2-0.2C671.5,115.26,670.9,114.46,666.3,115.46z"/>
	<path id="XMLID_159_" class="st5" d="M522.4,238.26c-0.1,0.5,0.5,0.9,0.9,0.5c0.8-1,2.3-1.8,5.1-0.7c6.2,2.6,4.8,13.5-5.7,11.9
		c0,0,0.7,1.4,4.1,1.6s10.7-0.1,8.5-9.6C533.39,234.26,523.7,233.66,522.4,238.26L522.4,238.26z"/>
	<path id="XMLID_158_" class="st31" d="M606.9,374.36c0,0,8,0.9,10.5-4.1s8.5-25.8,11.4-27.4c3-1.6,5.3-2.7,3.9,1.8
		c-1.4,4.6-10.5,22.8-10.5,22.8S620.4,377.06,606.9,374.36L606.9,374.36z"/>
	<path id="XMLID_157_" class="st24" d="M597.4,369.76c0,0,0.4-3.3,4.8-2.8c4.3,0.4,9.1,1.7,11.9-7.4c2.8-9.1,5.2-18.7,10.2-17.4
		c5,1.3,3.9,5,3.9,5s-8.7,26.7-12.6,26.7S607.8,377.86,597.4,369.76L597.4,369.76z"/>
	<path id="XMLID_156_" class="st9" d="M620,188.66c0,0,0,6.1-7.3,18s-16.6,28.9-34.7,35.6c0,0,25.1-13.7,39.7-53.9
		C617.7,188.36,619,183.56,620,188.66L620,188.66z"/>
	<path id="XMLID_155_" class="st12" d="M468.5,288.66c0,0-11.8-1.7-19.3,6.5C449.2,295.16,453.7,285.06,468.5,288.66z"/>
	<path id="XMLID_154_" class="st0" d="M595.3,79.16c0,0,4.6,2.8,0,14.7C595.3,93.86,597.6,81.46,595.3,79.16z"/>
	<path id="XMLID_153_" class="st9" d="M616.3,93.96c0,0,18.4,13.1,23.8,21.3l-5.2,2.5C634.9,117.76,633.99,112.86,616.3,93.96z"/>
	<path id="XMLID_152_" class="st12" d="M523.7,236.36c0,0,5.9-4.1,10.7,3.2C534.4,239.56,529.7,234.06,523.7,236.36z"/>
	<path id="XMLID_149_" class="st27" d="M502.19,248.66c0,0-11.6-3.5-9.5-6.3c1.7-2.3,6.8,2.7,10.8,0.7s5.6-2.4,10.5-0.1
		c4.9,2.3,5.3,5.1,5.3,5.1S513.09,252.66,502.19,248.66L502.19,248.66z M635.79,117.26c0,0-5,0.8-8.3,4.2s-3,4.6-5.1,5.4
		c-2,0.9-6.2,0.6-6.3,1.9c-0.1,1.3,0.7,2.3,0.4,2.9c-0.3,0.6-1.1,1.2-2.3,0.7c-1.3-0.5-1.3,1.9-0.9,2.9l0.3,1c0,0-2-0.6-2.3,1
		s0.9,1.7,0.5,2.6c-0.5,0.9-3.4,2-1.3,4.8c2.2,2.8,8.4,2.3,9.1,4.9c0.8,2.6,0.8,3.9,0.6,6c-0.3,3.1-8.8,6-8.8,6l5.6,3.4
		c0,0,12.4-0.8,14.6,1.6c2.2,2.3,2.1,3.2,2.1,3.2s1.1-6.2,4.2-9.3c3.1-3.1,3.6-5.5,5.8-5.1s1.7,2.8,2.8,2.2c0,0,0.9,3.2,2.9,2.2
		c2-0.9,0.8-0.6,0.8-0.6s2.4,3.1,3.8,1c0.6-0.9,1.6-0.9,2.6-0.7c1.5,0.4,3.2,0,4.3-1.1l0.1-0.1c0.5-0.4,0.8-0.7,1.2-0.9
		c1.3-0.7,3.8,0.7,5.3,0.8c2.2,0.1,4-1.8,5.1-3.3c1.9-2.6,0.9-3.9,0.9-3.9s3.2-1.4,2.3-2.8c-0.9-1.3-0.9-0.8-0.9-0.8
		s3.1,0.4,4.3-1.2c2.2-3.1-0.6-3.8-1.4-3.4c0,0,2.4-0.7,1.2-3.5c-1.2-2.9-2.9-2.1-2.9-2.1s6.1-4.3,1.6-8.2c-1.1-0.9-2.6-1.1-3.9-0.6
		c0,0,1.4-0.5-1.5-1.4c0,0,2.5-1.7,2.4-4.3c-0.1-2.9-2.3-1.9-2.3-1.9s1.5-0.9-0.8-2c0,0,3.6-2.9-0.1-6c-3.7-3.2-4.3-0.4-4.3-0.4
		v-1.1c0,0-8.7,1.3-11.5,0.5c-2.7-0.8-3.9,0.8-3.9,0.8s0.4-0.9-1.3-0.9c-1.7-0.1-1.9,0.9-1.9,0.9s-0.5-1.8-2.6-0.7s-2.6,2-2.6,2
		s-0.3-1.9-1.2-0.4c-0.8,1.4-0.9,1.9-0.9,1.9L635.79,117.26L635.79,117.26z"/>
	<path id="XMLID_148_" class="st27" d="M620,159.46c0,0-25.6,0.9-18,8.8s14.6-0.3,25,2.4c4.1,1.1,7,4.6,7.6-5.2"/>
	<path id="XMLID_147_" class="st11" d="M640.1,115.26c0,0-10.7,16.8,3,38.1l0.6,1.9l-3.4,2.3c0,0-17.4-20.1-7.3-39.9
		C633.09,117.76,635.49,115.66,640.1,115.26L640.1,115.26z"/>
	<path id="XMLID_144_" class="st1" d="M663.2,135.36c0,0,4-1.5,4.9,1.5s-0.9,3.7-0.9,3.7s4-1.2,4.3,1.5s-1.8,5.5-1.8,5.5
		s2.1,5.2-4.3,4.3c0,0,4.3-1.2,0.9-3.7c0,0,5.8-4.9,2.1-5.5s-5.2-0.9-5.2-0.9S667.79,136.66,663.2,135.36L663.2,135.36z
		 M651.9,136.36c0,0,5.5,1.2,2.7,4.9c0,0,5.2-0.9,4.9,3c0,0-1.8-1.5-4.9-0.9C654.7,143.36,655,136.96,651.9,136.36z"/>
	<path id="XMLID_143_" class="st9" d="M640.4,157.66c0,0-6.4,6.1-6.4,13.7c0,0,1.5,2.1-5.2-0.3c0,0,5.2-15.2,10.1-15.5L640.4,157.66
		L640.4,157.66z"/>
	<path id="XMLID_142_" class="st27" d="M645.5,113.76c0,0,9.6-6.9,13.7-5.2c1.4,0.6,0.9,3,0.9,3s3-3.7,4.3-2.1s0.6,4,0.6,4"/>
	<path id="XMLID_141_" class="st32" d="M638.2,139.96l-10.1,2.4c0,0-1.8-21,4.9-24.7c0,0,4.9-3.7,9.7-2.1
		C642.8,115.66,635.8,134.16,638.2,139.96L638.2,139.96z"/>
	<path id="XMLID_138_" class="st9" d="M661.4,115.96c0,0,4.9,0.9,2.7,5.5c0,0,4.3,0,4.3,2.7c0,0-0.3-4.3-1.5-4.3
		C666.9,119.86,663.49,113.46,661.4,115.96z M630.9,122.16c0,0-4.1,1.4-6.2,4.1c-2.1,2.7-6.9,1.6-6.9,1.6s-2.1,0.2-0.2,0
		c1.8-0.2,4.8,0,6.6-2.3s5.5-6.2,8-6.6"/>
	<path id="XMLID_134_" class="st12" d="M673.5,151.06c0,0,2.2,5.1-6.1,7.2C667.5,158.26,674.1,155.56,673.5,151.06z M673.5,151.06
		c0,0,2.8-0.1,2.3-2.8C675.8,148.36,675,151.06,673.5,151.06z M633.2,176.96c0,0,0.5,17.4-17.8,25.6
		C615.4,202.56,628.6,197.06,633.2,176.96z"/>
</g>
<g id="XMLID_98_">
	<path id="XMLID_132_" class="st31" d="M216.1,176.06c0,0-6.9-8.5-4.3-10.7c2.5-2.3,6.1-1.8,7.7,1.1s3.7,4.1,8.1,4.3
		c4.3,0.2,7.3,2.7,7.3,2.7l-6.6,2.5C228.2,176.06,222.3,179.46,216.1,176.06L216.1,176.06z"/>
	<path id="XMLID_131_" class="st26" d="M234.39,173.36c0,0,11.9,12.3,36.6,18.6c24.7,6.3,34.6,3.8,34.6,3.8s67.4-3.9,78.7-2.6
		c17.7,2.1,31,7.5,43.6,8.6c11.6,0.9,68,33.8,68,33.8s9.2,0.7,10,2.8c0.9,2.1,12.3,14.4-17.7,2.9c0,0-72.7-24.7-80.4-28.8l-33.4,3
		c0,0,12.7,19.5,29,28.9c16.2,9.4,16,8.4,19.8,12.5c7.8,8.7,15.3,47.9,17.1,58.2c0.3,1.5,1.1,2.8,2.3,3.6
		c3.5,2.4,11.3,9.2,17.9,25.4c5.9,14.6,17.9,24.8,21.9,27.9c4.1,3.1-4.9,14-6.2,19.1s-7.6,5-14,5s-16.6-3.5-14-6.5
		s13.9-5.3,13.9-5.3l3.4-6.4c0,0-6-11.5-13.7-17.5s-23.1-23.5-26.9-26.9c-3.8-3.4-30.6-44.1-30.6-44.1l-54.5,25.7l5,2.7
		c7.7,4.1,13.8,10.1,18.9,17.4c0.9,1.2,1.8,2.4,2.8,3.5l1.8,2l14.5,13.3c0,0-13.4,4.3-17.1,2.7c-10.3-4.5-58.2-28.8-54.1-44.6
		c1.5-5.9,46.2-47.9,46.2-47.9s-15.7-25.3-29.3-35.6c-12.4-9.4-34.3-15.9-50.1-18.4s-29.2-2.8-53.1-28.8L234.39,173.36
		L234.39,173.36z"/>
	<path id="XMLID_130_" class="st23" d="M373.8,159.46c0,0-24.4-8.5-24.4-0.4s25,13.9,31.4,17.1
		C380.8,176.06,370.6,162.66,373.8,159.46L373.8,159.46z"/>
	<path id="XMLID_129_" class="st31" d="M312.19,157.96c0,0-13.4,4.4-10.3,18.4c2.4,11,10.3,19.7,30.8,20.5
		c20.5,0.9,44.5-10.3,67.1-20.5c22.7-10.3,44.7-11.8,48.5-7.2c3.9,4.7-7.3,11-7.3,11s19.4-5.9,10-19.2c-7.3-10.3-47.8-0.9-47.8-0.9
		s4.8-4.9,15-8.1c15-4.7,16.2-1.3,16.2-1.3s0-6-10.3-4.7s-19.2,10.3-32.5,11.5C378.5,158.86,322,150.66,312.19,157.96z"/>
	<path id="XMLID_128_" class="st12" d="M283.6,213.46c15.5,2.2,29.8,3.3,43.5,17c4.1,4.1,8.3,6.3,12.1,10.2c0.5,0.5,0.9,1,1.4,1.6
		l16.7,22.5c0,0,38.4,1.8,51.8-17.4l-34.6-31.8l37.9-0.5c11.3,2.9,24.3,10.1,35.4,13.2c0,0-1.4-16.9,4.1-16.4
		c0,0-14.7-9.3-31.2-11.9c-10.6-1.7-37.8-10.9-52-7.7c0,0-60.9,3.2-71.8,1.9l-24-1.1c0,0-0.4,13.6,6.4,18
		C282.1,212.96,282.8,213.26,283.6,213.46L283.6,213.46z"/>
	<path id="XMLID_127_" class="st27" d="M372.89,264.16c0,0-44.2,40.5-48.3,48s2.5,21,2.5,21s-16.9-13.5-15.5-21.1c2-11,46-47,46-47
		S356.8,265.26,372.89,264.16z"/>
	<path id="XMLID_126_" class="st26" d="M349.8,348.36l17.7,9.5c4.6,2.6,9.5,6.2,11.2,11.2c0,0-3,13.3-13.3,15.9s6.4,9.7,14.4,3.4
		c8.4-6.7,12.7-15.7,17.5-18.9c8.2-5.4-4.7-9-17.9-18.3"/>
	<path id="XMLID_125_" class="st27" d="M408.19,277.86c0,0,6.8,40.6,21.9,45.9c26.7,9.4,33.6,50,33.6,50s-24-28.1-33.6-35.6
		s-36-49-36-49L408.19,277.86z"/>
	<path id="XMLID_124_" class="st33" d="M368.5,208.06c0,0,35.6-6.2,48.7-1.4c13,4.8,30.4,14.4,30.4,14.4l0.3,8.1
		c0,0-30.2-13.9-36.9-14c-8.6-0.1-36.5,0.2-36.5,0.2L368.5,208.06z"/>
	<path id="XMLID_121_" class="st34" d="M378.1,370.96c0,0,6.4,0.8,9.1-2.3c2.7-3,4.6-9.7,4.6-9.7s8.2,3.4,8.2,8.2
		c0,4.9-11.6,9.4-14.3,14.9s-16.4,13.4-23.8,7.6c0,0-3.2-4.8,2.7-5.8C374.19,382.36,377.8,372.16,378.1,370.96L378.1,370.96z
		 M465.5,377.96l-1.8,2.7c-1.8,2.7-4.8,4.6-8,5.1c-3.9,0.6-8.4,1.8-7.5,4c1.5,3.7,7.9,4.6,12.8,1.6c4.9-3,13.2-14.4,16.8-16.4
		c4.9-2.7,5.8-1.8,5.8-1.8l-4.2-4.2c-0.8-0.8-2-1-3-0.4C473.19,370.06,466.69,374.16,465.5,377.96L465.5,377.96z"/>
	<path id="XMLID_120_" class="st8" d="M362,389.76c0,0,10.1,1.2,15.8-2.1c11.9-6.9,21-24.1,21-24.1s3,2.1,0,6.7s-10.3,9.9-13.1,13.4
		C380.9,389.76,362.8,396.76,362,389.76z"/>
	<path id="XMLID_116_" class="st33" d="M355.89,263.76c8.3,9.7,35.2-3.2,35.2-3.2s4.1-5-11-11c-15.1-5.9-20.1-1.8-28.1-19.7
		s-24.9-18.2-39-19.2s-40.2-6.9-40.2-6.9s5,10.1,16,11c0,0,23.3,0,35.6,13.7S353.19,260.56,355.89,263.76z M451.39,386.66
		c0,0,7,5.8,10.7-2.3c5.9-12.8,12.5-20.3,15.6-9.6c1.9,6.6-16.3,25.1-29.1,16.4C448.6,391.26,448.6,386.26,451.39,386.66z
		 M390.19,362.46c0,0-7.8,20.6-19.6,22.8c-11.9,2.3-5.8-1.4-5.8-1.4s14-5.9,14-16.4L390.19,362.46L390.19,362.46z"/>
	<path id="XMLID_113_" class="st0" d="M451.8,211.46l30.3,16.1l-32.6-13.9c-0.5-0.2,0.6-1.3,1.1-1.5L451.8,211.46L451.8,211.46z
		 M245.8,181.76c0,0,7,5.1,27,11.2v2.3C272.8,195.26,252.2,193.16,245.8,181.76z"/>
	<path id="XMLID_112_" class="st35" d="M491.3,234.36c0,0,15.5,1.2,16,5.6C507.3,240.06,499,235.16,491.3,234.36z"/>
	<path id="XMLID_111_" class="st36" d="M324.69,161.86c0,0,7.3-8.2,25.7-3.8s40.9,7.3,47.5,1.9c0,0-13.9,9.9-32.9,4.9
		c0,0,12.8,7.3,29.2,2.4c0,0-12.3,11-33,3.7C340.39,163.76,338.89,159.86,324.69,161.86L324.69,161.86z"/>
	<path id="XMLID_110_" class="st31" d="M399.89,176.36c0,0,18.2-10.8,34.2-2.6c0,0-18.7-1.8-35.2,7.8c-12,7-33.8,7.8-33.8,7.8
		L399.89,176.36z"/>
	<path id="XMLID_107_" class="st26" d="M323.89,193.46l-8.2-9.2l15.1,5.5l10.9,3.2L323.89,193.46z M447.8,221.66
		c0,0-1.3,7.5,0.3,7.4s2.9-1,2.9-1S447.5,222.96,447.8,221.66z"/>
	<path id="XMLID_103_" class="st27" d="M497.69,235.16c0,0-0.6-2.5,0.5-3.2c2.7-2,4.4,5.6,3.5,6.7
		C500.19,240.36,498.1,236.26,497.69,235.16z M492.89,233.76c-0.3-1.5,1.2-2.8,2.5-2.2c0.4,0.2,0.8,0.5,1,1c1.1,2.1,0.8,5.8-0.8,5
		C494.5,236.96,493.3,236.06,492.89,233.76z M489.49,231.46c0,0,0.8-1.8,2.1-0.6c1.4,1.2,1.1,4.9-0.5,4.3
		C489.59,234.56,488.19,232.06,489.49,231.46z"/>
	<path id="XMLID_102_" class="st31" d="M224.99,172.66l3.4,4c1.6,1.8,4.4,2.1,6.1,0.5c1-0.9,1.4-2.2-0.2-3.8c0,0-3-3.2-6.9-2.5"/>
	<path id="XMLID_101_" class="st26" d="M489.6,241.56l4.7,4.6c0,0-0.2,1.2,1.4,2.4c2.6,2.1,24.9,6.5,11.9-9"/>
	<path id="XMLID_100_" class="st26" d="M494.3,246.16c0,0,1.8,5.1,3.7,4.6c1.8-0.5,1.8-1.1,1.8-1.1s0.9,3,3,2.1l2.1-0.9
		c0,0,5,3,6.6-1.6"/>
	<path id="XMLID_99_" class="st20" d="M233.2,182.36c0,0,5.5,10.4,7.6,10.7c2.8,0.4-0.3-4-0.3-4s5.2,6.7,5.8,3.4
		c0.6-3.4-0.6-4.6-0.6-4.6s9.1,4,7.6,1.8c-1.5-2.1-10.4-9.4-10.4-9.4"/>
</g>
<path id="XMLID_97_" class="st27" d="M502.19,248.66c0,0-11.6-3.5-9.5-6.3c1.7-2.3,6.8,2.7,10.8,0.7s5.6-2.4,10.5-0.1
	c4.9,2.3,5.3,5.1,5.3,5.1S513.09,252.66,502.19,248.66L502.19,248.66z"/>
<g id="XMLID_35_">
	<path id="XMLID_96_" class="st14" d="M123.5,119.56c0,0,13.3,25.3,29,12.6c14.7-11.9,26.4-24.1,45.2-17c2.3,0.9,3.8,3.1,3.8,5.5
		v1.6c0,4-4,6.9-7.8,5.5c-7.6-2.7-19.2-4.5-27.6,4.5c-13.6,14.5-32.6,14.3-43.4-3.4L123.5,119.56L123.5,119.56z"/>
	<path id="XMLID_95_" class="st12" d="M120.39,87.36c0,0,10.9-7.7,12.8-16.7s1.3-14.7,11.5-17.9c10.3-3.2,23.1-1,30.1,13.5
		c7.4,15.3-5.7,24-5.7,24l-4.9,1.1v0.2c-3.7,5.5-4.3,5.6-7,7.5l-8.7,5.8l-2.6,1.3C145.99,105.86,135.09,84.76,120.39,87.36
		L120.39,87.36z"/>
	<path id="XMLID_94_" class="st37" d="M151.7,101.56c4.7-4.1,8.4-9.1,10.8-14.8l0.1-0.3l9.4-8.5c0,0-19.3-7.9-21-3
		c-6.4,18-23.1,13.7-23.1,13.7S145.29,102.06,151.7,101.56L151.7,101.56z"/>
	<path id="XMLID_91_" class="st12" d="M87.39,56.06c0,0,3.1-9.5,7.5-12.5c4.5-3.1,10-11.5,39.2-18l3.4-1.4c0,0,8.2-4.7,16.3-4.1
		c5.4,0.4,4.8,1.8,4.8,1.8s8.7,7.9,0.4,7.8c-8.3,0-9,4.4-9,4.4s1.9,3.1,6.7,2.1c4.8-1,6.5-1,6.5-1s-2.1,5.5-8.6,5.5
		s-9.1-4.4-15.5-3.9c-6.7,0.6-25.3,7.6-30.8,21.4 M166.99,141.26l6.1,7.4c0,0,24.3,6.4,45.5,19.2c0,0,0.5,0.1,2.6,1
		c6.7,3.1,14.8-4,21.2,7.3c0,0,1.9,2.5-1.4,3.7s-7.2,5.3-19.6-2.5c0,0-29.6-1-49.5-11.6c-19.8-10.6-17.6-14.6-17.6-14.6
		S164,141.16,166.99,141.26L166.99,141.26z"/>
	<path id="XMLID_90_" class="st12" d="M239.1,171.96c0,0,12.6,7.7,12.8,8.7c0.3,1.4-9.9-3.2-9.9-3.2s7.4,8.3,5.9,8.8
		c-1.3,0.5-9.2-7.2-9.2-7.2s6.3,7.9,5,8.2c-2.7,0.7-7.5-6.4-7.5-6.4s4,6.7,1.6,5.9c-1.4-0.5-6.1-6.2-6.1-6.2"/>
	<path id="XMLID_89_" class="st22" d="M171.3,155.26c0,0,27.9,14.2,42.5,15.3c18.3,1.4,22.8,10.1,24.7,14.6c1.2,3,2,4.3-0.3,3.4
		c-2.3-0.9-5.6-7-8.1-8.1c-8.5-3.9-10.3-2.5-10.3-2.5s-42.5-3.7-52.5-15.5c-10.1-11.9-0.2-1.7-0.2-1.7L171.3,155.26L171.3,155.26z"
		/>
	<path id="XMLID_88_" class="st8" d="M112.5,78.56l15.8,12.4c0,0,27.1,3.4,32.5,24.4c0,0-0.4,28.3,11.1,27.4c0,0,4.7,1.3,8.2,7.7
		c0,0-10.4,4.8-10.4,16.2c0,0-9.3-1.3-12.4-7.9l-25.2-30.6c0,0-27,9.5-27,25s3.4,24.3,3.4,24.3s16.3,20.6-0.8,31.3
		c-1.9,1.2-2.8,3.5-2.2,5.7c2.1,7.7,6.7,25.2,7.7,35.9c0,0,28.4,14.2,43.2,38.5c0,0,11.4,11.4,18.2,14.6c0,0,0.8-0.9,11.6,7.9
		l9.7,7.6c0,0,3.7-0.4,11.2,1.6c7.4,2,20.3,12.2,10.8,17.6s-33.7,0.7-47.3-18.9c0,0-53.4-27.1-75-56.1l-18.2-25
		c0,0-5.5,7.4-16.9,17.6l6.1,49.3c0,0-2.7,2.7,0.7,8.1c0,0,5.4,5.4,4.7,14.9c0,0,2.7,17.6,0,21.6c-2.7,4.1-24.3,6.1-23-2
		c0,0,3.4-0.7,4.7-5.4c1.4-4.7,1.4-16.9-0.7-23.6c-2-6.8-2.7-13.5-2.7-13.5l-4.7,5.4c0,0-10.1-62.1-7.4-68.2
		c2.7-6.1,21.8-34.1,21.8-34.1s-5.9-17.2-8-25.3s-9.1-58.4,22-87.4c0,0,7.2-5.1,9.2-13.9l0.1-9.2c0-4.5,0.7-9,1.9-13.4
		c1.8-6.1,4.4-14.1,6.5-15c0,0,12.7,0.8,18.8,10.3c0,0-2,7.5-3.8,10C105.1,66.96,108.7,78.16,112.5,78.56L112.5,78.56z"/>
	<path id="XMLID_87_" class="st33" d="M66.3,304.66c0,0,0,5.5,1.1,8.6c0,0-6.4-6.6-14.2,5.4l-2.7-13.5
		C50.5,305.16,61.7,299.46,66.3,304.66L66.3,304.66z"/>
	<path id="XMLID_84_" class="st8" d="M140.7,95.26c-9.4-4.7-15.5-14.6-23.5-16.7c-14.5-3.8-26.1,0-26.1,0l28.7,25.2L140.7,95.26z
		 M85.6,52.06c0,0,19.7,1.7,23.9,10.7l1.3-8.6c0,0-6-11.5-18.8-10.3C92,43.96,86,49.16,85.6,52.06z"/>
	<path id="XMLID_83_" class="st38" d="M72,321.16c0,0-0.2-9.6-6.4-10.3c0,0-11.1,0.6-12.4,7.8c0,0,3.5,21.3-4.7,22.1
		c-8.2,0.8-0.7,9.1-0.7,9.1s2.1,2.7,6.9,1.4c3.4-1,4.1-25.4,8.9-27.4C68.29,321.76,71.99,321.16,72,321.16L72,321.16z"/>
	<path id="XMLID_82_" class="st8" d="M48.89,350.76c0,0,7,2.1,8.7-6.2c1.8-9.1-1.1-26.7,10.5-26.7c6.2,0,6.9,8.7,6.9,13.1
		c0,1.4-1,2.6-2.4,2.9c0,0,3.4,13.7-1.8,17.4C70.8,351.26,60.6,356.96,48.89,350.76L48.89,350.76z"/>
	<path id="XMLID_81_" class="st31" d="M50.7,304.66c0,0-5.8,2.4-5,5.9s6.1,3,6.1,3L50.7,304.66z"/>
	<path id="XMLID_80_" class="st33" d="M160.99,312.96l7.9,4.3c0,0-1.5-12.8,6.7-13.7l-7.6-4.6
		C167.99,298.96,159.2,301.66,160.99,312.96L160.99,312.96z"/>
	<path id="XMLID_79_" class="st8" d="M127.8,291.66l33.2,27.1c0,0-2.1-7.6,0.6-13.7"/>
	<path id="XMLID_78_" class="st31" d="M160.99,318.76l3-3.7c0,0-5.8-4.6-1.8-11.9C162.2,303.26,158.6,309.36,160.99,318.76z"/>
	<path id="XMLID_77_" class="st38" d="M186.6,310.26c0,0-3.7-7-11-6.7s-10.4,8.5-7.9,13.7s15.2,13.7,15.2,13.7s-12.9-7.1-7.3-18
		C180.2,304.16,186.6,310.26,186.6,310.26L186.6,310.26z"/>
	<path id="XMLID_76_" class="st38" d="M183.49,306.56c0,0,22.2,11.6,25.3,14C211.89,323.06,192.69,321.16,183.49,306.56z"/>
	<path id="XMLID_75_" class="st20" d="M176.1,323.86c-2.4-3.3-3.4-7.4-2.6-11.4c0.7-3.3,2.6-6.4,7.4-5.4c9.6,2.1,3.7,10.1,21.6,11.5
		c6.1,0.5,22.6,7.8,18,16.4C215.2,344.66,190.2,343.26,176.1,323.86z"/>
	<path id="XMLID_74_" class="st39" d="M111,79.26c0,0-57.6,16.9-52.1,94.6l1.7,2.3c0,0-6.7-74.4,56.6-97.5"/>
	<path id="XMLID_69_" class="st39" d="M75,178.36c0,0,4.4-72.2,49.8-95.4l1.6,1.6c0,0-43.3,21.5-48.8,94.6L75,178.36z
		 M140.99,111.06c0,0,0.4,29.3,23.2,42.6l-2.3,2.7c0,0-18.2-12.3-25.5-41.5L140.99,111.06L140.99,111.06z M151.29,108.46
		c0,0,1.5,27.9,18.2,39.3l-4.1,1.4c0,0-15.6-15.6-17.9-40.3L151.29,108.46L151.29,108.46z M102.79,54.16c0,0-9.6,13-4.6,22.5
		l3.1-0.4c0,0-5-9.9,4.2-20.6L102.79,54.16z"/>
	<path id="XMLID_68_" class="st39" d="M159.39,112.26c0,0-7.1-8.8-24.1,4.6c-16.3,12.9-24.3,16-30.2,27.9
		c-6.4,13.1-3.4,32.9-3.4,32.9l-2.3,0.8c0,0-3.1-25.6,5.3-39s17.2-14.9,26-22.9s21.8-13.8,27.9-7.6
		C158.59,108.76,160.09,109.16,159.39,112.26L159.39,112.26z"/>
	<path id="XMLID_67_" class="st39" d="M90.6,179.86c0,0-2.3-25.6,4.9-41.6s26.1-34.5,32.5-37.8c8-4.2,16.4-5.7,20.3-1.5
		c0,0-5.7-5.1-11.5-5.3c-9.9-0.4-21.4,13.4-27.5,19.5c-6.1,6.1-26.4,27.9-21,66.1L90.6,179.86L90.6,179.86z"/>
	<path id="XMLID_66_" class="st31" d="M50.8,172.96c0,0-1.9,4.6,1.9,6.9c0,0,32.9,9.2,47,3.4s7.6-11.8,7.6-11.8
		S105.1,190.16,50.8,172.96L50.8,172.96z"/>
	<path id="XMLID_62_" class="st8" d="M99.89,178.76l0.4,6.1l2.8,0.2l-1.8-7.5L99.89,178.76z M92.5,179.46l0.8,7.7l2.2-0.6l-1.4-6.4
		L92.5,179.46z M59.89,175.36l0.8,8l-2.6-0.7l-0.8-7.3H59.89z"/>
	<path id="XMLID_61_" class="st12" d="M157.6,36.16c0,0,2.9-2.3,5.6-1s-5.1,4.9-5.1,4.9S159.2,38.56,157.6,36.16z"/>
	<path id="XMLID_60_" class="st8" d="M157.49,73.46l9.4,17.8c0.9,1.7,0.5,3.8-0.9,5c-1.6,1.4-2.5,2.4-5.1-0.3l-1.8,1.7
		c0,0,5,6.6,10.2-2c0.5-1.1,1-2.4,0.4-3.5l-10.6-21.3c0,0-3.9-3.5-9.1,0C149.99,70.86,155.49,67.76,157.49,73.46z"/>
	<path id="XMLID_59_" class="st31" d="M174.99,61.36c4.8,3.8,14.7,13.2,14.6,26c0,0-8.3-11.9-13.5-6.5c0,0-9.6-4.4-29.1-1.8
		c-12.4,1.6-15.6-4-15.6-4l-0.2-2.1c0,0-1.1-13,7.8-18.4c8.4-5.2,23.5-7.1,32.1,3C172.19,58.96,173.59,60.26,174.99,61.36
		L174.99,61.36z"/>
	<path id="XMLID_55_" class="st31" d="M173.49,61.06c0,0,19.8,12.2,19.5,25c0,0-7.1-13.7-15.9-12.5 M85.6,52.06
		c0,0,19.6-7.9,23.9,10.7l-1.5,0.1c0,0-5.6-15.9-21.1-9.3C86.89,53.56,85.6,52.06,85.6,52.06z M161.3,162.76c0,0,5.2-14.5,13-19.2
		C174.2,143.56,162.8,143.16,161.3,162.76z"/>
	<path id="XMLID_54_" class="st40" d="M139.8,94.16c0,0,18.4,8.2,19.6,19s3.6,25.5,9.8,31.2l1.7-1.4c0,0-10.2-9.1-9.8-28.4
		C161.1,114.56,159.6,101.06,139.8,94.16L139.8,94.16z"/>
	<path id="XMLID_50_" class="st10" d="M169.49,147.76l5.5,5l5.2-2.3c0,0-3.3-7.3-5.9-6.9L169.49,147.76L169.49,147.76z M108,62.86
		c0,0-4.1,7.8,2.6,13.7c0,0-12.2-0.4-4.1-17.4C106.5,59.16,108,62.86,108,62.86z M107.6,56.96l1.9,5.8l2-7.9l-1.8-2.5L107.6,56.96z"
		/>
	<path id="XMLID_49_" class="st40" d="M108.2,172.76c0,0-6-22,2-30.4c0,0-9.5,5.3-5.1,32.3"/>
	<path id="XMLID_48_" class="st21" d="M121.8,80.86c0,0-54.8,35-47.7,88c4.8,36.2,17.8,47.5,20.5,73.9c0.7,7.1,6.4,22.4,20.1,24.8
		c16.1,2.8,21.9,16.2,29,25.2c9.7,12.3,17.9,12.3,17.9,12.3l-1,13.2c0,0-30.1-18.7-65.1-55.2c-12-12.5-20.5-30.1-30.9-48.2
		c-40.3-69.7,9.3-136.7,43.7-138.8C108.3,76.06,117.6,76.66,121.8,80.86z"/>
	<path id="XMLID_45_" class="st21" d="M66.3,218.56c0,0-25.7,25.5-21.3,31.7c3.2,4.5,6,8.8,4.9,22.7c-1.2,14.4,9.1,28.1,9.1,28.1
		s-12.2,3.9-12.6,8.3c-0.4,4.3-10.4-58.6-8-67s22.1-35.1,22.1-35.1L66.3,218.56L66.3,218.56z M102.7,48.26c0,0-14,14.6-5.9,32.8
		l-16.6,11.2l3.2-10.7c0,0,0-30.6,11.2-37.7C94.6,43.86,101.3,44.06,102.7,48.26L102.7,48.26z"/>
	<path id="XMLID_44_" class="st12" d="M153.8,20.06c0,0,3.9-0.7,11.6,0.4c0,0,0.8,0.4,0,0.8s-7.6,1.1-7.6,1.1s12,0,13.4,1.2
		s-5.4,2.2-5.4,2.2s7,0.2,6.6,2.8c-0.2,1.3-5.4-0.8-5.4-0.8s6.8,1.3,5,4.2c-1,1.7-10.7-3.7-20.2-2.7"/>
	<path id="XMLID_43_" class="st22" d="M110.6,53.96c0,0,13.5-17.2,32.1-16.9c0,0,7.6,4.6,13.1,3.7c2.7-0.5,3.3-1.4,3.2-2.3
		c-0.1-0.9-1.1-1.5-2-1.3c-1.9,0.4-5.7,0.8-7.7-2.8c0,0,2.3-7.4,17.5-3.3c0,0,2.5,1.5,3.4-0.6c0,0-5.3-4.5-13.8-4.5
		s-15.2,4.6-23.1,5.8c-7.9,1.2-23.2,8.5-26.2,17.7L110.6,53.96z"/>
	<path id="XMLID_42_" class="st12" d="M142.99,80.86c0,0,7.3-12.9,11-9.1c4.1,4.3-1.8,9.4-1.8,9.4"/>
	<path id="XMLID_41_" class="st31" d="M132.1,64.16c0,0,0.3,10.4-3.7,15.2l7.2,3.1c2.1,0.9,4.5,0.6,6.4-0.8l6.8-9"/>
	<path id="XMLID_40_" class="st33" d="M105.2,212.46c0,0,6.5,18.8,8.1,37.9c0,0,6.8,0.5,16.5,10.2l-16.8-9.8
		C113,250.76,108.4,228.06,105.2,212.46L105.2,212.46z"/>
	<path id="XMLID_39_" class="st41" d="M161.6,305.06l12.5,5.3c0,0-0.9,20.6,16,25.1c0,0-19.6-8.4-22.4-19.8l-5.9-0.8
		C161.8,314.96,158.3,306.16,161.6,305.06L161.6,305.06z"/>
	<path id="XMLID_38_" class="st42" d="M58.89,301.06c0,0,1.4,13.9,4.6,20.3l-2.7,10.5c0,0-5.9-18.3-7.8-28.3L58.89,301.06z"/>
	<path id="XMLID_37_" class="st43" d="M155.3,60.16c-5.4,0.2-14.6-3-13.5-6.7c1.2-4,6.8-5.1,12.2-5.3s10.8,1.4,12.9,5.6
		C168.6,57.06,160.7,59.96,155.3,60.16z"/>
	<path id="XMLID_36_" class="st10" d="M164.6,50.96c0,0,1.3,0.4,1.2,1.7c-0.4,3.8-4.3,5.3-9.9,5.9c-3.3,0.4-8.4-1.2-10.7-3
		c-2.1-1.7-2.5-4.1-0.6-5.8c0,0-2.6,4.7,8.4,6.6C160.49,57.76,164.99,52.96,164.6,50.96z"/>
</g>
<ellipse id="XMLID_34_" class="st19" cx="150.6" cy="55.46" rx="9.9" ry="5.3"/>
<path id="XMLID_33_" class="st26" d="M213.99,179.56c0,0-9.5-9.7-6.3-11.5c1.8-1,7.5,10.3,13.9,8.9c1.9-0.4-1.1-7.1,0.9-6.2
	c2.1,0.9,9.3,7.7,10.6,12C234.49,187.16,215.8,183.86,213.99,179.56z"/>
<path id="XMLID_32_" class="st8" d="M582,78.56l-2.1,8.5l3.4-3.9c0,0-2.5,10.3-1.1,10.1c0.1,0,0.2,0,0.3-0.1c4.2-0.8,8.5,0,12.2,2.1
	c0,0,2.3-11,0.2-15.8s-3.9-5-3.9-5S582.3,73.06,582,78.56L582,78.56z"/>
<path id="XMLID_31_" class="st11" d="M580.3,79.06c0,0-0.4-6,6.3-6.2c6.6-0.2,7.8,5,7.8,5s1.4-8.5-8.5-8c-10,0.5-8.9,10.1-5.5,9.6
	L580.3,79.06z"/>
<path id="XMLID_30_" class="st9" d="M587.1,74.16c0,0,7.6,1.4,8.8,17.5C595.9,91.66,600.2,72.86,587.1,74.16z"/>
<path id="XMLID_29_" class="st12" d="M502.6,235.16c0,0,5.9-3.4,19.3,3.4C521.9,238.56,514.3,233.76,502.6,235.16z"/>
<path id="XMLID_28_" class="st44" d="M471.89,293.96c0,0-24.2,2.7-20.1,6.9c4.1,4.1,21.5,7.3,37.9-6.9"/>
<path id="XMLID_27_" class="st14" d="M568.3,306.16c0,0,25.5,0.3,34-9.7c8.8-10.5,11.5-12.3,11-12l-5,0.8c0,0-6.1,15.2-32.3,18.4"/>
<path id="XMLID_26_" class="st12" d="M251.1,43.16c0,0,9.1,1,11.2,6.4l11-6.2C273.2,43.36,263.89,36.46,251.1,43.16z"/>
<path id="XMLID_25_" class="st22" d="M257.2,88.36c-0.6,2.8-3.4,3.3-6.1,3.2l-2.7,2.1l3.9-0.7c2-0.4,3.8-1.7,4.6-3.6l0.2-0.4
	c0,0,8.5,2,9.1,0.8c0.1-0.2,0.1-0.5,0.1-0.9C265.19,89.96,257.89,85.36,257.2,88.36L257.2,88.36z"/>
<path id="XMLID_24_" class="st37" d="M147.99,81.46c0,0,2.7-7.8,5.3-6.6s1.8,3.2-1.6,6.4"/>
<path id="XMLID_23_" class="st12" d="M183.39,68.96c0,0,9.4,9.6,10.1,16.9C193.49,85.86,195.29,79.66,183.39,68.96z"/>
<path id="XMLID_22_" class="st18" d="M498.39,41.56l23.5-4.3l2.4-3.4c0,0-12.8,3.4-25,0.9C487.2,32.46,498.39,41.56,498.39,41.56z"
	/>
<path id="XMLID_21_" class="st12" d="M623.6,335.46c0,0,11.9,1.8,9.1,9.1C632.7,344.66,633.1,339.76,623.6,335.46z"/>
<path id="XMLID_20_" class="st27" d="M333.1,301.66c0,0-10.3,10.7,3.9,26.2c11.5,12.6,43.9,17.1,45.5,41.8l-4.3,1.2
	c0,0-5.3-12.2-24.1-20.4c-18.7-8.2-39.3-23.8-38.8-35.6"/>
<path id="XMLID_17_" class="st0" d="M301.5,174.66c0,0,1.4-16.4,18.7-20.1C320.3,154.56,301.5,154.86,301.5,174.66z M370.1,156.86
	c0,0,25.6,3.7,34.7-3.2C404.8,153.66,391.1,158.26,370.1,156.86z"/>
<path id="XMLID_16_" class="st2" d="M396.1,176.96c0,0,27.9-10.1,35.6-10.1C431.69,166.96,409.79,167.86,396.1,176.96z"/>
<path id="XMLID_15_" class="st12" d="M409.1,247.26c0,0,18.7,2,24.2,35.8C433.3,283.16,428.7,256.76,409.1,247.26z"/>
<path id="XMLID_14_" class="st9" d="M484.69,31.56c0,0-12.2-4.7-21.2-4.7c0,0-3.2-0.6-4.9,1.7l2,6.8c0.4,1.2,1.2,2.3,2.3,2.9
	l0.2,0.1l1,2.2c0.3,1.3,2.6,7.8,3.6,8c0.6,0.1,0.9-0.2,1.3-0.4c0.7-0.4,0.8-1.1,1.1-0.6c0.6,0.9,1.7,2.6,1.7,2.6s1,0,1.9,1.1
	c1,1.2,1.1,3.2,4.1,2.9c4.2-0.4,6.9-6,8.6-11.1C488.29,37.36,484.69,31.56,484.69,31.56L484.69,31.56z"/>
<g id="XMLID_12_">
	<path id="XMLID_13_" class="st8" d="M484.69,31.56c0,0-5.4-2.1-11.6-3.5c0.5,0.2,0.9,0.5,1.4,0.7c1.3,0.7,2.7,1.4,3.8,2.4
		c1.2,1,2.2,2.2,2.6,3.7c0.3,1.2,0.3,2.5,1,3.5c0.5,0.7,1.2,1.1,1.8,1.6c1.1,1,1.8,2.5,2,4c0,0.2,0.1,0.5,0.1,0.7l0.6-1.8
		C488.29,37.36,484.69,31.56,484.69,31.56L484.69,31.56z"/>
</g>
<path id="XMLID_11_" class="st45" d="M461,26.66c0,0,9.4-0.6,20.7,8.5c5.9,4.7,15.5,7.3,15.5,7.3l0.6-7.3
	C497.89,35.26,468.6,23.96,461,26.66z"/>
<g id="XMLID_7_">
	<path id="XMLID_8_" class="st46" d="M465.3,39.16c-0.3-0.6-0.1-1.4,0.6-1.8l4.5-2.2c1.8-0.8,3-1,4.6,0.9c1.4,1.8,0.7,4.4-0.9,5.1
		c-4.4,1.9-6.6,0.3-7.8-0.9C465.79,40.06,465.49,39.66,465.3,39.16L465.3,39.16z M460.8,39.86l-3.2,1.5c-3.2,2.2,0.6,6.1,4.4,5.6
		c3.8-0.5,2.1-5,1.7-5.9C463.3,39.86,462,39.26,460.8,39.86z"/>
</g>
<path id="XMLID_6_" class="st8" d="M471.1,49.46l0.6,0.2c0,0,0.5-0.8,1.6-1.1c4.1-1.1,3.2-2.3,4.1-3.4c0,3.6-3.9,6.9-5.6,6.1"/>
<path id="XMLID_5_" class="st8" d="M474.89,51.86c-0.6,0.4-1.4,0.3-2.5,0.1l-0.4-0.6c0,0,0.5,0.6,2.3-2l2.7-2.5l-0.7,2.8
	C476.09,50.56,475.59,51.36,474.89,51.86L474.89,51.86z"/>
<path id="XMLID_4_" class="st47" d="M473.69,35.06l7.9-5.9"/>
<path id="XMLID_3_" class="st46" d="M465.3,39.16c0,0-1.8-0.1-2.1,1"/>
<path id="XMLID_2_" class="st31" d="M155.1,76.86l-3,4.3l1.5,1.8c0,0,2.1-5,4.9-4.8c2.7,0.2,2-3.5,2-3.5L155.1,76.86z"/>
<g id="XMLID_359_">
	<path id="XMLID_358_" class="st4" d="M691.08,214.38v20.8h-4.4v-19.1C686.68,216.08,691.08,213.58,691.08,214.38z"/>
	<path id="XMLID_357_" class="st5" d="M675.58,218.98c0,0-9.1-19.9-0.8-32.4s2.8-39.7,15.8-39.1c15.8,0.8,17.4,54.8,15,64
		C702.48,222.68,688.08,233.88,675.58,218.98z"/>
	<ellipse id="XMLID_356_" class="st1" cx="687.68" cy="235.68" rx="16.2" ry="2.8"/>
	<path id="XMLID_355_" class="st7" d="M688.28,148.68c0,0-8.1,10.6-1.2,24.9c6.9,14.3,6.9,55.5-3.7,50.5c-10.6-5-14.3-24.9-8.7-34.3
		c5.6-9.3,6.2-28.7,6.2-28.7S678.98,147.48,688.28,148.68z"/>
</g>
<path id="XMLID_347_" class="st1" d="M537.6,172.43c0,0,9.3-14.3,14.3-8.1l5,6.2c0,0,1.9-6.2,7.5-2.5l5.6,3.7L537.6,172.43
	L537.6,172.43z M634.29,168.93c0,0,4.5-7,7-3.9l2.4,3c0,0,0.9-3,3.6-1.2l2.7,1.8L634.29,168.93L634.29,168.93z M707.9,143.63
	c0,0,6.1-24.1,9.2-17.9c3.1,6.2,5.2,20.2,5.2,20.2L707.9,143.63L707.9,143.63z M722.4,146.03c0,0,4.4-18,6.7-13.4
	c2.3,4.6,3.8,15,3.8,15L722.4,146.03z M811.09,175.63c0,0,9.3-14.2,14.2-8.1l5,6.2c0,0,2.1-6.6,7.4-2.5c6.7,5.1,7.3,5.8,5.6,3.7
	L811.09,175.63L811.09,175.63z M1228.4,152.23c0,0,5.8-8.9,8.9-5l3.1,3.9c0,0,1.2-3.9,4.6-1.5l3.5,2.3L1228.4,152.23z
	 M1255.8,131.93c0,0,5.3-21.2,8.2-15.4s4.8,18.8,4.8,18.8L1255.8,131.93L1255.8,131.93z"/>
<g id="XMLID_360_">
	<g id="XMLID_479_" class="st48">
		<path id="XMLID_481_" class="st25" d="M392.08,26.78l-6.2-2.9c-0.6-2.6-2-5.3-4-7.5c-2.8-2.9-5.9-3.7-7.6-1.9
			c-2.4,2.6-0.8,9.1,3.1,13.3c2.7,2.9,5.8,3.7,7.5,2c0.7-0.7,1.1-1.8,1.2-3l6.2,3.1c0.7,0.3,1.2-0.1,1.1-0.9
			C393.48,28.08,392.78,27.18,392.08,26.78z"/>
		
			<ellipse id="XMLID_480_" transform="matrix(-0.4929 -0.8701 0.8701 -0.4929 547.4166 363.0177)" class="st0" cx="379.5" cy="21.98" rx="6.3" ry="3.5"/>
	</g>
	
		<ellipse id="XMLID_478_" transform="matrix(-0.4735 -0.8808 0.8808 -0.4735 467.6454 509.1768)" class="st49" cx="386.01" cy="114.82" rx="5.7" ry="12.9"/>
	<path id="XMLID_475_" class="st50" d="M384.78,116.78l4.3-1.8l-0.2-2.3 M386.38,112.58l-4.3,1.8l0.2,2.2"/>
	
		<ellipse id="XMLID_474_" transform="matrix(-0.5993 -0.8005 0.8005 -0.5993 -219.9223 344.6804)" class="st51" cx="-23.7" cy="227.38" rx="23.9" ry="14.8"/>
	<path id="XMLID_473_" class="st2" d="M-27.12,213.48l-7.9,12.3c-0.2,0.3,0,1,0.4,1.4l2.4,2.4c0.4,0.5,1,0.5,1.2,0.2s0-1-0.4-1.4
		l-1.6-1.6l2.7-4.4l14.1,14.2l-0.1,0.4c-0.2,0.3,0,1,0.4,1.4c0.4,0.5,1,0.5,1.2,0.2l2-3.1c0.2-0.3,0-1-0.4-1.4
		c-0.4-0.5-1-0.5-1.2-0.2l-0.6,0.4l-14.1-14.2l3.2-4.4l1.6,1.6c0.4,0.5,1,0.5,1.2,0.2s0-1-0.4-1.4l-2.4-2.4
		C-26.32,213.18-26.92,213.18-27.12,213.48L-27.12,213.48z"/>
	<path id="XMLID_472_" class="st12" d="M-35.32,206.78c0,0,9.3-4.1,21.6,9.2c0,0,6.6,6.9,8.4,17.1c0,0-1.2-14.4-12.9-23
		C-30.12,201.38-35.32,206.78-35.32,206.78z"/>
	<g id="XMLID_466_">
		<path id="XMLID_469_" class="st25" d="M48.18,25.58c-8,0-9.9,6.5-4.3,14.5s16.6,14.5,24.6,14.5s9.9-6.5,4.3-14.5
			S56.18,25.58,48.18,25.58z M64.68,49.28c-5,0-12-4.1-15.5-9.1s-2.3-9.1,2.7-9.1s12,4.1,15.5,9.1
			C70.88,45.18,69.68,49.28,64.68,49.28z"/>
		<path id="XMLID_468_" class="st52" d="M49.28,46.08l3.2-2c0,0,7.2,6.4,14.1,4.8l5,5.3C71.48,54.18,62.68,57.18,49.28,46.08
			L49.28,46.08z"/>
		<path id="XMLID_467_" class="st53" d="M47.78,25.88l3.7,5.2c0,0-10.9,0.9,0.8,12.8l-3.1,2c0,0-8.9-6.4-8.8-15.8
			C40.38,30.08,41.68,24.98,47.78,25.88z"/>
	</g>
	<path id="XMLID_465_" class="st0" d="M-57.22,100.78l-30.3,32.1l19.7,28.3l30.4,0.8l-14.9-21.2l20.9-22.1L-57.22,100.78z"/>
	<path id="XMLID_464_" class="st26" d="M-87.52,132.88l19.7,28.3l30.5,0.7l-1.9,2.6h-27c-1.7,0-3.2-0.8-4.2-2.2l-18.7-27.4
		c-1.2-1.8-1-4.2,0.5-5.7l29.6-30.5l1.9,2L-87.52,132.88L-87.52,132.88z"/>
	<path id="XMLID_463_" class="st5" d="M-87.52,132.88l35.8,8.1l14,20.6c0.1,0.2,0,0.4-0.2,0.4l-26.8-0.2c-3.4,0.1-3.9-1-5-2.7
		L-87.52,132.88L-87.52,132.88z"/>
	<path id="XMLID_462_" class="st53" d="M-4.62,23.08l-17.5,14.3c0,0-1.7-6-9.5-3.1c-7.8,2.8,1.9,12.4,8.5,7.4l15.8-12.9l6,13.1
		l-12.4,10c0,0-5.2-6.6-10.2-2.5c-5,4,4.2,11.7,9.8,6.3l17.5-14.3L-4.62,23.08z"/>
	
		<ellipse id="XMLID_461_" transform="matrix(-0.7571 -0.6533 0.6533 -0.7571 -209.8508 66.2892)" class="st51" cx="-92.6" cy="72.16" rx="9.7" ry="15.7"/>
	<path id="XMLID_451_" class="st45" d="M-84.92,65.88h-2.7l-1.3,3.3l2.7-0.1L-84.92,65.88z M-86.82,70.48l-2.7,0.1l-1.2,3h2.7
		L-86.82,70.48z M-97.02,75.18c0.1,0.3,0.2,0.7,0.3,1l0.4-1H-97.02z M-94.52,70.68l-2.7,0.1l-0.2,0.5c0,0.9,0.1,1.7,0.2,2.6h1.5
		L-94.52,70.68z M-92.52,75.08l-2.6,0.1l-1.1,2.6l0.3,0.6h2.1C-93.82,78.38-92.52,75.08-92.52,75.08z M-88.62,74.98l-2.7,0.1
		l-1.3,3.2l2.7-0.1L-88.62,74.98z M-92.62,66.08h-2.8l-1.2,3.2h2.7L-92.62,66.08z M-88.82,65.98h-2.6l-1.3,3.2h2.6L-88.82,65.98z
		 M-90.72,70.58l-2.6,0.1l-1.2,3h2.6L-90.72,70.58z"/>
	<path id="XMLID_440_" class="st0" d="M-83.72,64.38l-11.7,0.3c-0.3,0-0.7,0.3-0.9,0.7l-0.4,1.1l-5.1,12.6c-0.2,0.4,0,0.7,0.3,0.7
		l6.4-0.1l5.2-0.1c0.3,0,0.7-0.3,0.9-0.7l5.5-13.7C-83.32,64.68-83.42,64.38-83.72,64.38z M-95.42,66.08l2.7-0.1l-1.3,3.2l-2.7,0.1
		L-95.42,66.08z M-97.22,70.78l2.7-0.1l-1.2,3.1h-2.7l1-2.6L-97.22,70.78z M-97.62,78.38l-2.7,0.1l1.3-3.2h2.7l-0.4,1L-97.62,78.38
		L-97.62,78.38z M-93.82,78.28h-2.6l0.2-0.6l1.1-2.6l2.6-0.1C-92.52,74.98-93.82,78.28-93.82,78.28z M-91.92,73.68l-2.6,0.1l1.2-3.1
		l2.6-0.1L-91.92,73.68z M-90.12,69.18l-2.6,0.1l1.3-3.2l2.6-0.1L-90.12,69.18z M-89.92,78.18l-2.7,0.1l1.3-3.2l2.7-0.1
		L-89.92,78.18z M-88.02,73.58l-2.7,0.1l1.2-3.1l2.7-0.1L-88.02,73.58z M-86.22,69.08l-2.7,0.1l1.3-3.2l2.7-0.1L-86.22,69.08z"/>
	<path id="XMLID_439_" class="st33" d="M-98.02,63.78c0,0,8.5-7.3,15.1-2.7c0,0,3.6,2.3,2.4,9.1c0,0,2.7-10.4-4.6-11.6
		C-92.42,57.28-98.02,63.78-98.02,63.78z"/>
	<path id="XMLID_438_" class="st53" d="M55.98,78.28l8.3,3.3l-1.3-8.8L55.98,78.28z"/>
	<path id="XMLID_437_" class="st25" d="M97.28,22.88v-3.8l-3.3-1.8l-3.2,1.8v3.8l3.2,1.8L97.28,22.88z"/>
	<ellipse id="XMLID_436_" class="st7" cx="-18.32" cy="260.08" rx="14.6" ry="5.3"/>
	<path id="XMLID_435_" class="st15" d="M-3.72,89.68c0,0-12.4,25.1,21.8,41.8l18.9-22.3c0,0-25.9-5.9-19-36.2L-3.72,89.68z"/>
	<path id="XMLID_427_" class="st0" d="M3.58,108.48c0,0,1.4,5.3,7.2,8.1v-1.2c0,0-4.6-2.5-6.4-7.5L3.58,108.48L3.58,108.48z
		 M5.28,102.48c0,0,2.2,7.5,7.8,10.4l0.6-0.9c0,0-5.7-4.4-7.6-10.6L5.28,102.48z M10.98,95.88c0,0,2.2,7.5,7.8,10.4l0.6-0.9
		c0,0-5.7-4.4-7.6-10.6L10.98,95.88z M7.18,97.38c0,0,1.7,8,8.9,12.2l0.7-1.1c0,0-6.6-5.1-8.8-12.2L7.18,97.38L7.18,97.38z
		 M-4.92,109.68c0,0-1.4-11.4,5.6-14.8c0,0-1.1-9.6,6-13.4C6.68,81.48-12.82,86.08-4.92,109.68z M13.48,120.18l10.3-11.9l1.1,0.7
		l-10.2,11.9L13.48,120.18z M15.68,122.38l10.2-11.9l1.2,0.7l-10.3,11.9L15.68,122.38z"/>
	<path id="XMLID_426_" class="st12" d="M17.98,72.88c0,0-8.5,28.6,19.2,36.6C37.28,109.48,7.68,107.08,17.98,72.88z"/>
	<path id="XMLID_423_" class="st26" d="M-77.02,140.48l7.2,10.9l21.8,1.6l-5.9-8.5L-77.02,140.48z M-57.22,101.78l25.8,16.9
		l-1.1-2.3l-26.6-17.6"/>
	<path id="XMLID_422_" class="st53" d="M-58.62,105.68l23,14.2l-17.1,19.1l-30.3-7.3L-58.62,105.68z"/>
	<path id="XMLID_419_" class="st15" d="M34.78,191.88c0.5,1.3-0.1,2.7-1.4,3.3l-16,6.8l-2.4-4.6l16.4-6.9
		C32.68,189.88,34.28,190.48,34.78,191.88z M12.98,197.78l2.6,5.1l-6.5-0.2L12.98,197.78z"/>
	<path id="XMLID_418_" class="st1" d="M-91.82,111.68c0,0-9.6,2.1-8.2,12.3l-8.9-4.1c0,0,6.2-15.8,15.1-15.1L-91.82,111.68
		L-91.82,111.68z"/>
	<path id="XMLID_417_" class="st12" d="M-31.42,118.68l-20.3,22.2l0.7-0.1l20.1-21.9l-1.6-2.5L-31.42,118.68z"/>
	<g id="XMLID_408_" class="st54">
		
			<ellipse id="XMLID_416_" transform="matrix(-0.2753 -0.9614 0.9614 -0.2753 505.7484 477.8742)" class="st51" cx="432.99" cy="48.32" rx="5.9" ry="12.1"/>
		<path id="XMLID_409_" class="st0" d="M437.58,45.78c-0.3,0.1-0.5,0.3-0.5,0.5l1.5,3.5c0.1,0.2,0.4,0.2,0.7,0.1
			c0.3-0.1,0.5-0.3,0.5-0.5l-1.5-3.5C438.18,45.68,437.88,45.68,437.58,45.78z M433.38,48.98c-0.3,0.1-0.5,0.3-0.5,0.5l0.8,1.8
			c0.1,0.2,0.4,0.2,0.7,0.1s0.5-0.3,0.5-0.5l-0.8-1.8C433.98,48.98,433.68,48.88,433.38,48.98z M428.38,50.68
			c0.3-0.1,0.5-0.3,0.5-0.5l-1.5-3.4c-0.1-0.2-0.4-0.2-0.7-0.1s-0.5,0.3-0.5,0.5l1.5,3.4C427.78,50.78,428.08,50.78,428.38,50.68z
			 M430.58,50.68l-3.8,1.2c-0.3,0.1-0.5,0.3-0.5,0.5c0.1,0.2,0.4,0.2,0.7,0.1l1.3-0.4l0.4,0.9c0.1,0.2,0.4,0.2,0.7,0.1
			s0.5-0.3,0.5-0.5l-0.4-0.9l1.3-0.4c0.3-0.1,0.5-0.3,0.5-0.5C431.18,50.58,430.88,50.58,430.58,50.68z M434.78,47.38l-1.3,0.4
			l-1.1-2.6c-0.1-0.2-0.4-0.2-0.7-0.1s-0.5,0.3-0.5,0.5l1.1,2.6l-1.3,0.4c-0.3,0.1-0.5,0.3-0.5,0.5c0.1,0.2,0.4,0.2,0.7,0.1l3.8-1.2
			c0.3-0.1,0.5-0.3,0.5-0.5S435.08,47.28,434.78,47.38z M438.98,44.08l-1.3,0.4l-0.4-0.9c-0.1-0.2-0.4-0.2-0.7-0.1s-0.5,0.3-0.5,0.5
			l0.4,0.9l-1.3,0.4c-0.3,0.1-0.5,0.3-0.5,0.5c0.1,0.2,0.4,0.2,0.7,0.1l3.8-1.2c0.3-0.1,0.5-0.3,0.5-0.5S439.28,43.98,438.98,44.08z
			"/>
	</g>
	<path id="XMLID_407_" class="st1" d="M347.98,142.38v-3.2l-2.8-1.7l-2.8,1.7v3.2l2.8,1.6L347.98,142.38z"/>
	<g id="XMLID_400_" class="st55">
		
			<ellipse id="XMLID_406_" transform="matrix(-0.9957 -0.0922 0.0922 -0.9957 1298.1752 162.3241)" class="st33" cx="652.84" cy="51.19" rx="11.7" ry="18.5"/>
		<g id="XMLID_403_">
			<path id="XMLID_405_" class="st27" d="M655.48,51.78l-2.9-4.7l3-4.4l2.8,4.6L655.48,51.78z"/>
			<path id="XMLID_404_" class="st27" d="M650.68,54.38l7.4,0.7l-7.4-12.3V54.38z"/>
		</g>
		<path id="XMLID_402_" class="st56" d="M645.58,52.18l6.3,10.4"/>
		<path id="XMLID_401_" class="st12" d="M647.48,35.68c0,0,4.2-6.2,11.1-2.1c6.1,3.6,8.4,15.1,4.7,24.5c0,0.1-0.1,0.2-0.1,0.4
			c0,0,3.7-11.9-0.8-18.3C657.98,33.88,655.08,32.08,647.48,35.68z"/>
	</g>
	<path id="XMLID_399_" class="st49" d="M677.38,214.48c3.8-7.5,5.4-18.7-0.5-34.8l-31.2,3.2c0,0,15.7,23.8-12.2,42.2l20,2.2
		C663.28,228.28,672.88,223.38,677.38,214.48L677.38,214.48z"/>
	<path id="XMLID_398_" class="st57" d="M678.58,213.68c0,0-7.4,9.9-15.3,7.3c0,0-8.2,6.1-14.6,5.9
		C648.58,226.88,670.48,232.58,678.58,213.68L678.58,213.68z"/>
	<path id="XMLID_391_" class="st2" d="M673.18,191.78l-16.8,1.7l-0.4-1.4l16.8-1.7L673.18,191.78z M672.28,188.48l-16.8,1.7
		l-0.4-1.4l16.8-1.7L672.28,188.48z M673.28,201.88l-16.9,0.7l-0.3-1.5l16.9-0.6L673.28,201.88z M672.78,198.58l-16.8,0.7l-0.4-1.4
		l16.9-0.7L672.78,198.58z M670.88,211.28l-16.8,0.6l-0.3-1.5l16.8-0.5L670.88,211.28z M672.28,208.08l-16.8,0.5l-0.4-1.4l16.9-0.5
		L672.28,208.08z"/>
	<g id="XMLID_386_" class="st58">
		
			<ellipse id="XMLID_390_" transform="matrix(-0.9811 -0.1933 0.1933 -0.9811 1267.2098 638.5764)" class="st59" cx="664.76" cy="257.46" rx="15.1" ry="9.3"/>
		<path id="XMLID_387_" class="st60" d="M665.68,254.38l-1.8,6 M669.78,258.58l-9.9-2.3"/>
	</g>
	
		<ellipse id="XMLID_385_" transform="matrix(-0.9889 -0.1484 0.1484 -0.9889 1281.9955 659.4044)" class="st61" cx="665.6" cy="281.88" rx="12" ry="4.5"/>
	
		<ellipse id="XMLID_384_" transform="matrix(-0.8613 -0.5081 0.5081 -0.8613 1206.8005 767.5839)" class="st62" cx="708.17" cy="219.08" rx="11" ry="17.5"/>
	<path id="XMLID_383_" class="st2" d="M708.08,213.48l-4.2,11.4l9.2-4.9L708.08,213.48z"/>
	<path id="XMLID_382_" class="st53" d="M689.48,78.08l18,18.9c0,0-5.9,3.1-1.6,12.1s12.6-4.5,6.2-11.7l-16.2-17
		c0,0,12.5-8.5,15.5,8.9l2.4-1.6C713.68,87.68,710.88,63.18,689.48,78.08L689.48,78.08z"/>
	<path id="XMLID_381_" class="st63" d="M689.48,78.08c0,0,11-11.2,19.8-1.7C709.28,76.38,700.38,70.68,689.48,78.08z"/>
	<path id="XMLID_380_" class="st12" d="M694.18,54.38l2-8.7l-8.5,2.6L694.18,54.38z"/>
	<path id="XMLID_376_" class="st53" d="M666.18,95.28v-2.8l-2.4-1.4l-2.4,1.4v2.8l2.4,1.4L666.18,95.28z M591.78,134.38h-3.9
		l2.3-3.1l-1.2-3.7l3.7,1.3l3.2-2.4l-0.1,4l3.2,2.2l-3.8,1.2l-1.2,3.7L591.78,134.38z M419.48,117.18l7.1-5.3l-8.1-3.5
		L419.48,117.18z"/>
	<path id="XMLID_375_" class="st3" d="M247.28,327.58l10.7-11c1.5-1.6,4.1-1.7,5.8-0.2l22.1,19.2c1.9,1.6,1.9,4.5,0.1,6.2l-9.8,9.4
		c-1.5,1.4-3.8,1.6-5.4,0.3l-22.9-17.6C245.68,332.28,245.48,329.38,247.28,327.58L247.28,327.58z"/>
	<g id="XMLID_363_">
		<path id="XMLID_374_" class="st10" d="M243.58,306.08l23.6,32.8c2.2,3.2,6.1,3.6,8.6,1.1l13.2-13.3c2.6-2.6,2.8-7.3,0.4-10.4
			l-23.7-30.8c-2.1-2.8-5.6-3.2-8.1-1.1l-13.1,11.3C241.78,298.08,241.28,302.78,243.58,306.08L243.58,306.08z"/>
		<path id="XMLID_373_" class="st2" d="M245.48,302.78l23.7,33.8l18.5-18.3l-24.1-31.3L245.48,302.78z"/>
		<path id="XMLID_370_" class="st15" d="M264.98,323.18l12.3-11.3l1,1.5l-12.1,11.6L264.98,323.18z M268.18,327.88l12.2-11.4l1,1.5
			l-12.1,11.7L268.18,327.88z"/>
		<g id="XMLID_364_">
			<path id="XMLID_367_" class="st25" d="M261.28,296.38c-4.1,0.7-6.8,5.3-6.1,10.2c0.7,4.9,4.7,8.3,8.8,7.6
				c4.1-0.7,6.8-5.3,6.1-10.2S265.38,295.58,261.28,296.38z M263.48,310.78c-2.6,0.4-5-1.7-5.5-4.8s1.3-5.9,3.8-6.4
				c2.6-0.4,5,1.7,5.5,4.8C267.78,307.48,266.08,310.38,263.48,310.78z"/>
			<path id="XMLID_366_" class="st12" d="M256.58,310.08l2.2-1.7c0,0,2,3.6,5.9,2l1.1,3.2
				C265.78,313.58,260.48,316.38,256.58,310.08z"/>
			<path id="XMLID_365_" class="st53" d="M261.28,296.38l0.5,3.3c0,0-6,1.6-3.1,8.8l-2.2,1.7c0,0-3-3.6-0.3-10.2
				C256.18,299.88,258.28,296.28,261.28,296.38L261.28,296.38z"/>
		</g>
	</g>
</g>
</svg>
