<svg xmlns="http://www.w3.org/2000/svg" width="617.907" height="60" viewBox="0 0 617.907 60">
  <defs>
    <style>
      .cls-1 {
        fill: rgba(16,137,149,0.66);
      }
    </style>
  </defs>
  <g id="Group_9" data-name="Group 9" transform="translate(-465.546 -1524)">
    <path id="Intersection_8" data-name="Intersection 8" class="cls-1" d="M-15.415-222.49c-16.366-.98-32.9-2.465-49.13-4.414-16.1-1.932-32.332-4.372-48.257-7.251-15.8-2.857-31.713-6.223-47.3-10-15.471-3.754-31.035-8.017-46.258-12.672-15.119-4.623-30.3-9.756-45.13-15.254-7.663-2.842-15.337-5.821-22.963-8.915h39.814A817.584,817.584,0,0,0,34.5-236a817.582,817.582,0,0,0,269.14-45h39.814c-7.627,3.093-15.3,6.072-22.963,8.915-14.827,5.5-30.01,10.631-45.13,15.254-15.223,4.655-30.786,8.918-46.257,12.672-15.588,3.782-31.5,7.148-47.3,10-15.925,2.879-32.161,5.319-48.258,7.251-16.233,1.949-32.763,3.434-49.129,4.414C67.9-221.5,51.107-221,34.5-221S1.1-221.5-15.415-222.49Z" transform="translate(808.999 1303) rotate(180)"/>
    <path id="Intersection_12" data-name="Intersection 12" class="cls-1" d="M-512.529-166A825,825,0,0,0-689.5-185a825,825,0,0,0-176.972,19h-57.813c13.275-3.945,26.764-7.585,40.182-10.84,15.588-3.782,31.5-7.148,47.3-10,15.925-2.879,32.161-5.319,48.258-7.251,16.233-1.949,32.763-3.434,49.129-4.414C-722.9-199.5-706.109-200-689.5-200s33.4.5,49.915,1.49c16.367.98,32.9,2.465,49.13,4.414,16.1,1.932,32.333,4.372,48.257,7.251,15.8,2.857,31.713,6.223,47.3,10,13.418,3.256,26.907,6.9,40.183,10.84Z" transform="translate(1464 1750)"/>
  </g>
</svg>
