<?xml version="1.0" encoding="utf-8"?>
<!-- Generator: Adobe Illustrator 19.0.0, SVG Export Plug-In . SVG Version: 6.00 Build 0)  -->
<svg version="1.1" id="Layer_1" xmlns="http://www.w3.org/2000/svg" xmlns:xlink="http://www.w3.org/1999/xlink" x="0px" y="0px"
	 viewBox="-471 0 2052 440" style="enable-background:new -471 0 2052 440;" xml:space="preserve">
<style type="text/css">
	.st0{fill:#92BBFF;}
	.st1{clip-path:url(#SVGID_2_);fill:#78AAFF;}
	.st2{clip-path:url(#SVGID_4_);}
	.st3{opacity:0.6;enable-background:new    ;}
	.st4{opacity:0.4;clip-path:url(#SVGID_6_);fill:#0C4DBD;enable-background:new    ;}
	.st5{opacity:0.4;clip-path:url(#SVGID_8_);fill:#0C4DBD;enable-background:new    ;}
	.st6{clip-path:url(#SVGID_10_);fill:#D2E1F5;}
	.st7{clip-path:url(#SVGID_12_);fill:#B2CCEA;}
	.st8{clip-path:url(#SVGID_14_);fill:#B2CCEA;}
	.st9{opacity:0.6;clip-path:url(#SVGID_16_);fill:#FFFFFF;enable-background:new    ;}
	.st10{opacity:0.7;clip-path:url(#SVGID_18_);fill:#FFFFFF;enable-background:new    ;}
	.st11{clip-path:url(#SVGID_20_);fill:#92BBFF;}
	.st12{clip-path:url(#SVGID_22_);fill:#B5CDEA;}
	.st13{opacity:0.9;clip-path:url(#SVGID_24_);fill:#3C78DF;enable-background:new    ;}
	.st14{opacity:0.5;clip-path:url(#SVGID_26_);fill:#79A6F6;enable-background:new    ;}
	.st15{clip-path:url(#SVGID_28_);fill:#ACCBFF;}
	.st16{clip-path:url(#SVGID_30_);fill:#E7EEF7;}
	.st17{clip-path:url(#SVGID_32_);fill:#92BBFF;}
	.st18{clip-path:url(#SVGID_34_);fill:#ACCBFF;}
	.st19{opacity:0.2;clip-path:url(#SVGID_36_);fill:#0C4DBD;enable-background:new    ;}
	.st20{opacity:0.3;clip-path:url(#SVGID_38_);fill:#0C4DBD;enable-background:new    ;}
	.st21{clip-path:url(#SVGID_40_);fill:#3C78DF;}
	.st22{clip-path:url(#SVGID_42_);fill:#155AD0;}
	.st23{clip-path:url(#SVGID_44_);fill:#0A3E72;}
	.st24{clip-path:url(#SVGID_46_);fill:#5492ED;}
	.st25{clip-path:url(#SVGID_48_);fill:#5492ED;}
	.st26{opacity:0.89;clip-path:url(#SVGID_50_);fill:#FFFFFF;enable-background:new    ;}
	.st27{clip-path:url(#SVGID_52_);}
	.st28{fill:#5492ED;}
	.st29{opacity:0.6;fill:#3C78DF;enable-background:new    ;}
	.st30{opacity:0.6;clip-path:url(#SVGID_54_);fill:#3C78DF;enable-background:new    ;}
	.st31{clip-path:url(#SVGID_56_);fill:#5492ED;}
	.st32{opacity:0.5;clip-path:url(#SVGID_58_);fill:#3C78DF;enable-background:new    ;}
	.st33{clip-path:url(#SVGID_60_);fill:#5492ED;}
	.st34{clip-path:url(#SVGID_62_);fill:#3858A0;}
	.st35{clip-path:url(#SVGID_64_);fill:#3858A0;}
	.st36{clip-path:url(#SVGID_66_);fill:#78AAFF;}
	.st37{clip-path:url(#SVGID_68_);fill:#ACCBFF;}
	.st38{clip-path:url(#SVGID_74_);fill:#EFE8DA;}
	.st39{clip-path:url(#SVGID_76_);fill:#D9E5F6;}
	.st40{clip-path:url(#SVGID_78_);fill:#E7EEF7;}
	.st41{clip-path:url(#SVGID_80_);fill:#B2CCEA;}
	.st42{clip-path:url(#SVGID_82_);fill:#EFE8DA;}
	.st43{clip-path:url(#SVGID_84_);fill:#5492ED;}
	.st44{opacity:0.5;clip-path:url(#SVGID_86_);fill:#3C78DF;enable-background:new    ;}
	.st45{opacity:0.7;clip-path:url(#SVGID_88_);fill:#3C78DF;enable-background:new    ;}
	.st46{opacity:0.8;clip-path:url(#SVGID_90_);fill:#25437A;enable-background:new    ;}
	.st47{clip-path:url(#SVGID_92_);fill:#3858A0;}
	.st48{opacity:0.8;clip-path:url(#SVGID_94_);fill:#25437A;enable-background:new    ;}
	.st49{opacity:0.3;clip-path:url(#SVGID_96_);fill:#0C4DBD;enable-background:new    ;}
	.st50{opacity:0.4;clip-path:url(#SVGID_98_);fill:#0C4DBD;enable-background:new    ;}
	.st51{clip-path:url(#SVGID_100_);fill:#92BBFF;}
	.st52{opacity:0.3;clip-path:url(#SVGID_102_);fill:#0C4DBD;enable-background:new    ;}
	.st53{clip-path:url(#SVGID_104_);fill:#ACCBFF;}
	.st54{opacity:0.3;clip-path:url(#SVGID_106_);fill:#094193;enable-background:new    ;}
	.st55{clip-path:url(#SVGID_108_);fill:#0A3E72;}
	.st56{clip-path:url(#SVGID_110_);fill:#5492ED;}
	.st57{clip-path:url(#SVGID_112_);fill:#B6D4FF;}
	.st58{clip-path:url(#SVGID_114_);fill:#ACCBFF;}
	.st59{clip-path:url(#SVGID_116_);fill:#78AAFF;}
	.st60{clip-path:url(#SVGID_118_);fill:#5492ED;}
	.st61{opacity:0.3;fill:#0E4D99;enable-background:new    ;}
	.st62{fill:#ACCBFF;}
	.st63{clip-path:url(#SVGID_120_);}
	.st64{fill:#EFE8DA;}
	.st65{fill:#003868;}
	.st66{fill:#012349;}
	.st67{fill:#3C78DF;}
	.st68{fill:#99805F;}
	.st69{fill:#155AD0;}
	.st70{opacity:0.3;fill:#0C4DBD;enable-background:new    ;}
	.st71{fill:#10459F;}
	.st72{fill:#9FC6FF;}
	.st73{fill:#E9EEF4;}
	.st74{opacity:0.5;}
	.st75{fill:#3858A0;}
	.st76{opacity:0.5;fill:#1D3458;enable-background:new    ;}
	.st77{opacity:0.5;fill:#003868;enable-background:new    ;}
	.st78{fill:#69AEC9;}
	.st79{fill:#063D59;}
	.st80{fill:#022947;}
	.st81{fill:#001C36;}
	.st82{fill:#013256;}
	.st83{fill:#FFFFFF;}
	.st84{fill:#0C478E;}
	.st85{opacity:0.6;fill:#003868;enable-background:new    ;}
	.st86{opacity:0.2;fill:#003868;enable-background:new    ;}
	.st87{opacity:0.7;fill:#003868;enable-background:new    ;}
	.st88{opacity:0.4;fill:#003868;enable-background:new    ;}
	.st89{opacity:0.15;fill:#003868;enable-background:new    ;}
	.st90{fill:#0C4DBD;}
	.st91{opacity:0.75;fill:#003868;enable-background:new    ;}
	.st92{fill:#CDBFA4;}
	.st93{fill:#725D46;}
	.st94{fill:#012F51;}
	.st95{fill:#3D66BF;}
	.st96{fill:#8C7457;}
	.st97{fill:#82684B;}
	.st98{opacity:0.2;fill:#5492ED;enable-background:new    ;}
	.st99{fill:#AA916B;}
	.st100{opacity:0.5;fill:#03141C;enable-background:new    ;}
	.st101{fill:#FFDEAE;}
	.st102{opacity:0.7;fill:#022947;enable-background:new    ;}
	.st103{opacity:0.3;fill:#003868;enable-background:new    ;}
	.st104{opacity:0.6;fill:#CDBFA4;enable-background:new    ;}
	.st105{fill:#114289;}
	.st106{fill:#2D74DA;}
	.st107{opacity:0.7;}
	.st108{fill:#003D75;}
	.st109{opacity:0.6;fill:#031C2B;enable-background:new    ;}
	.st110{fill:#2269D1;}
	.st111{fill:#E2D5C3;}
	.st112{opacity:0.2;fill:#E2D5C3;enable-background:new    ;}
	.st113{opacity:0.4;fill:#E2D5C3;enable-background:new    ;}
	.st114{opacity:0.4;fill:#EDE3D6;enable-background:new    ;}
	.st115{fill:#5B4733;}
	.st116{opacity:0.69;fill:#003868;enable-background:new    ;}
	.st117{fill:#064E7A;}
	.st118{opacity:0.6;fill:#99805F;enable-background:new    ;}
	.st119{opacity:0.5;fill:#99805F;enable-background:new    ;}
	.st120{fill:#031C2B;}
	.st121{opacity:0.6;fill:#022947;enable-background:new    ;}
	.st122{opacity:0.6;fill:#001C36;enable-background:new    ;}
	.st123{fill:#065793;}
	.st124{fill:#F4E8D3;}
	.st125{fill:#FFF0D7;}
	.st126{opacity:0.4;fill:#114289;enable-background:new    ;}
	.st127{fill:#02151E;}
	.st128{clip-path:url(#SVGID_122_);fill:#5492ED;}
	.st129{fill:none;stroke:#003868;stroke-width:1.367;stroke-miterlimit:10;}
	.st130{opacity:0.7;fill:#114289;enable-background:new    ;}
	.st131{fill:#1D3458;}
	.st132{opacity:0.5;fill:#5B4733;enable-background:new    ;}
	.st133{opacity:0.6;fill:url(#SVGID_123_);enable-background:new    ;}
	.st134{fill:#2849A1;}
	.st135{opacity:0.8;fill:#1D71B7;enable-background:new    ;}
</style>
<path class="st0" d="M1000,0H0l0.2,267.9c17.2,34.9,56.5,53.5,94.1,55.6c75.4,4.2,147.2-45.5,222.5-32.8
	c77.9,13.1,135.1,90.6,235.6,119.8c57,16.6,118.2,12.6,175.7-1.7c69.6-17.3,130.1-46.5,272-109.6V0H1000z"/>
<g>
	<defs>
		<path id="SVGID_1_" d="M93.6,323.7c75.4,4.2,147.2-45.5,222.5-32.8c76,12.9,135.1,90.6,235.6,119.8c57,16.6,118.2,12.6,175.7-1.7
			c69.6-17.3,130.4-45.3,272.3-108.4l-0.3-69.9h0.4V0.1H-0.1v268.5C16.9,303.2,56.1,321.7,93.6,323.7z"/>
	</defs>
	<clipPath id="SVGID_2_">
		<use xlink:href="#SVGID_1_"  style="overflow:visible;"/>
	</clipPath>
	<path class="st1" d="M317.6,118.5h63.6v43.7h-63.6V118.5z M179.2,25.9h110.4v129.7H179.2V25.9z"/>
</g>
<g>
	<defs>
		<path id="SVGID_3_" d="M93.6,323.7c75.4,4.2,147.2-45.5,222.5-32.8c76,12.9,135.1,90.6,235.6,119.8c57,16.6,118.2,12.6,175.7-1.7
			c69.6-17.3,130.4-45.3,272.3-108.4l-0.3-69.9h0.4V0.1H-0.1v268.5C16.9,303.2,56.1,321.7,93.6,323.7z"/>
	</defs>
	<clipPath id="SVGID_4_">
		<use xlink:href="#SVGID_3_"  style="overflow:visible;"/>
	</clipPath>
	<g class="st2">
		<g class="st3">
			<defs>
				<rect id="SVGID_5_" x="178.4" y="24.6" class="st3" width="110.7" height="130.8"/>
			</defs>
			<clipPath id="SVGID_6_">
				<use xlink:href="#SVGID_5_"  style="overflow:visible;"/>
			</clipPath>
			<path class="st4" d="M253.9,75.4c0,0-2.3-2.9-2.4-5.5c-0.1-2.6,0.6-6.8-2.3-8.4s-7.8-3.2-7.8-3.2s-1.1-6-1-9.9s1-14.7-7.6-14.5
				c0,0-2.4-0.5-3.5,0.4h-0.6c-1.1,0.2-3.4,1-4.1,5.3c-0.9,5.7-0.4,17.7-2,18.6s-4.4,2.8-4.4,2.8s-4.2,1.8-6.1,6.4
				s-6.8,17.4-6.4,18.8c0.5,1.5,3.4,2.9,4.9,5.4c1.5,2.4,10.5,9.5,10.5,9.5s0.7,3.9-0.1,5.4c-0.9,1.5-2.9,1.7-2.6,5.9
				c0.4,4.2,0.4,5.5,0,8.6s-4.3,18-4.4,20.8s-0.7,2.2-1.1,4.9s-2.8,9.3-4.3,13.7s-3.4,10.6-3.4,10.6s-0.1,1.3,1.2,1.7
				c0,0-1,9-1.8,10.1c-0.9,1.1-0.1,1.3-1,2.2s-1.8,0.6-1.8,0.6s2,1.3-1.6,3.5c-3.5,2.2-5.5,5.1-4.2,6.1s6,3.3,9.4-2.8l1.7-0.9
				l1.5-0.9l-0.1-2.4c0,0-1-2.1-0.2-3.2s-0.2-2.6,0.7-4.2c1-1.6,3.2-7.3,3.2-7.3l3.3-0.2c0,0,0.4-1.2,0.9-2.6
				c0.5-1.3-0.7-0.4-0.7-0.4s6.8-20.9,8.1-23.1c1.2-2.2,11.5-24.1,11.5-24.1s1.7,2,1.6,4.5c-0.1,2.5,1.1,17.1,1.1,20s-0.4,5.9,0,8.1
				c0.4,2.2-1.2,17.2-1.2,17.2s-0.4-0.6-0.5,0.9s1.2,2.6,1.2,2.6s0.2,3.7-1.2,5.6c-1.5,2-1.6,3.1-1.5,4.3s-2.7,8.1-2.2,9.4
				c0.5,1.3,6.5,4,8.8-0.7c0,0-0.1-3.1-0.6-5.1c-0.5-2.1-0.7-2.6-0.4-3.2c0.4-0.6-0.6-1.8,0.1-4.2c0.7-2.3,2.6-6,2.6-6l4.6-1.5
				c0,0-0.1-6.5,0-11.5s-0.6-8.4,1.3-20.5s4.2-27,2.9-32.1c-1.2-5.1-0.5-2.7-0.5-2.7l0.1-3.5c0,0-1-0.7-2.2-3.7
				c-1.2-2.9-1.6-4.6-1.6-4.6s4.6-7.9,4.8-11.2c0.1-3.3,0.2-4.8,0.2-4.8s2,0,2.1-1.8S253.9,75.4,253.9,75.4L253.9,75.4z M214.1,85.8
				c0.9-0.6,0.6-2.6,0.6-2.6l2.9-6.5c-0.6,3.3,3.1,17.8,3.1,17.8S213.3,86.4,214.1,85.8z"/>
		</g>
		<g>
			<defs>
				<path id="SVGID_7_" d="M93.6,323.7c75.4,4.2,147.2-45.5,222.5-32.8c76,12.9,135.1,90.6,235.6,119.8
					c57,16.6,118.2,12.6,175.7-1.7c69.6-17.3,130.4-45.3,272.3-108.4l-0.3-69.9h0.4V0.1H-0.1v268.5
					C16.9,303.2,56.1,321.7,93.6,323.7z"/>
			</defs>
			<clipPath id="SVGID_8_">
				<use xlink:href="#SVGID_7_"  style="overflow:visible;"/>
			</clipPath>
			<path class="st5" d="M178.9,155.4h108v2.1h-108V155.4z"/>
		</g>
		<g>
			<defs>
				<path id="SVGID_9_" d="M93.6,323.7c75.4,4.2,147.2-45.5,222.5-32.8c76,12.9,135.1,90.6,235.6,119.8
					c57,16.6,118.2,12.6,175.7-1.7c69.6-17.3,130.4-45.3,272.3-108.4l-0.3-69.9h0.4V0.1H-0.1v268.5
					C16.9,303.2,56.1,321.7,93.6,323.7z"/>
			</defs>
			<clipPath id="SVGID_10_">
				<use xlink:href="#SVGID_9_"  style="overflow:visible;"/>
			</clipPath>
			<path class="st6" d="M560.1-1h193.1v248.6H560.1V-1z M775.3,0.7h184.6v242.4H775.3V0.7z"/>
		</g>
		<g>
			<defs>
				<path id="SVGID_11_" d="M93.6,323.7c75.4,4.2,147.2-45.5,222.5-32.8c76,12.9,135.1,90.6,235.6,119.8
					c57,16.6,118.2,12.6,175.7-1.7c69.6-17.3,130.4-45.3,272.3-108.4l-0.3-69.9h0.4V0.1H-0.1v268.5
					C16.9,303.2,56.1,321.7,93.6,323.7z"/>
			</defs>
			<clipPath id="SVGID_12_">
				<use xlink:href="#SVGID_11_"  style="overflow:visible;"/>
			</clipPath>
			<path class="st7" d="M845.4,102.5l-47.4,20l0.4,123.2l47.8-0.2C846.3,245.6,844.5,103.5,845.4,102.5z"/>
		</g>
		<g>
			<defs>
				<path id="SVGID_13_" d="M93.6,323.7c75.4,4.2,147.2-45.5,222.5-32.8c76,12.9,135.1,90.6,235.6,119.8
					c57,16.6,118.2,12.6,175.7-1.7c69.6-17.3,130.4-45.3,272.3-108.4l-0.3-69.9h0.4V0.1H-0.1v268.5
					C16.9,303.2,56.1,321.7,93.6,323.7z"/>
			</defs>
			<clipPath id="SVGID_14_">
				<use xlink:href="#SVGID_13_"  style="overflow:visible;"/>
			</clipPath>
			<path class="st8" d="M959.3,245.4l-114.8,0.9l0.9-144.7L959.3,99V245.4z"/>
		</g>
		<g>
			<defs>
				<path id="SVGID_15_" d="M93.6,323.7c75.4,4.2,147.2-45.5,222.5-32.8c76,12.9,135.1,90.6,235.6,119.8
					c57,16.6,118.2,12.6,175.7-1.7c69.6-17.3,130.4-45.3,272.3-108.4l-0.3-69.9h0.4V0.1H-0.1v268.5
					C16.9,303.2,56.1,321.7,93.6,323.7z"/>
			</defs>
			<clipPath id="SVGID_16_">
				<use xlink:href="#SVGID_15_"  style="overflow:visible;"/>
			</clipPath>
			<path class="st9" d="M784.3,245.1h174.5v1.4H784.3V245.1z"/>
		</g>
		<g>
			<defs>
				<path id="SVGID_17_" d="M93.6,323.7c75.4,4.2,147.2-45.5,222.5-32.8c76,12.9,135.1,90.6,235.6,119.8
					c57,16.6,118.2,12.6,175.7-1.7c69.6-17.3,130.4-45.3,272.3-108.4l-0.3-69.9h0.4V0.1H-0.1v268.5
					C16.9,303.2,56.1,321.7,93.6,323.7z"/>
			</defs>
			<clipPath id="SVGID_18_">
				<use xlink:href="#SVGID_17_"  style="overflow:visible;"/>
			</clipPath>
			<path class="st10" d="M900.5,155h59.2v10.8h-59.2V155z M900.5,134.3h59.2v10.8h-59.2V134.3z M900.5,114.4h59.2v10.8h-59.2V114.4z
				 M900.5,197.1h59.2v10.8h-59.2V197.1z M900.5,217.8h59.2v10.8h-59.2V217.8z M900.5,175.6h59.2v10.8h-59.2V175.6z"/>
		</g>
		<g>
			<defs>
				<path id="SVGID_19_" d="M93.6,323.7c75.4,4.2,147.2-45.5,222.5-32.8c76,12.9,135.1,90.6,235.6,119.8
					c57,16.6,118.2,12.6,175.7-1.7c69.6-17.3,130.4-45.3,272.3-108.4l-0.3-69.9h0.4V0.1H-0.1v268.5
					C16.9,303.2,56.1,321.7,93.6,323.7z"/>
			</defs>
			<clipPath id="SVGID_20_">
				<use xlink:href="#SVGID_19_"  style="overflow:visible;"/>
			</clipPath>
			<path class="st11" d="M959.3,0.5h41.9v255.6h-41.9V0.5z"/>
		</g>
		<g>
			<defs>
				<path id="SVGID_21_" d="M93.6,323.7c75.4,4.2,147.2-45.5,222.5-32.8c76,12.9,135.1,90.6,235.6,119.8
					c57,16.6,118.2,12.6,175.7-1.7c69.6-17.3,130.4-45.3,272.3-108.4l-0.3-69.9h0.4V0.1H-0.1v268.5
					C16.9,303.2,56.1,321.7,93.6,323.7z"/>
			</defs>
			<clipPath id="SVGID_22_">
				<use xlink:href="#SVGID_21_"  style="overflow:visible;"/>
			</clipPath>
			<path class="st12" d="M798.3,245l-185,0.9V140h185.2L798.3,245z"/>
		</g>
		<g>
			<defs>
				<path id="SVGID_23_" d="M93.6,323.7c75.4,4.2,147.2-45.5,222.5-32.8c76,12.9,135.1,90.6,235.6,119.8
					c57,16.6,118.2,12.6,175.7-1.7c69.6-17.3,130.4-45.3,272.3-108.4l-0.3-69.9h0.4V0.1H-0.1v268.5
					C16.9,303.2,56.1,321.7,93.6,323.7z"/>
			</defs>
			<clipPath id="SVGID_24_">
				<use xlink:href="#SVGID_23_"  style="overflow:visible;"/>
			</clipPath>
			<path class="st13" d="M743.6,127.8c0,0-6.2,7.3,1.6,18l2.1-0.7c0,0-5.2-13.4-1.8-17.8"/>
		</g>
		<g>
			<defs>
				<path id="SVGID_25_" d="M93.6,323.7c75.4,4.2,147.2-45.5,222.5-32.8c76,12.9,135.1,90.6,235.6,119.8
					c57,16.6,118.2,12.6,175.7-1.7c69.6-17.3,130.4-45.3,272.3-108.4l-0.3-69.9h0.4V0.1H-0.1v268.5
					C16.9,303.2,56.1,321.7,93.6,323.7z"/>
			</defs>
			<clipPath id="SVGID_26_">
				<use xlink:href="#SVGID_25_"  style="overflow:visible;"/>
			</clipPath>
			<path class="st14" d="M670.2,158.2h36.2v10.9h-36.2V158.2z M621.7,158.2h36.2v15.7h-36.2V158.2z M715.3,158.2h36.2v10.9h-36.2
				V158.2z M670.2,182.8h36.2v10h-36.2V182.8z M622.4,203.1h36.2v8.6h-36.2V203.1z M684.6,202.9h91.6v8.4h-91.6V202.9z"/>
		</g>
		<g>
			<defs>
				<path id="SVGID_27_" d="M93.6,323.7c75.4,4.2,147.2-45.5,222.5-32.8c76,12.9,135.1,90.6,235.6,119.8
					c57,16.6,118.2,12.6,175.7-1.7c69.6-17.3,130.4-45.3,272.3-108.4l-0.3-69.9h0.4V0.1H-0.1v268.5
					C16.9,303.2,56.1,321.7,93.6,323.7z"/>
			</defs>
			<clipPath id="SVGID_28_">
				<use xlink:href="#SVGID_27_"  style="overflow:visible;"/>
			</clipPath>
			<path class="st15" d="M715.3,182.8h36.2v10h-36.2V182.8z"/>
		</g>
		<g>
			<defs>
				<path id="SVGID_29_" d="M93.6,323.7c75.4,4.2,147.2-45.5,222.5-32.8c76,12.9,135.1,90.6,235.6,119.8
					c57,16.6,118.2,12.6,175.7-1.7c69.6-17.3,130.4-45.3,272.3-108.4l-0.3-69.9h0.4V0.1H-0.1v268.5
					C16.9,303.2,56.1,321.7,93.6,323.7z"/>
			</defs>
			<clipPath id="SVGID_30_">
				<use xlink:href="#SVGID_29_"  style="overflow:visible;"/>
			</clipPath>
			<path class="st16" d="M806.5,70.9l70.4,0.7c0,0,0.7-10.5-4.1-6.2c-6.2,5.5-8.9,4.1-15-0.7c-5.5-4.3-6.8,6.8-13,1.4
				c-6.2-5.5-4.8-13-11.6-8.9s-13,10.9-16.4,8.9C813.3,64.1,806.5,70.9,806.5,70.9L806.5,70.9z M574.1,70.9l70.4,0.7
				c0,0,0.7-10.5-4.1-6.2c-6.2,5.5-8.9,4.1-15-0.7c-5.5-4.3-6.8,6.8-13,1.4c-6.2-5.5-4.8-13-11.6-8.9s-13,10.9-16.4,8.9
				C580.9,64.1,574.1,70.9,574.1,70.9L574.1,70.9z"/>
		</g>
		<g>
			<defs>
				<path id="SVGID_31_" d="M93.6,323.7c75.4,4.2,147.2-45.5,222.5-32.8c76,12.9,135.1,90.6,235.6,119.8
					c57,16.6,118.2,12.6,175.7-1.7c69.6-17.3,130.4-45.3,272.3-108.4l-0.3-69.9h0.4V0.1H-0.1v268.5
					C16.9,303.2,56.1,321.7,93.6,323.7z"/>
			</defs>
			<clipPath id="SVGID_32_">
				<use xlink:href="#SVGID_31_"  style="overflow:visible;"/>
			</clipPath>
			<path class="st17" d="M872.7,0.8h6.8v182.3h-6.8V0.8z M659.5-2.8h6.8v182.3h-6.8V-2.8z"/>
		</g>
		<g>
			<defs>
				<path id="SVGID_33_" d="M93.6,323.7c75.4,4.2,147.2-45.5,222.5-32.8c76,12.9,135.1,90.6,235.6,119.8
					c57,16.6,118.2,12.6,175.7-1.7c69.6-17.3,130.4-45.3,272.3-108.4l-0.3-69.9h0.4V0.1H-0.1v268.5
					C16.9,303.2,56.1,321.7,93.6,323.7z"/>
			</defs>
			<clipPath id="SVGID_34_">
				<use xlink:href="#SVGID_33_"  style="overflow:visible;"/>
			</clipPath>
			<path class="st18" d="M23.4,1.2h110.4V131H23.4V1.2z"/>
		</g>
		<g>
			<defs>
				<path id="SVGID_35_" d="M93.6,323.7c75.4,4.2,147.2-45.5,222.5-32.8c76,12.9,135.1,90.6,235.6,119.8
					c57,16.6,118.2,12.6,175.7-1.7c69.6-17.3,130.4-45.3,272.3-108.4l-0.3-69.9h0.4V0.1H-0.1v268.5
					C16.9,303.2,56.1,321.7,93.6,323.7z"/>
			</defs>
			<clipPath id="SVGID_36_">
				<use xlink:href="#SVGID_35_"  style="overflow:visible;"/>
			</clipPath>
			<path class="st19" d="M24.4,131.8h108v2.1h-108L24.4,131.8z"/>
		</g>
		<g>
			<defs>
				<path id="SVGID_37_" d="M93.6,323.7c75.4,4.2,147.2-45.5,222.5-32.8c76,12.9,135.1,90.6,235.6,119.8
					c57,16.6,118.2,12.6,175.7-1.7c69.6-17.3,130.4-45.3,272.3-108.4l-0.3-69.9h0.4V0.1H-0.1v268.5
					C16.9,303.2,56.1,321.7,93.6,323.7z"/>
			</defs>
			<clipPath id="SVGID_38_">
				<use xlink:href="#SVGID_37_"  style="overflow:visible;"/>
			</clipPath>
			<path class="st20" d="M38.1,51.9h36v5h-36V51.9z M81.2,52.2h14.3v4.7H81.2V52.2z M111.2,52.3h10.9v4h-10.9V52.3z"/>
		</g>
		<g>
			<defs>
				<path id="SVGID_39_" d="M93.6,323.7c75.4,4.2,147.2-45.5,222.5-32.8c76,12.9,135.1,90.6,235.6,119.8
					c57,16.6,118.2,12.6,175.7-1.7c69.6-17.3,130.4-45.3,272.3-108.4l-0.3-69.9h0.4V0.1H-0.1v268.5
					C16.9,303.2,56.1,321.7,93.6,323.7z"/>
			</defs>
			<clipPath id="SVGID_40_">
				<use xlink:href="#SVGID_39_"  style="overflow:visible;"/>
			</clipPath>
			<path class="st21" d="M425.6,146.6c0,0,25.1-9,43.3,0c18.1,9,17.1,18,21.1,32.4s29.2,76.1,29.2,76.1l-12.3-1.4l-34.2-61.5
				l-4.8,28.8c-0.9,5.4-1.2,10.9-1,16.3l1,21.9l-53.4,0.9c0,0-3.8-22.5,0.2-40.6c4-18,7.4-47.1,7.4-47.1l-22.6,25.3l-10.9-11.6
				C388.7,186.2,414.6,148.4,425.6,146.6L425.6,146.6z"/>
		</g>
		<g>
			<defs>
				<path id="SVGID_41_" d="M93.6,323.7c75.4,4.2,147.2-45.5,222.5-32.8c76,12.9,135.1,90.6,235.6,119.8
					c57,16.6,118.2,12.6,175.7-1.7c69.6-17.3,130.4-45.3,272.3-108.4l-0.3-69.9h0.4V0.1H-0.1v268.5
					C16.9,303.2,56.1,321.7,93.6,323.7z"/>
			</defs>
			<clipPath id="SVGID_42_">
				<use xlink:href="#SVGID_41_"  style="overflow:visible;"/>
			</clipPath>
			<path class="st22" d="M432.6,145.4c0,0-7.1,29.3-3,34.1l25.3,3.4l13.9-36.2l3.2,1.3c0,0-26.7,63.2-4.8,88.1
				c0,0,1.4,14.8,0.7,21.5l-53.4,0.9c0,0-4.7-20.4,0.8-43.2s14.6-68.4,14.6-68.4L432.6,145.4L432.6,145.4z"/>
		</g>
		<g>
			<defs>
				<path id="SVGID_43_" d="M93.6,323.7c75.4,4.2,147.2-45.5,222.5-32.8c76,12.9,135.1,90.6,235.6,119.8
					c57,16.6,118.2,12.6,175.7-1.7c69.6-17.3,130.4-45.3,272.3-108.4l-0.3-69.9h0.4V0.1H-0.1v268.5
					C16.9,303.2,56.1,321.7,93.6,323.7z"/>
			</defs>
			<clipPath id="SVGID_44_">
				<use xlink:href="#SVGID_43_"  style="overflow:visible;"/>
			</clipPath>
			<path class="st23" d="M495.6,257.6h-68c-1.9,0-3.5-1.6-3.5-3.5s1.6-3.5,3.5-3.5h68c1.9,0,3.5,1.6,3.5,3.5
				S497.6,257.6,495.6,257.6z"/>
		</g>
		<g>
			<defs>
				<path id="SVGID_45_" d="M93.6,323.7c75.4,4.2,147.2-45.5,222.5-32.8c76,12.9,135.1,90.6,235.6,119.8
					c57,16.6,118.2,12.6,175.7-1.7c69.6-17.3,130.4-45.3,272.3-108.4l-0.3-69.9h0.4V0.1H-0.1v268.5
					C16.9,303.2,56.1,321.7,93.6,323.7z"/>
			</defs>
			<clipPath id="SVGID_46_">
				<use xlink:href="#SVGID_45_"  style="overflow:visible;"/>
			</clipPath>
			<path class="st24" d="M473.9,226.9l4.3,23.7h9.5l3.7-23.8L473.9,226.9z"/>
		</g>
		<g>
			<defs>
				<path id="SVGID_47_" d="M93.6,323.7c75.4,4.2,147.2-45.5,222.5-32.8c76,12.9,135.1,90.6,235.6,119.8
					c57,16.6,118.2,12.6,175.7-1.7c69.6-17.3,130.4-45.3,272.3-108.4l-0.3-69.9h0.4V0.1H-0.1v268.5
					C16.9,303.2,56.1,321.7,93.6,323.7z"/>
			</defs>
			<clipPath id="SVGID_48_">
				<use xlink:href="#SVGID_47_"  style="overflow:visible;"/>
			</clipPath>
			<rect x="473.2" y="225.8" class="st25" width="18.9" height="3"/>
			<path class="st25" d="M992.41,352.21c-15.5,9.26-31.02,18.49-46.88,27.11c-3.99,2.17-10.09-2.61-6.84-6.84
				c13.61-17.71,33.32-28.88,51.79-40.79c4.19-2.7,8.13,1.84,7.23,5.66c6.91-4.16,13.86-8.24,21.05-11.88
				c0-0.75,0.13-1.51,0.34-2.29l0-65.77L-0.1,256.8l-0.9,127l1020.1-0.2v-47.02C1010.03,341.47,1001.26,346.92,992.41,352.21z"/>
		</g>
		<g>
			<defs>
				<path id="SVGID_49_" d="M93.6,323.7c75.4,4.2,147.2-45.5,222.5-32.8c76,12.9,135.1,90.6,235.6,119.8
					c57,16.6,118.2,12.6,175.7-1.7c69.6-17.3,130.4-45.3,272.3-108.4l-0.3-69.9h0.4V0.1H-0.1v268.5
					C16.9,303.2,56.1,321.7,93.6,323.7z"/>
			</defs>
			<clipPath id="SVGID_50_">
				<use xlink:href="#SVGID_49_"  style="overflow:visible;"/>
			</clipPath>
			<path class="st26" d="M909.5,258.2l-510.3,0.4V257l510.3,0.4V258.2z"/>
		</g>
		<g>
			<defs>
				<path id="SVGID_51_" d="M93.6,323.7c75.4,4.2,147.2-45.5,222.5-32.8c76,12.9,135.1,90.6,235.6,119.8
					c57,16.6,118.2,12.6,175.7-1.7c69.6-17.3,130.4-45.3,272.3-108.4l-0.3-69.9h0.4V0.1H-0.1v268.5
					C16.9,303.2,56.1,321.7,93.6,323.7z"/>
			</defs>
			<clipPath id="SVGID_52_">
				<use xlink:href="#SVGID_51_"  style="overflow:visible;"/>
			</clipPath>
			<g class="st27">
				<path class="st28" d="M744.9,133.5c0,0,0.7,21.9,8.9,21.2c6.2-0.5,10.7,8.7,5.9,14.6c0,0,3.7,5.9,16.4-2.5c0,0-5.5-4.8-4.3-16.1
					c0.6-5.9-11.6-28.7-25.2-25.2C741,126.9,744.9,133.5,744.9,133.5L744.9,133.5z"/>
				<path class="st28" d="M771.2,164.8c0,0,2.8,5.8,9.3,7.9s7.2,12.6,1,19.1c-6.3,6.4-24.6,22.1-37.7,16.1c0,0-10-4.8-16-13.3
					c-1.9-2.7-4.9-5.9-7.9-7.2c-0.9-0.4,4.8,1.2,3.6,1.4c-2.5,0.4-7.5-4.6-7.5-4.6s1.4-4.3-1.6-7.4s7.8-3.2,11.2-1.5
					c0,0,0.7,6.4,6,11.9s12.7,11.5,20.4,10.5c7.7-0.9,21-13.2,21-13.2"/>
				<path class="st28" d="M783.4,196.4c0,0-7.5,13.7-5.5,22.6c1.9,8.4,7.1,15,6.8,27.3s-10.3,58.8-10.3,58.8s-30.3-16.8-30.9-25.1
					c-0.6-8.3-7.2-29.1-5.7-44.1s1.1-34,8.6-49.7s14.8-19.6,21.9-21.2C777.2,163.1,791.6,173.7,783.4,196.4L783.4,196.4z"/>
				<path class="st29" d="M784.3,190.3c0,0-0.3,0.8-1,2.1c-2.9,5.7-12.5,21-31.5,19.8c0,0,24,29.5,22.2,51.9l8.2,2.4
					c0,0,8.8-20.4-4.2-47.6c0,0-2.7-10.1,4.5-21.1"/>
				<path class="st28" d="M715.1,176.4l-2.6-9.7c-0.2-0.7,0.3-1.4,1-1.4l8.1-0.5c0.5,0,1,0.3,1.2,0.8l5.5,19.6L715.1,176.4
					L715.1,176.4z M743.6,129c0,0,16.6,5.3,18.7,20.3l2.1,7.5l14.4-4.1c5.9-3.8,5.2-15.6,1.2-21.4
					C772.2,120.3,759.3,107.8,743.6,129z"/>
			</g>
		</g>
		<g>
			<defs>
				<path id="SVGID_53_" d="M93.6,323.7c75.4,4.2,147.2-45.5,222.5-32.8c76,12.9,135.1,90.6,235.6,119.8
					c57,16.6,118.2,12.6,175.7-1.7c69.6-17.3,130.4-45.3,272.3-108.4l-0.3-69.9h0.4V0.1H-0.1v268.5
					C16.9,303.2,56.1,321.7,93.6,323.7z"/>
			</defs>
			<clipPath id="SVGID_54_">
				<use xlink:href="#SVGID_53_"  style="overflow:visible;"/>
			</clipPath>
			<path class="st30" d="M743.3,129.2c0,0,9.4-0.2,12.8,6.2c3.3,6.4,7,21.6,14.9,19.4c4.8-1.3,13.4-4.9,13.1-12.8
				c-0.3-7.9-8.5-25.4-26.1-24.5C757.9,117.6,747.4,121.4,743.3,129.2L743.3,129.2z"/>
		</g>
		<g>
			<defs>
				<path id="SVGID_55_" d="M93.6,323.7c75.4,4.2,147.2-45.5,222.5-32.8c76,12.9,135.1,90.6,235.6,119.8
					c57,16.6,118.2,12.6,175.7-1.7c69.6-17.3,130.4-45.3,272.3-108.4l-0.3-69.9h0.4V0.1H-0.1v268.5
					C16.9,303.2,56.1,321.7,93.6,323.7z"/>
			</defs>
			<clipPath id="SVGID_56_">
				<use xlink:href="#SVGID_55_"  style="overflow:visible;"/>
			</clipPath>
			<path class="st31" d="M715.1,177.3c0,0-3,1.6-1.4,2.5c0,0,0.9,0.9,0.7,1.8c-0.2,0.9,0.2,3.2,3.2,4.1c2.4,0.7,0-7.7,0-7.7
				 M724,171.6c0,0,3.2,2.5,3.2,5.2s0.9,6.2,0.9,6.2l-5.2-7.1 M628.5,116.7c-0.4-5.1,0.7-7.5,5-10.3c6.2-4,14.1-6.7,22.3-0.9
				c13.7,9.6-3.5,28.1,4.1,35.8c4.6,4.6,4.1,2.1,9.6,6.2s7.5,4.1,10.9,10.3s9.3,48.5,7.3,56s2.1,17.8,2.1,17.8l-7.5,100l-42,2.1
				c0,0-2.5-76.8-2.5-85.7c0-8.9,0.8-60.7-2.1-55.2c-15,29.2-49.9-3.1-49.9-3.1l10.9,3c0,0,16.2,2.2,20.3,0.2
				c4.1-2.1,9.8-6.3,9.8-18.6s7.5-20.7,13.7-24.1c4.1-2.3,4.9-6.5,0.9-8.7c-2-1.1-5.3-0.8-6.2-1.6
				C632.9,137.4,629.2,125.4,628.5,116.7L628.5,116.7z"/>
		</g>
		<g>
			<defs>
				<path id="SVGID_57_" d="M93.6,323.7c75.4,4.2,147.2-45.5,222.5-32.8c76,12.9,135.1,90.6,235.6,119.8
					c57,16.6,118.2,12.6,175.7-1.7c69.6-17.3,130.4-45.3,272.3-108.4l-0.3-69.9h0.4V0.1H-0.1v268.5
					C16.9,303.2,56.1,321.7,93.6,323.7z"/>
			</defs>
			<clipPath id="SVGID_58_">
				<use xlink:href="#SVGID_57_"  style="overflow:visible;"/>
			</clipPath>
			<path class="st32" d="M636.6,191.5l4.7,0.3l6.8-23.7c0,0,17.3-0.6,14.1,78.7c0,0-13.2-0.3-17.3,1c-4.1,1.4-6.8,2.3-6.8,2.3
				S638.9,195.2,636.6,191.5z"/>
			<path class="st32" d="M1087.65,193.22l-5.97,0.3l-8.63-23.7c0,0-21.97-0.6-17.9,78.7c0,0,16.76-0.3,21.97,1
				c5.21,1.4,8.63,2.3,8.63,2.3S1084.73,196.92,1087.65,193.22z"/>
		</g>
		<g>
			<defs>
				<path id="SVGID_59_" d="M93.6,323.7c75.4,4.2,147.2-45.5,222.5-32.8c76,12.9,135.1,90.6,235.6,119.8
					c57,16.6,118.2,12.6,175.7-1.7c69.6-17.3,130.4-45.3,272.3-108.4l-0.3-69.9h0.4V0.1H-0.1v268.5
					C16.9,303.2,56.1,321.7,93.6,323.7z"/>
			</defs>
			<clipPath id="SVGID_60_">
				<use xlink:href="#SVGID_59_"  style="overflow:visible;"/>
			</clipPath>
			<path class="st33" d="M608,193.7l-30.7-1.4l-4.8-9.5h39.6L608,193.7z"/>
		</g>
		<g>
			<defs>
				<path id="SVGID_61_" d="M93.6,323.7c75.4,4.2,147.2-45.5,222.5-32.8c76,12.9,135.1,90.6,235.6,119.8
					c57,16.6,118.2,12.6,175.7-1.7c69.6-17.3,130.4-45.3,272.3-108.4l-0.3-69.9h0.4V0.1H-0.1v268.5
					C16.9,303.2,56.1,321.7,93.6,323.7z"/>
			</defs>
			<clipPath id="SVGID_62_">
				<use xlink:href="#SVGID_61_"  style="overflow:visible;"/>
			</clipPath>
			<path class="st34" d="M434.7,105.9c-6.3,2.4-10,8.8-9.4,15.4c0.9,9.8,3.8,25,12.5,25.9c13,1.4,15.7-5.5,16.4-14.4
				c0.7-8.9,5.2-17.1-4.8-24.6C445.2,105.1,440.2,103.8,434.7,105.9z"/>
		</g>
		<g>
			<defs>
				<path id="SVGID_63_" d="M93.6,323.7c75.4,4.2,147.2-45.5,222.5-32.8c76,12.9,135.1,90.6,235.6,119.8
					c57,16.6,118.2,12.6,175.7-1.7c69.6-17.3,130.4-45.3,272.3-108.4l-0.3-69.9h0.4V0.1H-0.1v268.5
					C16.9,303.2,56.1,321.7,93.6,323.7z"/>
			</defs>
			<clipPath id="SVGID_64_">
				<use xlink:href="#SVGID_63_"  style="overflow:visible;"/>
			</clipPath>
			<path class="st35" d="M454,124.4c0,0,1.1,15,5.9,19.1l-0.9,5.2c-1.6,4.1-5,7.4-8.7,9.8c-2.6,1.7-6.2,0.9-7.7-1.9
				c-0.8-1.5-1.4-3.3-1.2-5.4c0.5-6.4-0.9-16.1-0.9-16.1 M366.8,182.8c0,0,3.4-8.2,10.9-6.8s6.2,8.9,6.2,8.9l-19.8-0.7L366.8,182.8
				L366.8,182.8z"/>
		</g>
		<g>
			<defs>
				<path id="SVGID_65_" d="M93.6,323.7c75.4,4.2,147.2-45.5,222.5-32.8c76,12.9,135.1,90.6,235.6,119.8
					c57,16.6,118.2,12.6,175.7-1.7c69.6-17.3,130.4-45.3,272.3-108.4l-0.3-69.9h0.4V0.1H-0.1v268.5
					C16.9,303.2,56.1,321.7,93.6,323.7z"/>
			</defs>
			<clipPath id="SVGID_66_">
				<use xlink:href="#SVGID_65_"  style="overflow:visible;"/>
			</clipPath>
			<path class="st36" d="M318.2,1.3h110.4v98.9H318.2V1.3z"/>
		</g>
		<g>
			<defs>
				<path id="SVGID_67_" d="M93.6,323.7c75.4,4.2,147.2-45.5,222.5-32.8c76,12.9,135.1,90.6,235.6,119.8
					c57,16.6,118.2,12.6,175.7-1.7c69.6-17.3,130.4-45.3,272.3-108.4l-0.3-69.9h0.4V0.1H-0.1v268.5
					C16.9,303.2,56.1,321.7,93.6,323.7z"/>
			</defs>
			<clipPath id="SVGID_68_">
				<use xlink:href="#SVGID_67_"  style="overflow:visible;"/>
			</clipPath>
			<path class="st37" d="M428.5-3.1l0.2,95.7C428.8,92.6,425.1,9.9,428.5-3.1z"/>
		</g>
		<g>
			<defs>
				<path id="SVGID_69_" d="M93.6,323.7c75.4,4.2,147.2-45.5,222.5-32.8c76,12.9,135.1,90.6,235.6,119.8
					c57,16.6,118.2,12.6,175.7-1.7c69.6-17.3,130.4-45.3,272.3-108.4l-0.3-69.9h0.4V0.1H-0.1v268.5
					C16.9,303.2,56.1,321.7,93.6,323.7z"/>
			</defs>
			<clipPath id="SVGID_70_">
				<use xlink:href="#SVGID_69_"  style="overflow:visible;"/>
			</clipPath>
		</g>
		<g>
			<defs>
				<path id="SVGID_71_" d="M93.6,323.7c75.4,4.2,147.2-45.5,222.5-32.8c76,12.9,135.1,90.6,235.6,119.8
					c57,16.6,118.2,12.6,175.7-1.7c69.6-17.3,130.4-45.3,272.3-108.4l-0.3-69.9h0.4V0.1H-0.1v268.5
					C16.9,303.2,56.1,321.7,93.6,323.7z"/>
			</defs>
			<clipPath id="SVGID_72_">
				<use xlink:href="#SVGID_71_"  style="overflow:visible;"/>
			</clipPath>
		</g>
		<g>
			<defs>
				<path id="SVGID_73_" d="M93.6,323.7c75.4,4.2,147.2-45.5,222.5-32.8c76,12.9,135.1,90.6,235.6,119.8
					c57,16.6,118.2,12.6,175.7-1.7c69.6-17.3,130.4-45.3,272.3-108.4l-0.3-69.9h0.4V0.1H-0.1v268.5
					C16.9,303.2,56.1,321.7,93.6,323.7z"/>
			</defs>
			<clipPath id="SVGID_74_">
				<use xlink:href="#SVGID_73_"  style="overflow:visible;"/>
			</clipPath>
			<path class="st38" d="M473,148.4c0,0,11.2,6.4,12.8,13.4c1.5,7,14,45,14,45l4.9,12c0,0-10.3-25.4-12.1-29.3
				c-1.8-3.9-7.9-30.4-10.6-33.1C480.4,154.9,473,148.4,473,148.4L473,148.4z"/>
		</g>
		<g>
			<defs>
				<path id="SVGID_75_" d="M93.6,323.7c75.4,4.2,147.2-45.5,222.5-32.8c76,12.9,135.1,90.6,235.6,119.8
					c57,16.6,118.2,12.6,175.7-1.7c69.6-17.3,130.4-45.3,272.3-108.4l-0.3-69.9h0.4V0.1H-0.1v268.5
					C16.9,303.2,56.1,321.7,93.6,323.7z"/>
			</defs>
			<clipPath id="SVGID_76_">
				<use xlink:href="#SVGID_75_"  style="overflow:visible;"/>
			</clipPath>
			<path class="st39" d="M580.2,91.6c0,0,11.8-10.9,20-9.1s13.7,10,13.7,10L580.2,91.6z"/>
		</g>
		<g>
			<defs>
				<path id="SVGID_77_" d="M93.6,323.7c75.4,4.2,147.2-45.5,222.5-32.8c76,12.9,135.1,90.6,235.6,119.8
					c57,16.6,118.2,12.6,175.7-1.7c69.6-17.3,130.4-45.3,272.3-108.4l-0.3-69.9h0.4V0.1H-0.1v268.5
					C16.9,303.2,56.1,321.7,93.6,323.7z"/>
			</defs>
			<clipPath id="SVGID_78_">
				<use xlink:href="#SVGID_77_"  style="overflow:visible;"/>
			</clipPath>
			<path class="st40" d="M789.8,32.1c0,0,9.3-8.6,15.7-7.1c6.4,1.4,10.7,7.9,10.7,7.9L789.8,32.1z"/>
		</g>
		<g>
			<defs>
				<path id="SVGID_79_" d="M93.6,323.7c75.4,4.2,147.2-45.5,222.5-32.8c76,12.9,135.1,90.6,235.6,119.8
					c57,16.6,118.2,12.6,175.7-1.7c69.6-17.3,130.4-45.3,272.3-108.4l-0.3-69.9h0.4V0.1H-0.1v268.5
					C16.9,303.2,56.1,321.7,93.6,323.7z"/>
			</defs>
			<clipPath id="SVGID_80_">
				<use xlink:href="#SVGID_79_"  style="overflow:visible;"/>
			</clipPath>
			<path class="st41" d="M910.8,100.3V36.8l48.5,32.1v32L910.8,100.3z"/>
		</g>
		<g>
			<defs>
				<path id="SVGID_81_" d="M93.6,323.7c75.4,4.2,147.2-45.5,222.5-32.8c76,12.9,135.1,90.6,235.6,119.8
					c57,16.6,118.2,12.6,175.7-1.7c69.6-17.3,130.4-45.3,272.3-108.4l-0.3-69.9h0.4V0.1H-0.1v268.5
					C16.9,303.2,56.1,321.7,93.6,323.7z"/>
			</defs>
			<clipPath id="SVGID_82_">
				<use xlink:href="#SVGID_81_"  style="overflow:visible;"/>
			</clipPath>
			<path class="st42" d="M644,101.9c0,0,14.4,0.3,16.9,9.4c2.4,9.1-2,15.5-2,15.5C660.4,126.6,666.5,104.3,644,101.9z M670.6,148.3
				c0,0,12.3,1.1,15.3,30.8C685.9,179.1,680.9,152.5,670.6,148.3z"/>
		</g>
		<g>
			<defs>
				<path id="SVGID_83_" d="M93.6,323.7c75.4,4.2,147.2-45.5,222.5-32.8c76,12.9,135.1,90.6,235.6,119.8
					c57,16.6,118.2,12.6,175.7-1.7c69.6-17.3,130.4-45.3,272.3-108.4l-0.3-69.9h0.4V0.1H-0.1v268.5
					C16.9,303.2,56.1,321.7,93.6,323.7z"/>
			</defs>
			<clipPath id="SVGID_84_">
				<use xlink:href="#SVGID_83_"  style="overflow:visible;"/>
			</clipPath>
			<path class="st43" d="M629.9,162.7l-6.4,21.9l13.2,5l9.6-26.9 M683.7,169.5l5,19.6l-8.2,3.2"/>
		</g>
		<g>
			<defs>
				<path id="SVGID_85_" d="M93.6,323.7c75.4,4.2,147.2-45.5,222.5-32.8c76,12.9,135.1,90.6,235.6,119.8
					c57,16.6,118.2,12.6,175.7-1.7c69.6-17.3,130.4-45.3,272.3-108.4l-0.3-69.9h0.4V0.1H-0.1v268.5
					C16.9,303.2,56.1,321.7,93.6,323.7z"/>
			</defs>
			<clipPath id="SVGID_86_">
				<use xlink:href="#SVGID_85_"  style="overflow:visible;"/>
			</clipPath>
			<path class="st44" d="M783.4,172.7c-3.7-0.6-7.5,1.2-9.4,4.4c-3.8,6.5-11.8,19.1-18.5,21.4c-9.1,3-12.1-1.8-12.1-1.8
				s1.8-13.1,11.2-23.4c0,0,7.3,5.8,21.6-6.5c0,0,5.2,2.6,6.4,5.6s-0.6,0.3-0.6,0.3H783.4L783.4,172.7z"/>
		</g>
		<g>
			<defs>
				<path id="SVGID_87_" d="M93.6,323.7c75.4,4.2,147.2-45.5,222.5-32.8c76,12.9,135.1,90.6,235.6,119.8
					c57,16.6,118.2,12.6,175.7-1.7c69.6-17.3,130.4-45.3,272.3-108.4l-0.3-69.9h0.4V0.1H-0.1v268.5
					C16.9,303.2,56.1,321.7,93.6,323.7z"/>
			</defs>
			<clipPath id="SVGID_88_">
				<use xlink:href="#SVGID_87_"  style="overflow:visible;"/>
			</clipPath>
			<path class="st45" d="M629.4,110.1c0,0-3.3,6.1-0.9,6.5c2.4,0.5,6.1,7.1,6.4,8c0.3,0.9-0.6-6.1,3-3.9c3.6,2.1,3.6,8.2,5.8,10.9
				c2.1,2.7,4.9,3.3,4.9,3.3l8.8-0.6c0,0,9.7-24.6-6.4-30.7C637.7,98.7,629.4,110.1,629.4,110.1z"/>
		</g>
		<g>
			<defs>
				<path id="SVGID_89_" d="M93.6,323.7c75.4,4.2,147.2-45.5,222.5-32.8c76,12.9,135.1,90.6,235.6,119.8
					c57,16.6,118.2,12.6,175.7-1.7c69.6-17.3,130.4-45.3,272.3-108.4l-0.3-69.9h0.4V0.1H-0.1v268.5
					C16.9,303.2,56.1,321.7,93.6,323.7z"/>
			</defs>
			<clipPath id="SVGID_90_">
				<use xlink:href="#SVGID_89_"  style="overflow:visible;"/>
			</clipPath>
			<path class="st46" d="M454.5,130.6c0,0-3,16.9-13.2,16.9c0,0,0.2,2.8,0.8,5.7c0.8,3.7,6.9,0.2,8.7-3.2c2.8-5.1,5-9.1,3.4-17
				L454.5,130.6L454.5,130.6z"/>
		</g>
		<g>
			<defs>
				<path id="SVGID_91_" d="M93.6,323.7c75.4,4.2,147.2-45.5,222.5-32.8c76,12.9,135.1,90.6,235.6,119.8
					c57,16.6,118.2,12.6,175.7-1.7c69.6-17.3,130.4-45.3,272.3-108.4l-0.3-69.9h0.4V0.1H-0.1v268.5
					C16.9,303.2,56.1,321.7,93.6,323.7z"/>
			</defs>
			<clipPath id="SVGID_92_">
				<use xlink:href="#SVGID_91_"  style="overflow:visible;"/>
			</clipPath>
			<path class="st47" d="M452.7,123.5c0,0,4.7-3,4.6,1.1c-0.2,4.1-3,7.1-5,7.1"/>
		</g>
		<g>
			<defs>
				<path id="SVGID_93_" d="M93.6,323.7c75.4,4.2,147.2-45.5,222.5-32.8c76,12.9,135.1,90.6,235.6,119.8
					c57,16.6,118.2,12.6,175.7-1.7c69.6-17.3,130.4-45.3,272.3-108.4l-0.3-69.9h0.4V0.1H-0.1v268.5
					C16.9,303.2,56.1,321.7,93.6,323.7z"/>
			</defs>
			<clipPath id="SVGID_94_">
				<use xlink:href="#SVGID_93_"  style="overflow:visible;"/>
			</clipPath>
			<path class="st48" d="M425.5,119.1c0,0,0.6-2.1,2.3-1.1c1.7,1.1,4.6,5.9,8.7,4.9s8.4-4.7,10.9-2.9s3.2,3.3,2.9,6.2
				c-0.1,1.3,0.1,2.5,0.3,3.4c0.3,0.9,1.4,1.3,2.1,0.6c0,0-0.5-7.7,2.6-7.1c0,0,3.9-11.1-8.8-17c0,0-13.2-5.6-19.7,8
				C426.7,114.1,425.3,116.1,425.5,119.1z"/>
		</g>
		<g>
			<defs>
				<path id="SVGID_95_" d="M93.6,323.7c75.4,4.2,147.2-45.5,222.5-32.8c76,12.9,135.1,90.6,235.6,119.8
					c57,16.6,118.2,12.6,175.7-1.7c69.6-17.3,130.4-45.3,272.3-108.4l-0.3-69.9h0.4V0.1H-0.1v268.5
					C16.9,303.2,56.1,321.7,93.6,323.7z"/>
			</defs>
			<clipPath id="SVGID_96_">
				<use xlink:href="#SVGID_95_"  style="overflow:visible;"/>
			</clipPath>
			<path class="st49" d="M385.2,21.3c-0.6-5.7-5.4-10.1-11.2-10.1c-5.8,0-10.6,4.4-11.2,10.1H347V64c0,4.9,3.9,8.8,8.8,8.8h35
				c4.9,0,8.8-3.9,8.8-8.8V21.3H385.2L385.2,21.3z M374,13.5c4.6,0,8.3,3.4,8.9,7.8h-17.8C365.7,16.9,369.4,13.5,374,13.5z"/>
		</g>
		<g>
			<defs>
				<path id="SVGID_97_" d="M93.6,323.7c75.4,4.2,147.2-45.5,222.5-32.8c76,12.9,135.1,90.6,235.6,119.8
					c57,16.6,118.2,12.6,175.7-1.7c69.6-17.3,130.4-45.3,272.3-108.4l-0.3-69.9h0.4V0.1H-0.1v268.5
					C16.9,303.2,56.1,321.7,93.6,323.7z"/>
			</defs>
			<clipPath id="SVGID_98_">
				<use xlink:href="#SVGID_97_"  style="overflow:visible;"/>
			</clipPath>
			<path class="st50" d="M319.7,99.4h108v2.1h-108V99.4z"/>
		</g>
		<g>
			<defs>
				<path id="SVGID_99_" d="M93.6,323.7c75.4,4.2,147.2-45.5,222.5-32.8c76,12.9,135.1,90.6,235.6,119.8
					c57,16.6,118.2,12.6,175.7-1.7c69.6-17.3,130.4-45.3,272.3-108.4l-0.3-69.9h0.4V0.1H-0.1v268.5
					C16.9,303.2,56.1,321.7,93.6,323.7z"/>
			</defs>
			<clipPath id="SVGID_100_">
				<use xlink:href="#SVGID_99_"  style="overflow:visible;"/>
			</clipPath>
			<path class="st51" d="M396.6,14.3l0.2,1.1c0.1,0.5,0.8,0.7,1.1,0.2l0.6-0.9c0.4-0.5,1.2-0.2,1.1,0.5l-0.2,1.1
				c-0.1,0.5,0.4,0.9,0.9,0.7l1-0.6c0.6-0.3,1.2,0.4,0.8,0.9l-0.7,0.9c-0.3,0.4,0,1,0.6,1l1.1-0.1c0.7-0.1,1,0.8,0.4,1.1l-1,0.5
				c-0.5,0.3-0.4,1,0.1,1.1l1.1,0.3c0.6,0.2,0.5,1.1-0.1,1.2l-1.1,0.1c-0.5,0.1-0.8,0.7-0.3,1.1l0.8,0.7c0.5,0.4,0,1.3-0.6,1l-1-0.4
				c-0.5-0.2-1,0.3-0.8,0.8l0.5,1c0.3,0.6-0.5,1.2-1,0.7l-0.8-0.7c-0.4-0.4-1-0.1-1,0.5v1.1c0,0.7-0.9,0.9-1.2,0.3l-0.4-1
				c-0.2-0.5-0.9-0.5-1.1,0l-0.4,1c-0.3,0.6-1.2,0.4-1.2-0.3v-1.1c0-0.5-0.6-0.8-1-0.5l-0.8,0.7c-0.5,0.5-1.3-0.1-1-0.7l0.5-1
				c0.2-0.5-0.2-1-0.8-0.8l-1,0.4c-0.6,0.2-1.1-0.6-0.6-1l0.8-0.7c0.4-0.4,0.2-1-0.3-1.1l-1.1-0.1c-0.7-0.1-0.8-1-0.1-1.2l1.1-0.3
				c0.5-0.2,0.6-0.9,0.1-1.1l-1-0.5c-0.6-0.3-0.3-1.2,0.4-1.1l1.1,0.1c0.5,0.1,0.9-0.5,0.6-1l-0.7-0.9c-0.4-0.5,0.2-1.2,0.8-0.9
				l1,0.6c0.5,0.3,1-0.1,0.9-0.7l-0.2-1.1c-0.1-0.7,0.7-1,1.1-0.5l0.6,0.9c0.3,0.4,1,0.3,1.1-0.2l0.2-1.1
				C395.5,13.6,396.4,13.6,396.6,14.3z"/>
		</g>
		<g>
			<defs>
				<path id="SVGID_101_" d="M93.6,323.7c75.4,4.2,147.2-45.5,222.5-32.8c76,12.9,135.1,90.6,235.6,119.8
					c57,16.6,118.2,12.6,175.7-1.7c69.6-17.3,130.4-45.3,272.3-108.4l-0.3-69.9h0.4V0.1H-0.1v268.5
					C16.9,303.2,56.1,321.7,93.6,323.7z"/>
			</defs>
			<clipPath id="SVGID_102_">
				<use xlink:href="#SVGID_101_"  style="overflow:visible;"/>
			</clipPath>
			<path class="st52" d="M38.1,18.3h36v5h-36V18.3z M81.2,18.5h14.3v4.7H81.2V18.5z M111.2,18.7h10.9v4h-10.9V18.7z M38.1,35.4h54.1
				v4.4H38.1V35.4z M111.2,35.2h10.9v4h-10.9V35.2z"/>
		</g>
		<g>
			<defs>
				<path id="SVGID_103_" d="M93.6,323.7c75.4,4.2,147.2-45.5,222.5-32.8c76,12.9,135.1,90.6,235.6,119.8
					c57,16.6,118.2,12.6,175.7-1.7c69.6-17.3,130.4-45.3,272.3-108.4l-0.3-69.9h0.4V0.1H-0.1v268.5
					C16.9,303.2,56.1,321.7,93.6,323.7z"/>
			</defs>
			<clipPath id="SVGID_104_">
				<use xlink:href="#SVGID_103_"  style="overflow:visible;"/>
			</clipPath>
			<path class="st53" d="M351.6,152.8L340,141c-3.6-3.6-1.6-9.7,2.1-9.9c3.2-1.3,6.3,0.8,8.5,2.8l0.7,0.6l0.1-0.1
				c2.3-2.5,4.5-4.6,8.9-3.7H360c3.8,0.2,5.8,6.6,2.5,9.9L351.6,152.8L351.6,152.8z"/>
		</g>
		<g>
			<defs>
				<path id="SVGID_105_" d="M93.6,323.7c75.4,4.2,147.2-45.5,222.5-32.8c76,12.9,135.1,90.6,235.6,119.8
					c57,16.6,118.2,12.6,175.7-1.7c69.6-17.3,130.4-45.3,272.3-108.4l-0.3-69.9h0.4V0.1H-0.1v268.5
					C16.9,303.2,56.1,321.7,93.6,323.7z"/>
			</defs>
			<clipPath id="SVGID_106_">
				<use xlink:href="#SVGID_105_"  style="overflow:visible;"/>
			</clipPath>
			<path class="st54" d="M393.1,183.9c0,0,27.9-34.3,34.6-36.4c6.7-2.1,14.6-0.6,14.6-0.6s4.1,9.4,4.4,13.1
				c0.3,3.6-13.2,39.5-12.3,51.9s10.6,15.6,12.8,24.1c2.1,8.5,2.1,20.8,2.1,20.8l-34.9,0.3c0,0-4.2-23.3,0.9-42s6.8-42.6,6.8-42.6
				l-22.6,25.3l-0.8-13.7l-7.2-0.5"/>
		</g>
		<g>
			<defs>
				<path id="SVGID_107_" d="M93.6,323.7c75.4,4.2,147.2-45.5,222.5-32.8c76,12.9,135.1,90.6,235.6,119.8
					c57,16.6,118.2,12.6,175.7-1.7c69.6-17.3,130.4-45.3,272.3-108.4l-0.3-69.9h0.4V0.1H-0.1v268.5
					C16.9,303.2,56.1,321.7,93.6,323.7z"/>
			</defs>
			<clipPath id="SVGID_108_">
				<use xlink:href="#SVGID_107_"  style="overflow:visible;"/>
			</clipPath>
			<path class="st55" d="M437.2,241.5v3.5l8.6,7h22.4l6.3-8.2v-2.6L437.2,241.5z"/>
		</g>
		<g>
			<defs>
				<path id="SVGID_109_" d="M93.6,323.7c75.4,4.2,147.2-45.5,222.5-32.8c76,12.9,135.1,90.6,235.6,119.8
					c57,16.6,118.2,12.6,175.7-1.7c69.6-17.3,130.4-45.3,272.3-108.4l-0.3-69.9h0.4V0.1H-0.1v268.5
					C16.9,303.2,56.1,321.7,93.6,323.7z"/>
			</defs>
			<clipPath id="SVGID_110_">
				<use xlink:href="#SVGID_109_"  style="overflow:visible;"/>
			</clipPath>
			<path class="st56" d="M441.1,241.4c0,0,12.1-5.5,16.7-5.2s15,5,15,5L441.1,241.4z"/>
		</g>
		<g>
			<defs>
				<path id="SVGID_111_" d="M93.6,323.7c75.4,4.2,147.2-45.5,222.5-32.8c76,12.9,135.1,90.6,235.6,119.8
					c57,16.6,118.2,12.6,175.7-1.7c69.6-17.3,130.4-45.3,272.3-108.4l-0.3-69.9h0.4V0.1H-0.1v268.5
					C16.9,303.2,56.1,321.7,93.6,323.7z"/>
			</defs>
			<clipPath id="SVGID_112_">
				<use xlink:href="#SVGID_111_"  style="overflow:visible;"/>
			</clipPath>
			<path class="st57" d="M454.6,236.9c0,0,3.2-2.6,15.9,3.2l1.2,0.8C471.8,240.9,459.5,236.2,454.6,236.9z"/>
		</g>
		<g>
			<defs>
				<path id="SVGID_113_" d="M93.6,323.7c75.4,4.2,147.2-45.5,222.5-32.8c76,12.9,135.1,90.6,235.6,119.8
					c57,16.6,118.2,12.6,175.7-1.7c69.6-17.3,130.4-45.3,272.3-108.4l-0.3-69.9h0.4V0.1H-0.1v268.5
					C16.9,303.2,56.1,321.7,93.6,323.7z"/>
			</defs>
			<clipPath id="SVGID_114_">
				<use xlink:href="#SVGID_113_"  style="overflow:visible;"/>
			</clipPath>
			<path class="st58" d="M289.8,27.4l0.2,72.4C290,99.8,286.4,37.2,289.8,27.4z"/>
		</g>
		<g>
			<defs>
				<path id="SVGID_115_" d="M93.6,323.7c75.4,4.2,147.2-45.5,222.5-32.8c76,12.9,135.1,90.6,235.6,119.8
					c57,16.6,118.2,12.6,175.7-1.7c69.6-17.3,130.4-45.3,272.3-108.4l-0.3-69.9h0.4V0.1H-0.1v268.5
					C16.9,303.2,56.1,321.7,93.6,323.7z"/>
			</defs>
			<clipPath id="SVGID_116_">
				<use xlink:href="#SVGID_115_"  style="overflow:visible;"/>
			</clipPath>
			<path class="st59" d="M243.7,75.5c0,0-2.4,7.3,1.5,14.3l1.5-7c0,0-2.7-5.2-3-7.6S243.7,73.7,243.7,75.5z"/>
		</g>
		<g>
			<defs>
				<path id="SVGID_117_" d="M93.6,323.7c75.4,4.2,147.2-45.5,222.5-32.8c76,12.9,135.1,90.6,235.6,119.8
					c57,16.6,118.2,12.6,175.7-1.7c69.6-17.3,130.4-45.3,272.3-108.4l-0.3-69.9h0.4V0.1H-0.1v268.5
					C16.9,303.2,56.1,321.7,93.6,323.7z"/>
			</defs>
			<clipPath id="SVGID_118_">
				<use xlink:href="#SVGID_117_"  style="overflow:visible;"/>
			</clipPath>
			<path class="st60" d="M743.6,129c0,0-1.1,8.7,0.7,9.8c1.1,0.7,1.1,1.8,0.7,3.4c-0.5,1.8-2.1,6.4,0.2,5.9c1.8-0.4,2.1,0.9,2.7,1.4
				c0.7,0.5,1.8,3.9,3.4,4.6c1.6,0.7,5,0.7,6.6,1.1"/>
		</g>
		<path class="st61" d="M43.9,0.2c0,0-11.2,96.3,98.9,116.1c109,19.6,123.1,83.5,162.7,102.2s114.3,29.7,114.3,29.7l12.1,8.8
			L0,256.8L0.2,0.1L43.9,0.2z"/>
		<path class="st28" d="M314.4,184.1h84.4V266h-84.4V184.1z"/>
		<path class="st62" d="M358.8,183.6l40,0.5l0.1,50.6l-2.3-48.8L358.8,183.6z"/>
		<g>
			<g>
				<defs>
					<path id="SVGID_119_" d="M1,230.6h0.1l1,37.4c16.1,34.9,54.1,54.1,91.8,56.2c75.4,4.2,146.4-45.9,221.7-33.3
						c77.9,13.1,130.8,88.6,236.8,119.7c57,16.7,118.2,12.6,175.7-1.7c69.5-17.3,130.1-44.9,271.8-108v-301H4.6L0,434.9h1V230.6z"/>
				</defs>
				<clipPath id="SVGID_120_">
					<use xlink:href="#SVGID_119_"  style="overflow:visible;"/>
				</clipPath>
				<g class="st63">
					<path class="st64" d="M67,158.4c0,0,26.4-1.5,35.3-1.1s48-14.6,52.4-15.9c4.4-1.3,10,6.4,10,6.4s7.8,1.7,8.7-2.3
						s-5.6-9.6-10.5-11.8s-34.2,2.7-51,6.8c-12.4,3-46-8.7-46-8.7"/>
					<path class="st65" d="M241,140.2l0.7,26.7c0.1,3.9,2.2,7.4,5.5,9.4c2.3,1.4,4.6,3.5,4.6,6.1c0.2,5.6-10.8,64.6-3.5,72.5
						s18-2.3,18.5-36.4c0,0-4.4-33.8-4.4-40.1S263,164,263,164"/>
					<path class="st66" d="M243.4,157.9c0,0-0.6,6.1,1.5,9.4c2.1,3.3,8.5,8.5,12.5,7.9s4.9-3.3,4.9-3.3s1.5-7.9,0.3-14"/>
					<path class="st67" d="M208.2,213.6l5.5,44.4l15,0.7l4.8-44.4C233.5,214.3,208.2,215,208.2,213.6L208.2,213.6z"/>
					<path class="st68" d="M189.8,173.3V163h6.3v-21.2h-51.9v87.5h5.3v10.3h-5.3v19.9h51.9v-86.2H189.8z"/>
					<path class="st69" d="M221.2,216.4l3.2-8.3c1.2-3.1,4-4,7.2-3.4l1.2,0.2l0.7-3l-3.3-0.4c-3.1-0.4-6.1,1.4-7.2,4.4l-5.2,13.8"/>
					<path class="st28" d="M232.2,219.1H209c-1.5,0-2.7-1.2-2.7-2.7s1.2-2.7,2.7-2.7h23.2c1.5,0,2.7,1.2,2.7,2.7
						S233.7,219.1,232.2,219.1z"/>
					<path class="st0" d="M684.6,224.1h91.6v8.4h-91.6V224.1z"/>
					<path class="st70" d="M38,87.3h36v5H38V87.3z"/>
					<path class="st71" d="M429,356.9c0,0,8.2-24.6-10.9-41.9c0,0,10,24.6,0,38.3"/>
					<path class="st71" d="M433.5,351.4c0,0,5.5-39.2-9.1-60.1c0,0,21,10.9,20,65.6c0,0,11.8-21,8.2-41.9c-3.6-21,1.8-5.5,1.8-5.5
						s16.4,10,3.6,64.7"/>
					<path class="st65" d="M902.1,328.4c0,0,4.6-42.8,21-42.8s34.2,9.4,35.1,19.4c0.9,10-17.8,54.4-17.8,54.4l-6.4-1.8
						c0,0,19.1-42.8,16.4-50.1c-2.7-7.3-25.5-17.3-31.9-10.9S902.1,354,902.1,354"/>
					<path class="st71" d="M977.1,311.3l-14.4-52.6c0,0-9.6,43.7,3.4,60.1 M424.2,353l-14.4-52.6c0,0-9.6,43.7,3.4,60.1"/>
					<path class="st72" d="M520.1,384.2l110.3-43.7l214.1-0.9l-9.1,20L788,427c0,0-160.9,19.1-245.6-17.4S520.1,384.2,520.1,384.2
						L520.1,384.2z"/>
					<path class="st73" d="M705.8,339.4h40.3"/>
					<g class="st74">
						<path class="st75" d="M742.8,296.3l6,48.5l16.4,0.7l5.2-48.5C770.4,297,742.8,297.8,742.8,296.3L742.8,296.3z"/>
						<path class="st75" d="M757,299.3l3.5-9c1.3-3.4,4.3-4.4,7.9-3.7l1.3,0.3l0.7-3.2l-3.6-0.5c-3.4-0.5-6.7,1.5-7.9,4.8l-5.6,15.1
							"/>
						<path class="st75" d="M769.2,302.2h-25.9c-1.5,0-2.7-1.2-2.7-2.7V299c0-1.5,1.2-2.7,2.7-2.7h25.9c1.5,0,2.7,1.2,2.7,2.7v0.5
							C771.9,301,770.7,302.2,769.2,302.2z"/>
						<path class="st75" d="M742.8,296.3l27.1,0.5c0,0-0.1-2.1,0-0.3s-26.5,0.3-26.5,0.3L742.8,296.3z"/>
					</g>
					<path class="st73" d="M744.7,339.4l95,0.8l-1.8,4.6L744.7,339.4z"/>
					<path class="st76" d="M654.7,370.8h69.5v6.8h-69.5V370.8z"/>
					<path class="st77" d="M680.6,374.6c0,0,100.7,13.9,145.3,3l3.6-23.5c0,0-92,15.4-104.7,13.6L680.6,374.6L680.6,374.6z"/>
					<path class="st65" d="M548.3,379.6l69.3,11.7l43.7-26.2l-21.8-2.8"/>
					<path class="st78" d="M564.6,190.1c0,0,0,7.5-9.7,11.2"/>
					<path class="st79" d="M795.5,174.5c-0.9,7.3,3.6,3.8,5.3,3.9c3.6,0.2-0.6,4.2,5.8,6.2c4.6,1.5,5.5-5.9,10-8
						c6.3-2.8,21,15.3,21,15.3c6.3-10.6,33.3-20.7,33.3-20.7c-5.7,0.5-11.2-6.7-19.4-17.6c-6.9-9.3,4-28.1-12.1-46.1
						c-10.9-12.2-28.5-18.3-49.6,0.5c-5.8,5.2-9.2,10.9-11.2,15.9c-3,7.4-3,15.8,0.3,23.1c1,2.2,2.3,4.2,3.8,5.2
						c1.3,0.8,2.9,1.9,3.4,4.5s-2.6,11.6,0.1,12.7c2.2,1,5.6,0.5,6.5,0.9c1,0.4-0.3,2.4,0.8,3.5
						C794.6,175.1,795.5,174.5,795.5,174.5L795.5,174.5z"/>
					<path class="st79" d="M780.2,132.6c0,0-0.7,4.5-0.3,8.7c0.3,4.3,0,8.8,2.3,10.8s3.1,1.1,2.7,4.8s-3.8,12.9,0.4,12.9
						c3.4,0.1,3.2-0.3,3.6,1.7c0.3,2-0.2,2.4,2.2,4.1l1.6,1.1c0,0-1.1,2.8,0.1,3.6c1.2,0.8,1.8-0.5,3.5,2.6
						c1.9,3.4,6.2,8.5,10.2,6.3c5.3-2.9,8.1-8.5,12.9-10.9c3.2-1.6,0.2,1.2,6,4.6s10.6,7.5,10.6,7.5l5-14.7l-41.3-36.9L780.2,132.6
						L780.2,132.6z"/>
					<path class="st80" d="M735.6,218.9c0,0,7.7-6.5,14.4-5.3c8.5,1.6,17.6,23.1,20.3,25.6s30.5,26.5,30.5,26.5L789,287.3
						l-25.3-33.8c-1.9-2.6-4.7-4.3-7.9-4.9c-3.1-0.6-5.1-2.8-9.8-4.2c-2.1-0.6-11.1-6.6-11.9-9.6c-0.4-1.3,1-2.5,2.3-1.8
						c3.6,1.9,9.3,3.9,11-0.9c2.5-7.1-0.4-12.2-6.6-9.7s-10.7,4.2-10.7,4.2s-4-0.8,1.3-4.7C736.8,218,735.6,218.9,735.6,218.9z"/>
					<path class="st81" d="M798,292.2c0,0,25.9,24.8,36.9,21.9s7.9-5.3,7.9-5.3l-8.3-40.5"/>
					<path class="st82" d="M576.9,127c0,0,14.4,9.2,11.8,22.1h6.5c0,0-5.2,25.2-10.4,40.5s-10.9,30.8,1.4,39.8l16.2,1.8
						c0,0-16.7-15.2-6.9-36.7s21-77.1-31.6-70.1"/>
					<path class="st83" d="M539.2,365.3l-13.2,11l92.3,10.9l42.8-27.1l-82.4-9.7L539.2,365.3z"/>
					<path class="st84" d="M588.2,358.5c0,0-48,25.9-62.2,26.7c-14.2,0.7-18.6,6.7-25.3,0c-6.7-6.7-4.7-92.4-0.8-120.5
						c1.8-12.6,6.6-33.6,24-45.6c0,0,15.3-3.5,20.5-10.9c5.2-7.5,7-23.1,7-23.1s16.7,16.1,33.9,9.4l-3.3-6.8c0,0-3.4,32.7,2.7,34.2
						c2.6,0.6,4.8-3.7,10.3,0.7c7.3,5.9,17.8,28,22.6,45.8c4.2,15.6,10.9,27.3,15,35.5c11.2,22.4,54,39.2,54,39.2l-17.1,8.6
						c0,0-45.7-17.3-51.5-27.6c-5.9-10.7-24.4-50.3-24.4-50.3s5.6,16.3-3,32.1c-11.1,20.2-6.5,43.1-5.9,48.3"/>
					<path class="st85" d="M547.9,377.6c0,0,29.5-5.5,35.5-4.1s36.9,6.2,41.6-3.4c4.4-9,1.3-9.6-6.7-12.3s-59.6-3.4-59.6-3.4
						L547.9,377.6L547.9,377.6z"/>
					<path class="st64" d="M549.9,203.4c0,0,9.2,16.6,29.7,7.7l3.1-11.1c0,0-24.6,6.2-31.4-19.8L549.9,203.4L549.9,203.4z"/>
					<path class="st64" d="M597.1,157.8c0,0-3.9,54.6-20.8,55.3c-14.3,0.6-25-9.5-25.7-23.7c0,0-4.4-36.6,4.7-40.3
						c9.1-3.7,10.4-24,24.8-11.7s13.1,17.9,13.1,17.9"/>
					<path class="st78" d="M565.1,190.1c0,0,0,7.5-9.7,11.2"/>
					<path class="st82" d="M577.4,127c0,0,14.4,9.2,11.8,22.1h6.5c0,0-5.2,25.2-10.4,40.5s-10.9,30.8,1.4,39.8l16.2,1.8
						c0,0-16.7-15.2-6.9-36.7s21-77.1-31.6-70.1"/>
					<path class="st64" d="M550.4,203.4c0,0,9.2,16.6,29.7,7.7l3.1-11.1c0,0-24.6,6.2-31.4-19.8L550.4,203.4L550.4,203.4z"/>
					<path class="st64" d="M598.2,149.8c0,0-3.9,54.6-20.8,55.3c-14.3,0.6-25-9.5-25.7-23.7c0,0-4.4-36.6,4.7-40.3
						c9.1-3.7,10.4-24,24.8-11.7s13.1,17.9,13.1,17.9"/>
					<path class="st82" d="M577.1,204.7c0,0-0.2,3,0.1,6.6c0.6,5.6,5,10.1,10.6,10.7c2.8,0.3,5.7,0.5,7.7,0.5c0,0-9.8-16.6-7.4-26.6
						C588.1,195.9,582.8,205,577.1,204.7L577.1,204.7z M574.3,132.3c0,0,8.6,10.2,7.3,27.3c0,0,16.9,0.2,15.7,6.6
						c0,0,9-35.3-20-39.7 M553.6,171.8c0,0,0.4,32.6-8.4,44.7c-13,17.8-7.1,32-7.1,32s-12.3,2.1-0.7-40.3"/>
					<path class="st86" d="M574.3,183c0.1-0.4,0.3-0.4,0.3,0c0.1,0.6,0.2,1.4,1.4,1.6c2,0.3,1.9,1.3,3.2,1.4
						c1.4,0.1,2.4-1.3,3.4-1.7c0.3-0.1,0.3-0.6,0.2-1.2c0-0.4,0-0.6,0.1-0.3c0.4,1.3,0.6,3.8-1,4.4c-3.1,1.2-2.3,1.2-3.6,1.1
						c-1.5-0.2-5.3-3.4-3.9-5.5C574.5,182.6,574.1,183.5,574.3,183L574.3,183z"/>
					<path class="st87" d="M583.9,192.5c0,0.4-0.2,0.8-0.6,1c-1.9,0.9-1.1,3.5-5.9,3.6c-5.2,0-5.1-2.6-6.5-4.3
						c-0.1-0.1-1.2-0.6-1.3-0.7c-0.4-0.2-0.2-1,0.2-0.8c1.9,1,3.1,0.8,4.5,0.5c0.5-0.1,0.9,0,1.3,0.2c0.4,0.3,0.9,0.5,1.4,0.4
						c0.3-0.1,0.6-0.2,0.9-0.4c0.4-0.3,1-0.3,1.5-0.1c0.8,0.5,2.2,1.1,3,1C583.2,192.9,583.6,192.2,583.9,192.5L583.9,192.5z"/>
					<path class="st88" d="M582.5,217.7c0,0-1.4-1.6-3.2-13c0-1.6-7.5,6.4-23.6-12.9c-3-2-2.6-10.4-2.6-10.4l-1.1,6.8
						c0,0,0,1.8,0.7,4.6C554.6,200.3,560.7,214.2,582.5,217.7L582.5,217.7z"/>
					<path class="st86" d="M553.3,174.7c0,0,1.7-12.8,4.4-16.8c0.3-0.5,3.2-6.9,3.3-6.3l-0.3,9.7c0,1.3,4.2-0.1,5.5,0.1l10.8,0.3
						c2.6,0.1,5.1,0.4,7.6,0.9c4.4,0.9,10.8,2.5,11.9,3.7l0.9-11.5c0,0-20.7-18.1-31.3-14.9C555.6,143.2,553.3,167.9,553.3,174.7
						L553.3,174.7z"/>
					<path class="st89" d="M554.9,166.9c0,0-2,6.8,7.9,13.1c4.6,2.9-4.2,12.5,1.1,19.7c0,0-11.7-7.2-10.8-15.8
						C554.3,172.3,553.5,167.8,554.9,166.9z"/>
					<path class="st64" d="M535.2,307.9l-0.4,33c0,0,47.2,11.2,53.2,9.9s10.6-5.5,17.2-3.1s30.9,16.8,21.9,20.4s-26.9,1.7-35-0.8
						c0,0-56.5-3.2-72.8-7.4c0,0-9.8,3.4-9.1-27.9l0.7-33.5L535.2,307.9L535.2,307.9z"/>
					<path class="st82" d="M574.6,124.1c0,0-26-6.5-34.2,29.2c-4.7,20.7,4.5,29.2-17.5,50.9c-11.1,11-10.5,32.7-10.5,32.7
						s33-17.7,36.2-30.1c3.3-12.4,3.5-50.9,12.6-58.1c1.3,4,2,4.6,1.8,8.9l-0.1,1.8l14.4-0.5c0,0,8.7-22.3-0.4-32.4
						C576.9,126.5,581.2,127.1,574.6,124.1z"/>
					<path class="st84" d="M556.8,228.7c0,0,15,19.1,25.3,2.1l1.4-17.1c0,0,6.2,25.3-4.8,45.1S564.3,269,564.3,269L556.8,228.7z"/>
					<path class="st90" d="M499.4,277.9c0,0,3.4-57.4,19.8-53.3c16.4,4.1,12.3,17.8,12.3,17.8"/>
					<path class="st84" d="M520.3,270.8c0,0-4.1,43.1-2.7,49.2c1.4,6.2,13,9.6,22.6,12.3s14.4,10.9,14.4,10.9l9.6,4.1l-12.3,22.6
						l-17.1-4.8c0,0-2.7-3.4-15-4.8s-36-12.9-35.5-28c0.9-31.9,9.5-54.8,9.5-54.8L520.3,270.8L520.3,270.8z M593.7,273.8
						c0,0,15,35.5,19.1,45.8s16.4,13.7,16.4,13.7l19.1,8.2l10.9-13l3.9-8.9c-4.1-14.4-25.5-8.5-27.8-21.8
						c-2.3-13.5-11.1-23.8-17.1-36.2c-5.6-11.5-4.1-26-10.3-34.2s-13-4.8-13-4.8s-10.3-2.7-15-15l-15,41.7l33.5,5.5"/>
					<path class="st91" d="M594.2,251.2c0,0,5.8,22.5,17,32.2c11.2,9.7,11.5,16.7,10.3,25.2s7,8.8,14.9,7.9s35.5,21,35.5,21
						l-12.5,10.9c0,0-24.6-12.8-28.2-14c-3.6-1.2-14.6-5.2-19.4-17.6c-4.9-12.5-18.8-45.6-18.8-45.6S588.1,249.3,594.2,251.2
						L594.2,251.2z"/>
					<path class="st92" d="M654.5,219.9v7.9H667V238h-12.5v59.3H667v10.3h-12.5V372h54.8V219.9H654.5z"/>
					<path class="st93" d="M709.5,334.2V324h12.4V220.2h-18.5v153.3h18.5v-39.3H709.5z"/>
					<path class="st84" d="M528.1,247.1l15.7-13.7l4.1-26l-30.6,12.7c0,0-28.7-6.4-26.2,14.6c2.6,21.2,4.1,30.8,1.4,45.1
						c-2.7,14.4-10.5,49.8-4.4,58.7c6.2,8.9,20.8,21.2,29.6,21.2c8.9,0,34.6,2.9,34.6,2.9"/>
					<path class="st91" d="M506,334.5c0,0,21,11.4,29.6,13.2c8.7,1.8,21.4,8.2,21.4,8.2L544.2,380c0,0-54.7-26-56-39.6"/>
					<path class="st82" d="M576.8,205c0,0-0.4,2.7-0.1,6.3c0.6,5.6,5,10.1,10.6,10.7c2.8,0.3,5.7,0.5,7.7,0.5c0,0-8.8-17-6.4-27
						C588.6,195.5,582.5,205.3,576.8,205z"/>
					<path class="st94" d="M789.1,337.3c21.6-15.2,34.2-40.3,34.2-40.3s4.1,50.4,2.7,68.3c-2.1,26.4-23.2,39.6-23.2,39.6l51.4,18.1
						l74.4-52.9c0,0-16.3-69.5-18.5-108.7c-3-54.3-18.8-83.1-30.1-84.1c-4.2-0.4-6.6-3.9-7.9-6.7c-1-2.2-0.7-4.7-3-5.2
						c-1.7-0.6-3.6-0.4-5.1,0.5c-2.7,1.5-7.5,4-13.1,5.9c-17.3,5.9-26.7,13-33,30.1l0.7-2.1c-0.8,2.3-4.3,10.5-2.1,9.6
						c5.8-2.4,10.2-8,13.6-6.5c0,0-8.2,5.3-14.3,21.6c-6.1,16.2-34.9,69-34.9,69L760.4,323l-34.3,34.5l-17.6-1.5
						c0,0-34.9,14.4-25.3,17.3c9.6,2.9,26.7,5,51.3-3.2C743.6,367.1,789.1,337.3,789.1,337.3L789.1,337.3z"/>
					<path class="st65" d="M869.2,260.5c0,0,1.7,24.9,4.1,43.1c2.5,18.3,3.3,53.9,3.3,53.9l-0.8,19.9l-50.6,12.4
						c0,0,2.5-39.8,2.5-53.1S869.2,260.5,869.2,260.5z"/>
					<circle class="st95" cx="845.7" cy="302.3" r="2.5"/>
					<path class="st80" d="M767.9,316.8l-41.8,40.6c0,0-15.8-0.4-19.3,0.8c-3.5,1.2-26,10-24.1,13.9c3.5,7.3,42.7,2.1,48.9-1.4
						s48-25.9,51.9-35.5L767.9,316.8L767.9,316.8z"/>
					<path class="st90" d="M759.1,322.3c0,0,7.6,24.6,15.7,24.6l13.7-8.2c0,0-19.3-26.9-17.1-32.1L759.1,322.3L759.1,322.3z"/>
					<path class="st96" d="M690,295.1h-23.1c-3,0-5.5-2.5-5.5-5.5v-41.1c0-3,2.5-5.5,5.5-5.5H690c3,0,5.5,2.5,5.5,5.5v41.1
						C695.5,292.6,693,295.1,690,295.1z M690.4,318.9h-24.6c-2.4,0-4.4-2-4.4-4.4s2-4.4,4.4-4.4h24.6c2.4,0,4.4,2,4.4,4.4
						S692.8,318.9,690.4,318.9z"/>
					<path class="st65" d="M690.4,353h-24.6c-2.4,0-4.4-2-4.4-4.4s2-4.4,4.4-4.4h24.6c2.4,0,4.4,2,4.4,4.4S692.8,353,690.4,353z"/>
					<path class="st96" d="M690.4,334.1h-24.6c-2.4,0-4.4-2-4.4-4.4s2-4.4,4.4-4.4h24.6c2.4,0,4.4,2,4.4,4.4
						S692.8,334.1,690.4,334.1z"/>
					<path class="st97" d="M711.2,245.3v36l10.5-0.7v-35.5C721.8,245.1,710.2,244.3,711.2,245.3L711.2,245.3z M703.5,294.4v28.8
						l10.5-0.5v-28.4C714,294.2,702.5,293.6,703.5,294.4z"/>
					<path class="st98" d="M537.4,229.7c0,0-2.3,29.9-1.8,42.6c0.5,12.8,3.6,55.8,3.6,55.8l-3.6-2.3c0,0-3.6-44.7-3.6-57
						s3.6-40.4,3.6-40.4 M561.7,213.2c0,0-4.9,10.9-2.9,19.7s5.5,25.8,6.2,41.5s-2.7,42.4-2.7,57.4s0.7,13,0.7,13l4.8,1.4
						c0,0-2.7-23.2-0.7-36.2c2.1-13,0.7-39-0.7-49.2c-1.4-10.3-1.9-23.6-4.1-30.1c-2.4-6.9,2.1-17.1,2.1-17.1L561.7,213.2
						L561.7,213.2z M573.9,213.6c0,0-4.8,10.9-2.7,19.8s6.8,25.3,7.5,41s-2.7,42.4-2.7,57.4s-0.7,17.8-0.7,17.8l5.4,0.4
						c0,0-2-27.1,0-40.1c2.1-13,0.7-39-0.7-49.2c-1.4-10.3-5.7-22.8-5.7-29.7c0-6.8,1.8-17.3,1.8-17.3L573.9,213.6L573.9,213.6z
						 M548.6,202.6c0,0-3.2,14.3-2.8,23.4c0.7,13.7,2.7,29.4,3.4,45.1s-0.7,42.4-0.7,57.4s0.7,8.9,0.7,8.9l6.2,4.1
						c0,0-6.1-21.1-4-34.1s2-39.7,0.6-50c-1.4-10.3-2.4-23.3-3.4-30.1c-1.5-10.1,3.4-20.8,3.4-20.8L548.6,202.6L548.6,202.6z"/>
					<g>
						<path class="st91" d="M558.8,318.2c-13.4,4.2-16.5-2.8-17-4.5c-0.2-2.2-0.2-4.4-0.1-6.8c0,0-7.1-36.7-22.4-42.8
							c0,0,5.6,20,2.6,38.3c-3.2,19.1-6.4,21.8-6.6,21.8c0.4,0,17.4,2.1,28.5,11.2c11.2,9.2,20.2,11.9,20.2,11.9s-5.4-3.1-10.9-9.2
							l13.9,8C567,346.2,568.3,315.2,558.8,318.2z"/>
					</g>
					<path class="st99" d="M716.9,224.8h23.2v8.1h-23.2V224.8z"/>
					<path class="st80" d="M826.1,296.2l36.2-58.7c0,0-3.4,14-3.4,42.4c0,19.8-4.8,26.1-8.5,38c-3.4,10.81-9.29,20.68-17.2,28.8
						l-4.4,6.3L826.1,296.2L826.1,296.2z"/>
					<path class="st80" d="M852.7,262.8c0,0,14.4-3.4,22.6-17.1c0,0-4.8,25.3-21.9,26"/>
					<path class="st65" d="M815.8,224.6c0,0-23.9,41-25.3,47.8c-1.4,6.8,0.7,10.3-3.4,12.3s-8.2,6.2-13,19.8l6.8,12.3L839,200.6
						C839,200.6,822.6,197.2,815.8,224.6z"/>
					<path class="st100" d="M830.1,203c0,0,29.8-27,38.7-25.6c0,0-24.8-1.4-33,8.2s-15.9,19.9-15.9,19.9S825.9,201.9,830.1,203
						L830.1,203z"/>
					<path class="st80" d="M830.1,203c0,0,15.8-1.5,24,6.7s11.4,21.4,5.9,33.7C860,243.4,871.3,203.6,830.1,203z"/>
					<path class="st80" d="M862.2,237.5c0,0,26.4-8.7,33.3-11.4c6.8-2.7,7.1-13.2,7.1-13.2s-1.1,4.9-7.1,9.1
						c-5.9,4.1-34.2,13.2-34.2,13.2"/>
					<path class="st28" d="M821.2,193.3c0,0,5-10.2,8.2-12.5c2.7-1.9,19.1-12.1,29.6-15c2-0.5,4-0.7,5,1
						C864.1,166.9,832.2,177.8,821.2,193.3z"/>
					<path class="st101" d="M654.5,218H722v2.1h-67.5V218z"/>
					<path class="st71" d="M997.6,310.4c9.6-50.9-2.3-65.7-2.3-65.7s-6.8-14.5-3.2,6.5s-8.2,41.9-8.2,41.9c0.9-54.7-20-65.6-20-65.6
						c14.6,21,4.6,82.9,4.6,82.9"/>
					<path class="st102" d="M425.6,375.6c0,0-4.1-33.5,0.7-34.2l6.8,18.5l4.1-49.2c0,0,9.6,21.2,7.5,49.2v3.4
						c0,0,13.7-20.5,16.4-36.9c0,0,0.7,23.9-3.4,44.4l-28,14.4 M973.8,326.2c0,0-8.9-26-4.1-26.7l6.8,6.2l0.5-51.1
						c0,0,9.6,21.2,7.5,49.2v3.4c0,0,15.9-23.4,14.5-50.7c0,0,2.5,37.8-1.6,58.3l-28,14.4"/>
					<path class="st65" d="M90.4,74.8c0,0-9.6,8.1-15.4,19.6C69.3,106,54.9,124,54.9,124l-23.2-9.3c-5.1-2.5-6.8-9-3.4-13.7
						c3.6-5,10.6-12,13.7-20.3C48.5,63.5,78.9,52.5,90.4,74.8z"/>
					<path class="st64" d="M92.7,85.3c0,0-2.7,28.1-12.1,31s-16.1,10-13.2,28c0,0-5,5.3-23.8-9.9c0,0,7.2-16.6,7.2-25.9
						s27.8-39.2,36.4-36.4C95.9,75,92.7,85.3,92.7,85.3z"/>
					<path class="st103" d="M85.9,76.2c0,0-9.6,3-8.4,26.4c0.6,11.7-1.1,15.5-28.5,14.6C49,117.2,76.3,73.9,85.9,76.2z"/>
					<path class="st80" d="M26.5,181.5c0,0,5.9,25.4,5.9,39c0,13.7-10.1,18-11.5,37.5s13.5,67.9,13.5,67.9s36.2,11.3,38.3-1.7
						s5.6-53.8,4.5-77.6C74,176,96.8,188.8,87.5,162.9S69.1,129,57.6,129S8.4,124.5,26.5,181.5z"/>
					<path class="st65" d="M91.8,74.8c0,0,7.1,4.8,3.7,10.3s-3.9,5.2-3.9,5.2s3.9-11.3-4.3-14.8"/>
					<path class="st92" d="M182.6,187.4h-28.7c-1.4,0-2.5-1.1-2.5-2.5V157c0-1.4,1.1-2.5,2.5-2.5h28.7c1.4,0,2.5,1.1,2.5,2.5v27.9
						C185,186.3,183.9,187.4,182.6,187.4z"/>
					<path class="st93" d="M154.7,168.7h-2.3c-2.8,0-5-2.3-5-5c0-2.8,2.3-5,5-5h2.3c2.8,0,5,2.3,5,5S157.4,168.7,154.7,168.7z
						 M168.3,162.8c0,0,2.3,2.3,0,7.3s-3.2,12.8-8.2,14.6s-15.9,17.8-15.9,17.8v-23.2L168.3,162.8L168.3,162.8z"/>
					<path class="st104" d="M179.5,248.8h-27.4c-1.3,0-2.4-1.1-2.4-2.4v-28c0-1.3,1.1-2.4,2.4-2.4h27.4c1.3,0,2.4,1.1,2.4,2.4v28
						C182,247.7,180.9,248.8,179.5,248.8z"/>
					<path class="st92" d="M196.4,216h-3.2c-1.3,0-2.4,1.1-2.4,2.4v28c0,1.3,1.1,2.4,2.4,2.4l3,0.6C195.7,238.4,197,227.9,196.4,216
						z"/>
					<path class="st90" d="M77.7,211.5c2.3,17.8,4.6,19.8,8.7,39.6s-8.2,58.8-8.2,58.8l-52.9,8.2c-9.1-52.4-9.1-75.4-2.7-85.2
						c10.9-16.9,9.1-22.8,9.1-22.8l12.8,0.9C44.4,211.1,77.3,208.3,77.7,211.5z"/>
					<path class="st77" d="M42.3,206.5c0,0-2,14.1-5.9,39.2s7.1,74.7,7.1,74.7l-19.6-6.2c0,0-9.6-63.1-3.6-76.3
						c5.9-13.2,15.2-18.1,9.6-43.3"/>
					<path class="st105" d="M78.1,263.5l-17.3,80.2l10,1.8l21-58.3l161.3-1l18.2,51.1h7.3l-10.9-72.9"/>
					<path class="st106" d="M272.7,268H68.6c-3.3,0-5.9-2.7-5.9-5.9c0-3.3,2.7-5.9,5.9-5.9l204.4,1.5c3.3,0,5.6,1.2,5.6,4.4
						C278.6,265.4,276,268,272.7,268z"/>
					<path class="st64" d="M58.1,162.8c0,0,32.6,26.9,36,25.5c7.1-3,37.3-10.8,43.1-13.9c5.8-3.1,4-6.7,6.2-12s12.4-7.6,12.4-4.4
						s-10.1,6.4-6.3,9.1c7.5,5.3,17.2-4,16.7-2.8c-1.6,3.7-3.7,11-9.9,13.2s-13.3,5.8-13.3,5.8s-31.8,22.9-50.9,22.1
						c-17.1-0.7-50.4-33.1-50.4-33.1L58.1,162.8L58.1,162.8z"/>
					<g class="st107">
						<circle class="st28" cx="61.3" cy="221.5" r="1.7"/>
						<circle class="st28" cx="61.7" cy="234.3" r="1.7"/>
						<circle class="st28" cx="61.7" cy="244.9" r="1.7"/>
						<circle class="st28" cx="61.3" cy="255.9" r="1.7"/>
						<circle class="st28" cx="61.7" cy="268.6" r="1.7"/>
						<circle class="st28" cx="61.7" cy="279.3" r="1.7"/>
					</g>
					<path class="st81" d="M49.3,115.7l-1.2,5.5c0,0-24.6-2.7-22.2-14.9C28,95.8,35.9,96,41.4,80.2c6.1-17.6,15.4-24.4,31.9-20
						c24.1,6.4,27.6,23.7,19.1,29.8c0,0,0-1.2,0.6-8.5s-3.7-5.1-3.7-5.1s-11.2-3.1-12.1,10.3s-1.5,25.5-9.4,28.2
						c-2.6,0.9-25.8,1.8-25.8,1.8s-0.3-23.1,10-31.9s22.2-20,32.5-15.8"/>
					<path class="st108" d="M234,126.8c0,0,15.1,39,21.3,39c6.1,0,13-4.4,17-3.1s11.6,13.6,11.6,13.6l19.8-20.4
						c0,0-17.7-5-17.7-18.4c0-12.9-8.9-34.1-25.9-30.7C248.3,109.2,232.6,120.6,234,126.8L234,126.8z"/>
					<path class="st109" d="M261.6,107.2c0,0-5.2-0.9-15.8,5.5c-10.6,6.4-20.7,19.1-16.1,19.7c4.6,0.6,14.9-5.8,17.3-5.2
						c2.4,0.6,0.9,8.5,6.4,9.1c2.8,0.3,5.2-3,8.2,4.3l3.3-1.5c0,0-3-9.4,2.1-9.1s4.1,9.9,7,12.1c6.7,5.2,13.7,4.9,15.2,4.6
						s-2.4,0.6-3.6-13.4S274,104.2,261.6,107.2L261.6,107.2z"/>
					<path class="st108" d="M263.4,164c0,0-9.9,4.7-11.5,2.9s-6.2-9-6.2-9s-1.6,1-3.6,0.1c-2.1-0.9-0.7-10.3-1.4-13.4
						s-1.6-2.5-3.4-2.7c-1.8-0.2-1.3-10.7-1.3-10.7"/>
					<path class="st71" d="M393.4,301.1h-81.2c-5.3,0-9.6-4.3-9.6-9.6s4.3-9.6,9.6-9.6h81.2c5.3,0,9.6,4.3,9.6,9.6
						S398.7,301.1,393.4,301.1L393.4,301.1z"/>
					<path class="st71" d="M392.1,294.3l13.6,62.1h-7.5L384.6,297"/>
					<path class="st80" d="M325.8,250.5c0,0-73.1,9.6-82,29.4c-4.1,9.2,39,66.3,39,66.3l19.1-12.3l-15.7-50.6"/>
					<path class="st80" d="M294.1,218.6l23.2,38.2l-55.9,12.9l0.9,19.1h60.8c0,0,43.8,8.2,53-11.2c12.3-25.9-16.8-47-29.6-81.6
						c-18.7-50.6-45.6-42.4-45.6-42.4s-9.6,2.9-13.7,10.4s-26.9,74-26.9,74l-37.8,12.1L210,249c-2.9-0.8-6-0.3-8.5,1.4l-9.7,6.3
						l82.5,0.7L294.1,218.6L294.1,218.6z"/>
					<path class="st108" d="M247.3,242.7c0,0-1.5,12.6,1.2,14.4l-54.7-0.9c0,0,8.2-8.2,13.7-8.2s15,2.3,15,2.3L247.3,242.7
						L247.3,242.7z"/>
					<path class="st110" d="M49.4,212L49,223.4h-2.8l0.5-11.4H49.4z M71.8,211.5l-0.5,11.4h-2.7l0.4-11.4H71.8z"/>
					<path class="st87" d="M46.7,223.4c0,0,1.6,14.1-26.2,15.3c0,0,5.2-13.2,9.3-15.9L46.7,223.4L46.7,223.4z"/>
					<path class="st64" d="M46.3,128.2c-0.6,0-1.1,0.7-0.8,1.2c2.4,4.8,11.3,21.6,20.3,22.4c11.8,1,0-23.7,0-23.7"/>
					<path class="st104" d="M172.5,207.4h-18.4c-0.9,0-1.7-0.8-1.7-1.7v-8.4c0-0.9,0.8-1.7,1.7-1.7h18.4c0.9,0,1.7,0.8,1.7,1.7v8.4
						C174.3,206.6,173.5,207.4,172.5,207.4z"/>
					<path class="st92" d="M196.1,207.9h-16.2c-0.8,0-1.5-0.8-1.5-1.7v-8.4c0-0.9,0.7-1.7,1.5-1.7h16.2"/>
					<path class="st111" d="M669.8,297.3h16.5v10.3h-16.5V297.3z"/>
					<path class="st112" d="M178.6,142.3h16.5v10.3h-16.5V142.3z"/>
					<path class="st113" d="M172.2,237.6h16.5v10.3h-16.5V237.6z M157.7,223.9h16.5v10.3h-16.5V223.9z"/>
					<path class="st114" d="M167.2,174.8h16.5v10.3h-16.5V174.8z"/>
					<path class="st111" d="M686.5,227.4H703v10.3h-16.5V227.4z M654.6,356.2h16.5v10.3h-16.5V356.2z"/>
					<path class="st68" d="M154.7,156.4h13.7v8.7h-13.7V156.4z"/>
					<path class="st80" d="M249.9,202c0,0-0.5,9.1,15.5,6.4l4.1,34.2l-22.2,4.7C247.3,247.2,247.2,205.6,249.9,202L249.9,202z"/>
					<path class="st92" d="M686.8,286.7h-16.3v-8.3c0-3,2.5-5.5,5.5-5.5h5.3c3,0,5.5,2.5,5.5,5.5V286.7z"/>
					<circle class="st92" cx="678.7" cy="266.1" r="4"/>
					<path class="st64" d="M604.6,344.8c0,0,8.9,0.7,9.6,3.4c0.7,2.7,1.4,6.2,1.4,6.2l-0.2-0.2L604.6,344.8z"/>
					<path class="st65" d="M598.9,331.8l27.3,28.3l-14.8-8.4l-16.1-16.2L598.9,331.8z"/>
					<path class="st80" d="M116.8,256.4H101c-3,0-5.5-2.5-5.5-5.5v-17.5c0-0.9,0.7-1.6,1.6-1.6h23.4c0.9,0,1.6,0.7,1.6,1.6v17.5
						C122.2,253.9,119.8,256.4,116.8,256.4z"/>
					<path class="st80" d="M116.1,238.6c0,0,6.8-6.2,10.9-1.4c3.4,4,0.7,12.3-6.8,13.7C120.2,250.9,135.9,234.5,116.1,238.6z
						 M892.5,226.5c8.3,5,19.1,114.5,19.1,114.5s-4.1-43.1-6.6-65.5s-9.4-49.3-9.4-49.3"/>
					<path class="st65" d="M843.5,204.9c0,0-29.9,49-28.2,63.1s-2.5,15.8-10,16.6c-7.5,0.8-5,4.1-2.5,11.6s-2.5,0-9.1,10
						s-11.6,21.6-11.6,21.6l-8-23.2l58.6-98C832.7,206.5,838.5,204.1,843.5,204.9L843.5,204.9z M847.7,202.4l23.2-23.2
						c0,0-25.2,10.3-40.8,23.8L847.7,202.4z"/>
					<path class="st64" d="M825.8,296.3v16.9c0,15,0.3,39.5,0.3,39.5l-2.5-53.1L825.8,296.3z M803.5,247.1c0,0-13.2,21.9-13.2,28.2
						c0,6.4,2.8,6-3.2,9.4s-9.1,11.1-9.1,11.1s4.6-11.8,9.6-15C787.5,280.8,791.6,262.1,803.5,247.1L803.5,247.1z"/>
					<path class="st65" d="M779.3,323.1c0,0-10.9,16.9-14.6,14.6c0,0,4.1,9.6,10,9.1l14.6-9.2L779.3,323.1z"/>
					<path class="st80" d="M713.6,224.4h4.3v8.7h-4.3V224.4z"/>
					<path class="st101" d="M718.1,224.7H740v1.8h-21.9V224.7z"/>
					<path class="st115" d="M714.5,281.5v7.6l7.7-0.3v-7.3L714.5,281.5z M703.2,341.7v7.6l11.4-0.3v-7.3L703.2,341.7z M703.7,261.5
						v7.6l11.4-0.3v-7.3L703.7,261.5z M714.2,233.2v7.6l7.7-0.3v-7.3H714.2z"/>
					<path class="st64" d="M597.8,221.6c0,0,7.4-2.3,12.4,8.2c6.5,13.6,5,25.5,6.8,28.7c1.8,3.2,9.6,11.7,18.2,37.7
						c0,0-11.4-25.2-17.6-33C610.1,253.6,618.3,226.1,597.8,221.6L597.8,221.6z"/>
					<path class="st90" d="M516,325.9c0,0,16.4,2.7,46.5,23.2l1.6-1.8l-5.3-3.7C558.8,343.7,530.1,324.1,516,325.9z"/>
					<path class="st91" d="M493.2,227.9c0,0,11.4,3.6,13.2,12.8c1.8,9.1-5.2,47.6-7.6,62.1c-4.6,27.3,7.3,31.3,7.3,31.3
						s-14.6,16.8-19.7,4.6c-6.8-16.4,8.2-68.8,8.7-77.5C495.5,252.5,485.5,231.6,493.2,227.9L493.2,227.9z"/>
					<path class="st101" d="M654.6,237.8h11.8v1.5h-11.8V237.8z M654.6,307.4h11.8v1.5h-11.8V307.4z"/>
					<path class="st116" d="M572.3,226.6c-6.5,0.8-18.3-2.6-25.3-5c-6.6-2.7-10.5-7.8-9.8-10.6l-11.2,5.2c0,0,2.8,7.5,9.5,12.3
						l0.1,0.1C557.7,241.1,582,225.3,572.3,226.6z"/>
					<path class="st82" d="M553.6,167.5c0,0,0,36.9-8.8,49c-13,17.8-7.1,32-7.1,32s-12.3,2.1-0.7-40.3"/>
					<path class="st115" d="M197.02,257.09h-7.7v-83.4h7.7V257.09z M197.49,162.79h-8.3v-21h8.3V162.79z"/>
					<path class="st101" d="M144.2,141.8h52.9v1.8h-52.9L144.2,141.8z"/>
					<path class="st64" d="M167.9,160c1.8,0.8,2.5,2.9,1.6,4.6c-2.4,4.4-7.2,11.8-13,12.7 M771.4,306.6l-12.3,15.7l1.1,2.2
						l11.4-13.7L771.4,306.6z"/>
					<path class="st64" d="M759.1,322.3L742,341.4l18-15.9l0.2-1 M728.4,224.9c0,0,11.3-13.7,21.5-11.3c0,0-11.5-1-19.7,11.7
						 M521,325c0,0,21.4,6.4,33.3,15l10.2,6.3l-1.6,1.9l-10.5-6.8C552.4,341.4,536,330.4,521,325z M504.6,218.8
						c0,0-14.1-1.4-14.1,16.4C490.5,235.2,492.7,219.7,504.6,218.8z"/>
					<path class="st83" d="M267.1,217.4c0,0-7,21-8.8,21.9s-15,3.9-28.1,8.3c0,0,28.1-5.6,30.2-6.8s13.4-40.7,13.4-40.7L267.1,217.4
						z M208.2,213.6l24.8,0.2c0,0-0.1-1.6,0,0s-24.3,0.3-24.3,0.3L208.2,213.6z M120.5,232.3H97.7c-0.4,0-0.7-0.3-0.7-0.7h24.1
						C121.2,231.9,120.9,232.3,120.5,232.3z"/>
					<path class="st64" d="M78.6,211.5c0,0,0.5,11.8,1.8,13.6c3.5,5.2,5.5,21.4,5.9,26c0,0-4-20.1-7.7-24.1
						c-2-2.1-0.6-15.5-0.6-15.5S78.6,211.5,78.6,211.5z M71.7,256.1l157.7,1.2C229.4,257.4,95.4,260.2,71.7,256.1z"/>
					<path class="st83" d="M241.5,161.3c0,0-2.1,9.1,4.6,14.9c0,0,6.2,3,5.8,6.2c0,0,1.2-4.1-5.8-8.3
						C239.1,169.8,241.5,161.3,241.5,161.3L241.5,161.3z"/>
					<path class="st64" d="M247.9,211.4c0,0-4.3,22.2-2.1,31.6l1.5-0.3C247.3,242.7,246.1,226.6,247.9,211.4z"/>
					<path class="st67" d="M283.2,174.9c0,0,3.9-23.7,19.6-21.3C302.7,153.7,291.1,153.1,283.2,174.9z"/>
					<path class="st28" d="M296.8,255.3l17.3-2.7c-0.5-19.1-20.1-33.9-20.1-33.9"/>
					<path class="st80" d="M114.6,245.7H177l-6.4,10.9l-47.7-0.5L114.6,245.7z"/>
					<path class="st83" d="M133.3,245.7c0,0,11.8-5.9,15.5-5.9c3.6,0,15.9,5.9,15.9,5.9H133.3z"/>
					<path class="st117" d="M297.7,155.8c0,0-4.1,5.2-10.5,20.2s-12,26.7-14.8,39c-2.7,12.3-10.3,30.1-10.3,30.1l-15.2,3.8l-0.6-4.7
						l14.9-4.4C261.3,239.8,285.9,150.8,297.7,155.8L297.7,155.8z"/>
					<path class="st65" d="M244.4,279.4c0,0,13.2-19.6,69.7-26.9l0.5,0.5C314.6,253,295,258,244.4,279.4L244.4,279.4z"/>
					<path class="st83" d="M281.3,258.9c0,0-29.2,6-36.4,19.1C244.9,278,256.6,265.7,281.3,258.9z"/>
					<path class="st103" d="M49.9,166.9c0,0,34.6,32.8,44.2,33.7s50.6-18.7,50.6-18.7l0.8,0.2c0,0-36.8,26.9-56.3,23.1
						c-17.8-3.4-47.4-32.8-47.4-32.8S49.9,166.9,49.9,166.9z M79,149.1c0,0,17.8,0.9,28.7,1.8c10.9,0.9,22.8-0.9,22.8-0.9
						s-17.8,5.9-21.4,6.8c-3.6,0.9-26.9,0.5-26.9,0.5 M69.7,112.9c0,0-15.3,5.2-16.2,15.3c-0.9,10,6.8,24.6,6.8,24.6L45,131.3
						l5.3-18.7"/>
					<path class="st64" d="M830.8,183.7c0,0-13.6,12.3-15.2,25.7C815.6,209.4,813,198.3,830.8,183.7z"/>
					<circle class="st118" cx="834" cy="359.1" r="2.7"/>
					<circle class="st118" cx="833.1" cy="330" r="2.7"/>
					<circle class="st119" cx="832.6" cy="304.5" r="2.7"/>
					<path class="st0" d="M451.3,304.5c0,0,15,12.5,11.8,34.4C463.1,338.9,463.6,315.9,451.3,304.5z"/>
					<path class="st86" d="M615.4,354.2c0,0-10.1,15.9-3.9,16.6c6.2,0.7,23.2-4.1,18.5-8.2C625.1,358.5,615.4,354.2,615.4,354.2z
						 M557,356l33.3,9.3l1.7,2l-40-2"/>
					<path class="st120" d="M777.7,132.1c0,0,6.4-9.4,12.5-13.4c3-1.9,0.9,9.3,2.7,13.7c1.1,2.6,4.6,1.5,9.7,2.1
						c7.9,0.9,8.8,8.5,8.8,8.5l5.2-1.5c0,0-3.6-16.7,6.4-14.9s6.1,26.4,20.7,25.7c4.3-0.2,7.7,1.4,7.7,1.4s2.7-48.8-22.8-57
						C803,88.5,778,111.7,777.7,132.1L777.7,132.1z"/>
					<path class="st120" d="M787.5,110.8c-10.9,9.1-12.6,24.6-12.6,24.6c4.6,0,10.6-13.1,10.6-13.1"/>
					<g>
						<path class="st120" d="M777.8,133c0,0,0.2,3-2.9,3c-4.6,0-3.3-2.1-3.3-3.6s2.6-2.7,2-4.9c-0.6-2.1,1.7-3.9,3.2-8.8
							s-1.4-7.9,1.4-9.1c2.7-1.2,3-1.8,3.3-3.3s-0.6-6.4,2.7-4.9s3.9-0.6,3.9-0.6s0.6-6.4,3.6-5.8s2.1,2.1,5.2,0.3
							c3-1.8,2.4-6.1,6.7-4.9s4.6,3,6.1,1.2s5-4.5,7-2.4c3.5,3.6,5.5,0.6,9.3,0.6c4.1,0,3,4.6,6.5,5.5c1.9,0.5,4.6-1.2,7.9,0.9
							c3.3,2.1-0.8,5.8,3.8,8.5c1.9,1.1,4.6,0.3,4.4,5.2c-0.1,4,0.6,5.8,2.1,7s4.4,0.9,3.3,7.9c-0.6,3.8-2.7,7-1.5,7.6
							c1.2,0.6,0.6,2.4,0.9,3.9c0.3,1.5,2.6,0.9,2.1,4.6c-0.3,2.4-2.7,6.1-2.7,6.1l0.3,2.1l-27.8-25.5c0,0-5.3,6.1-12.3,4.9
							c-7-1.2-13.1,4.3-16.7-1.5c-3.6-5.8-9.7-10.9-9.7-10.9L777.8,133L777.8,133z"/>
						<path class="st120" d="M774.3,131.8c0,0,0.3-3-2.4-5.5c-2.7-2.4,3.2-3,2-6.7s0.2-9.7,3.2-9.7s3.9-1.5,4.6-3 M853.1,127.2
							c0,0,2.3,2.1,2.6,3.3s-0.9,3.6-1.4,3.9c-2.8,1.9,2,3,0.2,6.4c-1.8,3.3-0.8,1.8-0.2,5.2c0.5,2.4-1.1,4.3-3.5,5.2
							s-2-4.6-3.5-0.9c-1.5,3.6-4.3,3.6-4.3,1.8s0.9-3.6-2.7-2.4c-3.6,1.2-8.5-1.5-7.6-7.9s-2.4-10-2.4-10"/>
					</g>
					<path class="st80" d="M90.4,138.6c0,0-0.4,16,1.1,18.7l-11.3,0.3c0,0-8.2-23.7-11.8-25.2C68.4,132.4,90.4,138.6,90.4,138.6z"/>
					<path class="st65" d="M75.2,224.7c0,0,1.3,8.9,7.2,10.9l-4.9-11.4C77.5,224.2,75.2,224.7,75.2,224.7z"/>
					<path class="st121" d="M64.7,270.3l0.7,42.4l1.3-0.5l-2-44V270.3z"/>
					<path class="st81" d="M314.1,252.5l-1.3-0.6c0,0,10.1-1.5,18.5,6.8c16.4,16.4,36.2,20.5,47.2,6.8c0,0,6.8,21.2-24.6,23.2
						s-86.8,0.7-86.8,0.7l-19.1,3.4l-0.3-2.1c-0.7-5.3,1.6-10.5,6.1-13.5c9.7-6.5,28.7-16.9,53.7-19.3
						C323.1,256.6,314.1,252.5,314.1,252.5L314.1,252.5z"/>
					<path class="st80" d="M331.3,258.7c0,0,1.1,1.1,2.8,3.3c6.8,8.8,17.3,13.8,28.3,13.4c7.8-0.3,15.8-1.8,20.2-6.5
						c0,0-5.5-21.2-17.1-34.9 M324.4,253.9l-20.6,0.3c0,0,12.4-2.3,9.7-11.2"/>
					<path class="st122" d="M302.6,191.8l-8.2,26c0,0,10.3,9.6,16.4,17.1c6.2,7.5,9.6,27.3,8.2,30.8l17.8-1.4
						c0,0-22.6-36.9-23.9-51.9C311.4,197.2,302.6,191.8,302.6,191.8L302.6,191.8z"/>
					<path class="st123" d="M243.5,167.3c0,0,10,5.5,10.9,11.4s0,29.2,0,29.2l-5.6-1.1c0,0,5.2-27.2,3.8-29
						C251.3,176,243.5,175.1,243.5,167.3L243.5,167.3z"/>
					<path class="st65" d="M859.5,262.8c0,0,19.1-18.5,13-19.8C866.4,241.6,860.9,249.8,859.5,262.8z"/>
					<path class="st124" d="M253.4,109.3c0,0-17.9,6.4-24.3,20C229.1,129.4,240.6,114.5,253.4,109.3z"/>
					<path class="st0" d="M388.2,281.8c0,0,15-1.9,14.8,10.8C403,292.6,399.1,281.3,388.2,281.8z"/>
					<path class="st125" d="M784.3,346.9h29.4v7.5h-29.4V346.9z"/>
					<path class="st68" d="M784.7,348.9h29.1v6.7h-29.1V348.9z"/>
					<path class="st65" d="M630.3,362.8l3.7,4.5l-5.6-1.1L630.3,362.8z"/>
					<path class="st126" d="M784.5,354.7h28.8v5.3h-28.8V354.7z"/>
					<path class="st124" d="M726.2,357.4c0,0-14.3-1.8-17.7-1.4c-3.5,0.5-15.7,7-15.7,7S704.2,355.7,726.2,357.4z"/>
					<path class="st80" d="M693.7,362.9c0,0-17.4,10.3-13,11.7c4.4,1.4,12.9-4.7,12.9-4.7s-7.6,4.3-4.6,5.2s11.8-3.3,11.8-3.3
						s-7,3.9-3.6,4.3s23.4-0.6,27.3-3.9"/>
					<path class="st65" d="M846.6,202.9c0,0,17.3,6.7,15.8,32.5c0,0,2.1-25.7-14.7-33 M881.5,228.1c0,0,9.7-2.1,13.1-4.6
						s8.8-8.2,8.8-8.2S884.9,228.7,881.5,228.1L881.5,228.1z M896.4,226.1c0,0,4.6,20.2,6.4,28.4c1.8,8.2,4.9,40.1,4.9,40.1
						s-8.8-59.8-11.8-67.1 M848.1,260.7l-31,47.4C817.1,308.1,839.5,269.4,848.1,260.7z"/>
					<path class="st67" d="M772,310.8c0,0,8.7,22.3,15.9,26C788,336.8,775.2,325,772,310.8z"/>
					<path class="st72" d="M742.8,296.3l27.1,0.5C770,296.8,747.8,297.4,742.8,296.3z"/>
					<path class="st100" d="M784.9,121.5c0,0-5.2,18.5,0.3,24s8.8,5.8,8.2,11.8c-0.6,6.1,0.9,7.6,3.3,11.5
						c3.3,5.3,9.1,13.1,15.2,13.1s18.1-13.8,24.8-5.9c0,0,22.3-10.8,25.7-10.2c0,0-12.1-7.6-14.6-23.7
						C845.4,126,816.8,94.1,784.9,121.5L784.9,121.5z"/>
					<path class="st64" d="M91.8,80.1c0,0,2.1,8.9,1.8,10c-0.2,1.1-0.5,1.6-1.6,3.2s-0.5,5.9,1.6,9.3c0.8,1.4-1.2,2.1-2.8,2.5
						c-1.4,0.3-2.3,1.6-2.2,2.9v0.1c0.2,1.8-1.4,1.6-1.4,1.6l0.9,0.7c0.7,3.2-1.1,0.9-2.1,3.2c-0.3,0.8,0.7,4.3-1.6,4.6
						c-8.7,1.1-12.5,2.1-12.5,2.1s10.3-10.7,10-16.2C81.8,98.5,90.4,80.1,91.8,80.1z"/>
					<path class="st64" d="M88.4,76.4c0,0,6.4,0.2,5.2,13.7l-8.9,7.1"/>
					<path class="st81" d="M88.2,75.1c0,0,16.2,6.8,7,16.7l0.2-0.2c2.7-1.4,4.6-1.4,5.8-7.2c0.6-3.1-3.9-12.5-11.5-15.8"/>
					<path class="st0" d="M264.3,130.6l-30.1,15c0,0,6.7,9.9,9.7,9.6s1.5-1.5,1.5-1.5s-3.9-2.6-6.7-7.4l24.6-14.4L264.3,130.6
						L264.3,130.6z"/>
					<path class="st127" d="M788.9,170.7c0,0,2.7-0.5,5.7,0.5c3,0.9,17.1,9.1,16.9,11.6c-0.2,2.5-4.6,8-8.2,7.1
						c-3.6-0.9-8.4-9.6-8.4-9.6s6.2,5.7,7.7,3.4c1.6-2.3-6.2-11.2-8.9-11.2s-5,0.9-5,0.9S787.8,170.5,788.9,170.7z"/>
					<path class="st98" d="M586,222c0,0-5.8,8.2,2,33.3c4,12.9,6.3,41.9,2.7,50.6l-3.6,8.7c0,0,5.1-18.9,3.2-35.4
						c-3.2-26.9-14.1-44.3-5.4-57.3 M521,219.3c0,0-3.6,33.3,0,52.9h0.5c0,0-1.4-40.2,2.3-54.1 M593.4,222.9c0,0-6.2,20.7-1.4,33.7
						l-0.3-0.3c0,0-1.8-11.2,3.3-33.8"/>
					<path class="st79" d="M750.2,214.3c0,0,7,4.4,14.1,22.8c2.9,7.4,29.6,22.8,29.6,22.8v0.9l0.9-0.5c-2.3-2-21.3-18.8-23.7-21.7
						C765.8,232.2,754.6,210.9,750.2,214.3L750.2,214.3z M738,233.8c0,0,6.8,4.9,9.4,2.4c2.6-2.4,0.8-5.6,0.8-5.6
						S746.2,238.1,738,233.8L738,233.8z"/>
				</g>
			</g>
			<g>
				<defs>
					<path id="SVGID_121_" d="M1,230.6h0.1l1,37.4c16.1,34.9,54.1,54.1,91.8,56.2c75.4,4.2,146.4-45.9,221.7-33.3
						c77.9,13.1,130.8,88.6,236.8,119.7c57,16.7,118.2,12.6,175.7-1.7c69.5-17.3,130.1-44.9,271.8-108v-301H4.6L0,434.9h1V230.6z"/>
				</defs>
				<clipPath id="SVGID_122_">
					<use xlink:href="#SVGID_121_"  style="overflow:visible;"/>
				</clipPath>
				<path class="st128" d="M690.5,415.6c0,0,58.8,0.5,65.2-15.9C755.6,399.7,751.5,412.9,690.5,415.6z"/>
			</g>
		</g>
	</g>
</g>
<path class="st80" d="M719.5,62.5c0-32,25.9-57.9,57.9-57.9s57.9,25.9,57.9,57.9"/>
<path class="st129" d="M781.1,6.5v-27.2"/>
<circle class="st80" cx="782" cy="1" r="9.1"/>
<path class="st84" d="M788.8,2.4c0,0,39.6,4.8,40.3,54.7l-16.4-1.4C812.7,55.7,814.8,19.5,788.8,2.4L788.8,2.4z"/>
<ellipse class="st125" cx="781.2" cy="60.7" rx="57.1" ry="5.7"/>
<ellipse class="st130" cx="603.8" cy="378.2" rx="25.9" ry="8.9"/>
<path class="st131" d="M582.1,332.2c-4.6,1.5-7.7,5.9-7.7,10.7c0.2,13,3.3,37.4,24,39.4c25.9,2.5,30-13.2,30.5-40.4
	c0.1-5-3.1-9.4-7.9-10.8C612.9,328.7,599.2,326.7,582.1,332.2L582.1,332.2z"/>
<path class="st131" d="M577.4,340.4c0,0-15-9.7-14.6,6.4c0.5,15.5,13.5,19.6,21,16.4c0,0-16.3-5.5-16.4-14.1
	c-0.2-13.6,14.6-0.5,14.6-0.5"/>
<ellipse class="st68" cx="601.3" cy="339.8" rx="20.9" ry="6.5"/>
<path class="st132" d="M593.3,333.1c0,0,30.1,3.6,19.1,12.3c0,0,21-3.6,5.5-10.9C602.5,327.2,593.3,333.1,593.3,333.1z"/>
<path class="st64" d="M606.3,329c0,0,25.2,0.4,22.3,9.8C628.7,338.8,630.5,330.6,606.3,329z"/>
<path class="st84" d="M625.2,342.2c0,0,1.8,31.4-10.9,38.3c0,0,5-17.8,4.6-34.2"/>
<path class="st83" d="M628.4,338.3c0,0,4.1,17.2-5.9,36.8C622.5,375,630.2,358.5,628.4,338.3z"/>
<path class="st0" d="M574.9,339.5c0,0-5.7-5.2-10.9,0.5C564,340,567.6,335.9,574.9,339.5z"/>
<g>
	<path class="st93" d="M651.5,373.3H685v9.6h-33.5V373.3z"/>
	
		<linearGradient id="SVGID_123_" gradientUnits="userSpaceOnUse" x1="668.0435" y1="428.0929" x2="668.0534" y2="426.5819" gradientTransform="matrix(1 0 0 -1 0 800)">
		<stop  offset="0" style="stop-color:#EFE8DA"/>
		<stop  offset="1" style="stop-color:#78AAFF;stop-opacity:0.1"/>
	</linearGradient>
	<path class="st133" d="M651.5,372h33.1v1.8h-33.1V372z"/>
	<path class="st126" d="M651,380.4h34.2v7.3H651V380.4z"/>
</g>
<path class="st92" d="M651.4,371.3H685v2.9h-33.6V371.3z"/>
<g>
	<ellipse class="st130" cx="779.8" cy="393" rx="79.7" ry="19.5"/>
	<ellipse class="st134" cx="780.1" cy="379.2" rx="77.3" ry="25.9"/>
	<ellipse class="st80" cx="777.4" cy="376.7" rx="51.6" ry="14.7"/>
	<ellipse class="st80" cx="745.8" cy="377.9" rx="18.5" ry="6.8"/>
	<ellipse class="st80" cx="763.5" cy="388.1" rx="18.5" ry="6.8"/>
	<ellipse class="st80" cx="769.7" cy="378.6" rx="18.5" ry="6.8"/>
	<ellipse class="st80" cx="784.7" cy="373.8" rx="18.5" ry="6.8"/>
	<path class="st80" d="M807.9,362.8c-6.9,0-13.3,1.2-18.2,3.2c6.4,2.5,10.5,6.4,10.5,10.7s-10,10.4-16.4,13c5,2,14.9,2.3,21.9,2.3
		c15.9,0,31-7.6,31-15.3S823.8,362.8,807.9,362.8L807.9,362.8z"/>
	<path class="st28" d="M777.9,362.4c0,0,31.9-8.2,43.7,2.7c13.3,12.3-5,26.4-35.1,24.1c0,0-5.9-0.5,3.6-4.6
		c9.6-4.1,20-12.8,2.3-17.8C792.4,366.9,771.9,365.1,777.9,362.4L777.9,362.4z"/>
	<ellipse class="st67" cx="766" cy="375.9" rx="13.7" ry="5"/>
	<ellipse class="st67" cx="759.6" cy="389.2" rx="13.7" ry="5"/>
	<ellipse class="st67" cx="741" cy="376.2" rx="13.7" ry="5"/>
	<path class="st91" d="M813.9,361c0,0,10,9.1,3.6,15s-27.3,8.7-27.3,8.7s-8.2,0.5-5,4.1s37.4,3.2,41-14.6
		C826.2,374.2,828.9,365.1,813.9,361z"/>
	<path class="st64" d="M777.9,362.4c0,0,27.8-11.4,40.5-0.5c0,0-21.9-7.3-41,1.8L777.9,362.4z"/>
	<path class="st0" d="M733.2,372c0,0,17-2,20.8,3c0.3,0.4-0.2,1.3-0.1,1.8C753.9,376.8,751.4,371.1,733.2,372z"/>
	<path class="st83" d="M819.8,356.4c0,0,37.7,6.4,37.6,22.8C857.3,379.2,852.1,364.6,819.8,356.4z"/>
	<path class="st131" d="M801.3,375.7c0,0,11.5-9.4,24.9-1.5l-0.9,3.3C825.3,377.5,821.6,371.2,801.3,375.7z M798.5,379.4
		c0,0,14-1.2,15.5,7l-1.5,1.8C812.5,388.2,805.5,379.7,798.5,379.4z"/>
	<path class="st80" d="M794,381.8c0,0,8.8,1.2,5.8,9.1L797,390c0,0,2.1-7.9-4.3-7l2.4-1.5"/>
	<path class="st71" d="M798.2,369.3c0,0,4.3-10,16.1-10.3C814.3,359,797.6,357.8,798.2,369.3z M795.8,357.8c0,0-5.8,2.4-4.3,10
		c0,0,2.1-10,8.5-10.6L795.8,357.8z"/>
	<path class="st0" d="M750.8,385.6c0,0,17.7-5.4,22.6,3.6C773.3,389.2,769.3,382.9,750.8,385.6z"/>
	<path class="st64" d="M812.2,359c0,0-9.7,1.5-12.1,7.9c0,0,5.5-6.4,13.8-5.9 M798.8,357.2c0,0-5.2,2.4-6.1,8.5c0,0,4.9-7.6,8.5-7.6
		"/>
	<path class="st72" d="M803.1,375.1c0,0,10-3.6,17.6,0l-4.3,1.5C816.4,376.6,819.2,374.8,803.1,375.1z"/>
	<ellipse class="st84" cx="756.6" cy="388" rx="2.2" ry="0.6"/>
	<ellipse class="st84" cx="759.1" cy="391.2" rx="1.4" ry="0.7"/>
	<ellipse class="st84" cx="764.8" cy="388.1" rx="2.2" ry="0.6"/>
	<ellipse class="st84" cx="771" cy="377.1" rx="2.2" ry="0.6"/>
	<ellipse class="st84" cx="760.4" cy="372.5" rx="1.7" ry="0.5"/>
	<ellipse class="st84" cx="740.5" cy="375.5" rx="2.2" ry="0.6"/>
	<ellipse class="st84" cx="732.7" cy="375.5" rx="1.4" ry="0.6"/>
</g>
<path class="st92" d="M841.7,353.4H876v9.6h-34.3V353.4z"/>
<path class="st93" d="M876,362.9l-34.3-0.2v-4.1l34.3,0.2V362.9z"/>
<g>
	<path class="st84" d="M216.1,53.45c0-23.9,19.4-43.3,43.3-43.3c23.9,0,43.3,19.4,43.3,43.3"/>
	<path class="st64" d="M283.6,17.35c0,0,20.5,11.6,18.5,32.1C302.1,49.55,300.7,31.75,283.6,17.35z"/>
	<path class="st129" d="M258.5,16.55V1.35"/>
	<circle class="st84" cx="259.2" cy="12.45" r="6.8"/>
	<path class="st135" d="M259,11.55c0,0,32.2,3.8,32.8,44l-13.3-1.1C278.5,54.45,280.2,25.25,259,11.55z"/>
	<ellipse class="st124" cx="260" cy="53.75" rx="44" ry="4.4"/>
</g>
<path class="st28" d="M999.8,300.9c237.1-105.9,336.1-7.9,336.1-7.9c160,148,245-41.31,245-41.31h-549H1000L999.8,300.9z"/>
<rect x="1000.1" class="st0" width="580.8" height="251.69"/>
<path class="st0" d="M-0.1,268.6C-66,228-146,242-146,242c-127,11-132,58.62-132,58.62C-356,372-471,291-471,291V2.4L0.2,0.1"/>
</svg>
