<svg xmlns="http://www.w3.org/2000/svg" width="745.046" height="89" viewBox="0 0 745.046 89">
  <defs>
    <style>
      .cls-1 {
        fill: rgba(16,137,149,0.66);
      }
    </style>
  </defs>
  <g id="Group_10" data-name="Group 10" transform="translate(-1125.977 -1439.999)">
    <path id="Subtraction_1" data-name="Subtraction 1" class="cls-1" d="M-1091.477-206c-16.607,0-33.4-.5-49.916-1.49-16.366-.98-32.9-2.465-49.129-4.414-16.1-1.932-32.333-4.372-48.258-7.252-15.8-2.857-31.713-6.223-47.3-10-15.471-3.753-31.034-8.017-46.258-12.672-15.12-4.624-30.3-9.756-45.13-15.254-14.736-5.465-29.512-11.437-43.916-17.751-14.328-6.28-28.666-13.064-42.617-20.163h31.081c107.478,49.1,222.356,74,341.443,74s233.965-24.9,341.442-74h31.08c-13.961,7.1-28.3,13.887-42.617,20.163-14.4,6.314-29.18,12.286-43.916,17.751-14.826,5.5-30.01,10.631-45.13,15.254-15.223,4.655-30.786,8.919-46.258,12.672-15.588,3.782-31.5,7.148-47.3,10-15.924,2.879-32.16,5.319-48.258,7.252-16.233,1.949-32.763,3.434-49.129,4.414C-1058.076-206.5-1074.87-206-1091.477-206Z" transform="translate(2589.977 1735)"/>
    <path id="Intersection_5" data-name="Intersection 5" class="cls-1" d="M-15.415-222.49c-16.366-.98-32.9-2.465-49.13-4.414-16.1-1.932-32.332-4.372-48.257-7.251-15.8-2.857-31.713-6.223-47.3-10-15.471-3.754-31.035-8.017-46.258-12.672-15.119-4.623-30.3-9.756-45.13-15.254-7.663-2.842-15.337-5.821-22.963-8.915h39.814A817.584,817.584,0,0,0,34.5-236a817.582,817.582,0,0,0,269.14-45h39.814c-7.627,3.093-15.3,6.072-22.963,8.915-14.827,5.5-30.01,10.631-45.13,15.254-15.223,4.655-30.786,8.918-46.257,12.672-15.588,3.782-31.5,7.148-47.3,10-15.925,2.879-32.161,5.319-48.258,7.251-16.233,1.949-32.763,3.434-49.129,4.414C67.9-221.5,51.107-221,34.5-221S1.1-221.5-15.415-222.49Z" transform="translate(1464 1720.999)"/>
  </g>
</svg>
