<svg xmlns="http://www.w3.org/2000/svg" xmlns:xlink="http://www.w3.org/1999/xlink" viewBox="0 0 1000 500"><defs><path id="a" d="M1000 0H0v276.5c16.1 35 55.5 53.5 93.2 55.6 75.5 4.2 147.4-45.5 222.7-32.8 78 13.1 135.3 90.7 235.8 120 57.1 16.6 118.3 12.6 175.9-1.7 69.6-17.3 130.3-46.6 272.3-109.8V0z"></path></defs><clipPath id="b"><use xlink:href="#a" overflow="visible"></use></clipPath><g clip-path="url(#b)"><path d="M1006 286.8V379l-90.9-30.8c32.9-17 64.1-36.2 90.9-61.4z" fill="#20214f"></path></g><g clip-path="url(#b)"><path fill="#2d74da" d="M1006 367.5l-130.2-31.4h-70.6l200.8 55.7z"></path><path fill="#a8c0f3" d="M1006 381.8l-173.9-45.7h-14.4L1006 387z"></path><path fill="#1f57a4" d="M805.2 336.1h70.6l12.9 3h-72.3z"></path><path fill="#5392ff" d="M817.7 336.1h14.4l11.7 3H829z"></path></g><linearGradient id="c" gradientUnits="userSpaceOnUse" x1=".194" y1="154.654" x2="1005.905" y2="154.654"><stop offset="0" stop-color="#e1ebf7"></stop><stop offset="1" stop-color="#c8daf4"></stop></linearGradient><path clip-path="url(#b)" fill="url(#c)" d="M.2 309.4h1005.7V-.1H.2z"></path><g clip-path="url(#b)"><path d="M823.7 113c9.9-9.6 23.4-15.4 37.2-15.8 10.8-.3 22.9 2.1 31.3-4.7 6.2-5.1 8.2-14.1 14.3-19.4 6.8-5.9 16.8-5.9 25.7-4.7 8.9 1.2 18.3 3.2 26.7.1 7.6-2.8 13.2-9.1 18.7-15 2.6-2.7 5.3-5.5 8.7-7.1 7-3.4 15.3-1.5 22.5 1.6 20 8.6 35.4 25.1 51.1 40.2 5.3 5.1 11 10.2 18.1 12.2 4.6 1.3 9.6 1.1 14.1 2.8 4.1 1.6 7.7 5.7 7.1 9.8H823.7z" fill="#fff"></path></g><path d="M526.1 86.8c-9.7-6.4-19.9-12.7-31.5-13.9-19.3-2-40.3 10.5-57.3 1.1-5.7-3.2-10.1-8.5-16.2-11-5.8-2.4-12.3-1.9-18.4-.6-13.6 2.7-26.4 8.6-40.1 10.6-13.7 2-29.5-1.1-37.3-12.6-4.5-6.6-5.6-14.9-8.3-22.4-2.7-7.5-8.3-15.2-16.3-15.7-4.7-.3-9.2 1.9-13.3 4.2-25.1 14.4-45.8 35.9-72 48.3-7.4 3.5-17.7 5.5-22.3-1.2-2.8-4.1-2.2-10.1-5.6-13.8-5-5.2-13.6-1.6-19.7 2.3-13 8.2-26 16.5-39 24.7h397.3z" clip-path="url(#b)" fill="#fff"></path><g clip-path="url(#b)"><path d="M851.4 50.8c-2.7-1.3-5-3.3-7.3-5.3-1-.8-1.9-1.6-3.1-2-.9-.3-1.8-.3-2.7-.1-1 .2-1.9.7-2.8 1.2-2.3 1.3-4.3 3-6.5 4.4-1.2.7-2.4 1.4-3.7 1.9h26.1zm-41.9 0c-3.4-2.6-7.6-4.2-11.9-4.5-4.3-.3-8.9.6-12.9-1.1-5.3-2.2-7.8-8.1-9.9-13.5-2.1-5.3-4.9-11.2-10.4-13-4.5-1.5-9.5.3-13.7 2.7-9.2 5.2-16.8 12.8-25.1 19.4-2.3 1.9-5.3 3.8-8.1 2.9-3.7-1.2-4.9-6.5-8.7-7.5-2.6-.7-5.1.9-7.3 2.5-5.1 3.8-10 7.8-14.7 12.1h122.7z" fill="#fff"></path></g><g clip-path="url(#b)"><path d="M703.4 115.4c-5.7.2-10.8 4.4-16.5 4.5-4.5.1-8.7-2.4-11.7-5.7-3-3.3-5.1-7.4-7.1-11.4-1.5-3-3.3-6.3-6.5-7.3-2.9-.9-6 .3-8.6 1.8-9.4 5.2-16.6 13.5-24.9 20.4-3 2.5-6.7 5-10.6 4.4-4.4-.7-7.3-5-9.2-9-1.1-2.2-2.4-4.8-4.8-5.3-1.7-.3-3.4.5-4.8 1.3-10.2 6-18.8 16.3-30.6 17.2h158.4c-7.9-3.6-14-11.2-23.1-10.9z" fill="#fff"></path><path d="M553.3 126.1c-.8-.3-1.6-.7-2.2-1.3-.6-.7-1-1.5-1.5-2.3-1-1.5-2.8-2.6-4.6-2.5-1.5 0-3 .8-4.2 1.7-2 1.5-4.2 4.1-7 4.5h19.5z" fill="#e1ebf7"></path></g><path clip-path="url(#b)" fill="#79a6f6" d="M333.3 123.1h14.6v53.4h-14.6zm15.1 37.5H363V214h-14.6zM550.1 145h20.8v53.4h-20.8z"></path><path clip-path="url(#b)" fill="#79a6f6" d="M320.4 141.6H335V195h-14.6zm73 6.1h12.8v53.4h-12.8zm70.3-15.5h14.6v53.4h-14.6z"></path><path clip-path="url(#b)" fill="#79a6f6" d="M374 183.7h25.9v31.7H374z"></path><path transform="rotate(-180 453.426 159.645)" clip-path="url(#b)" fill="#a8c0f3" d="M437.9 103h31v113.2h-31z"></path><g clip-path="url(#b)" fill="#fff"><path d="M441 106.1h3V161h-3zm5.5 0h3V161h-3zm5.5 0h3V161h-3zm5.5 0h3V161h-3zm5.5 0h3V161h-3z"></path></g><path clip-path="url(#b)" fill="#79a6f6" d="M427.6 215.2l10.3 1V103l-10.3 10.8zm-62-106.1l2.1-7.4v-29l-2.1 9.5z"></path><path transform="rotate(-180 372.684 157.489)" clip-path="url(#b)" fill="#a8c0f3" d="M362.4 98.7h20.5v117.5h-20.5z"></path><path transform="rotate(-180 995.184 150.188)" clip-path="url(#b)" fill="#a8c0f3" d="M984.4 84.1h21.5v132.1h-21.5z"></path><g clip-path="url(#b)" fill="#fff"><path d="M984.4 88.4h21.5v4.8h-21.5zm0 9.7h21.5v4.8h-21.5zm0 9.7h21.5v4.8h-21.5zm0 9.6h21.5v4.8h-21.5zm0 9.7h21.5v4.8h-21.5zm0 9.7h21.5v4.8h-21.5zm0 9.7h21.5v4.8h-21.5zm0 9.7h21.5v4.8h-21.5zm0 9.7h21.5v4.8h-21.5zm0 9.6h21.5v4.8h-21.5zm0 9.7h21.5v4.8h-21.5zm0 9.7h21.5v4.8h-21.5zm0 9.7h21.5v4.8h-21.5z"></path></g><path transform="rotate(-180 323.763 183.034)" clip-path="url(#b)" fill="#a8c0f3" d="M293.7 149.8h60.2v66.4h-60.2z"></path><path clip-path="url(#b)" fill="#79a6f6" d="M358 209l4.4.6V99.2l-4.4 19.9z"></path><path clip-path="url(#b)" fill="#a8c0f3" d="M409.2 216.3h21.2V100.6l-21.2-15.5z"></path><g clip-path="url(#b)" fill="#fff"><path d="M409.4 102.4h21.1v2.1h-21.1zm0 6.2h21.1v2.1h-21.1zm0 6.1h21.1v2.1h-21.1zm0 6.2h21.1v2.1h-21.1zm0 6.1h21.1v2.1h-21.1zm0 6.2h21.1v2.1h-21.1zm0 6.1h21.1v2.1h-21.1zm0 6.2h21.1v2.1h-21.1zm0 6.1h21.1v2.1h-21.1zm0 6.2h21.1v2.1h-21.1zm0 6.2h21.1v2.1h-21.1zm0 6.1h21.1v2.1h-21.1zm0 6.2h21.1v2.1h-21.1zm0 6.1h21.1v2.1h-21.1zm0 6.2h21.1v2.1h-21.1z"></path></g><path clip-path="url(#b)" fill="#79a6f6" d="M402.3 215.1l7.1.9V85l-7.1 12z"></path><path clip-path="url(#b)" fill="#a8c0f3" d="M367.6 72.7h12.8v31.8h-12.8z"></path><path transform="rotate(-180 509.171 164.914)" clip-path="url(#b)" fill="#a8c0f3" d="M500 113.4h18.4v103H500z"></path><g clip-path="url(#b)" fill="#fff"><path d="M500 116.6h18.4v2.8H500zm0 5.6h18.4v2.8H500zm0 5.5h18.4v2.8H500zm0 5.6h18.4v2.8H500zm0 5.5h18.4v2.8H500zm0 5.6h18.4v2.8H500zm0 5.5h18.4v2.8H500zm0 5.6h18.4v2.8H500zm0 5.5h18.4v2.8H500z"></path></g><path transform="rotate(-180 468.587 181.984)" clip-path="url(#b)" fill="#a8c0f3" d="M446.9 147.7h43.3v68.5h-43.3z"></path><path transform="rotate(-180 541.187 176.206)" clip-path="url(#b)" fill="#a8c0f3" d="M528.8 136.2h24.7v80.1h-24.7z"></path><path clip-path="url(#b)" fill="#79a6f6" d="M426.3 214.1l20.9 1.9v-68.3L426.3 159zm65.5 1.6l8.2.5V113.4l-8.2 4.7zm22.2-.3l14.9.8v-80.1l-14.9 5.5zm452-1.8l18.4.2V84.2L966 87.6z"></path><path clip-path="url(#b)" fill="#fff" d="M363.9 100.9h1.6V184h-1.6zm3.1 0h1.6V184H367zm3.2 0h1.6V184h-1.6zm3.1 0h1.6V184h-1.6zm3.2 0h1.6V184h-1.6zm3.1 0h1.6V184h-1.6z"></path><g clip-path="url(#b)"><path fill="#20214f" d="M1932 398.3h-813.1L377.6 216h40.3z"></path></g><circle cx="401.7" cy="154.5" r="5.9" clip-path="url(#b)" fill="#25467a"></circle><path clip-path="url(#b)" fill="#25467a" d="M400 160.4l32.4-24.4-5.3-13.1-28.5 26.5z"></path><circle cx="432.4" cy="128.4" r="7.6" clip-path="url(#b)" fill="#29abe2"></circle><circle cx="432.4" cy="128.4" r="6.5" clip-path="url(#b)" fill="#17183a"></circle><path d="M444-.6c18.1 9.4 56.3 67.3 7.3 108.9l-80.8 70.6v4.7l88.1-59.8c72-40.2 82.8-81.3 68.1-124.8L444-.6z" clip-path="url(#b)" fill="#a8c0f3"></path><g clip-path="url(#b)"><path d="M437.5 138c-1.4 1-3 1.5-4.6 1.5-2.4 0-4.6-1-6.1-2.8-1.2-1.5-1.9-3.3-1.9-5.3l-.5.4c.1 1.9.8 3.7 2 5.1 1.6 1.9 4 3 6.5 3 .8 0 1.6-.1 2.4-.4l2.2-1.5zm23.2-38.1v-1c-.2.2-.3.4-.5.6v.4c0 7.4 6 13.4 13.4 13.4 1 0 2-.1 3-.3.5-.3.9-.6 1.4-.9-1.4.5-2.9.8-4.4.8-7.1-.1-12.9-5.9-12.9-13zm41.8-31.4c-13.4 0-24.9-8.8-28.5-21.4.2 1 .4 2.1.5 3.2 4.6 11.1 15.5 18.7 28 18.7 11.2 0 21-6 26.2-15.3.3-1 .6-1.9.9-2.9-4.6 10.6-15.1 17.7-27.1 17.7zm-60.1 56.6c-1.7-1.9-2.5-4.4-2.3-7l-.5.5c-.1 2.5.8 5 2.4 6.9 1.9 2.1 4.5 3.3 7.3 3.3.9 0 1.8-.1 2.6-.4l2.4-1.6c-1.5 1-3.2 1.5-5.1 1.5-2.5-.1-5.1-1.3-6.8-3.2z" fill="#5392ff"></path><path d="M387.7 164.2v-.3l-.5.4c.1 2.6 2.2 4.7 4.8 4.7l.9-.6c-.3.1-.6.1-.9.1-2.4 0-4.3-1.9-4.3-4.3z" fill="#2d74da"></path><path d="M411 143.5l-.5.4c.2 3.8 3.4 6.8 7.3 6.8.4 0 .9 0 1.3-.1l1.4-1c-.9.4-1.8.6-2.8.6-3.7.1-6.7-3-6.7-6.7zm-13.3 11.6l-.5.4c.3 3 2.9 5.4 6 5.4.3 0 .6 0 .8-.1l1.3-.9c-.7.3-1.4.4-2.1.4-2.9.1-5.4-2.3-5.5-5.2z" fill="#5392ff"></path></g><path d="M509.4-.1l-.5-.8-64.9.3c18.1 9.4 56.3 67.3 7.3 108.9l-80.8 70.6v4.3L477 104.5C545.2 56.3 509.4-.1 509.4-.1z" clip-path="url(#b)" fill="#5392ff"></path><g clip-path="url(#b)" fill="#2d74da"><path d="M397.7 155.1l-.5.4c.3 2.3 1.8 4.2 3.9 5l.5-.4c-2.2-.6-3.8-2.6-3.9-5zm-10 9.1v-.3l-.5.4c0 2 1.2 3.6 2.9 4.3l.5-.4c-1.6-.5-2.9-2.1-2.9-4zm114.8-95.7c-13.4 0-24.9-8.8-28.5-21.4.2 1 .4 2.1.5 3.2 4.6 11.1 15.5 18.7 28 18.7 2.9 0 5.7-.4 8.3-1.2l.3-.6c-2.7.8-5.6 1.3-8.6 1.3zm-91.5 75l-.5.4c.2 2.9 2 5.3 4.5 6.3l.5-.4c-2.6-.8-4.5-3.3-4.5-6.3zm15.7-6.8c-1.2-1.5-1.9-3.3-1.9-5.3l-.5.4c.1 1.9.8 3.7 2 5.1.9 1.1 2.1 1.9 3.4 2.4l.5-.3c-1.4-.4-2.6-1.2-3.5-2.3zm34-36.8v-1c-.2.2-.3.4-.5.6v.4c0 5.1 2.9 9.5 7 11.8l.5-.3c-4.1-2.2-7-6.6-7-11.5zm-18.3 25.2c-1.7-1.9-2.5-4.4-2.3-7l-.5.5c-.1 2.5.8 5 2.4 6.9.9 1.1 2.1 1.9 3.3 2.4l.5-.4c-1.3-.6-2.5-1.4-3.4-2.4z"></path></g><path clip-path="url(#b)" fill="#a8c0f3" d="M369.5 157.5h17.4V214h-17.4z"></path><path clip-path="url(#b)" fill="#79a6f6" d="M362.5 209.7l7 1v-53.2l-7 11.2z"></path><path clip-path="url(#b)" fill="#5392ff" d="M471.2 113.1h1.9v106.3h-1.9zm-46.3 32h1.4v49.7h-1.4zm-22.5 15.6h.9v33.2h-.9z"></path><path clip-path="url(#b)" fill="#5392ff" d="M474.2 113.9h-8.3l4.5-3.3h8.5zm-46.7 31.9h-5.4l1.9-1.4h5.6zm-22.7 15.6h-4l1-.8h4.1z"></path><path d="M392.9 192.6c-7.3.8-13.1 7-13.1 14.6 0 7.5 5.6 13.6 12.8 14.5l466.2 132.7V75.3L392.9 192.6z" clip-path="url(#b)" fill="#25467a"></path><path d="M382.9 198.2l457.3-85.5V90.9L385.3 195.8c-.9.7-1.7 1.5-2.4 2.4z" clip-path="url(#b)" fill="#1f57a4"></path><path d="M385.1 218.4L840.3 336v-75.6l-459.9-49.5c.7 3 2.4 5.6 4.7 7.5z" clip-path="url(#b)" fill="#1d3458"></path><path d="M686.1 283.2c-15.4-19.4-24.5-43.8-24.5-70.5 0-17.4 3.9-33.8 10.9-48.5L421 196.1c-1.7 3.6-2.6 7.6-2.6 11.9 0 6.6 2.3 12.6 6 17.4l261.7 57.8z" clip-path="url(#b)" fill="#a0e3f0"></path><path d="M420.9 196.1l-.3.6 250.6-30c.4-.8.8-1.7 1.2-2.5l-251.5 31.9z" clip-path="url(#b)" fill="#d1f0f7"></path><g clip-path="url(#b)"><defs><path id="d" d="M686.1 283.2c-15.4-19.4-24.5-43.8-24.5-70.5 0-17.4 3.9-33.8 10.9-48.5L421 196.1c-1.7 3.6-2.6 7.6-2.6 11.9 0 6.6 2.3 12.6 6 17.4l261.7 57.8z"></path></defs><clipPath id="e"><use xlink:href="#d" overflow="visible"></use></clipPath><path clip-path="url(#e)" fill="#12a3b4" d="M986.2 285.7H644.6l-261.4-67.8h49.4z"></path><path clip-path="url(#e)" fill="#188291" d="M420.9 217.4h-22.4l203.6 37.2h98.5z"></path><path clip-path="url(#e)" fill="#00b6cb" d="M710.7 285.7h-66.1l-261.4-67.8h9.5z"></path></g><path d="M661.9 281.2c-16.2-18.4-26-42.5-26-69 0-20.2 5.7-39 15.6-55l44.4-3.3-2.6 136.3-31.4-9z" clip-path="url(#b)" fill="#25467a"></path><path d="M639.3 238.8c4.2 15.9 12 30.4 22.6 42.4l31.4 9 .9-45.4-54.9-6z" clip-path="url(#b)" fill="#1d3458"></path><path d="M418.7 207.9c0-4.2.9-8.3 2.6-11.9h-.4c-1.7 3.6-2.6 7.6-2.6 11.9 0 6.6 2.3 12.6 6 17.4h.5c-3.9-4.8-6.1-10.8-6.1-17.4z" clip-path="url(#b)" fill="#d1f0f7"></path><path d="M635.9 212.2c0 2.4.1 4.8.2 7.2h58.5l1.2-65.5-44.4 3.3c0-1.2-15.6 7-15.6 7v4.6l6.5-.8c1.5-.2 2.7 1.3 2.1 2.8-5.5 12.7-8.5 26.7-8.5 41.4z" clip-path="url(#b)" fill="#25467a"></path><path d="M664.5 228.2c4 .3 7.8-1.2 10.7-4l.1-.1 6.6-7.2 6.4 7.3c1 1.2 2.1 2.2 3.2 3 2.8 2 6.2 3.2 9.7 3.4 5 .3 9.8-1.3 13.4-4.5 3.7-3.3 5.8-8 5.7-13-.2-9.9-8.6-17.7-18.6-17.6-4.6 0-9 1.7-12.3 4.7l-.2.2-7.4 8.2-6.2-7c-1.9-2.1-4.2-3.6-6.7-4.4-1.6-.5-3.2-.7-4.8-.6-7.6.4-13.6 7.3-13.7 15.3-.1 4.1 1.3 8 3.9 11 2.6 3.1 6.2 5 10.2 5.3zm7-8c-1.9 1.9-4.4 2.9-7 2.7-2.6-.1-5-1.3-6.8-3.4-1.8-2-2.7-4.7-2.7-7.4.1-5.4 4.2-10 9.2-10.2 1.1 0 2.2.1 3.2.4 1.6.5 3.1 1.5 4.3 3l6.4 7.4-6.6 7.5zm29.7-18.8h.3c6.5.1 12.1 5.3 12.2 11.7.1 3.3-1.3 6.3-3.7 8.5-2.4 2.2-5.5 3.3-8.8 3.1-2.4-.1-4.6-.9-6.5-2.2-.8-.5-1.5-1.2-2.2-2l-6.9-7.8 7.8-8.5c2.1-1.7 4.8-2.8 7.8-2.8z" clip-path="url(#b)" fill="#12a3b4"></path><g clip-path="url(#b)"><path fill="#71cddd" d="M446.8 216.5l-.7-10.6h-.4l.4 12.1 2.8-.2v-1.1z"></path><path fill="#a0e3f0" d="M429.9 216.5l-.6-10.6h-.3l.3 12.1 2.4-.2v-1.1z"></path><path fill="#00b6cb" d="M429.3 205.9h16.8l.7 10.6h-16.9zm2.4 10.8h17.2v1.1h-17.2z"></path><path fill="#71cddd" d="M429.9 216.5h16.9l2.1.2-17.1.1z"></path></g><g clip-path="url(#b)"><path fill="#71cddd" d="M454.8 217.2l-.8-11.3h-.6l.6 12.9 3.2-.1v-1.3z"></path><path fill="#a0e3f0" d="M436.7 217.2l-.7-11.3h-.5l.5 12.9 2.7-.1v-1.3z"></path><path fill="#00b6cb" d="M436 205.9h18l.8 11.3h-18.1zm2.7 11.5h18.5v1.2h-18.5z"></path><path fill="#71cddd" d="M436.7 217.2h18.1l2.4.2h-18.5z"></path></g><g clip-path="url(#b)"><path fill="#71cddd" d="M464 218.1l-.9-12.3h-.6l.6 14 3.8-.1v-1.4z"></path><path fill="#a0e3f0" d="M444.5 218.1l-.8-12.3h-.5l.5 14 3.2-.1v-1.4z"></path><path fill="#00b6cb" d="M444.5 218.1H464l-.9-12.3h-19.4zm2.4.2h20v1.3h-20z"></path><path fill="#71cddd" d="M444.5 218.1H464l2.9.2h-20z"></path></g><g clip-path="url(#b)"><path fill="#71cddd" d="M474.9 219.1l-1.1-13.3h-.8l.8 15.2 4.4-.2v-1.4z"></path><path fill="#a0e3f0" d="M453.6 219.1l-.9-13.3h-.6l.6 15.2 3.8-.2v-1.4z"></path><path fill="#00b6cb" d="M452.7 205.8h21.1l1.1 13.3h-21.3zm3.8 13.6h21.8v1.4h-21.8z"></path><path fill="#71cddd" d="M453.6 219.1h21.3l3.3.3h-21.7z"></path></g><g clip-path="url(#b)"><path d="M459.9 218c.1-.1 5.5.5 5.5.5l.7 8.1 1.2-.1.9-8.3c.1-.7-.4-1.4-1.1-1.6L462 215h-3l.9 3zm.3-12.2l.6 1.2c.1.3.2.6.3 1 .1 1.2.4 4.1.4 4.1l2.8 3-.8.3-2.5-2.1c-.6-.5-.9-1.1-1-1.9l-.4-4.4.6-1.2z" fill="#188291"></path><path d="M459 204c-3.2 1.5-4.3 1.4-4.5 4.6-.1 1.6-.3 8.4 1.2 9 .5.2 2-.1 2.8-.5 1.8-1 1.5-2.3 1.4-3.7-.2-2.8 1.1-5.8-.1-8.5-.1-.4-.3-.8-.8-.9z" fill="#188291"></path><path d="M458.8 201.4c-1.2 2.2 0 4 .5 4.2.4.1.8-.3 1.1-.6.6-.6.9-1.5.9-2.3 0-.4-.1-.8-.3-1.1-.3-.6-.8-.9-1.2-.9-.2.1-.8.3-1 .7m-3.1 11.1c-.1-.3.5-5.7.5-5.8 0-.4-.4-.7-.8-.7-.5 0-1 .6-1.1 1.1v.5c0 .3 0 .5-.1.8 0 .6-.4 4.9.1 5.3.3.3 4.2 1.6 6.3 2.2l.5-1c-.7-.2-5.1-1.8-5.4-2.4zm-.7 3.7c.1.5.2.9.3 1.4.2.5.4 1.1.9 1.4.4.2.9.2 1.4.1 1.3-.1 2.7-.1 4 0 .4 0 .8 0 1-.3.1-.1.1-.2.1-.4v-.6c0-.4 0-.8-.3-1-.2-.1-.4-.1-.6-.1h-.9c-.4 0-.8 0-1.2-.1-1.2-.1-2.4-.5-3.5-1.1" fill="#188291"></path><path d="M460.3 218.4c.3 7.6.5 9.3 1.1 9.2.2 0 .3-.3.4-.5.6-2.8 1.1-5.5 1.3-8.4 0-.5 0-1.1-.4-1.5-.6-.5-1.4-.1-2.1.5" fill="#188291"></path><path d="M461.6 227c.4.8 1.3 1.2 2.1 1.6.2.1.5.3.7.5 0 0 .1.1.1.2 0 .2-.2.2-.4.3-1 .1-2.1-.1-3.1-.4-.1 0-.1-.1-.2-.1-.1-.1-.2-.3-.2-.5 0-.6.1-1.2.3-1.8m6-.7c.4.8 1.3 1.2 2.1 1.6.2.1.5.3.7.5 0 0 .1.1.1.2 0 .2-.2.2-.4.3-1 .1-2.1-.1-3.1-.4-.1 0-.1-.1-.2-.1-.1-.1-.2-.3-.2-.5 0-.6.1-1.2.3-1.8" fill="#188291"></path><path fill="#d1f0f7" d="M457 215.5h6.5v.2H457z"></path><path fill="#d1f0f7" d="M467 215.7h-6.5l1.2-4.6h6.5z"></path></g><g clip-path="url(#b)"><path fill="#b0e105" d="M487.8 220.3l-1.4-14.6h-.8l.8 16.6 5.4-.1v-1.5z"></path><path fill="#a0e3f0" d="M464.5 220.3l-1.1-14.6h-.7l.7 16.6 4.5-.1v-1.5z"></path><path fill="#00b6cb" d="M463.4 205.7h23l1.4 14.6h-23.3zm4.5 15h23.9v1.6h-23.9z"></path><path fill="#71cddd" d="M464.5 220.3h23.3l4 .4h-23.9z"></path></g><g clip-path="url(#b)"><path fill="#b0e105" d="M503.4 221.7l-1.6-16.1h-1.1l1.1 18.4 6.6-.1v-1.7z"></path><path fill="#a0e3f0" d="M477.7 221.7l-1.4-16.1h-.9l.9 18.4 5.6-.1v-1.7z"></path><path fill="#00b6cb" d="M476.3 205.6h25.5l1.6 16.1h-25.7zm5.6 16.6h26.5v1.8h-26.5z"></path><path fill="#71cddd" d="M477.7 221.7h25.7l5 .5h-26.5z"></path></g><g clip-path="url(#b)"><path fill="#b0e105" d="M522.7 223.5l-2.1-18h-1.2l1.2 20.5 8.3.1v-2z"></path><path fill="#a0e3f0" d="M493.9 223.5l-1.7-18h-1.1l1.1 20.5 7 .1v-2z"></path><path fill="#00b6cb" d="M492.2 205.5h28.4l2.1 18h-28.8zm7 18.6h29.7v2h-29.7z"></path><path fill="#71cddd" d="M493.9 223.5h28.8l6.2.6h-29.7z"></path></g><g clip-path="url(#b)"><path fill="#b0e105" d="M547.1 225.8l-2.6-20.4h-1.7l1.7 23.2 10.6.2v-2.3z"></path><path fill="#a0e3f0" d="M514.5 225.8l-2.2-20.4h-1.4l1.4 23.2 9 .2v-2.3z"></path><path fill="#00b6cb" d="M512.3 205.4h32.2l2.6 20.4h-32.6zm9 21.1h33.8v2.2h-33.8z"></path><path fill="#71cddd" d="M514.5 225.8h32.6l8 .7h-33.8z"></path></g><g clip-path="url(#b)"><path fill="#b0e105" d="M578.9 228.7l-3.4-23.5h-2.2l2.2 26.7 14.2.4v-2.6z"></path><path fill="#a0e3f0" d="M541.4 228.7l-2.9-23.5h-1.8l1.8 26.7 12 .4v-2.6z"></path><path fill="#00b6cb" d="M538.5 205.2h37l3.4 23.5h-37.5zm12 24.5h39.2v2.6h-39.2z"></path><path fill="#71cddd" d="M541.4 228.7h37.5l10.8 1h-39.2z"></path></g><g clip-path="url(#b)"><path fill="#00b6cb" d="M622.3 232.8l-4.8-27.8h-3l3 31.4 19.9.9v-3.1z"></path><path fill="#a0e3f0" d="M578 232.8l-4-27.8h-2.6l2.6 31.4 16.7.9v-3.1z"></path><path fill="#00b6cb" d="M590.7 234.2h46.7v3.1h-46.7zM574 205h43.5l4.8 27.8H578z"></path><path fill="#71cddd" d="M590.7 234.2l-12.7-1.4h44.3l15.1 1.4z"></path><path d="M628 248.1c-.3-.3-.8-.6-1.2-.8-.9-.5-1.8-.9-2.5-1.6-.4-.3-.6-.9-.5-1.4l2.7-13.7c.1-1.4-.7-2.8-2.1-3.2l-10-3.1h-5.8l1.7 5.9c.2-.1 11.4 1.2 11.4 1.2l-.1 14c-.1.6-.2 1.1-.2 1.7 0 .3.1.7.3.9.1.1.2.1.4.2 1.7.6 3.6.8 5.4.7.3 0 .7-.1.7-.5 0-.1-.1-.2-.2-.3z" fill="#188291"></path><path d="M626.8 247.3c-.9-.5-1.8-.9-2.5-1.6l-.1-.1c-.3.2-.6.4-.8.5-1.1.6-1.3-.5-1.9-.9v.1c-.1.6-.2 1.1-.2 1.7 0 .3.1.7.3.9.1.1.2.1.4.2 1.7.6 3.6.8 5.4.7.3 0 .7-.1.7-.5 0-.1-.1-.2-.2-.3-.2-.2-.7-.5-1.1-.7z" fill="#00b6cb"></path><path d="M607.1 229.3c-1.3-2.7 1.1-5.5 1.6-8.1.5-2.6-.7-6.1 1.2-9.9 2.3-4.6 7.6-5 9.6-1.8.7 1.1.8 2.5.9 3.8.4 5.9-3.6.7-3.3 12 0 1.6-.1 3-2.1 3.7-.9.3-1.8.3-2.7.2" fill="#188291"></path><path d="M621.2 229.7v-.5c-.2-2.2-2.5-1.8-4.2-1.9-1.6 0-3.2-.2-4.7-.7-1-.3-2-.7-2.9-1.1-.4-.2-.9-.4-1.2-.7-.1-.2-.3-1-.6-.5-.6 1.1-1 2.3-1.2 3.5-.1.7-.1 1.4.1 2.1s.6 1.3 1.2 1.7c.9.6 2.3.6 3.3.6 9-.8 10.1 1.8 10.2-2.5z" fill="#188291"></path><path d="M625.3 248.7c-.3-.3-.8-.6-1.2-.8l-2.1-1.2c-.5-.4-.8-1-.8-1.6.2-4.6.1-9.2-.3-13.8-.1-1-.3-2.2-1-2.8-1.1-.9-2.3 0-3.1 1.4l-.4 1.3c1.1 6.8 1.9 11.2 2.5 13.9-.3.8-.4 1.7-.4 2.5 0 .3.1.7.3.9.1.1.2.1.4.2 1.7.6 3.6.8 5.4.7.3 0 .7-.1.7-.5.2 0 .1-.1 0-.2z" fill="#188291"></path><path d="M608 223.3c-.3.7-.6 1.4-.8 2-.3.8-.6 1.7-.7 2.5-.1.7-.1 1.4.1 2.1.2.7.6 1.3 1.2 1.7.9.6 2.3.6 3.3.6 2.4-.2 4.2-.2 5.6-.1l.3 2.1h8.8l.7-3.6c.1-1.4-.7-2.8-2.1-3.2l-7.2-2.2v-1.9H608z" fill="#12a3b4"></path><path d="M591.7 206.1l1.1 2.3c.3.6.5 1.2.5 1.9.2 2.4.8 8.1.8 8.1l5.5 5.8-1.6.6-5-4.1c-1.1-.9-1.9-2.3-2-3.7l-.8-8.6 1.5-2.3z" fill="#188291"></path><path d="M591.3 221.1c-.4-5.6 2.1-11.4-.2-16.7-.3-.8-2.1-.7-2.9-.9-6.3 2.9-7.6 2.2-7.9 8.4-.1 2.1-.2 8.4.5 12.9 1.7-.1 8.2-.6 10.6-.8.1-1 0-2-.1-2.9z" fill="#188291"></path><path d="M583 229.3c1 .4 4-.1 5.6-1 2.3-1.2 2.9-2.8 2.9-4.5-2.4.2-8.9.7-10.6.8.4 2.5 1 4.3 2.1 4.7zm7.4-23.1c.1-.2.5-.9.8-1.6 0-.1-.1-.2-.1-.3-.3-.8-2.1-.7-2.9-.9-.8.4-1.6.7-2.2 1 1.4 3.6 2.5 5.1 4.4 1.8z" fill="#17616b"></path><path d="M588.7 198.5c-2.3 4.4-.1 8 1.1 8.2.7.2 1.6-.6 2.1-1.2 1.1-1.2 1.9-2.9 1.9-4.5 0-.8-.1-1.5-.5-2.2-.6-1.2-1.7-1.7-2.3-1.7-.6 0-1.8.5-2.3 1.4" fill="#17616b"></path><path d="M583 219.4c-.3-.7 1-11.2 1-11.3-.1-.8-.3-1.9-1.2-1.8-.9 0-2.4 1.6-2.6 2.5-.1.6-1.1 12-.1 13 .6.6 8.6 3.2 12.7 4.3l.6-1.9c-1.2-.4-10-3.8-10.4-4.8z" fill="#188291"></path><path d="M600 252c-.4-.4-.8-.7-1.3-.9-1.1-.6-2.3-1.2-3.2-2.1-.4-.4-.5-.9-.4-1.4.6-2.4 3.4-16.5 1.9-18.5-2.4-3.4-5.3.3-12.9-4.1l-2.5 1.6c1.4 7.6 3.2 5.3 10.4 5.5.3 7 .5 11.3.9 13.9.1 1 .2 2 0 3-.1.6-.2 1.3-.2 1.9 0 .4.1.8.3 1 .1.1.3.1.4.2 1.9.7 4 .9 6.1.8.3 0 .8-.2.8-.5-.2-.2-.2-.3-.3-.4z" fill="#17616b"></path><path d="M610.4 250.2c-.4-.4-.8-.7-1.3-.9-1-.5-2-1.1-2.8-1.8-.4-.3-.6-.8-.5-1.3l1.6-15.6c.1-1.4-.7-2.8-2.1-3.2l-10-3.1h-5.8l1.7 5.9c.2-.1 10.8.9 10.8.9l1.1 14.1c.1.9.1 1.7-.1 2.6 0 .4-.1.8-.1 1.2 0 .4.1.8.3 1 .1.1.3.1.4.2 1.9.7 4 .9 6.1.8.3 0 .8-.2.8-.5 0-.1-.1-.2-.1-.3z" fill="#17616b"></path></g><path clip-path="url(#b)" fill="#00b6cb" d="M623.8 220.5l-7-7.4 1.9-2.9 4.7 6.4.4 3.9"></path><g clip-path="url(#b)"><path d="M611.8 210.5c-.7-.1-1.4.4-1.6 1.1-.6 3.5-1.1 8.6-.8 9.4.5 1 7.5 5 7.8 4.9.3-.1.5-.9 0-1.4-.5-.6-1.1-1.1-1.7-1.5-4.1-3.1-3.4-2.8-3.3-3.7.2-2.6.4-4.7.7-7.2.2-.8-.4-1.5-1.1-1.6z" fill="#00b6cb"></path></g><path d="M612.7 213.7c.1-.5.1-1.1.2-1.6.1-.8-.4-1.5-1.2-1.6-.7-.1-1.4.4-1.6 1.1-.1.7-.2 1.5-.4 2.3l3-.2z" clip-path="url(#b)" fill="#188291"></path><path d="M622.4 214.9h-4.5c-.3 0-.6-.3-.5-.7l1.7-7.1c.1-.2.3-.4.5-.4h4.5c.3 0 .6.3.5.7l-1.7 7.1c-.1.3-.3.4-.5.4z" clip-path="url(#b)" fill="#d1f0f7"></path><g clip-path="url(#b)"><path d="M623.2 220.1c-.4-1.5-1.4-7.8.1-8 .3 0 .5.4.6.7.7 2.7.8 3.3 1.1 6.1.3 2.4-1.9 1.8-2 .9" fill="#00b6cb"></path></g><g clip-path="url(#b)"><path d="M623.6 213.5c.1-.6.9-.9 1-1.5 0-.2 0-.4-.1-.6-.3-.8-.6-1.6-1.1-2.3l-.1-.1c-.1-.1-.3 0-.5.1-.2.2-.3.5-.3.8v.9c0 .4-.2.7-.3 1.1-.1.4-.1.7 0 1.1.1.3.4.5.7.7" fill="#00b6cb"></path></g><g clip-path="url(#b)"><path d="M619.3 199.1c-.8-.5-1.7-.7-2.6-.6-.9.1-1.7.5-2.4 1.1-1.1 1-1.6 2.6-1.7 4.1v1.7c0 .9 0 1.9.1 2.8.3-.5.7-.8 1.1-1.2 1.2-1.1 2.2-2.3 3.2-3.5" fill="#17616b"></path></g><path d="M615.7 201.8s-.9 2.6-1.3 4-2.2 2.6-2.2 2.6 3.4 2.3 5.3.3c.5-.5-.6-1.1 0-3s-1.8-3.9-1.8-3.9z" clip-path="url(#b)" fill="#00b6cb"></path><g clip-path="url(#b)"><path d="M616.3 200.1c-2 3.8-.1 7 .9 7.2.6.2 1.4-.5 1.9-1 1-1.1 1.6-2.5 1.6-4 0-.7-.1-1.4-.4-1.9-.5-1-1.5-1.5-2-1.5s-1.6.4-2 1.2" fill="#00b6cb"></path></g><g clip-path="url(#b)"><path d="M593.6 199.9c-.1-.4-.2-.8-.4-1.1-.6-1.2-1.7-1.7-2.3-1.7-.5 0-1.8.5-2.2 1.4-.9 1.8-1.1 3.4-.9 4.7 1.2-1.1.8-1.5.9-2.1.2-.6 1-.5.7.6h.4c0-1 .9-1.1 1-1.2.2-.2-.3-.7.6-.9 1 0 1.7.2 2.2.3z" fill="#164d56"></path></g><g clip-path="url(#b)"><path d="M614.5 204.7c.4.1.8-.1 1.2-.3.9-.6.7-1 .8-1.3.1-.1.2-.2.4-.2.3.2.1.8 1-.3 1-1.2 2.9-.3 3-1.7 0-.6-.3-1.3-1.2-1.7-1.9-1-2.5-.3-3.6.6-1.2.9-1.3 1.6-1.6 3.2-.3 1.3 0 1.7 0 1.7z" fill="#17616b"></path></g><path d="M617.6 227.2c.4.1 1-.2 1.7.3.3.2.8.9 1.3.6.9-.4-.3-2.4-1-2.9-.3-.2-.7-.3-1.1-.3-1.5-.2-1.4-.6-1.8-.5-.2.1-.4.4-.2 1 .2.5.3 1.6 1.1 1.8z" clip-path="url(#b)" fill="#00b6cb"></path><path d="M581.9 222.6c2.7 1 6.5 2.2 9.4 3l2-1.4c-.9-.3-7.4-2.8-9.6-4.1-.4.5-1.2 1.6-1.8 2.5z" clip-path="url(#b)" fill="#17616b"></path><path clip-path="url(#b)" fill="#d1f0f7" d="M585.4 225.3h12.7v.4h-12.7z"></path><path clip-path="url(#b)" fill="#d1f0f7" d="M605.1 225.7h-12.7l2.4-9.1h12.7z"></path><g clip-path="url(#b)"><path d="M599.4 252.8c.3 0 .8-.2.8-.5 0-.1-.1-.2-.2-.3-.4-.4-.8-.7-1.3-.9-1.1-.6-2.3-1.2-3.2-2.1-.1-.1-.1-.1-.1-.2-.4.1-.7.3-1.1.5-.3.2-.6.4-.9.3-.3-.1-.4-.5-.5-.7 0-.1 0-.1-.1-.2v.2c-.1.6-.2 1.3-.2 1.9 0 .4.1.8.3 1 .1.1.3.1.4.2 2 .7 4 1 6.1.8z" fill="#00b6cb"></path></g><g clip-path="url(#b)"><path d="M609.8 251c.3 0 .8-.2.8-.5 0-.1-.1-.2-.2-.3-.4-.4-.8-.7-1.3-.9-1-.5-2-1.1-2.8-1.8-.1-.1-.2-.2-.2-.3-.2.1-.4.2-.6.4-1.6 1.4-1.3 0-2.3-.5 0 .3 0 .5-.1.8 0 .4-.1.8-.1 1.2 0 .4.1.8.3 1 .1.1.3.1.4.2 2 .6 4 .8 6.1.7z" fill="#00b6cb"></path></g><g clip-path="url(#b)"><path d="M624.1 247.9l-2.1-1.2c-.2-.2-.4-.4-.5-.6-.2.1-.3.2-.5.3-.3.2-.6.4-.9.3-.1 0-.2-.1-.3-.2-.2-.2-.4-.4-.5-.7l-.3-.6c-.2.8-.4 1.6-.3 2.4 0 .3.1.7.3.9.1.1.2.1.4.2 1.7.6 3.6.8 5.4.7.3 0 .7-.1.7-.5 0-.1-.1-.2-.2-.3-.3-.2-.7-.4-1.2-.7z" fill="#00b6cb"></path></g><path d="M563.5 178c-4.7 9.9-7.3 21-7.3 32.7 0 17.9 6.2 34.4 16.5 47.4l-6.4-1.5c-10-12.7-16-28.7-16-46.1 0-11.4 2.6-22.1 7.1-31.7l6.1-.8z" clip-path="url(#b)" fill="#d1f0f7"></path><path d="M562.5 178c-4.7 9.9-7.3 21-7.3 32.7 0 17.9 6.2 34.4 16.5 47.4l-6.4-1.5c-10-12.7-16-28.7-16-46.1 0-11.4 2.6-22.1 7.1-31.7l6.1-.8z" clip-path="url(#b)" fill="#25467a"></path><path d="M561.2 180.8l.6-1.3c.4-.9 1.2-1.5 2.2-1.6l3.7-.5.6-2.1h-7.9l-7.9.5-.4 3.5 3.2-.4c.4 0 .7.3.5.7l-.8 1.7 6.2-.5" clip-path="url(#b)" fill="#25467a"></path><path d="M508.7 184.8c-3.6 7.5-5.5 15.9-5.5 24.7 0 13.6 4.7 26 12.5 35.9l-3.6-.8c-7.6-9.6-12.1-21.7-12.1-34.9 0-8.6 2-17 5.5-24.3l3.2-.6z" clip-path="url(#b)" fill="#d1f0f7"></path><path d="M508.1 184.8c-3.6 7.5-5.5 15.9-5.5 24.7 0 13.6 4.7 26 12.5 35.9l-3.6-.8c-7.6-9.6-12.1-21.7-12.1-34.9 0-8.6 2-17 5.5-24.3l3.2-.6z" clip-path="url(#b)" fill="#25467a"></path><path d="M474.1 189c-2.8 6-4.4 12.7-4.4 19.7 0 10.8 3.7 20.8 10 28.7l-2.3-.5c-6.1-7.7-9.7-17.3-9.7-27.9 0-6.9 1.6-13.6 4.4-19.4l2-.6z" clip-path="url(#b)" fill="#d1f0f7"></path><path d="M473.6 189c-2.8 6-4.4 12.7-4.4 19.7 0 10.8 3.7 20.8 10 28.7l-2.3-.5c-6.1-7.7-9.7-17.3-9.7-27.9 0-6.9 1.6-13.6 4.4-19.4l2-.6z" clip-path="url(#b)" fill="#25467a"></path><path d="M451.1 191.9c-2.4 5-3.7 10.6-3.7 16.5 0 9 3.1 17.3 8.3 23.9l-1.6-.3c-5.1-6.4-8.1-14.4-8.1-23.2 0-5.7 1.3-11.3 3.6-16.2l1.5-.7z" clip-path="url(#b)" fill="#d1f0f7"></path><path d="M450.7 191.9c-2.4 5-3.7 10.6-3.7 16.5 0 9 3.1 17.3 8.3 23.9l-1.6-.3c-5.1-6.4-8.1-14.4-8.1-23.2 0-5.7 1.3-11.3 3.6-16.2l1.5-.7z" clip-path="url(#b)" fill="#25467a"></path><path d="M434.8 193.9c-2 4.3-3.2 9.1-3.2 14.1 0 7.8 2.7 14.9 7.1 20.5l-1.2-.3c-4.3-5.5-6.9-12.4-6.9-19.9 0-4.9 1.1-9.7 3.1-13.9l1.1-.5z" clip-path="url(#b)" fill="#d1f0f7"></path><path d="M434.5 193.9c-2 4.3-3.2 9.1-3.2 14.1 0 7.8 2.7 14.9 7.1 20.5l-1.2-.3c-4.3-5.5-6.9-12.4-6.9-19.9 0-4.9 1.1-9.7 3.1-13.9l1.1-.5zm72.4-9.8s-.1.1-.2.3l-4.6.6-.2.7 1.6-.2c.5-.1.9.5.7.9l-.4.8 1.3-.1s.4-.4.8-.9c-.2.4-.3.7-.3.7l1.4-.1.5-1c.3-.6.9-1.1 1.6-1.2l1.3-.2s.3-.9.4-1c.1.3-3.9.7-3.9.7zm-34.7 4.7l-.1.2-1.9.2.2.5c1-.1.7.6.7.6s.6.1.6 0l1.3-.2c.4-.8 1.4-.9 1.4-.9l.2-.5-2.4.1zm-22.5 2.8v.3c-.6.1-1.5.3-1.5.3l.2.4c.8-.1.5.6.5.6s.6 0 .6-.1c0 0 0-.1.1-.2v.1h.6c.3-.7 1.2-.8 1.2-.8s.5-.8.4-.8l-2.1.2z" clip-path="url(#b)" fill="#25467a"></path><path d="M434 195c.3-.7 1.3-.8 1.3-.8l.1-.6-2.9.4-.1.6c1.1-.2.8.4.8.4h.8z" clip-path="url(#b)" fill="#25467a"></path><g clip-path="url(#b)"><path fill="#5392ff" d="M313.1 166.4h58.6V195h-58.6z"></path><path d="M318.3 168.6h5.3v.9h-5.3zm14.3 0h5.3v.9h-5.3zm14.3 0h5.3v.9h-5.3zm14.4 0h5.3v.9h-5.3z" fill="#fff"></path></g><g clip-path="url(#b)" fill="#a8c0f3"><path d="M320.4 179.8c1.4-1.7 3.4-2.7 5.8-2.7 2.3 0 4.3 1 5.7 2.6l.6-.6c-1.3-2.4-3.7-3.9-6.3-3.9-2.7 0-5.1 1.6-6.4 4l.6.6z"></path><path d="M326.1 178.8c-2.8 0-5.2 1.5-6.5 3.7 1.3 2.2 3.7 3.7 6.5 3.7s5.2-1.5 6.5-3.7a7.52 7.52 0 0 0-6.5-3.7zm-.1 6.9c-1.6 0-2.9-1.3-2.9-2.9 0-1.6 1.3-2.9 2.9-2.9s2.9 1.3 2.9 2.9c0 1.5-1.3 2.9-2.9 2.9z"></path><circle cx="326" cy="182.7" r="1.6"></circle><circle cx="342" cy="177.1" r=".9"></circle><circle cx="344.3" cy="177.1" r=".9"></circle><circle cx="338.3" cy="182.2" r="1.6"></circle><path d="M337.6 180.7l3.4-1.8-1.3 4.1z"></path><circle cx="348" cy="182.2" r="1.6"></circle><path d="M348.7 180.7l-3.4-1.8 1.3 4.1zm-7.6-.5h4v1.1h-4zm0 2.1h4v1.1h-4zm.3 2.1c.3.6 1 1 1.8 1s1.5-.4 1.8-1h-3.6zm3.6-5.2c-.3-.6-1-1-1.8-1s-1.5.4-1.8 1h3.6z"></path><g><path d="M360.4 183.8h-1.5l.2.7h1zm-5.2-1.3h2.3v.7h-2.3zm6.5 1.3h3.6v.7h-3.6zm0-1.3h2.3v.7h-2.3zm-8 1.3h3.8v.7h-3.8zm4.2-2.7l.3.7h2.9l.2-.7zm7.4-4.8v-.8h-4.2l-.3.8zm-4.7 6.8l.2-.6h-2.4l.2.6zm-5.4-2h2.3v.7h-2.3zm6.5 0h2.3v.7h-2.3zm-6.5-1.4v.7h2.3v-.4l.2.4h3.8l.2-.4v.4h2.3v-.7zm-1.5 5.5h3.8v.8h-3.8zm8 0h3.6v.8h-3.6zm-3.5-8.9l-.3-.8h-4.2v.8zm1.2 8.9l.2.7.3-.7zm1.2-8.2l-.3.7h5v-.7zm-1.2 2l-.3-.6h-3.9v.6zm-.9-2h-4.8v.7h5.1zm1.6 1.4l-.3.6h4.2v-.6z"></path></g></g><path clip-path="url(#b)" fill="#5392ff" d="M319 193.9h2.2V216H319zm43.9 0h2.2V216h-2.2z"></path><path clip-path="url(#b)" fill="#25467a" d="M552.9 124.8l-67.2 25.7v9.5l67.2-21.3z"></path><path clip-path="url(#b)" fill="#79a6f6" d="M549.7 124.8l-66.2 25.7v9.5l66.2-21.3z"></path><path clip-path="url(#b)" fill="#e1ebf7" d="M548.3 126.1L484 150.8v8.4l64.3-21z"></path><g clip-path="url(#b)"><path d="M898.6 71.2c14.7 2.2 28.3 8.1 40.3 16.6 11.7 8.3 22 19.1 30.4 31.7 8.3 12.4 14.8 26.6 19.3 41.9 4.4 15.2 6.9 31.6 6.9 48.8s-2.4 33.6-6.9 48.8c-4.5 15.3-11.1 29.5-19.3 41.9-8.4 12.6-18.7 23.5-30.4 31.7-12 8.5-25.6 14.3-40.3 16.6-15.2 2.3-30.2.6-44.2-4.7-14.5-5.5-27.9-14.7-39.4-27-11.8-12.6-21.6-28.4-28.4-46.5-7-18.4-10.8-39-10.8-60.7s3.9-42.3 10.8-60.7c6.9-18.1 16.6-33.9 28.4-46.5 11.5-12.3 24.9-21.5 39.4-27 14-5.4 29-7.2 44.2-4.9z" fill="#17183a"></path></g><g clip-path="url(#b)"><path d="M825.9 90.9l41.3-10.2c2.6-.6 5.2-1.2 7.8-1.5 2.6-.4 5.2-.6 7.9-.8 2.6-.1 5.2-.1 7.9 0 2.6.1 5.2.4 7.9.7 6.8 1 13.4 2.7 19.7 5.3 6.2 2.5 12.2 5.7 17.9 9.6 5.6 3.8 10.9 8.3 15.8 13.4 4.9 5 9.4 10.7 13.6 16.9 4.1 6.1 7.8 12.6 10.9 19.4 3.1 6.7 5.7 13.8 7.8 21 2.1 7.2 3.7 14.7 4.7 22.3 1.1 7.6 1.6 15.4 1.6 23.2 0 7.9-.5 15.6-1.6 23.2s-2.6 15.1-4.7 22.3c-2.1 7.2-4.7 14.3-7.8 21-3.1 6.8-6.8 13.3-10.9 19.4l-44.3-6.1c4-5.7 7.6-11.7 10.6-18 3-6.2 5.6-12.8 7.6-19.5 2-6.7 3.6-13.6 4.6-20.7 1-7.1 1.6-14.3 1.6-21.6 0-7.3-.5-14.6-1.6-21.6-1-7.1-2.6-14-4.6-20.7-2-6.7-4.6-13.3-7.6-19.5-3.1-6.3-6.6-12.3-10.6-18-4.1-5.7-8.5-10.9-13.3-15.6-4.8-4.7-10-8.8-15.4-12.3-5.5-3.5-11.3-6.5-17.3-8.7-6.1-2.3-12.5-3.9-19-4.7-2.5-.3-5.1-.5-7.6-.6-2.5-.1-5.1-.1-7.6.1-2.5.1-5.1.4-7.6.8-2.7.4-5.2.9-7.7 1.5z" fill="#25467a"></path><path d="M965.6 124.3c-4.2-6.2-8.7-11.8-13.6-16.9-4.9-5.1-10.2-9.6-15.8-13.4-5.7-3.9-11.6-7.1-17.9-9.6-6.3-2.5-12.9-4.3-19.7-5.3-2.6-.4-5.2-.6-7.9-.7-2.6-.1-5.3-.1-7.9 0-2.6.1-5.3.4-7.9.8-2.6.4-5.2.9-7.8 1.5l-41.3 10.2c2.5-.6 5-1.1 7.5-1.5 2.5-.4 5-.6 7.6-.8 2.5-.1 5.1-.2 7.6-.1s5.1.3 7.6.6c6.6.8 12.9 2.4 19 4.7 6 2.2 11.8 5.2 17.3 8.7 5.4 3.5 10.6 7.6 15.4 12.3 4.8 4.6 9.2 9.8 13.3 15.6.6.8 1.1 1.7 1.7 2.5l44.5-5.6c-.5-1-1.1-2-1.7-3z" fill="#17183a"></path><path d="M867.2 339.7l-41.3-10.2c2.5.6 5 1.1 7.5 1.5 2.5.4 5 .6 7.6.8 2.5.1 5.1.2 7.6.1s5.1-.3 7.6-.6c6.6-.8 12.9-2.4 19-4.7 6-2.2 11.8-5.2 17.3-8.7 5.4-3.5 10.6-7.6 15.4-12.3 4.8-4.6 9.2-9.8 13.3-15.5l44.3 6.1c-4.2 6.2-8.7 11.8-13.6 16.9-4.9 5.1-10.2 9.6-15.8 13.4-5.7 3.9-11.6 7.1-17.9 9.6-6.3 2.5-12.9 4.3-19.7 5.3-2.6.4-5.2.6-7.9.7-2.6.1-5.3.1-7.9 0-2.6-.1-5.3-.4-7.9-.8-2.5-.4-5.1-.9-7.6-1.6z" fill="#25467a"></path><path d="M921.3 290c-4.1 5.7-8.5 10.9-13.3 15.5-4.8 4.7-10 8.8-15.4 12.3-1.6 1-3.1 1.9-4.7 2.8l43.1 9c1.7-1 3.5-2.1 5.1-3.3 5.6-3.8 10.9-8.3 15.8-13.4 4.9-5 9.4-10.7 13.6-16.9l-44.2-6z" fill="#1f57a4"></path><path d="M969.2 290.3l-44.2-5.9c-1.2 1.9-2.4 3.8-3.7 5.6l44.3 6.1c1.2-1.9 2.4-3.8 3.6-5.8z" fill="#1f57a4"></path><path d="M948.5 227.6c-.7-1.4-1.6-2.6-2.7-3.5-1.1-.9-2.3-1.6-3.6-1.9L902 213l50.2 5.1c0-1.9-.3-3.6-.8-5.2s-1.2-3.1-2.1-4.3c-.9-1.2-1.9-2.2-3.1-2.9-1.2-.7-2.5-1.1-3.8-1.1l-40.8-.3 50.1-5.9c-.2-1.6-.6-3.1-1.2-4.5s-1.3-2.6-2.2-3.6c-.9-1-1.8-1.8-2.9-2.4-1.1-.6-2.2-.9-3.4-.9h-.8c-.1 0-.3 0-.4.1s-.3 0-.4.1l-40.4 8.6 49-16.8c-.4-1.4-.9-2.6-1.5-3.8-.6-1.1-1.3-2.1-2.1-2.9-.8-.8-1.7-1.5-2.6-1.9-.9-.5-1.9-.7-2.9-.8h-.8c-.3 0-.6.1-.9.1-.3.1-.6.1-.9.2l-.9.3-38.9 17.4 46.2-27.4c-.5-1.1-1-2.1-1.6-3-.6-.9-1.3-1.6-2.1-2.3-.7-.6-1.5-1.1-2.4-1.5-.8-.4-1.7-.6-2.6-.6h-1.3c-.4 0-.9.1-1.3.2s-.8.3-1.3.5c-.4.2-.8.4-1.2.7L893.7 180l42.2-37.5c-.5-.8-1-1.6-1.6-2.3-.6-.7-1.2-1.2-1.9-1.7s-1.4-.8-2.1-1.1c-.7-.3-1.4-.4-2.2-.5-.6-.1-1.2 0-1.7 0-.6.1-1.1.2-1.7.4-.6.2-1.1.5-1.6.9s-1 .8-1.5 1.3L889 173.4l37-47c-.5-.6-1-1.1-1.5-1.6s-1.1-.9-1.6-1.2c-.6-.3-1.1-.6-1.7-.8-.6-.2-1.2-.3-1.8-.4-.7-.1-1.5-.1-2.2.1-.7.1-1.4.4-2.1.7-.7.3-1.4.8-2 1.4-.6.6-1.2 1.2-1.7 2l-27.8 41.2 30.5-55.4c-.4-.4-.8-.7-1.3-1-.4-.3-.9-.5-1.3-.7-.4-.2-.9-.4-1.3-.5-.5-.1-.9-.2-1.4-.3-.9-.1-1.8-.1-2.7.1-.9.2-1.8.6-2.6 1.1-.8.5-1.6 1.2-2.3 2-.7.8-1.3 1.8-1.8 2.8l-22.1 47.6 22.9-62.7c-.3-.2-.6-.4-.9-.5-.3-.2-.6-.3-.9-.4l-.9-.3c-.3-.1-.6-.1-.9-.2-1.1-.1-2.2-.1-3.3.2-1.1.3-2.1.8-3 1.5-.9.7-1.8 1.6-2.5 2.7s-1.3 2.3-1.7 3.8l-15.5 52.9L884.8 92c-.2-.1-.3-.1-.5-.2s-.3-.1-.5-.1-.3-.1-.5-.1-.3-.1-.5-.1c-1.4-.2-2.7-.1-3.9.3-1.2.4-2.4 1.1-3.4 2-1 .9-1.9 2.1-2.6 3.5-.7 1.4-1.2 3-1.4 4.7l-8.1 56.9 4.6-72.6c-1.6-.2-3.2 0-4.6.5-1.4.6-2.7 1.5-3.8 2.7-1.1 1.2-2 2.7-2.6 4.4-.6 1.7-.9 3.6-.9 5.7v59.3l-5.7-74.5c-1.7.1-3.2.7-4.5 1.6-1.3.9-2.5 2.1-3.4 3.6-.9 1.5-1.6 3.2-1.9 5.1-.4 1.9-.4 3.9-.1 6.1l8.5 59.9-16.4-74.2c-1.7.5-3.1 1.4-4.3 2.6-1.2 1.2-2.2 2.7-2.9 4.4-.7 1.7-1.1 3.6-1.2 5.6-.1 2 .2 4.1.8 6.2l17.2 58.6L815 92.5c-1.6.9-2.9 2.1-4 3.6-1 1.5-1.8 3.3-2.2 5.2-.4 1.9-.6 3.9-.4 6 .2 2.1.8 4.1 1.7 6.1l25.7 55.2-37.7-66c-1.5 1.3-2.6 2.8-3.4 4.6-.8 1.8-1.3 3.7-1.5 5.8-.2 2 0 4.1.6 6.2.5 2 1.4 4 2.6 5.8l33.7 49.8-47.3-58.1c-1.3 1.6-2.2 3.5-2.7 5.4-.5 2-.7 4.1-.6 6.2.2 2.1.7 4.2 1.5 6.1.8 2 2 3.8 3.5 5.3l40.9 42.5-55.7-47.8c-1 1.9-1.6 4-1.8 6.1-.2 2.1-.1 4.3.4 6.3.5 2.1 1.3 4.1 2.5 5.8 1.1 1.8 2.6 3.3 4.3 4.6l46.8 33.4-62.9-35.1c-.7 2.1-1 4.3-.9 6.5.1 2.2.6 4.3 1.4 6.3.8 2 1.9 3.8 3.3 5.3s3.1 2.8 5 3.6l51.3 22.9-67-21.6c-.4 2.3-.3 4.5.1 6.7.4 2.1 1.2 4.1 2.3 5.9 1.1 1.8 2.5 3.3 4.1 4.5 1.6 1.2 3.5 2.1 5.5 2.5l54 11.5-69.3-6.7c0 2.3.4 4.5 1.2 6.6.8 2 1.9 3.8 3.2 5.3 1.4 1.5 3 2.7 4.8 3.6 1.8.8 3.7 1.3 5.8 1.3l54.8-.5-69.2 8.5c.3 2 1 3.9 1.9 5.6.9 1.7 2 3.1 3.4 4.3 1.3 1.2 2.8 2.1 4.4 2.7 1.6.6 3.3.9 5.1.9h.6c.2 0 .4 0 .6-.1.2 0 .4-.1.6-.1.2 0 .4-.1.6-.1l53.7-12.3-66.5 23.3c.6 1.7 1.3 3.2 2.3 4.5.9 1.3 2.1 2.4 3.3 3.3 1.2.9 2.6 1.6 4 2 1.4.4 2.9.6 4.4.5.4 0 .8-.1 1.2-.1.4-.1.8-.1 1.2-.2.4-.1.8-.2 1.2-.4.4-.1.8-.3 1.2-.5l50.7-23.6-61.3 36.8c.7 1.3 1.5 2.4 2.4 3.4.9 1 2 1.8 3.1 2.4 1.1.6 2.3 1.1 3.5 1.4 1.2.3 2.4.4 3.7.3.6 0 1.2-.1 1.8-.3.6-.1 1.2-.3 1.8-.5.6-.2 1.2-.5 1.8-.8.6-.3 1.2-.7 1.7-1.1l46.2-33.8-54.7 49c.7.9 1.5 1.7 2.4 2.3.8.7 1.7 1.2 2.7 1.6.9.4 1.9.7 2.9.8 1 .2 2 .2 3 .1.8-.1 1.6-.2 2.4-.5.8-.2 1.6-.5 2.3-.9.8-.4 1.5-.8 2.2-1.4.7-.5 1.4-1.1 2-1.8l40.1-42.6-46.1 58.9c.7.6 1.3 1 2.1 1.4.7.4 1.5.7 2.2.9.8.2 1.5.4 2.3.5.8.1 1.6.1 2.3 0 1-.1 2-.3 2.9-.7 1-.3 1.9-.8 2.8-1.4.9-.6 1.7-1.3 2.5-2 .8-.8 1.5-1.7 2.2-2.7l33-49.6-36.5 66.4c.5.3 1.1.5 1.6.7.6.2 1.1.4 1.7.5.6.1 1.1.2 1.7.2.6 0 1.1 0 1.7-.1 1.2-.1 2.3-.5 3.4-.9 1.1-.5 2.2-1.1 3.2-1.9 1-.8 1.9-1.7 2.7-2.8.8-1.1 1.6-2.3 2.2-3.6l25.1-54.8-26 71.5c.4.1.7.2 1.1.3.4.1.7.1 1.1.1h1.1c.4 0 .7 0 1.1-.1 1.3-.2 2.6-.6 3.8-1.2 1.2-.6 2.4-1.5 3.4-2.5 1.1-1 2-2.2 2.8-3.6.8-1.3 1.5-2.8 1.9-4.5l16.7-57.9-15.3 74h1.6c.2 0 .4 0 .5-.1 1.5-.2 2.9-.7 4.3-1.5 1.3-.8 2.6-1.8 3.7-3.1s2-2.7 2.7-4.3c.7-1.6 1.2-3.4 1.5-5.2l8.3-59.1-4.7 74.1c1.7-.2 3.2-.9 4.7-1.8 1.4-1 2.7-2.2 3.8-3.7 1.1-1.5 1.9-3.2 2.5-5.1.6-1.9.9-3.8.9-5.9v-58.5l5.5 71.9c1.6-.6 3-1.5 4.3-2.7 1.3-1.2 2.3-2.7 3.2-4.3.8-1.6 1.4-3.5 1.8-5.3.3-1.9.4-3.9.1-5.8l-7.9-56.2 14.9 67.8c1.4-.9 2.7-2.1 3.8-3.5 1.1-1.4 1.9-3 2.5-4.8.6-1.7.9-3.6 1-5.5.1-1.9-.1-3.8-.7-5.6l-15.1-52.4 23.5 61.9c1.3-1.1 2.4-2.6 3.2-4.1.8-1.6 1.4-3.3 1.8-5.1.4-1.8.5-3.6.3-5.4-.2-1.8-.6-3.6-1.4-5.2L887 251.1l31 54.6c1.1-1.4 2-2.9 2.6-4.6.6-1.7 1-3.5 1.1-5.2.1-1.8 0-3.6-.4-5.3-.4-1.7-1.1-3.3-2-4.7L892 244.8l37.3 46.1c.9-1.5 1.5-3.2 1.9-5 .4-1.7.5-3.5.4-5.3-.1-1.7-.5-3.4-1.1-5-.6-1.5-1.4-2.9-2.5-4.1l-32-34 42.5 36.7c.7-1.7 1.1-3.5 1.3-5.2.2-1.8.1-3.5-.3-5.2-.3-1.7-.9-3.2-1.7-4.6-.8-1.4-1.8-2.5-3-3.4L899.3 230l46.3 26.6c.5-1.8.6-3.6.6-5.3-.1-1.7-.4-3.4-.9-5-.5-1.5-1.3-2.9-2.2-4.1-.9-1.2-2.1-2.1-3.3-2.7l-38.5-17.9 48.9 16c.2-1.8.2-3.6-.1-5.3-.3-1.7-.9-3.3-1.6-4.7zm-83.6-17.3l-.2.4.3.2-.2.3.2.3-.3.3.2.4-.3.2.2.4-.3.2.1.4-.4.1v.4h-.4v.4l-.3-.1-.1.4-.3-.2-.1.6-.3-.2-.2.4-.3-.3-.2.3-.2-.3-.3.3-.2-.4-.3.2-.1-.4-.3.1-.1-.4h-.3v-.4h-.3l.1-.4-.3-.1.1-.4-.3-.2.2-.4-.3-.3.2-.3-.3-.3.3-.3-.2-.4.3-.2-.1-.4.3-.2-.1-.4.4-.1v-.4h.4v-.4l.4.1.1-.4.3.2.1-.4.3.2.2-.4.3.3.2-.3.2.3.3-.3.2.4.3-.2.1.4.3-.1.1.4h.3v.4h.4l-.1.4.3.1-.1.4.1.1z" fill="#1d3458"></path><path d="M863.2 347.3l-41.1-10.8c-11.3-3-22.1-8.2-31.9-15.4-10-7.3-19.1-16.6-26.7-27.6-7.7-11.1-13.9-23.9-18.3-37.9-4.3-14.1-6.7-29.4-6.7-45.3 0-15.9 2.4-31.2 6.7-45.3 4.3-14 10.5-26.8 18.3-37.9 7.6-11 16.6-20.3 26.7-27.6 9.8-7.2 20.6-12.4 31.9-15.4l41.1-10.8c-11.8 3.1-23 8.7-33.3 16.4-10.5 7.9-20 17.9-28 29.8-8.1 12.1-14.7 26-19.2 41.3-4.6 15.4-7.1 32.1-7.1 49.6 0 17.4 2.5 34.1 7.1 49.6 4.5 15.3 11.1 29.2 19.2 41.3 8 11.9 17.5 22 28 29.8 10.3 7.5 21.5 13.1 33.3 16.2z" fill="#1f57a4"></path><path d="M801.5 120c.1-.2.3-.4.4-.6 6.3-9.4 13.6-17.7 21.6-24.6l-38.8 8.9c-7.9 6.6-15 14.4-21.2 23.3l-.1.1 38.1-7.1z" fill="#2d74da"></path><path d="M745.3 255.6c4.3 14 10.5 26.8 18.3 37.9 7.6 11 16.6 20.3 26.7 27.6 9.8 7.2 20.6 12.4 31.9 15.4l41.1 10.8c-11.8-3.1-23-8.7-33.3-16.4-10.5-7.9-20-17.9-28-29.8-8.1-12.1-14.7-26-19.2-41.3-.6-1.9-1.1-3.8-1.6-5.7l-37.4-4c.4 1.8.9 3.6 1.5 5.5z" fill="#25467a"></path><path d="M898.6 71.2c14.7 2.2 28.3 8.1 40.3 16.6 11.7 8.3 22 19.1 30.4 31.7 8.3 12.4 14.8 26.6 19.3 41.9 4.4 15.2 6.9 31.6 6.9 48.8s-2.4 33.6-6.9 48.8c-4.5 15.3-11.1 29.5-19.3 41.9-8.4 12.6-18.7 23.5-30.4 31.7-12 8.5-25.6 14.3-40.3 16.6-15.2 2.3-30.2.6-44.2-4.7-14.5-5.5-27.9-14.7-39.4-27-11.8-12.6-21.6-28.4-28.4-46.5-7-18.4-10.8-39-10.8-60.7s3.9-42.3 10.8-60.7c6.9-18.1 16.6-33.9 28.4-46.5 11.5-12.3 24.9-21.5 39.4-27 14-5.4 29-7.2 44.2-4.9zm67 224.9c4.1-6.1 7.8-12.6 10.9-19.4 3.1-6.7 5.7-13.8 7.8-21 2.1-7.2 3.7-14.7 4.7-22.3 1.1-7.6 1.6-15.4 1.6-23.2 0-7.9-.5-15.6-1.6-23.2s-2.6-15.1-4.7-22.3c-2.1-7.2-4.7-14.3-7.8-21-3.1-6.8-6.8-13.3-10.9-19.4-4.2-6.2-8.7-11.8-13.6-16.9-4.9-5.1-10.2-9.6-15.8-13.4-5.7-3.9-11.6-7.1-17.9-9.6-6.3-2.5-12.9-4.3-19.7-5.3-6.9-1-13.8-1.1-20.5-.4-6.9.7-13.7 2.4-20.3 4.9-6.7 2.5-13.3 6-19.5 10.2-6.3 4.4-12.4 9.6-18.1 15.7-5.7 6.2-10.9 13-15.3 20.5-4.5 7.5-8.4 15.6-11.5 24.2-3.2 8.6-5.6 17.7-7.2 27-1.6 9.4-2.5 19.1-2.5 28.9 0 9.9.8 19.5 2.5 28.9 1.6 9.4 4.1 18.4 7.2 27 3.1 8.6 7 16.6 11.5 24.2 4.5 7.5 9.6 14.3 15.3 20.5 5.7 6.1 11.7 11.3 18.1 15.7 6.3 4.3 12.8 7.7 19.5 10.2 6.6 2.5 13.4 4.1 20.3 4.9 6.8.7 13.7.6 20.5-.4 6.8-1 13.4-2.7 19.7-5.3 6.2-2.5 12.2-5.7 17.9-9.6 5.6-3.8 10.9-8.3 15.8-13.4 4.8-4.9 9.4-10.5 13.6-16.7" fill="#29abe2"></path></g><g clip-path="url(#b)"><path d="M861.5 210.3c0-1.5-.1-3-.2-4.3-.1-1.3-.3-2.5-.5-3.5s-.4-1.8-.7-2.3c-.3-.5-.5-.9-.8-.8 1.2 0 2.3.3 3.4.9 1 .6 1.9 1.4 2.7 2.3.8 1 1.4 2.1 1.8 3.4.4 1.3.7 2.7.7 4.2s-.2 2.9-.7 4.2c-.4 1.3-1.1 2.5-1.8 3.4-.8 1-1.7 1.8-2.7 2.3-1 .6-2.2.9-3.4.9.3 0 .6-.3.8-.8.3-.6.5-1.3.7-2.3.2-1 .4-2.2.5-3.5.1-1.3.2-2.8.2-4.3-.1.1-.1.1 0 .2-.1 0-.1 0 0 0-.1 0-.1 0 0 0z" fill="#5392ff"></path><path d="M861.5 210.1c0 1.5-.1 3-.2 4.3-.1 1.3-.3 2.5-.5 3.5s-.4 1.8-.7 2.3c-.3.5-.5.9-.8.8h-.4c-1.2 0-2.3-.3-3.3-.9-1-.6-1.9-1.3-2.7-2.3-.8-1-1.4-2.1-1.8-3.4-.4-1.3-.7-2.7-.7-4.2s.2-2.9.7-4.2c.4-1.3 1.1-2.4 1.8-3.4.8-1 1.7-1.8 2.7-2.3 1-.6 2.1-.9 3.3-.9h.4c.3 0 .6.3.8.8.3.6.5 1.3.7 2.3.2 1 .4 2.2.5 3.5.1 1.3.2 2.8.2 4.3v-.1c.1 0 .1 0 0-.1.1.1.1 0 0 0z" fill="#5392ff"></path><path d="M860.7 203.6c.3 4.3-4.3 10.9-7.1 8.9-3.2-2.3-1.3-10.4 3.7-11.4 1.6-.3 3.2.3 3.4 2.5" fill="#79a6f6"></path><path d="M861.5 210.3c-.1 0-.1 0 0 0-.1 0-.1 0 0 0l-.1-.1c.2 0 .2.1.1.1.1 0 .1 0 0 0z" fill="#5392ff"></path><path d="M858.6 221c-.4 0-1-.1-1.4-.2-.7-.2-1.2-.4-1.4-.5-1.3-.5-2.1-1.3-2.5-1.6-.5-.4-1.2-1.2-1.9-2.4-.7-1.3-1-2.4-1.2-3-.4-1.5-.6-4 .1-6.5.8-3.1 2.5-4.7 3.2-5.3.5-.4 1.2-1 2.5-1.6 1.2-.5 2-.5 2.7-.6-1.2 0-2.3.3-3.3.9-1 .6-1.9 1.3-2.7 2.3-.8 1-1.4 2.1-1.8 3.4-.4 1.3-.7 2.7-.7 4.2s.2 2.9.7 4.2c.4 1.3 1.1 2.4 1.8 3.4.8 1 1.7 1.8 2.7 2.3.9.7 2 1 3.2 1z" fill="#1f57a4"></path><path d="M859.1 221h-.5c-1.2 0-2.3-.3-3.3-.9-1-.6-1.9-1.3-2.7-2.3-.8-1-1.4-2.1-1.8-3.4-.4-1.3-.7-2.7-.7-4.2s.2-2.9.7-4.2c.4-1.3 1.1-2.4 1.8-3.4.8-1 1.7-1.8 2.7-2.3 1-.6 2.1-.9 3.3-.9h.5c-1.2 0-2.3.3-3.3.9-1 .6-1.9 1.3-2.7 2.3-.8 1-1.4 2.1-1.8 3.4-.4 1.3-.7 2.7-.7 4.2s.2 2.9.7 4.2c.4 1.3 1.1 2.4 1.8 3.4.8 1 1.7 1.8 2.7 2.3 1 .6 2.1.9 3.3.9z" fill="#1f57a4"></path></g><path clip-path="url(#b)" fill="#1f57a4" d="M483.5 160h2.2l67.2-21.3h-3.2z"></path><path clip-path="url(#b)" fill="#5392ff" d="M549.7 124.8h3.3v13.9h-3.3z"></path><g clip-path="url(#b)" fill="#25467a"><path d="M499.8 149.3c0 1.9.9 3 2.2 2.6 1.3-.4 2.3-2.2 2.3-4.2s-.9-3.1-2.3-2.6c-1.3.5-2.2 2.3-2.2 4.2zm.8-.3c0-1.4.6-2.5 1.5-2.8.9-.3 1.5.4 1.5 1.8s-.6 2.6-1.5 2.9c-.9.2-1.5-.5-1.5-1.9zm5.2-2.8v-2.8l-.8.3v7l.7-.2v-.7c.2.4.6.6 1.1.4 1-.3 1.6-1.7 1.6-3.1 0-1.4-.6-2.4-1.6-2-.4.2-.8.7-1 1.1zm0 1.8c0-.9.4-1.7.9-1.9.6-.2 1 .3 1 1.2 0 .9-.4 1.7-1 1.9-.5.3-.9-.3-.9-1.2zm4.6 1c1-.3 1.5-1.2 1.5-2.1 0-2-2-.5-2-1.4 0-.4.2-.7.6-.8.4-.1.6.1.6.5l.8-.3c0-.7-.4-1.5-1.4-1.2-.9.3-1.4 1.2-1.4 2.1 0 2 2 .4 2 1.4 0 .3-.2.7-.7.8-.5.2-.7-.1-.8-.5l-.8.3c.2.9.6 1.6 1.6 1.2zm5.7-4.2v-.4c0-1.5-.7-2.4-1.8-2-1.1.4-1.8 1.8-1.8 3.3 0 1.5.7 2.4 1.8 2 .9-.3 1.5-1.2 1.7-2.3l-.9.3c-.1.5-.5.9-.9 1-.6.2-1-.2-1-1l2.9-.9zm-1.9-1.4c.5-.2.9.2 1 .8l-2 .7c.1-.7.5-1.3 1-1.5zm4.7-2.6h-.1c-.7.2-1 .8-1.1 1.2v-.7l-.8.3v5.2l.9-.3v-2.7c0-1 .4-1.6 1-1.8.1 0 .2-.1.2-.1v-1.1zm2.4 3l-1.1-3.5-1 .3 1.6 4.7.9-.3 1.6-5.9-1 .4-1 4.3zm6.4-3.1v-.4c0-1.6-.8-2.6-2.1-2.1-1.2.4-2.1 2-2.1 3.6s.8 2.6 2.1 2.1c1-.3 1.7-1.4 2-2.5l-1 .3c-.2.5-.5 1-1 1.1-.7.2-1.1-.2-1.2-1l3.3-1.1zm-2.1-1.4c.6-.2 1 .1 1.1.9l-2.2.8c.1-.8.5-1.5 1.1-1.7z"></path></g><path clip-path="url(#b)" fill="#5392ff" d="M-21 436.9h1314.8L377.9 216H224.3L-21 236.4z"></path><path clip-path="url(#b)" fill="#25467a" d="M188.5 304.8h232.1l3.9 4.7H181.3z"></path><path clip-path="url(#b)" fill="#2d74da" d="M373.1 216h5.2l915.5 220.9h-125.6z"></path><path clip-path="url(#b)" fill="#a8c0f3" d="M374 216h1.1l839.6 220.6h-25.5z"></path><path clip-path="url(#b)" fill="#1f57a4" d="M672.3 299.1h50.5l6.6 1.6H678z"></path><path clip-path="url(#b)" fill="#5392ff" d="M681.2 299.1h10.4l5.9 1.6H687z"></path><path clip-path="url(#b)" fill="#1f57a4" d="M598.4 278.6h39.3l3.9.9h-39.8z"></path><path clip-path="url(#b)" fill="#5392ff" d="M605.3 278.6h8l3.6.9h-8.1z"></path><path clip-path="url(#b)" fill="#1f57a4" d="M551.3 265.5h32.1l2.7.6h-32.5z"></path><path clip-path="url(#b)" fill="#5392ff" d="M557 265.5h6.5l2.4.6h-6.6z"></path><path clip-path="url(#b)" fill="#1f57a4" d="M518.6 256.4h27.3l1.9.5h-27.5z"></path><path clip-path="url(#b)" fill="#5392ff" d="M523.5 256.4h5.5l1.7.5h-5.6z"></path><path clip-path="url(#b)" fill="#1f57a4" d="M494.7 249.8h23.6l1.5.3H496z"></path><path clip-path="url(#b)" fill="#5392ff" d="M498.9 249.8h4.8l1.3.3h-4.9z"></path><path clip-path="url(#b)" fill="#1f57a4" d="M476.4 244.7h20.8l1.2.2h-21z"></path><path clip-path="url(#b)" fill="#5392ff" d="M480.1 244.7h4.2l1 .2h-4.2z"></path><path clip-path="url(#b)" fill="#1f57a4" d="M461.9 240.7h18.7l.9.2h-18.8z"></path><path clip-path="url(#b)" fill="#5392ff" d="M465.2 240.7h3.9l.8.2H466z"></path><path clip-path="url(#b)" fill="#1f57a4" d="M450.2 237.4h16.9l.8.2h-17z"></path><path clip-path="url(#b)" fill="#5392ff" d="M453.2 237.4h3.5l.6.2h-3.4z"></path><path clip-path="url(#b)" fill="#1f57a4" d="M440.6 234.7H456l.6.2h-15.5z"></path><path clip-path="url(#b)" fill="#5392ff" d="M443.3 234.7h3.1l.6.2h-3.2z"></path><path clip-path="url(#b)" fill="#71cddd" d="M82 294.5h551.1l-226.6-67.8H279.9z"></path><path clip-path="url(#b)" fill="#5392ff" d="M310.1 287.8h197l6.9 3.4H308.9zm-93.8-23.5h153.4c1.8 0 3.5 1 4.4 2.6l.2.4H210l6.3-3zm98.7-13.5h180.5l-6.1-1.7H315.9zm5.2-9.6h141.3l-3.8-1.1H320.8zm3.3-6.2h116.1l-2.5-.7H323.9zm2.4-4.3h98.5l-1.9-.6h-96.3zM288.4 251l20.8-18.5v-98.9l-20.8-51.7z"></path><path d="M190.3 251h98.1V87.2c0-22.6-18.4-41-41-41h-57.1V251z" clip-path="url(#b)" fill="#1d3458"></path><g clip-path="url(#b)"><path fill="#2d74da" d="M-1.1 508.1L228.7 304V-1.9L-1.1-437.6z"></path><path fill="#1f57a4" d="M-1.1 335.2l214.8-81.5V56.4l-214.8-258z"></path><path fill="#5392ff" d="M-1.1 318.7l208.6-69V59.4L-1.1-174.7z"></path><path fill="#e1ebf7" d="M198.3 65.5l-3.8-3.8.2-1.1 3.6 3.6zm-10.7-12.1l3.9 3.9.3 1.7-4.2-4.2zm-3.3-3.3c.7.8 1.3 1.9 1.8 3.2l-7.8-7.8V44l6 6.1zm-12.7-12.9l6 6v1.5l-6-5.9zM198.3 68l-4.3-4.2.3-1.2 4 4.1zm-6.1-6l-4.6-4.6V56l4.4 4.4zm-5.5-6.9c.1.6.2 1.1.2 1.6l-8.6-8.5v-1.5l8.4 8.4zm-15.1-15l6 6v1.5l-6-5.9zm22 25.8l.2-1.2 3.3 3.2v1.3zm-1.2-2.5l.3 1.6-3.7-3.6V60zm-5.4-5.3c0 .5 0 1-.1 1.3l-2.3-2.2v-1.4l2.4 2.3zm-13.7-13.4l2.6 2.5v1.5l-2.6-2.4zm6.7 6.5l2.3 2.3V55l-2.3-2.3zm11.1 13.7V66l-2.1-2v-1.4l3.9 3.8.2 1.4.3-1 3.7 3.5v1.4l-1.9-1.8v-1.1l-.2.9-3.7-3.6zm-11.1-11l6.6 6.3c-.1.3-.4.7-.6.8l-6-5.7v-1.4zm-6.7-6.3l2.6 2.4v1.5l-2.6-2.4zM195.2 71l1.9 1.8v1.3l-1.9-1.7zm-4.1-3.8l-2.1-2v1.4l2.1 2zm3.7 3.5l-.2 1.1-2.8-2.6-.3-1.6 3.3 3.1zm-14.8-14l5.9 5.6c.3.7.5 1.4.7 2.1l-6.6-6.2v-1.5zm-4.1-2.3v-1.5l-2.6-2.4V52zm19.3 19.1l1.9 1.8v1.3l-1.9-1.7zm-6.2-5.6l2.1 1.9v1.3l-2.1-1.9zm5.1 6l.2-1.1-2.4-2.2.2 1.6 2 1.7zM180 61v-1.5l2.4 2.2v1.5c-.1-.1-2.4-2.2-2.4-2.2zm6.9 4.9c.1.5.1 1 .1 1.5l-2.4-2.2v-1.4l2.3 2.1zm-13.6-12.5l2.6 2.3v1.5l-2.6-2.3zM195.2 76l3.1 2.9v1.3l-3.1-2.9zm-7.6-6.9l3.5 3.2v1.4l-3.5-3.2zm6.1 6.9l-1.1-.9-.2-1.6 1.5 1.3zm-22.1-21.4v1.5l6 5.3v-1.5c0 .1-6-5.3-6-5.3zm15.3 13.9c-.1.4-.1.9-.3 1.2l-.1-.1-8.3-7.4v-1.5l8.7 7.8zm6.3 9.6l-.1-.1-.2-1.5.5.5zm2 .4l3.1 2.8v1.3l-3.1-2.7zM178.3 65v-1.5l7.8 7c-.5.5-1.2.3-1.9-.3l-5.9-5.2m9.3 6.8l3.5 3.1v1.3l-3.5-3zm-10-8.9v1.5l-6-5.2v-1.6l6 5.3z"></path><path d="M173.7 196.3c-6.1-.4-12.3-6.5-17.3-17.8l-.1-.2-14.5-36-15.8 29.1c-2.2 4.1-4.6 7.5-7.2 10.2-6.6 6.9-14.8 10.4-24 9.9-13.8-.8-28.3-10.8-40.2-29.2-13-20-20.5-46.1-20.2-71.9.3-24.6 7.8-43.8 20.3-53.6 11.5-9 25.4-8.5 38.7.1 12 7.8 22.4 21.3 29.9 37.9l.3.7 18.3 47.2 13.8-23.9c3.2-5.6 7.1-8.6 11.1-8.7 2.5-.1 5 .8 7.5 2.7 5.5 4.1 10.4 12.6 13.8 23.6 3.3 10.6 5.1 22.8 5.2 34.6.1 12.4-1.7 23.7-5.1 32.1-3.6 8.7-8.7 13.6-14.5 13.2zm-13.2-25.6c3.8 8.8 8.5 13.9 13.3 14.5 4.6.6 8.6-3 11.6-9.9 2.8-6.6 4.3-15.7 4.2-25.7-.1-19.7-6.6-40.1-15.4-46-2-1.3-3.9-1.9-5.9-1.7-3.1.3-6 2.8-8.4 7.3L146.3 134l14.2 36.7zM94.8 54.1c-.4-.2-.7-.4-1.1-.7-10.3-6-20.8-5.5-29.4 2-9.1 8-14.5 22.7-14.7 41.1-.2 19.3 5.1 38.9 14.6 54.4 8.9 14.5 19.8 22.9 30.6 24.2 7.2.9 13.9-1.4 19.2-6.6 2.1-2 4.1-4.7 6-7.9l17.2-29.8L117.6 82c-5.9-12.4-13.8-22.3-22.8-27.9z" fill="#d1f0f7"></path><path d="M132.2 94.4c0 7-3.1 11.1-6.9 9.3-4-1.9-7.4-9.6-7.4-17s3.4-11.4 7.4-9c3.8 2.3 6.9 9.8 6.9 16.7z" fill="#1d3458"></path><path d="M160.9 110c0 6-2.3 9.8-5.1 8.4-3-1.4-5.4-7.8-5.4-14.1s2.5-10 5.4-8.2c2.8 1.7 5.1 7.9 5.1 13.9z" fill="#00b6cb"></path><path d="M160.9 169.5c0 6-2.3 10.5-5.1 10.1-3-.4-5.4-5.9-5.4-12.3 0-6.3 2.5-10.8 5.4-10 2.8.7 5.1 6.2 5.1 12.2z" fill="#1d3458"></path><path d="M132.2 163.5c0 7-3.1 12.1-6.9 11.6-4-.6-7.4-7.1-7.4-14.6 0-7.4 3.4-12.6 7.4-11.5 3.8 1.1 6.9 7.5 6.9 14.5z" fill="#188291"></path><path fill="#1d3458" d="M207.5 59.4h1.8v190.3h-1.8z"></path><path fill="#25467a" d="M156.9-.1h-2.5l53 59.4h1.9z"></path><path fill="#a8c0f3" d="M15.5 314.4h-4.6l196.6-64.7h1.8z"></path><path d="M102.4 224.4l-40.2 3c-.8.1-1.4-.8-1.4-2 0-1.1.6-2.1 1.4-2.1l40.2-2.4c.5 0 1 .7 1 1.7s-.5 1.7-1 1.8z" fill="#1d3458"></path><path d="M99 239.3l-32.4 4.4c-.5.1-.9-.5-.9-1.2s.4-1.4.9-1.5l32.4-4.1c.4 0 .7.4.7 1.1 0 .7-.3 1.3-.7 1.3zm-3.4 9.4L71 252.9c-.5.1-.9-.4-.9-1.2s.4-1.4.9-1.5l24.6-4c.4-.1.7.4.7 1.1 0 .7-.3 1.3-.7 1.4zm1.9 8.5l-28.8 6.1c-.5.1-.9-.4-.9-1.2s.4-1.4.9-1.5l28.8-5.8c.4-.1.7.4.7 1.1s-.4 1.2-.7 1.3z" fill="#d1f0f7"></path><path d="M152.8 220.5l-24 1.8c-.4 0-.8-.6-.8-1.5s.4-1.6.8-1.6l24-1.5c.3 0 .6.6.6 1.3 0 .9-.3 1.5-.6 1.5z" fill="#00b6cb"></path><path d="M150.7 232.2l-19.4 2.7c-.3 0-.5-.4-.5-1s.2-1.1.5-1.1l19.4-2.5c.2 0 .4.4.4.9s-.1 1-.4 1zm-2.1 7.3l-14.7 2.6c-.3 0-.5-.4-.5-.9s.2-1.1.5-1.1l14.7-2.4c.2 0 .4.4.4.9 0 .4-.1.8-.4.9zm1.2 6.7l-17.2 3.6c-.3.1-.5-.4-.5-.9 0-.6.2-1.1.5-1.1l17.2-3.5c.2 0 .4.3.4.8 0 .6-.2 1-.4 1.1z" fill="#d1f0f7"></path><g><path d="M185.5 218.1l-16 1.2c-.3 0-.5-.5-.5-1.2s.2-1.3.5-1.3l16-1c.2 0 .4.5.4 1.1s-.2 1.1-.4 1.2z" fill="#188291"></path><path d="M184.1 227.7l-12.9 1.8c-.2 0-.3-.3-.3-.8s.1-.8.3-.9l12.9-1.6c.2 0 .3.3.3.7 0 .4-.1.7-.3.8zm-1.4 5.9l-9.8 1.7c-.2 0-.3-.3-.3-.8s.1-.8.3-.9l9.8-1.6c.2 0 .3.3.3.7 0 .5-.2.8-.3.9zm.8 5.5l-11.5 2.4c-.2 0-.3-.3-.3-.8s.1-.9.3-.9l11.5-2.3c.2 0 .3.3.3.7-.1.5-.2.9-.3.9z" fill="#d1f0f7"></path></g></g><g clip-path="url(#b)"><path fill="#2d74da" d="M-1.1 508.1L228.7 304V-1.9L-1.1-437.6z"></path><path fill="#1f57a4" d="M-1.1 335.2l214.8-81.5V56.4l-214.8-258z"></path><path fill="#5392ff" d="M-1.1 318.7l208.6-69V59.4L-1.1-174.7z"></path><path fill="#e1ebf7" d="M198.3 65.5l-3.8-3.8.2-1.1 3.6 3.6zm-10.7-12.1l3.9 3.9.3 1.7-4.2-4.2zm-3.3-3.3c.7.8 1.3 1.9 1.8 3.2l-7.8-7.8V44l6 6.1zm-12.7-12.9l6 6v1.5l-6-5.9zM198.3 68l-4.3-4.2.3-1.2 4 4.1zm-6.1-6l-4.6-4.6V56l4.4 4.4zm-5.5-6.9c.1.6.2 1.1.2 1.6l-8.6-8.5v-1.5l8.4 8.4zm-15.1-15l6 6v1.5l-6-5.9zm22 25.8l.2-1.2 3.3 3.2v1.3zm-1.2-2.5l.3 1.6-3.7-3.6V60zm-5.4-5.3c0 .5 0 1-.1 1.3l-2.3-2.2v-1.4l2.4 2.3zm-13.7-13.4l2.6 2.5v1.5l-2.6-2.4zm6.7 6.5l2.3 2.3V55l-2.3-2.3zm11.1 13.7V66l-2.1-2v-1.4l3.9 3.8.2 1.4.3-1 3.7 3.5v1.4l-1.9-1.8v-1.1l-.2.9-3.7-3.6zm-11.1-11l6.6 6.3c-.1.3-.4.7-.6.8l-6-5.7v-1.4zm-6.7-6.3l2.6 2.4v1.5l-2.6-2.4zM195.2 71l1.9 1.8v1.3l-1.9-1.7zm-4.1-3.8l-2.1-2v1.4l2.1 2zm3.7 3.5l-.2 1.1-2.8-2.6-.3-1.6 3.3 3.1zm-14.8-14l5.9 5.6c.3.7.5 1.4.7 2.1l-6.6-6.2v-1.5zm-4.1-2.3v-1.5l-2.6-2.4V52zm19.3 19.1l1.9 1.8v1.3l-1.9-1.7zm-6.2-5.6l2.1 1.9v1.3l-2.1-1.9zm5.1 6l.2-1.1-2.4-2.2.2 1.6 2 1.7zM180 61v-1.5l2.4 2.2v1.5c-.1-.1-2.4-2.2-2.4-2.2zm6.9 4.9c.1.5.1 1 .1 1.5l-2.4-2.2v-1.4l2.3 2.1zm-13.6-12.5l2.6 2.3v1.5l-2.6-2.3zM195.2 76l3.1 2.9v1.3l-3.1-2.9zm-7.6-6.9l3.5 3.2v1.4l-3.5-3.2zm6.1 6.9l-1.1-.9-.2-1.6 1.5 1.3zm-22.1-21.4v1.5l6 5.3v-1.5c0 .1-6-5.3-6-5.3zm15.3 13.9c-.1.4-.1.9-.3 1.2l-.1-.1-8.3-7.4v-1.5l8.7 7.8zm6.3 9.6l-.1-.1-.2-1.5.5.5zm2 .4l3.1 2.8v1.3l-3.1-2.7zM178.3 65v-1.5l7.8 7c-.5.5-1.2.3-1.9-.3l-5.9-5.2m9.3 6.8l3.5 3.1v1.3l-3.5-3zm-10-8.9v1.5l-6-5.2v-1.6l6 5.3z"></path><path d="M173.7 196.3c-6.1-.4-12.3-6.5-17.3-17.8l-.1-.2-14.5-36-15.8 29.1c-2.2 4.1-4.6 7.5-7.2 10.2-6.6 6.9-14.8 10.4-24 9.9-13.8-.8-28.3-10.8-40.2-29.2-13-20-20.5-46.1-20.2-71.9.3-24.6 7.8-43.8 20.3-53.6 11.5-9 25.4-8.5 38.7.1 12 7.8 22.4 21.3 29.9 37.9l.3.7 18.3 47.2 13.8-23.9c3.2-5.6 7.1-8.6 11.1-8.7 2.5-.1 5 .8 7.5 2.7 5.5 4.1 10.4 12.6 13.8 23.6 3.3 10.6 5.1 22.8 5.2 34.6.1 12.4-1.7 23.7-5.1 32.1-3.6 8.7-8.7 13.6-14.5 13.2zm-13.2-25.6c3.8 8.8 8.5 13.9 13.3 14.5 4.6.6 8.6-3 11.6-9.9 2.8-6.6 4.3-15.7 4.2-25.7-.1-19.7-6.6-40.1-15.4-46-2-1.3-3.9-1.9-5.9-1.7-3.1.3-6 2.8-8.4 7.3L146.3 134l14.2 36.7zM94.8 54.1c-.4-.2-.7-.4-1.1-.7-10.3-6-20.8-5.5-29.4 2-9.1 8-14.5 22.7-14.7 41.1-.2 19.3 5.1 38.9 14.6 54.4 8.9 14.5 19.8 22.9 30.6 24.2 7.2.9 13.9-1.4 19.2-6.6 2.1-2 4.1-4.7 6-7.9l17.2-29.8L117.6 82c-5.9-12.4-13.8-22.3-22.8-27.9z" fill="#d1f0f7"></path><path d="M132.2 94.4c0 7-3.1 11.1-6.9 9.3-4-1.9-7.4-9.6-7.4-17s3.4-11.4 7.4-9c3.8 2.3 6.9 9.8 6.9 16.7z" fill="#1d3458"></path><path d="M160.9 110c0 6-2.3 9.8-5.1 8.4-3-1.4-5.4-7.8-5.4-14.1s2.5-10 5.4-8.2c2.8 1.7 5.1 7.9 5.1 13.9z" fill="#00b6cb"></path><path d="M160.9 169.5c0 6-2.3 10.5-5.1 10.1-3-.4-5.4-5.9-5.4-12.3 0-6.3 2.5-10.8 5.4-10 2.8.7 5.1 6.2 5.1 12.2z" fill="#1d3458"></path><path d="M132.2 163.5c0 7-3.1 12.1-6.9 11.6-4-.6-7.4-7.1-7.4-14.6 0-7.4 3.4-12.6 7.4-11.5 3.8 1.1 6.9 7.5 6.9 14.5z" fill="#188291"></path><path fill="#1d3458" d="M207.5 59.4h1.8v190.3h-1.8z"></path><path fill="#25467a" d="M156.9-.1h-2.5l53 59.4h1.9z"></path><path fill="#a8c0f3" d="M15.5 314.4h-4.6l196.6-64.7h1.8z"></path><path d="M102.4 224.4l-40.2 3c-.8.1-1.4-.8-1.4-2 0-1.1.6-2.1 1.4-2.1l40.2-2.4c.5 0 1 .7 1 1.7s-.5 1.7-1 1.8z" fill="#1d3458"></path><path d="M99 239.3l-32.4 4.4c-.5.1-.9-.5-.9-1.2s.4-1.4.9-1.5l32.4-4.1c.4 0 .7.4.7 1.1 0 .7-.3 1.3-.7 1.3zm-3.4 9.4L71 252.9c-.5.1-.9-.4-.9-1.2s.4-1.4.9-1.5l24.6-4c.4-.1.7.4.7 1.1 0 .7-.3 1.3-.7 1.4zm1.9 8.5l-28.8 6.1c-.5.1-.9-.4-.9-1.2s.4-1.4.9-1.5l28.8-5.8c.4-.1.7.4.7 1.1s-.4 1.2-.7 1.3z" fill="#d1f0f7"></path><path d="M152.8 220.5l-24 1.8c-.4 0-.8-.6-.8-1.5s.4-1.6.8-1.6l24-1.5c.3 0 .6.6.6 1.3 0 .9-.3 1.5-.6 1.5z" fill="#00b6cb"></path><path d="M150.7 232.2l-19.4 2.7c-.3 0-.5-.4-.5-1s.2-1.1.5-1.1l19.4-2.5c.2 0 .4.4.4.9s-.1 1-.4 1zm-2.1 7.3l-14.7 2.6c-.3 0-.5-.4-.5-.9s.2-1.1.5-1.1l14.7-2.4c.2 0 .4.4.4.9 0 .4-.1.8-.4.9zm1.2 6.7l-17.2 3.6c-.3.1-.5-.4-.5-.9 0-.6.2-1.1.5-1.1l17.2-3.5c.2 0 .4.3.4.8 0 .6-.2 1-.4 1.1z" fill="#d1f0f7"></path><g><path d="M185.5 218.1l-16 1.2c-.3 0-.5-.5-.5-1.2s.2-1.3.5-1.3l16-1c.2 0 .4.5.4 1.1s-.2 1.1-.4 1.2z" fill="#188291"></path><path d="M184.1 227.7l-12.9 1.8c-.2 0-.3-.3-.3-.8s.1-.8.3-.9l12.9-1.6c.2 0 .3.3.3.7 0 .4-.1.7-.3.8zm-1.4 5.9l-9.8 1.7c-.2 0-.3-.3-.3-.8s.1-.8.3-.9l9.8-1.6c.2 0 .3.3.3.7 0 .5-.2.8-.3.9zm.8 5.5l-11.5 2.4c-.2 0-.3-.3-.3-.8s.1-.9.3-.9l11.5-2.3c.2 0 .3.3.3.7-.1.5-.2.9-.3.9z" fill="#d1f0f7"></path></g></g><g clip-path="url(#b)"><defs><path id="f" d="M228.4 327.1c.6-9.6 1.1-19.1.6-27.6-.5-8.5-2.4-16.3-6-20.1-4.1-4.3-10.4-3.2-17 .3-4.9 2.6-10.2 6.4-15.9 8.7-6.2 2.5-13.1 2.9-17.8-2.1-7.1-7.5-7.1-23.8-13.1-34.6-10.3-18.4-37.6-20.1-64.7-32.5-7.2-3.3-14.5-7.5-20.1-13.6-8-8.6-11.4-19.7-12.6-30.6-3.8-34.5 12.7-65-3.9-103.5-9-20.7-30.6-47.4-60.4-65.7V579l230.9-251.9z"></path></defs><clipPath id="g"><use xlink:href="#f" overflow="visible"></use></clipPath><g clip-path="url(#g)"><path fill="#1f57a4" d="M-1.1 508.1L228.7 304V-1.9L-1.1-437.6z"></path><path fill="#25467a" d="M-1.1 335.2l214.8-81.5V56.4l-214.8-258z"></path><path fill="#2d74da" d="M-1.1 318.7l208.6-69V59.4L-1.1-174.7z"></path><path fill="#e1ebf7" d="M198.3 65.5l-3.8-3.8.2-1.1 3.6 3.6zm-10.7-12.1l3.9 3.9.3 1.7-4.2-4.2zm-3.3-3.3c.7.8 1.3 1.9 1.8 3.2l-7.8-7.8V44l6 6.1zm-12.7-12.9l6 6v1.5l-6-5.9zM198.3 68l-4.3-4.2.3-1.2 4 4.1zm-6.1-6l-4.6-4.6V56l4.4 4.4zm-5.5-6.9c.1.6.2 1.1.2 1.6l-8.6-8.5v-1.5l8.4 8.4zm-15.1-15l6 6v1.5l-6-5.9zm22 25.8l.2-1.2 3.3 3.2v1.3zm-1.2-2.5l.3 1.6-3.7-3.6V60zm-5.4-5.3c0 .5 0 1-.1 1.3l-2.3-2.2v-1.4l2.4 2.3zm-13.7-13.4l2.6 2.5v1.5l-2.6-2.4zm6.7 6.5l2.3 2.3V55l-2.3-2.3zm11.1 13.7V66l-2.1-2v-1.4l3.9 3.8.2 1.4.3-1 3.7 3.5v1.4l-1.9-1.8v-1.1l-.2.9-3.7-3.6zm-11.1-11l6.6 6.3c-.1.3-.4.7-.6.8l-6-5.7v-1.4zm-6.7-6.3l2.6 2.4v1.5l-2.6-2.4zM195.2 71l1.9 1.8v1.3l-1.9-1.7zm-4.1-3.8l-2.1-2v1.4l2.1 2zm3.7 3.5l-.2 1.1-2.8-2.6-.3-1.6 3.3 3.1zm-14.8-14l5.9 5.6c.3.7.5 1.4.7 2.1l-6.6-6.2v-1.5zm-4.1-2.3v-1.5l-2.6-2.4V52zm19.3 19.1l1.9 1.8v1.3l-1.9-1.7zm-6.2-5.6l2.1 1.9v1.3l-2.1-1.9zm5.1 6l.2-1.1-2.4-2.2.2 1.6 2 1.7zM180 61v-1.5l2.4 2.2v1.5c-.1-.1-2.4-2.2-2.4-2.2zm6.9 4.9c.1.5.1 1 .1 1.5l-2.4-2.2v-1.4l2.3 2.1zm-13.6-12.5l2.6 2.3v1.5l-2.6-2.3zM195.2 76l3.1 2.9v1.3l-3.1-2.9zm-7.6-6.9l3.5 3.2v1.4l-3.5-3.2zm6.1 6.9l-1.1-.9-.2-1.6 1.5 1.3zm-22.1-21.4v1.5l6 5.3v-1.5c0 .1-6-5.3-6-5.3zm15.3 13.9c-.1.4-.1.9-.3 1.2l-.1-.1-8.3-7.4v-1.5l8.7 7.8zm6.3 9.6l-.1-.1-.2-1.5.5.5zm2 .4l3.1 2.8v1.3l-3.1-2.7zM178.3 65v-1.5l7.8 7c-.5.5-1.2.3-1.9-.3l-5.9-5.2m9.3 6.8l3.5 3.1v1.3l-3.5-3zm-10-8.9v1.5l-6-5.2v-1.6l6 5.3z"></path><path d="M173.7 196.3c-6.1-.4-12.3-6.5-17.3-17.8l-.1-.2-14.5-36-15.8 29.1c-2.2 4.1-4.6 7.5-7.2 10.2-6.6 6.9-14.8 10.4-24 9.9-13.8-.8-28.3-10.8-40.2-29.2-13-20-20.5-46.1-20.2-71.9.3-24.6 7.8-43.8 20.3-53.6 11.5-9 25.4-8.5 38.7.1 12 7.8 22.4 21.3 29.9 37.9l.3.7 18.3 47.2 13.8-23.9c3.2-5.6 7.1-8.6 11.1-8.7 2.5-.1 5 .8 7.5 2.7 5.5 4.1 10.4 12.6 13.8 23.6 3.3 10.6 5.1 22.8 5.2 34.6.1 12.4-1.7 23.7-5.1 32.1-3.6 8.7-8.7 13.6-14.5 13.2zm-13.2-25.6c3.8 8.8 8.5 13.9 13.3 14.5 4.6.6 8.6-3 11.6-9.9 2.8-6.6 4.3-15.7 4.2-25.7-.1-19.7-6.6-40.1-15.4-46-2-1.3-3.9-1.9-5.9-1.7-3.1.3-6 2.8-8.4 7.3L146.3 134l14.2 36.7zM94.8 54.1c-.4-.2-.7-.4-1.1-.7-10.3-6-20.8-5.5-29.4 2-9.1 8-14.5 22.7-14.7 41.1-.2 19.3 5.1 38.9 14.6 54.4 8.9 14.5 19.8 22.9 30.6 24.2 7.2.9 13.9-1.4 19.2-6.6 2.1-2 4.1-4.7 6-7.9l17.2-29.8L117.6 82c-5.9-12.4-13.8-22.3-22.8-27.9z" fill="#a8c0f3"></path><path d="M132.2 94.4c0 7-3.1 11.1-6.9 9.3-4-1.9-7.4-9.6-7.4-17s3.4-11.4 7.4-9c3.8 2.3 6.9 9.8 6.9 16.7z" fill="#1d3458"></path><path d="M160.9 110c0 6-2.3 9.8-5.1 8.4-3-1.4-5.4-7.8-5.4-14.1s2.5-10 5.4-8.2c2.8 1.7 5.1 7.9 5.1 13.9z" fill="#00b6cb"></path><path d="M160.9 169.5c0 6-2.3 10.5-5.1 10.1-3-.4-5.4-5.9-5.4-12.3 0-6.3 2.5-10.8 5.4-10 2.8.7 5.1 6.2 5.1 12.2z" fill="#1d3458"></path><path d="M132.2 163.5c0 7-3.1 12.1-6.9 11.6-4-.6-7.4-7.1-7.4-14.6 0-7.4 3.4-12.6 7.4-11.5 3.8 1.1 6.9 7.5 6.9 14.5z" fill="#188291"></path><path fill="#1d3458" d="M207.5 59.4h1.8v190.3h-1.8z"></path><path fill="#25467a" d="M156.9-.1h-2.5l53 59.4h1.9z"></path><path fill="#a8c0f3" d="M15.5 314.4h-4.6l196.6-64.7h1.8z"></path><path d="M102.4 224.4l-40.2 3c-.8.1-1.4-.8-1.4-2 0-1.1.6-2.1 1.4-2.1l40.2-2.4c.5 0 1 .7 1 1.7s-.5 1.7-1 1.8z" fill="#1d3458"></path><path d="M99 239.3l-32.4 4.4c-.5.1-.9-.5-.9-1.2s.4-1.4.9-1.5l32.4-4.1c.4 0 .7.4.7 1.1 0 .7-.3 1.3-.7 1.3zm-3.4 9.4L71 252.9c-.5.1-.9-.4-.9-1.2s.4-1.4.9-1.5l24.6-4c.4-.1.7.4.7 1.1 0 .7-.3 1.3-.7 1.4zm1.9 8.5l-28.8 6.1c-.5.1-.9-.4-.9-1.2s.4-1.4.9-1.5l28.8-5.8c.4-.1.7.4.7 1.1s-.4 1.2-.7 1.3z" fill="#79a6f6"></path><path d="M152.8 220.5l-24 1.8c-.4 0-.8-.6-.8-1.5s.4-1.6.8-1.6l24-1.5c.3 0 .6.6.6 1.3 0 .9-.3 1.5-.6 1.5z" fill="#00b6cb"></path><path d="M150.7 232.2l-19.4 2.7c-.3 0-.5-.4-.5-1s.2-1.1.5-1.1l19.4-2.5c.2 0 .4.4.4.9s-.1 1-.4 1zm-2.1 7.3l-14.7 2.6c-.3 0-.5-.4-.5-.9s.2-1.1.5-1.1l14.7-2.4c.2 0 .4.4.4.9 0 .4-.1.8-.4.9zm1.2 6.7l-17.2 3.6c-.3.1-.5-.4-.5-.9 0-.6.2-1.1.5-1.1l17.2-3.5c.2 0 .4.3.4.8 0 .6-.2 1-.4 1.1z" fill="#d1f0f7"></path><g><path d="M185.5 218.1l-16 1.2c-.3 0-.5-.5-.5-1.2s.2-1.3.5-1.3l16-1c.2 0 .4.5.4 1.1s-.2 1.1-.4 1.2z" fill="#188291"></path><path d="M184.1 227.7l-12.9 1.8c-.2 0-.3-.3-.3-.8s.1-.8.3-.9l12.9-1.6c.2 0 .3.3.3.7 0 .4-.1.7-.3.8zm-1.4 5.9l-9.8 1.7c-.2 0-.3-.3-.3-.8s.1-.8.3-.9l9.8-1.6c.2 0 .3.3.3.7 0 .5-.2.8-.3.9zm.8 5.5l-11.5 2.4c-.2 0-.3-.3-.3-.8s.1-.9.3-.9l11.5-2.3c.2 0 .3.3.3.7-.1.5-.2.9-.3.9z" fill="#d1f0f7"></path></g></g></g><g clip-path="url(#b)"><path d="M304.8 199.1c-5.7-8.7-7.9-19.7-5.9-30 1-5.1 2.9-9.9 4.2-14.9s2.3-10.2 1.1-15.3c-1.1-5-4.2-9.4-8.2-12.5-3.6-2.9-9.1-5.9-13.8-5.8-5.3 0-10.2-.8-15.4 1.1-4.9 1.7-9.2 5.1-11.6 9.7-1.2 2.2-1.9 4.7-2.8 7.1-1.9 5.3-4.6 10.5-8.8 14.1-.4.4-.9.7-1 1.2-.5 1.5 1.2 2.6 2.2 3.7 2.2 2.4 1.6 6.1.6 9.2-.9 3.1-2.1 6.5-.6 9.4 1.5 3 5.3 4.1 8.6 4.8 3.3.7 7.1 1.4 9 4.3.6.9 1 2 1.4 3 2.4 6.5 5.4 12.7 9 18.5" fill="#c8daf4"></path><path d="M304.8 199.1c-5.7-8.7-7.9-19.7-5.9-30 1-5.1 2.9-9.9 4.2-14.9s2.3-10.2 1.1-15.3c-1.1-5-4.2-9.4-8.2-12.5-3.6-2.9-9.1-5.9-13.8-5.8-5.3 0-10.2-.8-15.4 1.1-4.9 1.7-9.2 5.1-11.6 9.7-1.2 2.2-1.9 4.7-2.8 7.1-1.9 5.3-4.6 10.5-8.8 14.1-.4.4-.9.7-1 1.2-.5 1.5 1.2 2.6 2.2 3.7 2.2 2.4 1.6 6.1.6 9.2-.9 3.1-2.1 6.5-.6 9.4 1.5 3 5.3 4.1 8.6 4.8 3.3.7 7.1 1.4 9 4.3.6.9 1 2 1.4 3 2.4 6.5 5.4 12.7 9 18.5" fill="#fff"></path><path d="M304.8 199.1c-5.7-8.7-7.9-19.7-5.9-30 1-5.1 2.9-9.9 4.2-14.9 1.4-5 2.3-10.2 1.1-15.3-1.1-5-4.2-9.4-8.2-12.5-3.6-2.9-9.1-5.9-13.8-5.8-4.3 0-8.3-.5-12.5.3.2.1.3.2.5.3 2.8 1.4 6.7.9 8.4 3.6 3 4.8-6.4 11.1-3.2 15.8 1.5 2.2 4.7 2.2 7.1 3.4 3.8 1.9 4.8 7 4 11.1-1.4 7.4-9.3 16.3-2.8 30 1.9 4 4.8 7.5 5.8 11.7.5 2 .6 4 .3 5.9l15-3.6z" fill="#c8daf4"></path><path d="M289.7 202.7c.3-2 .2-3.9-.3-5.9-.5-2.2-1.6-4.2-2.7-6.1-.3.1-.5.1-.8.2-6.3 1.6-12.7 4.4-16.9 9.5-.6.7-1.2 1.5-1.4 2.4-.1.5-.1.9-.1 1.4-.1 3 .1 6 .5 9l33.9-8.6-12.2-1.9z" fill="#5392ff"></path><path d="M289.7 202.7l12.3 1.8 6.3-1.6c.2.1.4.3.7.4-1.9-4.2-3.9-8.4-6-12.5-5.1-2-10.9-1.5-16.2-.2 1.1 1.9 2.2 3.9 2.7 6.1.4 2.1.5 4.1.2 6z" fill="#2d74da"></path><path d="M295 179.1c-8.7-3-17.2-11.2-15.7-15.4.3-.9 1-1.7 1.6-2.5 3.4-4.4 3-8.2 1.3-10.3-1.2-1.5-3.3-2.2-5-1.6-1.9.7-2.7 2.4-6.2 7.5-1.1-.5-2.2-1.1-3.3-1.6 3.2-9 3.4-9.2 3.2-9.8-.3-1.1-5.7-5.4-6-6.6-.3-1.5 2.9-9.6 5.3-11.1 2.7-1.8 15.4-3.7 25.5 4.1 3.8 2.9 6.9 7 8 11.7 1.5 6.1-.4 12.6-3.4 18.1-1.4 2.5-3 4.9-4.1 7.5-1.4 3.3.7 3.6.1 7.1l-1.3 2.9z" fill="#00b6cb"></path><path d="M295 179.1c-8.7-3-17.2-11.2-15.7-15.4.3-.9 1-1.7 1.6-2.5 3.4-4.4 3-8.2 1.3-10.3-1.2-1.5-3.3-2.2-5-1.6-1.9.7-2.7 2.4-6.2 7.5-1.1-.5-2.2-1.1-3.3-1.6 3.2-9 3.4-9.2 3.2-9.8-.3-1.1-5.7-5.4-6-6.6-.3-1.5 2.9-9.6 5.3-11.1 2.7-1.8 15.4-3.7 25.5 4.1 3.8 2.9 6.9 7 8 11.7 1.5 6.1-.4 12.6-3.4 18.1-1.4 2.5-3 4.9-4.1 7.5-1.4 3.3.7 3.6.1 7.1l-1.3 2.9z" fill="#00b6cb"></path><path d="M295.9 131.8c-5.5-4.3-11.8-5.6-16.8-5.7.9 4.6-6.7 10.2-3.8 14.5 1.5 2.2 4.7 2.2 7.1 3.4 3.8 1.9 4.8 7 4 11.1-.8 4.2-3.7 8.9-4.9 14.7 2.9 3.6 8.2 7.4 13.5 9.3l1.4-3c.7-3.5-1.5-3.8-.1-7.1 1.1-2.6 2.7-5 4.1-7.5 3-5.5 4.9-12 3.4-18.1-1.1-4.6-4.1-8.7-7.9-11.6z" fill="#164d56"></path><path d="M294.3 132.6c-15-7.8-25.9-6.4-29.5-7.7-1.5-.5-2.9-1.5-3.6-2.9-.6-1.1-.6-2.5-.6-3.7.1-1.4.3-2.8.9-4 .6-1.2 1.8-2.2 3.1-2.4 1.2-.2 2.3.2 3.4.5 6.6 1.9 13.5 2.2 20.3 3.4 6.7 1.2 13.7 3.8 18 9.1.8 1 1.5 2 1.9 3.2 3.4 8.3-5 16.4-13.3 4.1" fill="#00b6cb"></path><path d="M306.3 125c-4.3-5.4-11.2-7.9-18-9.1-6.7-1.2-13.7-1.5-20.3-3.4-.3-.1-.5-.2-.8-.2-1.5 3.1-.3 7.5 2.8 9 2.8 1.4 6.7.9 8.4 3.6.6.9.7 1.9.6 2.9 5.2 1.4 10.3 3.3 15.1 5.8l.7.4c1.3 1.9 2.8 3.8 4.8 4.9 2.1 1.1 4.8 1.2 6.6-.2.7-.6 1.2-1.3 1.6-2.1 1.3-2.5 1.4-5.6.3-8.3-.3-1.3-1-2.3-1.8-3.3z" fill="#164d56"></path><path d="M304.1 133.8c4.4-3.1 11.7 5.3 8.4 17.9-1.7 6.3-5.4 12.1-11.3 22.4-4.2 7.3-8.7 5.8-10.8.3-3.8-9.6-.9-20 3.2-29.5 1.9-4.8 5.1-9.1 10.5-11.1" fill="#164d56"></path><path d="M269.1 151.6c-1.4 4.5-2.3 5.2-4.9 6.7-9.2 5.4-10.9 7-12.3 12-1.1 3.9-3-3.5-3.8-6-1-3-3.1-2.7-3.3-1.8-5.4 25.1 1.9 15.8 13 19.8 4.9 1.7 5.4.8 6.8-9.2.2-1.6.4-3.1.7-4.7 1.3-5.9 7.5-10.7 9-16.5" fill="#00b6cb"></path><path d="M315.6 589c3.4 14.7 5.5 29.7 6.3 44.8 0 .1 13.5 0 14.4 0 3.1 0 6.6.5 9.7 0 5.1-.8 3.8-4.5 3.8-9.1.3-23.8-.2-47.7-3.6-71.2-2.7-18.6-7.2-36.9-9.7-55.6-2.1-15.8-2.7-31.7-3.9-47.6-1.5-20.3-5.4-40.4-.2-60.4 2.9-11.2-2.5-23.1-3.6-34.6-2.3-23.9 1.9-47.9 3.3-71.9.9-17.1.3-34.7-5.1-51.1-4.7-14.1-11.5-30.8-27.3-34.7-8.6-2.2-18.2-.1-25.2 5.4-7.5 5.9-11.6 15-15.1 23.8-7.4 18.5-13.6 38.1-12.5 58 .7 12.6 4.2 24.8 6 37.2 2.3 16.1 1.8 32.4 3.4 48.6 2.7 27.1 12.6 51.5 19.5 77.6 7 26.4 14.9 52.8 22.5 79.1l10.5 36.3c2.4 8.3 4.8 16.8 6.8 25.4z" fill="#1f57a4"></path><path d="M330.4 365.1c-.7-3.3-1.4-6.6-1.7-9.9-2.3-23.9 1.9-47.9 3.3-71.9.9-17.1.3-34.7-5.1-51.1-4.7-14.1-11.5-30.8-27.3-34.7-3.3-.8-6.7-1-10.1-.7 4 16.1-20.3 30.6-14.7 52.7 1.6 6.2 5.7 11.7 6.7 18.1 1.3 8.7-3.3 16.9-6.6 25.1-13 32.3-1.2 65.7 3.9 70.2 2.1 1.9 5.2 2.2 8.1 2.4 14.4 1.1 29 1 43.5-.2z" fill="#1d3458"></path><path d="M304.3 416.1c9.8-28.5 19.5-57.1 26.5-86.4 4-16.7 3.7-14.8-27.3-102.9-4.4-10.5-16.2-15.6-26.3-11.4-10.1 4.3-14.7 16.2-10.3 26.8 36.6 86.3 35.2 77.7 32.7 91.9-4.6 25.7-9.6 51.4-15 77l19.7 5z" fill="#1f57a4"></path><path d="M286.6 410.4c-4.9 9.3-5.2 9.7-5.5 11.2-1.7 6.4 3.3 19.2 5 23.7.9 2.3 1.1 2.1 4.8 3.9 1.1.6 2.5 1.1 3.6.4 2.7-1.7-1-5.6 4-16.7 6.5-14.3 3.3-13.8 4.2-23 .9-8.7-5.8-12.7-9.9-9.7-1.5 1.1-3.4 4.8-6.2 10.2z" fill="#fff"></path><path d="M303.5 226.8c-3.1-7.5-10-12.2-17.3-12.8l-.3.3c-9.8 8.6-20.9 15.8-7.6 28.5 3.5 3.3 7.5 6.3 9.6 10.5 3.4 7 .9 15.4 2.4 23 2.3 11.8 15.3 23.3 19.9 37.3 3.7 11 2.5 23.7 8.8 33.3.7 1 1.5 2 2.5 2.6 1.2.6 2.5.6 3.8.6 1.9-6.8 3.7-13.6 5.3-20.4 4.2-16.6 3.9-14.7-27.1-102.9z" fill="#1d3458"></path></g></svg>
