<?xml version="1.0" encoding="UTF-8" standalone="no"?>
<!-- Created with Inkscape (http://www.inkscape.org/) -->

<svg
   xmlns:dc="http://purl.org/dc/elements/1.1/"
   xmlns:cc="http://creativecommons.org/ns#"
   xmlns:rdf="http://www.w3.org/1999/02/22-rdf-syntax-ns#"
   xmlns:svg="http://www.w3.org/2000/svg"
   xmlns="http://www.w3.org/2000/svg"
   xmlns:sodipodi="http://sodipodi.sourceforge.net/DTD/sodipodi-0.dtd"
   xmlns:inkscape="http://www.inkscape.org/namespaces/inkscape"
   width="8666.542"
   height="3420.1077"
   viewBox="0 0 2293.0225 904.90351"
   version="1.1"
   id="svg850"
   inkscape:version="0.92.4 (unknown)"
   sodipodi:docname="E-Summit-2-icon.svg">
  <defs
     id="defs844" />
  <sodipodi:namedview
     id="base"
     pagecolor="#ffffff"
     bordercolor="#666666"
     borderopacity="1.0"
     inkscape:pageopacity="0.0"
     inkscape:pageshadow="2"
     inkscape:zoom="0.049725425"
     inkscape:cx="-3656.7731"
     inkscape:cy="231.19441"
     inkscape:document-units="px"
     inkscape:current-layer="layer1"
     showgrid="false"
     showborder="false"
     units="px"
     inkscape:window-width="1920"
     inkscape:window-height="1018"
     inkscape:window-x="0"
     inkscape:window-y="30"
     inkscape:window-maximized="1"
     fit-margin-top="0"
     fit-margin-left="0"
     fit-margin-right="0"
     fit-margin-bottom="0" />
  <metadata
     id="metadata847">
    <rdf:RDF>
      <cc:Work
         rdf:about="">
        <dc:format>image/svg+xml</dc:format>
        <dc:type
           rdf:resource="http://purl.org/dc/dcmitype/StillImage" />
        <dc:title />
      </cc:Work>
    </rdf:RDF>
  </metadata>
  <g
     inkscape:label="Layer 1"
     inkscape:groupmode="layer"
     id="layer1"
     transform="translate(2298.7995,1283.9495)">
    <flowRoot
       xml:space="preserve"
       id="flowRoot953"
       style="font-style:normal;font-variant:normal;font-weight:normal;font-stretch:normal;font-size:40px;line-height:1.25;font-family:Rustico;-inkscape-font-specification:Rustico;letter-spacing:45.32000351px;word-spacing:0px;fill:#000000;fill-opacity:1;stroke:none"
       inkscape:export-xdpi="96"
       inkscape:export-ydpi="96"><flowRegion
         id="flowRegion955"><rect
           id="rect957"
           width="3137.228"
           height="603.31311"
           x="-8567.0459"
           y="-164.54828" /></flowRegion><flowPara
         id="flowPara959" /></flowRoot>    <path
       style="color:#000000;font-style:normal;font-variant:normal;font-weight:normal;font-stretch:normal;font-size:medium;line-height:normal;font-family:sans-serif;font-variant-ligatures:normal;font-variant-position:normal;font-variant-caps:normal;font-variant-numeric:normal;font-variant-alternates:normal;font-feature-settings:normal;text-indent:0;text-align:start;text-decoration:none;text-decoration-line:none;text-decoration-style:solid;text-decoration-color:#000000;letter-spacing:normal;word-spacing:normal;text-transform:none;writing-mode:lr-tb;direction:ltr;text-orientation:mixed;dominant-baseline:auto;baseline-shift:baseline;text-anchor:start;white-space:normal;shape-padding:0;clip-rule:nonzero;display:inline;overflow:visible;visibility:visible;opacity:0.57999998;isolation:auto;mix-blend-mode:normal;color-interpolation:sRGB;color-interpolation-filters:linearRGB;solid-color:#000000;solid-opacity:1;vector-effect:none;fill:#f2f2f2;fill-opacity:1;fill-rule:nonzero;stroke:none;stroke-width:13.22916698;stroke-linecap:round;stroke-linejoin:miter;stroke-miterlimit:4;stroke-dasharray:none;stroke-dashoffset:0;stroke-opacity:1;color-rendering:auto;image-rendering:auto;shape-rendering:auto;text-rendering:auto;enable-background:accumulate"
       d="m -1846.3466,-1283.9495 c -119.9902,0 -235.0865,47.6747 -319.9324,132.5209 -84.8458,84.8463 -132.5205,199.94124 -132.5205,319.93132 0,115.39181 44.1034,226.41253 123.2254,310.34739 a 19.519407,19.519407 0 0 0 7.1863,5.66158 19.519409,19.519409 0 0 0 0.3629,0.17536 19.519407,19.519407 0 0 0 0.7517,0.29733 19.519409,19.519409 0 0 0 25.359,-10.89623 l 155.0677,-274.32548 c 5.1941,-9.18857 8.8916,-9.72976 9.7328,-9.72976 0.8414,0 4.5374,0.54119 9.7313,9.72976 l 55.6324,98.41678 -103.6133,181.62061 c -14.4966,25.4108 -19.2727,56.94391 -16.3824,87.14088 a 19.519409,19.519409 0 0 0 7.5645,16.89936 19.519407,19.519407 0 0 0 6.8784,3.56499 c 54.2678,22.14686 112.3282,33.54866 170.9562,33.5487 25.2716,-4e-5 50.4961,-2.12407 75.4105,-6.33556 a 19.519407,19.519407 0 0 0 8.1242,-2.03867 19.519409,19.519409 0 0 0 11.1432,-13.9321 c 14.2402,-32.78059 13.026,-73.55274 -4.518,-104.58918 l -110.6732,-195.78907 117.945,-206.74324 c 7.4791,-13.10996 14.175,-15.69326 18.1131,-15.69326 3.9381,0 10.634,2.5833 18.1131,15.69326 l 196.1749,343.86862 a 19.519409,19.519409 0 0 0 33.384,2.8956 c 57.944,-78.0105 89.2344,-172.6118 89.2344,-269.78767 0,-119.99008 -47.6747,-235.08502 -132.5205,-319.93132 -84.8458,-84.8462 -199.9407,-132.5209 -319.9307,-132.5209 z m 0,39.0349 c 109.6523,0 214.7928,43.5517 292.3288,121.0881 77.5359,77.5363 121.0875,182.67684 121.0875,292.32922 0,78.71337 -22.4679,155.56487 -64.4503,221.65732 l -181.4026,-317.9775 c -11.9474,-20.9422 -30.604,-35.38454 -52.0186,-35.38454 -21.4145,0 -40.0712,14.44234 -52.0186,35.38454 l -106.4067,186.51828 -44.1736,-78.14608 c -9.6103,-17.00149 -25.2337,-29.55674 -43.713,-29.55674 -18.4792,0 -34.1041,12.55525 -43.7145,29.55674 l -142.9196,252.83494 c -61.8563,-74.11274 -96.0168,-167.79256 -96.0168,-264.88696 0,-109.65238 43.5516,-214.79292 121.0876,-292.32922 77.5359,-77.5364 182.678,-121.0881 292.3304,-121.0881 z m -43.0361,582.66264 99.2143,175.51837 c 8.5835,15.18485 10.3177,44.19715 4.5836,64.15601 -20.1113,2.98845 -40.4195,4.49665 -60.7618,4.49665 -50.2767,0 -100.0957,-9.1771 -147.0229,-27.03321 -0.5096,-20.6414 3.9249,-41.74389 11.9117,-55.74368 z"
       id="path920"
       inkscape:connector-curvature="0"
       inkscape:export-xdpi="96"
       inkscape:export-ydpi="96" />
    <g
       aria-label="e-summit"
       transform="matrix(1.265312,0,0,1.265312,9965.072,344.55742)"
       style="font-style:normal;font-variant:normal;font-weight:normal;font-stretch:normal;font-size:40px;line-height:1.25;font-family:Rustico;-inkscape-font-specification:Rustico;letter-spacing:45.32000351px;word-spacing:0px;opacity:0.53299997;fill:#f9f9f9;fill-opacity:1;stroke:none;stroke-width:0.20910521"
       id="flowRoot945">
      <path
         d="m -8709.7824,-930.08745 q -12.096,0 -21.888,-4.032 -9.792,-4.224 -16.704,-11.328 -6.912,-7.104 -10.752,-16.512 -3.648,-9.408 -3.648,-19.776 0,-10.752 3.648,-20.15995 3.648,-9.6 10.56,-16.704 6.912,-7.296 16.704,-11.52 9.984,-4.224 22.272,-4.224 12.288,0 21.888,4.224 9.792,4.224 16.512,11.328 6.912,7.104 10.368,16.512 3.648,9.40795 3.648,19.58395 0,2.496 -0.192,4.8 0,2.304 -0.384,3.84 h -77.76 q 0.576,5.952 2.88,10.56 2.304,4.608 5.952,7.872 3.648,3.264 8.256,4.992 4.608,1.728 9.6,1.728 7.68,0 14.4,-3.648 6.912,-3.84 9.408,-9.984 l 22.08,6.144 q -5.568,11.52 -17.856,19.008 -12.096,7.296 -28.992,7.296 z m 26.112,-60.672 q -0.96,-11.32795 -8.448,-18.04795 -7.296,-6.912 -17.856,-6.912 -5.184,0 -9.792,1.92 -4.416,1.728 -7.872,4.992 -3.456,3.264 -5.76,7.872 -2.112,4.60795 -2.496,10.17595 z"
         style="font-style:normal;font-variant:normal;font-weight:bold;font-stretch:normal;font-size:192px;font-family:Raleway;-inkscape-font-specification:'Raleway Bold';letter-spacing:0px;fill:#f9f9f9;stroke-width:0.04372499"
         id="path872" />
      <path
         d="m -8641.8894,-973.09545 v -23.232 h 58.176 v 23.232 z"
         style="font-style:normal;font-variant:normal;font-weight:bold;font-stretch:normal;font-size:192px;font-family:Raleway;-inkscape-font-specification:'Raleway Bold';letter-spacing:0px;fill:#f9f9f9;stroke-width:0.04372499"
         id="path874" />
      <path
         d="m -8523.0474,-930.08745 q -12.672,0 -24.768,-4.032 -12.096,-4.032 -20.736,-11.52 l 9.6,-16.128 q 9.216,6.528 17.856,9.984 8.832,3.264 17.472,3.264 7.68,0 12.096,-2.88 4.416,-2.88 4.416,-8.256 0,-5.376 -5.184,-7.872 -5.184,-2.496 -16.896,-5.76 -9.792,-2.688 -16.704,-5.184 -6.912,-2.496 -11.136,-5.568 -4.224,-3.264 -6.144,-7.296 -1.92,-4.224 -1.92,-9.98395 0,-7.68 2.88,-13.824 3.072,-6.144 8.448,-10.368 5.376,-4.416 12.48,-6.72 7.296,-2.304 15.744,-2.304 11.328,0 21.12,3.264 9.984,3.264 18.24,10.56 l -10.368,15.552 q -7.68,-5.76 -14.976,-8.448 -7.104,-2.688 -14.208,-2.688 -6.528,0 -10.944,2.688 -4.416,2.688 -4.416,8.64 0,2.688 0.96,4.416 1.152,1.72795 3.456,3.07195 2.304,1.344 5.952,2.688 3.84,1.152 9.408,2.496 10.368,2.688 17.664,5.376 7.488,2.688 12.096,6.144 4.8,3.456 6.912,8.064 2.304,4.416 2.304,10.752 0,14.784 -10.944,23.424 -10.944,8.448 -29.76,8.448 z"
         style="font-style:normal;font-variant:normal;font-weight:bold;font-stretch:normal;font-size:192px;font-family:Raleway;-inkscape-font-specification:'Raleway Bold';letter-spacing:0px;fill:#f9f9f9;stroke-width:0.04372499"
         id="path876" />
      <path
         d="m -8435.0934,-930.08745 q -15.552,0 -23.616,-9.984 -8.064,-9.984 -8.064,-29.568 v -62.97595 h 25.728 v 57.40795 q 0,23.232 16.704,23.232 7.488,0 14.4,-4.416 7.104,-4.608 11.52,-13.824 v -62.39995 h 25.728 v 71.03995 q 0,4.032 1.344,5.76 1.536,1.728 4.8,1.92 v 21.888 q -3.84,0.768 -6.528,0.96 -2.496,0.192 -4.608,0.192 -6.912,0 -11.328,-3.072 -4.224,-3.264 -4.992,-8.832 l -0.576,-8.064 q -6.72,10.368 -17.28,15.552 -10.56,5.184 -23.232,5.184 z"
         style="font-style:normal;font-variant:normal;font-weight:bold;font-stretch:normal;font-size:192px;font-family:Raleway;-inkscape-font-specification:'Raleway Bold';letter-spacing:0px;fill:#f9f9f9;stroke-width:0.04372499"
         id="path878" />
      <path
         d="m -8191.0254,-932.00745 h -25.728 v -56.448 q 0,-12.09595 -4.224,-17.66395 -4.032,-5.568 -11.328,-5.568 -7.68,0 -14.4,5.952 -6.72,5.75995 -9.6,15.16795 v 58.56 h -25.728 v -56.448 q 0,-12.09595 -4.224,-17.66395 -4.032,-5.568 -11.328,-5.568 -7.488,0 -14.4,5.76 -6.72,5.76 -9.6,15.16795 v 58.752 h -25.728 v -100.60795 h 23.232 v 18.624 q 5.568,-9.792 15.168,-14.976 9.792,-5.376 22.272,-5.376 12.672,0 19.584,6.144 6.912,6.144 8.832,15.168 6.144,-10.368 15.552,-15.744 9.408,-5.568 21.504,-5.568 9.216,0 15.168,3.456 5.952,3.456 9.216,9.024 3.264,5.568 4.416,12.672 1.344,7.104 1.344,14.39995 z"
         style="font-style:normal;font-variant:normal;font-weight:bold;font-stretch:normal;font-size:192px;font-family:Raleway;-inkscape-font-specification:'Raleway Bold';letter-spacing:0px;fill:#f9f9f9;stroke-width:0.04372499"
         id="path880" />
      <path
         d="m -8012.1504,-932.00745 h -25.728 v -56.448 q 0,-12.09595 -4.224,-17.66395 -4.032,-5.568 -11.328,-5.568 -7.68,0 -14.4,5.952 -6.72,5.75995 -9.6,15.16795 v 58.56 h -25.728 v -56.448 q 0,-12.09595 -4.224,-17.66395 -4.032,-5.568 -11.328,-5.568 -7.488,0 -14.4,5.76 -6.72,5.76 -9.6,15.16795 v 58.752 h -25.728 v -100.60795 h 23.232 v 18.624 q 5.568,-9.792 15.168,-14.976 9.792,-5.376 22.272,-5.376 12.672,0 19.584,6.144 6.912,6.144 8.832,15.168 6.144,-10.368 15.552,-15.744 9.408,-5.568 21.504,-5.568 9.216,0 15.168,3.456 5.952,3.456 9.216,9.024 3.264,5.568 4.416,12.672 1.344,7.104 1.344,14.39995 z"
         style="font-style:normal;font-variant:normal;font-weight:bold;font-stretch:normal;font-size:192px;font-family:Raleway;-inkscape-font-specification:'Raleway Bold';letter-spacing:0px;fill:#f9f9f9;stroke-width:0.04372499"
         id="path882" />
      <path
         d="m -7989.5634,-932.00745 v -100.60795 h 25.728 v 100.60795 z m 0,-114.62395 v -25.536 h 25.728 v 25.536 z"
         style="font-style:normal;font-variant:normal;font-weight:bold;font-stretch:normal;font-size:192px;font-family:Raleway;-inkscape-font-specification:'Raleway Bold';letter-spacing:0px;fill:#f9f9f9;stroke-width:0.04372499"
         id="path884" />
      <path
         d="m -7880.1504,-937.19145 q -5.184,2.304 -12.672,4.608 -7.488,2.304 -15.744,2.304 -5.376,0 -10.176,-1.344 -4.608,-1.344 -8.256,-4.224 -3.456,-3.072 -5.568,-7.68 -2.112,-4.8 -2.112,-11.52 v -57.79195 h -13.248 v -19.776 h 13.248 v -32.64 h 25.728 v 32.64 h 21.12 v 19.776 h -21.12 v 49.15195 q 0,5.376 2.688,7.68 2.88,2.112 6.912,2.112 4.032,0 7.872,-1.344 3.84,-1.344 6.144,-2.304 z"
         style="font-style:normal;font-variant:normal;font-weight:bold;font-stretch:normal;font-size:192px;font-family:Raleway;-inkscape-font-specification:'Raleway Bold';letter-spacing:0px;fill:#f9f9f9;stroke-width:0.04372499"
         id="path886" />
    </g>
    <g
       aria-label="2020"
       transform="matrix(0.56126761,0,0,0.56126761,3958.3836,-779.92558)"
       style="font-style:normal;font-variant:normal;font-weight:normal;font-stretch:normal;font-size:400px;line-height:1.25;font-family:Rustico;-inkscape-font-specification:Rustico;letter-spacing:0.02px;word-spacing:0px;fill:#ff0000;fill-opacity:0.90980392;stroke:none;stroke-width:0.47140318"
       id="flowRoot961">
      <path
         d="m -8511.6242,225.83507 q 0,-18 2.8,-32.4 2.8,-14.8 9.6,-27.2 7.2,-12.4 19.2,-23.2 12.4,-10.8 31.2,-21.2 16.4,-8.8 28.8,-15.2 12.8,-6.799998 21.2,-12.399998 8.4,-5.6 12.8,-11.2 4.4,-6 4.4,-13.6 0,-12 -9.6,-20.4 -9.6,-8.8 -27.6,-8.8 -9.6,0 -17.6,2.8 -8,2.4 -15.2,6.8 -6.8,4.4 -12.8,10 -5.6,5.2 -10.4,11.2 l -34.4,-39.6 q 5.2,-5.6 14.8,-12 9.6,-6.8 22.4,-12.3999996 13.2,-6 28.8,-9.6 16,-4 34,-4 20.4,0 36.4,5.2 16,4.8 26.8,13.9999996 11.2,8.8 16.8,21.6 6,12.4 6,27.2 0,14 -5.2,24.8 -5.2,10.8 -13.2,19.199998 -8,8.4 -17.6,14.8 -9.2,6 -18,10.8 -7.2,4 -16.4,9.2 -9.2,5.2 -18.4,11.6 -8.8,6 -16.4,12.8 -7.6,6.4 -11.6,12.8 h 121.2 v 48.4 z"
         style="font-style:normal;font-variant:normal;font-weight:bold;font-stretch:normal;font-size:400px;font-family:Raleway;-inkscape-font-specification:'Raleway Bold';letter-spacing:0.02px;fill:#ff0000;fill-opacity:0.90980392;stroke-width:0.47140318"
         id="path863" />
      <path
         d="m -8075.023,108.63507 q 0,26.4 -8,48.8 -7.6,22 -21.6,38.4 -13.6,16 -32.8,25.2 -18.8,8.8 -40.8,8.8 -22.4,0 -41.2,-8.8 -18.8,-9.2 -32.8,-25.2 -13.6,-16.4 -21.6,-38.4 -7.6,-22.4 -7.6,-48.8 0,-26.399998 7.6,-48.399998 8,-22.4 21.6,-38.4 14,-16.3999996 32.8,-25.5999996 18.8,-9.2000004 41.2,-9.2000004 22,0 40.8,9.2000004 19.2,9.2 32.8,25.5999996 14,16 21.6,38.4 8,22 8,48.399998 z m -54,0 q 0,-15.999998 -3.6,-29.199998 -3.6,-13.6 -10.4,-23.2 -6.4,-9.6 -15.6,-14.8 -8.8,-5.2 -19.6,-5.2 -11.2,0 -20.4,5.2 -8.8,5.2 -15.6,14.8 -6.4,9.6 -10,23.2 -3.6,13.2 -3.6,29.199998 0,16 3.6,29.2 3.6,13.2 10,22.8 6.8,9.6 15.6,14.8 9.2,5.2 20.4,5.2 10.8,0 19.6,-5.2 9.2,-5.2 15.6,-14.8 6.8,-9.6 10.4,-22.8 3.6,-13.2 3.6,-29.2 z"
         style="font-style:normal;font-variant:normal;font-weight:bold;font-stretch:normal;font-size:400px;font-family:Raleway;-inkscape-font-specification:'Raleway Bold';letter-spacing:0.02px;fill:#ff0000;fill-opacity:0.90980392;stroke-width:0.47140318"
         id="path865" />
      <path
         d="m -8040.4905,225.83507 q 0,-18 2.8,-32.4 2.8,-14.8 9.6,-27.2 7.2,-12.4 19.2,-23.2 12.4,-10.8 31.2,-21.2 16.4,-8.8 28.8,-15.2 12.8,-6.799998 21.2,-12.399998 8.4,-5.6 12.8,-11.2 4.4,-6 4.4,-13.6 0,-12 -9.6,-20.4 -9.6,-8.8 -27.6,-8.8 -9.6,0 -17.6,2.8 -8,2.4 -15.2,6.8 -6.8,4.4 -12.8,10 -5.6,5.2 -10.4,11.2 l -34.4,-39.6 q 5.2,-5.6 14.8,-12 9.6,-6.8 22.4,-12.3999996 13.2,-6 28.8,-9.6 16,-4 34,-4 20.4,0 36.4,5.2 16,4.8 26.8,13.9999996 11.2,8.8 16.8,21.6 6,12.4 6,27.2 0,14 -5.2,24.8 -5.2,10.8 -13.2,19.199998 -8,8.4 -17.6,14.8 -9.2,6 -18,10.8 -7.2,4 -16.4,9.2 -9.2,5.2 -18.4,11.6 -8.8,6 -16.4,12.8 -7.6,6.4 -11.6,12.8 h 121.2 v 48.4 z"
         style="font-style:normal;font-variant:normal;font-weight:bold;font-stretch:normal;font-size:400px;font-family:Raleway;-inkscape-font-specification:'Raleway Bold';letter-spacing:0.02px;fill:#ff0000;fill-opacity:0.90980392;stroke-width:0.47140318"
         id="path867" />
      <path
         d="m -7603.8892,108.63507 q 0,26.4 -8,48.8 -7.6,22 -21.6,38.4 -13.6,16 -32.8,25.2 -18.8,8.8 -40.8,8.8 -22.4,0 -41.2,-8.8 -18.8,-9.2 -32.8,-25.2 -13.6,-16.4 -21.6,-38.4 -7.6,-22.4 -7.6,-48.8 0,-26.399998 7.6,-48.399998 8,-22.4 21.6,-38.4 14,-16.3999996 32.8,-25.5999996 18.8,-9.2000004 41.2,-9.2000004 22,0 40.8,9.2000004 19.2,9.2 32.8,25.5999996 14,16 21.6,38.4 8,22 8,48.399998 z m -54,0 q 0,-15.999998 -3.6,-29.199998 -3.6,-13.6 -10.4,-23.2 -6.4,-9.6 -15.6,-14.8 -8.8,-5.2 -19.6,-5.2 -11.2,0 -20.4,5.2 -8.8,5.2 -15.6,14.8 -6.4,9.6 -10,23.2 -3.6,13.2 -3.6,29.199998 0,16 3.6,29.2 3.6,13.2 10,22.8 6.8,9.6 15.6,14.8 9.2,5.2 20.4,5.2 10.8,0 19.6,-5.2 9.2,-5.2 15.6,-14.8 6.8,-9.6 10.4,-22.8 3.6,-13.2 3.6,-29.2 z"
         style="font-style:normal;font-variant:normal;font-weight:bold;font-stretch:normal;font-size:400px;font-family:Raleway;-inkscape-font-specification:'Raleway Bold';letter-spacing:0.02px;fill:#ff0000;fill-opacity:0.90980392;stroke-width:0.47140318"
         id="path869" />
    </g>
  </g>
</svg>
