<svg width="489" height="311" viewBox="0 0 489 311" fill="none" xmlns="http://www.w3.org/2000/svg">
<g opacity="0.53" filter="url(#filter0_d_1_1246)">
<line y1="-17" x2="347.712" y2="-17" transform="matrix(-1 0 0 1 420 164)" stroke="#99805F" stroke-width="34"/>
<ellipse cx="151.402" cy="151.5" rx="151.402" ry="151.5" transform="matrix(-1 0 0 1 306.804 0)" fill="#569BFF"/>
<ellipse cx="127.665" cy="127.748" rx="127.665" ry="127.748" transform="matrix(-1 0 0 1 283.709 23.1102)" fill="#8CBBFF"/>
<ellipse cx="127.665" cy="127.748" rx="127.665" ry="127.748" transform="matrix(-1 0 0 1 283.709 23.1102)" fill="#8CBBFF"/>
<path d="M51.4735 151.5C51.4735 208.935 98.004 255.496 155.402 255.496C212.8 255.496 259.331 208.935 259.331 151.5C259.331 94.0648 212.8 47.5043 155.402 47.5043C98.004 47.5043 51.4735 94.0648 51.4735 151.5Z" fill="#9FC6FF"/>
</g>
<defs>
<filter id="filter0_d_1_1246" x="0" y="0" width="493" height="311" filterUnits="userSpaceOnUse" color-interpolation-filters="sRGB">
<feFlood flood-opacity="0" result="BackgroundImageFix"/>
<feColorMatrix in="SourceAlpha" type="matrix" values="0 0 0 0 0 0 0 0 0 0 0 0 0 0 0 0 0 0 127 0" result="hardAlpha"/>
<feOffset dy="4"/>
<feGaussianBlur stdDeviation="2"/>
<feComposite in2="hardAlpha" operator="out"/>
<feColorMatrix type="matrix" values="0 0 0 0 0 0 0 0 0 0 0 0 0 0 0 0 0 0 0.25 0"/>
<feBlend mode="normal" in2="BackgroundImageFix" result="effect1_dropShadow_1_1246"/>
<feBlend mode="normal" in="SourceGraphic" in2="effect1_dropShadow_1_1246" result="shape"/>
</filter>
</defs>
</svg>
