<svg width="240" height="244" viewBox="0 0 240 244" fill="none" xmlns="http://www.w3.org/2000/svg">
<g filter="url(#filter0_d_2135_33)">
<path d="M218.636 185.716C208.78 199.782 195.971 211.527 181.105 220.13C166.239 228.733 149.674 233.988 132.567 235.526C115.461 237.064 98.2241 234.849 82.0619 229.036C65.8997 223.222 51.2014 213.951 38.9936 201.869C26.7858 189.786 17.3628 175.185 11.3828 159.083C5.40277 142.982 3.00987 125.769 4.37122 108.647C5.73258 91.5255 10.8154 74.9072 19.2646 59.9532C27.7138 44.9992 39.3257 32.0699 53.2894 22.0685L122 118L218.636 185.716Z" fill="#8CBBFF"/>
</g>
<circle cx="121.5" cy="117.5" r="99.5" fill="#9FC6FF"/>
<defs>
<filter id="filter0_d_2135_33" x="0" y="22.0686" width="222.636" height="221.931" filterUnits="userSpaceOnUse" color-interpolation-filters="sRGB">
<feFlood flood-opacity="0" result="BackgroundImageFix"/>
<feColorMatrix in="SourceAlpha" type="matrix" values="0 0 0 0 0 0 0 0 0 0 0 0 0 0 0 0 0 0 127 0" result="hardAlpha"/>
<feOffset dy="4"/>
<feGaussianBlur stdDeviation="2"/>
<feComposite in2="hardAlpha" operator="out"/>
<feColorMatrix type="matrix" values="0 0 0 0 0 0 0 0 0 0 0 0 0 0 0 0 0 0 0.25 0"/>
<feBlend mode="normal" in2="BackgroundImageFix" result="effect1_dropShadow_2135_33"/>
<feBlend mode="normal" in="SourceGraphic" in2="effect1_dropShadow_2135_33" result="shape"/>
</filter>
</defs>
</svg>
