<svg width="244" height="244" viewBox="0 0 244 244" fill="none" xmlns="http://www.w3.org/2000/svg">
<g filter="url(#filter0_d_1_1279)">
<path d="M240 118C240 138.501 234.659 158.649 224.502 176.458C214.346 194.266 199.725 209.122 182.08 219.56C164.435 229.998 144.375 235.659 123.876 235.985C103.377 236.311 83.1472 231.291 65.1793 221.419C47.2113 211.547 32.1254 197.164 21.408 179.687C10.6905 162.21 4.71139 142.242 4.05964 121.751C3.4079 101.26 8.10605 80.9531 17.6912 62.8305C27.2763 44.7079 41.4177 29.3953 58.722 18.4014L122 118H240Z" fill="#ED7C64"/>
</g>
<circle cx="121.5" cy="117.5" r="99.5" fill="#F0BCB1"/>
<defs>
<filter id="filter0_d_1_1279" x="0" y="18.4014" width="244" height="225.599" filterUnits="userSpaceOnUse" color-interpolation-filters="sRGB">
<feFlood flood-opacity="0" result="BackgroundImageFix"/>
<feColorMatrix in="SourceAlpha" type="matrix" values="0 0 0 0 0 0 0 0 0 0 0 0 0 0 0 0 0 0 127 0" result="hardAlpha"/>
<feOffset dy="4"/>
<feGaussianBlur stdDeviation="2"/>
<feComposite in2="hardAlpha" operator="out"/>
<feColorMatrix type="matrix" values="0 0 0 0 0 0 0 0 0 0 0 0 0 0 0 0 0 0 0.25 0"/>
<feBlend mode="normal" in2="BackgroundImageFix" result="effect1_dropShadow_1_1279"/>
<feBlend mode="normal" in="SourceGraphic" in2="effect1_dropShadow_1_1279" result="shape"/>
</filter>
</defs>
</svg>
